<?xml version="1.0" encoding="utf-8"?>
<!-- Generator: Adobe Illustrator 22.1.0, SVG Export Plug-In . SVG Version: 6.00 Build 0)  -->
<svg version="1.1" id="Layer_1" xmlns="http://www.w3.org/2000/svg" xmlns:xlink="http://www.w3.org/1999/xlink" x="0px" y="0px"
	 viewBox="0 0 2222.1 1411" style="enable-background:new 0 0 2222.1 1411;" xml:space="preserve">
<style type="text/css">
	.st0{fill:#0072BC;}
	.st1{display:none;}
	.st2{display:inline;opacity:0.25;}
	.st3{fill:#FFFFFF;}
	.st4{fill:#7B2B2B;}
</style>
<g id="Layer_3">
	<rect x="152" y="166" class="st0" width="1920" height="1080"/>
</g>
<g id="Layer_4" class="st1">
	<g class="st2">
		<g>
			<g>
				<polygon class="st3" points="-254.7,484.6 -246.4,484.6 -246.4,488.7 -250.6,488.7 -250.6,492.9 -254.7,492.9 				"/>
			</g>
			<g>
				<path class="st3" d="M-233.9,484.6h12.5v4.1h-12.5V484.6z M-208.9,484.6h12.5v4.1h-12.5V484.6z M-184,484.6h12.5v4.1H-184V484.6
					z M-159,484.6h12.5v4.1H-159V484.6z M-134,484.6h12.5v4.1H-134V484.6z M-109,484.6h12.5v4.1H-109V484.6z M-84,484.6h12.5v4.1
					H-84V484.6z M-59,484.6h12.5v4.1H-59V484.6z M-34,484.6h12.5v4.1H-34V484.6z M-9.1,484.6H3.4v4.1H-9.1V484.6z M15.9,484.6h12.5
					v4.1H15.9V484.6z M40.9,484.6h12.5v4.1H40.9V484.6z M65.9,484.6h12.5v4.1H65.9V484.6z M90.9,484.6h12.5v4.1H90.9V484.6z
					 M115.9,484.6h12.5v4.1h-12.5V484.6z M140.9,484.6h12.5v4.1h-12.5V484.6z M165.9,484.6h12.5v4.1h-12.5V484.6z M190.8,484.6h12.5
					v4.1h-12.5V484.6z M215.8,484.6h12.5v4.1h-12.5V484.6z M240.8,484.6h12.5v4.1h-12.5V484.6z M265.8,484.6h12.5v4.1h-12.5V484.6z
					 M290.8,484.6h12.5v4.1h-12.5V484.6z M315.8,484.6h12.5v4.1h-12.5V484.6z"/>
			</g>
			<g>
				<polygon class="st3" points="340.8,484.6 349.1,484.6 349.1,492.9 344.9,492.9 344.9,488.7 340.8,488.7 				"/>
			</g>
			<g>
				<path class="st3" d="M344.9,505.1h4.1v12.2h-4.1V505.1z M344.9,529.5h4.1v12.2h-4.1V529.5z M344.9,553.9h4.1v12.2h-4.1V553.9z
					 M344.9,578.4h4.1v12.2h-4.1V578.4z M344.9,602.8h4.1V615h-4.1V602.8z M344.9,627.2h4.1v12.2h-4.1V627.2z M344.9,651.6h4.1v12.2
					h-4.1V651.6z M344.9,676h4.1v12.2h-4.1V676z M344.9,700.5h4.1v12.2h-4.1V700.5z M344.9,724.9h4.1v12.2h-4.1V724.9z M344.9,749.3
					h4.1v12.2h-4.1V749.3z M344.9,773.7h4.1v12.2h-4.1V773.7z M344.9,798.2h4.1v12.2h-4.1V798.2z M344.9,822.6h4.1v12.2h-4.1V822.6z
					 M344.9,847h4.1v12.2h-4.1V847z M344.9,871.4h4.1v12.2h-4.1V871.4z M344.9,895.8h4.1V908h-4.1V895.8z M344.9,920.3h4.1v12.2
					h-4.1V920.3z"/>
			</g>
			<g>
				<polygon class="st3" points="344.9,944.7 349.1,944.7 349.1,953 340.8,953 340.8,948.8 344.9,948.8 				"/>
			</g>
			<g>
				<path class="st3" d="M-233.9,948.8h12.5v4.1h-12.5V948.8z M-208.9,948.8h12.5v4.1h-12.5V948.8z M-184,948.8h12.5v4.1H-184V948.8
					z M-159,948.8h12.5v4.1H-159V948.8z M-134,948.8h12.5v4.1H-134V948.8z M-109,948.8h12.5v4.1H-109V948.8z M-84,948.8h12.5v4.1
					H-84V948.8z M-59,948.8h12.5v4.1H-59V948.8z M-34,948.8h12.5v4.1H-34V948.8z M-9.1,948.8H3.4v4.1H-9.1V948.8z M15.9,948.8h12.5
					v4.1H15.9V948.8z M40.9,948.8h12.5v4.1H40.9V948.8z M65.9,948.8h12.5v4.1H65.9V948.8z M90.9,948.8h12.5v4.1H90.9V948.8z
					 M115.9,948.8h12.5v4.1h-12.5V948.8z M140.9,948.8h12.5v4.1h-12.5V948.8z M165.9,948.8h12.5v4.1h-12.5V948.8z M190.8,948.8h12.5
					v4.1h-12.5V948.8z M215.8,948.8h12.5v4.1h-12.5V948.8z M240.8,948.8h12.5v4.1h-12.5V948.8z M265.8,948.8h12.5v4.1h-12.5V948.8z
					 M290.8,948.8h12.5v4.1h-12.5V948.8z M315.8,948.8h12.5v4.1h-12.5V948.8z"/>
			</g>
			<g>
				<polygon class="st3" points="-254.7,944.7 -250.6,944.7 -250.6,948.8 -246.4,948.8 -246.4,953 -254.7,953 				"/>
			</g>
			<g>
				<path class="st3" d="M-254.7,505.1h4.1v12.2h-4.1V505.1z M-254.7,529.5h4.1v12.2h-4.1V529.5z M-254.7,553.9h4.1v12.2h-4.1V553.9
					z M-254.7,578.4h4.1v12.2h-4.1V578.4z M-254.7,602.8h4.1V615h-4.1V602.8z M-254.7,627.2h4.1v12.2h-4.1V627.2z M-254.7,651.6h4.1
					v12.2h-4.1V651.6z M-254.7,676h4.1v12.2h-4.1V676z M-254.7,700.5h4.1v12.2h-4.1V700.5z M-254.7,724.9h4.1v12.2h-4.1V724.9z
					 M-254.7,749.3h4.1v12.2h-4.1V749.3z M-254.7,773.7h4.1v12.2h-4.1V773.7z M-254.7,798.2h4.1v12.2h-4.1V798.2z M-254.7,822.6h4.1
					v12.2h-4.1V822.6z M-254.7,847h4.1v12.2h-4.1V847z M-254.7,871.4h4.1v12.2h-4.1V871.4z M-254.7,895.8h4.1V908h-4.1V895.8z
					 M-254.7,920.3h4.1v12.2h-4.1V920.3z"/>
			</g>
		</g>
		<g>
			<g>
				<polygon class="st3" points="-548.1,303 -539.9,303 -539.9,307.2 -544,307.2 -544,311.3 -548.1,311.3 				"/>
			</g>
			<g>
				<path class="st3" d="M-527.4,303h12.5v4.1h-12.5V303z M-502.4,303h12.5v4.1h-12.5V303z M-477.4,303h12.5v4.1h-12.5V303z
					 M-452.4,303h12.5v4.1h-12.5V303z M-427.4,303h12.5v4.1h-12.5V303z M-402.4,303h12.5v4.1h-12.5V303z M-377.4,303h12.5v4.1h-12.5
					V303z M-352.5,303h12.5v4.1h-12.5V303z M-327.5,303h12.5v4.1h-12.5V303z M-302.5,303h12.5v4.1h-12.5V303z M-277.5,303h12.5v4.1
					h-12.5V303z M-252.5,303h12.5v4.1h-12.5V303z M-227.5,303h12.5v4.1h-12.5V303z M-202.5,303h12.5v4.1h-12.5V303z M-177.6,303
					h12.5v4.1h-12.5V303z M-152.6,303h12.5v4.1h-12.5V303z M-127.6,303h12.5v4.1h-12.5V303z M-102.6,303h12.5v4.1h-12.5V303z
					 M-77.6,303h12.5v4.1h-12.5V303z M-52.6,303h12.5v4.1h-12.5V303z M-27.6,303h12.5v4.1h-12.5V303z M-2.6,303H9.9v4.1H-2.6V303z
					 M22.3,303h12.5v4.1H22.3V303z"/>
			</g>
			<g>
				<polygon class="st3" points="47.3,303 55.6,303 55.6,311.3 51.5,311.3 51.5,307.2 47.3,307.2 				"/>
			</g>
			<g>
				<path class="st3" d="M51.5,323.9h4.1v12.5h-4.1V323.9z M51.5,348.9h4.1v12.5h-4.1V348.9z M51.5,374h4.1v12.5h-4.1V374z
					 M51.5,399h4.1v12.5h-4.1V399z M51.5,424.1h4.1v12.5h-4.1V424.1z M51.5,449.1h4.1v12.5h-4.1V449.1z M51.5,474.1h4.1v12.5h-4.1
					V474.1z M51.5,499.2h4.1v12.5h-4.1V499.2z M51.5,524.2h4.1v12.5h-4.1V524.2z M51.5,549.3h4.1v12.5h-4.1V549.3z M51.5,574.3h4.1
					v12.5h-4.1V574.3z M51.5,599.4h4.1v12.5h-4.1V599.4z M51.5,624.4h4.1V637h-4.1V624.4z M51.5,649.5h4.1V662h-4.1V649.5z
					 M51.5,674.5h4.1V687h-4.1V674.5z"/>
			</g>
			<g>
				<polygon class="st3" points="51.5,699.6 55.6,699.6 55.6,707.9 47.3,707.9 47.3,703.7 51.5,703.7 				"/>
			</g>
			<g>
				<path class="st3" d="M-527.4,703.7h12.5v4.1h-12.5V703.7z M-502.4,703.7h12.5v4.1h-12.5V703.7z M-477.4,703.7h12.5v4.1h-12.5
					V703.7z M-452.4,703.7h12.5v4.1h-12.5V703.7z M-427.4,703.7h12.5v4.1h-12.5V703.7z M-402.4,703.7h12.5v4.1h-12.5V703.7z
					 M-377.4,703.7h12.5v4.1h-12.5V703.7z M-352.5,703.7h12.5v4.1h-12.5V703.7z M-327.5,703.7h12.5v4.1h-12.5V703.7z M-302.5,703.7
					h12.5v4.1h-12.5V703.7z M-277.5,703.7h12.5v4.1h-12.5V703.7z M-252.5,703.7h12.5v4.1h-12.5V703.7z M-227.5,703.7h12.5v4.1h-12.5
					V703.7z M-202.5,703.7h12.5v4.1h-12.5V703.7z M-177.6,703.7h12.5v4.1h-12.5V703.7z M-152.6,703.7h12.5v4.1h-12.5V703.7z
					 M-127.6,703.7h12.5v4.1h-12.5V703.7z M-102.6,703.7h12.5v4.1h-12.5V703.7z M-77.6,703.7h12.5v4.1h-12.5V703.7z M-52.6,703.7
					h12.5v4.1h-12.5V703.7z M-27.6,703.7h12.5v4.1h-12.5V703.7z M-2.7,703.7H9.8v4.1H-2.7V703.7z M22.3,703.7h12.5v4.1H22.3V703.7z"
					/>
			</g>
			<g>
				<polygon class="st3" points="-548.1,699.6 -544,699.6 -544,703.7 -539.9,703.7 -539.9,707.9 -548.1,707.9 				"/>
			</g>
			<g>
				<path class="st3" d="M-548.1,323.9h4.1v12.5h-4.1V323.9z M-548.1,348.9h4.1v12.5h-4.1V348.9z M-548.1,374h4.1v12.5h-4.1V374z
					 M-548.1,399h4.1v12.5h-4.1V399z M-548.1,424.1h4.1v12.5h-4.1V424.1z M-548.1,449.1h4.1v12.5h-4.1V449.1z M-548.1,474.1h4.1
					v12.5h-4.1V474.1z M-548.1,499.2h4.1v12.5h-4.1V499.2z M-548.1,524.2h4.1v12.5h-4.1V524.2z M-548.1,549.3h4.1v12.5h-4.1V549.3z
					 M-548.1,574.3h4.1v12.5h-4.1V574.3z M-548.1,599.4h4.1v12.5h-4.1V599.4z M-548.1,624.4h4.1V637h-4.1V624.4z M-548.1,649.5h4.1
					V662h-4.1V649.5z M-548.1,674.5h4.1V687h-4.1V674.5z"/>
			</g>
		</g>
		<g>
			<path class="st3" d="M-563.7,588.6v4.1c-4.1,0-8.3,0.1-12.3,0.4l-0.2-4.1C-572.1,588.8-567.8,588.7-563.7,588.6z M-551.1,588.9
				c4.2,0.2,8.4,0.5,12.5,0.9l-0.4,4.1c-4-0.4-8.2-0.7-12.3-0.9L-551.1,588.9z M-588.7,590.1l0.5,4.1c-4.1,0.5-8.2,1-12.2,1.7
				l-0.7-4.1C-597,591.1-592.9,590.5-588.7,590.1z M-526.2,591.5c4.1,0.7,8.3,1.4,12.3,2.3l-0.9,4.1c-4-0.9-8-1.6-12.1-2.2
				L-526.2,591.5z M-613.4,594.2l0.9,4c-4,0.9-8,1.9-11.9,3l-1.1-4C-621.6,596.1-617.5,595.1-613.4,594.2z M-501.7,596.7
				c4,1.1,8,2.3,12,3.6l-1.3,3.9c-3.9-1.3-7.9-2.5-11.8-3.5L-501.7,596.7z M-637.6,601l1.3,3.9c-3.9,1.3-7.8,2.8-11.5,4.3l-1.5-3.8
				C-645.5,603.8-641.5,602.3-637.6,601z M-477.8,604.6c3.9,1.5,7.8,3.2,11.6,4.9l-1.7,3.8c-3.7-1.7-7.5-3.3-11.4-4.8L-477.8,604.6z
				 M-660.8,610.3l1.8,3.8c-3.7,1.7-7.4,3.6-11,5.5l-1.9-3.7C-668.3,614-664.6,612.1-660.8,610.3z M-455,615.1c3.7,1.9,7.4,4,11,6.1
				l-2.1,3.6c-3.5-2.1-7.1-4.1-10.8-6L-455,615.1z M-682.9,622.1l2.1,3.5c-3.5,2.1-7,4.4-10.3,6.7l-2.3-3.4
				C-690,626.6-686.4,624.3-682.9,622.1z M-433.4,627.9c3.4,2.3,6.9,4.8,10.2,7.3l-2.5,3.3c-3.3-2.5-6.7-4.9-10-7.1L-433.4,627.9z
				 M-703.6,636.3l2.5,3.3c-3.2,2.5-6.5,5.1-9.6,7.7l-2.7-3.2C-710.2,641.4-706.9,638.8-703.6,636.3z M-413.4,643
				c3.2,2.7,6.3,5.5,9.4,8.3l-2.8,3c-3-2.8-6.1-5.6-9.2-8.2L-413.4,643z M-722.6,652.5l2.9,3c-3,2.8-5.9,5.7-8.7,8.7l-3-2.8
				C-728.6,658.4-725.7,655.4-722.6,652.5z M-395.1,660.1c2.9,3,5.7,6.2,8.4,9.3l-3.1,2.7c-2.6-3.1-5.4-6.1-8.3-9.1L-395.1,660.1z
				 M-739.9,670.8l3.2,2.7c-2.6,3.1-5.2,6.3-7.7,9.6l-3.3-2.5C-745.2,677.2-742.5,673.9-739.9,670.8z M-378.7,679.1
				c2.5,3.3,5,6.7,7.4,10.1l-3.4,2.4c-2.3-3.4-4.8-6.7-7.3-9.9L-378.7,679.1z M-755,690.8l3.4,2.3c-2.3,3.4-4.5,6.9-6.6,10.4
				l-3.6-2.1C-759.7,697.8-757.4,694.2-755,690.8z M-364.5,699.8c2.2,3.5,4.3,7.2,6.2,10.9l-3.6,2c-2-3.6-4-7.2-6.1-10.7
				L-364.5,699.8z M-768,712.3l3.7,1.9c-1.9,3.6-3.7,7.3-5.5,11l-3.8-1.7C-771.8,719.7-769.9,715.9-768,712.3z M-352.6,721.8
				c1.8,3.7,3.5,7.6,5,11.5l-3.8,1.6c-1.5-3.8-3.2-7.6-4.9-11.3L-352.6,721.8z M-778.5,735.1l3.9,1.5c-1.5,3.8-2.9,7.7-4.3,11.6
				l-3.9-1.3C-781.5,742.9-780,738.9-778.5,735.1z M-343.2,745c1.4,4,2.6,8,3.8,12l-4,1.1c-1.1-3.9-2.4-7.9-3.7-11.7L-343.2,745z
				 M-786.5,758.9l4,1.1c-1.1,3.9-2.1,8-3,12l-4-0.9C-788.6,767-787.6,762.9-786.5,758.9z M-336.3,769.1c0.9,4.1,1.7,8.2,2.4,12.3
				l-4.1,0.7c-0.7-4-1.5-8.1-2.4-12.1L-336.3,769.1z M-791.8,783.4l4.1,0.7c-0.7,4.1-1.2,8.2-1.6,12.2l-4.1-0.4
				C-793.1,791.7-792.5,787.5-791.8,783.4z M-332.1,793.8c0.5,4.2,0.9,8.4,1.1,12.5l-4.1,0.3c-0.2-4-0.6-8.2-1.1-12.3L-332.1,793.8z
				 M-794.5,808.3l4.1,0.2c-0.2,4.1-0.3,8.2-0.3,12.3c0,1.3,0,2.6,0,3.9l-4.1,0.1c0-1.3,0-2.6,0-3.9
				C-794.9,816.6-794.7,812.4-794.5,808.3z M-330.5,818.9v2c0,3.5-0.1,7.1-0.2,10.6l-4.1-0.2c0.2-3.4,0.2-6.9,0.2-10.4V819
				L-330.5,818.9z M-790.1,837c0.3,4.1,0.7,8.2,1.2,12.3l-4.1,0.5c-0.5-4.1-0.9-8.3-1.2-12.5L-790.1,837z M-335.8,843.5l4.1,0.4
				c-0.4,4.1-0.9,8.3-1.6,12.4l-4.1-0.6C-336.7,851.7-336.2,847.5-335.8,843.5z M-787.1,861.4c0.7,4,1.6,8.1,2.5,12.1l-4,1
				c-1-4.1-1.8-8.2-2.6-12.3L-787.1,861.4z M-339.5,867.8l4.1,0.9c-0.9,4.1-1.8,8.2-2.9,12.2l-4-1.1
				C-341.3,875.9-340.4,871.8-339.5,867.8z M-781.4,885.4c1.2,3.9,2.4,7.9,3.8,11.7l-3.9,1.4c-1.4-3.9-2.7-7.9-3.9-11.9
				L-781.4,885.4z M-345.9,891.6l3.9,1.3c-1.3,3.9-2.7,7.9-4.2,11.8l-3.9-1.5C-348.5,899.4-347.1,895.5-345.9,891.6z M-773.2,908.6
				c1.6,3.8,3.3,7.5,5,11.2l-3.7,1.8c-1.8-3.8-3.5-7.6-5.1-11.4L-773.2,908.6z M-354.8,914.6l3.8,1.7c-1.7,3.8-3.5,7.6-5.5,11.3
				l-3.7-1.9C-358.3,922.1-356.5,918.3-354.8,914.6z M-762.5,930.7c2,3.6,4.1,7.1,6.2,10.6l-3.5,2.2c-2.2-3.6-4.3-7.2-6.3-10.8
				L-762.5,930.7z M-366.1,936.5l3.6,2.1c-2.1,3.6-4.4,7.2-6.7,10.6l-3.4-2.3C-370.4,943.5-368.2,940-366.1,936.5z M-749.5,951.6
				c2.4,3.4,4.8,6.7,7.3,9.9l-3.3,2.6c-2.6-3.3-5.1-6.7-7.5-10.1L-749.5,951.6z M-379.8,957l3.3,2.5c-2.5,3.3-5.1,6.6-7.8,9.9
				l-3.2-2.7C-384.8,963.5-382.2,960.3-379.8,957z M-734.3,970.9c2.7,3.1,5.5,6.1,8.4,9l-3,2.9c-2.9-3-5.8-6.1-8.5-9.2L-734.3,970.9
				z M-395.6,975.9l3,2.8c-2.8,3-5.8,6.1-8.8,9l-2.9-3C-401.2,981.9-398.3,978.9-395.6,975.9z M-717.1,988.6c3,2.8,6.1,5.5,9.3,8.1
				l-2.6,3.2c-3.2-2.7-6.4-5.4-9.5-8.2L-717.1,988.6z M-413.3,993.1l2.7,3.1c-3.1,2.7-6.4,5.4-9.7,8l-2.5-3.3
				C-419.5,998.4-416.3,995.7-413.3,993.1z M-698.1,1004.3c3.3,2.4,6.7,4.8,10.1,7.1l-2.3,3.5c-3.5-2.3-6.9-4.7-10.3-7.2
				L-698.1,1004.3z M-432.7,1008.2l2.4,3.4c-3.4,2.4-6.9,4.7-10.5,6.9l-2.2-3.5C-439.5,1012.8-436.1,1010.5-432.7,1008.2z
				 M-677.5,1017.8c3.5,2.1,7.2,4.1,10.8,5.9l-1.9,3.7c-3.7-1.9-7.4-3.9-11-6L-677.5,1017.8z M-453.6,1021.1l2,3.6
				c-3.7,2-7.4,3.9-11.1,5.7l-1.8-3.7C-460.9,1025-457.2,1023.1-453.6,1021.1z M-655.6,1029.1c3.7,1.7,7.6,3.3,11.4,4.7l-1.5,3.9
				c-3.9-1.5-7.8-3.1-11.6-4.8L-655.6,1029.1z M-475.8,1031.7l1.6,3.8c-3.8,1.6-7.8,3.1-11.7,4.5l-1.4-3.9
				C-483.5,1034.7-479.6,1033.3-475.8,1031.7z M-632.6,1037.9c3.9,1.2,7.9,2.4,11.8,3.5l-1.1,4c-4-1.1-8.1-2.2-12-3.5L-632.6,1037.9
				z M-499.1,1039.8l1.2,4c-4,1.2-8.1,2.2-12.1,3.2l-0.9-4C-507,1042-503,1041-499.1,1039.8z M-608.8,1044.2c4,0.8,8.1,1.5,12.1,2.1
				l-0.6,4.1c-4.1-0.6-8.3-1.4-12.4-2.2L-608.8,1044.2z M-523,1045.4l0.7,4.1c-4.1,0.7-8.2,1.3-12.4,1.8l-0.5-4.1
				C-531.1,1046.7-527,1046.1-523,1045.4z M-584.4,1047.8c4.1,0.4,8.2,0.7,12.3,0.8l-0.2,4.1c-4.2-0.2-8.4-0.5-12.5-0.8
				L-584.4,1047.8z M-547.5,1048.3l0.3,4.1c-4.1,0.3-8.3,0.4-12.5,0.5v-4.1C-555.7,1048.8-551.5,1048.6-547.5,1048.3z"/>
		</g>
		<g>
			<g>
				<path class="st3" d="M-683.6,997c9.9,0,18,8.1,18,18s-8.1,18-18,18s-18-8.1-18-18S-693.5,997-683.6,997z M-683.6,1028.8
					c7.6,0,13.8-6.2,13.8-13.8s-6.2-13.8-13.8-13.8s-13.8,6.2-13.8,13.8C-697.5,1022.6-691.3,1028.8-683.6,1028.8z"/>
			</g>
			<g>
				<path class="st3" d="M-691.8,1015c0-4.5,3.6-8.1,8.1-8.1s8.1,3.6,8.1,8.1s-3.6,8.1-8.1,8.1
					C-688.1,1023.1-691.8,1019.5-691.8,1015z"/>
			</g>
		</g>
		<g>
			<path class="st3" d="M285.9,356h12.4v4.1h-12.4V356z M310.7,356h12.4v4.1h-12.4V356z M335.6,356H348v4.1h-12.4V356z M360.5,356
				h12.4v4.1h-12.4V356z M385.4,356h12.4v4.1h-12.4V356z M410.2,356h12.4v4.1h-12.4V356z M435.1,356h12.4v4.1h-12.4V356z M460,356
				h13.1v3.4H471v0.7h-11V356z M283.8,365.1h4.1v12.4h-4.1V365.1z M469,371.9h4.1v12.4H469V371.9z M283.8,389.9h4.1v12.4h-4.1V389.9
				z M469,396.8h4.1v12.4H469V396.8z M283.8,414.8h4.1v12.4h-4.1V414.8z M469,421.6h4.1V434H469V421.6z M283.8,439.7h4.1v12.4h-4.1
				V439.7z M469,446.5h4.1v12.4H469V446.5z M283.8,464.5h4.1V477h-4.1V464.5z M469,471.4h4.1v12.4H469V471.4z M283.8,489.4h4.1v12.4
				h-4.1V489.4z M469,496.2h4.1v12.4H469V496.2z M283.8,514.3h4.1v12.4h-4.1V514.3z M469,521.1h4.1v12.4H469V521.1z M283.8,539.2
				h4.1v2h6.3v4.1h-10.4L283.8,539.2L283.8,539.2z M306.7,541.2h12.4v4.1h-12.4V541.2z M331.5,541.2H344v4.1h-12.4v-4.1H331.5z
				 M356.4,541.2h12.4v4.1h-12.4V541.2z M381.3,541.2h12.4v4.1h-12.4V541.2z M406.1,541.2h12.4v4.1h-12.4V541.2z M431,541.2h12.4
				v4.1H431V541.2z M455.9,541.2h12.4v4.1h-12.4V541.2z"/>
		</g>
		<g>
			<polygon class="st3" points="385.7,985.3 395,985.3 395,994.6 403.9,994.6 403.9,985.3 413.2,985.3 413.2,976.5 403.9,976.5 
				403.9,967.1 395,967.1 395,976.5 385.7,976.5 			"/>
		</g>
		<g>
			<polygon class="st3" points="184.5,326.2 193.9,326.2 193.9,335.6 202.7,335.6 202.7,326.2 212.1,326.2 212.1,317.4 202.7,317.4 
				202.7,308 193.9,308 193.9,317.4 184.5,317.4 			"/>
		</g>
		<g>
			<g>
				<polygon class="st3" points="-61.2,1045.5 -57,1045.5 -57,1054.7 -47.8,1054.7 -47.8,1058.8 -61.2,1058.8 				"/>
			</g>
			<g>
				<polygon class="st3" points="-26.5,1045.5 -22.3,1045.5 -22.3,1058.8 -35.7,1058.8 -35.7,1054.7 -26.5,1054.7 				"/>
			</g>
			<g>
				<polygon class="st3" points="-61.2,1020 -47.8,1020 -47.8,1024.2 -57,1024.2 -57,1033.4 -61.2,1033.4 				"/>
			</g>
			<g>
				<polygon class="st3" points="-35.7,1020 -22.3,1020 -22.3,1033.4 -26.5,1033.4 -26.5,1024.2 -35.7,1024.2 				"/>
			</g>
		</g>
		<g>
			<g>
				<polygon class="st3" points="-721.4,403.6 -717.3,403.6 -717.3,412.8 -708.1,412.8 -708.1,417 -721.4,417 				"/>
			</g>
			<g>
				<polygon class="st3" points="-686.7,403.6 -682.6,403.6 -682.6,417 -695.9,417 -695.9,412.8 -686.7,412.8 				"/>
			</g>
			<g>
				<polygon class="st3" points="-721.4,378.2 -708.1,378.2 -708.1,382.3 -717.3,382.3 -717.3,391.5 -721.4,391.5 				"/>
			</g>
			<g>
				<polygon class="st3" points="-695.9,378.2 -682.6,378.2 -682.6,391.5 -686.7,391.5 -686.7,382.3 -695.9,382.3 				"/>
			</g>
		</g>
		<g>
			<g>
				<polygon class="st3" points="-544.7,416.5 -540.5,416.5 -540.5,425.7 -531.3,425.7 -531.3,429.9 -544.7,429.9 				"/>
			</g>
			<g>
				<polygon class="st3" points="-510,416.5 -505.9,416.5 -505.9,429.9 -519.2,429.9 -519.2,425.7 -510,425.7 				"/>
			</g>
			<g>
				<polygon class="st3" points="-544.7,391.1 -531.3,391.1 -531.3,395.2 -540.5,395.2 -540.5,404.4 -544.7,404.4 				"/>
			</g>
			<g>
				<polygon class="st3" points="-519.2,391.1 -505.9,391.1 -505.9,404.4 -510,404.4 -510,395.2 -519.2,395.2 				"/>
			</g>
		</g>
		<g>
			<g>
				<path class="st3" d="M471.1,409.6c9.9,0,18,8.1,18,18s-8.1,18-18,18s-18-8.1-18-18S461.2,409.6,471.1,409.6z M471.1,441.4
					c7.6,0,13.8-6.2,13.8-13.8c0-7.6-6.2-13.8-13.8-13.8c-7.6,0-13.8,6.2-13.8,13.8C457.3,435.2,463.5,441.4,471.1,441.4z"/>
			</g>
			<g>
				<path class="st3" d="M462.9,427.6c0-4.5,3.6-8.1,8.1-8.1s8.1,3.6,8.1,8.1s-3.6,8.1-8.1,8.1C466.6,435.7,462.9,432.1,462.9,427.6
					z"/>
			</g>
		</g>
	</g>
	<g class="st2">
		<g>
			<g>
				<polygon class="st3" points="1886.2,828.1 1886.2,835.2 1882.7,835.2 1882.7,831.6 1879.2,831.6 1879.2,828.1 				"/>
			</g>
			<g>
				<path class="st3" d="M1886.2,845.8v10.6h-3.5v-10.6H1886.2z M1886.2,867.1v10.6h-3.5v-10.6H1886.2z M1886.2,888.4V899h-3.5
					v-10.6H1886.2z M1886.2,909.7v10.6h-3.5v-10.6H1886.2z M1886.2,931v10.6h-3.5V931H1886.2z M1886.2,952.3v10.6h-3.5v-10.6H1886.2
					z M1886.2,973.6v10.6h-3.5v-10.6H1886.2z M1886.2,994.9v10.6h-3.5v-10.6H1886.2z M1886.2,1016.1v10.6h-3.5v-10.6H1886.2z
					 M1886.2,1037.4v10.6h-3.5v-10.6H1886.2z M1886.2,1058.7v10.6h-3.5v-10.6H1886.2z M1886.2,1080v10.6h-3.5V1080H1886.2z
					 M1886.2,1101.3v10.7h-3.5v-10.6L1886.2,1101.3L1886.2,1101.3z M1886.2,1122.6v10.6h-3.5v-10.6H1886.2z M1886.2,1143.9v10.6
					h-3.5v-10.6H1886.2z M1886.2,1165.2v10.6h-3.5v-10.6H1886.2z M1886.2,1186.5v10.6h-3.5v-10.6H1886.2z M1886.2,1207.8v10.6h-3.5
					v-10.6H1886.2z M1886.2,1229.1v10.6h-3.5v-10.6H1886.2z M1886.2,1250.3v10.6h-3.5v-10.6H1886.2z M1886.2,1271.6v10.6h-3.5v-10.6
					H1886.2z M1886.2,1292.9v10.6h-3.5v-10.6H1886.2z M1886.2,1314.2v10.6h-3.5v-10.6H1886.2z"/>
			</g>
			<g>
				<polygon class="st3" points="1886.2,1335.5 1886.2,1342.6 1879.2,1342.6 1879.2,1339 1882.7,1339 1882.7,1335.5 				"/>
			</g>
			<g>
				<path class="st3" d="M1868.8,1339v3.5h-10.4v-3.5H1868.8z M1848,1339v3.5h-10.4v-3.5H1848z M1827.2,1339v3.5h-10.4v-3.5H1827.2z
					 M1806.3,1339v3.5h-10.4v-3.5H1806.3z M1785.5,1339v3.5h-10.4v-3.5H1785.5z M1764.7,1339v3.5h-10.4v-3.5H1764.7z M1743.9,1339
					v3.5h-10.4v-3.5H1743.9z M1723.1,1339v3.5h-10.4v-3.5H1723.1z M1702.3,1339v3.5h-10.4v-3.5H1702.3z M1681.5,1339v3.5h-10.4v-3.5
					H1681.5z M1660.7,1339v3.5h-10.4v-3.5H1660.7z M1639.9,1339v3.5h-10.4v-3.5H1639.9z M1619.1,1339v3.5h-10.4v-3.5H1619.1z
					 M1598.3,1339v3.5h-10.4v-3.5H1598.3z M1577.4,1339v3.5H1567v-3.5H1577.4z M1556.6,1339v3.5h-10.4v-3.5H1556.6z M1535.8,1339
					v3.5h-10.4v-3.5H1535.8z M1515,1339v3.5h-10.4v-3.5H1515z"/>
			</g>
			<g>
				<polygon class="st3" points="1494.2,1339 1494.2,1342.6 1487.1,1342.6 1487.1,1335.5 1490.7,1335.5 1490.7,1339 				"/>
			</g>
			<g>
				<path class="st3" d="M1490.7,845.8v10.6h-3.5v-10.6H1490.7z M1490.7,867.1v10.6h-3.5v-10.6H1490.7z M1490.7,888.4V899h-3.5
					v-10.6H1490.7z M1490.7,909.7v10.6h-3.5v-10.6H1490.7z M1490.7,931v10.6h-3.5V931H1490.7z M1490.7,952.3v10.6h-3.5v-10.6H1490.7
					z M1490.7,973.6v10.6h-3.5v-10.6H1490.7z M1490.7,994.9v10.6h-3.5v-10.6H1490.7z M1490.7,1016.1v10.6h-3.5v-10.6H1490.7z
					 M1490.7,1037.4v10.6h-3.5v-10.6H1490.7z M1490.7,1058.7v10.6h-3.5v-10.6H1490.7z M1490.7,1080v10.6h-3.5V1080H1490.7z
					 M1490.7,1101.3v10.7h-3.5v-10.6L1490.7,1101.3L1490.7,1101.3z M1490.7,1122.6v10.6h-3.5v-10.6H1490.7z M1490.7,1143.9v10.6
					h-3.5v-10.6H1490.7z M1490.7,1165.2v10.6h-3.5v-10.6H1490.7z M1490.7,1186.5v10.6h-3.5v-10.6H1490.7z M1490.7,1207.8v10.6h-3.5
					v-10.6H1490.7z M1490.7,1229v10.6h-3.5V1229H1490.7z M1490.7,1250.3v10.6h-3.5v-10.6H1490.7z M1490.7,1271.6v10.6h-3.5v-10.6
					H1490.7z M1490.7,1292.9v10.6h-3.5v-10.6H1490.7z M1490.7,1314.2v10.6h-3.5v-10.6H1490.7z"/>
			</g>
			<g>
				<polygon class="st3" points="1494.2,828.1 1494.2,831.6 1490.7,831.6 1490.7,835.2 1487.1,835.2 1487.1,828.1 				"/>
			</g>
			<g>
				<path class="st3" d="M1868.8,828.1v3.5h-10.4v-3.5H1868.8z M1848,828.1v3.5h-10.4v-3.5H1848z M1827.2,828.1v3.5h-10.4v-3.5
					H1827.2z M1806.3,828.1v3.5h-10.4v-3.5H1806.3z M1785.5,828.1v3.5h-10.4v-3.5H1785.5z M1764.7,828.1v3.5h-10.4v-3.5H1764.7z
					 M1743.9,828.1v3.5h-10.4v-3.5H1743.9z M1723.1,828.1v3.5h-10.4v-3.5H1723.1z M1702.3,828.1v3.5h-10.4v-3.5H1702.3z
					 M1681.5,828.1v3.5h-10.4v-3.5H1681.5z M1660.7,828.1v3.5h-10.4v-3.5H1660.7z M1639.9,828.1v3.5h-10.4v-3.5H1639.9z
					 M1619.1,828.1v3.5h-10.4v-3.5H1619.1z M1598.3,828.1v3.5h-10.4v-3.5H1598.3z M1577.4,828.1v3.5H1567v-3.5H1577.4z
					 M1556.6,828.1v3.5h-10.4v-3.5H1556.6z M1535.8,828.1v3.5h-10.4v-3.5H1535.8z M1515,828.1v3.5h-10.4v-3.5H1515z"/>
			</g>
		</g>
		<g>
			<g>
				<polygon class="st3" points="2040.9,578.1 2040.9,585.1 2037.4,585.1 2037.4,581.6 2033.9,581.6 2033.9,578.1 				"/>
			</g>
			<g>
				<path class="st3" d="M2040.9,595.8v10.6h-3.5v-10.6H2040.9z M2040.9,617.1v10.6h-3.5v-10.6H2040.9z M2040.9,638.4V649h-3.5
					v-10.6H2040.9z M2040.9,659.7v10.6h-3.5v-10.6H2040.9z M2040.9,680.9v10.6h-3.5v-10.6H2040.9z M2040.9,702.2v10.6h-3.5v-10.6
					H2040.9z M2040.9,723.5v10.6h-3.5v-10.6H2040.9z M2040.9,744.8v10.6h-3.5v-10.6H2040.9z M2040.9,766.1v10.6h-3.5v-10.6H2040.9z
					 M2040.9,787.4V798h-3.5v-10.6H2040.9z M2040.9,808.7v10.6h-3.5v-10.6H2040.9z M2040.9,830v10.6h-3.5V830H2040.9z M2040.9,851.3
					v10.6h-3.5v-10.6H2040.9z M2040.9,872.6v10.6h-3.5v-10.6H2040.9z M2040.9,893.9v10.6h-3.5v-10.6H2040.9z M2040.9,915.1v10.6
					h-3.5v-10.6H2040.9z M2040.9,936.4V947h-3.5v-10.6H2040.9z M2040.9,957.7v10.6h-3.5v-10.6H2040.9z M2040.9,979v10.6h-3.5V979
					H2040.9z M2040.9,1000.3v10.7h-3.5v-10.6h3.5V1000.3z M2040.9,1021.6v10.6h-3.5v-10.6H2040.9z M2040.9,1042.9v10.6h-3.5v-10.6
					H2040.9z M2040.9,1064.2v10.6h-3.5v-10.6H2040.9z"/>
			</g>
			<g>
				<polygon class="st3" points="2040.9,1085.5 2040.9,1092.5 2033.9,1092.5 2033.9,1089 2037.4,1089 2037.4,1085.5 				"/>
			</g>
			<g>
				<path class="st3" d="M2023.2,1089v3.5h-10.7v-3.5H2023.2z M2001.9,1089v3.5h-10.7v-3.5H2001.9z M1980.5,1089v3.5h-10.7v-3.5
					H1980.5z M1959.2,1089v3.5h-10.7v-3.5H1959.2z M1937.8,1089v3.5h-10.7v-3.5H1937.8z M1916.5,1089v3.5h-10.7v-3.5H1916.5z
					 M1895.2,1089v3.5h-10.7v-3.5H1895.2z M1873.8,1089v3.5h-10.7v-3.5H1873.8z M1852.5,1089v3.5h-10.7v-3.5H1852.5z M1831.1,1089
					v3.5h-10.7v-3.5H1831.1z M1809.8,1089v3.5h-10.7v-3.5H1809.8z M1788.4,1089v3.5h-10.7v-3.5H1788.4z M1767.1,1089v3.5h-10.7v-3.5
					H1767.1z M1745.8,1089v3.5h-10.7v-3.5H1745.8z M1724.4,1089v3.5h-10.7v-3.5H1724.4z"/>
			</g>
			<g>
				<polygon class="st3" points="1703.1,1089 1703.1,1092.5 1696,1092.5 1696,1085.5 1699.5,1085.5 1699.5,1089 				"/>
			</g>
			<g>
				<path class="st3" d="M1699.5,595.8v10.6h-3.5v-10.6H1699.5z M1699.5,617.1v10.6h-3.5v-10.6H1699.5z M1699.5,638.4V649h-3.5
					v-10.6H1699.5z M1699.5,659.7v10.6h-3.5v-10.6H1699.5z M1699.5,680.9v10.6h-3.5v-10.6H1699.5z M1699.5,702.2v10.6h-3.5v-10.6
					H1699.5z M1699.5,723.5v10.6h-3.5v-10.6H1699.5z M1699.5,744.8v10.6h-3.5v-10.6H1699.5z M1699.5,766.1v10.6h-3.5v-10.6H1699.5z
					 M1699.5,787.4V798h-3.5v-10.6H1699.5z M1699.5,808.7v10.6h-3.5v-10.6H1699.5z M1699.5,830v10.6h-3.5V830H1699.5z M1699.5,851.3
					v10.6h-3.5v-10.6H1699.5z M1699.5,872.6v10.6h-3.5v-10.6H1699.5z M1699.5,893.9v10.6h-3.5v-10.6H1699.5z M1699.5,915.1v10.6
					h-3.5v-10.6H1699.5z M1699.5,936.4V947h-3.5v-10.6H1699.5z M1699.5,957.7v10.6h-3.5v-10.6H1699.5z M1699.5,979v10.6h-3.5V979
					H1699.5z M1699.5,1000.3v10.7h-3.5v-10.6h3.5V1000.3z M1699.5,1021.6v10.6h-3.5v-10.6H1699.5z M1699.5,1042.9v10.6h-3.5v-10.6
					H1699.5z M1699.5,1064.2v10.6h-3.5v-10.6H1699.5z"/>
			</g>
			<g>
				<polygon class="st3" points="1703.1,578.1 1703.1,581.6 1699.5,581.6 1699.5,585.1 1696,585.1 1696,578.1 				"/>
			</g>
			<g>
				<path class="st3" d="M2023.2,578.1v3.5h-10.7v-3.5H2023.2z M2001.9,578.1v3.5h-10.7v-3.5H2001.9z M1980.5,578.1v3.5h-10.7v-3.5
					H1980.5z M1959.2,578.1v3.5h-10.7v-3.5H1959.2z M1937.8,578.1v3.5h-10.7v-3.5H1937.8z M1916.5,578.1v3.5h-10.7v-3.5H1916.5z
					 M1895.2,578.1v3.5h-10.7v-3.5H1895.2z M1873.8,578.1v3.5h-10.7v-3.5H1873.8z M1852.5,578.1v3.5h-10.7v-3.5H1852.5z
					 M1831.1,578.1v3.5h-10.7v-3.5H1831.1z M1809.8,578.1v3.5h-10.7v-3.5H1809.8z M1788.4,578.1v3.5h-10.7v-3.5H1788.4z
					 M1767.1,578.1v3.5h-10.7v-3.5H1767.1z M1745.8,578.1v3.5h-10.7v-3.5H1745.8z M1724.4,578.1v3.5h-10.7v-3.5H1724.4z"/>
			</g>
		</g>
		<g>
			<path class="st3" d="M1797.6,564.8h-3.5c0-3.5-0.1-7-0.3-10.5l3.5-0.2C1797.5,557.7,1797.6,561.3,1797.6,564.8z M1797.4,575.5
				c-0.2,3.6-0.4,7.2-0.8,10.7l-3.5-0.4c0.4-3.4,0.6-7,0.8-10.5L1797.4,575.5z M1796.4,543.5l-3.5,0.4c-0.4-3.5-0.9-7-1.4-10.4
				l3.5-0.6C1795.5,536.4,1796,540,1796.4,543.5z M1795.2,596.8c-0.6,3.5-1.2,7-2,10.5l-3.5-0.7c0.7-3.4,1.4-6.9,1.9-10.3
				L1795.2,596.8z M1792.9,522.5l-3.4,0.8c-0.8-3.4-1.6-6.8-2.6-10.2l3.4-1C1791.2,515.5,1792.1,519,1792.9,522.5z M1790.7,617.7
				c-0.9,3.4-2,6.8-3.1,10.2l-3.4-1.1c1.1-3.3,2.1-6.7,3-10L1790.7,617.7z M1787.1,501.9l-3.3,1.1c-1.1-3.3-2.4-6.6-3.7-9.8l3.3-1.3
				C1784.7,495.2,1785.9,498.5,1787.1,501.9z M1784,638c-1.3,3.3-2.7,6.6-4.2,9.9l-3.2-1.5c1.5-3.2,2.8-6.4,4.1-9.7L1784,638z
				 M1779.1,482.1l-3.2,1.5c-1.5-3.2-3.1-6.3-4.7-9.4l3.1-1.7C1776,475.7,1777.6,478.9,1779.1,482.1z M1775.1,657.4
				c-1.7,3.2-3.4,6.3-5.2,9.3l-3-1.8c1.8-3,3.5-6.1,5.1-9.2L1775.1,657.4z M1769,463.3l-3,1.8c-1.8-3-3.7-5.9-5.7-8.8l2.9-2
				C1765.3,457.2,1767.2,460.2,1769,463.3z M1764.1,675.8c-2,2.9-4.1,5.9-6.2,8.7l-2.8-2.1c2.1-2.8,4.1-5.7,6.1-8.6L1764.1,675.8z
				 M1757,445.6l-2.8,2.1c-2.1-2.8-4.3-5.5-6.6-8.2l2.7-2.3C1752.6,440,1754.9,442.8,1757,445.6z M1751.3,692.9
				c-2.3,2.7-4.7,5.4-7.1,8l-2.6-2.4c2.4-2.6,4.7-5.2,7-7.9L1751.3,692.9z M1743.1,429.4l-2.6,2.4c-2.4-2.5-4.9-5-7.4-7.4l2.4-2.6
				C1738.2,424.3,1740.7,426.8,1743.1,429.4z M1736.7,708.5c-2.6,2.5-5.2,4.9-7.9,7.2l-2.3-2.7c2.6-2.3,5.2-4.6,7.8-7.1
				L1736.7,708.5z M1727.6,414.7l-2.3,2.7c-2.6-2.2-5.4-4.4-8.2-6.6l2.1-2.8C1722.1,410.2,1724.9,412.4,1727.6,414.7z M1720.5,722.4
				c-2.8,2.2-5.7,4.3-8.6,6.3l-2-2.9c2.9-2,5.7-4.1,8.5-6.2L1720.5,722.4z M1710.6,401.8l-2,2.9c-2.9-2-5.9-3.9-8.9-5.7l1.8-3
				C1704.6,397.8,1707.6,399.8,1710.6,401.8z M1702.9,734.5c-3,1.8-6.1,3.6-9.2,5.3l-1.7-3.1c3.1-1.7,6.1-3.4,9.1-5.2L1702.9,734.5z
				 M1692.3,390.8l-1.7,3.1c-3.1-1.6-6.2-3.2-9.4-4.7l1.5-3.2C1685.9,387.5,1689.1,389.1,1692.3,390.8z M1684.1,744.7
				c-3.2,1.5-6.5,2.9-9.8,4.3l-1.3-3.3c3.2-1.3,6.5-2.7,9.6-4.2L1684.1,744.7z M1672.8,381.8l-1.3,3.3c-3.2-1.3-6.6-2.5-9.9-3.6
				l1.1-3.3C1666.1,379.2,1669.5,380.5,1672.8,381.8z M1664.4,752.7c-3.4,1.2-6.8,2.2-10.2,3.2l-1-3.4c3.3-0.9,6.7-2,10-3.2
				L1664.4,752.7z M1652.6,375l-0.9,3.4c-3.4-0.9-6.8-1.8-10.2-2.5l0.8-3.4C1645.6,373.2,1649.1,374,1652.6,375z M1643.8,758.6
				c-3.5,0.8-7,1.5-10.5,2.1l-0.6-3.5c3.4-0.6,6.9-1.3,10.3-2L1643.8,758.6z M1631.7,370.4l-0.6,3.5c-3.5-0.6-7-1-10.4-1.4l0.4-3.5
				C1624.6,369.4,1628.2,369.8,1631.7,370.4z M1622.8,762.2c-3.6,0.4-7.2,0.7-10.6,0.9l-0.2-3.5c3.4-0.2,7-0.5,10.5-0.9
				L1622.8,762.2z M1610.4,368.1l-0.2,3.5c-3.5-0.2-7-0.3-10.5-0.3c-1.1,0-2.2,0-3.3,0l-0.1-3.5c1.1,0,2.2,0,3.4,0
				C1603.3,367.9,1606.9,368,1610.4,368.1z M1601.4,763.5h-1.7c-3,0-6-0.1-9-0.2l0.2-3.5c2.9,0.1,5.9,0.2,8.9,0.2h1.6V763.5z
				 M1586,371.9c-3.5,0.2-7,0.6-10.4,1l-0.4-3.5c3.5-0.4,7.1-0.8,10.6-1L1586,371.9z M1580.4,759l-0.3,3.5
				c-3.5-0.3-7.1-0.8-10.6-1.3l0.5-3.5C1573.5,758.3,1577,758.7,1580.4,759z M1565.2,374.5c-3.4,0.6-6.9,1.3-10.3,2.1l-0.8-3.4
				c3.5-0.8,7-1.6,10.5-2.2L1565.2,374.5z M1559.7,755.9l-0.7,3.5c-3.5-0.7-7-1.6-10.4-2.5l0.9-3.4
				C1552.8,754.3,1556.3,755.1,1559.7,755.9z M1544.7,379.3c-3.4,1-6.7,2.1-10,3.2l-1.2-3.3c3.3-1.2,6.7-2.3,10.2-3.3L1544.7,379.3z
				 M1539.4,750.4l-1.1,3.4c-3.4-1.1-6.8-2.3-10.1-3.6l1.3-3.3C1532.8,748.2,1536.1,749.4,1539.4,750.4z M1525,386.3
				c-3.2,1.3-6.4,2.8-9.6,4.3l-1.5-3.2c3.2-1.5,6.5-3,9.7-4.4L1525,386.3z M1519.8,742.8l-1.5,3.2c-3.2-1.4-6.5-3-9.6-4.7l1.6-3.1
				C1513.5,739.9,1516.7,741.4,1519.8,742.8z M1506.1,395.4c-3,1.7-6.1,3.5-9,5.3l-1.9-3c3-1.9,6.1-3.7,9.2-5.4L1506.1,395.4z
				 M1501.2,733.2l-1.8,3c-3-1.8-6.1-3.7-9.1-5.7l2-2.9C1495.2,729.5,1498.2,731.4,1501.2,733.2z M1488.3,406.5
				c-2.9,2-5.7,4.1-8.4,6.3l-2.2-2.8c2.8-2.2,5.7-4.3,8.6-6.4L1488.3,406.5z M1483.7,721.5l-2.1,2.8c-2.8-2.1-5.6-4.3-8.4-6.6
				l2.3-2.7C1478.1,717.3,1480.9,719.5,1483.7,721.5z M1471.8,419.4c-2.6,2.3-5.2,4.7-7.7,7.1l-2.5-2.5c2.5-2.5,5.2-4.9,7.8-7.3
				L1471.8,419.4z M1467.6,708.1l-2.4,2.6c-2.6-2.4-5.2-4.9-7.6-7.5l2.5-2.5C1462.5,703.2,1465,705.7,1467.6,708.1z M1456.8,434.1
				c-2.4,2.6-4.7,5.2-6.9,7.9l-2.7-2.2c2.3-2.7,4.6-5.5,7-8.1L1456.8,434.1z M1453,693l-2.7,2.3c-2.3-2.7-4.6-5.4-6.8-8.3l2.8-2.2
				C1448.5,687.7,1450.7,690.4,1453,693z M1443.4,450.3c-2.1,2.8-4.1,5.7-6,8.6l-2.9-1.9c1.9-3,4-5.9,6.1-8.8L1443.4,450.3z
				 M1440.1,676.5l-2.9,2c-2-2.9-4-5.9-5.9-8.9l3-1.9C1436.2,670.6,1438.1,673.6,1440.1,676.5z M1431.9,467.8
				c-1.8,3-3.5,6.1-5.1,9.2l-3.1-1.6c1.6-3.2,3.4-6.3,5.1-9.4L1431.9,467.8z M1429.1,658.6l-3.1,1.7c-1.7-3.1-3.3-6.3-4.9-9.5
				l3.2-1.5C1425.8,652.4,1427.4,655.6,1429.1,658.6z M1422.3,486.5c-1.4,3.2-2.8,6.4-4,9.7l-3.3-1.3c1.3-3.3,2.7-6.7,4.1-9.9
				L1422.3,486.5z M1420.1,639.7l-3.3,1.3c-1.3-3.3-2.6-6.6-3.8-10l3.3-1.2C1417.5,633.2,1418.7,636.5,1420.1,639.7z M1414.8,506.1
				c-1.1,3.3-2.1,6.7-2.9,10.1l-3.4-0.9c0.9-3.4,1.9-6.9,3-10.3L1414.8,506.1z M1413.1,619.9l-3.4,1c-1-3.4-1.9-6.9-2.7-10.3
				l3.4-0.8C1411.3,613.1,1412.2,616.6,1413.1,619.9z M1409.4,526.4c-0.7,3.4-1.3,6.9-1.8,10.3l-3.5-0.5c0.5-3.5,1.2-7.1,1.9-10.5
				L1409.4,526.4z M1408.4,599.5l-3.5,0.6c-0.6-3.5-1.1-7-1.6-10.6l3.5-0.4C1407.3,592.6,1407.8,596.1,1408.4,599.5z M1406.3,547.2
				c-0.3,3.5-0.6,7-0.7,10.5l-3.5-0.1c0.1-3.6,0.4-7.1,0.7-10.7L1406.3,547.2z M1405.9,578.6l-3.5,0.2c-0.2-3.5-0.4-7.1-0.4-10.7
				h3.5C1405.5,571.7,1405.7,575.2,1405.9,578.6z"/>
		</g>
		<g>
			<g>
				<path class="st3" d="M1449.6,462.6c0,8.4-6.9,15.3-15.3,15.3s-15.3-6.9-15.3-15.3s6.9-15.3,15.3-15.3S1449.6,454.2,1449.6,462.6
					z M1422.5,462.6c0,6.5,5.3,11.8,11.8,11.8s11.8-5.3,11.8-11.8s-5.3-11.8-11.8-11.8C1427.8,450.9,1422.5,456.1,1422.5,462.6z"/>
			</g>
			<g>
				<path class="st3" d="M1434.3,455.7c3.8,0,6.9,3.1,6.9,6.9s-3.1,6.9-6.9,6.9s-6.9-3.1-6.9-6.9
					C1427.4,458.8,1430.5,455.7,1434.3,455.7z"/>
			</g>
		</g>
		<g>
			<path class="st3" d="M1995.8,1288.7v10.6h-3.5v-10.6H1995.8z M1995.8,1309.9v10.6h-3.5v-10.6H1995.8z M1995.8,1331.1v10.6h-3.5
				v-10.6H1995.8z M1995.8,1352.3v10.6h-3.5v-10.6H1995.8z M1995.8,1373.5v10.6h-3.5v-10.6H1995.8z M1995.8,1394.7v10.6h-3.5v-10.6
				H1995.8z M1995.8,1415.9v10.6h-3.5v-10.6H1995.8z M1995.8,1437.1v11.2h-2.9v-1.8h-0.6v-9.4L1995.8,1437.1L1995.8,1437.1z
				 M1988.1,1287v3.5h-10.6v-3.5H1988.1z M1982.3,1444.7v3.5h-10.6v-3.5H1982.3z M1966.9,1287v3.5h-10.6v-3.5H1966.9z
				 M1961.1,1444.7v3.5h-10.6v-3.5H1961.1z M1945.7,1287v3.5h-10.6v-3.5H1945.7z M1939.9,1444.7v3.5h-10.6v-3.5H1939.9z
				 M1924.5,1287v3.5h-10.6v-3.5H1924.5z M1918.7,1444.7v3.5h-10.6v-3.5H1918.7z M1903.3,1287v3.5h-10.6v-3.5H1903.3z
				 M1897.5,1444.7v3.5h-10.6v-3.5H1897.5z M1882.1,1287v3.5h-10.6v-3.5H1882.1z M1876.3,1444.7v3.5h-10.6v-3.5H1876.3z
				 M1860.9,1287v3.5h-10.6v-3.5H1860.9z M1855.1,1444.7v3.5h-10.6v-3.5H1855.1z M1839.8,1287v3.5h-1.7v5.3h-3.5v-8.9L1839.8,1287
				L1839.8,1287z M1838,1306.4v10.6h-3.5v-10.6H1838z M1838,1327.6v10.6h-3.5v-10.6H1838z M1838,1348.8v10.6h-3.5v-10.6H1838z
				 M1838,1370v10.6h-3.5V1370H1838z M1838,1391.2v10.6h-3.5v-10.6H1838z M1838,1412.4v10.6h-3.5v-10.6H1838z M1838,1433.6v10.6
				h-3.5v-10.6H1838z"/>
		</g>
		<g>
			<polygon class="st3" points="1459.6,1373.8 1459.6,1381.7 1451.6,1381.7 1451.6,1389.3 1459.6,1389.3 1459.6,1397.2 
				1467.1,1397.2 1467.1,1389.3 1475.1,1389.3 1475.1,1381.7 1467.1,1381.7 1467.1,1373.8 			"/>
		</g>
		<g>
			<polygon class="st3" points="2021.2,1202.4 2021.2,1210.4 2013.2,1210.4 2013.2,1217.9 2021.2,1217.9 2021.2,1225.9 
				2028.7,1225.9 2028.7,1217.9 2036.7,1217.9 2036.7,1210.4 2028.7,1210.4 2028.7,1202.4 			"/>
		</g>
		<g>
			<g>
				<polygon class="st3" points="1408.3,993 1408.3,996.5 1400.5,996.5 1400.5,1004.4 1396.9,1004.4 1396.9,993 				"/>
			</g>
			<g>
				<polygon class="st3" points="1408.3,1022.6 1408.3,1026.1 1396.9,1026.1 1396.9,1014.7 1400.5,1014.7 1400.5,1022.6 				"/>
			</g>
			<g>
				<polygon class="st3" points="1430,993 1430,1004.4 1426.5,1004.4 1426.5,996.5 1418.6,996.5 1418.6,993 				"/>
			</g>
			<g>
				<polygon class="st3" points="1430,1014.7 1430,1026.1 1418.6,1026.1 1418.6,1022.6 1426.5,1022.6 1426.5,1014.7 				"/>
			</g>
		</g>
		<g>
			<g>
				<polygon class="st3" points="1955.2,430.4 1955.2,434 1947.4,434 1947.4,441.8 1943.9,441.8 1943.9,430.4 				"/>
			</g>
			<g>
				<polygon class="st3" points="1955.2,460 1955.2,463.5 1943.9,463.5 1943.9,452.2 1947.4,452.2 1947.4,460 				"/>
			</g>
			<g>
				<polygon class="st3" points="1976.9,430.4 1976.9,441.8 1973.4,441.8 1973.4,434 1965.6,434 1965.6,430.4 				"/>
			</g>
			<g>
				<polygon class="st3" points="1976.9,452.2 1976.9,463.5 1965.6,463.5 1965.6,460 1973.4,460 1973.4,452.2 				"/>
			</g>
		</g>
		<g>
			<g>
				<polygon class="st3" points="1944.2,581 1944.2,584.6 1936.4,584.6 1936.4,592.4 1932.9,592.4 1932.9,581 				"/>
			</g>
			<g>
				<polygon class="st3" points="1944.2,610.6 1944.2,614.1 1932.9,614.1 1932.9,602.7 1936.4,602.7 1936.4,610.6 				"/>
			</g>
			<g>
				<polygon class="st3" points="1965.9,581 1965.9,592.4 1962.4,592.4 1962.4,584.6 1954.6,584.6 1954.6,581 				"/>
			</g>
			<g>
				<polygon class="st3" points="1965.9,602.7 1965.9,614.1 1954.6,614.1 1954.6,610.6 1962.4,610.6 1962.4,602.7 				"/>
			</g>
		</g>
		<g>
			<g>
				<path class="st3" d="M1950.1,1446.5c0,8.4-6.9,15.3-15.3,15.3s-15.3-6.9-15.3-15.3s6.9-15.3,15.3-15.3
					S1950.1,1438.1,1950.1,1446.5z M1923,1446.5c0,6.5,5.3,11.8,11.8,11.8s11.8-5.3,11.8-11.8s-5.3-11.8-11.8-11.8
					C1928.3,1434.8,1923,1440,1923,1446.5z"/>
			</g>
			<g>
				<path class="st3" d="M1934.8,1439.6c3.8,0,6.9,3.1,6.9,6.9s-3.1,6.9-6.9,6.9s-6.9-3.1-6.9-6.9S1931,1439.6,1934.8,1439.6z"/>
			</g>
		</g>
	</g>
</g>
<g id="Layer_3_1_">
	<rect class="st4" width="2222.1" height="1411"/>
</g>
</svg>
