<?xml version="1.0" encoding="utf-8"?>
<!-- Generator: Adobe Illustrator 22.1.0, SVG Export Plug-In . SVG Version: 6.00 Build 0)  -->
<svg version="1.1" xmlns="http://www.w3.org/2000/svg" xmlns:xlink="http://www.w3.org/1999/xlink" x="0px" y="0px"
	 viewBox="0 0 2222.1 1411" style="enable-background:new 0 0 2222.1 1411;" xml:space="preserve">
<style type="text/css">
	.st0{fill:#646464;enable-background:new    ;}
	.st1{fill:url(#SVGID_1_);}
	.st2{display:none;}
	.st3{display:inline;opacity:0.25;}
	.st4{fill:#FFFFFF;}
	.st5{opacity:0.14;}
	.st6{fill:#513313;}
	.st7{fill:#754C28;}
	.st8{fill:#231F29;}
	.st9{fill:#FAB587;}
	.st10{fill:#3A8197;}
	.st11{fill:#2D2932;}
	.st12{fill:#56B8D5;}
	.st13{fill:#D0D2D3;}
	.st14{fill:#F8A67B;}
	.st15{fill:#BBBDBF;}
	.st16{fill:#B5B7B9;}
	.st17{fill:#C8CACB;}
	.st18{fill:#E8E8E9;}
	.st19{fill:#5C2F1C;}
	.st20{fill:#F9A877;}
	.st21{fill:#2F0B00;}
	.st22{fill:#BC7950;}
	.st23{fill:#4E230C;}
	.st24{fill:#FFCA9F;}
	.st25{fill:#714837;}
	.st26{fill:#572917;}
	.st27{fill:#5C301D;}
	.st28{fill:#CF8558;}
	.st29{fill:#FEAA8C;}
	.st30{fill:#324851;}
	.st31{fill:#4D2902;}
	.st32{fill:none;}
	.st33{opacity:0.39;enable-background:new    ;}
</style>
<g id="Layer_1">
	<g id="Layer_3_2_">
		<rect class="st0" width="2222.1" height="1411"/>
		
			<radialGradient id="SVGID_1_" cx="1111.5863" cy="545.2108" r="808.5" gradientTransform="matrix(1 0 0 -1.1266 0 1805.9948)" gradientUnits="userSpaceOnUse">
			<stop  offset="0" style="stop-color:#FFFFFF"/>
			<stop  offset="0" style="stop-color:#A4A4A4;stop-opacity:0.2"/>
			<stop  offset="0.6321" style="stop-color:#646464;stop-opacity:0.6"/>
		</radialGradient>
		<path class="st1" d="M1111.6,280.9c-446.5,0-808.5,407.8-808.5,910.9c0,76.8,8.5,151.5,24.4,222.7h1568.3
			c15.9-71.3,24.4-145.9,24.4-222.7C1920.1,688.7,1558.1,280.9,1111.6,280.9z"/>
	</g>
	<g id="Layer_1_2_">
		<g id="Layer_4" class="st2">
			<g class="st3">
				<g>
					<g>
						<polygon class="st4" points="-258.2,475.9 -249.9,475.9 -249.9,480 -254.1,480 -254.1,484.2 -258.2,484.2 						"/>
					</g>
					<g>
						<path class="st4" d="M-237.4,475.9h12.5v4.1h-12.5V475.9z M-212.4,475.9h12.5v4.1h-12.5V475.9z M-187.5,475.9h12.5v4.1h-12.5
							V475.9z M-162.5,475.9h12.5v4.1h-12.5V475.9z M-137.5,475.9h12.5v4.1h-12.5V475.9z M-112.5,475.9h12.5v4.1h-12.5V475.9z
							 M-87.5,475.9H-75v4.1h-12.5V475.9z M-62.5,475.9H-50v4.1h-12.5V475.9z M-37.5,475.9H-25v4.1h-12.5V475.9z M-12.6,475.9h12.5
							v4.1h-12.5V475.9z M12.4,475.9h12.5v4.1H12.4V475.9z M37.4,475.9h12.5v4.1H37.4V475.9z M62.4,475.9h12.5v4.1H62.4V475.9z
							 M87.4,475.9h12.5v4.1H87.4V475.9z M112.4,475.9h12.5v4.1h-12.5V475.9z M137.4,475.9h12.5v4.1h-12.5V475.9z M162.4,475.9h12.5
							v4.1h-12.5V475.9z M187.3,475.9h12.5v4.1h-12.5V475.9z M212.3,475.9h12.5v4.1h-12.5V475.9z M237.3,475.9h12.5v4.1h-12.5V475.9
							z M262.3,475.9h12.5v4.1h-12.5V475.9z M287.3,475.9h12.5v4.1h-12.5V475.9z M312.3,475.9h12.5v4.1h-12.5V475.9z"/>
					</g>
					<g>
						<polygon class="st4" points="337.3,475.9 345.6,475.9 345.6,484.2 341.4,484.2 341.4,480 337.3,480 						"/>
					</g>
					<g>
						<path class="st4" d="M341.4,496.4h4.1v12.2h-4.1V496.4z M341.4,520.8h4.1V533h-4.1V520.8z M341.4,545.2h4.1v12.2h-4.1V545.2z
							 M341.4,569.7h4.1v12.2h-4.1V569.7z M341.4,594.1h4.1v12.2h-4.1V594.1z M341.4,618.5h4.1v12.2h-4.1V618.5z M341.4,642.9h4.1
							v12.2h-4.1V642.9z M341.4,667.3h4.1v12.2h-4.1V667.3z M341.4,691.8h4.1V704h-4.1V691.8z M341.4,716.2h4.1v12.2h-4.1V716.2z
							 M341.4,740.6h4.1v12.2h-4.1V740.6z M341.4,765h4.1v12.2h-4.1V765z M341.4,789.5h4.1v12.2h-4.1V789.5z M341.4,813.9h4.1v12.2
							h-4.1V813.9z M341.4,838.3h4.1v12.2h-4.1V838.3z M341.4,862.7h4.1v12.2h-4.1V862.7z M341.4,887.1h4.1v12.2h-4.1V887.1z
							 M341.4,911.6h4.1v12.2h-4.1V911.6z"/>
					</g>
					<g>
						<polygon class="st4" points="341.4,936 345.6,936 345.6,944.3 337.3,944.3 337.3,940.1 341.4,940.1 						"/>
					</g>
					<g>
						<path class="st4" d="M-237.4,940.1h12.5v4.1h-12.5V940.1z M-212.4,940.1h12.5v4.1h-12.5V940.1z M-187.5,940.1h12.5v4.1h-12.5
							V940.1z M-162.5,940.1h12.5v4.1h-12.5V940.1z M-137.5,940.1h12.5v4.1h-12.5V940.1z M-112.5,940.1h12.5v4.1h-12.5V940.1z
							 M-87.5,940.1H-75v4.1h-12.5V940.1z M-62.5,940.1H-50v4.1h-12.5V940.1z M-37.5,940.1H-25v4.1h-12.5V940.1z M-12.6,940.1h12.5
							v4.1h-12.5V940.1z M12.4,940.1h12.5v4.1H12.4V940.1z M37.4,940.1h12.5v4.1H37.4V940.1z M62.4,940.1h12.5v4.1H62.4V940.1z
							 M87.4,940.1h12.5v4.1H87.4V940.1z M112.4,940.1h12.5v4.1h-12.5V940.1z M137.4,940.1h12.5v4.1h-12.5V940.1z M162.4,940.1h12.5
							v4.1h-12.5V940.1z M187.3,940.1h12.5v4.1h-12.5V940.1z M212.3,940.1h12.5v4.1h-12.5V940.1z M237.3,940.1h12.5v4.1h-12.5V940.1
							z M262.3,940.1h12.5v4.1h-12.5V940.1z M287.3,940.1h12.5v4.1h-12.5V940.1z M312.3,940.1h12.5v4.1h-12.5V940.1z"/>
					</g>
					<g>
						<polygon class="st4" points="-258.2,936 -254.1,936 -254.1,940.1 -249.9,940.1 -249.9,944.3 -258.2,944.3 						"/>
					</g>
					<g>
						<path class="st4" d="M-258.2,496.4h4.1v12.2h-4.1V496.4z M-258.2,520.8h4.1V533h-4.1V520.8z M-258.2,545.2h4.1v12.2h-4.1
							V545.2z M-258.2,569.7h4.1v12.2h-4.1V569.7z M-258.2,594.1h4.1v12.2h-4.1V594.1z M-258.2,618.5h4.1v12.2h-4.1V618.5z
							 M-258.2,642.9h4.1v12.2h-4.1V642.9z M-258.2,667.3h4.1v12.2h-4.1V667.3z M-258.2,691.8h4.1V704h-4.1V691.8z M-258.2,716.2
							h4.1v12.2h-4.1V716.2z M-258.2,740.6h4.1v12.2h-4.1V740.6z M-258.2,765h4.1v12.2h-4.1V765z M-258.2,789.5h4.1v12.2h-4.1V789.5
							z M-258.2,813.9h4.1v12.2h-4.1V813.9z M-258.2,838.3h4.1v12.2h-4.1V838.3z M-258.2,862.7h4.1v12.2h-4.1V862.7z M-258.2,887.1
							h4.1v12.2h-4.1V887.1z M-258.2,911.6h4.1v12.2h-4.1V911.6z"/>
					</g>
				</g>
				<g>
					<g>
						<polygon class="st4" points="-551.6,294.3 -543.4,294.3 -543.4,298.5 -547.5,298.5 -547.5,302.6 -551.6,302.6 						"/>
					</g>
					<g>
						<path class="st4" d="M-530.9,294.3h12.5v4.1h-12.5V294.3z M-505.9,294.3h12.5v4.1h-12.5V294.3z M-480.9,294.3h12.5v4.1h-12.5
							V294.3z M-455.9,294.3h12.5v4.1h-12.5V294.3z M-430.9,294.3h12.5v4.1h-12.5V294.3z M-405.9,294.3h12.5v4.1h-12.5V294.3z
							 M-380.9,294.3h12.5v4.1h-12.5V294.3z M-356,294.3h12.5v4.1H-356V294.3z M-331,294.3h12.5v4.1H-331V294.3z M-306,294.3h12.5
							v4.1H-306V294.3z M-281,294.3h12.5v4.1H-281V294.3z M-256,294.3h12.5v4.1H-256V294.3z M-231,294.3h12.5v4.1H-231V294.3z
							 M-206,294.3h12.5v4.1H-206V294.3z M-181.1,294.3h12.5v4.1h-12.5V294.3z M-156.1,294.3h12.5v4.1h-12.5V294.3z M-131.1,294.3
							h12.5v4.1h-12.5V294.3z M-106.1,294.3h12.5v4.1h-12.5V294.3z M-81.1,294.3h12.5v4.1h-12.5V294.3z M-56.1,294.3h12.5v4.1h-12.5
							V294.3z M-31.1,294.3h12.5v4.1h-12.5V294.3z M-6.1,294.3H6.4v4.1H-6.1V294.3z M18.8,294.3h12.5v4.1H18.8V294.3z"/>
					</g>
					<g>
						<polygon class="st4" points="43.8,294.3 52.1,294.3 52.1,302.6 48,302.6 48,298.5 43.8,298.5 						"/>
					</g>
					<g>
						<path class="st4" d="M48,315.2h4.1v12.5H48V315.2z M48,340.2h4.1v12.5H48V340.2z M48,365.3h4.1v12.5H48V365.3z M48,390.3h4.1
							v12.5H48V390.3z M48,415.4h4.1v12.5H48V415.4z M48,440.4h4.1v12.5H48V440.4z M48,465.4h4.1v12.5H48V465.4z M48,490.5h4.1V503
							H48V490.5z M48,515.5h4.1V528H48V515.5z M48,540.6h4.1v12.5H48V540.6z M48,565.6h4.1v12.5H48V565.6z M48,590.7h4.1v12.5H48
							V590.7z M48,615.7h4.1v12.6H48V615.7z M48,640.8h4.1v12.5H48V640.8z M48,665.8h4.1v12.5H48V665.8z"/>
					</g>
					<g>
						<polygon class="st4" points="48,690.9 52.1,690.9 52.1,699.2 43.8,699.2 43.8,695 48,695 						"/>
					</g>
					<g>
						<path class="st4" d="M-530.9,695h12.5v4.1h-12.5V695z M-505.9,695h12.5v4.1h-12.5V695z M-480.9,695h12.5v4.1h-12.5V695z
							 M-455.9,695h12.5v4.1h-12.5V695z M-430.9,695h12.5v4.1h-12.5V695z M-405.9,695h12.5v4.1h-12.5V695z M-380.9,695h12.5v4.1
							h-12.5V695z M-356,695h12.5v4.1H-356V695z M-331,695h12.5v4.1H-331V695z M-306,695h12.5v4.1H-306V695z M-281,695h12.5v4.1
							H-281V695z M-256,695h12.5v4.1H-256V695z M-231,695h12.5v4.1H-231V695z M-206,695h12.5v4.1H-206V695z M-181.1,695h12.5v4.1
							h-12.5V695z M-156.1,695h12.5v4.1h-12.5V695z M-131.1,695h12.5v4.1h-12.5V695z M-106.1,695h12.5v4.1h-12.5V695z M-81.1,695
							h12.5v4.1h-12.5V695z M-56.1,695h12.5v4.1h-12.5V695z M-31.1,695h12.5v4.1h-12.5V695z M-6.2,695H6.3v4.1H-6.2V695z M18.8,695
							h12.5v4.1H18.8V695z"/>
					</g>
					<g>
						<polygon class="st4" points="-551.6,690.9 -547.5,690.9 -547.5,695 -543.4,695 -543.4,699.2 -551.6,699.2 						"/>
					</g>
					<g>
						<path class="st4" d="M-551.6,315.2h4.1v12.5h-4.1V315.2z M-551.6,340.2h4.1v12.5h-4.1V340.2z M-551.6,365.3h4.1v12.5h-4.1
							V365.3z M-551.6,390.3h4.1v12.5h-4.1V390.3z M-551.6,415.4h4.1v12.5h-4.1V415.4z M-551.6,440.4h4.1v12.5h-4.1V440.4z
							 M-551.6,465.4h4.1v12.5h-4.1V465.4z M-551.6,490.5h4.1V503h-4.1V490.5z M-551.6,515.5h4.1V528h-4.1V515.5z M-551.6,540.6h4.1
							v12.5h-4.1V540.6z M-551.6,565.6h4.1v12.5h-4.1V565.6z M-551.6,590.7h4.1v12.5h-4.1V590.7z M-551.6,615.7h4.1v12.6h-4.1V615.7
							z M-551.6,640.8h4.1v12.5h-4.1V640.8z M-551.6,665.8h4.1v12.5h-4.1V665.8z"/>
					</g>
				</g>
				<g>
					<path class="st4" d="M-567.2,579.9v4.1c-4.1,0-8.3,0.1-12.3,0.4l-0.2-4.1C-575.6,580.1-571.3,580-567.2,579.9z M-554.6,580.2
						c4.2,0.2,8.4,0.5,12.5,0.9l-0.4,4.1c-4-0.4-8.2-0.7-12.3-0.9L-554.6,580.2z M-592.2,581.4l0.5,4.1c-4.1,0.5-8.2,1-12.2,1.7
						l-0.7-4.1C-600.5,582.4-596.4,581.8-592.2,581.4z M-529.7,582.8c4.1,0.7,8.3,1.4,12.3,2.3l-0.9,4.1c-4-0.9-8-1.6-12.1-2.2
						L-529.7,582.8z M-616.9,585.5l0.9,4c-4,0.9-8,1.9-11.9,3l-1.1-4C-625.1,587.4-621,586.4-616.9,585.5z M-505.2,588
						c4,1.1,8,2.3,12,3.6l-1.3,3.9c-3.9-1.3-7.9-2.5-11.8-3.5L-505.2,588z M-641.1,592.3l1.3,3.9c-3.9,1.3-7.8,2.8-11.5,4.3
						l-1.5-3.8C-649,595.1-645,593.6-641.1,592.3z M-481.3,595.9c3.9,1.5,7.8,3.2,11.6,4.9l-1.7,3.8c-3.7-1.7-7.5-3.3-11.4-4.8
						L-481.3,595.9z M-664.3,601.6l1.8,3.8c-3.7,1.7-7.4,3.6-11,5.5l-1.9-3.7C-671.8,605.3-668.1,603.4-664.3,601.6z M-458.5,606.4
						c3.7,1.9,7.4,4,11,6.1l-2.1,3.6c-3.5-2.1-7.1-4.1-10.8-6L-458.5,606.4z M-686.4,613.4l2.1,3.5c-3.5,2.1-7,4.4-10.3,6.7
						l-2.3-3.4C-693.5,617.9-689.9,615.6-686.4,613.4z M-436.9,619.2c3.4,2.3,6.9,4.8,10.2,7.3l-2.5,3.3c-3.3-2.5-6.7-4.9-10-7.1
						L-436.9,619.2z M-707.1,627.6l2.5,3.3c-3.2,2.5-6.5,5.1-9.6,7.7l-2.7-3.2C-713.7,632.7-710.4,630.1-707.1,627.6z M-416.9,634.3
						c3.2,2.7,6.3,5.5,9.4,8.3l-2.8,3c-3-2.8-6.1-5.6-9.2-8.2L-416.9,634.3z M-726.1,643.8l2.9,3c-3,2.8-5.9,5.7-8.7,8.7l-3-2.8
						C-732.1,649.7-729.2,646.7-726.1,643.8z M-398.6,651.4c2.9,3,5.7,6.2,8.4,9.3l-3.1,2.7c-2.6-3.1-5.4-6.1-8.3-9.1L-398.6,651.4z
						 M-743.4,662.1l3.2,2.7c-2.6,3.1-5.2,6.3-7.7,9.6l-3.3-2.5C-748.7,668.5-746,665.2-743.4,662.1z M-382.2,670.4
						c2.5,3.3,5,6.7,7.4,10.1l-3.4,2.4c-2.3-3.4-4.8-6.7-7.3-9.9L-382.2,670.4z M-758.5,682.1l3.4,2.3c-2.3,3.4-4.5,6.9-6.6,10.4
						l-3.6-2.1C-763.2,689.1-760.9,685.5-758.5,682.1z M-368,691.1c2.2,3.5,4.3,7.2,6.2,10.9l-3.6,2c-2-3.6-4-7.2-6.1-10.7
						L-368,691.1z M-771.5,703.6l3.7,1.9c-1.9,3.6-3.7,7.3-5.5,11l-3.8-1.7C-775.3,711-773.4,707.2-771.5,703.6z M-356.1,713.1
						c1.8,3.7,3.5,7.6,5,11.5l-3.8,1.6c-1.5-3.8-3.2-7.6-4.9-11.3L-356.1,713.1z M-782,726.4l3.9,1.5c-1.5,3.8-2.9,7.7-4.3,11.6
						l-3.9-1.3C-785,734.2-783.5,730.2-782,726.4z M-346.7,736.3c1.4,4,2.6,8,3.8,12l-4,1.1c-1.1-3.9-2.4-7.9-3.7-11.7L-346.7,736.3
						z M-790,750.2l4,1.1c-1.1,3.9-2.1,8-3,12l-4-0.9C-792.1,758.3-791.1,754.2-790,750.2z M-339.8,760.4c0.9,4.1,1.7,8.2,2.4,12.3
						l-4.1,0.7c-0.7-4-1.5-8.1-2.4-12.1L-339.8,760.4z M-795.3,774.7l4.1,0.7c-0.7,4.1-1.2,8.2-1.6,12.2l-4.1-0.4
						C-796.6,783-796,778.8-795.3,774.7z M-335.6,785.1c0.5,4.2,0.9,8.4,1.1,12.5l-4.1,0.3c-0.2-4-0.6-8.2-1.1-12.3L-335.6,785.1z
						 M-798,799.6l4.1,0.2c-0.2,4.1-0.3,8.2-0.3,12.3c0,1.3,0,2.6,0,3.9l-4.1,0.1c0-1.3,0-2.6,0-3.9
						C-798.4,807.9-798.2,803.7-798,799.6z M-334,810.2v2c0,3.5-0.1,7.1-0.2,10.6l-4.1-0.2c0.2-3.4,0.2-6.9,0.2-10.4v-1.9
						L-334,810.2z M-793.6,828.3c0.3,4.1,0.7,8.2,1.2,12.3l-4.1,0.5c-0.5-4.1-0.9-8.3-1.2-12.5L-793.6,828.3z M-339.3,834.8l4.1,0.4
						c-0.4,4.1-0.9,8.3-1.6,12.4l-4.1-0.6C-340.2,843-339.7,838.8-339.3,834.8z M-790.6,852.7c0.7,4,1.6,8.1,2.5,12.1l-4,1
						c-1-4.1-1.8-8.2-2.6-12.3L-790.6,852.7z M-343,859.1l4.1,0.9c-0.9,4.1-1.8,8.2-2.9,12.2l-4-1.1
						C-344.8,867.2-343.9,863.1-343,859.1z M-784.9,876.7c1.2,3.9,2.4,7.9,3.8,11.7l-3.9,1.4c-1.4-3.9-2.7-7.9-3.9-11.9
						L-784.9,876.7z M-349.4,882.9l3.9,1.3c-1.3,3.9-2.7,7.9-4.2,11.8l-3.9-1.5C-352,890.7-350.6,886.8-349.4,882.9z M-776.7,899.9
						c1.6,3.8,3.3,7.5,5,11.2l-3.7,1.8c-1.8-3.8-3.5-7.6-5.1-11.4L-776.7,899.9z M-358.3,905.9l3.8,1.7c-1.7,3.8-3.5,7.6-5.5,11.3
						l-3.7-1.9C-361.8,913.4-360,909.6-358.3,905.9z M-766,922c2,3.6,4.1,7.1,6.2,10.6l-3.5,2.2c-2.2-3.6-4.3-7.2-6.3-10.8L-766,922
						z M-369.6,927.8l3.6,2.1c-2.1,3.6-4.4,7.2-6.7,10.6l-3.4-2.3C-373.9,934.8-371.7,931.3-369.6,927.8z M-753,942.9
						c2.4,3.4,4.8,6.7,7.3,9.9l-3.3,2.6c-2.6-3.3-5.1-6.7-7.5-10.1L-753,942.9z M-383.3,948.3l3.3,2.5c-2.5,3.3-5.1,6.6-7.8,9.9
						l-3.2-2.7C-388.3,954.8-385.7,951.6-383.3,948.3z M-737.8,962.2c2.7,3.1,5.5,6.1,8.4,9l-3,2.9c-2.9-3-5.8-6.1-8.5-9.2
						L-737.8,962.2z M-399.1,967.2l3,2.8c-2.8,3-5.8,6.1-8.8,9l-2.9-3C-404.7,973.2-401.8,970.2-399.1,967.2z M-720.6,979.9
						c3,2.8,6.1,5.5,9.3,8.1l-2.6,3.2c-3.2-2.7-6.4-5.4-9.5-8.2L-720.6,979.9z M-416.8,984.4l2.7,3.1c-3.1,2.7-6.4,5.4-9.7,8
						l-2.5-3.3C-423,989.7-419.8,987-416.8,984.4z M-701.6,995.6c3.3,2.4,6.7,4.8,10.1,7.1l-2.3,3.5c-3.5-2.3-6.9-4.7-10.3-7.2
						L-701.6,995.6z M-436.2,999.5l2.4,3.4c-3.4,2.4-6.9,4.7-10.5,6.9l-2.2-3.5C-443,1004.1-439.6,1001.8-436.2,999.5z M-681,1009.1
						c3.5,2.1,7.2,4.1,10.8,5.9l-1.9,3.7c-3.7-1.9-7.4-3.9-11-6L-681,1009.1z M-457.1,1012.4l2,3.6c-3.7,2-7.4,3.9-11.1,5.7
						l-1.8-3.7C-464.4,1016.3-460.7,1014.4-457.1,1012.4z M-659.1,1020.4c3.7,1.7,7.6,3.3,11.4,4.7l-1.5,3.9
						c-3.9-1.5-7.8-3.1-11.6-4.8L-659.1,1020.4z M-479.3,1023l1.6,3.8c-3.8,1.6-7.8,3.1-11.7,4.5l-1.4-3.9
						C-487,1026-483.1,1024.6-479.3,1023z M-636.1,1029.2c3.9,1.2,7.9,2.4,11.8,3.5l-1.1,4c-4-1.1-8.1-2.2-12-3.5L-636.1,1029.2z
						 M-502.6,1031.1l1.2,4c-4,1.2-8.1,2.2-12.1,3.2l-0.9-4C-510.5,1033.3-506.5,1032.3-502.6,1031.1z M-612.3,1035.5
						c4,0.8,8.1,1.5,12.1,2.1l-0.6,4.1c-4.1-0.6-8.3-1.4-12.4-2.2L-612.3,1035.5z M-526.5,1036.7l0.7,4.1c-4.1,0.7-8.2,1.3-12.4,1.8
						l-0.5-4.1C-534.6,1038-530.5,1037.4-526.5,1036.7z M-587.9,1039.1c4.1,0.4,8.2,0.7,12.3,0.8l-0.2,4.1
						c-4.2-0.2-8.4-0.5-12.5-0.8L-587.9,1039.1z M-551,1039.6l0.3,4.1c-4.1,0.3-8.3,0.4-12.5,0.5v-4.1
						C-559.2,1040.1-555,1039.9-551,1039.6z"/>
				</g>
				<g>
					<g>
						<path class="st4" d="M-687.1,988.3c9.9,0,18,8.1,18,18s-8.1,18-18,18s-18-8.1-18-18S-697,988.3-687.1,988.3z M-687.1,1020.1
							c7.6,0,13.8-6.2,13.8-13.8s-6.2-13.8-13.8-13.8s-13.8,6.2-13.8,13.8C-701,1013.9-694.8,1020.1-687.1,1020.1z"/>
					</g>
					<g>
						<path class="st4" d="M-695.3,1006.3c0-4.5,3.6-8.1,8.1-8.1s8.1,3.6,8.1,8.1s-3.6,8.1-8.1,8.1
							C-691.6,1014.4-695.3,1010.8-695.3,1006.3z"/>
					</g>
				</g>
				<g>
					<path class="st4" d="M282.4,347.3h12.4v4.1h-12.4V347.3z M307.2,347.3h12.4v4.1h-12.4V347.3z M332.1,347.3h12.4v4.1h-12.4
						V347.3z M357,347.3h12.4v4.1H357V347.3z M381.9,347.3h12.4v4.1h-12.4V347.3z M406.7,347.3h12.4v4.1h-12.4V347.3z M431.6,347.3
						H444v4.1h-12.4V347.3z M456.5,347.3h13.1v3.4h-2.1v0.7h-11V347.3z M280.3,356.4h4.1v12.4h-4.1V356.4z M465.5,363.2h4.1v12.4
						h-4.1V363.2z M280.3,381.2h4.1v12.4h-4.1V381.2z M465.5,388.1h4.1v12.4h-4.1V388.1z M280.3,406.1h4.1v12.4h-4.1V406.1z
						 M465.5,412.9h4.1v12.4h-4.1V412.9z M280.3,431h4.1v12.4h-4.1V431z M465.5,437.8h4.1v12.4h-4.1V437.8z M280.3,455.8h4.1v12.5
						h-4.1V455.8z M465.5,462.7h4.1v12.4h-4.1V462.7z M280.3,480.7h4.1v12.4h-4.1V480.7z M465.5,487.5h4.1v12.4h-4.1V487.5z
						 M280.3,505.6h4.1V518h-4.1V505.6z M465.5,512.4h4.1v12.4h-4.1V512.4z M280.3,530.5h4.1v2h6.3v4.1h-10.4L280.3,530.5
						L280.3,530.5z M303.2,532.5h12.4v4.1h-12.4V532.5z M328,532.5h12.5v4.1h-12.4v-4.1H328z M352.9,532.5h12.4v4.1h-12.4V532.5z
						 M377.8,532.5h12.4v4.1h-12.4V532.5z M402.6,532.5H415v4.1h-12.4V532.5z M427.5,532.5h12.4v4.1h-12.4V532.5z M452.4,532.5h12.4
						v4.1h-12.4V532.5z"/>
				</g>
				<g>
					<polygon class="st4" points="382.2,976.6 391.5,976.6 391.5,985.9 400.4,985.9 400.4,976.6 409.7,976.6 409.7,967.8 
						400.4,967.8 400.4,958.4 391.5,958.4 391.5,967.8 382.2,967.8 					"/>
				</g>
				<g>
					<polygon class="st4" points="181,317.5 190.4,317.5 190.4,326.9 199.2,326.9 199.2,317.5 208.6,317.5 208.6,308.7 199.2,308.7 
						199.2,299.3 190.4,299.3 190.4,308.7 181,308.7 					"/>
				</g>
				<g>
					<g>
						<polygon class="st4" points="-64.7,1036.8 -60.5,1036.8 -60.5,1046 -51.3,1046 -51.3,1050.1 -64.7,1050.1 						"/>
					</g>
					<g>
						<polygon class="st4" points="-30,1036.8 -25.8,1036.8 -25.8,1050.1 -39.2,1050.1 -39.2,1046 -30,1046 						"/>
					</g>
					<g>
						<polygon class="st4" points="-64.7,1011.3 -51.3,1011.3 -51.3,1015.5 -60.5,1015.5 -60.5,1024.7 -64.7,1024.7 						"/>
					</g>
					<g>
						<polygon class="st4" points="-39.2,1011.3 -25.8,1011.3 -25.8,1024.7 -30,1024.7 -30,1015.5 -39.2,1015.5 						"/>
					</g>
				</g>
				<g>
					<g>
						<polygon class="st4" points="-724.9,394.9 -720.8,394.9 -720.8,404.1 -711.6,404.1 -711.6,408.3 -724.9,408.3 						"/>
					</g>
					<g>
						<polygon class="st4" points="-690.2,394.9 -686.1,394.9 -686.1,408.3 -699.4,408.3 -699.4,404.1 -690.2,404.1 						"/>
					</g>
					<g>
						<polygon class="st4" points="-724.9,369.5 -711.6,369.5 -711.6,373.6 -720.8,373.6 -720.8,382.8 -724.9,382.8 						"/>
					</g>
					<g>
						<polygon class="st4" points="-699.4,369.5 -686.1,369.5 -686.1,382.8 -690.2,382.8 -690.2,373.6 -699.4,373.6 						"/>
					</g>
				</g>
				<g>
					<g>
						<polygon class="st4" points="-548.2,407.8 -544,407.8 -544,417 -534.8,417 -534.8,421.2 -548.2,421.2 						"/>
					</g>
					<g>
						<polygon class="st4" points="-513.5,407.8 -509.4,407.8 -509.4,421.2 -522.7,421.2 -522.7,417 -513.5,417 						"/>
					</g>
					<g>
						<polygon class="st4" points="-548.2,382.4 -534.8,382.4 -534.8,386.5 -544,386.5 -544,395.7 -548.2,395.7 						"/>
					</g>
					<g>
						<polygon class="st4" points="-522.7,382.4 -509.4,382.4 -509.4,395.7 -513.5,395.7 -513.5,386.5 -522.7,386.5 						"/>
					</g>
				</g>
				<g>
					<g>
						<path class="st4" d="M467.6,400.9c9.9,0,18,8.1,18,18s-8.1,18-18,18s-18-8.1-18-18S457.7,400.9,467.6,400.9z M467.6,432.7
							c7.6,0,13.8-6.2,13.8-13.8c0-7.6-6.2-13.8-13.8-13.8c-7.6,0-13.8,6.2-13.8,13.8C453.8,426.5,460,432.7,467.6,432.7z"/>
					</g>
					<g>
						<path class="st4" d="M459.4,418.9c0-4.5,3.6-8.1,8.1-8.1s8.1,3.6,8.1,8.1s-3.6,8.1-8.1,8.1C463.1,427,459.4,423.4,459.4,418.9
							z"/>
					</g>
				</g>
			</g>
			<g class="st3">
				<g>
					<g>
						<polygon class="st4" points="1882.7,819.4 1882.7,826.5 1879.2,826.5 1879.2,822.9 1875.7,822.9 1875.7,819.4 						"/>
					</g>
					<g>
						<path class="st4" d="M1882.7,837.1v10.6h-3.5v-10.6H1882.7z M1882.7,858.4V869h-3.5v-10.6H1882.7z M1882.7,879.7v10.6h-3.5
							v-10.6H1882.7z M1882.7,901v10.6h-3.5V901H1882.7z M1882.7,922.3v10.6h-3.5v-10.6H1882.7z M1882.7,943.6v10.6h-3.5v-10.6
							H1882.7z M1882.7,964.9v10.6h-3.5v-10.6H1882.7z M1882.7,986.2v10.6h-3.5v-10.6H1882.7z M1882.7,1007.4v10.6h-3.5v-10.6
							H1882.7z M1882.7,1028.7v10.6h-3.5v-10.6H1882.7z M1882.7,1050v10.6h-3.5V1050H1882.7z M1882.7,1071.3v10.6h-3.5v-10.6H1882.7
							z M1882.7,1092.6v10.7h-3.5v-10.6L1882.7,1092.6L1882.7,1092.6z M1882.7,1113.9v10.6h-3.5v-10.6H1882.7z M1882.7,1135.2v10.6
							h-3.5v-10.6H1882.7z M1882.7,1156.5v10.6h-3.5v-10.6H1882.7z M1882.7,1177.8v10.6h-3.5v-10.6H1882.7z M1882.7,1199.1v10.6
							h-3.5v-10.6H1882.7z M1882.7,1220.4v10.6h-3.5v-10.6H1882.7z M1882.7,1241.6v10.6h-3.5v-10.6H1882.7z M1882.7,1262.9v10.6
							h-3.5v-10.6H1882.7z M1882.7,1284.2v10.6h-3.5v-10.6H1882.7z M1882.7,1305.5v10.6h-3.5v-10.6H1882.7z"/>
					</g>
					<g>
						<polygon class="st4" points="1882.7,1326.8 1882.7,1333.9 1875.7,1333.9 1875.7,1330.3 1879.2,1330.3 1879.2,1326.8 						"/>
					</g>
					<g>
						<path class="st4" d="M1865.3,1330.3v3.5h-10.4v-3.5H1865.3z M1844.5,1330.3v3.5h-10.4v-3.5H1844.5z M1823.7,1330.3v3.5h-10.4
							v-3.5H1823.7z M1802.8,1330.3v3.5h-10.4v-3.5H1802.8z M1782,1330.3v3.5h-10.4v-3.5H1782z M1761.2,1330.3v3.5h-10.4v-3.5
							H1761.2z M1740.4,1330.3v3.5H1730v-3.5H1740.4z M1719.6,1330.3v3.5h-10.4v-3.5H1719.6z M1698.8,1330.3v3.5h-10.4v-3.5H1698.8z
							 M1678,1330.3v3.5h-10.4v-3.5H1678z M1657.2,1330.3v3.5h-10.4v-3.5H1657.2z M1636.4,1330.3v3.5H1626v-3.5H1636.4z
							 M1615.6,1330.3v3.5h-10.4v-3.5H1615.6z M1594.8,1330.3v3.5h-10.4v-3.5H1594.8z M1573.9,1330.3v3.5h-10.4v-3.5H1573.9z
							 M1553.1,1330.3v3.5h-10.4v-3.5H1553.1z M1532.3,1330.3v3.5h-10.4v-3.5H1532.3z M1511.5,1330.3v3.5h-10.4v-3.5H1511.5z"/>
					</g>
					<g>
						<polygon class="st4" points="1490.7,1330.3 1490.7,1333.9 1483.6,1333.9 1483.6,1326.8 1487.2,1326.8 1487.2,1330.3 						"/>
					</g>
					<g>
						<path class="st4" d="M1487.2,837.1v10.6h-3.5v-10.6H1487.2z M1487.2,858.4V869h-3.5v-10.6H1487.2z M1487.2,879.7v10.6h-3.5
							v-10.6H1487.2z M1487.2,901v10.6h-3.5V901H1487.2z M1487.2,922.3v10.6h-3.5v-10.6H1487.2z M1487.2,943.6v10.6h-3.5v-10.6
							H1487.2z M1487.2,964.9v10.6h-3.5v-10.6H1487.2z M1487.2,986.2v10.6h-3.5v-10.6H1487.2z M1487.2,1007.4v10.6h-3.5v-10.6
							H1487.2z M1487.2,1028.7v10.6h-3.5v-10.6H1487.2z M1487.2,1050v10.6h-3.5V1050H1487.2z M1487.2,1071.3v10.6h-3.5v-10.6H1487.2
							z M1487.2,1092.6v10.7h-3.5v-10.6L1487.2,1092.6L1487.2,1092.6z M1487.2,1113.9v10.6h-3.5v-10.6H1487.2z M1487.2,1135.2v10.6
							h-3.5v-10.6H1487.2z M1487.2,1156.5v10.6h-3.5v-10.6H1487.2z M1487.2,1177.8v10.6h-3.5v-10.6H1487.2z M1487.2,1199.1v10.6
							h-3.5v-10.6H1487.2z M1487.2,1220.3v10.6h-3.5v-10.6H1487.2z M1487.2,1241.6v10.6h-3.5v-10.6H1487.2z M1487.2,1262.9v10.6
							h-3.5v-10.6H1487.2z M1487.2,1284.2v10.6h-3.5v-10.6H1487.2z M1487.2,1305.5v10.6h-3.5v-10.6H1487.2z"/>
					</g>
					<g>
						<polygon class="st4" points="1490.7,819.4 1490.7,822.9 1487.2,822.9 1487.2,826.5 1483.6,826.5 1483.6,819.4 						"/>
					</g>
					<g>
						<path class="st4" d="M1865.3,819.4v3.5h-10.4v-3.5H1865.3z M1844.5,819.4v3.5h-10.4v-3.5H1844.5z M1823.7,819.4v3.5h-10.4
							v-3.5H1823.7z M1802.8,819.4v3.5h-10.4v-3.5H1802.8z M1782,819.4v3.5h-10.4v-3.5H1782z M1761.2,819.4v3.5h-10.4v-3.5H1761.2z
							 M1740.4,819.4v3.5H1730v-3.5H1740.4z M1719.6,819.4v3.5h-10.4v-3.5H1719.6z M1698.8,819.4v3.5h-10.4v-3.5H1698.8z
							 M1678,819.4v3.5h-10.4v-3.5H1678z M1657.2,819.4v3.5h-10.4v-3.5H1657.2z M1636.4,819.4v3.5H1626v-3.5H1636.4z M1615.6,819.4
							v3.5h-10.4v-3.5H1615.6z M1594.8,819.4v3.5h-10.4v-3.5H1594.8z M1573.9,819.4v3.5h-10.4v-3.5H1573.9z M1553.1,819.4v3.5h-10.4
							v-3.5H1553.1z M1532.3,819.4v3.5h-10.4v-3.5H1532.3z M1511.5,819.4v3.5h-10.4v-3.5H1511.5z"/>
					</g>
				</g>
				<g>
					<g>
						<polygon class="st4" points="2037.4,569.4 2037.4,576.4 2033.9,576.4 2033.9,572.9 2030.4,572.9 2030.4,569.4 						"/>
					</g>
					<g>
						<path class="st4" d="M2037.4,587.1v10.6h-3.5v-10.6H2037.4z M2037.4,608.4V619h-3.5v-10.6H2037.4z M2037.4,629.7v10.6h-3.5
							v-10.6H2037.4z M2037.4,651v10.6h-3.5V651H2037.4z M2037.4,672.2v10.6h-3.5v-10.6H2037.4z M2037.4,693.5v10.6h-3.5v-10.6
							H2037.4z M2037.4,714.8v10.6h-3.5v-10.6H2037.4z M2037.4,736.1v10.6h-3.5v-10.6H2037.4z M2037.4,757.4V768h-3.5v-10.6H2037.4z
							 M2037.4,778.7v10.6h-3.5v-10.6H2037.4z M2037.4,800v10.6h-3.5V800H2037.4z M2037.4,821.3v10.6h-3.5v-10.6H2037.4z
							 M2037.4,842.6v10.6h-3.5v-10.6H2037.4z M2037.4,863.9v10.6h-3.5v-10.6H2037.4z M2037.4,885.2v10.6h-3.5v-10.6H2037.4z
							 M2037.4,906.4V917h-3.5v-10.6H2037.4z M2037.4,927.7v10.6h-3.5v-10.6H2037.4z M2037.4,949v10.6h-3.5V949H2037.4z
							 M2037.4,970.3v10.6h-3.5v-10.6H2037.4z M2037.4,991.6v10.7h-3.5v-10.6h3.5V991.6z M2037.4,1012.9v10.6h-3.5v-10.6H2037.4z
							 M2037.4,1034.2v10.6h-3.5v-10.6H2037.4z M2037.4,1055.5v10.6h-3.5v-10.6H2037.4z"/>
					</g>
					<g>
						<polygon class="st4" points="2037.4,1076.8 2037.4,1083.8 2030.4,1083.8 2030.4,1080.3 2033.9,1080.3 2033.9,1076.8 						"/>
					</g>
					<g>
						<path class="st4" d="M2019.7,1080.3v3.5H2009v-3.5H2019.7z M1998.4,1080.3v3.5h-10.7v-3.5H1998.4z M1977,1080.3v3.5h-10.7
							v-3.5H1977z M1955.7,1080.3v3.5H1945v-3.5H1955.7z M1934.3,1080.3v3.5h-10.7v-3.5H1934.3z M1913,1080.3v3.5h-10.7v-3.5H1913z
							 M1891.7,1080.3v3.5H1881v-3.5H1891.7z M1870.3,1080.3v3.5h-10.7v-3.5H1870.3z M1849,1080.3v3.5h-10.7v-3.5H1849z
							 M1827.6,1080.3v3.5h-10.7v-3.5H1827.6z M1806.3,1080.3v3.5h-10.7v-3.5H1806.3z M1784.9,1080.3v3.5h-10.7v-3.5H1784.9z
							 M1763.6,1080.3v3.5h-10.7v-3.5H1763.6z M1742.3,1080.3v3.5h-10.7v-3.5H1742.3z M1720.9,1080.3v3.5h-10.7v-3.5H1720.9z"/>
					</g>
					<g>
						<polygon class="st4" points="1699.6,1080.3 1699.6,1083.8 1692.5,1083.8 1692.5,1076.8 1696,1076.8 1696,1080.3 						"/>
					</g>
					<g>
						<path class="st4" d="M1696,587.1v10.6h-3.5v-10.6H1696z M1696,608.4V619h-3.5v-10.6H1696z M1696,629.7v10.6h-3.5v-10.6H1696z
							 M1696,651v10.6h-3.5V651H1696z M1696,672.2v10.6h-3.5v-10.6H1696z M1696,693.5v10.6h-3.5v-10.6H1696z M1696,714.8v10.6h-3.5
							v-10.6H1696z M1696,736.1v10.6h-3.5v-10.6H1696z M1696,757.4V768h-3.5v-10.6H1696z M1696,778.7v10.6h-3.5v-10.6H1696z
							 M1696,800v10.6h-3.5V800H1696z M1696,821.3v10.6h-3.5v-10.6H1696z M1696,842.6v10.6h-3.5v-10.6H1696z M1696,863.9v10.6h-3.5
							v-10.6H1696z M1696,885.2v10.6h-3.5v-10.6H1696z M1696,906.4V917h-3.5v-10.6H1696z M1696,927.7v10.6h-3.5v-10.6H1696z
							 M1696,949v10.6h-3.5V949H1696z M1696,970.3v10.6h-3.5v-10.6H1696z M1696,991.6v10.7h-3.5v-10.6h3.5V991.6z M1696,1012.9v10.6
							h-3.5v-10.6H1696z M1696,1034.2v10.6h-3.5v-10.6H1696z M1696,1055.5v10.6h-3.5v-10.6H1696z"/>
					</g>
					<g>
						<polygon class="st4" points="1699.6,569.4 1699.6,572.9 1696,572.9 1696,576.4 1692.5,576.4 1692.5,569.4 						"/>
					</g>
					<g>
						<path class="st4" d="M2019.7,569.4v3.5H2009v-3.5H2019.7z M1998.4,569.4v3.5h-10.7v-3.5H1998.4z M1977,569.4v3.5h-10.7v-3.5
							H1977z M1955.7,569.4v3.5H1945v-3.5H1955.7z M1934.3,569.4v3.5h-10.7v-3.5H1934.3z M1913,569.4v3.5h-10.7v-3.5H1913z
							 M1891.7,569.4v3.5H1881v-3.5H1891.7z M1870.3,569.4v3.5h-10.7v-3.5H1870.3z M1849,569.4v3.5h-10.7v-3.5H1849z M1827.6,569.4
							v3.5h-10.7v-3.5H1827.6z M1806.3,569.4v3.5h-10.7v-3.5H1806.3z M1784.9,569.4v3.5h-10.7v-3.5H1784.9z M1763.6,569.4v3.5h-10.7
							v-3.5H1763.6z M1742.3,569.4v3.5h-10.7v-3.5H1742.3z M1720.9,569.4v3.5h-10.7v-3.5H1720.9z"/>
					</g>
				</g>
				<g>
					<path class="st4" d="M1794.1,556.1h-3.5c0-3.5-0.1-7-0.3-10.5l3.5-0.2C1794,549,1794.1,552.6,1794.1,556.1z M1793.9,566.8
						c-0.2,3.6-0.4,7.2-0.8,10.7l-3.5-0.4c0.4-3.4,0.6-7,0.8-10.5L1793.9,566.8z M1792.9,534.8l-3.5,0.4c-0.4-3.5-0.9-7-1.4-10.4
						l3.5-0.6C1792,527.7,1792.5,531.3,1792.9,534.8z M1791.7,588.1c-0.6,3.5-1.2,7-2,10.5l-3.5-0.7c0.7-3.4,1.4-6.9,1.9-10.3
						L1791.7,588.1z M1789.4,513.8l-3.4,0.8c-0.8-3.4-1.6-6.8-2.6-10.2l3.4-1C1787.7,506.8,1788.6,510.3,1789.4,513.8z M1787.2,609
						c-0.9,3.4-2,6.8-3.1,10.2l-3.4-1.1c1.1-3.3,2.1-6.7,3-10L1787.2,609z M1783.6,493.2l-3.3,1.1c-1.1-3.3-2.4-6.6-3.7-9.8l3.3-1.3
						C1781.2,486.5,1782.4,489.8,1783.6,493.2z M1780.5,629.3c-1.3,3.3-2.7,6.6-4.2,9.9l-3.2-1.5c1.5-3.2,2.8-6.4,4.1-9.7
						L1780.5,629.3z M1775.6,473.4l-3.2,1.5c-1.5-3.2-3.1-6.3-4.7-9.4l3.1-1.7C1772.5,467,1774.1,470.2,1775.6,473.4z M1771.6,648.7
						c-1.7,3.2-3.4,6.3-5.2,9.3l-3-1.8c1.8-3,3.5-6.1,5.1-9.2L1771.6,648.7z M1765.5,454.6l-3,1.8c-1.8-3-3.7-5.9-5.7-8.8l2.9-2
						C1761.8,448.5,1763.7,451.5,1765.5,454.6z M1760.6,667.1c-2,2.9-4.1,5.9-6.2,8.7l-2.8-2.1c2.1-2.8,4.1-5.7,6.1-8.6
						L1760.6,667.1z M1753.5,436.9l-2.8,2.1c-2.1-2.8-4.3-5.5-6.6-8.2l2.7-2.3C1749.1,431.3,1751.4,434.1,1753.5,436.9z
						 M1747.8,684.2c-2.3,2.7-4.7,5.4-7.1,8l-2.6-2.4c2.4-2.6,4.7-5.2,7-7.9L1747.8,684.2z M1739.6,420.7l-2.6,2.4
						c-2.4-2.5-4.9-5-7.4-7.4l2.4-2.6C1734.7,415.6,1737.2,418.1,1739.6,420.7z M1733.2,699.8c-2.6,2.5-5.2,4.9-7.9,7.2l-2.3-2.7
						c2.6-2.3,5.2-4.6,7.8-7.1L1733.2,699.8z M1724.1,406l-2.3,2.7c-2.6-2.2-5.4-4.4-8.2-6.6l2.1-2.8
						C1718.6,401.5,1721.4,403.7,1724.1,406z M1717,713.7c-2.8,2.2-5.7,4.3-8.6,6.3l-2-2.9c2.9-2,5.7-4.1,8.5-6.2L1717,713.7z
						 M1707.1,393.1l-2,2.9c-2.9-2-5.9-3.9-8.9-5.7l1.8-3C1701.1,389.1,1704.1,391.1,1707.1,393.1z M1699.4,725.8
						c-3,1.8-6.1,3.6-9.2,5.3l-1.7-3.1c3.1-1.7,6.1-3.4,9.1-5.2L1699.4,725.8z M1688.8,382.1l-1.7,3.1c-3.1-1.6-6.2-3.2-9.4-4.7
						l1.5-3.2C1682.4,378.8,1685.6,380.4,1688.8,382.1z M1680.6,736c-3.2,1.5-6.5,2.9-9.8,4.3l-1.3-3.3c3.2-1.3,6.5-2.7,9.6-4.2
						L1680.6,736z M1669.3,373.1l-1.3,3.3c-3.2-1.3-6.6-2.5-9.9-3.6l1.1-3.3C1662.6,370.5,1666,371.8,1669.3,373.1z M1660.9,744
						c-3.4,1.2-6.8,2.2-10.2,3.2l-1-3.4c3.3-0.9,6.7-2,10-3.2L1660.9,744z M1649.1,366.3l-0.9,3.4c-3.4-0.9-6.8-1.8-10.2-2.5
						l0.8-3.4C1642.1,364.5,1645.6,365.3,1649.1,366.3z M1640.3,749.9c-3.5,0.8-7,1.5-10.5,2.1l-0.6-3.5c3.4-0.6,6.9-1.3,10.3-2
						L1640.3,749.9z M1628.2,361.7l-0.6,3.5c-3.5-0.6-7-1-10.4-1.4l0.4-3.5C1621.1,360.7,1624.7,361.1,1628.2,361.7z M1619.3,753.5
						c-3.6,0.4-7.2,0.7-10.6,0.9l-0.2-3.5c3.4-0.2,7-0.5,10.5-0.9L1619.3,753.5z M1606.9,359.4l-0.2,3.5c-3.5-0.2-7-0.3-10.5-0.3
						c-1.1,0-2.2,0-3.3,0l-0.1-3.5c1.1,0,2.2,0,3.4,0C1599.8,359.2,1603.4,359.3,1606.9,359.4z M1597.9,754.8h-1.7c-3,0-6-0.1-9-0.2
						l0.2-3.5c2.9,0.1,5.9,0.2,8.9,0.2h1.6V754.8z M1582.5,363.2c-3.5,0.2-7,0.6-10.4,1l-0.4-3.5c3.5-0.4,7.1-0.8,10.6-1
						L1582.5,363.2z M1576.9,750.3l-0.3,3.5c-3.5-0.3-7.1-0.8-10.6-1.3l0.5-3.5C1570,749.6,1573.5,750,1576.9,750.3z M1561.7,365.8
						c-3.4,0.6-6.9,1.3-10.3,2.1l-0.8-3.4c3.5-0.8,7-1.6,10.5-2.2L1561.7,365.8z M1556.2,747.2l-0.7,3.5c-3.5-0.7-7-1.6-10.4-2.5
						l0.9-3.4C1549.3,745.6,1552.8,746.4,1556.2,747.2z M1541.2,370.6c-3.4,1-6.7,2.1-10,3.2l-1.2-3.3c3.3-1.2,6.7-2.3,10.2-3.3
						L1541.2,370.6z M1535.9,741.7l-1.1,3.4c-3.4-1.1-6.8-2.3-10.1-3.6l1.3-3.3C1529.3,739.5,1532.6,740.7,1535.9,741.7z
						 M1521.5,377.6c-3.2,1.3-6.4,2.8-9.6,4.3l-1.5-3.2c3.2-1.5,6.5-3,9.7-4.4L1521.5,377.6z M1516.3,734.1l-1.5,3.2
						c-3.2-1.4-6.5-3-9.6-4.7l1.6-3.1C1510,731.2,1513.2,732.7,1516.3,734.1z M1502.6,386.7c-3,1.7-6.1,3.5-9,5.3l-1.9-3
						c3-1.9,6.1-3.7,9.2-5.4L1502.6,386.7z M1497.7,724.5l-1.8,3c-3-1.8-6.1-3.7-9.1-5.7l2-2.9
						C1491.7,720.8,1494.7,722.7,1497.7,724.5z M1484.8,397.8c-2.9,2-5.7,4.1-8.4,6.3l-2.2-2.8c2.8-2.2,5.7-4.3,8.6-6.4
						L1484.8,397.8z M1480.2,712.8l-2.1,2.8c-2.8-2.1-5.6-4.3-8.4-6.6l2.3-2.7C1474.6,708.6,1477.4,710.8,1480.2,712.8z
						 M1468.3,410.7c-2.6,2.3-5.2,4.7-7.7,7.1l-2.5-2.5c2.5-2.5,5.2-4.9,7.8-7.3L1468.3,410.7z M1464.1,699.4l-2.4,2.6
						c-2.6-2.4-5.2-4.9-7.6-7.5l2.5-2.5C1459,694.5,1461.5,697,1464.1,699.4z M1453.3,425.4c-2.4,2.6-4.7,5.2-6.9,7.9l-2.7-2.2
						c2.3-2.7,4.6-5.5,7-8.1L1453.3,425.4z M1449.5,684.3l-2.7,2.3c-2.3-2.7-4.6-5.4-6.8-8.3l2.8-2.2
						C1445,679,1447.2,681.7,1449.5,684.3z M1439.9,441.6c-2.1,2.8-4.1,5.7-6,8.6l-2.9-1.9c1.9-3,4-5.9,6.1-8.8L1439.9,441.6z
						 M1436.6,667.8l-2.9,2c-2-2.9-4-5.9-5.9-8.9l3-1.9C1432.7,661.9,1434.6,664.9,1436.6,667.8z M1428.4,459.1
						c-1.8,3-3.5,6.1-5.1,9.2l-3.1-1.6c1.6-3.2,3.4-6.3,5.1-9.4L1428.4,459.1z M1425.6,649.9l-3.1,1.7c-1.7-3.1-3.3-6.3-4.9-9.5
						l3.2-1.5C1422.3,643.7,1423.9,646.9,1425.6,649.9z M1418.8,477.8c-1.4,3.2-2.8,6.4-4,9.7l-3.3-1.3c1.3-3.3,2.7-6.7,4.1-9.9
						L1418.8,477.8z M1416.6,631l-3.3,1.3c-1.3-3.3-2.6-6.6-3.8-10l3.3-1.2C1414,624.5,1415.2,627.8,1416.6,631z M1411.3,497.4
						c-1.1,3.3-2.1,6.7-2.9,10.1l-3.4-0.9c0.9-3.4,1.9-6.9,3-10.3L1411.3,497.4z M1409.6,611.2l-3.4,1c-1-3.4-1.9-6.9-2.7-10.3
						l3.4-0.8C1407.8,604.4,1408.7,607.9,1409.6,611.2z M1405.9,517.7c-0.7,3.4-1.3,6.9-1.8,10.3l-3.5-0.5c0.5-3.5,1.2-7.1,1.9-10.5
						L1405.9,517.7z M1404.9,590.8l-3.5,0.6c-0.6-3.5-1.1-7-1.6-10.6l3.5-0.4C1403.8,583.9,1404.3,587.4,1404.9,590.8z
						 M1402.8,538.5c-0.3,3.5-0.6,7-0.7,10.5l-3.5-0.1c0.1-3.6,0.4-7.1,0.7-10.7L1402.8,538.5z M1402.4,569.9l-3.5,0.2
						c-0.2-3.5-0.4-7.1-0.4-10.7h3.5C1402,563,1402.2,566.5,1402.4,569.9z"/>
				</g>
				<g>
					<g>
						<path class="st4" d="M1446.1,453.9c0,8.4-6.9,15.3-15.3,15.3s-15.3-6.9-15.3-15.3s6.9-15.3,15.3-15.3
							S1446.1,445.5,1446.1,453.9z M1419,453.9c0,6.5,5.3,11.8,11.8,11.8s11.8-5.3,11.8-11.8s-5.3-11.8-11.8-11.8
							C1424.3,442.2,1419,447.4,1419,453.9z"/>
					</g>
					<g>
						<path class="st4" d="M1430.8,447c3.8,0,6.9,3.1,6.9,6.9s-3.1,6.9-6.9,6.9s-6.9-3.1-6.9-6.9C1423.9,450.1,1427,447,1430.8,447z
							"/>
					</g>
				</g>
				<g>
					<path class="st4" d="M1992.3,1280v10.6h-3.5V1280H1992.3z M1992.3,1301.2v10.6h-3.5v-10.6H1992.3z M1992.3,1322.4v10.6h-3.5
						v-10.6H1992.3z M1992.3,1343.6v10.6h-3.5v-10.6H1992.3z M1992.3,1364.8v10.6h-3.5v-10.6H1992.3z M1992.3,1386v10.6h-3.5V1386
						H1992.3z M1992.3,1407.2v10.6h-3.5v-10.6H1992.3z M1992.3,1428.4v11.2h-2.9v-1.8h-0.6v-9.4L1992.3,1428.4L1992.3,1428.4z
						 M1984.6,1278.3v3.5H1974v-3.5H1984.6z M1978.8,1436v3.5h-10.6v-3.5H1978.8z M1963.4,1278.3v3.5h-10.6v-3.5H1963.4z
						 M1957.6,1436v3.5H1947v-3.5H1957.6z M1942.2,1278.3v3.5h-10.6v-3.5H1942.2z M1936.4,1436v3.5h-10.6v-3.5H1936.4z M1921,1278.3
						v3.5h-10.6v-3.5H1921z M1915.2,1436v3.5h-10.6v-3.5H1915.2z M1899.8,1278.3v3.5h-10.6v-3.5H1899.8z M1894,1436v3.5h-10.6v-3.5
						H1894z M1878.6,1278.3v3.5H1868v-3.5H1878.6z M1872.8,1436v3.5h-10.6v-3.5H1872.8z M1857.4,1278.3v3.5h-10.6v-3.5H1857.4z
						 M1851.6,1436v3.5H1841v-3.5H1851.6z M1836.3,1278.3v3.5h-1.7v5.3h-3.5v-8.9L1836.3,1278.3L1836.3,1278.3z M1834.5,1297.7v10.6
						h-3.5v-10.6H1834.5z M1834.5,1318.9v10.6h-3.5v-10.6H1834.5z M1834.5,1340.1v10.6h-3.5v-10.6H1834.5z M1834.5,1361.3v10.6h-3.5
						v-10.6H1834.5z M1834.5,1382.5v10.6h-3.5v-10.6H1834.5z M1834.5,1403.7v10.6h-3.5v-10.6H1834.5z M1834.5,1424.9v10.6h-3.5
						v-10.6H1834.5z"/>
				</g>
				<g>
					<polygon class="st4" points="1456.1,1365.1 1456.1,1373 1448.1,1373 1448.1,1380.6 1456.1,1380.6 1456.1,1388.5 1463.6,1388.5 
						1463.6,1380.6 1471.6,1380.6 1471.6,1373 1463.6,1373 1463.6,1365.1 					"/>
				</g>
				<g>
					<polygon class="st4" points="2017.7,1193.7 2017.7,1201.7 2009.7,1201.7 2009.7,1209.2 2017.7,1209.2 2017.7,1217.2 
						2025.2,1217.2 2025.2,1209.2 2033.2,1209.2 2033.2,1201.7 2025.2,1201.7 2025.2,1193.7 					"/>
				</g>
				<g>
					<g>
						<polygon class="st4" points="1404.8,984.3 1404.8,987.8 1397,987.8 1397,995.7 1393.4,995.7 1393.4,984.3 						"/>
					</g>
					<g>
						<polygon class="st4" points="1404.8,1013.9 1404.8,1017.4 1393.4,1017.4 1393.4,1006 1397,1006 1397,1013.9 						"/>
					</g>
					<g>
						<polygon class="st4" points="1426.5,984.3 1426.5,995.7 1423,995.7 1423,987.8 1415.1,987.8 1415.1,984.3 						"/>
					</g>
					<g>
						<polygon class="st4" points="1426.5,1006 1426.5,1017.4 1415.1,1017.4 1415.1,1013.9 1423,1013.9 1423,1006 						"/>
					</g>
				</g>
				<g>
					<g>
						<polygon class="st4" points="1951.7,421.7 1951.7,425.3 1943.9,425.3 1943.9,433.1 1940.4,433.1 1940.4,421.7 						"/>
					</g>
					<g>
						<polygon class="st4" points="1951.7,451.3 1951.7,454.8 1940.4,454.8 1940.4,443.5 1943.9,443.5 1943.9,451.3 						"/>
					</g>
					<g>
						<polygon class="st4" points="1973.4,421.7 1973.4,433.1 1969.9,433.1 1969.9,425.3 1962.1,425.3 1962.1,421.7 						"/>
					</g>
					<g>
						<polygon class="st4" points="1973.4,443.5 1973.4,454.8 1962.1,454.8 1962.1,451.3 1969.9,451.3 1969.9,443.5 						"/>
					</g>
				</g>
				<g>
					<g>
						<polygon class="st4" points="1940.7,572.3 1940.7,575.9 1932.9,575.9 1932.9,583.7 1929.4,583.7 1929.4,572.3 						"/>
					</g>
					<g>
						<polygon class="st4" points="1940.7,601.9 1940.7,605.4 1929.4,605.4 1929.4,594 1932.9,594 1932.9,601.9 						"/>
					</g>
					<g>
						<polygon class="st4" points="1962.4,572.3 1962.4,583.7 1958.9,583.7 1958.9,575.9 1951.1,575.9 1951.1,572.3 						"/>
					</g>
					<g>
						<polygon class="st4" points="1962.4,594 1962.4,605.4 1951.1,605.4 1951.1,601.9 1958.9,601.9 1958.9,594 						"/>
					</g>
				</g>
				<g>
					<g>
						<path class="st4" d="M1946.6,1437.8c0,8.4-6.9,15.3-15.3,15.3s-15.3-6.9-15.3-15.3s6.9-15.3,15.3-15.3
							S1946.6,1429.4,1946.6,1437.8z M1919.5,1437.8c0,6.5,5.3,11.8,11.8,11.8s11.8-5.3,11.8-11.8s-5.3-11.8-11.8-11.8
							C1924.8,1426.1,1919.5,1431.3,1919.5,1437.8z"/>
					</g>
					<g>
						<path class="st4" d="M1931.3,1430.9c3.8,0,6.9,3.1,6.9,6.9s-3.1,6.9-6.9,6.9s-6.9-3.1-6.9-6.9S1927.5,1430.9,1931.3,1430.9z"
							/>
					</g>
				</g>
			</g>
		</g>
	</g>
	<g id="Layer_2_1_">
		<g class="st5">
			<g>
				<g>
					<polygon class="st4" points="1173.1,857.3 1167.7,857.3 1167.7,854.6 1170.4,854.6 1170.4,851.9 1173.1,851.9 					"/>
				</g>
				<g>
					<path class="st4" d="M1159.6,857.3h-8.1v-2.7h8.1V857.3z M1143.3,857.3h-8.1v-2.7h8.1V857.3z M1127.1,857.3h-8.1v-2.7h8.1
						V857.3z M1110.8,857.3h-8.1v-2.7h8.1V857.3z M1094.5,857.3h-8.1v-2.7h8.1V857.3z M1078.2,857.3h-8.1v-2.7h8.1V857.3z
						 M1062,857.3h-8.1v-2.7h8.1V857.3z M1045.7,857.3h-8.1v-2.7h8.1V857.3z M1029.4,857.3h-8.1v-2.7h8.1V857.3z M1013.2,857.3h-8.1
						v-2.7h8.1V857.3z M996.9,857.3h-8.1v-2.7h8.1V857.3z M980.6,857.3h-8.1v-2.7h8.1V857.3z M964.3,857.3h-8.1v-2.7h8.1V857.3z
						 M948.1,857.3H940v-2.7h8.1V857.3z M931.8,857.3h-8.1v-2.7h8.1V857.3z M915.5,857.3h-8.1v-2.7h8.1V857.3z M899.3,857.3h-8.1
						v-2.7h8.1V857.3z M883,857.3h-8.1v-2.7h8.1V857.3z M866.7,857.3h-8.1v-2.7h8.1V857.3z M850.4,857.3h-8.1v-2.7h8.1V857.3z
						 M834.2,857.3h-8.1v-2.7h8.1V857.3z M817.9,857.3h-8.1v-2.7h8.1V857.3z M801.6,857.3h-8.1v-2.7h8.1V857.3z"/>
				</g>
				<g>
					<polygon class="st4" points="785.4,857.3 780,857.3 780,851.9 782.7,851.9 782.7,854.6 785.4,854.6 					"/>
				</g>
				<g>
					<path class="st4" d="M782.7,844H780v-8h2.7V844z M782.7,828.1H780v-8h2.7V828.1z M782.7,812.2H780v-8h2.7V812.2z M782.7,796.3
						H780v-8h2.7V796.3z M782.7,780.4H780v-8h2.7V780.4z M782.7,764.5H780v-8h2.7V764.5z M782.7,748.6H780v-7.9h2.7V748.6z
						 M782.7,732.7H780v-8h2.7V732.7z M782.7,716.8H780v-7.9h2.7V716.8z M782.7,700.8H780v-8h2.7V700.8z M782.7,684.9H780v-8h2.7
						V684.9z M782.7,669H780v-7.9h2.7V669z M782.7,653.1H780v-8h2.7V653.1z M782.7,637.2H780v-8h2.7V637.2z M782.7,621.3H780v-8h2.7
						V621.3z M782.7,605.4H780v-8h2.7V605.4z M782.7,589.5H780v-8h2.7V589.5z M782.7,573.6H780v-8h2.7V573.6z"/>
				</g>
				<g>
					<polygon class="st4" points="782.7,557.7 780,557.7 780,552.3 785.4,552.3 785.4,555 782.7,555 					"/>
				</g>
				<g>
					<path class="st4" d="M1159.6,555h-8.1v-2.7h8.1V555z M1143.3,555h-8.1v-2.7h8.1V555z M1127.1,555h-8.1v-2.7h8.1V555z
						 M1110.8,555h-8.1v-2.7h8.1V555z M1094.5,555h-8.1v-2.7h8.1V555z M1078.2,555h-8.1v-2.7h8.1V555z M1062,555h-8.1v-2.7h8.1V555z
						 M1045.7,555h-8.1v-2.7h8.1V555z M1029.4,555h-8.1v-2.7h8.1V555z M1013.2,555h-8.1v-2.7h8.1V555z M996.9,555h-8.1v-2.7h8.1V555
						z M980.6,555h-8.1v-2.7h8.1V555z M964.3,555h-8.1v-2.7h8.1V555z M948.1,555H940v-2.7h8.1V555z M931.8,555h-8.1v-2.7h8.1V555z
						 M915.5,555h-8.1v-2.7h8.1V555z M899.3,555h-8.1v-2.7h8.1V555z M883,555h-8.1v-2.7h8.1V555z M866.7,555h-8.1v-2.7h8.1V555z
						 M850.4,555h-8.1v-2.7h8.1V555z M834.2,555h-8.1v-2.7h8.1V555z M817.9,555h-8.1v-2.7h8.1V555z M801.6,555h-8.1v-2.7h8.1V555z"
						/>
				</g>
				<g>
					<polygon class="st4" points="1173.1,557.7 1170.4,557.7 1170.4,555 1167.7,555 1167.7,552.3 1173.1,552.3 					"/>
				</g>
				<g>
					<path class="st4" d="M1173.1,844h-2.7v-8h2.7V844z M1173.1,828.1h-2.7v-8h2.7V828.1z M1173.1,812.2h-2.7v-8h2.7V812.2z
						 M1173.1,796.3h-2.7v-8h2.7V796.3z M1173.1,780.4h-2.7v-8h2.7V780.4z M1173.1,764.5h-2.7v-8h2.7V764.5z M1173.1,748.6h-2.7
						v-7.9h2.7V748.6z M1173.1,732.7h-2.7v-8h2.7V732.7z M1173.1,716.8h-2.7v-8h2.7V716.8z M1173.1,700.8h-2.7v-8h2.7V700.8z
						 M1173.1,684.9h-2.7v-8h2.7V684.9z M1173.1,669h-2.7v-7.9h2.7V669z M1173.1,653.1h-2.7v-8h2.7V653.1z M1173.1,637.2h-2.7v-8
						h2.7V637.2z M1173.1,621.3h-2.7v-7.9h2.7V621.3z M1173.1,605.4h-2.7v-8h2.7V605.4z M1173.1,589.5h-2.7v-8h2.7V589.5z
						 M1173.1,573.6h-2.7v-8h2.7V573.6z"/>
				</g>
			</g>
			<g>
				<g>
					<polygon class="st4" points="1364.2,975.5 1358.8,975.5 1358.8,972.9 1361.5,972.9 1361.5,970.2 1364.2,970.2 					"/>
				</g>
				<g>
					<path class="st4" d="M1350.7,975.5h-8.1v-2.7h8.1V975.5z M1334.4,975.5h-8.1v-2.7h8.1V975.5z M1318.1,975.5h-8.1v-2.7h8.1
						V975.5z M1301.9,975.5h-8.1v-2.7h8.1V975.5z M1285.6,975.5h-8.1v-2.7h8.1V975.5z M1269.3,975.5h-8.1v-2.7h8.1V975.5z
						 M1253.1,975.5h-8.1v-2.7h8.1V975.5z M1236.8,975.5h-8.1v-2.7h8.1V975.5z M1220.5,975.5h-8.1v-2.7h8.1V975.5z M1204.2,975.5
						h-8.1v-2.7h8.1V975.5z M1188,975.5h-8.1v-2.7h8.1V975.5z M1171.7,975.5h-8.1v-2.7h8.1V975.5z M1155.4,975.5h-8.1v-2.7h8.1
						V975.5z M1139.2,975.5h-8.1v-2.7h8.1V975.5z M1122.9,975.5h-8.1v-2.7h8.1V975.5z M1106.6,975.5h-8.1v-2.7h8.1V975.5z
						 M1090.3,975.5h-8.1v-2.7h8.1V975.5z M1074.1,975.5h-8.1v-2.7h8.1V975.5z M1057.8,975.5h-8.1v-2.7h8.1V975.5z M1041.5,975.5
						h-8.1v-2.7h8.1V975.5z M1025.3,975.5h-8.1v-2.7h8.1V975.5z M1009,975.5h-8.1v-2.7h8.1V975.5z M992.7,975.5h-8.1v-2.7h8.1V975.5
						z"/>
				</g>
				<g>
					<polygon class="st4" points="976.4,975.5 971.1,975.5 971.1,970.2 973.7,970.2 973.7,972.9 976.4,972.9 					"/>
				</g>
				<g>
					<path class="st4" d="M973.7,962H971v-8.2h2.7V962z M973.7,945.7H971v-8.2h2.7V945.7z M973.7,929.4H971v-8.2h2.7V929.4z
						 M973.7,913.1H971v-8.2h2.7V913.1z M973.7,896.8H971v-8.2h2.7V896.8z M973.7,880.4H971v-8.1h2.7V880.4z M973.7,864.1H971v-8.2
						h2.7V864.1z M973.7,847.8H971v-8.2h2.7V847.8z M973.7,831.5H971v-8.2h2.7V831.5z M973.7,815.2H971V807h2.7V815.2z M973.7,798.9
						H971v-8.2h2.7V798.9z M973.7,782.6H971v-8.2h2.7V782.6z M973.7,766.3H971v-8.2h2.7V766.3z M973.7,750H971v-8.2h2.7V750z
						 M973.7,733.6H971v-8.2h2.7V733.6z"/>
				</g>
				<g>
					<polygon class="st4" points="973.7,717.3 971.1,717.3 971.1,711.9 976.4,711.9 976.4,714.6 973.7,714.6 					"/>
				</g>
				<g>
					<path class="st4" d="M1350.7,714.6h-8.1v-2.7h8.1V714.6z M1334.4,714.6h-8.1v-2.7h8.1V714.6z M1318.1,714.6h-8.1v-2.7h8.1
						V714.6z M1301.9,714.6h-8.1v-2.7h8.1V714.6z M1285.6,714.6h-8.1v-2.7h8.1V714.6z M1269.3,714.6h-8.1v-2.7h8.1V714.6z
						 M1253.1,714.6h-8.1v-2.7h8.1V714.6z M1236.8,714.6h-8.1v-2.7h8.1V714.6z M1220.5,714.6h-8.1v-2.7h8.1V714.6z M1204.2,714.6
						h-8.1v-2.7h8.1V714.6z M1188,714.6h-8.1v-2.7h8.1V714.6z M1171.7,714.6h-8.1v-2.7h8.1V714.6z M1155.4,714.6h-8.1v-2.7h8.1
						V714.6z M1139.2,714.6h-8.1v-2.7h8.1V714.6z M1122.9,714.6h-8.1v-2.7h8.1V714.6z M1106.6,714.6h-8.1v-2.7h8.1V714.6z
						 M1090.3,714.6h-8.1v-2.7h8.1V714.6z M1074.1,714.6h-8.1v-2.7h8.1V714.6z M1057.8,714.6h-8.1v-2.7h8.1V714.6z M1041.5,714.6
						h-8.1v-2.7h8.1V714.6z M1025.3,714.6h-8.1v-2.7h8.1V714.6z M1009,714.6h-8.1v-2.7h8.1V714.6z M992.7,714.6h-8.1v-2.7h8.1V714.6
						z"/>
				</g>
				<g>
					<polygon class="st4" points="1364.2,717.3 1361.5,717.3 1361.5,714.6 1358.8,714.6 1358.8,711.9 1364.2,711.9 					"/>
				</g>
				<g>
					<path class="st4" d="M1364.2,962h-2.7v-8.2h2.7V962z M1364.2,945.7h-2.7v-8.2h2.7V945.7z M1364.2,929.4h-2.7v-8.2h2.7V929.4z
						 M1364.2,913.1h-2.7v-8.2h2.7V913.1z M1364.2,896.8h-2.7v-8.2h2.7V896.8z M1364.2,880.4h-2.7v-8.1h2.7V880.4z M1364.2,864.1
						h-2.7v-8.2h2.7V864.1z M1364.2,847.8h-2.7v-8.2h2.7V847.8z M1364.2,831.5h-2.7v-8.2h2.7V831.5z M1364.2,815.2h-2.7V807h2.7
						V815.2z M1364.2,798.9h-2.7v-8.2h2.7V798.9z M1364.2,782.6h-2.7v-8.2h2.7V782.6z M1364.2,766.3h-2.7v-8.2h2.7V766.3z
						 M1364.2,750h-2.7v-8.2h2.7V750z M1364.2,733.6h-2.7v-8.2h2.7V733.6z"/>
				</g>
			</g>
			<g>
				<path class="st4" d="M1374.3,789.6v-2.7c2.7,0,5.4-0.1,8-0.2l0.2,2.7C1379.8,789.5,1377,789.6,1374.3,789.6z M1366.2,789.4
					c-2.7-0.1-5.5-0.3-8.1-0.6l0.3-2.7c2.6,0.3,5.3,0.5,8,0.6L1366.2,789.4z M1390.6,788.6l-0.3-2.7c2.7-0.3,5.3-0.7,7.9-1.1
					l0.4,2.7C1396,788,1393.3,788.3,1390.6,788.6z M1349.9,787.7c-2.7-0.4-5.4-0.9-8-1.5l0.6-2.6c2.6,0.6,5.2,1,7.9,1.5
					L1349.9,787.7z M1406.7,786l-0.6-2.6c2.6-0.6,5.2-1.2,7.8-2l0.7,2.6C1412,784.7,1409.4,785.4,1406.7,786z M1334,784.3
					c-2.6-0.7-5.2-1.5-7.8-2.4l0.8-2.6c2.5,0.8,5.1,1.6,7.7,2.3L1334,784.3z M1422.4,781.5l-0.9-2.6c2.5-0.9,5-1.8,7.5-2.8l1,2.5
					C1427.6,779.7,1425,780.7,1422.4,781.5z M1318.4,779.2c-2.5-1-5.1-2.1-7.5-3.2l1.1-2.5c2.4,1.1,4.9,2.2,7.4,3.1L1318.4,779.2z
					 M1437.6,775.4l-1.1-2.4c2.4-1.1,4.8-2.3,7.2-3.6l1.3,2.4C1442.5,773.1,1440,774.3,1437.6,775.4z M1303.6,772.4
					c-2.4-1.3-4.8-2.6-7.1-4l1.4-2.3c2.3,1.4,4.6,2.7,7,3.9L1303.6,772.4z M1452,767.8l-1.4-2.3c2.3-1.4,4.5-2.8,6.7-4.3l1.5,2.2
					C1456.6,764.9,1454.3,766.4,1452,767.8z M1289.5,764c-2.2-1.5-4.5-3.1-6.7-4.7l1.6-2.2c2.1,1.6,4.3,3.2,6.5,4.7L1289.5,764z
					 M1465.4,758.6l-1.6-2.1c2.1-1.6,4.2-3.3,6.2-5l1.8,2.1C1469.7,755.2,1467.6,756.9,1465.4,758.6z M1276.5,754.2
					c-2.1-1.7-4.1-3.6-6.1-5.4l1.8-2c2,1.8,4,3.6,6,5.3L1276.5,754.2z M1477.8,748l-1.9-2c1.9-1.8,3.8-3.7,5.7-5.7l2,1.9
					C1481.7,744.2,1479.8,746.1,1477.8,748z M1264.5,743c-1.9-2-3.7-4-5.5-6l2-1.8c1.7,2,3.5,4,5.4,5.9L1264.5,743z M1489.1,736.1
					l-2.1-1.7c1.7-2,3.4-4.1,5-6.3l2.2,1.6C1492.5,731.9,1490.8,734,1489.1,736.1z M1253.9,730.6c-1.7-2.1-3.3-4.4-4.8-6.6l2.2-1.5
					c1.5,2.2,3.1,4.4,4.7,6.5L1253.9,730.6z M1498.9,723.1l-2.2-1.5c1.5-2.2,3-4.5,4.3-6.8l2.3,1.4
					C1501.9,718.5,1500.5,720.8,1498.9,723.1z M1244.6,717.2c-1.4-2.3-2.8-4.7-4.1-7.1l2.4-1.3c1.3,2.4,2.6,4.7,4,6.9L1244.6,717.2z
					 M1507.4,709.1l-2.4-1.3c1.2-2.3,2.4-4.8,3.6-7.2l2.4,1.1C1509.8,704.2,1508.6,706.7,1507.4,709.1z M1236.9,702.9
					c-1.1-2.4-2.3-4.9-3.3-7.5l2.5-1c1,2.5,2.1,4.9,3.2,7.3L1236.9,702.9z M1514.2,694.2l-2.5-1c1-2.5,1.9-5,2.8-7.5l2.6,0.9
					C1516.2,689.1,1515.2,691.7,1514.2,694.2z M1230.7,687.8c-0.9-2.6-1.7-5.2-2.5-7.8l2.6-0.7c0.7,2.5,1.5,5.1,2.4,7.6
					L1230.7,687.8z M1519.4,678.7l-2.6-0.7c0.7-2.6,1.4-5.2,1.9-7.8l2.6,0.6C1520.8,673.5,1520.1,676.1,1519.4,678.7z M1226.3,672.1
					c-0.6-2.6-1.1-5.3-1.6-8l2.7-0.5c0.4,2.6,1,5.3,1.6,7.9L1226.3,672.1z M1522.9,662.8l-2.7-0.4c0.4-2.6,0.8-5.3,1.1-8l2.7,0.3
					C1523.7,657.4,1523.3,660.1,1522.9,662.8z M1223.5,656c-0.3-2.7-0.6-5.5-0.7-8.1l2.7-0.2c0.2,2.6,0.4,5.3,0.7,8L1223.5,656z
					 M1524.7,646.5l-2.7-0.1c0.1-2.6,0.2-5.3,0.2-8c0-0.8,0-1.7,0-2.5h2.7c0,0.9,0,1.7,0,2.6
					C1524.9,641.1,1524.8,643.9,1524.7,646.5z M1222.5,639.7v-1.3c0-2.3,0-4.6,0.2-6.9l2.7,0.1c-0.1,2.2-0.1,4.5-0.1,6.8v1.3H1222.5
					z M1521.8,627.9c-0.2-2.7-0.4-5.3-0.8-8l2.7-0.3c0.3,2.7,0.6,5.4,0.8,8.1L1521.8,627.9z M1225.9,623.6l-2.7-0.3
					c0.3-2.7,0.6-5.4,1-8.1l2.7,0.4C1226.5,618.3,1226.2,621,1225.9,623.6z M1519.8,611.9c-0.5-2.6-1-5.2-1.6-7.8l2.6-0.6
					c0.6,2.7,1.2,5.3,1.7,8L1519.8,611.9z M1228.3,607.8l-2.6-0.6c0.6-2.7,1.2-5.3,1.9-7.9l2.6,0.7
					C1229.5,602.5,1228.9,605.2,1228.3,607.8z M1516.1,596.3c-0.8-2.6-1.6-5.1-2.5-7.6l2.5-0.9c0.9,2.5,1.7,5.2,2.5,7.8
					L1516.1,596.3z M1232.5,592.3l-2.6-0.8c0.8-2.6,1.8-5.2,2.7-7.7l2.5,1C1234.2,587.2,1233.3,589.8,1232.5,592.3z M1510.8,581.2
					c-1-2.4-2.1-4.9-3.3-7.3l2.4-1.2c1.2,2.4,2.3,4.9,3.3,7.4L1510.8,581.2z M1238.3,577.3l-2.5-1.1c1.1-2.5,2.3-4.9,3.6-7.4
					l2.4,1.2C1240.6,572.5,1239.4,574.9,1238.3,577.3z M1503.8,566.8c-1.3-2.3-2.6-4.6-4.1-6.9l2.3-1.4c1.4,2.3,2.8,4.7,4.1,7
					L1503.8,566.8z M1245.7,563.1l-2.3-1.4c1.4-2.3,2.8-4.7,4.3-6.9l2.2,1.5C1248.5,558.5,1247,560.8,1245.7,563.1z M1495.3,553.2
					c-1.5-2.2-3.1-4.3-4.8-6.4l2.1-1.7c1.7,2.1,3.3,4.3,4.9,6.6L1495.3,553.2z M1254.6,549.7l-2.2-1.6c1.6-2.2,3.3-4.3,5.1-6.4
					l2.1,1.7C1257.8,545.4,1256.2,547.6,1254.6,549.7z M1485.4,540.6c-1.8-2-3.6-4-5.4-5.9l1.9-1.9c1.9,1.9,3.8,4,5.5,6
					L1485.4,540.6z M1264.9,537.4l-2-1.8c1.8-2,3.8-3.9,5.7-5.8l1.9,1.9C1268.6,533.5,1266.7,535.4,1264.9,537.4z M1474.2,529.1
					c-1.9-1.8-4-3.6-6-5.3l1.7-2.1c2.1,1.7,4.2,3.5,6.2,5.4L1474.2,529.1z M1276.4,526.2l-1.8-2c2-1.8,4.2-3.5,6.3-5.2l1.7,2.1
					C1280.5,522.8,1278.4,524.5,1276.4,526.2z M1461.9,518.9c-2.2-1.6-4.4-3.1-6.6-4.6l1.5-2.3c2.3,1.5,4.5,3.1,6.7,4.7
					L1461.9,518.9z M1289,516.4l-1.5-2.2c2.2-1.5,4.5-3.1,6.8-4.5l1.4,2.3C1293.5,513.4,1291.2,514.9,1289,516.4z M1448.5,510.1
					c-2.3-1.3-4.7-2.6-7-3.9l1.2-2.4c2.4,1.2,4.8,2.6,7.2,3.9L1448.5,510.1z M1302.7,507.9l-1.3-2.4c2.4-1.3,4.8-2.6,7.3-3.7
					l1.2,2.4C1307.4,505.4,1305,506.7,1302.7,507.9z M1434.2,502.7c-2.4-1.1-4.9-2.1-7.4-3.1l1-2.5c2.5,1,5.1,2,7.6,3.1
					L1434.2,502.7z M1317.1,501.1l-1-2.5c2.5-1,5.1-2,7.6-2.9l0.9,2.5C1322.1,499.1,1319.6,500,1317.1,501.1z M1419.2,497
					c-2.5-0.8-5.1-1.6-7.7-2.2l0.7-2.6c2.6,0.7,5.3,1.5,7.8,2.3L1419.2,497z M1332.2,495.8l-0.8-2.6c2.6-0.8,5.3-1.4,7.9-2.1
					l0.6,2.6C1337.4,494.3,1334.8,495,1332.2,495.8z M1403.7,492.9c-2.6-0.5-5.2-1-7.9-1.4l0.4-2.7c2.7,0.4,5.4,0.9,8,1.4
					L1403.7,492.9z M1347.9,492.1l-0.5-2.7c2.7-0.5,5.4-0.9,8.1-1.2l0.3,2.7C1353.1,491.3,1350.5,491.7,1347.9,492.1z M1387.8,490.6
					c-2.6-0.2-5.3-0.4-8-0.5l0.1-2.7c2.7,0.1,5.5,0.3,8.1,0.6L1387.8,490.6z M1363.8,490.2l-0.2-2.7c2.7-0.2,5.4-0.3,8.2-0.3v2.7
					C1369.1,489.9,1366.4,490.1,1363.8,490.2z"/>
			</g>
			<g>
				<g>
					<path class="st4" d="M1452.4,523.6c-6.4,0-11.7-5.2-11.7-11.7c0-6.5,5.2-11.7,11.7-11.7c6.4,0,11.7,5.2,11.7,11.7
						C1464.1,518.4,1458.9,523.6,1452.4,523.6z M1452.4,502.9c-5,0-9,4-9,9s4,9,9,9s9-4,9-9C1461.4,507,1457.4,502.9,1452.4,502.9z"
						/>
				</g>
				<g>
					<path class="st4" d="M1457.7,511.9c0,2.9-2.4,5.3-5.3,5.3s-5.3-2.4-5.3-5.3c0-2.9,2.4-5.3,5.3-5.3
						C1455.4,506.6,1457.7,509,1457.7,511.9z"/>
				</g>
			</g>
			<g>
				<path class="st4" d="M821.1,941.1H813v-2.7h8.1V941.1z M804.9,941.1h-8.1v-2.7h8.1V941.1z M788.7,941.1h-8.1v-2.7h8.1V941.1z
					 M772.5,941.1h-8.1v-2.7h8.1V941.1z M756.3,941.1h-8.1v-2.7h8.1V941.1z M740.1,941.1H732v-2.7h8.1V941.1z M723.9,941.1h-8.1
					v-2.7h8.1V941.1z M707.7,941.1h-8.6v-2.2h1.3v-0.5h7.2L707.7,941.1L707.7,941.1z M822.5,935.2h-2.7v-8.1h2.7V935.2z
					 M701.9,930.7h-2.7v-8.1h2.7V930.7z M822.5,919h-2.7v-8.1h2.7V919z M701.9,914.5h-2.7v-8.1h2.7V914.5z M822.5,902.8h-2.7v-8.1
					h2.7V902.8z M701.9,898.3h-2.7v-8.1h2.7V898.3z M822.5,886.6h-2.7v-8.1h2.7V886.6z M701.9,882.1h-2.7V874h2.7V882.1z
					 M822.5,870.4h-2.7v-8.1h2.7V870.4z M701.9,865.9h-2.7v-8.1h2.7V865.9z M822.5,854.2h-2.7v-8.1h2.7V854.2z M701.9,849.8h-2.7
					v-8.1h2.7V849.8z M822.5,838h-2.7v-8.1h2.7V838z M701.9,833.6h-2.7v-8.1h2.7V833.6z M822.5,821.8h-2.7v-1.3h-4.1v-2.7h6.8V821.8
					z M807.6,820.5h-8.1v-2.7h8.1V820.5z M791.4,820.5h-8.1v-2.7h8.1V820.5z M775.2,820.5h-8.1v-2.7h8.1V820.5z M759,820.5h-8.1
					v-2.7h8.1V820.5z M742.8,820.5h-8.1v-2.7h8.1V820.5z M726.6,820.5h-8.1v-2.7h8.1V820.5z M710.4,820.5h-8.1v-2.7h8.1V820.5z"/>
			</g>
			<g>
				<polygon class="st4" points="756.1,531.3 750,531.3 750,525.2 744.3,525.2 744.3,531.3 738.2,531.3 738.2,537 744.3,537 
					744.3,543.1 750,543.1 750,537 756.1,537 				"/>
			</g>
			<g>
				<polygon class="st4" points="887.1,960.5 881,960.5 881,954.4 875.3,954.4 875.3,960.5 869.2,960.5 869.2,966.2 875.3,966.2 
					875.3,972.3 881,972.3 881,966.2 887.1,966.2 				"/>
			</g>
			<g>
				<g>
					<polygon class="st4" points="1047.1,492.1 1044.4,492.1 1044.4,486.1 1038.4,486.1 1038.4,483.4 1047.1,483.4 					"/>
				</g>
				<g>
					<polygon class="st4" points="1024.5,492.1 1021.8,492.1 1021.8,483.4 1030.5,483.4 1030.5,486.1 1024.5,486.1 					"/>
				</g>
				<g>
					<polygon class="st4" points="1047.1,508.7 1038.4,508.7 1038.4,506 1044.4,506 1044.4,500 1047.1,500 					"/>
				</g>
				<g>
					<polygon class="st4" points="1030.5,508.7 1021.8,508.7 1021.8,500 1024.5,500 1024.5,506 1030.5,506 					"/>
				</g>
			</g>
			<g>
				<g>
					<polygon class="st4" points="1477,910.1 1474.3,910.1 1474.3,904.1 1468.3,904.1 1468.3,901.4 1477,901.4 					"/>
				</g>
				<g>
					<polygon class="st4" points="1454.5,910.1 1451.8,910.1 1451.8,901.4 1460.4,901.4 1460.4,904.1 1454.5,904.1 					"/>
				</g>
				<g>
					<polygon class="st4" points="1477,926.6 1468.3,926.6 1468.3,923.9 1474.3,923.9 1474.3,918 1477,918 					"/>
				</g>
				<g>
					<polygon class="st4" points="1460.4,926.6 1451.8,926.6 1451.8,918 1454.5,918 1454.5,923.9 1460.4,923.9 					"/>
				</g>
			</g>
			<g>
				<g>
					<polygon class="st4" points="1362,901.6 1359.3,901.6 1359.3,895.7 1353.3,895.7 1353.3,893 1362,893 					"/>
				</g>
				<g>
					<polygon class="st4" points="1339.4,901.6 1336.7,901.6 1336.7,893 1345.4,893 1345.4,895.7 1339.4,895.7 					"/>
				</g>
				<g>
					<polygon class="st4" points="1362,918.2 1353.3,918.2 1353.3,915.5 1359.3,915.5 1359.3,909.5 1362,909.5 					"/>
				</g>
				<g>
					<polygon class="st4" points="1345.4,918.2 1336.7,918.2 1336.7,909.5 1339.4,909.5 1339.4,915.5 1345.4,915.5 					"/>
				</g>
			</g>
			<g>
				<g>
					<path class="st4" d="M700.5,906.1c-6.4,0-11.7-5.2-11.7-11.7s5.2-11.7,11.7-11.7c6.4,0,11.7,5.2,11.7,11.7
						S707,906.1,700.5,906.1z M700.5,885.4c-5,0-9,4-9,9s4,9,9,9s9-4,9-9C709.5,889.5,705.5,885.4,700.5,885.4z"/>
				</g>
				<g>
					<path class="st4" d="M705.8,894.4c0,2.9-2.4,5.3-5.3,5.3c-2.9,0-5.3-2.4-5.3-5.3s2.4-5.3,5.3-5.3
						C703.4,889.1,705.8,891.5,705.8,894.4z"/>
				</g>
			</g>
		</g>
	</g>
	<g id="Layer_4_1_">
		<g>
			<g>
				<path class="st6" d="M1283.1,938.9V801.8c0-11.6-8.4-21-18.7-21h-143c-10.3,0-18.7,9.4-18.7,21v137.1H1283.1z"/>
				<path class="st7" d="M1276.7,938.9v-123c0-10.8-7.8-19.5-17.4-19.5h-132.8c-9.6,0-17.4,8.7-17.4,19.5v123H1276.7z"/>
			</g>
			<g>
				<path class="st8" d="M1171.5,938.9l0.1-2.2c0,0-4.7,0-12.9,0c-8.1,0.1-19.7,0.2-33.6,0.7c-7,0.3-14.5,0.6-22.6,1.1
					c-1.7,0.1-3.3,0.2-5,0.3h74V938.9z"/>
			</g>
			<path class="st9" d="M1089.5,892.7c0,7.6-10.9,13.7-24.4,13.7s-24.4-6.1-24.4-13.7c0-7.6,10.9-13.7,24.4-13.7
				C1078.5,879,1089.5,885.1,1089.5,892.7z"/>
			<g>
				<path class="st10" d="M1086,905.2l-9.4-25c45.3-17,55.8-33,48.8-120.8l26.6-2.1c4.1,50.8,2.1,78.8-7,99.9
					C1133.2,884.4,1109.7,896.3,1086,905.2z"/>
			</g>
			<path class="st11" d="M1245,938.9c0.1-15.5-0.2-25.8-0.2-25.8h-120.6c0,0-1.3,10.9-1.3,25.8H1245z"/>
			<path class="st12" d="M1230.4,750.4c-13.3-15.7-44.1-16.8-54.2-16.7c-9.6-0.1-33.1-2.3-46.6,13.7c-14.4,17-7,190.5-7,190.5h53.1
				h0.6h69.5C1245.8,937.8,1244.8,767.4,1230.4,750.4z"/>
			<path class="st13" d="M1227.5,803.5c3.4,8.4,4.4,17.1,5.1,26.1c0.9,12.1,5.8,28.6-1.8,39.3c-4.8,6.8-12.9,10-10.2,20
				c1.7,6.4,3.2,14.6,7,20.1c2.7,4,10.5,6.4,17.7,8.2c-0.8-40.7-2.9-106.7-8.3-142.7c-5.3,0.2-10.8-0.5-15.8-0.7
				C1222.5,784.4,1223.3,793.2,1227.5,803.5z"/>
			<path class="st14" d="M1155.2,739.6l33.9-5.9c0,0-2.6-9.2,0.6-19.1c3.9-12.2-45-7.1-36.5,0.6
				C1161.7,722.7,1155.2,739.6,1155.2,739.6z"/>
			<path class="st12" d="M1155.7,739.6c0,0,4.7,7.8,17.7,7.8c12.1,0,16.7-9.3,16.7-9.3l-1.8-15.3c0,0-4.5,4.6-14.8,4.6
				s-16.2-3.6-16.2-3.6L1155.7,739.6z"/>
			<path class="st9" d="M1228.8,894.4c0,7.6-10.9,13.7-24.4,13.7s-24.4-6.1-24.4-13.7c0-7.6,10.9-13.7,24.4-13.7
				C1217.9,880.7,1228.8,886.8,1228.8,894.4z"/>
			<g>
				<path class="st12" d="M1225.3,906.9l-9.4-25c25.8-9.7,45.3-34.8,45.5-58.4c0.2-21.6-15.6-39.2-45.7-51l9.7-24.9
					c54.8,21.5,62.8,56.8,62.6,76C1287.8,858.3,1261.4,893.3,1225.3,906.9z"/>
			</g>
			<g>
				<rect x="1238.7" y="933.6" class="st13" width="19.6" height="5.3"/>
				<rect x="862.3" y="933.6" class="st13" width="19.6" height="5.3"/>
				<rect x="937.2" y="933.6" class="st15" width="19.6" height="5.3"/>
				<rect x="1313.5" y="933.6" class="st16" width="19.6" height="5.3"/>
				<path class="st17" d="M1379.6,938.9c5.7-0.9,10.1-5.6,10.1-11.3c0-6.3-5.3-11.5-11.9-11.5h-120.7v22.8H1379.6z"/>
				<path class="st4" d="M835.6,938.9H1281c5.7-0.9,10.1-5.6,10.1-11.3c0-6.3-5.3-11.5-11.9-11.5H837.5c-6.6,0-11.9,5.1-11.9,11.5
					C825.6,933.3,829.9,938.1,835.6,938.9z"/>
			</g>
			<g>
				<path class="st13" d="M1155.7,856.9c0,7.9-6.4,14.3-14.3,14.3h-210c-7.9,0-14.3-6.4-14.3-14.3l-23.9-140.8
					c0-7.9,6.4-14.3,14.3-14.3h210c7.9,0,14.3,6.4,14.3,14.3L1155.7,856.9z"/>
				<path class="st4" d="M1143.8,856.9c0,7.9-6.4,14.3-14.3,14.3h-210c-7.9,0-14.3-6.4-14.3-14.3l-23.9-140.8
					c0-7.9,6.4-14.3,14.3-14.3h210c7.9,0,14.3,6.4,14.3,14.3L1143.8,856.9z"/>
				<polygon class="st13" points="1046.1,910.3 1036.4,834.7 1000.6,834.7 993.5,910.3 				"/>
				<rect x="1000.6" y="834.7" class="st4" width="35.8" height="75.6"/>
				<path class="st4" d="M1083.4,917.7v-8.3c0-7.5-5.7-13.5-12.8-13.5h-90.2c-7.1,0-12.8,6.1-12.8,13.5v8.3H1083.4z"/>
				<rect x="967.6" y="909.4" class="st13" width="115.7" height="8.3"/>
			</g>
			<g>
				<path class="st18" d="M1204,913.3c0,7.4-47.7,7.4-47.7,0s10.7-13.4,23.9-13.4C1193.3,899.9,1204,905.9,1204,913.3z"/>
				<path class="st17" d="M1188,913.5c-8.7,0.8-20.9-1.2-26.7-8.3c-3.1,2.3-5,5.1-5,8.2c0,7.4,47.7,7.4,47.7,0
					c0-1.7-0.6-3.3-1.6-4.9C1198.5,911.2,1193.6,913,1188,913.5z"/>
			</g>
			<g id="XMLID_2_">
				<g>
					<path class="st19" d="M1220.2,591.6c2.8,6.6,3.9,14.3,3.8,22c-4.6,0.6-9,1-13.4,1.4c-18.3-0.3-39,4.8-56.5,0
						c9.3,2.7,16.3,9.3,23.7,14.3c-13.9,3.1-36-1.9-51.6-8.8c-8.5-7-15.4-10.5-10.7-21.5c7.8,3.5,17.3,4.1,25.2,7.5
						c-1.6-4.2-5.2-8.2-8.1-11.2c14.7,5.3,32.9,4.1,48.3,4.3C1194.9,599.3,1207,594.5,1220.2,591.6z"/>
					<path class="st20" d="M1126.3,620.5c15.6,6.9,37.7,11.9,51.6,8.8c-7.5-5.1-14.4-11.6-23.7-14.3c17.5,4.8,38.3-0.3,56.5,0
						c0.4,0,0.8,0,1.2,0c2.8,15.4,2.6,33.2-0.1,49.9c-0.4,2-0.7,4.1-1.1,6.1c0.9-2,1.7-4,2.4-5.9c3.5,0.3,7.5-0.7,8.6-4.6
						c1-3.3-1.1-7.3-4.5-7.7c0.8-3,1.6-6.1,2.4-9.2c6.2,1.4,7.9,9.9,8.1,15.4c-0.6,10.5-7.6,13.9-17.7,15
						c-4.3,19.4-12.2,36.3-22.8,44.3c-3.3,2.6-6.9,4.2-10.9,4.8c-3.1,0.5-6.4,0.2-9.9-0.8c-1.4-0.4-2.7-1-4.2-1.7
						c5.4,1.4,10.9-1.1,16.2-4.2c9.8-5.7,13.2-13.4,17.3-23.9c6.2-15.3,9.1-29.4,8.4-45.9c-0.1-4,0.5-16.9-2.4-19.5
						c-1.5-1.5-16.8-2.7-19.8-4.8c3,4,7.5,8.6,9.6,13c-12.1,1.8-29.1,2.8-40.8-0.2c-9.1-2.1-21-3.6-30.2-7.8
						c-0.3-3.3-0.6-6.5-0.8-9.8l0.1-0.2C1121.9,618.5,1124,619.5,1126.3,620.5z"/>
					<path class="st21" d="M1217.2,652.8c-1.2,4.1-2.5,8.2-4.2,12.3c-0.5,0-0.9-0.1-1.3-0.2c2.7-16.7,2.9-34.5,0.1-49.9
						c-0.4,0-0.8,0-1.2,0c4.4-0.4,8.8-0.8,13.4-1.4c-0.2,6.8-1.2,13.6-2.7,20.1l0.4,0.1c-0.7,3.4-1.4,6.6-2.1,9.8
						C1218.9,646.7,1218.1,649.8,1217.2,652.8z"/>
					<path class="st22" d="M1217.2,652.8c3.3,0.4,5.5,4.4,4.5,7.7c-1.2,3.9-5.1,4.9-8.6,4.6C1214.7,661,1216,656.9,1217.2,652.8z"/>
					<path class="st23" d="M1198.5,572.1c11.3,3.7,18.1,10.8,21.8,19.5c-13.2,2.9-25.4,7.7-39.3,8.1c-15.4-0.2-33.6,1-48.3-4.3
						c2.9,3.1,6.5,7,8.1,11.2c-7.9-3.4-17.4-4.1-25.2-7.5c0.5-1.1,1-2.2,1.7-3.4c2.8-5.1,7.2-10.2,11.2-14.7c0.2,0,0.3,0,0.5,0
						C1150.5,570.3,1176.4,564.6,1198.5,572.1z"/>
					<path class="st23" d="M1211.7,664.9c0.4,0.1,0.9,0.1,1.3,0.2c-0.7,2-1.5,3.9-2.4,5.9C1211,669,1211.4,667,1211.7,664.9z"/>
					<path class="st24" d="M1201.9,627.1c2.9,2.6,2.3,15.5,2.4,19.5c0.7,16.6-2.2,30.6-8.4,45.9c-4.2,10.6-7.5,18.2-17.3,23.9
						c-5.3,3.1-10.8,5.6-16.2,4.2c-3.8-1.8-7.7-4.6-11.8-8.5c-7.3-7.5-12.9-17-17.2-27.5c0,0,0,0,0-0.1
						c-7.1-17.5-10.8-37.9-12.6-57.3c9.2,4.2,21,5.7,30.2,7.8c11.6,3,28.6,2,40.8,0.2c-2.1-4.4-6.5-9-9.6-13
						C1185.1,624.4,1200.4,625.6,1201.9,627.1z"/>
					<path class="st21" d="M1126.1,676.7c-2.6-3.7-4.8-7.9-6.6-12.3c-1.4-3.6-2.6-7.3-3.4-11c-0.5-2.6-0.9-5.1-1.1-7.6
						c-6.5-14.6-10.2-33.5-9.3-38.9c2.9-16.2,8.5-19.6,22.7-26.1c-4.1,4.5-8.4,9.5-11.2,14.7c-0.7,1.2-1.2,2.3-1.7,3.4
						c-4.6,11,2.2,14.5,10.7,21.5c-2.2-1-4.4-2-6.3-3.1l-0.1,0.2c0.2,3.2,0.5,6.5,0.8,9.8c1.8,19.4,5.4,39.8,12.6,57.3l0,0
						C1130.6,682.4,1128.2,679.7,1126.1,676.7z"/>
					<path class="st20" d="M1133.3,684.6c-20.6,3.3-25.8-17.6-18.1-30.9l1-0.2c0.8,3.6,1.9,7.3,3.4,11c-1.6,1.5-2.5,3.9-2.1,6.5
						c0.8,4.5,4.7,5.7,8.6,5.8C1128.2,679.7,1130.6,682.4,1133.3,684.6z"/>
					<path class="st22" d="M1119.5,664.4c1.7,4.4,3.9,8.6,6.6,12.3c-3.9-0.1-7.8-1.4-8.6-5.8C1117,668.3,1117.9,666,1119.5,664.4z"
						/>
				</g>
			</g>
			<path class="st25" d="M1120.3,607.5c9.2,10.3,26.4,18.5,40.3,14.5c0.7-0.2,0.6-1.4,0-1.5c-6.5-1.8-13.2-2.3-19.7-4
				c-7.6-2.1-13.4-5.3-20.1-9.3C1120.5,606.9,1120,607.2,1120.3,607.5L1120.3,607.5z"/>
			<path class="st25" d="M1144.1,602.8c19.3,15.1,47.1,9.7,68.8,2.7c0.5-0.2,0.4-1.1-0.2-1.1
				C1190.1,604.4,1165.1,616.2,1144.1,602.8C1144.1,602.7,1144.1,602.7,1144.1,602.8L1144.1,602.8z"/>
			<path class="st25" d="M1173.3,601.7c5.2,0.5,11.5,0.3,16.4-1.8c0.6-0.2,0.3-1.1-0.3-1c-5.2,0.5-11,1-16.1,2.2
				C1173,601.2,1173,601.7,1173.3,601.7L1173.3,601.7z"/>
			<path class="st26" d="M1217.2,616.4c-0.9,7.1-3.5,16.6-0.3,23.4c0.2,0.4,0.8,0.4,0.9,0c2-7.1,0.4-15.9,0.4-23.3
				C1218.2,615.9,1217.2,615.7,1217.2,616.4L1217.2,616.4z"/>
			<path class="st27" d="M1133.4,588c18.9,2.2,44,5.8,61-4.7c0.9-0.6,0.2-2.2-0.8-1.9c-9.9,2.6-19.4,5.6-29.7,6.7
				C1153.7,589,1143.5,587.6,1133.4,588C1133.3,587.9,1133.3,588,1133.4,588L1133.4,588z"/>
			<path class="st27" d="M1156.3,582.1c2.9,0.9,5.6,0.1,8.4-0.7c3.1-0.9,6.6-1.8,9.5-3.4c0.7-0.4,0.4-1.3-0.4-1.3
				c-2.9,0.2-5.6,1.4-8.4,2.3c-3,1-6.3,1.3-9.2,2.6C1156.1,581.8,1156.1,582.1,1156.3,582.1L1156.3,582.1z"/>
			<path class="st28" d="M1163.1,652.5c0.6,7.1-0.4,15.1-7,19.2c-0.4,0.2-0.6,0.9-0.5,1.3c1.2,6.6,8.1,10.6,14.5,10.8
				c0.3,0,0.5-0.4,0.1-0.6c-3.5-1.7-6.9-3.1-9.7-5.9c-3.5-3.5-0.2-5.4,1.5-8.4c2.7-4.9,2.9-11.1,1.5-16.4
				C1163.5,652.1,1163.1,652.2,1163.1,652.5L1163.1,652.5z"/>
			<path class="st21" d="M1194.4,643.8c-2.6-2-5-3.6-8-5c-2-1-4.1-1.8-6-3c-1.4-0.9-2.5-2.2-4.1-2.6c-0.6-0.1-1.3,0.1-1.3,0.8
				c-0.2,3.4,3.7,5.3,6.3,6.5C1185.3,642.3,1190.5,641.7,1194.4,643.8C1194.4,644,1194.5,643.9,1194.4,643.8L1194.4,643.8z"/>
			<path class="st21" d="M1134.1,651c1.4-0.9,2.7-1.9,4-2.8c2-1.3,4.3-1.9,6.3-3.2c3.8-2.5,5.7-6.8,4.7-11.1
				c-0.1-0.3-0.5-0.5-0.6-0.2c-2.2,3.7-5.1,6.8-7.7,10.2C1138.8,646.5,1135.4,648.1,1134.1,651C1134.1,651,1134.1,651.1,1134.1,651
				L1134.1,651z"/>
			<path class="st29" d="M1181.3,673.2c3.9,1.4,7.9-0.5,11.7-1.4c5.3-1.3,4.3-9.2-1.3-8.5c-4,0.5-9.3,2-11.7,5.5
				C1179.1,670.2,1179.5,672.5,1181.3,673.2L1181.3,673.2z"/>
			<path class="st29" d="M1150.7,671.9c-0.5-3.6-3.9-4.6-6.8-5.8c-6.2-2.5-10.1,7.6-3.8,9.6C1143.4,676.7,1151.5,677.9,1150.7,671.9
				L1150.7,671.9z"/>
			<path class="st30" d="M1156.2,655.8c-2.2-0.4-12.7,0.1-16.2,3.7c-2.6,2.7,5.1-6.5,8.1-7C1151.1,652.1,1160,656.4,1156.2,655.8z"
				/>
			<path class="st30" d="M1176.5,652.9c2.1-0.9,12.4-3,16.6-0.3c3.2,2-6.5-5.1-9.5-4.8C1180.6,648.1,1173.1,654.4,1176.5,652.9z"/>
			<g>
				<path class="st31" d="M1158.6,698c0.7,0.5,1.6,0.8,2.3,1c1.7,0.4,3.4,0.2,5.1,0l0,0c-1.4,0-2.8,0-4.2-0.3
					c-0.9-0.2-1.7-0.7-2.5-1.1c-0.3-0.2-0.6-0.5-0.9-0.8c-0.2-1.6-0.2-3.2-0.2-4.5c-1.1-0.5-2-1.2-2.9-2c-0.4,4.3,1.7,9,4.7,12.3
					v-0.1C1159.4,701.6,1158.9,699.9,1158.6,698z"/>
				<path class="st31" d="M1176.6,690.3c0.2,0.7,0.4,1.5,0.6,2.4c-0.6,0.7-1.1,1.4-1.7,2c-2.1,2.1-4.6,3.1-7,3.8l0,0
					c2.3-0.5,6.7-1.3,9.1-4c0.2,1.2,0.4,2.5,0.5,3.6c1.7-3.9,2.7-8.6,3.2-12.9C1180,687.2,1178.4,688.9,1176.6,690.3z"/>
				<path class="st4" d="M1168.4,698.5C1168.4,698.5,1168.4,698.4,1168.4,698.5c2.4-0.7,4.9-1.7,7-3.8c0.6-0.6,1.1-1.3,1.7-2
					c-0.2-0.8-0.4-1.7-0.6-2.4c-5.4,4.1-13,4.7-18.4,1.9c0,1.3,0,2.9,0.2,4.5c0.3,0.3,0.6,0.6,0.9,0.8c0.8,0.5,1.6,0.9,2.5,1.1
					c1.3,0.3,2.8,0.3,4.2,0.3l0,0c-1.7,0.2-3.4,0.4-5.1,0c-0.7-0.2-1.6-0.5-2.3-1c0.3,1.9,0.8,3.6,1.5,4.4v0.1
					c2.8,3.1,6.3,5,9.1,4.4c4-0.8,6.9-4.2,8.9-8.7c-0.1-1.1-0.3-2.4-0.5-3.6C1175.1,697.2,1170.7,698,1168.4,698.5z"/>
			</g>
		</g>
	</g>
	<g>
		<path class="st32" d="M147.5,157.3v1080h166.9c-15.9-63.3-24.4-129.5-24.4-197.7c0-446.5,362-808.5,808.5-808.5
			S1907,593,1907,1039.6c0,68.2-8.5,134.4-24.4,197.7h184.9v-1080H147.5z"/>
	</g>
</g>
<g id="Layer_2">
	<rect class="st33" width="2222.1" height="1411"/>
</g>
</svg>
