<?xml version="1.0" encoding="UTF-8"?>
<svg preserveAspectRatio="none slice" width="444px" height="171px" viewBox="0 0 444 171" version="1.1" xmlns="http://www.w3.org/2000/svg" xmlns:xlink="http://www.w3.org/1999/xlink">
    <!-- Generator: Sketch 49.3 (51167) - http://www.bohemiancoding.com/sketch -->
    <title>badlands-01</title>
    <desc>Created with Sketch.</desc>
    <defs>
        <linearGradient x1="247.687861%" y1="15770%" x2="51.734104%" y2="163%" id="linearGradient-1">
            <stop stop-color="#615227" offset="19%"></stop>
            <stop stop-color="#685B32" offset="43%"></stop>
            <stop stop-color="#7C7150" offset="85%"></stop>
            <stop stop-color="#847B5D" offset="100%"></stop>
        </linearGradient>
        <linearGradient x1="-0.0225431639%" y1="50.0169434%" x2="99.9977195%" y2="50.0169434%" id="linearGradient-2">
            <stop stop-color="#EAD7A1" offset="0%"></stop>
            <stop stop-color="#EACE8F" offset="18%"></stop>
            <stop stop-color="#E9C176" offset="49%"></stop>
            <stop stop-color="#E9BA67" offset="77%"></stop>
            <stop stop-color="#E9B762" offset="100%"></stop>
        </linearGradient>
        <linearGradient x1="-732.915669%" y1="49.8982262%" x2="580.120179%" y2="49.8982262%" id="linearGradient-3">
            <stop stop-color="#DDAF7D" offset="0%"></stop>
            <stop stop-color="#DBAA74" offset="12%"></stop>
            <stop stop-color="#D49B5C" offset="31%"></stop>
            <stop stop-color="#CA8334" offset="54%"></stop>
            <stop stop-color="#C4751C" offset="67%"></stop>
            <stop stop-color="#C17019" offset="78%"></stop>
            <stop stop-color="#B86211" offset="90%"></stop>
            <stop stop-color="#AD5207" offset="100%"></stop>
        </linearGradient>
        <linearGradient x1="2778%" y1="21320%" x2="32973%" y2="21320%" id="linearGradient-4">
            <stop stop-color="#DDAF7D" offset="0%"></stop>
            <stop stop-color="#DBAA74" offset="12%"></stop>
            <stop stop-color="#D49B5C" offset="31%"></stop>
            <stop stop-color="#CA8334" offset="54%"></stop>
            <stop stop-color="#C4751C" offset="67%"></stop>
            <stop stop-color="#C17019" offset="78%"></stop>
            <stop stop-color="#B86211" offset="90%"></stop>
            <stop stop-color="#AD5207" offset="100%"></stop>
        </linearGradient>
        <linearGradient x1="2778%" y1="23583%" x2="32973%" y2="23583%" id="linearGradient-5">
            <stop stop-color="#DDAF7D" offset="0%"></stop>
            <stop stop-color="#DBAA74" offset="12%"></stop>
            <stop stop-color="#D49B5C" offset="31%"></stop>
            <stop stop-color="#CA8334" offset="54%"></stop>
            <stop stop-color="#C4751C" offset="67%"></stop>
            <stop stop-color="#C17019" offset="78%"></stop>
            <stop stop-color="#B86211" offset="90%"></stop>
            <stop stop-color="#AD5207" offset="100%"></stop>
        </linearGradient>
        <linearGradient x1="2778%" y1="21190%" x2="32973%" y2="21190%" id="linearGradient-6">
            <stop stop-color="#DDAF7D" offset="0%"></stop>
            <stop stop-color="#DBAA74" offset="12%"></stop>
            <stop stop-color="#D49B5C" offset="31%"></stop>
            <stop stop-color="#CA8334" offset="54%"></stop>
            <stop stop-color="#C4751C" offset="67%"></stop>
            <stop stop-color="#C17019" offset="78%"></stop>
            <stop stop-color="#B86211" offset="90%"></stop>
            <stop stop-color="#AD5207" offset="100%"></stop>
        </linearGradient>
        <linearGradient x1="2778%" y1="23029%" x2="32974%" y2="23029%" id="linearGradient-7">
            <stop stop-color="#DDAF7D" offset="0%"></stop>
            <stop stop-color="#DBAA74" offset="12%"></stop>
            <stop stop-color="#D49B5C" offset="31%"></stop>
            <stop stop-color="#CA8334" offset="54%"></stop>
            <stop stop-color="#C4751C" offset="67%"></stop>
            <stop stop-color="#C17019" offset="78%"></stop>
            <stop stop-color="#B86211" offset="90%"></stop>
            <stop stop-color="#AD5207" offset="100%"></stop>
        </linearGradient>
        <linearGradient x1="2778%" y1="22818%" x2="32973%" y2="22818%" id="linearGradient-8">
            <stop stop-color="#DDAF7D" offset="0%"></stop>
            <stop stop-color="#DBAA74" offset="12%"></stop>
            <stop stop-color="#D49B5C" offset="31%"></stop>
            <stop stop-color="#CA8334" offset="54%"></stop>
            <stop stop-color="#C4751C" offset="67%"></stop>
            <stop stop-color="#C17019" offset="78%"></stop>
            <stop stop-color="#B86211" offset="90%"></stop>
            <stop stop-color="#AD5207" offset="100%"></stop>
        </linearGradient>
        <linearGradient x1="-127.069912%" y1="50.0169434%" x2="75.4571925%" y2="50.0169434%" id="linearGradient-9">
            <stop stop-color="#DDAF7D" offset="0%"></stop>
            <stop stop-color="#DBAA74" offset="14%"></stop>
            <stop stop-color="#D49B5C" offset="38%"></stop>
            <stop stop-color="#CA8334" offset="67%"></stop>
            <stop stop-color="#C4751C" offset="83%"></stop>
            <stop stop-color="#C17019" offset="88%"></stop>
            <stop stop-color="#B86211" offset="95%"></stop>
            <stop stop-color="#AD5207" offset="100%"></stop>
        </linearGradient>
        <linearGradient x1="2778%" y1="18661%" x2="32973%" y2="18661%" id="linearGradient-10">
            <stop stop-color="#DDAF7D" offset="0%"></stop>
            <stop stop-color="#DBAA74" offset="12%"></stop>
            <stop stop-color="#D49B5C" offset="31%"></stop>
            <stop stop-color="#CA8334" offset="54%"></stop>
            <stop stop-color="#C4751C" offset="67%"></stop>
            <stop stop-color="#C17019" offset="78%"></stop>
            <stop stop-color="#B86211" offset="90%"></stop>
            <stop stop-color="#AD5207" offset="100%"></stop>
        </linearGradient>
        <linearGradient x1="2778%" y1="19262%" x2="32973%" y2="19262%" id="linearGradient-11">
            <stop stop-color="#DDAF7D" offset="0%"></stop>
            <stop stop-color="#DBAA74" offset="12%"></stop>
            <stop stop-color="#D49B5C" offset="31%"></stop>
            <stop stop-color="#CA8334" offset="54%"></stop>
            <stop stop-color="#C4751C" offset="67%"></stop>
            <stop stop-color="#C17019" offset="78%"></stop>
            <stop stop-color="#B86211" offset="90%"></stop>
            <stop stop-color="#AD5207" offset="100%"></stop>
        </linearGradient>
        <linearGradient x1="2777%" y1="16402%" x2="32973%" y2="16402%" id="linearGradient-12">
            <stop stop-color="#DDAF7D" offset="0%"></stop>
            <stop stop-color="#DBAA74" offset="12%"></stop>
            <stop stop-color="#D49B5C" offset="31%"></stop>
            <stop stop-color="#CA8334" offset="54%"></stop>
            <stop stop-color="#C4751C" offset="67%"></stop>
            <stop stop-color="#C17019" offset="78%"></stop>
            <stop stop-color="#B86211" offset="90%"></stop>
            <stop stop-color="#AD5207" offset="100%"></stop>
        </linearGradient>
        <linearGradient x1="2778%" y1="21278%" x2="32973%" y2="21278%" id="linearGradient-13">
            <stop stop-color="#DDAF7D" offset="0%"></stop>
            <stop stop-color="#DBAA74" offset="12%"></stop>
            <stop stop-color="#D49B5C" offset="31%"></stop>
            <stop stop-color="#CA8334" offset="54%"></stop>
            <stop stop-color="#C4751C" offset="67%"></stop>
            <stop stop-color="#C17019" offset="78%"></stop>
            <stop stop-color="#B86211" offset="90%"></stop>
            <stop stop-color="#AD5207" offset="100%"></stop>
        </linearGradient>
        <linearGradient x1="2778%" y1="22006%" x2="32973%" y2="22006%" id="linearGradient-14">
            <stop stop-color="#DDAF7D" offset="0%"></stop>
            <stop stop-color="#DBAA74" offset="12%"></stop>
            <stop stop-color="#D49B5C" offset="31%"></stop>
            <stop stop-color="#CA8334" offset="54%"></stop>
            <stop stop-color="#C4751C" offset="67%"></stop>
            <stop stop-color="#C17019" offset="78%"></stop>
            <stop stop-color="#B86211" offset="90%"></stop>
            <stop stop-color="#AD5207" offset="100%"></stop>
        </linearGradient>
        <linearGradient x1="2778%" y1="22734%" x2="32973%" y2="22734%" id="linearGradient-15">
            <stop stop-color="#DDAF7D" offset="0%"></stop>
            <stop stop-color="#DBAA74" offset="12%"></stop>
            <stop stop-color="#D49B5C" offset="31%"></stop>
            <stop stop-color="#CA8334" offset="54%"></stop>
            <stop stop-color="#C4751C" offset="67%"></stop>
            <stop stop-color="#C17019" offset="78%"></stop>
            <stop stop-color="#B86211" offset="90%"></stop>
            <stop stop-color="#AD5207" offset="100%"></stop>
        </linearGradient>
        <linearGradient x1="2778%" y1="21358%" x2="32973%" y2="21358%" id="linearGradient-16">
            <stop stop-color="#DDAF7D" offset="0%"></stop>
            <stop stop-color="#DBAA74" offset="12%"></stop>
            <stop stop-color="#D49B5C" offset="31%"></stop>
            <stop stop-color="#CA8334" offset="54%"></stop>
            <stop stop-color="#C4751C" offset="67%"></stop>
            <stop stop-color="#C17019" offset="78%"></stop>
            <stop stop-color="#B86211" offset="90%"></stop>
            <stop stop-color="#AD5207" offset="100%"></stop>
        </linearGradient>
        <linearGradient x1="2778%" y1="20846%" x2="32973%" y2="20846%" id="linearGradient-17">
            <stop stop-color="#DDAF7D" offset="0%"></stop>
            <stop stop-color="#DBAA74" offset="12%"></stop>
            <stop stop-color="#D49B5C" offset="31%"></stop>
            <stop stop-color="#CA8334" offset="54%"></stop>
            <stop stop-color="#C4751C" offset="67%"></stop>
            <stop stop-color="#C17019" offset="78%"></stop>
            <stop stop-color="#B86211" offset="90%"></stop>
            <stop stop-color="#AD5207" offset="100%"></stop>
        </linearGradient>
        <linearGradient x1="2778%" y1="21021%" x2="32973%" y2="21021%" id="linearGradient-18">
            <stop stop-color="#DDAF7D" offset="0%"></stop>
            <stop stop-color="#DBAA74" offset="12%"></stop>
            <stop stop-color="#D49B5C" offset="31%"></stop>
            <stop stop-color="#CA8334" offset="54%"></stop>
            <stop stop-color="#C4751C" offset="67%"></stop>
            <stop stop-color="#C17019" offset="78%"></stop>
            <stop stop-color="#B86211" offset="90%"></stop>
            <stop stop-color="#AD5207" offset="100%"></stop>
        </linearGradient>
        <linearGradient x1="2778%" y1="21847%" x2="32973%" y2="21847%" id="linearGradient-19">
            <stop stop-color="#DDAF7D" offset="0%"></stop>
            <stop stop-color="#DBAA74" offset="12%"></stop>
            <stop stop-color="#D49B5C" offset="31%"></stop>
            <stop stop-color="#CA8334" offset="54%"></stop>
            <stop stop-color="#C4751C" offset="67%"></stop>
            <stop stop-color="#C17019" offset="78%"></stop>
            <stop stop-color="#B86211" offset="90%"></stop>
            <stop stop-color="#AD5207" offset="100%"></stop>
        </linearGradient>
        <linearGradient x1="2778%" y1="21157%" x2="32973%" y2="21157%" id="linearGradient-20">
            <stop stop-color="#DDAF7D" offset="0%"></stop>
            <stop stop-color="#DBAA74" offset="12%"></stop>
            <stop stop-color="#D49B5C" offset="31%"></stop>
            <stop stop-color="#CA8334" offset="54%"></stop>
            <stop stop-color="#C4751C" offset="67%"></stop>
            <stop stop-color="#C17019" offset="78%"></stop>
            <stop stop-color="#B86211" offset="90%"></stop>
            <stop stop-color="#AD5207" offset="100%"></stop>
        </linearGradient>
        <linearGradient x1="2778%" y1="19478%" x2="32973%" y2="19478%" id="linearGradient-21">
            <stop stop-color="#DDAF7D" offset="0%"></stop>
            <stop stop-color="#DBAA74" offset="12%"></stop>
            <stop stop-color="#D49B5C" offset="31%"></stop>
            <stop stop-color="#CA8334" offset="54%"></stop>
            <stop stop-color="#C4751C" offset="67%"></stop>
            <stop stop-color="#C17019" offset="78%"></stop>
            <stop stop-color="#B86211" offset="90%"></stop>
            <stop stop-color="#AD5207" offset="100%"></stop>
        </linearGradient>
        <linearGradient x1="2778%" y1="20806%" x2="32973%" y2="20806%" id="linearGradient-22">
            <stop stop-color="#DDAF7D" offset="0%"></stop>
            <stop stop-color="#DBAA74" offset="12%"></stop>
            <stop stop-color="#D49B5C" offset="31%"></stop>
            <stop stop-color="#CA8334" offset="54%"></stop>
            <stop stop-color="#C4751C" offset="67%"></stop>
            <stop stop-color="#C17019" offset="78%"></stop>
            <stop stop-color="#B86211" offset="90%"></stop>
            <stop stop-color="#AD5207" offset="100%"></stop>
        </linearGradient>
        <linearGradient x1="2778%" y1="21233%" x2="32973%" y2="21233%" id="linearGradient-23">
            <stop stop-color="#DDAF7D" offset="0%"></stop>
            <stop stop-color="#DBAA74" offset="12%"></stop>
            <stop stop-color="#D49B5C" offset="31%"></stop>
            <stop stop-color="#CA8334" offset="54%"></stop>
            <stop stop-color="#C4751C" offset="67%"></stop>
            <stop stop-color="#C17019" offset="78%"></stop>
            <stop stop-color="#B86211" offset="90%"></stop>
            <stop stop-color="#AD5207" offset="100%"></stop>
        </linearGradient>
        <linearGradient x1="2778%" y1="18112%" x2="32973%" y2="18112%" id="linearGradient-24">
            <stop stop-color="#DDAF7D" offset="0%"></stop>
            <stop stop-color="#DBAA74" offset="12%"></stop>
            <stop stop-color="#D49B5C" offset="31%"></stop>
            <stop stop-color="#CA8334" offset="54%"></stop>
            <stop stop-color="#C4751C" offset="67%"></stop>
            <stop stop-color="#C17019" offset="78%"></stop>
            <stop stop-color="#B86211" offset="90%"></stop>
            <stop stop-color="#AD5207" offset="100%"></stop>
        </linearGradient>
    </defs>
    <g id="Page-1" stroke="none" stroke-width="1" fill="none" fill-rule="evenodd">
        <g id="badlands-01">
            <path d="M240.38,111 L241,111" id="Shape" stroke="#000000" stroke-width="0.77"></path>
            <polygon id="Shape" fill="#C6AA36" fill-rule="nonzero" points="118.79 111.61 144.96 111.61 164.34 110.64 179.85 117.43 203.12 115.49 228.32 115.49 270.02 118.51 327.8 120.49 342.47 106.15 68.18 95.49 47.5 93.87 50.73 103.24 62.28 109.26 101.63 111.23"></polygon>
            <polygon id="Shape" fill="#A89804" fill-rule="nonzero" points="270 118.51 228.3 115.51 203.1 115.51 179.83 117.45 164.32 110.66 145 110.66 119 110.66 101.63 111.28 36 91 0 91 0 171 444 163 444 32 398 36"></polygon>
            <path d="M98.78,122.64 C97.5990408,122.649693 96.4285828,122.862811 95.32,123.27 L98.78,122.64 Z" id="Shape" fill="url(#linearGradient-1)" fill-rule="nonzero"></path>
            <path d="M298.51,24.07 L300.23,24.07 C299.679511,23.8411102 299.060489,23.8411102 298.51,24.07 Z" id="Shape" fill="#C4751C" fill-rule="nonzero"></path>
            <path d="M380.62,23.76 C379.14,20.57 376.4,17.67 373.11,17.6 C371.33,17.6 369.62,19.16 368.11,19.13 C366.96,19.13 366.37,18.05 365.32,17.79 C361.1,16.79 355.52,22.36 353.37,16.05 C353.37,16.15 348.53,6.93 347.71,5.33 C346.54,3.06 345.49,1.07 343.16,0.94 C342.08,4.41 339.61,2.87 337.78,4.3 C335.38,6.17 334.28,11.63 332.73,14.51 C331.83,16.19 330.21,19.31 328.73,20.27 C327.25,21.23 326.6,20.27 325.15,20.39 C322.15,20.59 320.23,23.53 317.59,23.84 C315.4,24.1 313.24,22.29 310.67,23.05 C309.98332,23.2848059 309.336026,23.6219384 308.75,24.05 L386.56,24.05 C384.6,23.28 382.84,23.41 380.62,23.76 Z" id="Shape" fill="#E6A559" fill-rule="nonzero"></path>
            <path d="M352.06,86.8 L35.77,86.8 C35.5449608,87.2071752 35.3926781,87.650487 35.32,88.11 C34.97,90.17 36.6,92.23 38.48,93.75 L341.37,93.75 L352.06,86.8 Z" id="Shape" fill="#C97A2F" fill-rule="nonzero"></path>
            <path d="M399.86,38.51 L263.7,38.51 C262.76,39.85 261.87,41.23 261.01,42.51 L398.18,42.51 L399.86,38.51 Z" id="Shape" fill="#C4751C" fill-rule="nonzero"></path>
            <path d="M105.05,39.48 C103.945144,40.420772 102.893517,41.4223216 101.9,42.48 L105.8,42.48 C105.27736,41.5686074 105.017738,40.530118 105.05,39.48 Z" id="Shape" fill="#C4751C" fill-rule="nonzero"></path>
            <path d="M257.5,44.48 L397.34,44.48 L398.18,42.48 L261,42.48 C260.55,43.15 260.1,43.78 259.67,44.35 C259.001133,43.8953078 258.109798,43.9487057 257.5,44.48 Z" id="Shape" fill="#D79447" fill-rule="nonzero"></path>
            <path d="M256.1,45.59 C255.74,45.82 253.5,47.42 253.1,47.79 C251.743399,49.3180542 250.651697,51.0620741 249.87,52.95 L393.77,52.95 L397.34,44.48 L257.5,44.48 C257.05,44.81 256.63,45.25 256.1,45.59 Z" id="Shape" fill="#C4751C" fill-rule="nonzero"></path>
            <path d="M219.66,51.92 C217.15,52.19 210.89,53.82 210.91,49.12 C209.48,50.33 208.14,51.63 206.84,52.95 L224.84,52.95 C222.67,52.06 221.87,51.69 219.66,51.92 Z" id="Shape" fill="#C4751C" fill-rule="nonzero"></path>
            <path d="M111.67,44.42 C110.37,43.62 108.61,44.67 107.41,44.05 C106.740692,43.6871255 106.183803,43.1475309 105.8,42.49 L101.9,42.49 C101.314702,43.1160124 100.776564,43.7845069 100.29,44.49 L111.76,44.49 L111.67,44.42 Z" id="Shape" fill="#D79447" fill-rule="nonzero"></path>
            <path d="M400.48,37 C400.94,36.77 399.06,35.58 397.99,34.66 C397.1,33.91 396.27,33.04 395.47,32.33 C395.606612,31.8408427 395.710179,31.3430533 395.78,30.84 C394.323383,30.0883305 392.977372,29.1393932 391.78,28.02 L290.55,28.02 C289.13,29.16 287.67,29.87 286.64,28.8 C283.64,31.17 282.64,33.19 278.73,33.8 C278.57,31.27 277.35,31.54 275.94,31.86 C275.78,31.86 274.8,33.79 274.2,34.06 C272.982955,34.3897808 271.705725,34.4308713 270.47,34.18 C270.54,33.57 270.24,32.61 270.33,31.94 C267.81,32.94 265.65,35.63 263.7,38.43 L399.86,38.43 L400.48,37 Z" id="Shape" fill="#E6A559" fill-rule="nonzero"></path>
            <path d="M121.71,55.44 L126.71,55.44 C126.638609,55.1569888 126.585169,54.8697501 126.55,54.58 C124.72,54.54 122.55,53.43 121.71,55.44 Z" id="Shape" fill="#C4751C" fill-rule="nonzero"></path>
            <path d="M248.76,55.44 L392.76,55.44 L393.76,52.95 L249.89,52.95 C249.5,53.78 249.13,54.62 248.76,55.44 Z" id="Shape" fill="#9E5D10" fill-rule="nonzero"></path>
            <path d="M117.08,53 L89.74,53 C89.5081247,53.851752 89.2105666,54.6842461 88.85,55.49 L119.8,55.49 C118.72944,54.8589955 117.802888,54.0107913 117.08,53 Z" id="Shape" fill="#9E5D10" fill-rule="nonzero"></path>
            <path d="M230.88,54.89 C229.31,54.08 226.88,53.81 225.63,53.29 L224.8,52.95 L206.8,52.95 L204.33,55.44 L230.75,55.44 C230.82,55.26 230.84,55.08 230.88,54.89 Z" id="Shape" fill="#9E5D10" fill-rule="nonzero"></path>
            <path d="M294.19,24.66 C293.31,25.36 291.95,26.92 290.55,28.06 L391.79,28.06 C390.667003,26.9985138 389.488693,25.9971173 388.26,25.06 C387.706976,24.6650862 387.113664,24.3298816 386.49,24.06 L308.68,24.06 C306.81,25.35 304.74,27.2 302.86,26.58 C300.98,25.96 301.12,24.58 300.23,24.06 L298.51,24.06 L297.93,24.26 C296.3,24.89 295.1,28.4 294.19,24.66 Z" id="Shape" fill="#D79447" fill-rule="nonzero"></path>
            <path d="M41.77,78.33 C40.8788354,80.1689916 39.8769976,81.9522629 38.77,83.67 C38.608808,83.8956889 38.43169,84.1095673 38.24,84.31 L355.89,84.31 L365.07,78.31 L41.77,78.33 Z" id="Shape" fill="#9E5D10" fill-rule="nonzero"></path>
            <path d="M155.57,60.91 L156.57,60.91 C156.57,60.74 156.49,60.57 156.46,60.39 C156.182647,60.5944562 155.884296,60.7687738 155.57,60.91 Z" id="Shape" fill="#C4751C" fill-rule="nonzero"></path>
            <path d="M247.73,57.57 C246.43,56.41 244.38,58.95 243.51,60.91 L390.41,60.91 L392.72,55.44 L248.72,55.44 C248.42,56.18 248.08,56.9 247.73,57.57 Z" id="Shape" fill="#C97A2F" fill-rule="nonzero"></path>
            <path d="M136.78,60.75 C135.050309,59.8705041 133.215505,59.2152167 131.32,58.8 C129.32,58.35 127.32,57.8 126.72,55.44 L121.72,55.44 L121.65,55.62 C121.03796,55.8151054 120.372626,55.7500183 119.81,55.44 L88.85,55.44 C87.9746694,57.372875 86.8952019,59.2066288 85.63,60.91 L137.15,60.91 L136.78,60.75 Z" id="Shape" fill="#C4751C" fill-rule="nonzero"></path>
            <path d="M61,60 C60.77,60.28 60.52,60.6 60.28,60.94 L69.28,60.94 C66.41,58.38 63.72,56.64 61,60 Z" id="Shape" fill="#C4751C" fill-rule="nonzero"></path>
            <path d="M355.89,84.31 L38.2,84.31 C37.31,85.24 36.35,85.75 35.77,86.8 L352.06,86.8 L355.89,84.31 Z" id="Shape" fill="#BA7325" fill-rule="nonzero"></path>
            <path d="M371.2,74.35 L50.05,74.35 C48.44885,75.3953533 46.38115,75.3953533 44.78,74.35 L44.66,74.35 C43.4883126,75.519656 42.5125026,76.870258 41.77,78.35 L365.07,78.35 L371.2,74.35 Z" id="Shape" fill="#E6A559" fill-rule="nonzero"></path>
            <polygon id="Shape" fill="#C4751C" fill-rule="nonzero" points="44.7 74.31 44.7 74.31 44.82 74.31"></polygon>
            <path d="M373.5,72.86 L52,72.86 C51.4267277,73.4329809 50.7852601,73.9333928 50.09,74.35 L371.2,74.35 L373.5,72.86 Z" id="Shape" fill="#BA7325" fill-rule="nonzero"></path>
            <path d="M82.55,64.4 L158.34,64.4 C157.462714,63.408902 156.859477,62.2058733 156.59,60.91 L155.59,60.91 C152.2,62.41 146.93,60.72 143.48,61.12 C140.56,61.45 139.3,61.82 137.17,60.91 L85.63,60.91 C84.7111429,62.1642073 83.6802391,63.3323418 82.55,64.4 Z" id="Shape" fill="#D79447" fill-rule="nonzero"></path>
            <path d="M69.23,60.91 L60.23,60.91 C59.51,61.91 58.76,63.11 57.97,64.4 L73.12,64.4 C71.79,63.33 70.5,62 69.23,60.91 Z" id="Shape" fill="#C4751C" fill-rule="nonzero"></path>
            <path d="M243.17,61.89 C242.17,66.08 239.17,62.17 238.17,62.22 C237.48,62.22 235.03,61.54 234.52,61.56 C233.718962,61.5963649 232.92824,61.3679341 232.27,60.91 L199.21,60.91 C197.85189,63.0469559 196.911908,65.4223617 196.44,67.91 L381.15,67.91 L389.86,62.25 L390.41,60.94 L243.51,60.94 C243.363537,61.2438135 243.249571,61.5622464 243.17,61.89 Z" id="Shape" fill="#E6A559" fill-rule="nonzero"></path>
            <path d="M164.32,67 C162,66.66 159.85,66.06 158.32,64.44 L82.55,64.44 C82.0224511,64.9311806 81.4536948,65.3761487 80.85,65.77 C78.07,67.54 75.52,66.35 73.12,64.44 L58,64.44 C57.31,65.57 56.59,66.76 55.84,67.92 L169.16,67.92 C167.580785,67.4551695 165.959626,67.1470153 164.32,67 Z" id="Shape" fill="#E6A559" fill-rule="nonzero"></path>
            <path d="M341.37,93.75 L38.48,93.75 C39.3760614,94.4744623 40.3445297,95.1044694 41.37,95.63 C44.89,97.41 47.07,99.07 51.37,99.06 C54.3,99.06 57.09,98.06 60.02,98.39 L70.02,97.64 C72.48,97.78 74.37,99.24 76.93,97.64 C76.93,97.18 77.04,96.64 77.03,96.21 C81.92,95.76 86.67,97.76 91.55,97.77 C90.9137138,98.7936989 90.4950211,99.9374451 90.32,101.13 C96.84,103.78 104.99,101.87 111.88,102.75 C113.689576,103.025472 115.530424,103.025472 117.34,102.75 C120.71,102.36 122.52,103.16 125.7,103.84 C127.94,104.32 129.55,102.84 131.25,102.77 C132.95,102.7 134.33,103.53 136.05,103.53 C140.2,103.53 142.78,100.78 147.52,101.93 C154.67,103.66 162.09,103.35 169.52,104 C169.416413,104.205728 169.355202,104.430167 169.34,104.66 L324.65,104.66 L341.37,93.75 Z" id="Shape" fill="#E6A559" fill-rule="nonzero"></path>
            <path d="M169.24,104.62 C168.98,108.81 187.47,107.32 189.37,107.72 C189.25,107.06 189.56,106.14 189.45,105.49 C193.55,105.12 217.79,112.62 218.32,106.28 C225.63,103.59 234.13,109.39 241.81,107.54 C240.04,109.54 234.54,112.3 234.26,115.08 C238.26,116.65 243.65,115.67 247.84,116.33 C253.54,117.22 258.84,116.67 264.46,116.69 C268.2,116.69 271.91,118.02 275.75,117.88 C279.85,117.74 283.83,117.29 287.92,117.77 C294.74,118.56 296.09,116.99 302.57,118.97 L324.65,104.62 L169.24,104.62 Z" id="Shape" fill="#EAB96C" fill-rule="nonzero"></path>
            <path d="M230.79,55.44 L204.37,55.44 C203.54,56.27 202.7,57.09 201.85,57.86 L230.73,57.86 C230.647268,57.0540539 230.66743,56.2408559 230.79,55.44 Z" id="Shape" fill="#C4751C" fill-rule="nonzero"></path>
            <path d="M199.21,60.91 L232.29,60.91 C231.364691,60.1792836 230.796782,59.0871501 230.73,57.91 L201.85,57.91 L201.2,58.49 C200.425682,59.1986138 199.755688,60.0133804 199.21,60.91 Z" id="Shape" fill="#BA7325" fill-rule="nonzero"></path>
            <path d="M169.16,67.88 L55.82,67.88 C55.51,68.36 55.19,68.88 54.82,69.31 L171.32,69.31 C170.749988,68.6383555 170.000918,68.1424431 169.16,67.88 Z" id="Shape" fill="#C97A2F" fill-rule="nonzero"></path>
            <path d="M171.36,69.31 L54.86,69.31 C54.38,70 53.86,70.67 53.37,71.31 L171.89,71.31 C171.984796,70.5994753 171.794223,69.8803347 171.36,69.31 Z" id="Shape" fill="#9E5D10" fill-rule="nonzero"></path>
            <path d="M196.44,67.88 C196.367499,68.3265177 196.327395,68.7776951 196.32,69.23 C194.32,69.54 192.77,68.23 191.08,68.1 C187.86,67.93 187.53,70.18 186.08,72.45 C183.84,69.79 184.89,68.66 180.82,70.45 C180.73,70.09 180.82,69.75 180.72,69.39 C179.28,69.32 177.86,69.67 177.07,68.6 C174.82,69.07 173.98,72.09 171.86,71.6 C171.86,71.5 171.86,71.42 171.86,71.33 L53.37,71.33 C52.9403709,71.8635794 52.4830773,72.3742795 52,72.86 L373.5,72.86 L381.15,67.86 L196.44,67.88 Z" id="Shape" fill="#C97A2F" fill-rule="nonzero"></path>
            <path d="M111.76,44.48 L100.29,44.48 C100.109789,44.7414012 99.9429097,45.0117463 99.79,45.29 C99.6,44.97 96.36,47.4 96.14,46.95 C96.1448174,46.989855 96.1448174,47.030145 96.14,47.07 L113.24,47.07 C112.37,45.59 113.43,45.54 111.76,44.48 Z" id="Shape" fill="#C4751C" fill-rule="nonzero"></path>
            <path d="M113.4,47.32 L113.24,47.07 L96.12,47.07 C95.9897533,47.7130923 95.7567693,48.3310064 95.43,48.9 L114.38,48.9 C114,48.28 113.67,47.73 113.4,47.32 Z" id="Shape" fill="#D79447" fill-rule="nonzero"></path>
            <path d="M94.28,50.39 C93.0896699,51.5156397 91.5362657,52.1788511 89.9,52.26 C89.9,52.48 89.8,52.71 89.74,52.95 L117.08,52.95 C116.45,52.14 115.85,51.25 115.3,50.39 L94.28,50.39 Z" id="Shape" fill="#C4751C" fill-rule="nonzero"></path>
            <path d="M114.38,48.9 L95.43,48.9 C95.1144891,49.445501 94.7277585,49.9465693 94.28,50.39 L115.28,50.39 C115,49.87 114.66,49.36 114.38,48.9 Z" id="Shape" fill="#D79447" fill-rule="nonzero"></path>
            <path d="M397.76,34.82 C396.87,34.06 396.04,33.19 395.24,32.48 C395.375578,31.9939745 395.479134,31.4995801 395.55,31 C394.095133,30.2413877 392.749595,29.2894196 391.55,28.17 C390.427003,27.1085138 389.248693,26.1071173 388.02,25.17 C387.469662,24.7708869 386.875875,24.4354139 386.25,24.17 C384.36,23.37 382.6,23.51 380.38,23.85 C378.9,20.67 376.16,17.76 372.87,17.69 C371.09,17.69 369.38,19.25 367.87,19.22 C366.72,19.22 366.13,18.14 365.08,17.88 C360.86,16.88 355.28,22.45 353.13,16.14 C353.13,16.24 348.29,7.02 347.47,5.42 C346.3,3.15 345.25,1.16 342.92,1.03 C341.84,4.5 339.37,2.97 337.54,4.39 C335.14,6.26 334.04,11.72 332.54,14.61 C331.64,16.28 330.02,19.4 328.49,20.36 C326.96,21.32 326.36,20.36 324.91,20.48 C321.91,20.68 319.99,23.62 317.35,23.93 C315.16,24.19 313,22.39 310.43,23.14 C309.83,23.31 303.74,28.33 303.07,28.79 L300.07,24.17 C299.521642,23.9306767 298.898358,23.9306767 298.35,24.17 C298.17,24.22 297.98,24.28 297.77,24.36 C296.14,24.98 294.94,28.49 294.03,24.75 C293.15,25.46 291.79,27.02 290.39,28.15 C288.99,29.28 287.51,30 286.48,28.93 C283.48,31.3 282.48,33.33 278.57,33.93 C278.41,31.4 277.19,31.67 275.78,31.99 C275.62,31.99 274.64,33.92 274.04,34.19 C272.82445,34.5296512 271.544868,34.5708174 270.31,34.31 C270.38,33.7 270.08,32.74 270.17,32.08 C267.65,33.08 265.49,35.76 263.54,38.56 C262.6,39.91 261.71,41.29 260.85,42.56 C260.4,43.23 259.95,43.86 259.52,44.43 C258.848999,43.9700998 257.95159,44.023615 257.34,44.56 C256.89,44.88 256.47,45.32 255.94,45.66 C255.58,45.89 253.34,47.49 252.94,47.87 C251.581305,49.3927538 250.489308,51.1338638 249.71,53.02 C249.32,53.85 248.95,54.69 248.58,55.51 C248.21,56.33 247.9,56.97 247.58,57.64 C246.28,56.48 244.23,59.02 243.36,60.98 C243.211678,61.3003944 243.097709,61.6355975 243.02,61.98 C242.02,66.17 239.02,62.26 238.02,62.31 C237.33,62.31 234.88,61.63 234.37,61.65 C233.568337,61.6917215 232.775913,61.4627991 232.12,61 C230.98,60.18 230.21,58.5 230.62,55.53 C230.62,55.35 230.67,55.17 230.71,54.99 C229.14,54.17 226.71,53.91 225.46,53.38 L224.63,53.04 C222.5,52.15 221.7,51.78 219.49,52.04 C216.98,52.31 210.72,53.94 210.74,49.25 C209.31,50.45 207.97,51.75 206.67,53.07 L204.2,55.56 C203.2,56.56 202.11,57.63 201.03,58.56 C200.248406,59.2832306 199.574849,60.1150733 199.03,61.03 C197.67189,63.1669559 196.731908,65.5423617 196.26,68.03 C196.187053,68.479821 196.146947,68.9343554 196.14,69.39 C194.14,69.7 192.59,68.39 190.9,68.25 C187.68,68.08 187.35,70.34 185.9,72.6 C183.66,69.94 184.71,68.82 180.64,70.6 C180.55,70.24 180.64,69.9 180.54,69.54 C179.1,69.47 177.68,69.82 176.89,68.75 C174.64,69.22 173.8,72.24 171.68,71.75 C172.01,69.75 170.68,68.67 168.98,68.06 C167.399622,67.6000016 165.778935,67.2919373 164.14,67.14 C161.82,66.8 155.62,61.3 153.42,61.58 C149.83,62 139,63 139,63 C139,63 136.66,61 136.53,60.91 C134.800781,60.0176677 132.966463,59.3457566 131.07,58.91 C129.07,58.46 127.07,57.91 126.47,55.55 C126.398577,55.2703726 126.345134,54.9864583 126.31,54.7 C124.47,54.7 122.31,53.54 121.46,55.55 L119.57,55.55 C118.497108,54.9221523 117.569949,54.0733919 116.85,53.06 C115.32,51.12 113.99,48.66 113.17,47.44 C112.01,45.71 113.29,45.71 111.53,44.6 L111.44,44.53 C110.14,43.74 108.38,44.79 107.18,44.16 C106.505608,43.8040923 105.947,43.2628321 105.57,42.6 C105.04687,41.6888052 104.787212,40.6501745 104.82,39.6 C103.712381,40.5377002 102.660583,41.5394124 101.67,42.6 C101.082504,43.2241018 100.544228,43.892768 100.06,44.6 C99.8754012,44.858511 99.7083593,45.129119 99.56,45.41 C99.37,45.08 96.13,47.51 95.91,47.07 C95.3161281,50.0731187 92.7296406,52.2699751 89.67,52.37 C89.62,52.6 89.57,52.83 89.51,53.06 C89.2781247,53.911752 88.9805666,54.7442461 88.62,55.55 C87.7455911,57.479171 86.6624631,59.30674 85.39,61 C84.4772681,62.2561469 83.4494937,63.4245289 82.32,64.49 C81.7924511,64.9811806 81.2236948,65.4261487 80.62,65.82 C77.84,67.59 75.29,66.4 72.89,64.49 C71.56,63.42 70.27,62.13 69,61 C66.18,58.48 63.49,56.74 60.73,60.06 C60.5,60.34 60.25,60.66 60.01,61 C59.29,62 58.54,63.21 57.75,64.49 C57.06,65.62 56.34,66.81 55.59,67.97 C54.486821,69.7705845 53.1926717,71.4469438 51.73,72.97 C51.1567277,73.5429809 50.5152601,74.0433928 49.82,74.46 C48.2204036,75.5105618 46.1495964,75.5105618 44.55,74.46 L44.47,74.46 C43.2968426,75.628402 42.3208504,76.9792562 41.58,78.46 C40.6828269,80.2926151 39.6811788,82.0722099 38.58,83.79 C38.418808,84.0156889 38.24169,84.2295673 38.05,84.43 C37.16,85.36 36.2,85.87 35.62,86.92 C35.3949608,87.3271752 35.2426781,87.770487 35.17,88.23 C34.82,90.3 36.45,92.35 38.33,93.87 C39.2219675,94.6000793 40.1910541,95.2304886 41.22,95.75 C44.74,97.53 46.92,99.19 51.22,99.18 C54.15,99.18 56.94,98.18 59.87,98.52 L69.87,97.77 C72.33,97.91 74.22,99.37 76.78,97.77 C76.78,97.31 76.89,96.77 76.88,96.34 C81.77,95.9 86.52,97.89 91.4,97.9 C90.7113562,98.8920159 90.2347578,100.015426 90,101.2 C96.52,103.85 104.67,101.94 111.56,102.82 C113.369972,103.090199 115.210028,103.090199 117.02,102.82 C120.39,102.42 122.2,103.22 125.38,103.9 C127.62,104.38 129.23,102.9 130.93,102.83 C132.63,102.76 134.01,103.59 135.73,103.59 C139.88,103.59 142.46,100.84 147.2,101.99 C154.35,103.73 161.77,103.42 169.2,104.06 C166.9,109.06 187.15,107.4 189.15,107.82 C189.03,107.16 189.34,106.25 189.23,105.6 C193.33,105.22 217.57,112.72 218.1,106.38 C225.41,103.69 233.91,109.5 241.59,107.64 C239.82,109.64 234.32,112.4 234.04,115.19 C238.04,116.75 243.43,115.78 247.62,116.43 C253.32,117.33 258.62,116.77 264.24,116.79 C267.98,116.79 271.68,118.12 275.53,117.99 C279.63,117.84 283.61,117.39 287.7,117.87 C294.52,118.66 295.87,117.09 302.35,119.07 L341.15,93.85 L351.84,86.85 L355.67,84.36 L364.85,78.36 L370.98,74.36 L373.28,72.87 L380.93,67.87 L389.64,62.21 L390.19,60.9 L392.5,55.43 L393.55,52.94 L397.12,44.48 L397.96,42.48 L399.64,38.48 L400.26,37.01 C400.71,36.92 398.83,35.73 397.76,34.82 Z" id="Shape" fill="url(#linearGradient-2)" fill-rule="nonzero" opacity="0.49"></path>
            <g id="Group" opacity="0.7" style="mix-blend-mode: multiply;" transform="translate(47.000000, 1.000000)" fill-rule="nonzero">
                <path d="M195.32,74.12 L201.32,84.12 L206.32,91.59 L203.32,74.66 L197.84,67.2 L198.26,57.2 C197.437527,58.0158993 196.776007,58.9793443 196.31,60.04 C196.161678,60.3603944 196.047709,60.6955975 195.97,61.04 C194.97,65.23 191.97,61.32 190.97,61.37 C190.34,61.37 188.24,60.81 187.49,60.72 C186.222903,63.3916304 185.570262,66.3131351 185.58,69.27 C184.520186,67.6051597 183.853333,65.7208727 183.63,63.76 C181.89,69.19 187.99,76.05 191.17,79.64 C193.89,82.71 197.9,86.56 201.75,88.16 C201.12,87.16 200.65,85.36 199.83,84.27 C199.26,83.5 198.38,82.89 197.73,82.16 C195.73,79.87 192.15,78.53 190.59,75.94 C189.65,74.37 189.96,69.18 189.76,65.05 L191.35,68.69 L195.32,74.12 Z" id="Shape" fill="url(#linearGradient-3)"></path>
                <path d="M180.09,87.08 C180.62,85.02 180.47,83.08 180.74,80.99 C180.94,79.44 181.74,77.99 181.96,76.56 C182.5,73.22 180.96,70.29 180.3,67.05 C180.04,65.77 179.59,64.73 179.25,63.49 C178.91,62.25 178.1,53.4 177.5,52.21 C176.17,60.4 178.16,66.15 178.16,69.47 C177.16,68.19 177.3,72.81 176.76,71.15 C176.11,69.15 175.76,58.15 173.96,56.41 C173.96,62.17 174.96,74.17 177.27,77.6 C178.14,78.89 179.27,79.24 178.6,80.81 C177.87,82.54 176.65,81.91 176.6,84.06 C176.6,85.84 177.43,87.47 177.22,89.38 C177.14,90.12 176.48,93.38 175.51,93.65 C175.450407,93.6598848 175.389593,93.6598848 175.33,93.65 C176.145625,95.0283892 176.637977,96.5738262 176.77,98.17 C177.1,93.89 179.05,91.13 180.09,87.08 Z" id="Shape" fill="url(#linearGradient-4)"></path>
                <path d="M186.32,105.23 C185.497107,104.522588 184.541986,103.985544 183.51,103.65 C181.89,102.85 181,102.53 180.51,100.9 C179.9,98.79 180.35,95.27 178.34,93.83 C178.17,96.2 180.11,99.1 177.45,99.97 C176.59,98.18 173.31,97.24 171.82,95.57 C170.33,93.9 168.01,91.12 167.24,89.02 C166.15,91.6 168.43,91.72 169.11,93.59 C169.97,95.93 168.11,95.29 166.62,93.98 C165.65094,92.9453937 164.749096,91.8498207 163.92,90.7 C163.14,89.79 161.03,88.22 162.81,92.04 C166.31,94.81 170.26,96.78 173.65,99.56 C175.65,101.17 177.74,101.71 179.84,102.99 C181.27,103.86 182.78,104.75 183.94,105.31 C184.486146,105.606087 185.010776,105.940246 185.51,106.31 L187.21,106.64 C186.990645,106.125429 186.690161,105.649381 186.32,105.23 Z" id="Shape" fill="url(#linearGradient-5)"></path>
                <path d="M143.77,72.15 C144.183854,73.0675137 144.339444,74.0805805 144.22,75.08 C143.92,76.9 143.17,78.23 143.12,80.26 C144.3,77.47 146.24,74.71 147.12,71.9 C147.4,71 147.86,69.97 147.12,69.33 L147.59,68.33 C146.26,68.06 145.09,67.33 143.84,67.24 C140.62,67.07 140.29,69.33 138.84,71.59 C136.6,68.93 137.65,67.81 133.58,69.59 C133.49,69.23 133.58,68.89 133.48,68.53 C132.77,68.53 132.07,68.53 131.48,68.53 L131.14,69.73 L134.14,75.73 L134.64,80.73 L141.11,73.73 L143.77,72.15 Z" id="Shape" fill="url(#linearGradient-6)"></path>
                <path d="M175.32,93.67 C174.83,92.75 174.32,91.83 173.74,90.91 C174.07,92.46 174.58,93.68 175.32,93.67 Z" id="Shape" fill="url(#linearGradient-7)"></path>
                <path d="M140,87.42 C138.603791,87.3606463 137.205067,87.4242247 135.82,87.61 C137.34,88.18 137.49,90.23 138.47,91.29 C139.589287,92.5253403 141.250609,93.1216163 142.9,92.88 C140.35,91.1 140.15,90.44 140,87.42 Z" id="Shape" fill="url(#linearGradient-8)"></path>
                <path d="M350.76,33.82 C349.87,33.06 349.04,32.19 348.24,31.48 C348.375578,30.9939745 348.479134,30.4995801 348.55,30 C347.095133,29.2413877 345.749595,28.2894196 344.55,27.17 C343.427003,26.1085138 342.248693,25.1071173 341.02,24.17 C340.469662,23.7708869 339.875875,23.4354139 339.25,23.17 C337.36,22.37 335.6,22.51 333.38,22.85 C331.9,19.67 329.16,16.76 325.87,16.69 C324.09,16.69 322.38,18.25 320.87,18.22 C319.72,18.22 319.13,17.14 318.08,16.88 C313.86,15.88 308.28,21.45 306.13,15.14 C306.13,15.24 301.29,6.02 300.47,4.42 C299.3,2.15 298.25,0.16 295.92,0.03 C294.84,3.5 292.37,1.97 290.54,3.39 C288.71,4.81 287.72,8.04 286.67,10.84 L285.93,18.84 L290.93,23.84 C290.93,23.84 286.93,29.31 287.44,31.3 C287.95,33.29 290.93,40.3 290.93,40.3 L285.93,47.3 L284.47,48.03 C284.05575,46.8166677 283.849513,45.5420565 283.86,44.26 C283.97,42.09 283.86,40.15 283.86,38 C283.86,35.54 285.29,34.61 285.81,32.3 C286.17,30.74 285.47,29.61 285.06,27.99 C285.173708,29.8490351 284.915331,31.7120726 284.3,33.47 C283.52,35.47 282.13,36.7 281.6,38.77 C280.89,41.56 281.6,45.62 283.1,48.72 L277,51.72 L273.52,52.22 L269.52,67.16 L261.52,69.64 L257.04,72.13 L246.58,73.13 L257.04,78.6 L260.1,84.74 C258.92,83.02 256.77,82.38 255.19,80.92 C254.19,82.47 256.42,82.76 257.02,84.3 C257.87,86.49 258.08,88.91 258.93,91.14 C259.51,92.68 263.13,99.02 259.5,99.01 C258.03,94.01 257.69,86.43 253.35,83.01 C252.93,86.2 254.35,89.59 254.2,92.9 C254.07,95.54 253.78,96.74 256.6,97.9 C256.351173,98.7013866 255.935377,99.4409595 255.38,100.07 C253.007966,99.2439935 250.795705,98.0160875 248.84,96.44 L248.58,96.1 L246.58,92.61 L235.63,87.14 L227.17,78.14 L220.7,76.14 L213.23,71.14 L204.23,64.14 L208.23,72.6 L211.13,74.05 C211.875719,75.9563492 212.130185,78.0195893 211.87,80.05 C211.66,80.82 210.42,81.82 210.42,82.53 C210.42,83.73 211.86,84.53 212.61,85.44 C213.293046,86.1687204 213.912004,86.9549641 214.46,87.79 C215.15,89.08 214.9,90.64 215.89,91.9 C216.88,93.16 218.8,93.34 219.77,94.75 C220.49,95.8 220.37,97.26 221.32,98.18 C222.56,99.38 223.9,98.69 225.6,99.06 C226.13,99.17 226.13,99.84 226.82,99.97 C227.51,100.1 228.1,99.97 228.71,100.1 C228.204639,99.2050763 227.811668,98.2511985 227.54,97.26 L224.16,85.04 L243.08,95.49 L247.56,98.49 C247.92,98.93 248.36,99.4 248.75,99.86 C249.98,101.32 243.66,101.75 245.26,102.64 C246.38,103.26 248.46,103.08 248.06,104.15 C247.41,105.87 248.06,108.67 245.06,110.83 L242.06,117.07 C243.58,117.13 252.95,117.32 255.34,118.07 L294.14,92.85 L304.83,85.85 L308.66,83.36 L317.84,77.36 L323.97,73.36 L326.27,71.87 L333.92,66.87 L342.63,61.21 L343.18,59.9 L345.49,54.43 L346.54,51.94 L350.11,43.48 L350.95,41.48 L352.63,37.48 L353.25,36.01 C353.71,35.92 351.83,34.73 350.76,33.82 Z M224.46,94.41 C223.823804,94.326134 223.233168,94.0343322 222.78,93.58 C222.031951,92.5584867 221.541405,91.3715711 221.35,90.12 L224.46,94.41 Z" id="Shape" fill="url(#linearGradient-9)"></path>
                <path d="M259,56.7 L255.51,43.76 L256.37,27.51 L255.97,27.81 L253.29,23.69 L251.61,23.09 L251.24,23.19 C251.06,23.24 250.87,23.3 250.66,23.38 C250.178984,23.6238036 249.753446,23.964234 249.41,24.38 L248.05,45.3 L244.6,45.3 L245.6,60.73 L241.6,50.28 L237.6,53.76 L238.1,64.22 L233.62,61.22 L233.12,74.16 L242.12,72.16 L246.6,73.16 L251.6,69.16 L259,56.7 Z" id="Shape" fill="url(#linearGradient-10)"></path>
                <path d="M227.68,67.65 L228.68,59.65 L228.6,59.56 C228.691218,58.8151823 228.869089,58.0835622 229.13,57.38 C229.46,56.62 230.23,56.17 230.33,55.38 C230.33,55.12 229.75,53.16 229.64,52.61 C229.64,52.51 229.64,52.41 229.64,52.33 C230.59,49.9 230.82,47.04 231.51,44.6 C232.35,41.65 233.09,37.65 231.29,34.93 C230.98,36.2 231.12,37.54 230.82,38.79 C230.59,39.74 230,40.35 230.36,40.22 C229.27,42.81 229.13,46.11 228.62,48.96 C228.62,49.21 228.52,49.46 228.46,49.71 C227.53,49 226.46,48.84 225.73,48.15 L223.95,33.4 L223.29,33.33 C223.36,32.72 223.06,31.76 223.15,31.1 C221.630951,31.8010437 220.28299,32.8248121 219.2,34.1 L218.77,36.22 L219.77,50.66 L213.3,54.66 L208.82,55.16 L210.31,65.11 L213.62,75.11 L227.24,78.11 L227.68,67.65 Z" id="Shape" fill="url(#linearGradient-11)"></path>
                <path d="M285.05,27.93 C285.05,26.64 284.96,25.35 284.96,24.11 C284.703848,25.3740321 284.734603,26.6794337 285.05,27.93 Z" id="Shape" fill="url(#linearGradient-12)"></path>
                <path d="M100.88,74.51 C101.97,76.36 101.59,79.11 102.6,80.75 C102.96,76.55 100.6,73.68 100.65,68.8 C98.36,71.18 99.42,72 100.88,74.51 Z" id="Shape" fill="url(#linearGradient-13)"></path>
                <path d="M109.88,83.82 C110.397886,82.6965841 110.79026,81.5194645 111.05,80.31 C110.337791,81.3467479 109.932281,82.5632762 109.88,83.82 Z" id="Shape" fill="url(#linearGradient-14)"></path>
                <path d="M108.62,87.39 C108.21,89.64 106.42,92.62 106.62,94.86 C107.93,93.36 112.62,92.11 112.56,89.7 C112.56,88.61 110.56,87.53 110.12,86.4 C109.839625,85.5707051 109.740726,84.6908446 109.83,83.82 C109.293545,84.9606489 108.887639,86.1582395 108.62,87.39 Z" id="Shape" fill="url(#linearGradient-15)"></path>
                <path d="M32.84,85.84 C31.09,84.19 30.92,84.29 31.19,81.63 C31.41,79.43 31.09,78.77 30.45,76.77 C30.2962447,76.2136963 30.192499,75.644768 30.14,75.07 L38,85.57 L43.47,88.06 L38,77.11 L36,69.64 L34.85,63.9 C34.4533695,64.2434971 34.0322563,64.5576609 33.59,64.84 C30.81,66.61 28.26,65.42 25.86,63.51 C25.36,63.11 24.86,62.67 24.37,62.23 L23.55,62.67 L28.31,72.2 C28.2194156,72.9104576 28.2194156,73.6295424 28.31,74.34 C28.4451132,75.4124278 28.4451132,76.4975722 28.31,77.57 C28.01,78.64 26.91,79.33 26.63,80.33 C26.2,81.85 26.99,84.82 27.83,86.33 C28.96,88.33 29.47,88.08 31.57,88.11 C33.24,88.11 34.57,89 36.13,88.98 C35.43,88.31 33.85,86.79 32.84,85.84 Z" id="Shape" fill="url(#linearGradient-16)"></path>
                <path d="M165.92,69.91 C165.92,71.43 165.7,73.09 166.31,74.37 C167.02,75.88 168.61,76.66 169.62,77.87 C171.4,80 171.47,82.87 171.68,85.52 C171.960117,87.4467694 172.663642,89.2875456 173.74,90.91 C173.336713,88.9062264 173.162262,86.8631387 173.22,84.82 C173.51,81.9 173.72,81.08 172.4,78.61 C171.08,76.14 172.85,74.26 173.74,71.46 C172.31,71.12 165.99,65.71 166.22,63.46 C166.45,61.21 164.63,52 164.45,50 C163.14,51.92 163.3,68.59 162.85,70.76 C163.86,70.65 164.69,70.09 165.92,69.91 Z" id="Shape" fill="url(#linearGradient-17)"></path>
                <path d="M111.28,70.48 C112.4,68.48 113.83,67.2 113.98,65 L113.32,64.78 C111.9,67.08 110.03,69.27 109.77,71.88 C109.784258,73.5057013 109.677295,75.1302035 109.45,76.74 C109.23,77.66 108.59,78.63 108.66,79.64 C110.15,76.76 109.73,73.2 111.28,70.48 Z" id="Shape" fill="url(#linearGradient-18)"></path>
                <path d="M2.2,73.79 C1.80276751,73.9665335 1.38676736,74.0973722 0.96,74.18 C2.98988202,76.007671 4.88171572,77.9830662 6.62,80.09 C8.03,81.9 7.01,86.24 8.79,87.15 C8.87,84.68 9.99,83.15 8.88,80.96 C8.26593167,79.9022868 7.52733346,78.9219655 6.68,78.04 C5.93,77.17 3.94,74.66 2.2,73.79 Z" id="Shape" fill="url(#linearGradient-19)"></path>
                <path d="M160.48,74.12 L156.7,67.48 L155.6,57.08 C155.6,57.08 152.72,67.26 152.94,73.45 C153.114059,77.2540933 154.34324,80.9347108 156.49,84.08 L158.98,90.08 L160.48,74.12 Z" id="Shape" fill="url(#linearGradient-20)"></path>
                <path d="M183.65,54 C183.068055,53.7119872 182.458227,53.4841392 181.83,53.32 L182.38,59.68 L185.38,60.23 C185.26,60.16 185.14,60.09 185.03,60.01 C183.89,59.19 183.12,57.51 183.53,54.54 C183.59,54.37 183.61,54.19 183.65,54 Z" id="Shape" fill="url(#linearGradient-21)"></path>
                <path d="M70.81,87.25 C70.05,85.5 70.52,82.94 70.33,80.88 L71.87,73.63 L72.37,58.19 L73.93,54.55 L72.57,54.55 C71.4971084,53.9221523 70.5699485,53.0733919 69.85,52.06 C68.9640335,50.8947769 68.1460086,49.6794255 67.4,48.42 L66.89,48.24 L63.89,56.7 L59.41,64.17 L58.92,72.17 L55.92,80.17 L58.41,84.17 L65.41,84.67 L68.41,90.14 L68.41,90.07 C68.68,90.89 69.04,91.72 69.41,91.92 C69.78,92.12 73.5,91.46 74.03,91.42 C73.32,90 71.55,89 70.81,87.25 Z" id="Shape" fill="url(#linearGradient-22)"></path>
                <path d="M100.85,91.15 C98.92,89.32 99.98,87.76 98.9,85.23 C98.9,85.23 101.38,82.76 98.24,83.57 L99.9,80.92 L92.28,76.12 L92.78,70.12 L92.17,61.92 L92,61.92 C91.88,61.86 89.66,59.92 89.53,59.83 C87.8007806,58.9376677 85.9664632,58.2657566 84.07,57.83 C82.07,57.38 80.07,56.83 79.47,54.47 C79.3985768,54.1903726 79.3451341,53.9064583 79.31,53.62 C78.8665946,53.6000321 78.4253353,53.5465461 77.99,53.46 L76.33,55.13 L76.33,59.61 L80.81,65.61 L86.81,69.1 L87.81,77.56 L92.29,82.04 L93.83,87.43 L93.6,87.67 C93.06,88.29 93.05,89.05 92.03,89.55 C93.12,90.69 92.61,92.7 93.89,93.55 C94.75,94.11 96.32,93.66 97.34,93.99 C98.12,94.23 98.7,94.88 99.51,95.08 C100,93.45 99.87,92.56 100.85,91.15 Z" id="Shape" fill="url(#linearGradient-23)"></path>
                <path d="M263.68,59 C263.73,56.62 266.43,56.51 267.48,55.12 C268.35,53.97 267.91,52.65 268.26,51.42 C268.74,49.75 269.6,47.95 270.13,46.31 C271.03,43.48 272.68,41.38 273.94,38.88 C275.67,35.43 273.07,30.93 273.23,27.18 C271.31,30.18 273.17,35.41 270.53,39.76 C270.28,39.62 269.74,39.59 269.47,39.37 C268.88,41.69 269.23,45.1 267.47,47.06 C267.32,46.8 266.73,46.42 266.54,46.01 C264.22,47.39 265.72,49.14 265.7,51.18 C265.7,53.9 263,56.32 263.08,59.01 L263.68,59 Z" id="Shape" fill="url(#linearGradient-24)"></path>
            </g>
            <path d="M203.93,72.27 L203.83,72.27 C203.861745,72.2845505 203.898255,72.2845505 203.93,72.27 Z" id="Shape" fill="#9E5D10" fill-rule="nonzero" opacity="0.4" style="mix-blend-mode: multiply;"></path>
            <path d="M237.54,58.52 L237.54,58.31 C237.372444,58.2180349 237.198691,58.1378412 237.02,58.07 C237.183273,58.2312455 237.356982,58.3815703 237.54,58.52 Z" id="Shape" fill="#9E5D10" fill-rule="nonzero" opacity="0.4" style="mix-blend-mode: multiply;"></path>
            <path d="M305.53,109.23 C314.69,108.41 323.74,107.44 332.78,108.41 C334.575394,108.737339 336.326991,109.270871 338,110 C339.62,111 341.23,112.26 342.85,113.23 C348.34,116.13 354.16,114.84 359.97,115.16 C363.091284,115.000009 366.218716,115.000009 369.34,115.16 C377.09,115.81 384.52,117.75 392.28,116.78 C402.28,115.78 411.99,114.52 421.67,114.29" id="Shape"></path>
        </g>
    </g>
</svg>