<?xml version="1.0" encoding="utf-8"?>
<!-- Generator: Adobe Illustrator 22.1.0, SVG Export Plug-In . SVG Version: 6.00 Build 0)  -->
<svg version="1.0" id="Layer_1" xmlns="http://www.w3.org/2000/svg" xmlns:xlink="http://www.w3.org/1999/xlink" x="0px" y="0px"
	 viewBox="0 0 266.8 236.5" style="enable-background:new 0 0 266.8 236.5;" xml:space="preserve">
<style type="text/css">
	.st0{fill:#C5CCD7;}
	.st1{fill:#D1DEEF;}
	.st2{fill:#F89B67;}
	.st3{fill:#F58B8B;}
	.st4{fill:#524263;}
	.st5{fill:#E9E6EB;}
	.st6{fill:#564467;}
	.st7{fill:#D9D0D8;}
	.st8{fill:#67587C;}
	.st9{fill:#FDCBA0;}
	.st10{fill:#DD7D82;}
	.st11{fill:#531C3C;}
	.st12{fill:#7E2F42;}
	.st13{fill:#61294B;}
	.st14{fill:#3B4361;}
	.st15{fill:#54809D;}
	.st16{fill:#3C4660;}
	.st17{fill:#547994;}
	.st18{fill:#404C6A;}
	.st19{fill:#F5F6F6;}
	.st20{fill:none;}
	.st21{fill:#F3F3F3;}
	.st22{fill:#D42328;}
	.st23{fill:#2A6A86;}
</style>
<g id="Layer_4">
	<g>
		<g>
			<g>
				<circle class="st0" cx="135.4" cy="84.2" r="79.9"/>
				<path class="st1" d="M135.4,168.3c-46.4,0-84.2-37.7-84.2-84.1S89,0,135.4,0s84.2,37.8,84.2,84.2S181.9,168.3,135.4,168.3z
					 M135.4,8.5c-41.8,0-75.7,33.9-75.7,75.7s33.9,75.7,75.7,75.7s75.7-33.9,75.7-75.7S177.1,8.5,135.4,8.5z"/>
			</g>
			<path class="st2" d="M143.9,142.5c-0.2-2.3-0.9-4.2-1.5-6.4c0.2,0.6,0.4,1.2,0.6,1.8c-1.9-6.2-2.6-12.1,2.8-17.6l5.8-5.9
				c1.1-1.1,2.2-2.4,3.4-3.9c10.5-13,5.2-20.6-5.3-24.4c-11.9-4.3-18.3,3.9-21.7,11.8c-1.2,2.7-2.1,5.8-2.3,8.7l-1.7,9.5
				c-0.6,3.1-1.9,6-3.9,8.4l-3.8,4.5c-2.7,2.8-4.9,6.8-6.7,11.6c-2.5,6.8-1.3,11.5,2.7,15.2c7.2,2.3,15,3.6,23,3.6c2,0,4-0.1,6-0.3
				c1.1-1.5,1.9-3.5,2.3-6.2C144,149.5,144.1,145.9,143.9,142.5z"/>
			<path class="st3" d="M156,80.9l2.4-7.8c0.8-2.6-0.6-5.3-3.2-6.1c-2.6-0.8-5.3,0.7-6.1,3.2l-3.5,11.3c1.7,0.2,3.5,0.3,5.4,0.2
				C152.8,81.6,154.4,81.4,156,80.9z"/>
			<path class="st4" d="M152.9,96.1h1.1c0.6,0,1.1-0.4,1.2-0.9c0.4-1.4,1.3-4,2.2-6c-0.1-0.1-0.3-0.1-0.4-0.2
				C154.4,91.5,153.4,93.9,152.9,96.1z"/>
			<path class="st5" d="M147.1,91.4c0.1,0.6,0.3,1.1,0.5,1.5c0.8,2.1,1.9,3.7,3.5,5.4c0.4,0.5,0.9,0.9,1.4,1.4c0-1.1,0-2.3,0.3-3.7
				c0.4-2.1,1.4-4.5,4.1-7.2c0,0-0.2-0.1-0.3-0.2c-0.5-0.3-1.1-0.4-1.7-0.3c-7.5,0.6-10.9,1.3-13.9,3l4.6-0.9
				C146.4,90.4,147,90.8,147.1,91.4z"/>
			<path class="st6" d="M140,113.5c3.7,1.4,8.2-1.6,10-6.5c-0.6,1.7-1.7,3-3.1,3.7c-1.4,0.8-2.9,0.9-4.3,0.4l-8.3-3
				c-1.7,1.3-2.9,2.3-2.9,2.3L140,113.5z"/>
			<path class="st4" d="M147.6,92.9c-1.3,1.1-2.6,2.4-3.9,3.9c-0.3,0.3-0.5,0.6-0.7,0.8c-4.3,5.1-7.5,8.3-9.4,10.3
				c-1.3,1.4-2.1,2.1-2.3,2.5c0,0,1.2-0.9,2.9-2.3c2.7-2.1,6.9-5.1,10.1-6.7c1.4-0.7,2.7-1.3,3.7-1.8c1.4-0.6,2.4-1.1,3.1-1.3
				C149.5,96.6,148.4,95,147.6,92.9z"/>
			<path class="st5" d="M138.3,87.5c-1.4,1.4-2.8,3.3-4.1,5.6c-0.2,0.4-0.4,0.8-0.6,1.1c-2.7,5.2-3,9.7-2.8,12.7
				c0.2,2.2,0.6,3.5,0.6,3.5c0.2-0.4,0.9-1.2,2.3-2.5c2-1.9,5.1-5.1,9.4-10.3c0.2-0.3,0.5-0.6,0.7-0.8c1.3-1.5,2.6-2.9,3.9-3.9
				c-0.2-0.5-0.3-1-0.5-1.5c-0.2-0.6-0.8-1-1.4-0.9l-4.6,0.9l-2.4-3.6C138.6,87.7,138.4,87.5,138.3,87.5z"/>
			<path class="st7" d="M147.1,91.4c-0.2-0.6-0.8-1-1.4-0.9l-4.6,0.9l-2.4-3.6c-0.1-0.1-0.2-0.3-0.3-0.3c-0.6,0.6-1.2,1.3-1.7,2
				c0.3-0.2,0.6-0.4,1-0.6l2.3,3.3l0,0c0.1,0.1,0.2,0.2,0.3,0.3c0,0,0,0,0.1,0.1s0.3,0.2,0.4,0.2l0,0l0,0l0,0c0.1,0,0.3,0.1,0.5,0.1
				h0.1c0.1,0,0.1,0,0.2,0l4.3-0.8c0.1,0.5,0.3,0.9,0.4,1.3c0.1,0.2,0.1,0.4,0.2,0.6c0.4-0.4,0.8-0.8,1.2-1.1
				C147.4,92.4,147.4,91.9,147.1,91.4z"/>
			<path class="st5" d="M133.9,88.5c-2,1.9-2.8,3.5-2.8,3.5c0.1-0.1,0.2-0.2,0.3-0.3c0.3-0.4,0.7-0.7,1-1c0.6-0.5,1.1-1,1.7-1.4
				c0.9-0.7,1.9-1.3,3-1.8c0.4-0.2,0.9-0.2,1.2,0c0.1,0.1,0.3,0.2,0.3,0.3l2.4,3.6c-0.1-2.6,1-5.2,2.3-6.8c0.1-0.2,0.2-0.4,0.1-0.6
				c-0.1-0.2-0.3-0.4-0.5-0.4l0,0C142.9,83.2,137.3,85.2,133.9,88.5z"/>
			<path class="st4" d="M134.5,87c-0.5,0.3-0.8,0.9-0.6,1.4c1.8-1.7,4.7-3.7,9.1-5l0,0C140.4,83.7,136.3,85.9,134.5,87z"/>
			<path class="st6" d="M131.4,110.4c0,0-0.6-1.4-1.2-3.7l-4-1.5l-1.8-0.6c-0.1,0-0.1,0-0.2-0.1c-1.5-0.8-2.1-3.5-1.3-6.5
				c-0.7,2.3-0.7,4.5-0.1,6.3c0.3,0.9,0.6,1.6,1.1,2.3c0.7,1,1.6,1.7,2.7,2.1L131.4,110.4z"/>
			<path class="st4" d="M133.6,94.2c0.2-0.4,0.4-0.8,0.6-1.1c1.3-2.3,2.8-4.2,4.1-5.6c-0.3-0.2-0.8-0.3-1.2,0c-1.1,0.6-2,1.2-3,1.8
				l0.5,1.4h-1.8c-0.1,0-0.3,0-0.4,0c-0.3,0.3-0.7,0.6-1,1c-0.2,0.4-0.4,0.9-0.6,1.5c-0.3,0.9-0.6,2-0.9,3.2
				c-0.8,4-0.3,7.7,0.3,10.3c0.6,2.3,1.2,3.7,1.2,3.7s-0.5-1.3-0.6-3.5C130.5,103.9,130.9,99.4,133.6,94.2z"/>
			<path class="st8" d="M134.6,90.7l-0.5-1.4c-0.6,0.4-1.2,0.9-1.7,1.4c0.1,0,0.3,0,0.4,0H134.6z"/>
			<path class="st8" d="M124.2,104.5c0,0,0.1,0,0.2,0.1l1.8,0.6l4,1.5c-0.6-2.6-1.1-6.3-0.3-10.3c0.3-1.2,0.6-2.3,0.9-3.2
				c0.2-0.6,0.5-1.1,0.6-1.5c-0.1,0.1-0.2,0.2-0.3,0.3c0,0,0.7-1.6,2.8-3.5c-0.1-0.6,0.1-1.2,0.6-1.4c1.8-1.1,5.8-3.3,8.5-3.5
				c-1.3-0.3-2.7-0.6-4.3-1l-1.7-0.4c-3.3-1-7.7,0.2-8.9,3.7c-0.5,1.3-0.3,2.8,0.1,4c0.5,1.3-0.1,2.8-1.4,3.4
				c-0.2,0.1-0.3,0.2-0.5,0.3c-1.4,0.8-2.5,2-3.1,3.7c-0.1,0.3-0.2,0.5-0.2,0.7C122,100.9,122.6,103.7,124.2,104.5z"/>
			<path class="st7" d="M133.6,107.9l-2.9-1.1l0,0c0.2,2.2,0.6,3.5,0.6,3.5C131.5,110,132.3,109.3,133.6,107.9L133.6,107.9z"/>
			<path class="st9" d="M100.2,17.1c-3.7,2-7.3,4.2-10.6,6.7c0.1,3.6,2.4,6.4,5.2,6.4c1.6,0,3-1,3.9-2.4c1-1.5,2.2-2.9,3.6-4
				c1.9-1.6,3.1-2.3,3.1-2.3c0.6-0.4,0.8-1.2,0.4-1.7c-0.4-0.6-1.2-0.8-1.7-0.4c-0.8,0.5-1.8,1.3-2.8,2c-0.2,0.2-0.6,0.2-0.8,0.1
				c-0.3-0.1-0.5-0.4-0.5-0.7c0-0.5,0-0.9-0.1-1.3c-0.1-0.7,0-1.4,0.2-2.1L100.2,17.1z"/>
			<path class="st5" d="M98.9,28.9c0-0.2-0.3-0.4-0.5-0.3C94,29.3,96,29,91.6,29.7c-0.2,0-0.4,0.3-0.3,0.5l0.3,1.9
				c5.1-0.8,2.6-0.4,7.7-1.2L98.9,28.9z"/>
			<path class="st8" d="M129.4,89.8c1,0.7,2.2,1,3.5,0.9c1.2-0.2,2.3-0.9,3-1.9s1-2.2,0.9-3.5c-0.2-1.2-0.9-2.3-1.8-3l-25-18.2
				c-3.5-2.6-5.8-6.3-6.4-10.5l-3.5-22.4c0-0.3-0.3-0.5-0.6-0.4c-0.1,0-0.2,0-0.3,0c-5.1,0.8-2.6,0.4-7.7,1.2c-0.1,0-0.2,0-0.3,0
				c-0.3,0-0.5,0.3-0.4,0.6L94.3,55c1.1,6.7,4.6,12.6,10.1,16.6L129.4,89.8z"/>
			<g>
				<path class="st2" d="M146.8,93.4c-0.2,0-0.4-0.1-0.6-0.2c-2.2-1-3.4-3.5-2.6-5.9l5.3-17c0.8-2.6,3.5-4,6.1-3.2s4,3.5,3.2,6.1
					l-5.3,17C152,92.8,149.4,94.2,146.8,93.4z"/>
			</g>
			<path class="st9" d="M173,63.3c3.1-8.3-1.8-17.7-11-21.1c-1.4-0.5-2.8-0.9-4.2-1c-4.3-0.6-8.8,0.4-12.3,2.7
				c-1.7,1.2-3.2,2.6-4.3,4.3c-1.5,2.1-2.2,4.6-3.1,7c-0.8,2.2-1.9,4.5-2.5,6.8c-1,4-0.3,8.6,2.4,12.2c3,4,8.5,4.8,13.2,4.5
				c4.6-0.3,9.3-1.8,12.9-4.2c4-2.6,7-6.5,8.7-10.8C172.9,63.6,173,63.4,173,63.3z"/>
			<path class="st3" d="M167.4,63.4c-1-0.7-2.3-0.4-2.9,0.8c-0.8,1.5,0.1,2-0.6,3.4c-0.5,0.9-0.9,1-1.4,1.8
				c-0.4,0.7-0.6,1.7,0.1,2.2c1.1,0.7,3.4-0.7,4.6-2.6C168.4,67.1,169.1,64.5,167.4,63.4z"/>
			<path class="st10" d="M150.9,70.8c0,0-1.5,0.8-4.2-0.3c-2.6-1-3.8-1.4-3.9-1.4c-0.6-0.2-1.4-0.4-1.5,0c-0.2,0.5-0.1,0.6,0.7,1
				c0.1,0,0.9,0.3,4.3,1.6c3.5,1.3,5.5,0,5.6,0c0.3-0.2,0.7-0.3,0.5-0.7C152,70.6,151.2,70.5,150.9,70.8z"/>
			<path class="st11" d="M153.5,64.7L153.5,64.7c0.5,0.3,1.1,0.3,1.4-0.2l0.8-1c0.3-0.5,0.3-1.1-0.2-1.4c-0.5-0.3-1.1-0.3-1.4,0.2
				l-0.8,1C153,63.7,153,64.3,153.5,64.7z"/>
			<path class="st11" d="M140.2,59.9L140.2,59.9c0.5,0.3,1.1,0.3,1.4-0.2l0.8-1c0.3-0.5,0.3-1.1-0.2-1.4s-1.1-0.3-1.4,0.2l-0.8,1
				C139.6,58.9,139.7,59.5,140.2,59.9z"/>
			<path class="st12" d="M146,56.3c-1.7-1.8-4-3.4-4.1-3.5c-0.3-0.1-0.6-0.1-0.7,0.2c-0.1,0.2-0.1,0.6,0.2,0.7c0,0,2.4,1.8,3.5,2.9
				c0.1,0.1,0.2,0.2,0.3,0.3c0.2,0.2,0.6,0.2,0.7,0C146.1,56.8,146.2,56.5,146,56.3z"/>
			<path class="st12" d="M158.4,60.8c-1.6-1.9-3.7-3.7-3.8-3.7c-0.2-0.2-0.6-0.1-0.7,0.1c-0.2,0.2-0.1,0.5,0.1,0.7
				c0,0,2.3,2,3.3,3.2c0.1,0.1,0.2,0.2,0.3,0.3c0.2,0.2,0.5,0.2,0.7,0C158.5,61.3,158.6,61,158.4,60.8z"/>
			<path class="st13" d="M160.9,81.5c16.1-32.2-16.7-31-10.9-38.7c-9.1,6.3,11.7,9.8,12.2,22.5c0.2,4.7-7.9,16.3-9.5,17.4
				C152.8,82.6,156.4,82.9,160.9,81.5z"/>
			<path class="st11" d="M164,40.2c-5.8-1.7-9.6-1.9-12-0.2c-8-1.7-16.7,3.8-19.2,14.6c-1.5,6.6-4.2,17.6,7.4,23.6
				c0.6-1.5-9.1-10.5-2-21.7c1.5-2.4,1.6-6.2,3.1-8.3c0.9-1.4,4-4.6,8.6-5.5c-5.7,7.8,26,6.1,10.9,38.7c3.6-1.2,8.1-5,11.2-9.2
				C181.5,59.9,174.5,43.2,164,40.2z"/>
			<path class="st11" d="M155.1,59.4c-4-1-5.7-0.3-6.5-0.6s-1.6-1.9-5.5-3.6c-3.8-1.7-6.1-0.8-6.1-0.8l-0.6,1.7c0,0,0.3,0.4,0.4,1.1
				c-0.1,0.3-0.1,0.7-0.2,1.1c-0.2,1.2,0.4,2.3,1.3,2.7l3.8,1.5h0.1c1.3,0.4,2.7-0.2,3.7-1.4c0.3-0.2,0.5-0.5,0.7-0.7
				c0.5-0.6,1.2-0.4,1.6-0.3c0.1,0,0.3,0.1,0.4,0.1c0.4,0.1,1.1,0.4,1.1,1.2c0,0.3,0,0.7,0.1,1c0,1.6,0.7,3,2,3.5l4,1.2
				c1,0.3,2.1-0.2,2.7-1.3c0.2-0.3,0.4-0.7,0.6-1c0.6-0.4,1-0.6,1-0.6l0.6-1.7C160.4,62.6,159.2,60.5,155.1,59.4z M142.2,62.1
				l-3.9-1.5c-0.7-0.3-1.1-1.2-1-2.2c0.1-1.2,0.4-2.1,0.6-2.6c0.3-0.6,1.4-1.3,4.1-0.4c0.1,0,0.3,0.1,0.4,0.1
				c2.1,0.8,3.2,1.6,3.6,2.4c0.2,0.6,0.2,1.2-0.2,2C145,61.6,143.5,62.5,142.2,62.1z M157.9,65.6c-0.6,0.9-1.4,1.3-2.1,1.1l-3.9-1.2
				h-0.1c-1.3-0.5-2-2.1-1.5-3.9c0.2-0.9,0.6-1.4,1.1-1.7c0.8-0.5,2.2-0.3,4.3,0.3c0.1,0,0.3,0.1,0.4,0.1c2.7,0.9,3.1,2.2,3,2.9
				C158.9,63.6,158.4,64.6,157.9,65.6z"/>
			<path class="st11" d="M160.4,62.6c-0.2,0.6-0.3,0.9-0.4,1.1c0,0.1,0,0.2,0,0.2c0,0.1-0.1,0.2-0.2,0.4l0.6,0.2
				c0.8,0.3,2.1-0.6,3.1-0.3l1.4,0.5c0-0.2,0-0.4,0-0.6L160.4,62.6z"/>
			<path class="st14" d="M119,138.3c0.2-0.4,0.3-0.7,0.4-1C119.3,137.6,119.1,137.9,119,138.3z"/>
			<path class="st14" d="M152.9,96.1h1.1c0.6,0,1.1-0.4,1.2-0.9c0.4-1.4,1.3-4,2.2-6c-0.1-0.1-0.3-0.1-0.4-0.2
				C154.4,91.5,153.4,93.9,152.9,96.1z"/>
			<path class="st15" d="M145.8,90.5c0.6-0.1,1.2,0.3,1.4,0.9c0.1,0.6,0.3,1.1,0.5,1.5c0.8,2.1,1.9,3.7,3.5,5.4
				c0.4,0.5,0.9,0.9,1.4,1.4c0-1.1,0-2.3,0.3-3.7c0.4-2.1,1.4-4.5,4.1-7.2c0,0-0.2-0.1-0.3-0.2c-0.5-0.3-1.1-0.4-1.7-0.3
				c-0.2,0-0.4,0-0.6,0c-6.8,0.6-10.1,1.3-13,2.7c-0.1,0-0.2,0.1-0.3,0.2L145.8,90.5z"/>
			<path class="st16" d="M140,113.5c3.7,1.4,8.2-1.6,10-6.5c-0.6,1.7-1.7,3-3.1,3.7c-1.4,0.8-2.9,0.9-4.3,0.4l-8.3-3
				c-1.7,1.3-2.9,2.3-2.9,2.3L140,113.5z"/>
			<path class="st14" d="M147.6,92.9c-0.3,0.2-0.5,0.4-0.7,0.6s-0.3,0.3-0.5,0.5l0,0c-0.9,0.8-1.7,1.7-2.6,2.8
				c-0.3,0.3-0.5,0.6-0.7,0.8c-4.3,5.1-7.5,8.3-9.4,10.3l0,0l0,0c-1.3,1.4-2.1,2.1-2.3,2.5c0,0,1.2-0.9,2.9-2.3
				c2.7-2.1,6.9-5.1,10.1-6.7c1.4-0.7,2.7-1.3,3.7-1.8c1.4-0.6,2.4-1.1,3.1-1.3C149.5,96.6,148.4,95,147.6,92.9z"/>
			<path class="st15" d="M130.7,106.9L130.7,106.9l2.9,1.1c2-2,5.1-5.1,9.4-10.3c0.2-0.3,0.5-0.6,0.7-0.8c0.9-1.1,1.7-2,2.6-2.8
				c-0.1-0.2-0.2-0.4-0.2-0.6c-0.1-0.4-0.3-0.8-0.4-1.3l-4.3,0.8c-0.1,0-0.1,0-0.2,0h-0.1c-0.2,0-0.3,0-0.5-0.1l0,0l0,0
				c-0.1,0-0.3-0.1-0.4-0.2c0,0,0,0-0.1-0.1s-0.2-0.2-0.3-0.3l0,0l-0.1-0.2c-1.6,0.7-3.5,1.3-5.8,1.6c-0.1,0.2-0.2,0.4-0.3,0.6
				C130.9,99.4,130.5,103.9,130.7,106.9z"/>
			<path class="st15" d="M147.6,92.9c-0.3,0.2-0.5,0.4-0.7,0.6C147.1,93.3,147.4,93.1,147.6,92.9z"/>
			<path class="st17" d="M139.9,92.3c0.1,0.1,0.2,0.2,0.3,0.3c0,0,0,0,0.1,0.1s0.3,0.2,0.4,0.2l0,0l0,0c0.1,0,0.3,0.1,0.5,0.1h0.1
				c0.1,0,0.1,0,0.2,0l4.3-0.8c0.1,0.5,0.3,0.9,0.4,1.3c0.1,0.2,0.1,0.4,0.2,0.6l0,0c0.2-0.2,0.3-0.3,0.5-0.5
				c0.3-0.2,0.5-0.4,0.7-0.6c-0.2-0.5-0.3-1-0.5-1.5c-0.2-0.6-0.8-1-1.4-0.9l-4.6,0.9c-0.5,0.3-0.9,0.5-1.4,0.7L139.9,92.3
				C139.8,92.3,139.8,92.3,139.9,92.3z"/>
			<path class="st16" d="M126.5,108.6l4.9,1.7c0,0-0.6-1.4-1.2-3.7l-4-1.5l-1.8-0.6c-0.1,0-0.1,0-0.2-0.1c-1.5-0.8-2.1-3.5-1.3-6.5
				c-0.7,2.3-0.7,4.5-0.1,6.3c0.3,0.9,0.6,1.6,1.1,2.3C124.5,107.5,125.4,108.2,126.5,108.6z"/>
			<path class="st14" d="M130.2,106.7c0.6,2.3,1.2,3.7,1.2,3.7s-0.5-1.3-0.6-3.5c-0.2-2.9,0.1-7.5,2.8-12.7c0.1-0.2,0.2-0.4,0.3-0.6
				c-1,0.1-2.1,0.2-3.3,0.2c-0.3,0.7-0.5,1.6-0.7,2.6C129.1,100.4,129.6,104.1,130.2,106.7z"/>
			<path class="st18" d="M124.2,104.5c0,0,0.1,0,0.2,0.1l1.8,0.6l4,1.5c-0.6-2.6-1.1-6.3-0.3-10.3c0.2-1,0.4-1.8,0.7-2.6
				c0,0-0.1,0-0.2,0c-1.6,0-3-0.1-4.2-0.3c-1.3,0.8-2.5,2-3.1,3.7c-0.1,0.3-0.2,0.5-0.2,0.7C122,100.9,122.6,103.7,124.2,104.5z"/>
			<path class="st17" d="M133.6,107.9L133.6,107.9l-2.9-1.1l0,0c0.2,2.2,0.6,3.5,0.6,3.5C131.5,110,132.3,109.3,133.6,107.9
				L133.6,107.9z"/>
			<g>
				<path class="st19" d="M195,105.1c0,0.3-0.1,0.5-0.2,0.7C194.9,105.6,194.9,105.4,195,105.1z"/>
				<path class="st20" d="M113.1,78l-0.3-0.2c-0.2,0.2-0.5,0.4-0.7,0.6C112.5,78.2,112.8,78.1,113.1,78z"/>
				<path class="st20" d="M122.6,73.1c-0.1,0-0.2,0-0.3,0.1l2.7,2c3.2-0.4,6.7-0.5,10.4-0.4c-0.3-0.3-0.5-0.6-0.8-0.9
					C131.6,72.5,128,71.9,122.6,73.1z"/>
				<path class="st20" d="M186.2,94.9c-0.6-3.2-2.2-6.3-6.7-9.4c-4.8-3.3-9.2-4.1-13.5-4.2C174.9,84.9,181.9,89.7,186.2,94.9z"/>
				<path class="st21" d="M122.6,73.1c5.4-1.2,8.9-0.6,12,0.8c-0.9-1.1-1.5-2.2-2-3.4c-2.8-0.7-6.2-0.9-10.5,0.1
					c-0.8,0.2-1.6,0.4-2.3,0.6l2.6,1.9C122.5,73.1,122.5,73.1,122.6,73.1z"/>
				<path class="st21" d="M112.2,78.3c0.2-0.2,0.4-0.4,0.7-0.6l-2.1-1.5c-2.6,2.3-4.4,4.7-5.8,6.7c0,0.1-0.1,0.1-0.2,0.2
					C106.7,81.2,109.2,79.6,112.2,78.3z"/>
				<path class="st21" d="M138.5,74.8C138.5,74.8,138.5,74.9,138.5,74.8L138.5,74.8C138.5,74.9,138.5,74.9,138.5,74.8z"/>
				<path class="st21" d="M166.1,81.3c4.3,0.1,8.7,0.9,13.5,4.2c4.5,3.1,6,6.2,6.7,9.4c1.2,1.4,2.2,2.9,2.9,4.3
					c-0.2-5-0.7-10.6-8.2-15.8c-5.5-3.7-10.5-4.6-15.3-4.6c-0.8,0.6-1.5,1.1-2.3,1.5C164.4,80.6,165.2,80.9,166.1,81.3z"/>
				<path class="st21" d="M187.5,116.4l0.3,0.3c0.8,0.8,1.4,1.6,2,2.5c0.5-2.8,0.1-5.5-0.3-7.4c-0.6,1-1.3,2-2.1,2.9
					C187.5,115.2,187.5,115.8,187.5,116.4z"/>
				<path class="st19" d="M166.1,81.3c-0.9-0.3-1.7-0.7-2.6-1c-0.9,0.5-1.8,0.9-2.6,1.2c-0.9,0.3-1.7,0.5-2.4,0.6
					c0,0.6-0.1,1.2-0.3,1.8c-0.3,1.7-0.9,3.5-1.4,4.9c0,0,0,0,0.1,0c0.2,0.1,0.3,0.1,0.3,0.2c0.1,0.1,0.3,0.1,0.4,0.2
					c1,0.5,2.2,1.1,3.4,1.7l0,0c0.1,0,0.3,0.1,0.4,0.2c0,0,0.1,0,0.1,0.1c0.1,0.1,0.3,0.1,0.4,0.2c0,0,0,0,0.1,0
					c1,0.6,1.8,1.4,2.5,2.3c0.1,0.1,0.3,0.2,0.4,0.3l2.2,2.1c1.2,0.9,2.2,1.7,2.9,2.6l0,0c4.2-7,18.1-3.7,20.5,3.2
					c-0.3-0.9-0.7-1.9-1.2-2.8c-0.8-1.4-1.7-2.9-2.9-4.3C181.9,89.7,174.9,84.9,166.1,81.3z"/>
				<path class="st19" d="M125,75.1l9.2,6.7c0.9,0,1.8,0.1,2.7,0.3l1.7,0.4c0.7,0.2,1.4,0.3,2,0.4c0.1-0.8,0.2-1.6,0.3-2.5
					c0.2-1.1,0.6-2.3,1-3.2c-1.3-0.6-2.4-1.4-3.4-2.5l0,0c1,1.7,1.8,2.9,1.6,3.4c-2-1.1-3.6-2.3-4.8-3.5
					C131.7,74.6,128.3,74.7,125,75.1z"/>
				<path class="st19" d="M191,105.4c0,0.2,0,0.4,0,0.6C191,105.8,191,105.6,191,105.4z"/>
				<path class="st19" d="M190.9,103.7c0,0.3,0.1,0.5,0.1,0.8C190.9,104.2,190.9,103.9,190.9,103.7z"/>
				<path class="st19" d="M190.9,104.5c0,0.3,0,0.5,0.1,0.7C191,105,191,104.7,190.9,104.5z"/>
				<path class="st19" d="M173.4,102.5l13.4,13.1c0.3-0.3,0.6-0.5,0.8-0.8c0.9-0.9,1.6-1.9,2.1-2.9c0-0.1,0.1-0.2,0.1-0.3
					C189.8,105.2,180.6,100.8,173.4,102.5z"/>
				<path class="st19" d="M124.2,89.2L124.2,89.2c0.8-0.4,1.8-0.8,2.9-1l-14-10.2c-0.3,0.1-0.6,0.3-0.9,0.4c-3,1.3-5.5,2.9-7.4,4.8
					c-0.4,0.4-0.8,0.8-1.1,1.3c0.2-0.2,0.3-0.4,0.5-0.6C109.2,78.6,123.2,81.1,124.2,89.2z"/>
				<path class="st22" d="M158.4,82.1c-1.1,0.2-2,0.3-2.8,0.4l-1.1,3.7l0,0l-0.6,1.9l0,0c0.2,0.1,0.4,0.3,0.6,0.3s0.4,0,0.6,0h0.1
					c0.5,0,1,0.1,1.5,0.3c0.5-1.3,1.1-3.1,1.4-4.9C158.2,83.3,158.4,82.6,158.4,82.1z"/>
				<path class="st22" d="M141,80.5c-0.2,0.9-0.3,1.7-0.3,2.5c0.8,0.2,1.6,0.3,2.3,0.5h0.1c0.2,0,0.4,0.2,0.5,0.4s0,0.5-0.1,0.6
					s-0.2,0.3-0.3,0.4c0.4,0,0.8,0,1.2,0l1.1-3.5l0,0l0.9-2.9c-1.5-0.2-3-0.6-4.3-1.2C141.6,78.3,141.2,79.4,141,80.5z"/>
				<path class="st22" d="M102,87.2L102,87.2c-0.1,0.3-0.2,0.6-0.3,0.8c0,0,0,0.1,0,0.2c-0.1,0.2-0.1,0.4-0.2,0.6c0,0.1,0,0.1,0,0.2
					c-0.1,0.3-0.1,0.5-0.2,0.7c0,0.3-0.1,0.5-0.1,0.7c0,0,0,0.1,0,0.2c0,0.2,0,0.4-0.1,0.6c0,0,0,0,0,0.1c0,0.5,0,1.1,0,1.6
					c2.9-6.6,15.7-6.2,21,0.5l0,0c0-0.1,0-0.2-0.1-0.3c0,0,0,0,0-0.1s0-0.2,0-0.3c0,0,0-0.1,0-0.2s0-0.1,0-0.2s0-0.3,0-0.4
					s0.1-0.3,0.1-0.4c0,0,0-0.1,0.1-0.2c0-0.1,0-0.1,0.1-0.2c0-0.1,0.1-0.2,0.1-0.2s0-0.1,0.1-0.1c0.1-0.1,0.1-0.2,0.2-0.3
					c0,0,0,0,0-0.1c0.1-0.1,0.2-0.2,0.3-0.3l0,0c0.1-0.1,0.2-0.2,0.3-0.3l0,0c0.1-0.1,0.3-0.2,0.4-0.3l0,0c0.1-0.1,0.3-0.2,0.5-0.3
					l0,0l0,0c-1-8.1-15-10.6-20-5.4c-0.2,0.2-0.3,0.4-0.5,0.6c0,0,0,0-0.1,0.1c-0.1,0.2-0.3,0.4-0.4,0.6c0,0,0,0.1-0.1,0.1
					c-0.3,0.4-0.6,0.9-0.8,1.3c0,0,0,0.1-0.1,0.2C102.1,86.8,102.1,87,102,87.2z"/>
				<path class="st22" d="M169.9,98.8L169.9,98.8L169.9,98.8c0.1,0.2,0.2,0.3,0.3,0.4l0,0c0.1,0.1,0.1,0.2,0.2,0.3l2.9,2.9
					c7.3-1.6,16.4,2.8,16.4,9.1l0,0l0,0c0.3-0.5,0.5-0.9,0.6-1.4c0,0,0,0,0-0.1c0.1-0.2,0.1-0.4,0.2-0.6c0,0,0-0.1,0-0.2
					c0.1-0.3,0.1-0.5,0.2-0.7c0-0.3,0.1-0.5,0.1-0.7c0-0.1,0-0.1,0-0.2c0-0.2,0-0.4,0-0.6c0,0,0-0.1,0-0.2c0-0.3,0-0.5,0-0.7V106
					c0-0.2,0-0.4,0-0.6c0,0,0-0.1,0-0.2c0-0.3,0-0.5-0.1-0.7l0,0c0-0.3-0.1-0.5-0.1-0.8v-0.1c0-0.2-0.1-0.4-0.2-0.7v-0.1
					c-0.1-0.3-0.1-0.5-0.2-0.8l0,0l0,0C187.9,95.2,174.1,91.8,169.9,98.8z"/>
			</g>
			<path class="st15" d="M111.7,123L111.7,123L111.7,123L111.7,123z"/>
			<path class="st19" d="M163.8,106.2c-4.9,0.7-11.6,0.4-18.9-1.2c-12.1-2.6-21.6-7.6-22.8-11.8c-5.3-6.6-18.1-7.1-21-0.5
				c0.7,11.6,17.6,24,40.3,28.8c14.9,3.2,27.6,2.8,36.9-1.2C173.4,115.7,168.8,111,163.8,106.2z"/>
			<g>
				<path class="st22" d="M150.1,123c0,0,2.6-6,3.4-11.1c0.4-2.5,0.1-5.5,0.1-5.5c-2.8-0.3-5.8-0.7-8.9-1.3c-3.1-0.6-6-1.4-8.6-2.4
					c0,0-1.4,2.1-2.4,5.5c-1.2,4-1.1,11.1-1.1,11.1c2.8,0.9,5.7,1.7,8.6,2.3C144.2,122.2,147.2,122.6,150.1,123z"/>
			</g>
			<path class="st21" d="M132,118.7c-3.5,0.3-7.3,0.5-11.1,0.1c-0.1,0.9-0.3,1.7-0.6,2.5c4.1,0.5,8.1,0.2,11.9,0
				c3.6-0.3,6.9-0.2,9.7,0.4l0.6-2.5C139.2,118.5,135.9,118.4,132,118.7z"/>
			<path class="st21" d="M182.8,126.3c-2,1.4-4.7,2.3-8,2.9c-9.2,1.5-14.6-1.6-20.3-4.9c-3.7-2.1-7.5-4.3-12.3-5l-0.4,2.5
				c4.3,0.6,7.8,2.6,11.4,4.7c5.8,3.4,11.9,6.9,22,5.2c3-0.5,4.6-0.9,6.7-2C182.4,128.7,182.9,128,182.8,126.3z"/>
			<path class="st21" d="M111.8,116.1c-7.5-4-12.4-9.8-13.2-15.3c-0.4-2.9,0.4-5.8,2.3-8.7c0-0.3,0-0.6,0-0.9c0,0,0,0,0-0.1
				c0-0.2,0-0.4,0.1-0.6c0,0,0-0.1,0-0.2c0-0.3,0.1-0.5,0.1-0.7c0-0.3,0.1-0.5,0.2-0.7c0-0.1,0-0.1,0-0.2c0-0.2,0.1-0.4,0.2-0.6
				c0,0,0-0.1,0-0.2c0.1-0.2,0.2-0.5,0.3-0.7v-0.1c0.1-0.2,0.1-0.3,0.2-0.5c-4.7,4.5-6.7,9.4-6,14.4c0.9,6.3,6.3,12.8,14.5,17.2
				c0.4,0.2,0.8,0.4,1.2,0.6c2.9,1.4,5.8,2,8.6,2.3c0.4-0.8,0.8-1.6,1.2-2.5C118.2,118.6,114.9,117.8,111.8,116.1z"/>
			<path class="st14" d="M119.1,144.6c-0.8-2-0.9-4.3-0.1-6.3c-1.6,3-6.4,7.1-9.1,6.1l-2.1-0.8c-0.2,0.9-0.3,1.9-0.3,2.7
				c-0.1,1.7-0.5,3.2-1.4,4.6c-0.4,0.7-0.8,1.3-1.1,2c9.3,4.1,19.5,6.3,30.2,6.3c2.3,0,4.6-0.1,6.9-0.3c0.5-0.7,0.9-1.5,1.2-2.4
				c-1.8-0.6-18.5-6.7-18.9-6.9C121.9,148.8,120,147,119.1,144.6z"/>
			<path class="st18" d="M164.8,94c-0.1-0.1-0.3-0.3-0.5-0.4c-0.9-1.3-2.1-2.3-3.5-2.8c-1.2-0.6-2.4-1.2-3.4-1.7
				c-0.9,2-1.8,4.6-2.2,6c-0.2,0.6-0.7,0.9-1.2,0.9h-1.1c-0.3,1.4-0.3,2.6-0.3,3.7c-0.5-0.5-1-1-1.4-1.4c-0.7,0.3-1.7,0.7-3.1,1.3
				c-1,0.5-2.3,1.1-3.7,1.8c-3.2,1.6-7.3,4.6-10.1,6.7l8.3,3c1.4,0.5,3,0.3,4.3-0.4c1.4-0.8,2.5-2,3.1-3.7c-1.8,4.9-6.3,7.8-10,6.5
				l-8.6-3.2l-4.9-1.7c-1.1-0.4-2-1.2-2.7-2.1c0,0.1,0,0.3,0,0.4l-1.7,9.3c-1.1,5.9-4.6,8.5-7.2,12c-2.8,2.8-5.1,6.9-7,12
				c-0.3,0.9-0.6,1.8-0.8,2.6c-0.1,0.3,0.1,0.6,0.4,0.7l0.3,0.1l2.1,0.7c2.7,1,7.5-3.1,9.1-6.1c0.1-0.3,0.3-0.7,0.4-1
				c-0.1,0.3-0.3,0.7-0.4,1c-0.7,2-0.7,4.3,0.1,6.3c0.9,2.4,2.9,4.3,5.3,5.1c0.3,0.1,17.1,6.2,18.9,6.9c0.1,0,0.2,0,0.1,0
				c0.2,0,0.3,0,0.5,0c0.2-0.1,0.3-0.2,0.3-0.4c0.3-0.9,0.5-1.8,0.7-2.9c0.9-4.8,0.9-10.5-0.7-15.5v-0.1c-2-6.3-2.3-11.1,2.3-15.8
				c0.6-0.6,5.1-5.1,5.7-5.9l0,0c2.2-2.2,4.9-5.4,6.6-8.3c0.8-1.3,1.7-2.6,2.8-3.7l19.8,19.3c1.5,1.4,1.8,3.7,0.8,5.6l-11.8,21
				c-0.1,0.2-0.1,0.5,0.1,0.6c6.3-3.4,12.1-7.6,17.2-12.6l2.6-4.6c3.1-5.5,2.1-12.4-2.4-16.8L164.8,94z"/>
		</g>
		<g>
			<path class="st23" d="M32.2,206.7c-0.1,1.4-0.5,2.7-1.2,3.8s-1.7,1.9-3,2.5s-2.7,0.9-4.4,0.9c-2.7,0-4.8-0.9-6.4-2.6
				c-1.4-1.7-2.2-4.2-2.2-7.4v-1c0-2,0.4-3.8,1-5.3c0.6-1.5,1.7-2.7,3-3.5s2.8-1.2,4.6-1.2c2.5,0,4.5,0.7,6,2s2.4,3.1,2.6,5.4h-4.9
				c0-1.2-0.4-2.1-0.9-2.7s-1.5-0.8-2.7-0.8s-2.1,0.5-2.7,1.4s-0.9,2.4-0.9,4.4v1.4c0,2.2,0.3,3.8,0.8,4.7s1.5,1.4,2.8,1.4
				c1.1,0,2-0.3,2.6-0.8s0.9-1.4,1-2.6L32.2,206.7L32.2,206.7z"/>
			<path class="st23" d="M42.1,206.4h-2.7v7.3h-4.9v-20.5h8.1c2.4,0,4.3,0.5,5.7,1.6s2.1,2.6,2.1,4.6c0,1.4-0.3,2.6-0.9,3.5
				s-1.5,1.7-2.7,2.3l4.3,8.3v0.2h-5.3L42.1,206.4z M39.5,202.6h3.1c0.9,0,1.6-0.2,2.1-0.7s0.7-1.2,0.7-2.1s-0.2-1.6-0.7-2.1
				s-1.2-0.8-2.1-0.8h-3.1V202.6z"/>
			<path class="st23" d="M66.1,205h-7.8v4.9h9.2v3.8H53.3v-20.5h14.2v3.8h-9.2v4.3h7.8V205z"/>
			<path class="st23" d="M69.5,213.7v-20.5h6.6c1.8,0,3.4,0.4,4.9,1.2c1.4,0.8,2.6,2,3.4,3.5s1.2,3.2,1.2,5v0.9
				c0,1.9-0.4,3.6-1.2,5.1s-1.9,2.7-3.4,3.5s-3.1,1.3-4.8,1.3H69.5z M74.4,197v12.9h1.7c1.4,0,2.5-0.5,3.3-1.5s1.1-2.5,1.1-4.5V203
				c0-2-0.4-3.5-1.1-4.5c-0.8-1-1.9-1.5-3.3-1.5H74.4z"/>
			<path class="st23" d="M93.4,213.7h-4.9v-20.5h4.9V213.7z"/>
			<path class="st23" d="M112.6,197h-6.2v16.7h-4.9V197h-6v-3.8h17.1V197z"/>
			<path class="st23" d="M132.6,209.9h-6.8l-1.2,3.8h-5.3l7.5-20.5h4.7l7.6,20.5h-5.3L132.6,209.9z M127,206h4.4l-2.2-7.1L127,206z"
				/>
			<path class="st23" d="M157.8,213.7h-4.9l-7.3-12.8v12.8h-4.9v-20.5h4.9l7.3,12.8v-12.8h4.9V213.7z"/>
			<path class="st23" d="M160.9,213.7v-20.5h6.6c1.8,0,3.4,0.4,4.9,1.2c1.4,0.8,2.6,2,3.4,3.5c0.8,1.5,1.2,3.2,1.2,5v0.9
				c0,1.9-0.4,3.6-1.2,5.1s-1.9,2.7-3.4,3.5s-3.1,1.3-4.8,1.3H160.9z M165.8,197v12.9h1.7c1.4,0,2.5-0.5,3.3-1.5s1.1-2.5,1.1-4.5
				V203c0-2-0.4-3.5-1.1-4.5s-1.8-1.5-3.3-1.5H165.8z"/>
			<path class="st23" d="M186.7,213.7v-20.5h6.6c1.8,0,3.4,0.4,4.9,1.2c1.4,0.8,2.6,2,3.4,3.5s1.2,3.2,1.2,5v0.9
				c0,1.9-0.4,3.6-1.2,5.1s-1.9,2.7-3.4,3.5s-3.1,1.3-4.8,1.3H186.7z M191.7,197v12.9h1.7c1.4,0,2.5-0.5,3.3-1.5s1.1-2.5,1.1-4.5
				V203c0-2-0.4-3.5-1.1-4.5s-1.9-1.5-3.3-1.5H191.7z"/>
			<path class="st23" d="M218.1,205h-7.8v4.9h9.2v3.8h-14.1v-20.5h14.2v3.8h-9.2v4.3h7.8L218.1,205L218.1,205z"/>
			<path class="st23" d="M221.6,213.7v-20.5h7.4c2.6,0,4.6,0.5,6,1.5s2.1,2.4,2.1,4.2c0,1.1-0.2,2-0.7,2.7c-0.5,0.8-1.2,1.3-2.2,1.7
				c1.1,0.3,1.9,0.8,2.5,1.6s0.9,1.7,0.9,2.8c0,2-0.6,3.5-1.9,4.5s-3.2,1.5-5.7,1.5C230,213.7,221.6,213.7,221.6,213.7z
				 M226.5,201.7h2.6c1.1,0,1.9-0.2,2.3-0.6c0.5-0.4,0.7-1,0.7-1.7c0-0.9-0.2-1.5-0.7-1.9s-1.3-0.6-2.4-0.6h-2.4v4.8H226.5
				L226.5,201.7z M226.5,205v4.9h3.2c0.9,0,1.6-0.2,2.1-0.6s0.7-1,0.7-1.7c0-1.7-0.8-2.6-2.5-2.6C230,205,226.5,205,226.5,205z"/>
			<path class="st23" d="M255.9,197h-6.2v16.7h-4.9V197h-6v-3.8h17.1L255.9,197L255.9,197z"/>
		</g>
	</g>
</g>
</svg>
