<svg preserveAspectRatio="none slice" xmlns="http://www.w3.org/2000/svg" viewBox="0 0 816.34 662"><defs><style>.cls-1{fill:#036f73;}.cls-2{fill:#0a8c8c;}.cls-3{fill:#8ab146;}.cls-4{fill:#ededed;}.cls-5{fill:none;}</style></defs><title>earth money 1</title><g id="Layer_2" data-name="Layer 2"><g id="_1" data-name="1"><circle class="cls-1" cx="364.18" cy="331.15" r="259.92" transform="translate(-127.49 354.51) rotate(-45)"/><path class="cls-2" d="M239.66,511s-10.59-39.24,30.59-53S291,511,327.7,510.54s75.18-6.94,76.51,20.4-17.49,45,17.8,36.75,28.24,8.77,28.24,8.77-61.54,25.2-128.42,11.16S239.66,511,239.66,511Z"/><path class="cls-3" d="M442.28,249.5s11.5-3.83,15.33,18.62-20.26,31.21-43.26,22.45-22.45-14.78-32.86-14.78-3.28,15.88-38.88,11.5-67.35,37.78-49.83,71.19,50.2,12,80.14,29.57-5.12,29.57,25,83.23,59.14,39.43,65.17,15.33S479,431.85,502,384.21s-6-47.09-6-47.09,12.05-.55,22.45-20.81c.29-.56.59-1.11.9-1.63,8.1-14,27.35-16.43,39.3-5.55,13.61,12.41,38.25,35,41.4,38.94,4.38,5.48,22.45-17.52,22.45-17.52s8-34.62-16.5-95c-16.79-41.31-37.5-66.67-48.49-78.24a10,10,0,0,0-11-2.46c-3,1.2-8.3,2.15-17.68,2.15-25.74,0-40,8.21-49.83,16.43S391.9,152,378.76,175s-16.43,22.45-41.07,60.24,1.09,46.54,25.73,21.35,19.72.55,37.79,5.48S442.28,249.5,442.28,249.5Z"/><path class="cls-3" d="M186.43,520.79s11.18-5.31,13.15-15.8,16.39-24.26,31.48-38,10.49-29.51,10.49-29.51,16.39-6.56,11.8-24.26-40.65-43.9-55.08-43.26-12.46-5.27-23-9.2-24.26.66-28.85,5.25-7.87,11.8-7.87,11.8l-13.77-7.85s1.31-11.17,0-16.41S117,341.71,117,341.71v-9.18l-6.56,7.22V366s22.95,15.73,22.95,29.5-3.27,19,6.56,28.85,21.64,26.89,20.33,39.35-2.39,25.56-2.39,25.56S176.71,513.82,186.43,520.79Z"/><path class="cls-3" d="M105.45,306.14s10.62-2.38,15.21.24,6.55,11.8,15.08,13.11-9.18-22.29,20.33-29.5,45.9-24.92,53.76-33.45-8.52-17-14.86-19.23-14.42-.87-17.7,0-4.81,7.21-13.55,10.71-15.52-3.28-19.46-6.78-5.68-5.13-5.68-5.13,11.58-14.1,14.64-16.29,14.21,1.53,24.92-3.49,10.71-10.93,10.71-10.93l-7.21-6.12s-4.81,5.46-12.24,4.37a81.28,81.28,0,0,0-13.33-.87l-14.65-5.62S106,253.89,105.45,306.14Z"/><path class="cls-3" d="M227.12,195.18s5-9.84,12.46-10.49,16.83-1.53,23.61-10.06S310.62,172,310.62,172s7.86,6.32,9.18,10.59-18.58,20.66-27.11,28.1-27.76,4.15-27.76,4.15S255.1,225.34,252,228s-6.12-4.37-9-8.3,0-10.71-5.9-16S226.9,198.24,227.12,195.18Z"/><path class="cls-2" d="M297.54,101S287,123.55,336.82,138.4s48.25-11.14,77-7.43,60.34,9.88,53.06-9,9.67-25.27,9.67-25.27-32.2-16.91-68.5-21.8-54.57-3.47-54.57-3.47-30.91,8.18-1.22,19.62,6.19,22.27-17,11.75S298.37,97.45,297.54,101Z"/><path class="cls-2" d="M242.94,117.83s3-9.28,16.94-12.53,12.29,11.83-2.79,17.17S242.94,117.83,242.94,117.83Z"/><path class="cls-2" d="M621.57,367.54a55.71,55.71,0,0,0-34.21,20.78c-13.92,18.25-8.35,30.93,2.79,27.53s12.68,3.4-9.59,24.74-1.45,36.77-1.45,36.77S615,431.5,621.57,367.54Z"/><path class="cls-4" d="M.71,385.21a9.73,9.73,0,0,1,3.1-11.38c6-5.1,11.83-1.39,17.63,0s.47-15.31,13.92-30.16,27.38-.23,34.11,8.12-1.16-36.42,39.9-31.78,38.74,42.46,41.29,45.47,3.94-3.25,11.37-.69,3.71,8.58,5.8,11.36,8.35-1.85,10.9,1.39a24.23,24.23,0,0,1,3.71,7.67Z"/><rect class="cls-5" x="0.34" width="816" height="662"/></g></g></svg>