<svg preserveAspectRatio="none slice" xmlns="http://www.w3.org/2000/svg" viewBox="0 0 816 662"><defs><style>.cls-1{fill:#ededed;}.cls-2{fill:none;}</style></defs><title>earth money 3</title><g id="Layer_2" data-name="Layer 2"><g id="_3" data-name="3"><path class="cls-1" d="M816,404.78H613.91a214.13,214.13,0,0,0,7.3-37c0-.07,0-.14,0-.21a260.27,260.27,0,0,0,2.42-28.8,102,102,0,0,1,11.87,12.67c7.71,9.56,3.41-24.48,24.53-41.79a36.41,36.41,0,0,1,3.41-2.49h0a40.14,40.14,0,0,1,10.82-4.91,49.06,49.06,0,0,1,7.16-1.53,63.18,63.18,0,0,1,8.41-.57c1.2,0,2.43,0,3.7.09,1.83.07,3.73.23,5.7.45,65.58,7.41,61.88,67.8,66,72.62s6.3-5.19,18.16-1.11,5.93,13.71,9.26,18.15,13.34-3,17.41,2.23A38.47,38.47,0,0,1,816,404.78Z"/><rect class="cls-2" width="816" height="662"/><rect class="cls-2" width="816" height="662"/></g></g></svg>