<?xml version="1.0" encoding="UTF-8"?>
<svg width="73px" height="73px" viewBox="0 0 73 73" version="1.1" xmlns="http://www.w3.org/2000/svg" xmlns:xlink="http://www.w3.org/1999/xlink">
    <!-- Generator: Sketch 49.3 (51167) - http://www.bohemiancoding.com/sketch -->
    <title>Home</title>
    <desc>Created with Sketch.</desc>
    <defs></defs>
    <g id="Page-1" stroke="none" stroke-width="1" fill="none" fill-rule="evenodd">
        <g id="Home" transform="translate(3.000000, 3.000000)">
            <circle id="Path" stroke="#FFFFFF" stroke-width="5" cx="33.5" cy="33.5" r="33.5"></circle>
            <path d="M42.7540018,23.2927213 L42.4577117,20.2728985 L42.4577117,19.4338538 L43.369562,19.4338538 L49.3524109,19.4338538 L50.2642612,19.4338538 L50.2642612,20.2728985 L50.3406493,28.4555387 L49.4163653,27.844271 L54.9677419,31.636824 L53.9928581,33.0027716 L33.9679423,19.3222774 L13.9426525,33.0027716 L12.9677419,31.636824 L33.4805003,17.6233262 L33.9679423,17.2903226 L34.4553842,17.6233262 L42.7540018,23.2927213 Z M48.8004775,27.4235128 L44.6248919,24.5603007 L43.7450789,23.9697988 L48.8004775,27.4235128 Z M50.2071036,48.7160048 L38.2414058,48.7160048 L37.3867131,48.7160048 L37.3867131,47.8794436 L37.3867131,39.5138318 L30.5491982,39.5138318 L30.5491982,47.8794436 L30.5491982,48.7126063 L29.6945055,48.7128677 L17.7287809,48.7128677 L16.8740615,48.7128677 L16.8740615,47.8794436 L16.8740615,32.8213424 L16.8740615,32.3777035 L17.2546936,32.1285651 L33.494122,21.4997939 L33.9682093,21.1895081 L34.4422967,21.4997939 L50.6811909,32.1285651 L51.0617963,32.3777035 L51.0617963,32.8213424 L51.0617963,47.8794436 L51.0617963,48.7160048 L50.2071036,48.7160048 Z" id="Combined-Shape-Copy" fill="#FFFFFF"></path>
        </g>
    </g>
</svg>