<svg preserveAspectRatio="none slice" xmlns="http://www.w3.org/2000/svg" xmlns:xlink="http://www.w3.org/1999/xlink" viewBox="0 0 667 519.02"><defs><style>.cls-1{fill:url(#linear-gradient);}.cls-2{fill:#834e27;}.cls-3{fill:url(#linear-gradient-2);}.cls-4{fill:#db7f3c;}.cls-5{fill:#b55927;}.cls-6{fill:url(#linear-gradient-3);}.cls-7{fill:url(#linear-gradient-4);}.cls-8{fill:url(#linear-gradient-5);}.cls-9{fill:url(#linear-gradient-6);}.cls-10{fill:url(#linear-gradient-7);}.cls-11{fill:url(#linear-gradient-8);}.cls-12{fill:url(#linear-gradient-9);}.cls-13{fill:#dc9464;}.cls-14{fill:url(#linear-gradient-10);}.cls-15{fill:url(#linear-gradient-11);}.cls-16{fill:url(#linear-gradient-12);}.cls-17{fill:url(#linear-gradient-13);}.cls-18{fill:url(#linear-gradient-14);}.cls-19{fill:url(#linear-gradient-15);}.cls-20{fill:url(#linear-gradient-16);}.cls-21{fill:none;}</style><linearGradient id="linear-gradient" x1="595.92" y1="154.74" x2="-22.08" y2="374.74" gradientUnits="userSpaceOnUse"><stop offset="0.04" stop-color="#9ec8b5"/><stop offset="0.35" stop-color="#e3b786"/><stop offset="0.63" stop-color="#f5d1af"/><stop offset="0.96" stop-color="#ffebdc"/></linearGradient><linearGradient id="linear-gradient-2" x1="-12.21" y1="389.01" x2="419.46" y2="403.06" gradientUnits="userSpaceOnUse"><stop offset="0.06" stop-color="#979837"/><stop offset="0.98" stop-color="#5b927e"/></linearGradient><linearGradient id="linear-gradient-3" x1="413" y1="486.89" x2="409.33" y2="348.05" gradientUnits="userSpaceOnUse"><stop offset="0.13" stop-color="#4e1d0e"/><stop offset="0.97" stop-color="#2a0f0d"/></linearGradient><linearGradient id="linear-gradient-4" x1="73.42" y1="386.68" x2="632.09" y2="386.68" gradientUnits="userSpaceOnUse"><stop offset="0.02" stop-color="#bbb956"/><stop offset="0.87" stop-color="#80bba2"/><stop offset="0.98" stop-color="#dff0e6"/></linearGradient><linearGradient id="linear-gradient-5" x1="1.42" y1="412.35" x2="603.42" y2="412.35" gradientUnits="userSpaceOnUse"><stop offset="0.02" stop-color="#bbb956"/><stop offset="0.9" stop-color="#80bba2"/></linearGradient><linearGradient id="linear-gradient-6" x1="544.85" y1="62.83" x2="-64.48" y2="214.16" gradientUnits="userSpaceOnUse"><stop offset="0.05" stop-color="#aad9c3"/><stop offset="0.54" stop-color="#fff4e8"/><stop offset="0.96" stop-color="#fffcf9"/></linearGradient><linearGradient id="linear-gradient-7" x1="493.2" y1="10.07" x2="-123.46" y2="163.22" xlink:href="#linear-gradient-6"/><linearGradient id="linear-gradient-8" x1="591.34" y1="251.66" x2="-11.28" y2="401.32" xlink:href="#linear-gradient-6"/><linearGradient id="linear-gradient-9" x1="598.67" y1="281.68" x2="9.52" y2="428" xlink:href="#linear-gradient-6"/><linearGradient id="linear-gradient-10" x1="567.87" y1="155.51" x2="-41.47" y2="306.84" xlink:href="#linear-gradient-6"/><linearGradient id="linear-gradient-11" x1="519.75" y1="27.97" x2="-104.47" y2="183" xlink:href="#linear-gradient-6"/><linearGradient id="linear-gradient-12" x1="554.28" y1="100.8" x2="-55.05" y2="252.13" xlink:href="#linear-gradient-6"/><linearGradient id="linear-gradient-13" x1="370.41" y1="125.07" x2="26.68" y2="178.77" xlink:href="#linear-gradient-6"/><linearGradient id="linear-gradient-14" x1="390.3" y1="70.48" x2="26.77" y2="127.28" xlink:href="#linear-gradient-6"/><linearGradient id="linear-gradient-15" x1="-3.35" y1="276.47" x2="680.71" y2="257.14" gradientUnits="userSpaceOnUse"><stop offset="0.05" stop-color="#6d8683"/><stop offset="0.44" stop-color="#4e6866"/><stop offset="0.92" stop-color="#523f34"/></linearGradient><linearGradient id="linear-gradient-16" x1="163.43" y1="406.04" x2="162.85" y2="291.15" xlink:href="#linear-gradient-15"/></defs><title>horse 1</title><g id="Layer_2" data-name="Layer 2"><g id="_1" data-name="1"><rect class="cls-1" x="0.09" y="0.02" width="603" height="519"/><polygon class="cls-2" points="602.84 466.27 0.59 404.52 0.75 518.35 602.59 519.02 602.84 466.27"/><polygon class="cls-3" points="602.75 446.02 0.84 396.02 0.34 354.52 602.09 372.02 602.75 446.02"/><polygon class="cls-4" points="188.75 488.02 0.75 443.02 0.42 519.02 326.09 518.68 188.75 488.02"/><polygon class="cls-5" points="177.92 519.02 28.92 466.02 10.42 455.02 228.42 518.52 177.92 519.02"/><polygon class="cls-6" points="602.84 494.27 536.59 484.18 222.25 444.85 416.04 481.81 238.92 453.52 445.25 493.52 475.25 500.85 425.25 493.52 247.92 458.18 387.87 495.71 263.92 466.52 430.59 518.02 602.84 519.02 602.84 494.27"/><polygon class="cls-7" points="100.09 369.35 624.09 388.68 632.09 404.02 73.42 371.35 100.09 369.35"/><polygon class="cls-8" points="1.42 386.68 602.09 427.35 603.42 438.02 1.42 390.02 1.42 386.68"/><polygon class="cls-9" points="1.42 246.02 603.09 28.02 602.92 0.18 1.42 242.02 1.42 246.02"/><polygon class="cls-10" points="68.59 157.52 405.09 0.27 363.59 0.27 219.09 78.02 68.59 157.52"/><polygon class="cls-11" points="7.42 335.35 571.09 318.02 557.09 303.02 83.42 328.68 7.42 335.35"/><polygon class="cls-12" points="67.42 345.35 587.09 337.02 602.09 358.02 20.75 348.02 67.42 345.35"/><polygon class="cls-13" points="387.09 518.02 1.09 431.77 0.84 427.52 465.09 518.27 387.09 518.02"/><polygon class="cls-14" points="604.09 140.02 1.42 274.02 1.42 277.35 604.09 168.68 604.09 140.02"/><polygon class="cls-15" points="486.59 0.52 184.09 147.02 281.09 106.35 521.84 0.27 486.59 0.52"/><polygon class="cls-16" points="603.42 64.68 0.75 258.02 1.42 262.02 603.42 88.68 603.42 64.68"/><polygon class="cls-17" points="240.59 106.02 0.59 208.18 0.59 222.18 133.59 160.52 240.59 106.02"/><polygon class="cls-18" points="252.09 44.52 0.09 164.52 0.09 179.02 209.09 69.02 252.09 44.52"/><polygon class="cls-5" points="320.59 453.02 161.59 434.52 235.59 450.52 269.59 461.02 0.76 413.25 1.09 409.58 360.09 455.02 320.59 453.02"/><polygon class="cls-19" points="603.25 229.68 0.34 293.02 0.09 306.02 603.09 275.35 603.25 229.68"/><polygon class="cls-20" points="171.76 312.35 171.75 422.35 163.42 421.68 163.09 312.68 154.09 298.35 164.09 297.85 171.76 312.35"/><rect class="cls-21" width="667" height="518"/></g></g></svg>