<svg xmlns="http://www.w3.org/2000/svg" xmlns:xlink="http://www.w3.org/1999/xlink" viewBox="0 0 667.46 518"><defs><style>.cls-1{fill:#83471e;}.cls-2{fill:#1f1413;}.cls-3{fill:url(#linear-gradient);}.cls-4{fill:url(#linear-gradient-2);}.cls-5{fill:url(#New_Gradient_Swatch_5);}.cls-6{fill:url(#New_Gradient_Swatch_5-2);}.cls-7{fill:url(#linear-gradient-3);}.cls-8{fill:url(#linear-gradient-4);}.cls-9{fill:#5b1211;}.cls-10{fill:url(#linear-gradient-5);}.cls-11{fill:url(#linear-gradient-6);}.cls-12{fill:url(#New_Gradient_Swatch_5-3);}.cls-13{fill:url(#New_Gradient_Swatch_5-4);}.cls-14{fill:url(#New_Gradient_Swatch_5-5);}.cls-15{fill:url(#New_Gradient_Swatch_5-6);}.cls-16{fill:url(#New_Gradient_Swatch_5-7);}.cls-17{fill:url(#New_Gradient_Swatch_5-8);}.cls-18{fill:url(#New_Gradient_Swatch_5-9);}.cls-19{fill:url(#New_Gradient_Swatch_5-10);}.cls-20{fill:url(#New_Gradient_Swatch_5-11);}.cls-21{fill:#c56428;}.cls-22{fill:url(#New_Gradient_Swatch_5-12);}.cls-23{fill:url(#linear-gradient-7);}.cls-24{fill:url(#New_Gradient_Swatch_5-13);}.cls-25{fill:url(#New_Gradient_Swatch_5-14);}.cls-26{fill:url(#New_Gradient_Swatch_5-15);}.cls-27{fill:url(#New_Gradient_Swatch_5-16);}.cls-28{fill:url(#New_Gradient_Swatch_5-17);}.cls-29{fill:url(#New_Gradient_Swatch_5-18);}.cls-30{fill:url(#New_Gradient_Swatch_5-19);}.cls-31{fill:url(#linear-gradient-8);}.cls-32{fill:#edc31a;}.cls-33{fill:#afa9a2;}.cls-34{fill:#4f6868;}.cls-35{fill:url(#linear-gradient-9);}.cls-36{fill:#231c11;}.cls-37{fill:#fff6cf;}.cls-38{fill:url(#linear-gradient-10);}.cls-39{fill:#9f2b21;}.cls-40{fill:#bb9568;}.cls-41{fill:#253332;}.cls-42{fill:#ffef00;}.cls-43{fill:url(#New_Gradient_Swatch_5-20);}.cls-44{fill:url(#New_Gradient_Swatch_5-21);}.cls-45{fill:#f2be85;}.cls-46{fill:#754724;}.cls-47{fill:#a47c50;}.cls-48{fill:#a26b3a;}.cls-49{fill:#ba4026;}.cls-50{fill:#f9aa53;}.cls-51{fill:url(#New_Gradient_Swatch_5-22);}.cls-52{fill:#d7b328;}.cls-53{fill:#8cb5b7;}.cls-54{fill:url(#linear-gradient-11);}.cls-55{fill:url(#linear-gradient-12);}.cls-56{fill:url(#linear-gradient-13);}.cls-57{fill:url(#linear-gradient-14);}.cls-58{fill:#332321;}.cls-59{fill:url(#New_Gradient_Swatch_5-23);}.cls-60{fill:#80989a;}.cls-61{fill:#fcfdff;}.cls-62{fill:#4e1d0e;}.cls-63{fill:url(#linear-gradient-15);}.cls-64{fill:#513e24;}.cls-65{fill:#f8e288;}.cls-66{fill:url(#New_Gradient_Swatch_5-24);}.cls-67{fill:#fff;}.cls-68{fill:#456965;}.cls-69{fill:none;}.cls-70{fill:url(#New_Gradient_Swatch_5-25);}</style><linearGradient id="linear-gradient" x1="625.39" y1="202.01" x2="593.39" y2="131.01" gradientUnits="userSpaceOnUse"><stop offset="0.05" stop-color="#472710"/><stop offset="0.83" stop-color="#332321"/></linearGradient><linearGradient id="linear-gradient-2" x1="611.02" y1="172.14" x2="585.35" y2="137.81" xlink:href="#linear-gradient"/><linearGradient id="New_Gradient_Swatch_5" x1="549.99" y1="100.66" x2="160" y2="262.66" gradientUnits="userSpaceOnUse"><stop offset="0.05" stop-color="#472710"/><stop offset="0.9" stop-color="#332321"/></linearGradient><linearGradient id="New_Gradient_Swatch_5-2" x1="550.74" y1="102.48" x2="160.74" y2="264.48" xlink:href="#New_Gradient_Swatch_5"/><linearGradient id="linear-gradient-3" x1="622.45" y1="203.33" x2="590.45" y2="132.33" xlink:href="#linear-gradient"/><linearGradient id="linear-gradient-4" x1="619.08" y1="190.9" x2="632.62" y2="190.9" xlink:href="#linear-gradient"/><linearGradient id="linear-gradient-5" x1="573.21" y1="105.46" x2="581.92" y2="105.46" xlink:href="#linear-gradient"/><linearGradient id="linear-gradient-6" x1="585.21" y1="95.99" x2="594.1" y2="95.99" xlink:href="#linear-gradient"/><linearGradient id="New_Gradient_Swatch_5-3" x1="592.32" y1="202.58" x2="202.32" y2="364.58" xlink:href="#New_Gradient_Swatch_5"/><linearGradient id="New_Gradient_Swatch_5-4" x1="585.07" y1="185.14" x2="195.08" y2="347.14" xlink:href="#New_Gradient_Swatch_5"/><linearGradient id="New_Gradient_Swatch_5-5" x1="547.75" y1="95.28" x2="157.75" y2="257.28" xlink:href="#New_Gradient_Swatch_5"/><linearGradient id="New_Gradient_Swatch_5-6" x1="568.17" y1="144.43" x2="178.17" y2="306.43" xlink:href="#New_Gradient_Swatch_5"/><linearGradient id="New_Gradient_Swatch_5-7" x1="581.79" y1="177.23" x2="191.79" y2="339.23" xlink:href="#New_Gradient_Swatch_5"/><linearGradient id="New_Gradient_Swatch_5-8" x1="602" y1="225.89" x2="212" y2="387.89" xlink:href="#New_Gradient_Swatch_5"/><linearGradient id="New_Gradient_Swatch_5-9" x1="591.19" y1="199.84" x2="201.18" y2="361.85" xlink:href="#New_Gradient_Swatch_5"/><linearGradient id="New_Gradient_Swatch_5-10" x1="594.35" y1="207.46" x2="204.34" y2="369.46" xlink:href="#New_Gradient_Swatch_5"/><linearGradient id="New_Gradient_Swatch_5-11" x1="620.79" y1="271.12" x2="230.79" y2="433.12" xlink:href="#New_Gradient_Swatch_5"/><linearGradient id="New_Gradient_Swatch_5-12" x1="623.83" y1="278.43" x2="233.83" y2="440.43" xlink:href="#New_Gradient_Swatch_5"/><linearGradient id="linear-gradient-7" x1="472.18" y1="409.09" x2="468.18" y2="528.09" gradientUnits="userSpaceOnUse"><stop offset="0.28" stop-color="#472710"/><stop offset="0.9" stop-color="#4e1d0e"/></linearGradient><linearGradient id="New_Gradient_Swatch_5-13" x1="615.63" y1="258.68" x2="225.62" y2="420.68" xlink:href="#New_Gradient_Swatch_5"/><linearGradient id="New_Gradient_Swatch_5-14" x1="614.88" y1="256.89" x2="224.88" y2="418.89" xlink:href="#New_Gradient_Swatch_5"/><linearGradient id="New_Gradient_Swatch_5-15" x1="627" y1="286.06" x2="236.99" y2="448.06" xlink:href="#New_Gradient_Swatch_5"/><linearGradient id="New_Gradient_Swatch_5-16" x1="632.26" y1="298.74" x2="242.27" y2="460.74" xlink:href="#New_Gradient_Swatch_5"/><linearGradient id="New_Gradient_Swatch_5-17" x1="655.75" y1="355.28" x2="265.75" y2="517.29" xlink:href="#New_Gradient_Swatch_5"/><linearGradient id="New_Gradient_Swatch_5-18" x1="589.87" y1="196.68" x2="199.87" y2="358.68" xlink:href="#New_Gradient_Swatch_5"/><linearGradient id="New_Gradient_Swatch_5-19" x1="575.07" y1="161.06" x2="185.07" y2="323.06" xlink:href="#New_Gradient_Swatch_5"/><linearGradient id="linear-gradient-8" x1="442.03" y1="312.41" x2="428.53" y2="215.41" gradientUnits="userSpaceOnUse"><stop offset="0.05" stop-color="#5c4b3e"/><stop offset="0.68" stop-color="#332321"/></linearGradient><linearGradient id="linear-gradient-9" x1="506.06" y1="154.65" x2="464.39" y2="109.98" gradientUnits="userSpaceOnUse"><stop offset="0.09" stop-color="#80989a"/><stop offset="0.78" stop-color="#505e5e"/></linearGradient><linearGradient id="linear-gradient-10" x1="463.01" y1="43.79" x2="473.34" y2="102.12" gradientUnits="userSpaceOnUse"><stop offset="0.02" stop-color="#f58e5b"/><stop offset="0.56" stop-color="#e44d25"/><stop offset="1" stop-color="#e73b25"/></linearGradient><linearGradient id="New_Gradient_Swatch_5-20" x1="591.95" y1="201.69" x2="201.95" y2="363.69" xlink:href="#New_Gradient_Swatch_5"/><linearGradient id="New_Gradient_Swatch_5-21" x1="674.58" y1="400.61" x2="284.58" y2="562.61" xlink:href="#New_Gradient_Swatch_5"/><linearGradient id="New_Gradient_Swatch_5-22" x1="558.3" y1="120.68" x2="168.3" y2="282.68" xlink:href="#New_Gradient_Swatch_5"/><linearGradient id="linear-gradient-11" x1="601.01" y1="189.55" x2="548.01" y2="155.22" xlink:href="#linear-gradient-8"/><linearGradient id="linear-gradient-12" x1="617.11" y1="112.76" x2="588.61" y2="110.76" xlink:href="#linear-gradient-8"/><linearGradient id="linear-gradient-13" x1="590.39" y1="158.72" x2="567.39" y2="102.72" xlink:href="#linear-gradient-8"/><linearGradient id="linear-gradient-14" x1="564.38" y1="243.14" x2="480.88" y2="212.14" xlink:href="#linear-gradient-8"/><linearGradient id="New_Gradient_Swatch_5-23" x1="552.78" y1="107.4" x2="162.78" y2="269.4" xlink:href="#New_Gradient_Swatch_5"/><linearGradient id="linear-gradient-15" x1="473.52" y1="409.13" x2="469.52" y2="528.13" xlink:href="#linear-gradient-7"/><linearGradient id="New_Gradient_Swatch_5-24" x1="613.48" y1="253.53" x2="223.48" y2="415.53" xlink:href="#New_Gradient_Swatch_5"/><linearGradient id="New_Gradient_Swatch_5-25" x1="539.81" y1="76.17" x2="149.81" y2="238.17" xlink:href="#New_Gradient_Swatch_5"/></defs><title>horse 3</title><g id="Layer_2" data-name="Layer 2"><g id="_3" data-name="3"><path class="cls-1" d="M572.46,98.24c-5.85,4-19.87,13.67-26.84,18.79-13.76,10.09-25,19.55-37.67,29.06-27.63,20.7-52.4,22.61-84.75,17.32-17.34-2.83-33.67-6-54-2.33A105,105,0,0,0,335,174.41c-11.88,7.59-17.61,18.32-22.33,29.5-6.21,14.69-10.8,31.85-11.5,48.5-.53,12.37,4.72,18.86-4.11,31-2.18,3-4.49,8.33-8.48,12.32-4.42,4.41-5.72,7.19-9,10-4.11,3.51-4.75,2-8.25,12.5-1.56,4.69-1.5,3.41-3,8.25-3.18,10.26-27.75,40.25-23,33.25,2.11-3.11-.86-1.43-8,14-2,4.33-2.63,15.91,2.67,8,24.08-36,35.24-55.94,53.33-74,.34-.34,20.9-2.17,37.06-13.48,9-6.28,15.27-14.14,22.61-22.19-2.58,5.31,16.18-21.49,19.72-17.06,5.34,6.66,23.24,25,34,33.66,6.39,5.14,13.22,14.39,19.65,17.47,8.33,4,16.85,5.71,25.72,8.09,9.32,2.5,16.32-5.6,22.73-11.34a221.27,221.27,0,0,0,47.61-61.39c11.78-22.3,22-45.69,32.84-68.5a139.35,139.35,0,0,0,11.17-34.33c2.29-12.28,8.83-27,5.49-39.44Z"/><path class="cls-1" d="M452.21,313.27c5.49,2.28,10.55,5.41,15.89,8a37.43,37.43,0,0,0,3.84,1.53,21.54,21.54,0,0,0,3.58,1.35c1.39.23,2.88,0,4.29.12s2.55.39,3.85.45,2.36,0,3.53.12a25,25,0,0,0,3.32.54c1.34,0,.38,1.12,1.58.61a24.67,24.67,0,0,0,4.25-1.75c1.45-1,3.2-.58,4.5-1.75s4.65-2.59,6-3.75a37.75,37.75,0,0,0,8.25-9.5c2.37,1.63,2.57,2.63,5.25,3.75,3,1.24,6.71,1.38,8.75-.75,5-5.25,12-9.85,17.74-14.15s11.5-8.55,16.55-13.55c2.33-2.3,7.12-2.64,7.71-5.93.54-3.07,1.16-4.13,1.25-7.25a39.93,39.93,0,0,0-2.5-13.5c-1-3-4.62-8.39-4.5-8.75,1.12-3.37,1.61-3.57,2.37-6.62.89-3.6,1.52-6.58.63-10.25-1-4.13-1.9-9.8-3.63-12.88s-4.75-5.87-3.87-7.5c2-3.81,3.59-8.55,5.12-12.62a119.14,119.14,0,0,1,5.25-12.63c1.78-3.33,3.74-9,5.88-9,.25,0,1.87,1,7,4.75a29.53,29.53,0,0,0,7.37,3.88c3,1.14,5.25,3.27,7.75,5.25,2.26,1.78,4.88,3.13,6.63,5.37.92,1.19,3.68,2.46,4.62,4.63.79,1.81-.17,5,0,5.25,2.84,3.78,5.2,8.32,10.5,9.12,3.22.49,5.5-.37,8-2.75.29-.27,7.16,2.27,10,.5,2.2-1.37,5.7-7.11,4.88-9.37-1-2.75-2.61-4.28-1.63-7.13s3.43-6.17,3.38-9.25c-.06-3.32-1.77-5.37-3.75-7.87a53.08,53.08,0,0,1-6.13-9.63,44.09,44.09,0,0,1-3.87-10.5c-1.06-5.58-4.4-11.44-3.06-17.15,1.25-5.29,5.93-17,3.81-18.22-4-2.36-8.49-8.23-12.13-12.13C615,106.52,610,101.58,606.58,94.25c-1.37-2.9-2.53-5.91-4.06-8.74A75.65,75.65,0,0,0,597,77.06c-2.08-2.88-4.16-5.75-6.23-8.64a42.88,42.88,0,0,1,1,4.85,32.51,32.51,0,0,1,0,3.56c0,1-.46,1.9-.55,2.9a17.36,17.36,0,0,0,0,2c.06,1,.42,1.16.88,2,1,1.72,2.27,2.3,3.26,4-1.89-1.87-3.3.43-5.63,1.12-.5.15-1.59.89-2.12,1-.9.19-2.34,1-3.25.63-1.77-.81-4.43-3.65-6.09-4.68a30.46,30.46,0,0,1-3-2.73c-1.3-1.06-2.72-2-4-3.06a18.34,18.34,0,0,1-4.51-5.64,85.44,85.44,0,0,0,.44,10.49,42,42,0,0,0,2.2,8.23c.82,2.44,2.09,3.89,2.59,6.55.41,2.18-2.18,5.29-2.79,7.4a292.9,292.9,0,0,1-29.71,67.78c-21.79,36.82-49.65,69.57-73,105.38-3.56,5.47-7.07,11-10.3,16.65a39,39,0,0,0-4,8.17c-.86,3,.17,5.84,1,8.71Z"/><path class="cls-1" d="M531.34,307.64a135.82,135.82,0,0,1,13.25,15.13c3.1,4.34,5.12,1.75,9.26,5.06,4.69,3.75,11,10.65,16,14.69a77.8,77.8,0,0,0,11.75,8.5c9.35,5.7,6.21,11.21,9.75,14.75,3.75,3.75,6.5-.28,10.5,3.54,5.5,5.25,15.33,15.62,18.33,21.5,1.1,2.16.71,10.12,1.83,12s3,2,5.5,2.5c10.5,2.25,5,13.5,9.59,17.08s23.06,2.09,28.87-.62c6.29-2.93-10.5-16.88-16.12-18.75-.75-.25-1-2.2-2.13-3-2.82-1.94-6.66-3.49-6.75-3.75-.79-2.37-1.35-5.32-3-6.63-2-1.62-4.15-3.69-6.33-5.33-6.4-4.82-16.29-17-20.83-23.84-2.25-3.37-1.44-6.69-4.5-13.16-2.38-5-12.77-13.37-13.5-14.79-4.28-8.29-4.57-11.61-5.75-15.75-1.75-6.13-2-12.75-4.25-21.25-1.42-5.34-6.25-8.38-11.17-15.6-5.94-8.74-17.41,1.37-23.15,7.52-5.57,6-10.35,12.64-15.18,19.2Z"/><path class="cls-1" d="M459.59,310c3.72,2.23,7.92,2.68,12.14,3.38,5.77,1,15,3.06,20.36,5.62,3.74,1.79-.86,5.6-2,8.25a55,55,0,0,0-4,11.25c-1.9,9.15-3.84,18.59-5.13,27.84-.53,3.8-1.88,8.43-.93,12.25.59,2.39,1.21,5.08,3.06,6.66-.33,4.46.71,8.26-.5,12.58-1.59,5.63-4.84,11.84-6.34,17.5-1.89,7.18-1.6,13.39-1.5,20.83.11,7.91-.63,18.43.84,26.17,1.15,6.09,2,10.67,2.77,16.59a5.46,5.46,0,0,1-7.3,5.66c-3.64-1.18-6.38-4.85-7.56-8.35a18.58,18.58,0,0,1-.75-10.23c1.84-8,2.23-17.16,2.34-26.67.05-4.56.38-10.6.16-15.17s-.9-8.29-1.5-12.83c-.55-4.23-1.75-9.59-1.3-13.85.42-3.94,1.36-9.49,1.3-10-1.16-10.34-3.54-24.15-4.33-34.5-.67-8.8.33-15.5,0-25.84-.18-5.45-3.58-7.16-6.08-16.54Z"/><path class="cls-2" d="M583.42,128.35a31.31,31.31,0,0,0,3.87-2.47,5.33,5.33,0,0,1,3.51-1.4,7.12,7.12,0,0,1,3.26,1,4.5,4.5,0,0,1,1.53,2.9,20.86,20.86,0,0,0,1,3.55c.34.81,1.31,2.1,1,3-.43,1.28-3,.89-4,.78a12,12,0,0,1-5.08-1.66,18.86,18.86,0,0,1-5.65-5.53v.1Z"/><path class="cls-3" d="M582.59,126.35c.08-.28.33-.41.56-.57s.72-.54,1.08-.83a12.55,12.55,0,0,1,2.19-1.2,10.76,10.76,0,0,1,3.06-1.19,6.43,6.43,0,0,1,3.23.54,15.05,15.05,0,0,0,1.77.53,6.2,6.2,0,0,0,1.72.39c-1.07-.44-2-1.1-3-1.63-.67-.34-2.48-.7-2.3-1.73a4.16,4.16,0,0,1,.84-1.49,11.17,11.17,0,0,1,1.53-1.76,14,14,0,0,1,2.08-1.48c.59-.36,1.74-.81,2.1-1.44s-.44-.52-.84-.52a21.22,21.22,0,0,0-3.8.54,19,19,0,0,0-6.08,2.11,13.63,13.63,0,0,0-6.34,7.32,6.77,6.77,0,0,0-.27,3.4c.32,1.29,2.5-.64,3-1Z"/><path class="cls-4" d="M581.59,128.18a9.53,9.53,0,0,0,2.54,5,9.28,9.28,0,0,0,2.4,1.91,24,24,0,0,0,3.06,1.69c.93.38,1.95.33,2.89.66,1.26.44-.4,1.1-.93,1.24a9.52,9.52,0,0,1-5.16-.09,12.18,12.18,0,0,1-3.15-1.71,5.22,5.22,0,0,0,2.74,2.47,22.79,22.79,0,0,0,5.14,1.56c2.4.52,5,.76,7.21,1.78.93.43,1.75,1,2.65,1.51a23.12,23.12,0,0,1,2.71,1.9,16,16,0,0,1,2.12,1.64c.69.7,1.34,1.48,2,2.24.34.41.59.88.9,1.31s.71.84,1,1.3a16,16,0,0,1,1.36,2.87,7.59,7.59,0,0,1-1.28.19,9.69,9.69,0,0,0-1.33.2c.16.42.81.57,1.16.75.64.32,1.1.84,1.73,1.15,1.11.55,1.76,2.06,2.23,3.16.25.59.4,1.2.68,1.78a17.56,17.56,0,0,1,.79,1.84c.47,1.32,1.07,2.6,1.52,3.93a34.49,34.49,0,0,1,1.05,3.46c.15.65.46,1.25.64,1.89.13.44.21.88.38,1.3a31.53,31.53,0,0,0-9-10.42c-1.94-1.45-4-2.72-6-4.05a47.85,47.85,0,0,0-6-3.58c-2.6-1.23-5.35-2.13-8-3.11a25.89,25.89,0,0,1-7.86-4c-5-4.2-6-11-4.7-17.13a15.53,15.53,0,0,1,1.31-3.93,4,4,0,0,1,1.58-1.84c.94-.46,1.57.16,2,1Z"/><path class="cls-5" d="M574.46,82.77a17.41,17.41,0,0,1-2.75-3.31A19,19,0,0,0,567.64,75c-.43-.33-1.2-1-1.8-1s-.32.69-.25,1c.19.89.49,1.75.69,2.64a24.62,24.62,0,0,1,.5,3.32c.21,2.46.28,4.93.73,7.37a23,23,0,0,0,2.35,7A20.5,20.5,0,0,0,579,103.7a18.09,18.09,0,0,1,2,1.08A12.44,12.44,0,0,0,583.2,106c2.21.82,4.28-.87,6-2.1-.26-.22-.53-.41-.79-.61a8.48,8.48,0,0,1-1.17-1.36c-.3-.39-.54-.88-.86-1.26-.18-.2-.4-.35-.57-.57l-.43-.57A33.45,33.45,0,0,0,583.05,97c-.42-.42-.87-.78-1.31-1.17a5.2,5.2,0,0,0-1.11-.87,2.93,2.93,0,0,1,.45.54c.12.22.28.42.39.63s.12.48.23.71a4.22,4.22,0,0,1,.5,2.63,35.38,35.38,0,0,1-6.38-4.64,16.85,16.85,0,0,1-4.92-6.67,10.69,10.69,0,0,1-.87-3.89c0-.75.15-1.8,1-2a3.47,3.47,0,0,1,1.72.36,5.84,5.84,0,0,0,1.66.19s0-.07,0-.1Z"/><path class="cls-6" d="M595.71,88.77a17.68,17.68,0,0,1-4.53-5.42,4.28,4.28,0,0,1-.67-2.48,19.55,19.55,0,0,1,.66-3.2,9.78,9.78,0,0,0,.38-3.09,11.86,11.86,0,0,0-.89-2.84c-.28-.73-.83-1.93-.47-2.73s1.23-.27,1.7,0c1.77,1.12,2.49,3.3,3.53,5a73.67,73.67,0,0,0,4.33,6.08c1.47,2,3,3.86,4.42,5.86,1.05,1.49,2.31,3.1,2.42,5a22.65,22.65,0,0,0,.21,3.18c.2,1,.66,2.61-.91,2.53a9.52,9.52,0,0,1-3.37-1.16,31.19,31.19,0,0,1-4.35-2.59c-1.69-1.2-3.36-2.53-4-4.55h.07Z"/><path class="cls-7" d="M583.71,160.39c0-.09,0-.12-.08-.1.18.19.62.25.86.37s.47.36.75.49a10.9,10.9,0,0,1,1.22.52c.6.37,1.25.66,1.88,1a11,11,0,0,1,1.6,1,4.74,4.74,0,0,1,.49.51,7.57,7.57,0,0,0,.63.49c.41.31.75.68,1.16,1s.77.59,1.14.9,1,.91,1.47,1.32a36,36,0,0,1,3.26,3.16,23.32,23.32,0,0,1,1.88,1.84c.45.59.82,1.21,1.24,1.81a12.84,12.84,0,0,1,1,1.72c.12.25.24.49.38.72s.23.54.37.82a8.28,8.28,0,0,1,.5,1.09,3.51,3.51,0,0,0,.33.77,7.08,7.08,0,0,0-.67,1,3.21,3.21,0,0,1-.41.83c-.06-.19-.07-.4-.12-.58a5.37,5.37,0,0,0-.41-.88c-.23-.49-.57-.91-.84-1.37a12,12,0,0,0-2.34-2.6c-.27-.24-.62-.42-.91-.63s-.84-.53-1.25-.77c-.91-.54-1.8-1.1-2.73-1.6-.39-.21-.76-.45-1.15-.66a5.35,5.35,0,0,1-1.28-.72c-.32-.3-.83-.32-1.22-.52-.21-.1-.61-.46-.84-.35a1.2,1.2,0,0,1,.49.46c.28.41.65.74.94,1.13s.44.76.69,1.14.59.83.88,1.24a7.2,7.2,0,0,1,.58,1.1,8.34,8.34,0,0,0,.86,1.27c.25.36.38.77.62,1.14s.59.82.88,1.24.36.67.62,1,.44.62.66.93a14.33,14.33,0,0,0,1.34,1.47c.48.52,1,1,1.5,1.5.26.27.54.51.81.77s.56.7.88,1c.53.51,1,1.11,1.5,1.62s1,1,1.44,1.5.88,1,1.37,1.47c.67.62,1.25,1.35,1.9,2a16.76,16.76,0,0,1,2.29,2.48c.22.34.56.58.81.9s.6.74.88,1.13c.81,1.13,2,2,2.53,3.33a3.75,3.75,0,0,0,0-.48,1.47,1.47,0,0,1-.11-.46c0-.16.11-.25.14-.4a4.69,4.69,0,0,0,0-.75,2.14,2.14,0,0,1,.13-.62,1.74,1.74,0,0,1,.38-.91.74.74,0,0,0,.37-.22,2.11,2.11,0,0,1,.37-.28c.29-.15.32-.1.5.16s.52.66.77,1,.6.78.85,1.15A7,7,0,0,1,618,200c.11.25.31.49.44.75s.35.59.5.91c.26.5.6,1,.88,1.45.13.24.18.52.31.76l.34.66c.28.55.58,1,.9,1.56s.56.85.82,1.28.38.6,1,.48c.3-.06.62-.16.91-.23s.24,0,.24-.37.14-.83.13-1.27v-1c0-.36,0-.74,0-1.1s-.14-.4-.13-.62a5.57,5.57,0,0,0,1.51,1.59,6,6,0,0,0,1.62,1.16,2,2,0,0,0,.87.23,3.55,3.55,0,0,0,.66-.17c.31-.09.64-.12,1-.19s.74-.31,1.15-.43a4.82,4.82,0,0,0,1.34-.72,6.51,6.51,0,0,0,1.63-1.76,3.9,3.9,0,0,0,.15-1.84A3.63,3.63,0,0,0,634,200a6.1,6.1,0,0,0-.34-1,2.18,2.18,0,0,0-.65-.85c-.15-.1-.58-.23-.63-.37a7,7,0,0,0,2.5-2.29,11.53,11.53,0,0,0,.62-1,9,9,0,0,0,.88-1.72,5,5,0,0,0,.25-1.25c0-.57.12-1.09.12-1.66s-.13-1.05-.12-1.59a6.49,6.49,0,0,1,0-1.59,8.73,8.73,0,0,1,.73,1.58c.18.37.31.76.5,1.13s.29.85.49,1.26a1.91,1.91,0,0,0,.75.84,2.55,2.55,0,0,0,.59.25,2.8,2.8,0,0,0,1.17-.19,3.78,3.78,0,0,0,1-.3,11.26,11.26,0,0,1,1-.51,2.72,2.72,0,0,0,.67-.5c.26-.25.53-.48.79-.72a3.2,3.2,0,0,0,.72-.88,4,4,0,0,0,.05-.5c.07-.25.24-.43.22-.71a2.8,2.8,0,0,1,.26,1.46,7.51,7.51,0,0,1-.34,2,24.23,24.23,0,0,1-1,2.46c-.22.5-.37,1-.61,1.5s-.55,1.17-.85,1.73-.52,1-.78,1.52,0,1.12.28,1.63.58,1.17.88,1.75c.15.29.21.59.34.88a7.59,7.59,0,0,1,.35.77,3.21,3.21,0,0,1,.16,1.48c0,.11-.1.12-.14.23a4,4,0,0,0-.09.52,4.49,4.49,0,0,1-.18.87c-.1.28-.27.56-.38.84s-.29.73-.46,1.07a13.44,13.44,0,0,1-.76,1.25c-.11.17-.28.32-.38.49a2.85,2.85,0,0,1-.37.6,23.61,23.61,0,0,1-3.38,3.47,1.63,1.63,0,0,1-.49.29c-.16,0-.23-.07-.38-.11a1.34,1.34,0,0,0-.49,0,10.91,10.91,0,0,1-2.88-.63c-.81-.22-1.59-.5-2.41-.66a7,7,0,0,0-2.22-.35c-.4.06-.15.19-.27.51a2.58,2.58,0,0,1-.6.75,10.23,10.23,0,0,1-2.53,1.63,11.46,11.46,0,0,1-2.82.84,3.46,3.46,0,0,1-.56,0,5.22,5.22,0,0,0-.57.11c-.3,0-.58-.11-.9-.1a2.8,2.8,0,0,1-1.59-.5,25.85,25.85,0,0,1-2.38-1.78c-.75-.69-1.51-1.35-2.32-2s-1.64-1.36-2.43-2.08c-.38-.35-.7-.79-1.06-1.16a8.85,8.85,0,0,1-.75-.75,1.48,1.48,0,0,1-.36-.78c0-.28.16-.4.27-.64a3,3,0,0,0,.21-.68,7.52,7.52,0,0,0,.41-1.78,4.4,4.4,0,0,0-.34-1.72c-.11-.27-.31-.51-.44-.78s-.25-.5-.38-.75-.23-.57-.37-.85a4.13,4.13,0,0,0-.72-.9c-1.1-1.22-2.24-2.42-3.37-3.63-.25-.26-.52-.49-.75-.77a9.22,9.22,0,0,0-1.1-.88c-.18-.15-.3-.32-.49-.47s-.37-.3-.56-.47a6,6,0,0,0-.7-.4c-.23-.15-.41-.35-.65-.5a9.14,9.14,0,0,1-1.23-.78,12,12,0,0,0-1.37-.84,8.22,8.22,0,0,0-.65-.52,5.34,5.34,0,0,1-.75-.39c-.53-.37-1.09-.61-1.63-1a9.37,9.37,0,0,0-2-.9,24.85,24.85,0,0,1-2.61-1.1,15.65,15.65,0,0,1-1.84-.9,13.66,13.66,0,0,1-1.31-.71,16.71,16.71,0,0,0-2.32-1.35,6.18,6.18,0,0,1-1.9-1.66c-.24-.31-.52-.55-.75-.87a5.34,5.34,0,0,1-.62-1.15,17.57,17.57,0,0,1-.73-4.51c-.37-3.5.54-7,1.26-10.4a26.15,26.15,0,0,1,.68-2.94c.12-.35.27-.7.41-1s.34-.47.38-.75Z"/><path class="cls-8" d="M620.71,193.89a1.63,1.63,0,0,0-.15-.75c-.07-.14-.19-.25-.26-.4a4.1,4.1,0,0,0-.21-.48,6.07,6.07,0,0,1-.85-2c0-.13,0-.28,0-.4a1.83,1.83,0,0,0-.1-.28.85.85,0,0,1,.13-.72,14,14,0,0,1,2.45-2.22,9.35,9.35,0,0,1,.8-.74c.17-.13.35-.3.51-.42s.28-.14.43-.24.26-.25.43-.35a5.06,5.06,0,0,1,.58-.25,1.94,1.94,0,0,1,.9-.28,3,3,0,0,1,.74,0c.3.08.6.24.91.32a3.51,3.51,0,0,1,.87.37c.36.19.75.21,1.1.41a8.71,8.71,0,0,1,1,.62c.33.25.67.4,1,.62a2,2,0,0,1,.73.76c.13.31.29.59.43.9a4.8,4.8,0,0,1,.47,1.72,7.57,7.57,0,0,1,0,1.65,4.75,4.75,0,0,1-.38.94,7.44,7.44,0,0,1-.46.94c-.24.39-.49.76-.76,1.13a4.4,4.4,0,0,1-.4.46c-.23.23-.37.57-.6.77a4.4,4.4,0,0,1-1.84.83,17.14,17.14,0,0,1-2.54.54.93.93,0,0,1-.66-.1c-.3-.29.08-.43.32-.53a4.65,4.65,0,0,0,2.1-1.51,2.38,2.38,0,0,0,.59-1,3.93,3.93,0,0,0,.28-1.16,2,2,0,0,0-.62-1.75,2.6,2.6,0,0,0-1.72-.62,4.31,4.31,0,0,0-1.19,0,4.19,4.19,0,0,0-1.07.6,5.61,5.61,0,0,0-1.49,1.62,8.09,8.09,0,0,1-.5.79c-.15.21-.18.4-.49.34h.08Z"/><path class="cls-9" d="M576,102.89l-.1,0,0-.1Z"/><path class="cls-10" d="M575.71,102.77a.22.22,0,0,0,0-.08c.39.34.85.55,1.26.86a7,7,0,0,0,.75.56,8.41,8.41,0,0,1,.88.63c.23.16.52.27.75.43s.15.18.24.25a4,4,0,0,0,.5.34,8.57,8.57,0,0,1,1.84,1.26c-.21.07-.29.25-.46.38a4.82,4.82,0,0,1-1,.49,7.49,7.49,0,0,1-3,.75c-.46,0-.93,0-1.38,0a3.41,3.41,0,0,1-1.25-.51,2.86,2.86,0,0,1-1.47-3.5,4.31,4.31,0,0,1,.84-1.65c.28-.27.55-.78,1-.73s.86.67,1.25.88Z"/><path class="cls-11" d="M585.71,90.77a7.85,7.85,0,0,0,1.75-.48,8.38,8.38,0,0,1,1.88-.15,2.59,2.59,0,0,1,1.84,1c.53.75,1.23,1.37,1.75,2.13a7,7,0,0,1,.63,1c.09.18.1.41.18.59a2.38,2.38,0,0,1,.23.63,5.12,5.12,0,0,1,0,2.43,9.17,9.17,0,0,1-.59,1.32,5.78,5.78,0,0,1-.5.69c-.19.2-.42.27-.61.46a9.25,9.25,0,0,1-.89.88l-.48.38c-.08.07-.2.11-.28.19,0-.11-.11-.33-.15-.45a2,2,0,0,0-.38-.72c-.15-.17-.21-.16-.19-.4s.18-.74.23-1.1a15.11,15.11,0,0,1,.34-1.78,6.8,6.8,0,0,0,.16-1.75,2.67,2.67,0,0,0-.22-1.37,3.83,3.83,0,0,0-1.54-1.47,13.37,13.37,0,0,0-1.71-1,6.7,6.7,0,0,1-1.91-1Z"/><path class="cls-12" d="M569.09,158.35a.83.83,0,0,1,.36-.56c-2.12,5.73-6.44,10.3-8.77,15.9-1.16,2.78-2.94,5.3-4.06,8.18a73.69,73.69,0,0,1-3.19,7.48c-5.52,10.55-7.87,22.87-14.84,32.69-3.85,5.43-7.08,11.14-10.49,16.85-2.5,4.18-5.92,9.81-5.69,14.72.1,2,1.4,4.65,2.12,6.49,1,2.67,1.74,5.54,3.06,8.09.7,1.34-.58,5.76-.79,7.33-.27,2-2.77,11-1.88,9.16,1.67-3.5,3.09-7.67,3.33-8.33,1.12-3,1.41-4.74,2.32-7.79,1.38-4.59-2.39-8.18.09-12.61,3-5.35,6.62-10.06,9.82-15.25,2.84-4.62,5.84-9.6,9.61-13.53,1.8-1.88,3.42-4.07,5.33-5.83,1.5-1.38,1.65-4.42,2.05-6.41,1.12-5.61,2.39-11.28,3.88-16.81,3.19-11.75,7.44-25,16-34.1-3-.84-5.43-4.18-8.22-5.67Z"/><path class="cls-13" d="M555.83,168.35c2.79-3,5-6.46,7.42-9.73,1.48-2,3.59-3.64,3.59-6.27,0-1.19-1-.76-1.06-1.9-5.94,6.08-10.66,13.73-16.06,20.31-6.35,7.73-9.62,15.92-13.47,25A232.18,232.18,0,0,0,526,227.56c-1.4,5.38-2.41,10.68-3.31,16.12-.2,1.2-1.27,9.39.41,9.9,1.49-.5,2.92-7,3.72-8.21,1.77-2.79,3-5.84,4.64-8.71,1.86-3.29,1.69-8.9,2.38-12.64a82.55,82.55,0,0,1,3.3-11.51c2.61-7.66,4.37-15.89,7.37-23.38,1-2.42,5-10.24,7.34-14.61Z"/><path class="cls-14" d="M329.15,179.33c-2.31,2.25-25.69,3.44-28.14,3.92-11.87,2.35-24.85,8.33-34.81,15.09A161.86,161.86,0,0,0,239,221.11a41.31,41.31,0,0,1-14.7,10.32c-5.13,2-9.13,2-10.6-1.14,2.64,5.64,14.28,4.25,17.78,3.44,6.73-1.58,11.18-8.48,17.15-10.22-4.57,7.88-20.35,17-29.78,13-1,1.91,11.14,3.25,12,3.14a79.22,79.22,0,0,0,20.83-5.18c11.26-4.69,19.38-15.74,27.92-23.84,10.3-9.77,21.45-19,35.31-23.15,10.64-3.2,8.33-1.52,12.27-6Z"/><path class="cls-15" d="M319.34,191.27c-14.25,19.25-19.45,42.56-18.42,65.75.33,7.5,1.25,14.91,1,22-.23,6.45-.13,14.74.26,21.16.61,10.05,7.62,7.64,15.07,5,14.51-5.22,25.59-19.76,36-30.4,4.44-4.51,20.43-23.14,26.13-11.06-5.1-10.79-20.41-45.63-36.17-43.83-6.17.71-10.12,12-13.16,16.67-10.5,16.25-26.82-2.32-19-25.25Z"/><path class="cls-16" d="M301.75,266.68c-1.4,10.38-11.47,22.95-18.41,30.18a64.76,64.76,0,0,0-10.48,14c-3,5.63-3.3,12.21-5.92,18,3.73,1.12,7,4.56,9.15,1.86a48,48,0,0,1,9-8.66c9.33-7.34,19.33-12.34,32.75-17-4.75-7-11.21-14.31-11.25-22.43,0-2.73.3-17.31-5.17-15.57Z"/><path class="cls-17" d="M243,360.27c0-.35-1.94,1.54-1.75,1.25-1.12,1.75-2.26,3.89-3.15,5.4-1.81,3.08-3.72,1.47-6.1,2.47-4.4,1.85-3.39,1.77-4.62,6-1.47,5-6.71,2.47-9.6,1.52-3.78,4.53-7.42,7.06-9.8,13-1.68,4.15-4.47,10.8,1.92,10.52,5.5-.25,15.26-2.51,20.23-5.38,2.47-1.43,4.87-4.5,7-6.75,3-6.5,5.21-9.21,9.5-14.75-1.4-.31-8.91,8.89-8.12,1a23.11,23.11,0,0,1,2.31-6.82,23.94,23.94,0,0,0,2.31-7.35Z"/><path class="cls-9" d="M350.84,274.52l-.21,0c0,.07,0,.14,0,.21Z"/><path class="cls-18" d="M353.33,272.78c2.91-5.34,4.05-10.48,8.95-14.44,5.31-4.3,9.35-2.57,15.81-1.07,4.07.94,5.93,9.78,9,12.5,3.78,3.36,5.72,8.92,9.75,12C402.37,286,408,292.34,413.75,295c-11.91,13.5-15.05,16.62-28.91,27.25-5.62,4.3-10.43,2-17,4.5-4,1.47-10.05,5-14.41,4.15,2-9.38,2.93-18.87,4.76-28.27,2.11-10.89-2.48-20-4.91-29.75Z"/><path class="cls-19" d="M443.09,232.68c-2.5,4.09-2,3.09-1.5,7.92,0,.07,0,3.68,0,3.75.16,3.08-.64,7.39,1.4,8.9,3.61,2.68,7.46,5.48,11.64,7.24,8.22,3.44,13.12,9.69,18.44,16.55,4.88,6.3,12.34,14.79,11.92,23.39,2.63-3.62,4.81-7.66,7.21-11.43s4.91-7.05,6.3-11.23c3.26-9.81,6.7-22.82-.45-31.92-1.29,3.73,1.61,11.7-2.28,14.38-2.15,1.48-5,.81-7.13-.33-1.37-.74-4.11-2.61-4.87-4-.21-.38-3.91,1.63-4,2.16s1,2.25,1.25,2.73a22.61,22.61,0,0,1,1.82,5.42c1.15,6.94-4.59,7.43-9.31,4.6-4.52-2.71-8.58-7.07-12.29-10.74s-10.11-7.25-11.94-11.75c-1.34-3.28-.38-11.91,1.12-17.09.86-3,1.49-6,2.39-8.93.46-1.52,1.57-2.9,1.89-4.44a49.43,49.43,0,0,0-6.32,6.79c-2,2.89-.5.25-2.5,3.17C443.75,231.18,445.22,229.2,443.09,232.68Z"/><path class="cls-20" d="M456.34,278.52c1.75,9.16-.75,15-.84,17.58.5,7,3,11.08,4.09,16,1.76,8.19,1.49,16.33.5,24.67s-.75,20.5.5,30.41c.59,4.71,1.05,10.23,1.57,14.93.48,4.32,1.43,8.91,1.74,13.2,2,6.87,2.44-11.46,3-13.59.47-1.67,3.53-14.2,2.66-13.33-.5,1.63-1.61,6.19-2.42,2.65a68.17,68.17,0,0,1-1.3-14.82,102.86,102.86,0,0,1,2-21.46c.54-2.54,1.74-5,2.49-11,.51-5.35.64-8.49,0-12.25-1.36-7.89.75-7.5-2.5-17.5-5-1.25-6.75-7-11.25-15.5Z"/><path class="cls-21" d="M610.34,145.77a14,14,0,0,1,10.42-2.4,4.36,4.36,0,0,1,3.57,2.61c.9,2.2,1.14,4.72,1.77,7a116.53,116.53,0,0,0,6.35,16.2,84.39,84.39,0,0,0,4.69,9.78c.8,1.3,1.91,2.42,2.68,3.74,1,1.73.26,3.11-1,4.46-.8-1-1.14-2.31-2-3.27a6,6,0,0,0-3.44-1.67,14.72,14.72,0,0,0-4.14-.22c-.45.05-1,.41-1.16-.09s.29-1.38.23-1.93a16.07,16.07,0,0,0-.6-2.16c-.31-1.11-.59-2.23-.91-3.34a62.25,62.25,0,0,0-3.14-7.73c-.63-1.43-1.37-2.82-2-4.25s-1.06-2.73-1.7-4a57.73,57.73,0,0,0-3.67-6.57c-1.58-2.42-3.09-4.89-5.45-6.62Z"/><path class="cls-22" d="M483.71,289.27A79,79,0,0,1,488,298c1.64,4.23,1.15,8.57,1.93,12.9,1.77,9.75-1.49,19.26-3.78,28.58-2.44,9.93-3.69,18.43-5.68,28.08-.89,4.3-.88,7.35-1.51,12.35-.24,1.89-1,8.68-2.56,10,.53-8.19-1.58-16.62-1-24.88.63-9.56,3.17-19.07,5.11-28.4,1.84-8.82,4-16.68,3.41-25.8-.15-2.14.54-23.54-1.66-23.8l1.5,2.25Z"/><path class="cls-23" d="M463.21,406.23c-2.46-3.59-.58-10.21.84-15.67.58,3.33,5,13.67,9,11.91,2.82-1.24,1.66-5.92,2.05-8.71,1.39.64,2.3,2,3.92,2,1.46-.06,4.05-1.58,3.93-3.21,1,1.87-2.78,14.85-5.2,22.21-2.48,7.52-2.05,16.14-2.05,23.95,0,9.56.18,19,.88,28.48.32,4.38,1.52,9,2.25,13.36a37.4,37.4,0,0,1,.33,5.8c0,2-3.73,1-5.07.75-1.75-.37-3.46-.85-5.22-1.18-1.57-.29-3.49-1.47-5-1.46-1.95,0-1.23-8.55-1.39-9.82a14.68,14.68,0,0,0-1.37-5.29c-1.42-2.69-.44-3.65.5-6.32A55.8,55.8,0,0,0,464,450c.35-4.11.62-8.23,1-12.33.4-4.41.27-6.67.44-12.17a42.43,42.43,0,0,0-.83-8.88c-.34-2.67-.66-6.3-.88-6.08C464.1,410.71,463.21,406.23,463.21,406.23Z"/><path class="cls-24" d="M488.75,327.35c-.06.84,11.05-3.44,12.84-4.5a37,37,0,0,0,10.76-10.26,34.5,34.5,0,0,0,4.07-7.74c1.38-4,3.16-6.42,3.83-8.33,2-5.79,5.34-11.34,6.5-17.84-2,3.17-5.92,6.21-8.08,9s-5,5.34-7.44,8c.49-.59,3-6.64,1.86-7.23-3.9,3.58-6.47,8.09-10.83,11.39-4.16,3.15-7.39,6.06-14.46,4.5-.51,2,.6,22.63.62,22.64h0C488.41,327.18,488.75,327.35,488.75,327.35Z"/><path class="cls-25" d="M548.42,264.35a38.1,38.1,0,0,1-10.35,19.3,28.86,28.86,0,0,1-9,6,12.14,12.14,0,0,1-3.17.35c-1.59-.1-2.31,2.79-2.73,4-1.35,3.77-3.15,6.36-4.58,10.08a34.48,34.48,0,0,1-2.67,6c-.5.66,1,1.33,2.83,2,2.81,1,5,2,7.75,1.41,1.21-.25,6.78-1.29,7.49-2.39-.43-2.33-2.16-3-1.3-5.91.54-1.8,2.76-4.94,4.73-5.46,1.46-.39,1.69.09,1.81-1.79s1-3.66,1.86-5.48c1-2.19,3.72-3.87,5.72-5s4.15-1.31,5-3.94a23.3,23.3,0,0,0,1.26-8.79c-.3-2.87-1.5-10.82-4.6-10.95v.67Z"/><path class="cls-26" d="M534.09,311c0-2,.83-9.38,4-9,1.82.19,3.44,8.94,4,10.29-.23-5.15,1.29-9.57,3.33-14.16,1.48,7.22,5.25,14.37,7.47,21.42,1.78,5.65,6.6,10.33,8.72,15.54-4.45-4.88-9.45-6.74-15.12-10-3.86-2.26-8.83-12-12.75-14.67Z"/><path class="cls-27" d="M551.09,293.67c9.07,10.56,8.31,24.79,12.75,37.29A35.28,35.28,0,0,0,573.75,346a45.79,45.79,0,0,0,7,4.87c2.21,1.33,3.8,4.59,6.24,5.43.45-1.7-3.87-6.14-4.43-7.73-1.37-3.88-3.69-7.22-4.94-11.25-.16-.5-2.3-8.37-3-6.58a15.63,15.63,0,0,1-1.88,2.83c-1,1.44-1.49-1.14-1.76-1.81-2.89-7.23-4.57-14.81-7.68-22a51.27,51.27,0,0,0-6.57-10.42c-1.54-2.06-3.29-4.57-5.67-5.7Z"/><path class="cls-28" d="M583.75,353c.46.11,1.84,2.08,2.21,2.58a4.11,4.11,0,0,1,.44,2.86c0,1.42.77,1.94,1.7,2.86,1.31,1.27,3.49,5.7,7.32,5.86,4.19.19,7.49,5.44,10.11,7.84a69.87,69.87,0,0,1,10.57,12.33c.89,1.33,2.33,2.79,2.77,4.34.57,2.06.45,4.86.56,7,.18,3.43,6.93,7.82,10.34,7.3.93-.14,2-.15,2.93-.35.55-1.4.69-1.93-.94-2.34-2.27-.56-5.41-1.37-7.17-3-1.42-1.34-1.71-4.37-1.82-6.24-.09-1.53-.07-5.68-1.06-6.9,2.12,1.84,4.8,2.89,7,4.66,1.64,1.34,3.95,4.56,6,5.1-1.57-8.81-10.47-9.38-17-17.88-4.66-3.84-5.16-4.67-8.66-7.84-1.74-1.57-9.2-5.89-8.26-8.83,1.31-4.08,3.1-7.74.51-11.68-2.15-3.29-6.75-7.23-10.59-8.18-5.82-1.44-1.76,5.45-1.56,7.44.61,5.94-3.33,1.53-6.44,2.42.34.22.66.46,1,.67Z"/><path class="cls-21" d="M566.92,253.85c1.44,1.35,2.79,5.78,3,7.67.4,3.53,1.63,6.89,1.13,10.51-.26,1.8.45,6.53-2.37,6.49a9.66,9.66,0,0,0-4.43.91c-.78.39-2.46,1.65-3.23,1.72,3-4.14,4.11-8.18,5-13.07a41.54,41.54,0,0,0,.26-7.23c0-1.35.72-6.36-.66-7.33a6.81,6.81,0,0,1,1.33.33Z"/><path class="cls-29" d="M366.79,230.77a149.26,149.26,0,0,0,7.23,19,116.94,116.94,0,0,0,10.5,18.5c7.76,10.67,16.62,19.06,26,28.33,10.21,10.09,30.59,18.17,44.59,19.25,0,0-3.37-10-3.42-10.08-3.58-7.67,1-16.75.92-17.08-1.7-6.79-1.42-14.09.58-18.92-.46,1.1-4.14,9.39-6.17,14.83a50.45,50.45,0,0,0-2.08,9.59c-.93,8.14,2.17,7.91-4.92,6.08-13.14-3.4-23.83-7.17-34.33-16.67-8.46-7.65-18-16.62-23.83-26.83-2.67-4.67-5-9-8.07-15.16-2.13-4.28-6.18-10.76-7.74-15.14a34.61,34.61,0,0,1,.41,4.31Z"/><path class="cls-30" d="M486.42,217.35c1.55.22,3.17-.37,4.81-.15a55.89,55.89,0,0,1,6.27,1.2c3.51.89,7.17,2,8.33,5.94,1.23-1.29,1.27-3.32,1.92-4.89.92-2.25,1.71-4.54,2.67-6.78,2.1-4.91,4-9.87,6.26-14.71,4-8.47,8.89-16.05,14-23.82,5.89-8.86,13-16,20.65-23.4,3.7-3.57,7.82-6.91,11.27-10.72a49.56,49.56,0,0,1,5.38-5c1.83-1.51.85-.9,1-2.82.07-.9.6-2.34.35-3.2-.9-.19-2.15,1.7-2.69,2.22-1.83,1.73-4.09,3-6,4.53-4.39,3.55-7.75,8.08-12.15,11.61-8.59,6.91-16,15.71-23,24.16s-13.76,16.87-20.61,25.33c-5.5,6.79-11,17-18.42,20.46Z"/><path class="cls-31" d="M420,242.18c0-.25-.24-3.16-.16-4,0,12.67,3.5,31,7.7,45.84,2.36,8.32,6.18,16.15,9.65,24,.84,1.9,1.72,4.78,3.23,5.83,3.84,2.66,10.11,2.75,14.88,3.5.26.17-.12-1.65-.5-1.75-9.75-2.37-12.47-16.14-14.88-22.5a166.65,166.65,0,0,1-7.12-26,197.83,197.83,0,0,1-3.71-28,74.48,74.48,0,0,1,.33-10.25c0,.66-8.25-1.16-9.64-1.49-.75,3.33-.36,4.49-.11,8.08Z"/><path class="cls-32" d="M576.25,102c-.65-.09-1.42,3-1.1,4,1,3.06,6.56.46,8.27-.38,3.75-1.83,7,8.93,8.25,11.67-13.16,4-16.71,29.79-1.71,30.63,5.67.31,5.71-1.43,9.42,3.66,2.39,3.3.94,3-4,8.79-3.38,4-11.28,21-7.27,24.9-2.07,1.52-6.31-2.77-8.23-4.32a78.65,78.65,0,0,1-8.21-8c-6.36-7-6.45-19.47-6.79-28.39-.31-7.91,1.65-16.27,3.09-24a94.37,94.37,0,0,1,2.55-11.81c.94-2.87,2.45-9.54,3.87-8Z"/><path class="cls-32" d="M584.09,105.35c3.41-.27,8.82-6.62,8.87-10,.12-6.76-8.86-3.56-8.79-5,.06-1.29,6.5-3.48,7.58-3.68,3.59-.63,9.75,5.36,12.17,7.6,1.08,1,2.44.7,4.92,1.66,1.5.59,3,2.66,4.58,5.17,3.07,4.9,5.56,9.16,10.17,12.75,3.67,2.88,1.86,2.71,2.87,7.3,1.11,5,1.79,9.94,3.29,15,1.25,4.21.73,7.15.67,11-.08,5.84,1.67,8.92.5,9-1.17-3.25-2.83-7.54-5.67-9.25a15.47,15.47,0,0,0-11.69-1.34c-4.72,1.61-9.84,5.64-13.22,9.34-1.72,1.87-4.84-6.26-5.86-7.08,10.68-3.7,12.17-17,7.68-25.65-2.23-4.28-5.68-4.68-10.07-4.68-2.67,0-7.82-9.35-8-11.67Z"/><path class="cls-33" d="M421.25,164.68c-.53.16-2.17,1.25-2.66,1.5-1,.52-3.15,2.83-4.06,3.47a55.79,55.79,0,0,0-6.25,5.46c-1.24,1.21-2.47,2.45-3.66,3.71a44.65,44.65,0,0,0-3.43,4.33c-1.1,1.51-2.27,2.92-3.48,4.34s-2.37,3.16-3.55,4.73-2.24,3.17-3.35,4.75S389,200,388,201.5c-1.65,2.47-2.81,5.26-4.27,7.84s-5.44,10.68-4.27,8.51c.11-.21,9.69,4.35,12.83,5.33,5.25,1.65,10.51,1.77,15.86,3.06,4.51,1.08,9,2.43,13.38,3.84,2.14.68,6.22,2,8.43,2.44,2-2.65,2.83-6.3,4.17-9.34,1.42-3.25,2.33-6.35,4-9.5s2.8-5.87,4.33-9.16a66.18,66.18,0,0,1,3.83-6c.8-1.25.15-2,1.13-3.11a11.06,11.06,0,0,0,3.23-9.11c-.19-4.47-1.8-9.37-5-12.61-2.33-2.37-5.34-3.15-8.5-3.7-2.4-.42-4.8-.92-7.21-1.25-2-.28-1.86-2.1-3.83-2.56s-2-2.64-3.84-2.83Z"/><path class="cls-34" d="M507.38,107a6.4,6.4,0,0,0,2.84-.6,40.14,40.14,0,0,0,5-2.25c2.24-1.15,4.54-2.25,6.67-3.61.81-.52,1.62-1.05,2.42-1.59.43-.29.75-.64,1.25-.36a21.22,21.22,0,0,0,2.6,1.33,5.09,5.09,0,0,1,1.59.72,24.46,24.46,0,0,0-5.25,1c-.41.15-.88.34-.7.84s.91,1,1.37,1.36a27.66,27.66,0,0,0,7.11,3.7,8.22,8.22,0,0,1-2.23,1.4c-1.65.94-3.24,1.95-4.85,2.94a17.26,17.26,0,0,0-1.55.94,4,4,0,0,1-2.1.68,17.22,17.22,0,0,1-5.36.13,20,20,0,0,1-3-1.1,6.13,6.13,0,0,1-3-2,21.75,21.75,0,0,0-1.48-1.82,13.17,13.17,0,0,0-1.16-1.41Z"/><path class="cls-35" d="M435.71,95.39a96.58,96.58,0,0,1,7.5,14c1.3,2.94,5.42,5.88,7,8.88,1.76,3.33,7.7,7.51,10.38,10.12,4.81,4.69,9.33,8.33,13.75,13.38,3.6,4.12,7,8.23,10.75,12.25,1.5,1.62,2,4.62,3.62,6.12s6.1-3,7.88-4.29c5.66-4,6.17-4.56,9.66-7.33,2.54-2,2.69-2.2,5.09-4.38-1.22-1.33-2.19-3-3.88-5-3-3.5-4.83-4.67-7-7.5a39.9,39.9,0,0,0-4.12-4.5c-5.33-5.55-4.12-6.36-7.88-9.87-5.26-4.93-7.82-12.35-12.49-17.82-2.43-2.85-4.79-5.74-7.05-8.73s-33.32.2-33.08.92-.25,2.25-.13,3.63Z"/><path class="cls-36" d="M418.75,154.77l-2,.5c.17,1.08.11,2.36.34,3.16a31,31,0,0,0,1.71,5,25.91,25.91,0,0,0,3,5.5,16.3,16.3,0,0,0,2.62,2.63c.79.55,1.24,1.88,2.25,1.75-3.49,4.29-5.41,6.95-7.49,12.09-.81,2-1.89,4.58-1.39,6.78.34,1.46,1.57,2,2.91,2.32s2.84.53,4.23.95c1.6.48,3.14,1.14,4.72,1.68a29.39,29.39,0,0,0,12.11,1.25c2.77-.24,6.49-.45,8.62-2.51a10.35,10.35,0,0,0,2-3.28c.79-1.72,1.54-3.46,2.45-5.13a58.92,58.92,0,0,1,9.26-12.28,33.76,33.76,0,0,1,8.25-6.82c4.34-2.34,8.16-3.37,12.57-5.56,2.82-1.39,6.24-2.37,9.41-4.78,5.25-3.88-1.23-2.16-3.17-1.17-.9.46-3.26,1.06-4.17,1.5-1.34.66-4.67,1.63-6.16,2.17-7.42,2.66-11.1,3.07-18.33,3.44a56.86,56.86,0,0,1-9.41,0c-2.77-.32-5.3-.42-8.08-.66-5-.42-11.94-1.48-16.77-3.37Z"/><path class="cls-36" d="M434,161.35a17.7,17.7,0,0,1,2.39-2.79c.67-.6,1.17-1.32,1.81-1.93,1.73-1.62,2.46,2,2.91,3.09.37.9.88,1.79,1.22,2.69.4,1.1-.73,1.56-1.66,1.69a8.55,8.55,0,0,1-7.42-2.75Z"/><path class="cls-36" d="M427.71,169.27c-6.63,7.24-11.55,16.14-16,25a94,94,0,0,0-4.94,12c-1,2.93-2.61,5.15-3.83,8a33.89,33.89,0,0,1-3.63,5.87c-1.64,2.37-2.95,3.72-4.12,5.25-5.67,7.42,3.87,9.08,8.12,9.08.34,0,7,7.18,15.26,7.93,5,.46,8.79.42,11.12-1,1.7-1,.29-4.16-.5-5.5-1.49-2.53-6.37-5.25-8.25-7.5-1.11-1.33-3-3-3-6.12,0-.13-.49,1.4,1.75-3.13,1.71-3.46,2.8-4.66,4.75-8a73.23,73.23,0,0,1,8.63-11.37c2.55-2.94,4.91-5.14,6.41-9.14,1.63-4.34-1.91-9.09-4.18-13a25.92,25.92,0,0,0-7.36-8.22S427.72,169.42,427.71,169.27Z"/><path class="cls-37" d="M418.25,71.68c-5.33-3.16-8-3.54-9.66-.91a23.88,23.88,0,0,0-3.25,11.5c-.25,10.75,5,18.92,10.08,27.75,6.75,11.75,7.67,14.83,15.67,26.33,2.74,3.94,6.39,8.93,8,12.33s3.25,5.84,0,10.84c-3.47,5.34,7.28,18,15.7,14.58,3.86-1.55,6.65-5.87,8.8-9.33s.5-1.75,2.75-5.75c1.05-1.88,2.44-6.13,1.25-9.25-1.63-4.27-4.28-11.26-6.5-15.25-6-10.76-8.5-19.25-13.67-30a50.66,50.66,0,0,1-3-7.34c-1.24-3.9,1.33,3.88,0,0-2-5.83-2.89-6.29-7.33-10.5-3.17-3-4.84-5.66-9.5-8.5-2.68-1.62-5.84-4.83-9.17-6.5Z"/><path class="cls-38" d="M404.75,81.35l-3-5.33c2-10.25,28.79-23.09,36.67-24.67a75.4,75.4,0,0,1,28.33-.67c8.36,1.38,16.34,2.2,24.09,5.59,8,3.5,14.75,5.75,8.75,7.91-3.87,1.4-8.68,5.79-7.41,10.11,2.14,7.26,12.14,8.65,18.33,10.38a71.72,71.72,0,0,0,14.31,2.56c2,.14,6.24-.49,7.89,1s-1.83,5-2.43,6.21c-2.08,4.23,2.85,8.18,4.94,11.35s4.87,5.7,7.37,9.2c.35.49-5.17,2.41-9,2.25-9.34,2.08-12.48,3-12.5,3-7.5-6-13.83-7.68-11.67-5.59,2.67,2.59,13.73,10.71,11.92,10.84-3.63.25-4.13,0-6.75,3.25-1.65,2-6,7.12-1.5,9.75-.22,0,1.12,4.37-10.13-4.63-.79-.63-3.13-.14-5.87-1.62-5.18-2.81-8.5-6.25-11-8-6.06-4.24-8.94-5.89-12-8.5-1.79-1.53-2-.5-4.75-.75-6.92-.34-3.92.16-9.25-.84-9.5-.91-7.67-.33-12.17-8.66-5.83-12.84-5-9.67-10.5-15.34-16.5-11-10.17-6.25-22.67-11Z"/><path class="cls-39" d="M471.21,64.77A42.72,42.72,0,0,0,475.34,67c1.62.87,1.89.74,2.62,1.62a18.63,18.63,0,0,1,2.12,3.47,18.87,18.87,0,0,1,1.86,4.39,3.18,3.18,0,0,1,0,2.11,1.84,1.84,0,0,0,.17,1.9,48,48,0,0,1,2.52,5.39c.84,1.91,1.78,3.81,2.73,5.67s1.78,3.53,2.59,5.34c.31.68.56,1.4.92,2.06s.55,1.24.9,1.78,1.11.31,1.73.25c.46,0,.92-.06,1.37-.14a4.12,4.12,0,0,1,1.1-.16c.78.13.81,1.26,1.17,1.8s1.24.61,1.94.65a15.52,15.52,0,0,1-.51-2.6c-.06-.74-.57-1-.64-1.78a24.8,24.8,0,0,0-1.5-5.34,22.76,22.76,0,0,1-1.08-8.08,17.63,17.63,0,0,0,.2-3.32c-.14-.88.55-1.35-.62-2.1a1.44,1.44,0,0,1-.75-1.58,10.83,10.83,0,0,1,.92-3.08c.85-2.36,1.21-4.43,2.16-6.75a18.39,18.39,0,0,1,2.82-5.2c.41-.44,1.06-1.08,1-1.74s-.78-1-1.31-1.22c-2-.87-3.83-2.59-5.7-2.09-1.33.35-2.83,2.13-3.63,3.25a7.11,7.11,0,0,0-1,3.78c.07-.34-.48-.67-.69-.81a12.68,12.68,0,0,1-1.31-1,10.58,10.58,0,0,0-1.61-.82c-.66-.41-1.4-.69-2.06-1.1a35.06,35.06,0,0,0-4-1.54c-.72-.18-1.49-.27-2.21-.38a4.16,4.16,0,0,0-1.61-.13c2.07,2.12,4.6,3.7,6.83,5.64.86.74,2.31,1.89,2.45,3.13s-1.28.65-1.86.39c-2.8-1.26-2.53-2-5.26-3.44-1.7-.87-4.5-1.5-6.75-2.38,0,0-6.54-.21-5.13,0Z"/><path class="cls-40" d="M527.21,100l.08-.12c-.25.22-.45.51-.7.73s-.69.57-1,.87a7.07,7.07,0,0,0-.94.87c-.35.48-.93.73-1.34,1.17-.74.78-1.64,1.39-2.36,2.19a4.88,4.88,0,0,1-.48.54c-.22.19-.51.32-.74.51-.39.31-.71.63-1.13.91-.94.63-1.92,1.2-2.85,1.84-.62.42-1.38.6-2,1a8.89,8.89,0,0,1-2.13.83c-.51.15-1.05.21-1.57.31-.33.07-.83-.1-1.09.11,0-.71.24-.59-.37-1a4.16,4.16,0,0,0-1.82-.75c-.86-.18-1.7-.72-2.56-.94a17.61,17.61,0,0,1-2.44-.75c-.86-.37-1.35-2-1.58-2.82a20.49,20.49,0,0,1-.54-4,38.41,38.41,0,0,1-.08-8.37A13.17,13.17,0,0,1,502,86.8c.5.54.89,1.15,1.37,1.7a31.69,31.69,0,0,0,2.37,2.41A26.15,26.15,0,0,0,512.13,95a8.78,8.78,0,0,0,4.48.66,10.87,10.87,0,0,0,2.78-.48,15.43,15.43,0,0,0,1.93-.91,10.58,10.58,0,0,1,1.87-.71,3,3,0,0,1,1.54-.22c.36.11.57.49.77.77.38.55.77,1.1,1.13,1.66a25.25,25.25,0,0,1,1.3,2.73c.29.57-.09.85-.47,1.28Z"/><path class="cls-41" d="M495.94,79.66c2.1,3.44,4,7.07,6.41,10.31a24.73,24.73,0,0,0,6.92,6.53,18.59,18.59,0,0,0,3.84,1.91,17,17,0,0,0,4.25.94c2.15.29,3.89-.82,5.58-1.83.57-.35,1.86-1.42,2.44-.94.37.31.47,1.38.75,1.94a3.38,3.38,0,0,0,1.61,1.6,3.27,3.27,0,0,0,2.67,0,9.14,9.14,0,0,0,4-3.33c1-1.21,3.44-3.78,2.58-5.59-.4-.85-1.17-1-1.93-1.5a27.62,27.62,0,0,0-4.76-2.33,120.54,120.54,0,0,0-15.77-4.82,131.19,131.19,0,0,0-13.74-2.81,10.9,10.9,0,0,0-4.55,0Z"/><path class="cls-42" d="M494.13,78.85c1.84-6.51,3.64-13.67,8.51-18.67a25.26,25.26,0,0,1,11.24-6.58,26.37,26.37,0,0,1,11.75-.5c4,.77,9.29,4,11.5,7.5a33.3,33.3,0,0,1,4.75,13.5c.62,4.08-.3,9.38-1.5,14.5-1,4.08-8.56,2.88-12.29,2.37-6.75-.92-13.57-2.83-20.17-4.45-5.11-1.26-8.5-4-13.54-7.17Z"/><path class="cls-43" d="M285.42,296c2.27-1.57-14,5.38-14.83,7.33-3,6.75-3.76,14.76-5.75,19.75-3.78,9.45-8.4,19.44-14.39,27.64-4.85,6.62-10.36,11.61-14.76,19.72-2.48,4.57.46,15.12,5.15,9.81,5-5.67,8.76-9.95,12.42-15,7-9.64,13.45-19.68,20.79-29.08,6.32-8.08,14.29-15.44,18.37-25,3.27-7.69-2.4-14.67-9.67-13.5Z"/><path class="cls-44" d="M634.59,414c2.39-.27,4.8-.47,7.16-.95,2.15-.43,5.43-.89,6.82-2.8,1.62-2.21-.13-5.69-1.59-7.52a26,26,0,0,0-2.22-2.23,43.17,43.17,0,0,1-3.42-3.75,20.62,20.62,0,0,1,6.48,3.15c1.42,1.17,2.46,2.74,3.79,4,1.62,1.56,4.53,3,6.35,4.34a31.36,31.36,0,0,1,5.25,4.5c1.49,1.62,3.43,4,4.13,6.12.75,2.34-2,3.38-3.75,3.75a84,84,0,0,1-12,1.63,62.57,62.57,0,0,1-10-.25,8.73,8.73,0,0,1-6.12-3.24c-1.44-2-.89-4.53-.38-6.76Z"/><path class="cls-39" d="M414.09,79.39c-1.13-.5,4.23-1,6.37-1a24.21,24.21,0,0,1,7.13,1,38.14,38.14,0,0,1,6.5,2.25c8,3.46,11.56,8.27,17.61,14.1a34.18,34.18,0,0,0,6,5.46c.32.21-4.61-6.35-4.87-6.68-4.43-5.57-9.13-13.72-9.53-21.24.28,5.24,9,13.24,15.72,18.8-.67-1.84-2.5-5.5-3.56-8.1s-2.07-6.5-3.67-8.44c2.36,2,4.35,7.65,6.23,10.42,2.57,3.81,4.05,8.81,5.81,13,1.53,3.68,4,6.92,5.49,10.63.58,1.47,2.5,6.88,4.66,7.12-6,.13-16.11-.83-22.13-2.84-.5-.17-4.66-10-7.5-14.33-7.22-11-9.77-12.31-21.9-17.94Z"/><path class="cls-45" d="M525.42,96.85a20,20,0,0,1-1,5.74,11.62,11.62,0,0,1-.84,1.87,2.46,2.46,0,0,1-.67,1,1.68,1.68,0,0,1-2-.06,6,6,0,0,1-.58-1.09c-.22-.43-.44-.87-.64-1.31.28-.07.55,0,.83-.09a2.72,2.72,0,0,0,1-.62,7.2,7.2,0,0,0,1-1.22c.31-.5.56-1,.87-1.54a10.29,10.29,0,0,0,1-2.14,2.55,2.55,0,0,0,.13-.39c0-.13-.06-.26.12-.27s.11.08.17.09.15,0,.22,0,.27.09.41.1Z"/><path class="cls-45" d="M525.92,98.1a6.31,6.31,0,0,1,0,1.23c0,.2-.07.4-.12.6l-.15.54c-.1.33-.16.68-.29,1a2.88,2.88,0,0,1-.3.72l.3-.15c.13-.08.22-.19.35-.28a7.36,7.36,0,0,0,.94-.54,6.38,6.38,0,0,1,.67-.49,5.34,5.34,0,0,0,.5-.46,1.73,1.73,0,0,0-.28-.19,1.94,1.94,0,0,1-.26-.31c-.13-.17-.3-.3-.42-.47a3.73,3.73,0,0,1-.84-1.37Z"/><path class="cls-46" d="M517.21,102.14a27.14,27.14,0,0,0,.13,3.62,4,4,0,0,0,.38,1.26c.1.22.16.79.46.85a3.23,3.23,0,0,1,.78-.5,5.41,5.41,0,0,0,.88-.76c.25-.22.49-.38.75-.59s.41-.27.48-.47a2.7,2.7,0,0,1-.45-.56,4.44,4.44,0,0,1-.41-.85c-.13-.35-.15-1.13-.56-1.25-.2-.06-.36-.08-.57-.16a5.64,5.64,0,0,1-.62-.21c-.22-.11-.45-.22-.66-.34s-.37-.35-.59-.41Z"/><path class="cls-46" d="M513.59,106.14a.36.36,0,0,1,0-.1,5.53,5.53,0,0,1,1.35,0,3.35,3.35,0,0,1,.78.13,4.08,4.08,0,0,0,.78,0,2.28,2.28,0,0,1,.69.13,5.44,5.44,0,0,0,.81.11c.23,0,.47.12.69.17s.4.23.61.24c0,.2-.5.69-.65.82a.71.71,0,0,1-.67.13c-.27-.07-.48-.31-.73-.42s-.55-.18-.82-.27c-.53-.17-1.07-.29-1.61-.43l-.75-.2a2.18,2.18,0,0,0-.75-.15Z"/><path class="cls-46" d="M514.46,108.52c.12.14.39.14.56.19s.44.13.64.17.36.06.55.11.4,0,.59.05a7.77,7.77,0,0,1-1.26,1c-.11.06-.25.07-.36.13s-.17.19-.27.24a.38.38,0,0,1-.5-.15A3.79,3.79,0,0,1,514,109c-.09-.56.47-.61.88-.6Z"/><path class="cls-47" d="M501,88.52v0Z"/><path class="cls-21" d="M559.09,216c5.09,9.76,9,18.33,5.41,29.61-1.52,4.75-3.44,8.35-3.17,13.27.3,5.35-.69,12.65-4.52,16.8,2.1-5.08,1.17-11.68-.61-16.67-1.5-4.17,2.55-11.22,3.48-15.43a53.21,53.21,0,0,0,.55-17.58c-.26-2.44-3.5-8.32-1.14-10Z"/><path class="cls-48" d="M501,88.39A20.85,20.85,0,0,0,499.41,96a41.58,41.58,0,0,0,.32,7.31c.11.94.37,1.85.54,2.78.11.62.09,1.42.67,1.81a8.91,8.91,0,0,0,2.12.61c.72.24,1.41.53,2.14.76a17.76,17.76,0,0,1,.3-9.53,22.07,22.07,0,0,1,1.27-3.34c.11-.23.39-.53.42-.79s-.26-.52-.47-.69A18.38,18.38,0,0,1,505.17,93c-.59-.65-1-1.36-1.66-2a15.76,15.76,0,0,1-2.67-2.93Z"/><path class="cls-41" d="M496.67,69.1l.07,0c.17.53.27,1.09.41,1.64A16.33,16.33,0,0,0,498,72.9c.36.88.85,1.68,1.27,2.53.22.43.46.84.68,1.26s.38.85.62,1.25a13.21,13.21,0,0,0,.78,1.17c.18.23.26.5.42.74s.3.43.42.67c.39.79.85,1.57,1.29,2.33s.74,1.35,1.1,2c.21.41.48.79.68,1.2a4.76,4.76,0,0,1-1.5-.19,1.41,1.41,0,0,1-1.13-.89c-.83-1.61-1.79-3.14-2.66-4.73s-1.79-3-2.59-4.52c-.33-.63-.76-1.22-1.07-1.86-.17-.35-.29-.73-.47-1.08a1.91,1.91,0,0,1,.19-1.67c.23-.59.45-1.19.66-1.79Z"/><path class="cls-21" d="M527.75,183.52a85.07,85.07,0,0,0-10.54,19.31,171.08,171.08,0,0,0-6.49,19.06c-.46,1.69-1.05,3.38-1.38,5.1a5.64,5.64,0,0,0,.87,4.15,48.46,48.46,0,0,1,4.49,9.66c.5,1.56.63,3.54,1.58,4.9s2.76,1.71,4.18,2.2c-1.46-9.38-.42-18.87,1.42-28.13,2.29-11.48,6.52-22.47,10.87-33.3,1.64-4.07,3.38-8.09,5.18-12.09a25.74,25.74,0,0,0,2.4-6.6c.2-1.36-.18-2.45-1.53-1.3-1.88,1.61-3.19,4.07-4.48,6.15-2.83,4.55-2.34,3.16-4.9,7.89Z"/><path class="cls-41" d="M501.59,85.93a45.14,45.14,0,0,0-2.54,8c-.5,2.08-1.06,4.16-1.45,6.27-.1.54-.21,1.08-.3,1.62-.05.34-.14.8.12,1.08a1.94,1.94,0,0,0,1,.37,2.65,2.65,0,0,1,1,.47c.77.62.87,1.82,1.05,2.72a8.84,8.84,0,0,1-.08-1.27c.06-.57.14-1.14.23-1.71a33.2,33.2,0,0,1,.84-3.81c.17-.61.39-1.21.57-1.82s.47-1.22.66-1.85c.37-1.21.81-2.39,1.25-3.58.17-.45.36-.9.55-1.35.11-.25.25-.49.34-.75s0-.42-.24-.62a12.57,12.57,0,0,1-.82-1c-.32-.37-.58-.77-.89-1.15s-.48-.52-.7-.8a7.44,7.44,0,0,0-.52-.73,2.14,2.14,0,0,1-.28-.32Z"/><path class="cls-41" d="M496.59,80.77v-.06c0,.24-.15.46-.19.7-.06.39-.11.79-.16,1.19-.1.8-.1,1.61-.21,2.41a18.41,18.41,0,0,0,0,2.35,17,17,0,0,0,0,2.14c.09.71.25,1.41.38,2.11a10.16,10.16,0,0,0,.62,2c.24.6.39,1.26.67,1.84.15.33.33.65.49,1a6.51,6.51,0,0,0,.33.71,22.61,22.61,0,0,0,1.07-2.48c.19-.47.64-1.15.37-1.66a9.88,9.88,0,0,1-1.25-4.93,7.54,7.54,0,0,1,.42-2.31c.13-.38.48-.87.4-1.29a2.78,2.78,0,0,0-.74-1.1,9.89,9.89,0,0,1-.71-.89,17.16,17.16,0,0,0-1.47-1.9Z"/><path class="cls-39" d="M508.84,111.43a4,4,0,0,1,.91.06,2.63,2.63,0,0,0,1.17-.17c.8-.24,1.64-.38,2.41-.69a11.61,11.61,0,0,0,2.1-.94c.37-.23.78-.41,1.16-.63s.79-.46,1.18-.72a8.33,8.33,0,0,0,1.2-.84c.19-.18.4-.33.6-.5a3.38,3.38,0,0,0,.4-.44c.22-.21.43-.43.64-.65s.28-.53.63-.39a1.55,1.55,0,0,0,.79.17,1.83,1.83,0,0,0,.78-.38,3.28,3.28,0,0,0,1-1.66c.06-.18.15-.34.21-.52a1.39,1.39,0,0,1,.19-.49,2.42,2.42,0,0,1,.83-.46c.32-.15.6-.32.9-.49a7,7,0,0,0,1.55-1.33,2.16,2.16,0,0,0,1,.16,2.41,2.41,0,0,0,.9-.07c.47.57.92,1.12,1.43,1.64.35.36.6.81.93,1.18.17.18.23.39.41.58s.18.35.39.49a16.24,16.24,0,0,0-3.92-.48c-.32,0-1.17,0-1.27.44s.42.58.65.69a15.69,15.69,0,0,0,1.87.61c.81.24,1.61.49,2.39.8a8.09,8.09,0,0,1,2.36,1.29,4.1,4.1,0,0,1-1.56.09c-1-.12-1.92-.33-2.89-.38a3.66,3.66,0,0,0-2.52.44c-.63.55.39,1.12.82,1.33a28.23,28.23,0,0,0,4.24,1.34,18.12,18.12,0,0,1,2,.69A2.82,2.82,0,0,1,536,112c.55.76-1.07,1.08-1.5,1.16a29.87,29.87,0,0,1-4.73.37,66.17,66.17,0,0,0-9,.82,10.46,10.46,0,0,0-4.9,1.69c-.21.17-.38.31-.66.2a4.6,4.6,0,0,1-.83-.58,11,11,0,0,0-2.52-1.21,11.77,11.77,0,0,0-1.66-.5,3.09,3.09,0,0,1-1-.27c-.7-.43-.59-1.45-.49-2.13Z"/><path class="cls-39" d="M472.09,114.85c2,1.77,4.41,2.88,6.49,4.52,2.71,2.13,5.48,4.16,8.2,6.26,1.23,1,2.55,1.75,3.79,2.67a39,39,0,0,0,3.51,2.62c1.18.68,2.43,1.19,3.57,1.94a5.14,5.14,0,0,0,3.37,1c1.8-.2,1.6-2.29,2-3.62a8.09,8.09,0,0,1,3-4c-1.21.44-2.39.92-3.62,1.3a10.35,10.35,0,0,1-6-.12,25.92,25.92,0,0,1-6.69-2.75c-1.41-.85-2.92-1.49-4.29-2.42.56,0,1.09.15,1.65.17.92,0,1.88.18,2.8.3a35.58,35.58,0,0,0,4.62,0,1.71,1.71,0,0,1-1-.21c-.69-.26-1.4-.37-2.1-.58-.89-.27-1.76-.56-2.64-.85s-1.47-.6-2.22-.8a39.93,39.93,0,0,1-4.09-1.48c-1.25-.48-2.51-.91-3.78-1.35a39.5,39.5,0,0,1-4.59-2c-.5-.24-1.08-.36-1.54-.64a8,8,0,0,1-.72-.55c-.21-.16-.57-.24-.48-.59Z"/><path class="cls-49" d="M519.25,124.85c-.82-.27-1.61-.61-2.4-.95a2.1,2.1,0,0,0-2.15,0,10.29,10.29,0,0,0-2.06,2.53c-.67.92-1.41,1.78-2.07,2.7a11.39,11.39,0,0,0-2.33,4.94c-.15,1.31.08,3.52,1.3,4.31a6.24,6.24,0,0,0,2.13.84c.85.14,1.2-.44,1.52-1.14-1.24-.28-3.31-.91-3.57-2.35a5.34,5.34,0,0,1,.5-2.85,17.8,17.8,0,0,1,3.25-5.51c.48-.53.92-1.39,1.53-1.76a3.61,3.61,0,0,1,2.32-.13c.73.11,1.85.46,2.2-.42Z"/><path class="cls-50" d="M466.75,63.68c6.09,1,17.69,7.61,15.59,14.21-.88,2.75,6.37,16.75,9.23,23.1-5.06,1.36-10.92-1.11-13.77-3,1.16.76,8.7,2.28,8.66.26s-2.85-5.07-3.87-6.63a94.72,94.72,0,0,1-5.77-9c-3.61-7.07-7.73-7.45-9-9.32-.17-.26,9.1,3,9.69,3.24,0-1.89-1.76-5.52-2.94-7-2.26-2.82-10.88-5.75-15.38-6.5,4.13-.75,5.63.37,7.54.66Z"/><path class="cls-50" d="M495.34,107a26.73,26.73,0,0,1,5.63.8c1.34.38,2.74.64,4,1.09,1,.35,2,.82,2.92,1.21s.73,1.63.76,2.59a2.56,2.56,0,0,0,.4,1.65c.42.51.94.86,1.32,1.42a5.26,5.26,0,0,1-1.2-.39c-.67-.2-1.37-.32-2-.55a24.59,24.59,0,0,0-2.49-.64c-.37-.09-.75-.12-1.11-.21-.15,0-.55-.07-.61-.22a3,3,0,0,1,1.88-.54c.65-.08.76-.37.32-.87a7.22,7.22,0,0,0-1.4-1,14.43,14.43,0,0,0-2.57-1.38,43.46,43.46,0,0,0-4.53-1.72,16.08,16.08,0,0,0-2.23-.54c-.42,0-1,0-1.21-.41a.85.85,0,0,1,.51-.25c.24,0,.45-.11.69-.12a2.31,2.31,0,0,1,1.25.25Z"/><path class="cls-51" d="M521.12,135.15c-.45-2.11-12.08-1.59-13.46-1.34a114.52,114.52,0,0,0-14.57,4c2.12.75,7.75,0,9.44.45-5,4-11.07.67-19.84,6.45,2.38-1.57,5.4-.26,8.4-.28s6,1,9,.75c-4.22,0-7.61,1.39-11.71,2.26-5.88,1.24-6.75,4.37-11.66,4.25,3.13.07,10.24,1,13-.9-3.32,2.36-7.57,3.77-10.82,7.39,4.5-2.12,7.82-3.24,10.45-2.45-.89.54-4.14,2.55-4.58,3.45,1.7-1.2,7-1.22,9-1.74,4.07-1.08,6.72-4.38,10-6.88,3.51-2.7,6.56-5.55,10.38-8.5,1.27-1,6.87-7,7.53-7.12Z"/><path class="cls-52" d="M497.84,69.77c2-4,4-8.76,8-11.13a3.29,3.29,0,0,1,1.94-.64c.62.09.74.72.76,1.25a20.51,20.51,0,0,1-.43,3.74c-.3,1.93-.58,3.86-.72,5.81a27.66,27.66,0,0,0,1.09,10.89c.33,1,.78,2,1.09,3a2.41,2.41,0,0,1,0,1.77c-.58,1.1-2.19,1-3.14.54-1.57-.78-2.47-2.56-3.31-4-1.3-2.25-2.67-4.48-3.85-6.8A11.07,11.07,0,0,1,498,69.39Z"/><path class="cls-53" d="M615.83,196.72c-.06-.36-.22-.14-.37-.44a5.83,5.83,0,0,0-2.69-1.81,6.37,6.37,0,0,0-1.06-.37c-.2,0-.55-.28-.75-.32s-.93-.54-1.2-.61a4.08,4.08,0,0,0-.94-.37,8.87,8.87,0,0,0-.36,1.65c0,.39.2.52.44.82a12.93,12.93,0,0,0,3.18,1.7,9.59,9.59,0,0,0,1.69.63,13.63,13.63,0,0,0,2.75.67c.4-.1-.68-1.5-.44-1.11Z"/><path class="cls-53" d="M610,193.77a20.93,20.93,0,0,0,1.64-5c.31-1.53.59-3.33-.2-4.73-1.65-3-6.19-3.65-8.24-.63a11.06,11.06,0,0,0-1.45,5c.29,0,.49.27.73.39s.65.49.89.47c.46-1.55,1.19-3.79,2.83-4.5a2.47,2.47,0,0,1,3.4,2,6.27,6.27,0,0,1-.44,2.26c-.25.67-.68,1.26-.89,2a7.84,7.84,0,0,0-.33,2c0,.82.46,1.23,1.13,1.62l.93-.91Z"/><path class="cls-53" d="M602.42,184.85c-1.25,3.25-3.26,6.91-2.15,10.42.51,1.6,2.39,2.44,4.07,2.57,1.86.14,3.44-1.13,4.59-2.46a6.28,6.28,0,0,0,1.22-1.93c.25-.75-1.51-1.75-2-2.35-1.08,3.08-2.86,5-5,3.58-.9-.59-.63-1.65-.52-2.66a18.85,18.85,0,0,1,1.06-3.75Z"/><path class="cls-54" d="M528.59,140.18h-.11c3.09,2.12,6,4.61,8.89,7,3.08,2.49,6.06,5.07,9.1,7.6,3.84,3.19,7.73,6.33,11.6,9.5s7.9,6.47,12,9.45c3.8,2.74,8.2,6.63,12.13,9.16,4.46,2.87,9.68,5.29,14.34,7.83,2.8,1.54,3.57,2.14,6.66,2.84a11.44,11.44,0,0,0,1-1.75,3.76,3.76,0,0,0,.25-1c0-.28.18.53.25.25s-.14.28,0,.16c-2-.65-3.1-1.89-4.83-2.66-2.8-1.26-6.61-3.09-9.33-4.5a98.92,98.92,0,0,1-9.17-6,109.35,109.35,0,0,1-10.5-7.5c-3.38-2.84-6.32-5.67-9.83-8.34s-7-5.1-10.17-7.83c-2.35-2-5.25-4.08-7.67-6-2-1.58-4.28-3.5-6.33-5-1.2-.88-1.33-2-3.5-2.9-3.37-1.39-6.07-1.11-5.08-.27Z"/><path class="cls-55" d="M574.92,115.68c2.23-3.33,5.4-5.63,8.82-7.65a59,59,0,0,1,12.53-5.64c3.31-1,8-2.06,10.94-1.87a19.73,19.73,0,0,1,7,1.68c2,1,4.19,4.88,3.25,4.75a17.6,17.6,0,0,0-6.43-2.26c-3-.39-5.74-.85-8.69-.24a52.39,52.39,0,0,0-9.13,2.63,56.75,56.75,0,0,0-11.25,6.5,42.05,42.05,0,0,0-5.77,5.4c-.71.77-1.36,1.58-2.11,2.31,0-.24-.13-.45-.17-.68a9.2,9.2,0,0,1,0-1c0-.59-.27-1.11-.13-1.7a8.13,8.13,0,0,1,.38-1.34c.22-.54.74-.86,1.08-1.34Z"/><path class="cls-56" d="M573.25,103.85c-.16,2.67-.13,4.18-.1,6.54.05,2.88-.07,5.42,0,8.29.12,3.94.5,8.21.88,12.13a95.8,95.8,0,0,0,7.38,27.94,62.07,62.07,0,0,0,4.92,8.75A135.45,135.45,0,0,0,596.88,182c2.36,2.72,4.42,5.69,7.13,8.09a10.46,10.46,0,0,0,1-2.9,2.61,2.61,0,0,0-.91-2.13c-1-1-2-1.93-3-2.94a46.91,46.91,0,0,1-3.34-4c-2.15-2.82-4.21-5.72-6.24-8.62A92.75,92.75,0,0,1,584.4,158a61.13,61.13,0,0,1-4.71-13.4c-1.05-4.46-1.68-9-2.49-13.52a64.75,64.75,0,0,1-1-12.82c0-3.16-.18-6.58-.3-9.73a44.23,44.23,0,0,1,.3-6.36c0-.43-2.4-2-2.42-1.87-.16,1.12-.24,1.33-.29,1.67a16.44,16.44,0,0,0-.21,1.7Z"/><path class="cls-57" d="M450.92,194.52s.66.1.66.06c2.82,2.36,5.6,4.78,8.31,7.28,3.25,3,6.37,6.14,9.65,9.12,3.79,3.44,7.88,5.9,12,8.87,6.17,4.39,12.52,9.22,19.11,13a137.45,137.45,0,0,0,17.49,8.25c2.18.85,4.36,1.69,6.58,2.42a23.89,23.89,0,0,0,6,1c3.67,0,5.26-.8,8.26-1.89a57.47,57.47,0,0,0,13.53-6.76A50.36,50.36,0,0,0,562.8,226a15.13,15.13,0,0,0,3.12-5.46c.5,1.5,1.9,3.23,1.83,4.83-.15,3.42-3.3,7.43-5.5,9.83-4.27,4.67-8.74,9.1-14.16,12.34a32,32,0,0,1-15.17,4.16c-5.18.18-13-2-17.83-3.66-6.74-2.3-11.06-5.55-17.2-9.15a125.34,125.34,0,0,1-15.8-10.52c-4.75-3.81-9.86-7.9-14.5-11.83a175.28,175.28,0,0,1-13.65-13.61,41.68,41.68,0,0,0-5.79-5.56c.23-.08.26-.31.43-.46s.47-.34.68-.51.66-.46.95-.74c.47-.44,1-.47,1-1.12Z"/><path class="cls-58" d="M496.09,155.77a38,38,0,0,1-2.26,3.41c-1.37,2.14-2.63,4.34-4.06,6.44A74,74,0,0,0,481.28,181c-4,10.66-5,22.28-4.63,33.6.05,1.44,0,2.67,1.09,3.72a31.36,31.36,0,0,0,3.49,2.68c-.49-2.46-1.05-4.91-1.4-7.4a48.94,48.94,0,0,1-.22-8.39,80.38,80.38,0,0,1,.74-9.67c.48-3,1.29-5.9,2-8.83a52.44,52.44,0,0,1,3-9.24c1.11-2.43,2.43-4.78,3.74-7.11s2.79-4.63,4.14-7c1-1.68,1.74-3.5,2.87-5.08.51-.72,2.63-2.69,2-3.71s-1.87.36-2.23.91Z"/><path class="cls-59" d="M570.21,93.39s0,.08,0,.11a4.36,4.36,0,0,0-1.8-.1,25.47,25.47,0,0,0-2.62.07c-.66.06-1.3,0-2,0s-1.2.12-1.8.19a19.65,19.65,0,0,0-6.44,1.59c-2.07,1-3.93,2.34-6.14,3a17.66,17.66,0,0,1-2.48.53,5.46,5.46,0,0,1-1,.11c-.36,0-.71-.14-1.08-.15a2.51,2.51,0,0,0,.84.49c.38.18.8.32,1.2.47a11.31,11.31,0,0,0,1.63.37,9,9,0,0,0,2,.31,22.16,22.16,0,0,0,3.46-.13,18.22,18.22,0,0,0,2.06-.51,10.69,10.69,0,0,0,1.1-.47,24.62,24.62,0,0,1-2.23,1.55,12.37,12.37,0,0,1-1.46.59c-.67.19-1.35.32-2,.5a10.92,10.92,0,0,1-2.19.45c-.65.05-1.3.19-1.94.26a30.54,30.54,0,0,1-3.17.25,20.07,20.07,0,0,0-3.69.56,14.05,14.05,0,0,0-3.39,1.12,17.21,17.21,0,0,0-2,1.07c-.62.4-1.29.72-1.9,1.13a10.3,10.3,0,0,0-1.48.94,1.85,1.85,0,0,0-.56.77c.19-.11.36-.25.56-.35s.5-.13.74-.24c.58-.25,1.2-.38,1.8-.63a16.73,16.73,0,0,1,3.62-1,11.46,11.46,0,0,1,1.84-.25,12.75,12.75,0,0,0,1.75,0,2.25,2.25,0,0,1,.86-.08,3.72,3.72,0,0,0,.88.11,5,5,0,0,1,.77,0,3.61,3.61,0,0,0,.57.12c-.44-.08-1.1.6-1.45.81-.79.5-1.57,1.13-2.31,1.71-.55.42-1.2.73-1.8,1.11a15.27,15.27,0,0,1-2,1.08A14.56,14.56,0,0,1,533.3,112c-1.1.16-2.18.54-3.29.7a12.22,12.22,0,0,0-1.35.21,20.26,20.26,0,0,1-2,.45,10,10,0,0,0-1.61.51,6,6,0,0,0-1.28.49c-.33.2-.66.32-1,.49s-.41.3-.64.4a10.88,10.88,0,0,0,1.59-.23,10.52,10.52,0,0,1,2.57-.16,14.21,14.21,0,0,1,2.69.19c.33.06.67,0,1,.12s.4.18.62.22c0,.27-.77.47-1,.56-1,.4-1.85.88-2.85,1.2-.68.21-1.35.32-2,.5s-1.41.24-2.1.39c-.93.2-1.88.38-2.77.63-.57.16-1.16.15-1.73.32-.35.11-.73.11-1.07.25a6.62,6.62,0,0,1-.62.24l-1,.28a22.09,22.09,0,0,1,3.19,2.44c1.06,1,2.17,1.9,3.21,2.9s2,2.52,3.23,3.57c1.38,1.2,3,1,4.58.24a29.13,29.13,0,0,0,5-3.7c2-1.59,4.08-3,6.13-4.55,2.55-1.86,5-3.78,7.61-5.64s5.2-3.59,7.85-5.33a185.09,185.09,0,0,0,15.77-11.2,5.58,5.58,0,0,1-.74-1.1c-.3-.46-.61-.92-.88-1.4s-.44-.88-.67-1.28-.62-.92-.54-1.35Z"/><path class="cls-60" d="M516.34,124.85c.86.22,1.72.4,2.6.56a9.63,9.63,0,0,0,6.91-.6c.86-.3,1.71-.63,2.58-.9a6.27,6.27,0,0,1,2-.4c1.14,0,1.89.9,2.66,1.63a24.68,24.68,0,0,0,2.64,2,17.14,17.14,0,0,1,2.15,1.6,15.73,15.73,0,0,0,1.33,1.25,17.41,17.41,0,0,1,1.34,1.24c.83.76.38,1.82-.2,2.6a2.48,2.48,0,0,1-1.23,1,1.94,1.94,0,0,1-1.21-.12c.55.51,1.39.92,1.14,1.8a6.5,6.5,0,0,1-.85,1.63,9.51,9.51,0,0,1-1.49,1.8c-.88.74-1.33.34-3,.34a10.36,10.36,0,0,1-1.58,0c-.76-.13-1.32-.2-1.67-.25a18.92,18.92,0,0,0-2.72-.17,5.39,5.39,0,0,1,1.16.73,12.62,12.62,0,0,0,1.48,1c.73.44,1.81.5,1.69,1.63a2.49,2.49,0,0,1-2.94,2,13,13,0,0,1-1.87-.65,6.52,6.52,0,0,0-2-.35c-.62,0-1.23.07-1.84,0a3,3,0,0,1-1.73-.77,8.73,8.73,0,0,1-1.41-1.68,4.5,4.5,0,0,0-1-1.11c-.45-.31-1-.57-1.42-.85a10.66,10.66,0,0,0-2.14-1.06c-1.1-.37-2.3-.3-3.35-.84-.48-.25-1-.29-1.53-.52-1.21-.59-1-2.13-.68-3.2a20.69,20.69,0,0,1,3.71-6.8c.86-1.11,2.05-2.41,2.8-2.6Z"/><path class="cls-21" d="M325.09,191.35c8.58-13.68,23.69-21.63,39.06-25.18a115.66,115.66,0,0,1,40.71-2c4.28.56,8.56,1,12.79,1.92-1.55,1-2.4,2.37-4.4,2.13-3.57-.44-7.16-.81-10.72-1.28a82.53,82.53,0,0,0-10.77-.59,75.91,75.91,0,0,0-11.48.52,77.3,77.3,0,0,0-12.88,3.31c-4.75,1.6-9.58,3.12-13.87,5.75a101.65,101.65,0,0,0-12.08,8.39c-3.36,2.8-6.65,5.67-9.92,8.57-1.28,1.14-4.34,4.87-6.31,3.57-1.76-1.15-.08-3.6.2-5.1Z"/><path class="cls-21" d="M568.84,280.77a4.49,4.49,0,0,0,1.47,2c.68.67,1.37,1.34,2,2a12.74,12.74,0,0,1,1.76,2.38,6.82,6.82,0,0,0,.88,1,14.92,14.92,0,0,1,.74,1.37c.93,1.47,2.28,2.75,3.09,4.29a11.94,11.94,0,0,0,.64,1.41,5,5,0,0,1,.72,1.33c.37,1.12.69,2.25,1,3.38a43.7,43.7,0,0,1,1.39,8.36c.15,1.33.71,2.61.92,3.94s.55,2.86.9,4.29c.32,1.26.62,2.47,1.05,3.69s1,2.29,1.49,3.46c.81,2.07,1.65,4.11,2.48,6.15.63,1.57,1.19,3.21,1.94,4.71a10.61,10.61,0,0,0,1.09,2,6.7,6.7,0,0,1,1.27,2c-.88-.6-1.87-.91-2.76-1.48a11.93,11.93,0,0,0-2.1-.92,14.51,14.51,0,0,0-2.53-1c-1.07-.21-1.85,1.56-1.74,2.46a17.16,17.16,0,0,0,.36,2.37c.13.51.5,1,.32,1.54a55.34,55.34,0,0,1-5.36-15.91c-1.5-7.34-1.92-14.78-4.37-21.92-1.7-5-3.67-10.15-6.88-14.38a23,23,0,0,0-4-4.16c-.55-.43-1.14-.81-1.73-1.2-.37-.24-1-.54-1.22-.95-.9-1.77,5.82-2.13,6.83-2.16Z"/><path class="cls-21" d="M521.34,256.77c5.75,15.75.75,26.25-8.5,37-.57-.75,1.06-6,1-6.75-6,8.25-9,11.25-17.25,16-2,1.15-5.82,3.38-7,.75-1.1-2.47.75-5.5,3.51-7.57,1.94-1.46,3.81-3,5.67-4.55,11.68-9.74,20.8-25.66,16.36-41.11,3.88,1.58,4.76,3.7,6.71,7-.17-.25-.34-.5-.5-.75Z"/><path class="cls-21" d="M464.59,235.52a54.19,54.19,0,0,1,13.94,18.81c1.51,3.47,9.08,21.86-1.37,18.7-4.12-1.25-4.28-1.88-3.4-5.8a24.86,24.86,0,0,0-.75-11.62,119.08,119.08,0,0,0-4.73-12.19c-1.3-2.9-3.51-5.51-4.19-8.65l.5.75Z"/><path class="cls-21" d="M548.59,254a46.86,46.86,0,0,1-3.85,20.63c-3.36,8.12-13.15,13.87-18.58,14.82,1.68-6.45,6.68-7.45,11.18-13,2.28-2.8,5.75-7.3,6.75-11,.83-3.1,1.73-9.88,3.52-12.33,0,.47.52.74,1,.83Z"/><path class="cls-61" d="M532.34,57.77a14.91,14.91,0,0,1,3.43,3.57,31.64,31.64,0,0,1,2.49,5.14,32.72,32.72,0,0,1,2.23,9.91c.09,1.38-.09,3.32-1.62,3.86s-2.62-.91-3.09-2.16a47.94,47.94,0,0,1-1.49-6.4c-.45-2-.83-4-1.24-5.94a30.6,30.6,0,0,0-2.18-5.64c-.23-.53-.59-1.31-.16-1.83s1.32-.47,1.88-.51Z"/><path class="cls-62" d="M461.09,464c.11.37,0,.61-.34.66Z"/><path class="cls-63" d="M461.09,464l.21-.5c-1.36,2.09-3.41,4.69-3.06,7.35.28,2.15,2.12,3.65,2.68,5.7,1.33,4.86-6.35,9.45-1.83,13.95,2.34,2.33,5.83,3.4,9,4,3.46.65,10.17,2.57,13.5,1.25,2.53-1,3.25-2.25,1.2-8-.79-2.21-1.3-5.19-3-6.78-2.92-2.81-5.58-5.2-8.5-8-3.19-3.06-7.29-5.37-9.25-9.34Z"/><path class="cls-53" d="M391.17,230.35c-.58-.11,5.73-5.7,6.52-6.24a54,54,0,0,1,10.6-5.4c3.15-1.23,7.68-3.19,11.13-2.86,2.84.27.39,8.46.12,10.05-.7,1.45-1.87-2.13-1.6-5,.12-1.24.51-3.09-1.42-2.67a46.89,46.89,0,0,0-12.71,5.13c-1.66.95-9.65,5.78-8.79,8.21.62,1.75,6.82.39,10.15,4.56-.29-.37-14.42-.92-14.12-5.82Z"/><path class="cls-64" d="M419,154.53c-.66,1.68,5.81,7.14,7.12,8.09.83.62,3.29,3,4.5,2.34a12,12,0,0,0,3.58-4.06,22.67,22.67,0,0,1-8.54-2.38c-1-.58-6.43-2.91-6.67-3.92Z"/><path class="cls-64" d="M464.42,163.35a28.54,28.54,0,0,1-3.08,5.08c2.67-1.48,6-1.47,8.75-2.83,1.17-.58,6.41-1.5,7.5-3.83-1.5-.09-5.22.82-6.49,1a41.9,41.9,0,0,1-6.68.49h.09Z"/><path class="cls-64" d="M434.76,197.65c.1-1.45,5.19-5.69,6.42-7,2.53-2.74,5.11-5.43,7.77-8,2.42-2.36,5-4.56,7.3-7,.61-.65,3.61-4.93,4.82-4.32.43.22-9.39,16.49-10.14,17.91-1.81,3.41-4,5.6-7.86,6.55-1.7.43-7.19.53-8.06,1.7Z"/><path class="cls-64" d="M413.05,196.28c2-7.59,7.08-13.52,11.46-19.83,2.06-3,4.1-5.9,6.2-8.83,1.48-2.07,3.67-6.47,6-7.66.37,1.32-.29,3,.45,4.25.32.54,2.3,4.39,1.59,4.69-1.15.5-1.86-1.78-3.23-1.45-1.92.47.34,3.55,0,4.48-3.59-1.91-5.5.92-5.83,4.33-.41,4.31-1.61,6.19-3.48,10-.11-5.59-4.24-3.15-6.14.23a29.76,29.76,0,0,0-2.18,6.39c-.3,1-3.72,2.65-4.6,3.57l.1-.15Z"/><path class="cls-64" d="M416.05,198.11a7.1,7.1,0,0,0-4.89,2.06c-.67.85-.55,4,.69,4.44.83-3,.44-2.71,3.38-3.84,1.65-.64,1.95-1.49.94-2.5Z"/><path class="cls-64" d="M403.05,216.11a9.57,9.57,0,0,1,7.64-1c3.75,1.09-1.17-3.69-1.81-4.14s-2.3-1.73-2.9-.21c-.36.94,1,1.15.85,2-.29,1.43-3.66.56-3.45,2.5Z"/><path class="cls-64" d="M410.05,227.78c1.64-.49,2.9-1.74,4.64-2.16a6.62,6.62,0,0,1,2.7-.13c1.38.36-.53,1.74-.78,2.13,2.53-.35,2.86.81,4.71,2.26a40.78,40.78,0,0,1,5.66,4.73c-2.34,3.14-15.07-5.61-17.43-6.33Z"/><path class="cls-64" d="M416.84,218.35v.06c.7-1,1.91-1.4,2.76-2.21,1-1,1.86-1.76,2.87-2.75,1.92-1.86,3.45-3.83,5.54-6.19s4.68-4.65,6.9-6.81c.73-.7,1.35-1.21,2.12-1.87.26-.22-.27,0,.07,0,.56-.06.87-.12,1.31-.13s.76.08,1.19.07c-1.76,1.68-3.08,2.56-4.73,4.35-1.24,1.35-2.5,2.67-3.73,4s-1.95,2.49-3.11,3.87c-1.86,2.23-3.69,4.26-5.75,6.31-.78.78-1.82,1.73-2.62,2.5a9,9,0,0,1-1.81,1.3c-.49,0-.74-.87-.9-1.24a1.3,1.3,0,0,1,.06-1.46Z"/><path class="cls-65" d="M600.09,116.35a5.85,5.85,0,0,1,2.38,2,12.9,12.9,0,0,1,1.56,1.83,14.91,14.91,0,0,1,.78,2,47,47,0,0,1,1.39,4.51,14.77,14.77,0,0,1,.28,2.29,13.78,13.78,0,0,1,.3,2.31c0,1.51,0,3,0,4.55a12.33,12.33,0,0,1-1.15,4.23A22.33,22.33,0,0,1,604,144a17.09,17.09,0,0,1-3.18,3.29,17.73,17.73,0,0,0,6.15-8.1,22.07,22.07,0,0,0,1-4.61,41.9,41.9,0,0,0,.46-5,22.28,22.28,0,0,0-.77-4,15.47,15.47,0,0,0-1.29-3.7c-1.2-2.42-3.2-4.87-5.94-5.55l-.05-.27Z"/><path class="cls-65" d="M610.75,107.68c.69-.17.89.22,1.2.73.52.84.88,1.77,1.43,2.61,1.27,2,1.66,4.24,2.38,6.44,1.26,3.82,2.31,7.66,3.42,11.53.89,3.12,1.22,6.41,2.62,9.34a4.24,4.24,0,0,1,.31,1.58,6.6,6.6,0,0,0,.45,1.34c.27.77.29,1.6.58,2.38a9.25,9.25,0,0,1,3.62,1.15,3.9,3.9,0,0,1,2,3.14c.13-1.18-.38-2.38-.34-3.6,0-1,0-2,0-3a17.77,17.77,0,0,0-.19-4.6c-.27-1-.7-1.91-1-2.87-.45-1.42-.65-2.9-1.14-4.32a33.28,33.28,0,0,1-.92-3.95,33.23,33.23,0,0,1-.75-3.25c-.1-1-.37-2.05-.4-3,0-.66.22-1.4-.1-2a5.86,5.86,0,0,0-1.55-1.77c-.92-.71-1.67-1.52-2.65-2.16a43.93,43.93,0,0,1-4.76-3.59,13.76,13.76,0,0,0-1.77-1.25c-.48-.29-1.19-1-1.8-.86Z"/><path class="cls-34" d="M536.09,128.77a4.71,4.71,0,0,1,1.07.65c.32.24.68.4,1,.64.7.51,1.36,1,2.1,1.48,1.75,1-.24,3.38-1.63,3.6,1.09.51.09,2.2-.28,2.92a5.64,5.64,0,0,1-1.06,1.33c-.33.34-.7.93-1.18,1.06a1.67,1.67,0,0,1-.63,0,7.88,7.88,0,0,0-1.09-.05H532a9.07,9.07,0,0,1-2.21-.15c-.73-.18-1.45-.38-2.17-.57.28-.13.67,0,1-.06s.76-.05,1.14-.14a2.33,2.33,0,0,0,1.44-.89,2.18,2.18,0,0,0,.42-1.44,1.68,1.68,0,0,0-.71-1.13,3.87,3.87,0,0,0,.76-.11,3.93,3.93,0,0,0,.69-.06,3.5,3.5,0,0,0,1.37-1,1.8,1.8,0,0,0,.38-1.4,1.76,1.76,0,0,0-.58-1.35,2.3,2.3,0,0,0,1.94-1.12,3.81,3.81,0,0,0,.52-2Z"/><path class="cls-34" d="M528,140l0-.1-.1,0Z"/><path class="cls-34" d="M527.84,139.64a12.48,12.48,0,0,1,1.81,1,13.75,13.75,0,0,1,1.83,1.15c1.09,1,.28,2.88-1,3.2a3,3,0,0,1-2.08-.24c-.67-.34-1.2-.93-1.89-1.22a16.89,16.89,0,0,0-2.66-.39c-.7-.18-1.12-.8-.26-1.16s2,.06,3-.26a1.84,1.84,0,0,0,1.17-2Z"/><path class="cls-34" d="M516.71,139a17.66,17.66,0,0,1,.86-5.5,31.67,31.67,0,0,1,1.21-3,19.53,19.53,0,0,1,1.41-2.31,6.36,6.36,0,0,1,1.8-2.09,3.28,3.28,0,0,1,1.61-.25c.49,0,1-.11,1.45-.15a2.25,2.25,0,0,0-.92.61,7.48,7.48,0,0,0-1,1,18.67,18.67,0,0,0-1.56,2.71c-.24.52-.44,1.05-.72,1.55a7.58,7.58,0,0,0-.5,1.3c-.35,1-.72,2-1,3.07a11.7,11.7,0,0,0-.7,3.68c0,.27,0,.45-.24.45a2.9,2.9,0,0,1-.73-.26,6.64,6.64,0,0,1-1-.59Z"/><path class="cls-34" d="M510.71,137c-.13.09-.2.28,0,.39a3.45,3.45,0,0,1-1.22-3.35,15.88,15.88,0,0,1,1.93-4.93,19.76,19.76,0,0,1,1.78-2.39,7.53,7.53,0,0,1,1.41-1.41,2.7,2.7,0,0,1,1.63-.46,3.25,3.25,0,0,1,1.64.5,2.8,2.8,0,0,0-1.63.63l-.67.49a4.63,4.63,0,0,0-.68.84,10.15,10.15,0,0,0-1.2,1.9,5.31,5.31,0,0,0-.49,1.15c-.09.39-.32.73-.45,1.12a4.81,4.81,0,0,1-.41,1,5.46,5.46,0,0,0-.34,1.06,6.94,6.94,0,0,0-.5,1.82,3.83,3.83,0,0,0-.09,1.43c0,.14.11.3.15.44a1.17,1.17,0,0,0,.18.46,1.1,1.1,0,0,1-.8-.1c-.16-.07-.59-.26-.56-.5Z"/><path class="cls-66" d="M371.28,291C366,306.29,355.11,317.71,345,327.11c-5.58,5.21-9,7.32-9.62,8.44a65.11,65.11,0,0,0-3.59,6.81c-1.75,4.39-1.78,7.93-3.86,12.18-6.15,12.58-13.3,25.09-21.88,36.14-6.32,8.13-13.64,19.55-20.34,27.34-2.16,2.51-2.94,2.71-3,6-.06,3.65-.53,3.05-1.81,6.41s-12.19,1.92-11.52,6.92c.55,4.13,1,15,11.33,17.33,3.72.84,13.34-12.66,15.67-18.66a30,30,0,0,0,1.67-7.25,23.58,23.58,0,0,1,2.33-8.75c4.28-8.55,31.61-51.45,39.24-57,11.27-8.15,3.09-1.64,11.35-10.5,4.61-4.94-.16-3.22,6.85-10,4.21-4,5.12-4.34,9.85-7.75,5.19-3.75,11.26-5.86,15.46-10.77,7.63-8.91,7.83-24.56-3.65-30.56a46.06,46.06,0,0,0-7.66-2.94Z"/><path class="cls-67" d="M412.43,79.27C405.92,58,440.28,50.64,444.59,50c-6.38.92-12.74,5.65-17.23,9.89-3.89,3.69-8,12.89-5.95,18.32-2.64.78-6.23.82-9,1.29Z"/><path class="cls-67" d="M429.75,75.18c-.38.08,2.58-8.39,3.17-9.5a28.36,28.36,0,0,1,7.43-8.9c8.51-7.07,16.49-8.27,26.74-6.1-5.5-1.16-14,3.91-19.31,9.89-3.28,3.72-7.53,14.28-6.79,21.11a55.53,55.53,0,0,0-7.07-3c-1.51-.42-2.5-.66-4.83-1.33Z"/><path class="cls-67" d="M472.94,51.34c-5.66,0-9.86,2.63-13.67,6.52,8.65.82,22.82,3.66,29,9.82,1.21-2.54,1.86-4,4.17-5.83,1.5-1.17,5.41-2.63,5.5-3-8.67-3.88-16.51-7.85-25.73-7.56Z"/><path class="cls-68" d="M510,89.27c-3.43-1.19-3,.14-1.75,4.08.59,1.83,1.34,1.84,3.42,2.83,6.12,2.94,8,2.5,13.29-2.41a90.28,90.28,0,0,1-10.81-3.07,14.22,14.22,0,0,1-2.48-.93Z"/><path class="cls-68" d="M526.67,94.14c.35,1.71,1.15,5.69,4.08,4.71,1.88-.62,3.59-2.92,5.22-5.46a61.39,61.39,0,0,1-9.38.67Z"/><rect class="cls-69" width="667" height="518"/><path class="cls-70" d="M335.9,174.39c-24.14-5.18-45.22-3.19-67.74,8.66-8.92,4.69-18.62,9.43-28.92,9.4-9.79,0-29.18-5.32-34.8,6,3.05-5.75,20.68-6,24.64-2.15-4.72-1.73-12.47-1.08-16.79,1.36s-9,9.38-14.12,9.17c2.83-.08,11.87-.31,13.23-3.65-2.67,2.28-9.44,7.32-13.4,6.48,7,2,12.67-3.27,19.6-5.69,7.13-2.49,21.34,1.37,27-3.28-7.44.72-16,3.31-23.67,4.6-6.84,1.17-11.22,5.94-17.26,8.72,2.89.11,9.9-2.11,11.79-4.12-1.94,1.62-13,7.61-15.92,5.09,3.63,4.86,17.3-1,21.48-2.82,2.91-1.27,23.49-5.24,23.82-7.1-7.08,5.45-15.53,4.92-23.21,8.64-3.52,2.13-13.65,7.13-20.27,6.33,2.43.29,4.14,1.37,6.27,1.59,4.07.41,8.08-1.09,12-.8-5.17-.36-10.88,1.9-16.41,1.49,7.28,7.85,26.36,4,34.95-.94,10.83-6.27,20-14.76,30.62-21.29,13-8,27-12.55,41.72-16.25,9.91-2.5,15.26-1.05,18.26-3.55-4.23,3.52,5-4.29,4.92-4.25Z"/></g></g></svg>