<?xml version="1.0" encoding="utf-8"?>
<!-- Generator: Adobe Illustrator 22.1.0, SVG Export Plug-In . SVG Version: 6.00 Build 0)  -->
<svg version="1.1" xmlns="http://www.w3.org/2000/svg" xmlns:xlink="http://www.w3.org/1999/xlink" x="0px" y="0px"
	 viewBox="0 0 35.2 32.8" style="enable-background:new 0 0 35.2 32.8;" xml:space="preserve">
<style type="text/css">
	.st0{fill:#FFFFFF;}
</style>
<g id="Layer_1">
	<path class="st0" d="M27.6,19.6c0,5.5-4.5,10-10,10s-10-4.5-10-10s4.5-10,10-10S27.6,14.1,27.6,19.6z M29.6,19.6
		c0-6.6-5.4-12-12-12s-12,5.4-12,12s5.4,12,12,12S29.6,26.2,29.6,19.6z M17.6,21.6l-4.5-4.5l-1.5,1.5l6,6l6-6l-1.5-1.5L17.6,21.6z"
		/>
</g>
<g id="Layer_2">
</g>
<g id="Layer_3">
	<g>
		<path class="st0" d="M4.8,14.7l-0.2,0.7l-3.4-1.2l0.2-0.7L4.8,14.7z"/>
		<path class="st0" d="M4.9,14.1l-3.1-1.7l0.5-1c0.1-0.3,0.3-0.5,0.6-0.6c0.2-0.2,0.5-0.2,0.8-0.2c0.3,0,0.6,0.1,0.9,0.2l0.1,0.1
			c0.3,0.2,0.5,0.4,0.7,0.6c0.2,0.2,0.2,0.5,0.3,0.8s-0.1,0.6-0.2,0.8L4.9,14.1z M2.7,12.1l2.1,1.1l0.2-0.3C5,12.7,5.1,12.4,5,12.2
			c-0.1-0.2-0.3-0.4-0.6-0.6l-0.2-0.1c-0.3-0.2-0.6-0.2-0.8-0.2c-0.2,0-0.4,0.2-0.6,0.4L2.7,12.1z"/>
		<path class="st0" d="M6.6,8.8L5.7,9.9l0.7,0.6l1.1-1.3L8,9.6l-1.5,1.8L3.7,9.2l1.5-1.8l0.5,0.4L4.6,9l0.6,0.5l0.9-1.1L6.6,8.8z"/>
		<path class="st0" d="M10.5,7.7L9.9,8.1l-2.6-1L8.7,9L8.2,9.4L6,6.6l0.6-0.4l2.6,1L7.7,5.3l0.6-0.4L10.5,7.7z"/>
		<path class="st0" d="M12,3.7l-1,0.5l1.2,2.7l-0.7,0.3l-1.2-2.7l-1,0.4L9.1,4.4l2.6-1.2L12,3.7z"/>
		<path class="st0" d="M14.3,6.2l-0.7,0.2l-1-3.4l0.7-0.2L14.3,6.2z"/>
		<path class="st0" d="M17,2.7l-1.1,0.1l0.4,2.9l-0.7,0.1L15.2,3l-1.1,0.1l-0.1-0.6l2.9-0.4L17,2.7z"/>
		<path class="st0" d="M19.1,3.9L20,2.3l0.8,0.1l-1.4,2.1l-0.1,1.3l-0.7-0.1l0.1-1.3l-0.9-2.4l0.8,0.1L19.1,3.9z"/>
		<path class="st0" d="M25.2,4.6l-1-0.4l-1.1,2.7l-0.7-0.3l1.1-2.7l-1-0.4l0.2-0.5L25.5,4L25.2,4.6z"/>
		<path class="st0" d="M26.7,9.1l-0.6-0.4L27,7.4l-1.2-0.8l-0.9,1.2l-0.6-0.4l2-2.9L27,4.9l-0.8,1.2l1.2,0.8l0.8-1.2l0.6,0.4
			L26.7,9.1z"/>
		<path class="st0" d="M29.6,9.9l-1-1l-0.7,0.6l1.1,1.2l-0.4,0.4L27,9.4L29.6,7l1.6,1.8l-0.4,0.4l-1.1-1.2l-0.6,0.6l1,1L29.6,9.9z"
			/>
		<path class="st0" d="M31.1,12.5l-0.7-1.2L29.2,12l-0.4-0.6l3-1.9l1.2,2l-0.5,0.3l-0.8-1.3L30.9,11l0.7,1.2L31.1,12.5z"/>
		<path class="st0" d="M33.8,15.2l-0.4-1l-2.8,1l-0.2-0.7l2.8-1l-0.4-1l0.6-0.2l1,2.7L33.8,15.2z"/>
	</g>
</g>
</svg>
