<?xml version="1.0" encoding="utf-8"?>
<!-- Generator: Adobe Illustrator 22.1.0, SVG Export Plug-In . SVG Version: 6.00 Build 0)  -->
<svg version="1.0" id="Layer_1" xmlns="http://www.w3.org/2000/svg" xmlns:xlink="http://www.w3.org/1999/xlink" x="0px" y="0px"
	 viewBox="0 0 266.8 236.5" style="enable-background:new 0 0 266.8 236.5;" xml:space="preserve">
<style type="text/css">
	.st0{fill:#2A6A86;}
	.st1{fill:#1A7EC2;}
	.st2{fill:#383838;}
	.st3{fill:#232323;}
	.st4{fill:#1E1E1E;}
	.st5{fill:#FDC5C5;}
	.st6{fill:#F2A5AB;}
	.st7{fill:#353535;}
	.st8{fill:#FFFFFF;}
	.st9{fill:#3A393A;}
	.st10{fill:#3F3F3F;}
	.st11{fill:#4F4F4F;}
	.st12{fill:#9B9B9B;}
	.st13{fill:#666666;}
	.st14{fill:#F0ECEF;}
	.st15{fill:#E8E1E6;}
	.st16{fill:#CA3A53;}
	.st17{fill:#B62F49;}
	.st18{fill:#532442;}
	.st19{fill:#ECAFAF;}
	.st20{fill:#DD7D80;}
	.st21{fill:#333333;}
	.st22{fill:#4C4C4C;}
	.st23{fill:#98C6E5;}
</style>
<g id="Layer_3_1_">
	<g id="Layer_1_3_">
		<g>
			<path class="st0" d="M34.7,209.2h-4.8v-20h4.8V209.2z"/>
			<path class="st0" d="M38.1,209.2v-20h6.4c1.8,0,3.3,0.4,4.7,1.2s2.5,1.9,3.3,3.4s1.2,3.1,1.2,4.9v0.9c0,1.8-0.4,3.5-1.2,4.9
				s-1.9,2.6-3.3,3.4c-1.4,0.8-3,1.2-4.7,1.2h-6.4V209.2z M42.9,192.9v12.5h1.7c1.4,0,2.4-0.5,3.2-1.5s1.1-2.4,1.1-4.4v-0.9
				c0-1.9-0.4-3.4-1.1-4.3c-0.7-1-1.8-1.5-3.2-1.5L42.9,192.9L42.9,192.9z"/>
			<path class="st0" d="M68.5,200.7H61v4.8h8.9v3.7H56.2v-20h13.7v3.7H61v4.2h7.5V200.7z"/>
			<path class="st0" d="M88.4,209.2h-4.8l-7.1-12.4v12.4h-4.8v-20h4.8l7,12.4v-12.4h4.8L88.4,209.2L88.4,209.2z"/>
			<path class="st0" d="M106.7,192.9h-6v16.3h-4.8v-16.3H90v-3.7h16.6L106.7,192.9L106.7,192.9z"/>
			<path class="st0" d="M113.8,209.2H109v-20h4.8V209.2z"/>
			<path class="st0" d="M132.4,192.9h-6v16.3h-4.8v-16.3h-5.9v-3.7h16.6L132.4,192.9L132.4,192.9z"/>
			<path class="st0" d="M141.9,197.9l3.7-8.6h5.2l-6.4,12.8v7.1h-4.9V202l-6.4-12.8h5.2L141.9,197.9z"/>
			<path class="st0" d="M174,192.9h-6v16.3h-4.8v-16.3h-5.9v-3.7h16.6L174,192.9L174,192.9z"/>
			<path class="st0" d="M192.7,209.2h-4.8v-8.3h-7.1v8.3H176v-20h4.8v7.9h7.1v-7.9h4.8L192.7,209.2L192.7,209.2z"/>
			<path class="st0" d="M208.1,200.7h-7.5v4.8h8.9v3.7h-13.7v-20h13.7v3.7h-8.9v4.2h7.5V200.7z"/>
			<path class="st0" d="M223.9,201.2h-7.7v8h-4.8v-20h13.3v3.7h-8.5v4.6h7.7V201.2z"/>
			<path class="st0" d="M242.6,192.9h-6v16.3h-4.8v-16.3h-5.9v-3.7h16.6L242.6,192.9L242.6,192.9z"/>
			<path class="st0" d="M60.9,232.4h-6.6l-1.1,3.8h-5.1l7.3-19.9h4.5l7.3,19.9H62L60.9,232.4z M55.5,228.7h4.3l-2.1-6.9L55.5,228.7z
				"/>
			<path class="st0" d="M85.3,236.2h-4.8l-7.1-12.4v12.4h-4.8v-20h4.8l7,12.4v-12.4h4.8L85.3,236.2L85.3,236.2z"/>
			<path class="st0" d="M88.3,236.2v-20h6.4c1.8,0,3.3,0.4,4.7,1.2s2.5,1.9,3.3,3.4s1.2,3.1,1.2,4.9v0.9c0,1.8-0.4,3.5-1.2,4.9
				s-1.9,2.6-3.3,3.4s-3,1.2-4.7,1.2h-6.4V236.2z M93.1,219.9v12.5h1.7c1.4,0,2.4-0.5,3.2-1.5s1.1-2.4,1.1-4.4v-0.9
				c0-1.9-0.4-3.4-1.1-4.3c-0.7-0.9-1.8-1.5-3.2-1.5L93.1,219.9L93.1,219.9z"/>
			<path class="st0" d="M123.7,230.9c0-0.7-0.2-1.2-0.7-1.6s-1.4-0.8-2.6-1.2s-2.3-0.8-3.1-1.2c-2.6-1.3-3.9-3-3.9-5.2
				c0-1.1,0.3-2.1,1-2.9s1.6-1.5,2.7-2s2.5-0.7,4-0.7c1.4,0,2.7,0.3,3.8,0.8s2,1.2,2.6,2.2c0.6,1,0.9,2,0.9,3.2h-4.8
				c0-0.8-0.2-1.4-0.7-1.9s-1.2-0.7-2-0.7c-0.9,0-1.5,0.2-2,0.6s-0.7,0.9-0.7,1.4s0.3,1,0.8,1.4s1.5,0.8,2.9,1.3s2.5,0.9,3.4,1.4
				c2.2,1.2,3.2,2.9,3.2,5.1c0,1.7-0.7,3.1-2,4.1s-3.1,1.5-5.4,1.5c-1.6,0-3.1-0.3-4.4-0.9c-1.3-0.6-2.3-1.4-3-2.4s-1-2.2-1-3.5h4.8
				c0,1.1,0.3,1.9,0.8,2.4s1.4,0.8,2.7,0.8c0.8,0,1.4-0.2,1.9-0.5S123.7,231.5,123.7,230.9z"/>
			<path class="st0" d="M142.2,232.4h-6.6l-1.1,3.7h-5.1l7.3-19.9h4.5l7.4,19.9h-5.2L142.2,232.4z M136.8,228.7h4.3l-2.1-6.9
				L136.8,228.7z"/>
			<path class="st0" d="M162.5,228.2h-7.7v7.9H150v-19.9h13.3v3.7h-8.5v4.6h7.7V228.2z"/>
			<path class="st0" d="M177.7,227.7h-7.5v4.8h8.9v3.7h-13.7v-20h13.7v3.7h-8.9v4.2h7.5V227.7z"/>
			<path class="st0" d="M196.9,219.9h-6v16.3h-4.8v-16.3h-5.9v-3.7h16.6L196.9,219.9L196.9,219.9z"/>
			<path class="st0" d="M206.4,224.9l3.7-8.6h5.2l-6.4,12.8v7.2H204v-7.2l-6.4-12.9h5.2L206.4,224.9z"/>
		</g>
		<g>
			<circle class="st1" cx="137.7" cy="84.6" r="78.9"/>
			<path class="st2" d="M158.8,138.5c1.5-3.1,0.3-6.8-2.8-8.3s-6.8-0.3-8.3,2.8l-14.5,29c4.2,1,8.4,1.8,12.6,2.4L158.8,138.5z"/>
			<path class="st3" d="M161.2,139.8c2.2-4.4,0.4-9.8-4-12s-9.8-0.4-12,4l-14.8,29.6c6.1,1.5,12.2,2.7,18.2,3.5L161.2,139.8z"/>
			<g>
				<path class="st4" d="M105.2,105c2.8,2.1,5.2,4.9,8,8.1c4.2,4.8,10.7,13.6,18.8,18c0.8,0.5,1.7,0.9,2.5,1.2
					c0.2,0.1,0.3,0.1,0.5,0.2c0.7,0.3,1.4,0.4,2.1,0.6c6.2,1,13.1-2.9,15.2-7.8c0.2-0.5,0.4-1,0.5-1.5v-0.1l0,0
					c0.1-0.5,0.2-0.9,0.2-1.3c-0.1-12.3-22-21.6-30.9-24.9C100,89.2,96,91.2,92,101.8c2.4,0,5,0.2,7.7,0.6
					C101.8,102.9,103.6,103.8,105.2,105z"/>
			</g>
			<g>
				<g>
					<path class="st5" d="M121.2,132c1,0.3,2.1,0.4,3.1,0.4c4.7-0.1,8.9-3.3,10.2-8L144.8,86c1.5-5.8-1.9-11.7-7.6-13.2
						c-5.8-1.6-11.7,1.9-13.2,7.6l-10.3,38.4C112,124.5,115.4,130.5,121.2,132z"/>
				</g>
				<g>
					<path class="st6" d="M119.5,96.8l4.4-16.4c1.5-5.8,7.5-9.2,13.2-7.6c5.8,1.5,9.2,7.5,7.6,13.2l-6,22.2c-3.7-1.2-7.6-3-11.6-5.5
						C124.5,101,121.9,99,119.5,96.8z"/>
				</g>
			</g>
			<path class="st7" d="M113.2,113.2c-2.8-3.2-5.2-6-8-8.1c-1.6-1.2-3.4-2.1-5.5-2.8c-2.7-0.4-5.3-0.6-7.7-0.6
				c-2.1,0-4.1,0.1-5.9,0.3c-2.9,0.3-5.5,1.7-7.3,4s-2.6,5.1-2.2,8c0.1,1,0.4,2.1,0.8,3c1.7,3.8,2.2,8,1.3,12.1
				c-0.3,1.6-0.6,3.3-0.9,5c12.2,12.4,29,20.6,46.5,25.7c3.1-9.7,6-21,7.7-28.6C123.8,126.7,117.4,117.9,113.2,113.2z"/>
			<g>
				<path class="st3" d="M113.2,113.2c4.2,4.8,10.7,13.6,18.8,18c0.7-3,1.2-5.4,1.4-6.9c-2.5-2.5-5.6-6.7-9.1-10.8
					c-1.2-1.4-2.5-2.8-3.7-4.1c-1.1-1.1-2.3-2.2-3.5-3.1c-6.2-1.9-12.1-3.2-17.4-3.9c2.1,0.6,3.9,1.6,5.5,2.8
					C108,107.1,110.4,109.9,113.2,113.2z"/>
			</g>
			<g>
				<path class="st5" d="M137.2,119.8c2.9,1.1,4.8,1.2,5.7,1.1c0.1-0.5,0.2-1.1,0.2-1.7c-6.7-3.8-14.6-7.3-22.5-10
					c1.3,1.3,2.5,2.7,3.7,4.1C128.6,115.9,133.8,118.6,137.2,119.8z"/>
			</g>
			<g>
				<path class="st8" d="M135.8,126.1c0.1,0,0.1,0.1,0.2,0.1c0.7,0.3,1.6,0.1,2.6-0.3c1.8-0.8,3.6-2.6,4.3-4.9
					c-0.9,0.1-2.8-0.1-5.7-1.1c-3.3-1.2-8.6-3.9-12.8-6.4c3.5,4.1,6.6,8.4,9.1,10.8C134.3,125.1,135.1,125.8,135.8,126.1z"/>
			</g>
			<g>
				<path class="st9" d="M135,132.5c0.7,0.3,1.4,0.4,2.1,0.6c0.7-3,1.2-5.5,1.5-7.3c-1,0.4-2,0.6-2.6,0.3c-0.1,0-0.1,0-0.2-0.1
					c-0.7-0.3-1.5-1-2.5-1.9c-0.2,1.5-0.7,4-1.4,6.9c0.8,0.5,1.7,0.9,2.5,1.2C134.7,132.4,134.8,132.5,135,132.5z"/>
			</g>
			<path class="st10" d="M135,132.5c-0.2-0.1-0.3-0.1-0.5-0.2c-0.9-0.3-1.7-0.7-2.5-1.2c-1.7,7.6-4.7,18.9-7.7,28.6
				c1.8,0.5,3.5,1,5.3,1.5c3-9.5,5.8-20.3,7.6-28.1C136.4,133,135.7,132.8,135,132.5z"/>
			<path class="st7" d="M157.5,145.3c0.3-0.2,0.6-0.4,0.9-0.7c2.2-1.9,3.4-4.6,3.6-7.4c0.1-2.9-0.9-5.6-2.8-7.8
				c-1.8-1.9-3.9-3.8-6.3-5.7v0.1c-0.1,0.5-0.3,1-0.5,1.5c-2.1,4.9-9,8.8-15.2,7.8c-1.8,7.7-4.6,18.6-7.6,28.1
				c5.9,1.5,11.9,2.7,17.7,3.5c1.1-3.2,2.1-6.5,3.2-9.7C151.7,151.1,154.2,147.7,157.5,145.3z"/>
			<g>
				<path class="st3" d="M152.3,125.3c0.2-0.5,0.4-1,0.5-1.5v-0.1l0,0c-2.6-2.1-5.7-4.1-9-6.1c-0.2-0.1-0.4-0.1-0.6,0
					s-0.3,0.3-0.2,0.6c0.1,0.4,0.1,0.7,0.1,1.1c0,0.6-0.1,1.1-0.2,1.7c-0.6,2.3-2.5,4.1-4.3,4.9c-0.3,1.8-0.8,4.3-1.5,7.3
					C143.3,134.1,150.2,130.2,152.3,125.3z"/>
			</g>
			<path class="st11" d="M136,125.5c-0.6-0.1-1.1,0.3-1.2,0.8c-1.3,7-5,21.6-8.8,33.9c0.7,0.2,1.3,0.4,2,0.5c3.9-12.3,7.6-27,8.9-34
				C136.9,126.2,136.5,125.6,136,125.5z"/>
			<g>
				<g>
					<polygon class="st12" points="135.7,130.8 134.3,130.2 134,131.1 135.5,131.6 					"/>
				</g>
				<g>
					<path class="st12" d="M131.2,141.9l1.7,0.7c0.5,0.2,1-0.1,1.1-0.5l2.2-9.1c0.1-0.5-0.2-1-0.6-1.2h-0.1l-1.4-0.5H134
						c-0.5-0.2-0.9,0.1-1.1,0.5l-2.3,9.1C130.5,141.1,130.7,141.7,131.2,141.9z M131.4,140.8l0.6-2.4c0-0.2,0.2-0.3,0.4-0.2l1.3,0.5
						c0.2,0.1,0.3,0.3,0.3,0.5l-0.6,2.4c0,0.2-0.2,0.3-0.4,0.2l-1.3-0.5C131.4,141.2,131.3,141,131.4,140.8z"/>
				</g>
				<g>
					<path class="st12" d="M134.1,130.2L134.1,130.2l1.5,0.5h0.1c0.5,0.2,0.9-0.1,1-0.5l0.5-1.9c0.1-0.5-0.2-1-0.6-1.2l-1.6-0.6
						c-0.5-0.2-0.9,0.1-1,0.5l-0.5,1.9C133.4,129.5,133.7,130,134.1,130.2z"/>
				</g>
			</g>
			<g>
				<path d="M123.7,118.9c-0.5-0.3-1-0.3-1.2-0.1c-0.5,0.4-0.2,1.8,0.7,3C123.3,120.8,123.5,119.8,123.7,118.9z"/>
			</g>
			<g>
				<path class="st13" d="M125.2,123.6c0.2-1,0.4-2,0.5-3c-0.1-0.1-0.1-0.2-0.2-0.3c-0.6-0.7-1.2-1.3-1.8-1.5c-0.2,1-0.3,2-0.5,2.9
					c-0.1,0.8-0.3,1.5-0.4,2.2c-2.3,11.5-5.1,20.9-8.9,32.3c0.7,0.3,1.5,0.5,2.2,0.8c3.7-11.1,6.5-20.2,8.7-31.2
					C124.9,125.1,125,124.4,125.2,123.6z"/>
				<path class="st13" d="M112.2,161.1c0.4-0.1,0.8,0,1.2,0.1s0.7,0.4,1,0.7c0.6-1.6,1.1-3.2,1.6-4.7c-0.7-0.3-1.5-0.5-2.2-0.8
					C113.3,157.8,112.8,159.4,112.2,161.1z"/>
			</g>
			<g>
				<path d="M126.5,123.7c0.5-0.4,0.2-1.8-0.8-3.1c-0.2,1-0.4,2-0.5,3C125.7,123.9,126.2,124,126.5,123.7z"/>
			</g>
			<g>
				<path d="M143.7,130.6c0.2-0.9,0.3-1.9,0.5-2.9c-1.3,0.7-2.1,1.8-1.8,2.4C142.5,130.5,143,130.7,143.7,130.6z"/>
			</g>
			<path class="st13" d="M146.2,129.7c0.2-0.9,0.3-1.8,0.5-2.7c-0.6,0-1.4,0.2-2.3,0.6c-0.1,0-0.1,0.1-0.2,0.1
				c-0.2,1-0.3,1.9-0.5,2.9c-0.1,0.7-0.2,1.3-0.4,2c-2.1,11.8-4.2,20.6-7.2,30.1c0.8,0.2,1.5,0.3,2.3,0.5c3.1-9.9,5.2-19,7.4-31.6
				C146,131,146.1,130.4,146.2,129.7z"/>
			<g>
				<path d="M147.7,127.5c-0.1-0.3-0.5-0.5-1-0.5c-0.2,0.9-0.3,1.8-0.5,2.7C147.3,129,148,128.1,147.7,127.5z"/>
			</g>
			<path class="st14" d="M159.2,165.2l-0.3-6.7c0-0.7-0.7-1.3-1.4-1.3l-36.4,1.6c10.7,3.4,21.7,5.5,32.1,6.7
				C155.4,165.9,157.4,165.7,159.2,165.2z"/>
			<path class="st14" d="M159.2,165.2l-0.3-6.7c0-0.7-0.7-1.3-1.4-1.3l-36.4,1.6c10.7,3.4,21.7,5.5,32.1,6.7
				C155.4,165.9,157.4,165.7,159.2,165.2z"/>
			<path class="st15" d="M151,154.2c-0.1-0.7-0.7-1.3-1.5-1.2l-37.2,2.8c12.9,5,26.6,8.1,39.5,9.6L151,154.2z"/>
			<path class="st14" d="M135.6,147.2l-33.2,4.2c11.5,5.7,24.1,9.5,36.6,11.9l-1.9-14.9C137,147.6,136.4,147.1,135.6,147.2z"/>
			<path class="st16" d="M121.7,145.6c-0.3-1.6-1.5-2.7-2.7-2.5l-5.6,1.1l9.9,9.2L121.7,145.6z"/>
			<path class="st17" d="M113.4,144.2l-17.6,3.6c8.9,5.2,18.8,9.1,28.8,12l-1.3-6.4L113.4,144.2z"/>
			<path class="st2" d="M91.4,106.7c-2.1-2.7-6-3.1-8.7-1l-16.3,12.9c1.9,3.7,4.2,7.2,6.8,10.4l17.1-13.6
				C93.1,113.2,93.5,109.3,91.4,106.7z"/>
			<path class="st4" d="M93.5,105c-3.1-3.9-8.7-4.5-12.5-1.4l-15.8,12.6c2.6,5.5,5.9,10.5,9.8,15l17.1-13.6
				C95.9,114.5,96.6,108.8,93.5,105z"/>
			<path class="st5" d="M106.6,53.9c0-0.3,0.1-0.6,0.1-0.8c2.6-16.7,19.9-27.8,38.7-25c2.8,0.4,5.5,1.2,8.2,2.2
				c8,3.2,14.6,9,18.3,16c1.9,3.6,2.8,7.4,3.2,11.3c0.5,4.9-0.5,9.7-1.3,14.6c-0.7,4.5-1,9.3-2.2,13.7c-2.1,7.7-7.7,14.7-15.6,18.2
				c-8.9,4-19.1,0-26.8-4.8c-7.6-4.7-14.2-11.8-18.1-19.1C106.9,71.9,105.5,62.7,106.6,53.9z"/>
			<path class="st18" d="M163.8,71.7c1.2,0.2,1.9,1.4,1.7,2.7l-0.2,1.5c-0.2,1.3-1.3,2.2-2.4,2l0,0c-1.2-0.2-1.9-1.4-1.7-2.7
				l0.2-1.5C161.5,72.4,162.6,71.5,163.8,71.7z"/>
			<path class="st18" d="M135.4,67.5c1.2,0.2,1.9,1.4,1.7,2.7l-0.2,1.5c-0.2,1.3-1.3,2.2-2.4,2l0,0c-1.2-0.2-1.9-1.4-1.7-2.7
				l0.2-1.5C133.1,68.3,134.2,67.4,135.4,67.5z"/>
			<path class="st19" d="M122,72.4c0.3,0,0.6,0.2,0.7,0.5c1.2,4.6,4.1,12.5,8.9,13.2c4.9,0.7,9.7-6.4,19.8-4.8
				c7.2,1.1,10.4,9.5,14.8,10.1c1.9,0.3,3.1-0.4,3.8-1.3c-2.8,5.9-7.6,11-14,13.8c-8.9,4-19.1,0-26.8-4.8c-1.9-1.2-3.8-2.5-5.5-4
				c-3.9-7.5-3.2-17.1-2.5-22.2C121.4,72.7,121.7,72.4,122,72.4z"/>
			<path class="st3" d="M105.5,61.1c0,0.2,0.2,0.4,0.4,0.4l15.5,2.4c3.7,0.6,3.4,4.9,5.3,8.8c0,0,3.9,7.8,10.3,8.8
				s10.1-6.4,15.3-5.6c4.4,0.7,5.2,8.8,10.6,9.6c4.1,0.6,8.1-3,9.7-4.7c0.5-0.6,0.9-1.2,1.2-2c0.3-0.9,0.6-2.2,0.9-3.8
				c0.4-2.4,0.8-5,0.9-6c0-0.2-0.1-0.4-0.4-0.5c-33.4-5.1-37.9-5.8-69.1-10.6c-0.1,0-0.2,0-0.3,0.1s-0.1,0.2-0.2,0.3
				C105.4,58.9,105.4,59.9,105.5,61.1z M161,75c0.5-3.1,2.9-5.3,5.3-5c2.5,0.4,4.1,3.2,3.6,6.3s-2.9,5.3-5.4,5
				C162.1,80.9,160.5,78.1,161,75z M132.6,70.6c0.5-3.1,3.3-5.3,6.2-4.8c3,0.5,5,3.4,4.5,6.5s-3.3,5.3-6.2,4.8
				C134.1,76.6,132.1,73.7,132.6,70.6z"/>
			<path class="st6" d="M114.6,59.1c3-0.1,5.7,4.2,6,9.6c0.4,5.4-1.8,9.8-4.7,9.9c-3,0.1-5.7-4.2-6-9.6
				C109.5,63.6,111.6,59.2,114.6,59.1z"/>
			<path class="st20" d="M149.7,85.6c5.4,0.8,7.3,2.8,7.5,3c0.4,0.4,0.3,1.1-0.1,1.5c-0.2,0.2-0.6,0.3-0.9,0.3
				c-0.2,0-0.5-0.1-0.6-0.3c0,0-1.6-1.6-6.2-2.4c-4.6-0.7-6.6,0.3-6.6,0.4c-0.2,0.1-0.5,0.2-0.7,0.1c-0.3,0-0.6-0.2-0.8-0.5
				c-0.3-0.5-0.1-1.2,0.4-1.5C141.9,86.1,144.3,84.8,149.7,85.6z"/>
			<path class="st21" d="M109.4,38.4c-0.7-0.1-1.5,0.2-1.9,0.8c-2.8,4-4.4,8-5.3,12.4c-0.1,0.5,0,1.1,0.3,1.6s0.8,0.8,1.4,0.8
				c1.6,0.2,0.9,0.1,4.3,0.7c1-4.7,2.6-10.4,5.5-15.6l-3.1-0.5L109.4,38.4z"/>
			<path class="st21" d="M123.2,40.6c-2.2,5.3-3.6,11-4.5,15.7c19.1,2.9-7.3-1.1,13.6,2.1c0.8-4.7,1.9-10.5,3.2-15.9l-6.8-1
				L123.2,40.6z"/>
			<path class="st21" d="M157.3,45.8l-6.8-1c-0.3,5.6-1,11.4-1.7,16.2c22,3.4-7.4-1.1,13.6,2.1c0.5-4.8,0.9-10.6,0.4-16.4
				L157.3,45.8z"/>
			<path class="st21" d="M172.4,48.1c1.2,5.8,1,11.7,0.6,16.5c6.1,0.9,1.5,0.2,4.2,0.6c0.7,0.1,1.4-0.1,1.9-0.5s0.8-1.1,0.9-1.7
				c0.2-4.2-0.2-8.4-1.7-12.9c-0.2-0.7-0.8-1.2-1.6-1.3l-1.1-0.2L172.4,48.1z"/>
			<path class="st11" d="M113.7,39.1c-2.9,5.2-4.5,10.9-5.5,15.6c13.3,2-2.5-0.4,10.5,1.6c0.9-4.7,2.3-10.4,4.5-15.7l-5.3-0.9
				L113.7,39.1L113.7,39.1z"/>
			<path class="st11" d="M135.5,42.4c-1.4,5.4-2.4,11.2-3.2,15.9l16.6,2.6c0.7-4.7,1.4-10.6,1.7-16.2l-7.5-1.1L135.5,42.4z"/>
			<path class="st11" d="M172.3,48.1l-4.2-0.6l-5.3-0.8c0.5,5.7,0.1,11.6-0.4,16.4c13.1,2-2.7-0.4,10.5,1.6
				C173.4,59.8,173.6,53.9,172.3,48.1L172.3,48.1z"/>
			<path class="st10" d="M120.2,30.6c-2.7,2.5-4.8,5.4-6.5,8.5h0.1l4.2,0.6c2.5-5.1,5.9-9.7,10.7-12.7
				C125.6,27.9,122.8,29.1,120.2,30.6z"/>
			<path class="st10" d="M134.7,25.9c-5.3,2.9-8.9,8.5-11.5,14.7l5.5,0.8c2.3-6.8,5.5-12.9,10-15.8C137.4,25.6,136,25.7,134.7,25.9z
				"/>
			<path class="st10" d="M142.4,25.7c-2.8,3-5,9.6-6.8,16.8l7.5,1.2l2.7-17.6C144.6,25.9,143.5,25.7,142.4,25.7z"/>
			<path class="st10" d="M149.1,26.7c1.8,3.7,1.9,10.7,1.5,18l6.8,1c-0.2-7.1-1.4-14-4.8-18.1C151.4,27.3,150.2,27,149.1,26.7z"/>
			<path class="st10" d="M161.9,32.4c-1.7-1.2-3.6-2.2-5.6-3.1c4.1,4.4,5.9,10.8,6.5,17.4l5.3,0.8C167.3,42,165.5,36.6,161.9,32.4z"
				/>
			<path class="st10" d="M168.9,38.2c1.7,3.1,2.9,6.5,3.5,9.8l3.1,0.5c-0.4-1-0.8-1.9-1.3-2.8C172.8,43,171,40.5,168.9,38.2z"/>
			<path class="st22" d="M110.6,38.6l3.1,0.5c1.7-3.1,3.8-6,6.5-8.5C116.5,32.7,113.2,35.4,110.6,38.6z"/>
			<path class="st22" d="M128.6,27.1c-4.8,3-8.2,7.6-10.7,12.7l5.3,0.8c2.6-6.2,6.2-11.8,11.5-14.7
				C132.6,26.1,130.6,26.5,128.6,27.1z"/>
			<path class="st22" d="M138.8,25.6c-4.5,2.9-7.7,9.1-10,15.8l6.8,1c1.8-7.2,4.1-13.8,6.8-16.8C141.2,25.6,139.9,25.6,138.8,25.6z"
				/>
			<path class="st22" d="M145.7,26L143,43.6l7.5,1.1c0.4-7.4,0.3-14.3-1.5-18C148,26.4,146.9,26.2,145.7,26L145.7,26z"/>
			<path class="st22" d="M152.5,27.7c3.4,4.1,4.6,10.9,4.8,18.1l5.5,0.8c-0.6-6.6-2.4-13-6.5-17.4c-0.6-0.3-1.2-0.6-1.9-0.8
				C153.9,28.1,153.2,27.9,152.5,27.7z"/>
			<path class="st22" d="M161.9,32.4c3.6,4.3,5.4,9.6,6.2,15.1l4.2,0.6h0.1c-0.7-3.4-1.8-6.7-3.5-9.8
				C166.9,36,164.5,34.1,161.9,32.4z"/>
			<path class="st23" d="M136.2,168.5c-46.4,0-84.2-37.8-84.2-84.2S89.9,0.1,136.2,0.1s84.2,37.8,84.2,84.2S182.9,168.5,136.2,168.5
				z M136.2,8.7c-41.7,0-75.7,33.9-75.7,75.7s33.9,75.7,75.7,75.7s75.7-33.9,75.7-75.7S178,8.7,136.2,8.7z"/>
		</g>
	</g>
</g>
</svg>
