<svg preserveAspectRatio="none slice" xmlns="http://www.w3.org/2000/svg" viewBox="0 0 982.72 449.97"><defs><style>.cls-1{isolation:isolate;}.cls-2{fill:#f05a28;}.cls-2,.cls-4,.cls-5,.cls-6,.cls-7,.cls-8,.cls-9{mix-blend-mode:multiply;}.cls-3{fill:#1c75bc;}.cls-4{fill:#eb008b;}.cls-5{fill:#95c93d;}.cls-6{fill:#00aeef;}.cls-7{fill:#be1e2d;}.cls-8{fill:#f7941e;}.cls-9{fill:#ef4136;}</style></defs><title>indianapolis</title><g class="cls-1"><g id="Layer_2" data-name="Layer 2"><g id="Layer_2-2" data-name="Layer 2"><polygon class="cls-2" points="448.51 449.71 448.51 352.08 424.3 327.87 374.19 327.87 374.19 449.71 448.51 449.71"/><path class="cls-3" d="M816.54,106.79h-7.6V92.1h-5.57V82.48h-8.61V76.91L784.62,60.19h-4.51V29.29h-2.22V0h-2.14V29.29h-2.22v30.9H764V29.29h-2.23V0h-2.13V29.29h-2.23v30.9h-4.51L742.75,76.91v5.57h-8.61V92.1h-5.57v14.69H721s-6.08,342.92,0,342.92h95.57C822.61,449.71,816.54,106.79,816.54,106.79Z"/><path class="cls-4" d="M981.18,386.63c0-2.64-5.26-4.93-12.92-6a8.68,8.68,0,0,0,.89-.93c18.63-9.67,12.5-13.44,13-13.2-27.83-14.86-98.1-13.68-98.1-13.68l-1.33.08-1.33-.08s-70.28-1.18-98.11,13.68c.47-.24-5.66,3.53,13,13.2a8.68,8.68,0,0,0,.89.93c-7.65,1.1-12.92,3.39-12.92,6,0,3.42,8.85,6.25,20.28,6.67v5.07c-11.43.29-20.28,2.22-20.28,4.55s8.85,4.26,20.28,4.54v6c-11.43.28-20.28,2.21-20.28,4.54s8.85,4.26,20.28,4.55v6.94c-11.43.29-20.28,2.22-20.28,4.55s8.85,4.26,20.28,4.54v11.12H960.9V438.59c11.43-.28,20.28-2.21,20.28-4.54s-8.85-4.26-20.28-4.55v-6.94c11.43-.29,20.28-2.22,20.28-4.55s-8.85-4.26-20.28-4.54v-6c11.43-.28,20.28-2.21,20.28-4.54s-8.85-4.26-20.28-4.55V393.3C972.33,392.88,981.18,390.05,981.18,386.63Z"/><path class="cls-5" d="M325.69,408.88V383.49h3v-3.17h-5.44V326.37l3.47-2.42v-4.68H320.4V287.83l2.26-3.93v-2.72h-3.47V269.09h-3.78l-45.79-15.26-1.06-3.47H257.45l-1.06,3.47L210.6,269.09h-3.78v12.09h-3.47v2.72l2.26,3.93v31.44h-6.34V324l3.47,2.42v53.95H197.3v3.17h3v25.39H125.88v40.83H400.13V408.88Zm-86.91-42.51H230.7V320.69h8.08Zm14.13,0h-8.08V320.69h8.08ZM259,320.69H267v45.68H259Zm11.73,87.42H255.31V379.05H270.7Zm10.48-41.74H273.1V320.69h8.08Zm14.13,0h-8.08V320.69h8.08Z"/><polygon class="cls-6" points="594.7 449.71 594.7 253.25 574.05 245.92 562.73 245.92 536.76 245.92 525.43 245.92 504.79 253.25 504.79 449.71 594.7 449.71"/><path class="cls-7" d="M518.11,449.71l-4.41-6.87h-4.3V429.52l-3.25-4.09V412.21H494.61L491,379.49l2.94-3v-3.89l-3.09-3.09-5.51-2.25V350.54L483,345.92l-2.73-108,2.62-2.52v-14h-1.57v-5.55H479v-5h-3.83a2.9,2.9,0,0,0-.49-4.32l-.37-1.12c-.08-.24.82-1.83.78-2.87s-.86-5.14-.82-5.88a20.81,20.81,0,0,1,.26-2.87c.14-.38,1.87-2.49,2-2.89a9.72,9.72,0,0,0,.28-2.73,10.25,10.25,0,0,0-.44-1.06,1.55,1.55,0,0,0-.12-.32v-1.26s.5-.06.52-.19-.24-.26-.16-.34,1.08,0,1.06-.2-1-.26-1-.38a1.18,1.18,0,0,1,0-.28,1.25,1.25,0,0,0-.48,0c-.31.06-.57-.14-.75-.06s-.24.12-.22.24-.28.16-.1.38-.14.32-.12.54.58.29.58.29l.2,1.28s-.3,0-.28.24a2.64,2.64,0,0,0,.18.82.88.88,0,0,1,.16.3v.67h.24a9.2,9.2,0,0,0-.56,1.4c0,.22,0,.46,0,.46s-1,.9-1.12,1.05-1.14.84-1.28,1l-.13.16-.46.07a7.7,7.7,0,0,0-.13-.95c0-.2.32-1.05.32-1.27a3.37,3.37,0,0,0-.15-.78,1.31,1.31,0,0,1,.23-.58c.09-.16-.42-1-.63-1s-.19.46-.19.46-.24,0-.44.07-.31.26-.47.32-.32-.25-.21-.3.67-.74-.33-.7-1.67,1.86-1.66,2.05c.25-.44,1.23-.65,1.44-.65s.3,0,.38.24-.71.79-.65,1.37a2.66,2.66,0,0,0,.82,1.24l0,1.07a4.41,4.41,0,0,1-.55.18c-.22,0-.41-.08-.59.08s-.48.72-.68.82-.26,0-.52.21a1.82,1.82,0,0,1-.75.37l.09-.06-.15-.24-1.17.4a2.39,2.39,0,0,0,0-.78c-.09-.2-.57-.18-.57-.18l-.6-1a.29.29,0,0,0-.08-.34c-.17-.13-.38-.25-.5-.18s-.19.64-.06.68a6.76,6.76,0,0,1,.79.93,4.92,4.92,0,0,0,.05,1,3.42,3.42,0,0,0,.24.39l-.62.65.1.22,1.08-.53,4.78,7.78,0,.1s-.74.45-.6.63a7.82,7.82,0,0,0,1.3.7l-.08.46a1.24,1.24,0,0,0-.8.22,1.2,1.2,0,0,0-.21.82,2.89,2.89,0,0,0,.06,3.82H467.2v5h-2.3v5.55h-1.58v14l2.63,2.52-2.73,108-2.41,4.62v16.68l-5.51,2.25-3.09,3.09v3.89l2.93,3-3.56,32.72H440v13.22l-3.25,4.09v13.32h-4.3l-4.41,6.87Zm-47.49-253a6.94,6.94,0,0,0-.6,2.59,17.83,17.83,0,0,0,.57,2.81l-3.42-5.91a1.38,1.38,0,0,0,.58.09c.32-.08,1.24-.14,1.4-.16s.93-.3,1.07-.82c0,0,.46.24.52.5A1.49,1.49,0,0,1,470.62,196.74Z"/><path class="cls-8" d="M696.9,389.88v-5.12H672.63V370.45h.55v-.69h-.58v-1.6l1.39-.9v-.63h-1.66v-2.15h.41v-.4h-4.5v-.89l-.94-.52V354l1.05-.87v-.6h-.94v-.57a5.81,5.81,0,0,1,0-.74c0-.21-.68-.5-.68-.5v-.78a20.72,20.72,0,0,0-1.39-2.29c0-12.06-9.72-16.68-12.84-17.86V321.1h1v-.52h-.66c-.26,0-.74-.79-.94-1.16V319a2.65,2.65,0,0,0-1.91-2.54.84.84,0,0,0,.16-.49.91.91,0,0,0-.71-.88v-.88a.89.89,0,1,0-1.08-.87.88.88,0,0,0,.71.87v.88a.9.9,0,0,0-.71.88.84.84,0,0,0,.15.49,2.65,2.65,0,0,0-1.9,2.54v.4c-.21.37-.68,1.16-1,1.16H645v.52h1v8.66c-3.13,1.18-12.85,5.8-12.85,17.86a20.81,20.81,0,0,0-1.38,2.29v.78s-.71.29-.68.5,0,.74,0,.74v.57h-.95v.6l1,.87v8.7l-.94.52v.89h-4.5v.4h.41v2.15h-1.66v.63l1.39.9v1.6h-.57v.69h.54v14.31H601.57v5.12h-31.4v59.83H728.29V389.88Z"/><polygon class="cls-9" points="148.75 380.2 148.75 366.37 124.69 366.37 88.69 346.43 87.14 345.57 85.6 346.43 49.59 366.37 25.54 366.37 25.54 380.2 0 387.75 0 449.97 85.6 449.97 88.69 449.97 174.29 449.97 174.29 387.75 148.75 380.2"/></g></g></g></svg>