<?xml version="1.0" encoding="utf-8"?>
<!-- Generator: Adobe Illustrator 22.1.0, SVG Export Plug-In . SVG Version: 6.00 Build 0)  -->
<svg version="1.0" id="Layer_1" xmlns="http://www.w3.org/2000/svg" xmlns:xlink="http://www.w3.org/1999/xlink" x="0px" y="0px"
	 viewBox="0 0 266.8 236.5" style="enable-background:new 0 0 266.8 236.5;" xml:space="preserve">
<style type="text/css">
	.st0{fill:#AEC0BE;}
	.st1{fill:#2F130C;}
	.st2{fill:#4D2511;}
	.st3{fill:#714938;}
	.st4{fill:#5C311E;}
	.st5{fill:#BC7950;}
	.st6{fill:#F9A977;}
	.st7{fill:#FDCAA0;}
	.st8{fill:#F89B65;}
	.st9{fill:#5C2F1D;}
	.st10{fill:#D34963;}
	.st11{fill:#FFFFFF;}
	.st12{fill:#4B2C12;}
	.st13{fill:#B23D54;}
	.st14{fill:#FBD2D0;}
	.st15{fill:#F27684;}
	.st16{fill:#CF8559;}
	.st17{fill:#F9A98D;}
	.st18{fill:#334952;}
	.st19{fill:#2D1610;}
	.st20{fill:#582A19;}
	.st21{fill:#F5949C;}
	.st22{fill:#D3E6E4;}
	.st23{fill:#2A6A86;}
</style>
<g>
	<g id="Layer_2_1_">
		<path class="st0" d="M136.6,5.1c-44.2,0-79.9,35.8-79.9,80c0,33.1,20.1,61.5,48.8,73.6c0-0.2,0-0.4,0.1-0.6c9.4,4.5,19.9,7,31,7
			c5.5,0,10.8-0.6,15.9-1.8v0.1c0,0,0,0,0.1,0v-0.1c3-0.7,6-1.5,8.8-2.6c0,0.1,0.1,0.2,0.1,0.3c31.9-10.5,55-40.5,55-75.9
			C216.5,40.9,180.7,5.1,136.6,5.1z"/>
	</g>
	<g id="Layer_3">
		<path class="st1" d="M104.6,41l24.1-8.6l23.9,1.5l9.6,10l-0.7,4.8v4.8l-7.8,0.6l-12.3,9.5l3.1,30.3l-9.7,8l-16.8-11
			c0,0-13-33.3-13.4-33.8C104.1,56.6,104.6,41,104.6,41z"/>
	</g>
	<g id="Layer_1_1_">
		<path class="st0" d="M136,40.5c-0.1,0-0.1,0-0.2,0c0.3,0.3,0.6,0.7,0.9,1.1c0.1,0,0.1,0,0.2,0C136.6,41.3,136.3,40.9,136,40.5z"/>
		<path class="st0" d="M131.6,43.3c-0.1,0-0.1,0-0.2,0c2.6,2.1,6.3,3.7,9.6,4.4c0.1,0,0.2,0,0.3,0C137.9,47,134.2,45.3,131.6,43.3z"
			/>
		<path class="st0" d="M136.1,44.8c0.1-0.3,0.3-0.6,0.5-0.9C136.4,44.2,136.3,44.5,136.1,44.8z"/>
		<path class="st2" d="M133.6,43.2c-0.1,0.2-0.2,0.5-0.3,0.7c0.1-0.2,0.3-0.5,0.5-0.8c1.4-2.5,3.7-4.9,5.8-7.1c0,0,0,0-0.1,0
			C137.3,38.2,135,40.7,133.6,43.2z"/>
		<path class="st2" d="M147.3,41.6c-7.3,0.8-14.7,1.2-21.9,1.6c0,0,0,0,0.1,0.1C132.8,42.9,140,42.5,147.3,41.6
			C147.3,41.7,147.3,41.7,147.3,41.6z"/>
		<path class="st2" d="M135.6,48.2c6.3-0.3,13,0.3,19.1-0.5c-0.1,0-0.1,0-0.2,0C148.5,48.4,141.9,47.9,135.6,48.2
			c-5.5,0.2-12.1,1.3-17.6-0.6c0.1,0.1,0.1,0.1,0.2,0.2C123.7,49.5,130.2,48.4,135.6,48.2z"/>
		<path class="st2" d="M136.1,40.5c0.2-0.1,0.5-0.1,0.7-0.2c0,0,0-0.1-0.1-0.1C136.5,40.3,136.2,40.4,136.1,40.5
			C136,40.5,136.1,40.5,136.1,40.5z"/>
		<path class="st3" d="M141.8,46.2c-1.6-0.3-3.3,0.1-4.9,0.1c-2,0-4.1-0.3-6.1-0.7c-0.2,0-0.3,0.2-0.1,0.2c3,1.1,8.1,2.5,11.2,1
			C142.2,46.7,142.1,46.3,141.8,46.2z"/>
		<path class="st3" d="M135.3,44.6c0.9,0,1.6-0.1,2.4-0.5c0.3-0.2,0.2-0.7-0.2-0.7c-0.8,0-1.5,0.1-2.3,0.3
			C134.6,43.7,134.7,44.5,135.3,44.6z"/>
		<path class="st4" d="M134.3,36c5.5-0.3,10.8,0.8,16.3,0.8c0.8,0,0.9-1,0.2-1.2c-10.5-3.7-23.8-0.6-34,2.6c-0.1,0.1-0.1,0.2,0,0.2
			C122.7,37.5,128.3,36.4,134.3,36z"/>
		<path class="st4" d="M138,39.3c-3.1-0.7-7.3,0.1-10.1,1.2c-0.3,0.1-0.1,0.4,0.1,0.4c1.8,0,3.6-0.3,5.4-0.4
			c1.6-0.1,3.1-0.1,4.7-0.5C138.3,39.9,138.3,39.4,138,39.3z"/>
		<path class="st0" d="M123.6,66.6c-0.9-0.7-1.5-1.8-1.5-3l0,0C122.1,64.8,122.7,65.8,123.6,66.6z"/>
		<path class="st0" d="M124,66.8c-4.7,0-10.4-0.5-14.6-2.6C113.5,66.4,119.2,66.8,124,66.8z"/>
		<path class="st0" d="M124,66.8c-0.1-0.1-0.3-0.2-0.4-0.3C123.7,66.7,123.8,66.8,124,66.8L124,66.8z"/>
		<path class="st0" d="M111.4,54.9c-1.2-0.5-2.4-1-3.4-1.4l-0.1,0.1l0.1-0.1C109,54,110.1,54.4,111.4,54.9z"/>
		<path class="st0" d="M142.4,54.5c0.1,0,0.3,0,0.4,0C142.7,54.5,142.5,54.5,142.4,54.5z"/>
		<path class="st0" d="M142.2,54.5c-2.4,0.1-5,0.5-7-0.3l0,0C137.3,55,139.9,54.6,142.2,54.5z"/>
		<path class="st0" d="M147.4,84.4c-0.1-0.3-0.1-0.6-0.2-0.9c0.1,0.2,0.3,0.3,0.5,0.5c0.4,0.4,0.8,0.7,1.3,0.9v-0.1
			c-0.5-0.3-1-0.6-1.4-1v-0.1c-0.1-0.1-0.3-0.3-0.5-0.5C147.1,83.7,147.2,84.1,147.4,84.4z"/>
		<path class="st0" d="M158.1,78.3c-0.2,0.3-0.4,0.6-0.5,0.9C157.8,78.9,157.9,78.6,158.1,78.3L158.1,78.3z"/>
		<path class="st0" d="M157,80L157,80L157,80z"/>
		<path class="st0" d="M157.2,79.7L157.2,79.7L157.2,79.7z"/>
		<path class="st0" d="M149.5,86.3c0.5,0.3,1,0.6,1.5,0.7c0.6,0.1,1.1,0.2,1.5,0.2c-1.1-0.1-2.2-0.5-3.1-1c-0.2-0.1-0.4-0.3-0.6-0.5
			c0,0,0,0,0,0.1C149,85.9,149.2,86.1,149.5,86.3z"/>
		<path class="st0" d="M133.4,67.4c-3.8-0.1-8.2-2.2-11.2-3.7C125.2,65.2,129.6,67.3,133.4,67.4z"/>
		<path class="st0" d="M136.1,81C136.1,81.1,136.2,81.1,136.1,81C136.1,81.1,136.1,81,136.1,81z"/>
		<path class="st0" d="M156.9,55.6c-1.4,0-2.7,0.1-3.9,0c-3.2-0.3-6.3-0.9-9.5-1.2c0,0,0,0-0.1,0c3.2,0.3,6.3,0.9,9.5,1.2
			C154.2,55.7,155.5,55.7,156.9,55.6z"/>
		<path class="st0" d="M157.6,79.6L157.6,79.6L157.6,79.6z"/>
		<path class="st0" d="M133.4,116.8L133.4,116.8L133.4,116.8c0.2,0.2,0.5,0.4,0.7,0.6c0.4,0.4,0.8,0.7,1.2,1c-0.4-0.3-0.8-0.7-1.2-1
			C133.8,117.2,133.6,117,133.4,116.8z"/>
		<path class="st0" d="M130.6,81.5L130.6,81.5c0.4-0.1,1-0.1,1.4-0.1l0,0C131.5,81.4,131.1,81.4,130.6,81.5z"/>
		<path class="st0" d="M130.2,80c-1.7,0.4-3.8,0.4-4.5-0.9c-0.2-0.3-0.3-0.7-0.3-1.1c0,0.4,0.1,0.8,0.3,1.1
			C126.5,80.4,128.6,80.4,130.2,80C130.3,80.1,130.3,80,130.2,80L130.2,80z"/>
		<path class="st0" d="M128.4,73.6C128.4,73.7,128.4,73.7,128.4,73.6h0.5v-0.1L128.4,73.6z"/>
		<path class="st0" d="M121.3,76.4c-0.2,2.6,0.6,6.6,3.2,8.2C121.9,82.9,121.2,79,121.3,76.4c0.2-3.1,4.6-6.1,6.5-4
			C126,70.2,121.5,73.1,121.3,76.4z"/>
		<path class="st0" d="M137.3,110.1c-0.1-0.1-0.3-0.1-0.4-0.2C137,110,137.2,110,137.3,110.1z"/>
		<path class="st0" d="M137.2,120.2c-0.6-0.5-1.3-1.1-2-1.7C135.9,119.1,136.6,119.7,137.2,120.2z"/>
		<path class="st0" d="M142.5,124.8c-0.6-0.5-1.3-1.1-2.5-2.1C141.2,123.7,141.9,124.3,142.5,124.8z"/>
		<path class="st0" d="M140.1,122.7c-0.8-0.7-1.7-1.5-2.9-2.5C138.4,121.2,139.3,122,140.1,122.7z"/>
		<path class="st5" d="M130.2,80c-0.3-1.9-0.7-3.7-1.2-5.6c-1.6,0.1-3.6,1.9-3.7,3.6c0,0.4,0.1,0.7,0.3,1.1
			C126.5,80.4,128.6,80.4,130.2,80z"/>
		<path class="st1" d="M124.8,84.7c-0.1,0-0.1-0.1-0.2-0.2c-2.7-1.6-3.4-5.6-3.2-8.2c0.2-3.3,4.7-6.2,6.5-4c0.3,0.3,0.5,0.7,0.6,1.2
			l0.5-0.1v0.1l0,0c0.1,0.2,0.1,0.5,0.2,0.7l0,0c0.5,1.9,0.8,3.8,1.2,5.7h-0.1l0,0l0,0c0,0,0,0,0.1,0c0.1,0.5,0.2,0.9,0.3,1.4
			c0.5-0.1,0.9-0.1,1.4-0.1l0,0l0,0c0.6,0,1.2,0,1.8,0.1c0.6,0,1.2,0,1.8-0.1l0.3-0.1c0-0.1,0-0.1,0-0.1c-1.8-3.5-2.9-9.2-2.6-13.7
			c-3.8-0.1-8.2-2.2-11.2-3.7h-0.1c0,1.2,0.6,2.3,1.5,3c0.1,0.1,0.2,0.2,0.4,0.3l0,0l0,0l0,0c-4.8,0-10.5-0.5-14.6-2.6l0,0
			c-0.4-2-0.7-4.1-0.9-6.1c-0.2-1.6-0.4-3.1-0.5-4.6l0.1-0.1c1,0.5,2.2,1,3.4,1.4c-4.6-3.3-8.4-4.8-6-10.1c0.1-0.3,0.3-0.6,0.5-0.9
			c0.1-0.2,0.2-0.5,0.3-0.7c1.4-2.5,3.7-5,5.9-7.1c0,0,0,0,0.1,0c0,0,0,0,0.1-0.1c-0.7,0.3-1.4,0.6-2.1,0.9
			c-6.1,2.7-8.6,4.7-9.9,11.8c-0.4,2.1,7.2,25.5,8,27.2c0.7,1.5,1.5,2.9,2.5,4.3c0.1,0.3,0.3,0.7,0.4,1c2.4,5.6,6.9,10.1,9.3,15.7
			c0.9-0.2,1.7-0.6,2.4-1c3.6-2.3,5.3-7.1,6-10.6C127.4,85.6,125.9,85.4,124.8,84.7z M131.2,70.2c1,1.4,1.5,3,2,4.6
			c0.5,1.5,1.3,3.1,1.3,4.6c0,0.3-0.4,0.3-0.5,0.1c-1-1.2-1.3-3-1.8-4.5c-0.5-1.6-1-3.1-1.4-4.7C130.9,70.2,131.1,70,131.2,70.2z
			 M121.7,70c0.1,0.3,0.8,0.8,1,1.1c0.1,0.3-0.1,0.6-0.4,0.6c-1-0.1-1.7-0.5-1.8-1.4C120.6,69.8,121.4,69.6,121.7,70z M116.6,69.9
			c0-0.1,0.3-0.2,0.3-0.1c0.5,1.6,2.5,2.3,2.6,3.9c0.1,0.2-0.2,0.4-0.4,0.4C116.9,73.9,116.5,71.6,116.6,69.9z M120.3,89.3
			c-2.7-2.2-4.2-5.8-5.1-9c-1.2-4-2.9-7.7-4.9-11.4c-0.1-0.1,0.1-0.2,0.1-0.1c2.6,3.4,4.1,7.4,6.1,11c1.6,2.9,3.7,5.8,4.7,9
			C121.5,89.3,120.7,89.6,120.3,89.3z"/>
		<path class="st1" d="M129.1,74.4c0.4,1.9,0.8,3.7,1.2,5.6h0.1C130.1,78.1,129.7,76.2,129.1,74.4L129.1,74.4
			C129.1,74.3,129.1,74.4,129.1,74.4L129.1,74.4z"/>
		<path class="st6" d="M130.5,101.9c0.1,0,0.1,0.1,0.2,0.1c0.4,0.1,0.8,0.3,1.2,0.4c0.4,0.1,0.8,0.3,1.2,0.5s0.7,0.2,1,0.3
			c1.6,0.4,3.1,0.5,4.6,0.4c0.3,0,0.5-0.1,0.7-0.1c0.1,0,0.2-0.1,0.3-0.1c-2.4-2.4-3.7-5.9-3.8-10c-0.3-4.1-0.2-8.2,0.1-12.2
			l-0.3,0.1c-0.7,0.1-1.3,0.1-1.9,0.1c-0.6,0-1.2-0.1-1.9-0.1c-0.4,0-1,0-1.4,0.1l0,0c0,0,0,0-0.1,0c-0.1-0.5-0.1-1-0.3-1.4
			c-1.7,0.4-3.8,0.3-4.5-0.9c-0.2-0.4-0.3-0.7-0.3-1.1c0-1.7,2-3.5,3.6-3.7c-0.1-0.2-0.1-0.5-0.2-0.7l-0.5,0.1c0,0,0,0,0-0.1l0,0
			c-0.1-0.5-0.3-0.9-0.6-1.3c-1.8-2.1-6.2,0.9-6.4,4.1c-0.2,2.5,0.6,6.4,3.2,8.1c0.1,0,0.1,0.1,0.2,0.1c1.2,0.7,2.7,0.9,4,0.6v0.1
			h0.1c-0.7,3.5-2.5,8.4-5.9,10.6c0.8,0.9,1.7,1.8,2.6,2.5c0.5,0.4,0.9,0.7,1.4,1.1c0,0,0,0,0.1,0l0,0
			C128.1,100.6,129.3,101.3,130.5,101.9z"/>
		<path class="st6" d="M129.1,74.4L129.1,74.4C129.1,74.3,129.1,74.3,129.1,74.4c-1.6,0.1-3.6,1.9-3.6,3.6
			C125.5,76.3,127.5,74.5,129.1,74.4z"/>
		<path class="st6" d="M132,81.4c0.6,0,1.2,0,1.9,0.1C133.2,81.4,132.6,81.4,132,81.4L132,81.4z"/>
		<path class="st6" d="M127.8,72.4c0.3,0.3,0.5,0.7,0.6,1.3l0,0C128.3,73.1,128,72.7,127.8,72.4z"/>
		<path class="st6" d="M130.3,80.1c0.1,0.5,0.2,1,0.3,1.4c0,0,0,0,0.1,0C130.5,81,130.4,80.5,130.3,80.1
			C130.3,80,130.3,80.1,130.3,80.1z"/>
		<path class="st6" d="M128.9,73.6L128.9,73.6c0,0.2,0.1,0.5,0.1,0.7l0,0C129.1,74.1,129,73.8,128.9,73.6z"/>
		<path class="st6" d="M124.7,84.7c-0.1,0-0.1-0.1-0.2-0.1C124.6,84.6,124.7,84.7,124.7,84.7c1.2,0.7,2.7,1,4,0.7v-0.1
			C127.4,85.6,125.9,85.3,124.7,84.7z"/>
		<path class="st6" d="M129.1,74.4L129.1,74.4L129.1,74.4L129.1,74.4C129.1,74.3,129.1,74.3,129.1,74.4L129.1,74.4z"/>
		<path class="st7" d="M147.6,58.6c-1.2,0-2.2,0.1-3.1,0.3c-4.3,0.8-5.6,2.7-6.5,7.8c-1,4.7-1.7,9.5-2,14.4l0.1,0.1H136
			c-0.3,4.1-0.3,8.2-0.1,12.2c0.1,4.1,1.4,7.6,3.8,10c6.3-1.6,12.2-5.6,14-13.4c-0.1,0-0.1,0-0.1,0s0,0-0.1,0l0,0
			c-0.2,0-0.5,0-0.7-0.1c-1-0.1-2.4-0.3-3-1c-0.5-0.5-0.9-1-1.2-1.8l0,0c-0.5-0.9-1.1-1.8-1.3-2.7c-0.1-0.4-0.2-0.7-0.2-1.1
			c0.1,0.2,0.3,0.4,0.5,0.5v-0.1c1.5,1.5,4.4,1.8,7,1.7c0.3,0,0.6,0,0.8-0.1c0.4-1.1,0.7-2.2,1-3.3c0.1-0.4,0.2-0.8,0.3-1.2
			c0.3-0.1,0.6-0.2,0.9-0.3c-0.1-0.3-0.2-0.6-0.1-0.9v-0.1c0-0.1,0-0.2,0.1-0.3c0.1-0.3,0.3-0.6,0.5-0.9c-0.1,0-0.1,0-0.2,0
			c-0.4-0.1-0.4-0.5-0.1-0.6c0.5-0.3,0.9-0.4,1.4-0.5c1.4-1.2,3.5-2.1,4.5-1.7h0.1c0-0.1,0-0.1,0-0.3c-3.3-1.3-4.9-5.1-5-8.3
			c0-0.3,0-0.6,0-0.8c0.1-2.7,0-5.4-0.3-8.1c0,0,0,0-0.1,0c0,0,0,0,0,0.1C154.8,58.3,151.3,58.6,147.6,58.6z M149.9,78.1
			c-1.6-0.8-4.5-1.6-4.9-3.4c-0.1-0.5,0.1-0.9,0.5-1.1c1.9-0.9,4.4,0.1,6.2,0.7C154.8,75.3,152.9,79.5,149.9,78.1z M152.1,71.5
			c-1.4,0-2.5-1.3-2.5-2.9s1.1-2.9,2.5-2.9s2.5,1.3,2.5,2.9S153.6,71.5,152.1,71.5z M154.7,60.4c-1.2,0.5-2.5-0.2-3.9-0.1
			c-2,0.1-3.7,0.8-5,2.2c-0.1,0.1-0.2,0-0.1-0.2c1.1-1.4,2.4-2.7,4.3-3.3c1.6-0.4,3.9-0.7,4.9,0.8C155.1,60.1,154.9,60.3,154.7,60.4
			z M157,80L157,80L157,80c0-0.1,0.1-0.2,0.1-0.3c0.1,0,0.1-0.1,0.1,0l0,0l0,0C157.2,79.8,157.1,80,157,80L157,80z"/>
		<path class="st8" d="M135.3,109.2c0.3,0.1,0.6,0.3,0.9,0.4c0.2,0.1,0.5,0.2,0.7,0.3c0.1,0.1,0.3,0.1,0.4,0.2
			c0.2,0.1,0.4,0.2,0.6,0.2c0.6,0.3,1.1,0.5,1.6,0.7c0,0,0,0,0.1,0c-0.1-0.3-0.6-1.7-0.9-3.5c-0.1-1.3,0-2.6,0-3.9
			c-1.4,0.1-3,0-4.6-0.4c-0.3-0.1-0.7-0.2-1-0.3c-0.4-0.1-0.8-0.3-1.2-0.5s-0.8-0.3-1.2-0.5c-0.1,0-0.2-0.1-0.3-0.1
			c-1.2-0.6-2.4-1.3-3.6-2.2c0.2,1.9,0.6,4.8,0.8,6.8c1.8,0.6,3.8,1.2,5.6,1.9C133.9,108.7,134.6,108.9,135.3,109.2z"/>
		<path class="st8" d="M130.7,101.9c-0.1,0-0.1-0.1-0.2-0.1c-1.2-0.6-2.4-1.3-3.7-2.2l0,0c1.2,0.9,2.4,1.6,3.6,2.2
			C130.5,101.9,130.6,101.9,130.7,101.9z"/>
		<path class="st2" d="M136.1,81C136.1,81.1,136.1,81.1,136.1,81L136.1,81C136.1,81.1,136.1,81.1,136.1,81z"/>
		<path class="st6" d="M156.9,55.6c-1.4,0.1-2.7,0.1-4,0c-3.2-0.3-6.3-0.9-9.5-1.2c-0.2,0-0.4,0-0.6,0c-0.1,0-0.3,0-0.4,0
			s-0.1,0-0.2,0c-2.4,0.1-4.9,0.5-7-0.3c0,0.1,0.1,0.1,0.1,0.2c0,0,0,0-0.1,0l0,0c0.3,0.7,0.4,1.4,0.5,2.1c0.1,0.8,0.1,1.8-0.1,2.6
			c-0.3,1.8-1,3.7-1.8,5.4h0.1c-0.2,0.8-0.3,1.8-0.4,2.9c-0.3,4.4,0.8,10.1,2.6,13.7c0.3-4.8,1-9.7,2-14.4c0.9-5,2.1-7,6.5-7.7
			c0.9-0.2,1.9-0.3,3.1-0.3c3.6,0,7.1-0.3,10.8-0.6c-0.1-0.8-0.1-1.6-0.2-2.4l0,0C157.8,55.6,157.3,55.6,156.9,55.6z"/>
		<path class="st6" d="M144.5,58.9c0.9-0.1,1.9-0.2,3.1-0.3c3.7,0,7.2-0.3,10.8-0.6c0,0,0,0,0-0.1c-3.6,0.3-7.1,0.6-10.8,0.6
			C146.5,58.6,145.5,58.7,144.5,58.9z"/>
		<path class="st9" d="M161,40.5c0.3,0.4,0.5,0.7,0.9,1.1c-0.1,0-0.1,0-0.2,0l0,0c-7.3,0.8-14.6,1.2-21.9,1.6
			c2.6,2.1,6.3,3.7,9.7,4.4c-0.1,0-0.2,0-0.3,0c0.1,0,0.1,0,0.2,0c-6.1,0.7-12.7,0.2-19.1,0.5c-5.4,0.3-11.9,1.4-17.4-0.4
			c5.4,4.7,15,5.5,22.3,6.6c0-0.1-0.1-0.1-0.1-0.2c0,0,0,0,0.1,0l0,0c2,0.8,4.6,0.4,7,0.3c0.1,0,0.1,0,0.2,0s0.3,0,0.4,0
			c0.2,0,0.4,0,0.6,0l0,0c0,0,0,0,0.1,0c3.2,0.3,6.3,0.9,9.5,1.2c1.2,0,2.6,0,3.9,0c0.4,0,0.9-0.1,1.3-0.1c0,0,0,0,0,0.1
			c5.6-0.3,11.6-1.4,16.2-2.9c-0.2,0-0.4,0-0.6,0c-2.9,0-6.9-1.2-9.9-2.3c0-0.2,0-0.3,0-0.5c3,0,6.1-0.7,9.1-1.2
			c-4.7,0.7-7.7-2.5-10.3-5.7c-0.1-0.5-0.3-0.8-0.5-1.3s-0.4-0.8-0.6-1.2c-0.1,0-0.1,0-0.2,0c0,0,0,0.1,0.1,0.1
			C161.4,40.4,161.2,40.5,161,40.5z M155.5,43.7c0.8-0.1,1.4-0.3,2.3-0.3c0.4,0,0.5,0.5,0.2,0.7c-0.8,0.4-1.5,0.5-2.4,0.5
			C154.9,44.5,154.8,43.7,155.5,43.7z M159.8,52.4c-11.1,1.4-26.8,1.5-36.9-3.5l0,0l0,0c11.6,4.6,24.7,0.9,36.9,2.7
			C160.3,51.7,160.3,52.3,159.8,52.4z M160.7,46.8c-3.1,1.5-8.2,0.1-11.2-1c-0.1,0-0.1-0.2,0.1-0.2c2,0.5,4.1,0.7,6.1,0.7
			c1.6,0,3.3-0.4,4.9-0.1C160.9,46.3,161,46.7,160.7,46.8z"/>
		<path class="st9" d="M143.4,54.4c-0.2,0-0.4,0-0.6,0C143,54.4,143.2,54.4,143.4,54.4L143.4,54.4z"/>
		<path class="st9" d="M135.2,54.2L135.2,54.2c-0.1,0,0,0.1,0,0.2c0,0,0,0,0.1,0C135.3,54.3,135.2,54.3,135.2,54.2z"/>
		<path class="st9" d="M156.9,55.6c0.4,0,0.9,0,1.3,0l0,0c0,0,0,0,0-0.1C157.8,55.5,157.3,55.6,156.9,55.6z"/>
		<path class="st9" d="M142.2,54.5c0.1,0,0.1,0,0.2,0C142.3,54.5,142.3,54.5,142.2,54.5z"/>
		<path class="st6" d="M159.9,77.6c-0.5,0.6-1,0.9-1.8,0.8c-0.2,0.3-0.4,0.6-0.5,0.9c0,0.1-0.1,0.2-0.1,0.3v0.1c0,0.3,0,0.6,0.1,0.9
			l0,0c0,0,0,0,0,0.1c2.6-1,6-2.7,6.1-5.1h-0.1c-1-0.4-3,0.4-4.4,1.6c0.1,0,0.1,0,0.2,0C159.8,77,160.1,77.3,159.9,77.6z"/>
		<path class="st6" d="M157.6,79.5c0-0.1,0-0.2,0.1-0.3C157.6,79.3,157.6,79.4,157.6,79.5z"/>
		<path class="st6" d="M157.6,79.6c-0.1,0.3,0,0.6,0.1,0.9l0,0C157.6,80.3,157.5,80,157.6,79.6z"/>
		<path class="st6" d="M157.2,79.7L157.2,79.7c-0.1,0.1-0.1,0.2-0.1,0.3l0,0C157.1,80,157.1,79.8,157.2,79.7L157.2,79.7z"/>
		<path class="st6" d="M157,80c0.1-0.1,0.1-0.2,0.1-0.3C157.1,79.8,157.1,80,157,80z"/>
		<path class="st6" d="M157,80L157,80c0.1-0.1,0.1-0.2,0.1-0.3C157.1,79.8,157,80,157,80z"/>
		<path class="st6" d="M157.1,79.7C157.2,79.7,157.2,79.7,157.1,79.7C157.2,79.7,157.2,79.7,157.1,79.7z"/>
		<path class="st10" d="M152.8,131.1c-0.5,0.1-0.9,0.3-1.4,0.3c-0.9,0.1-1.8,0.1-2.7,0.3h-0.1c2.3,10.3,2.5,21,3,31.7
			c3.1-0.6,6.1-1.4,9-2.4c-3.2-13.2-6.5-25.7-7.6-30C152.8,131,152.8,131.1,152.8,131.1z"/>
		<path class="st11" d="M149,84.9L149,84.9C149,85,149,85,149,84.9c0,0.3-0.1,0.5-0.2,0.8c0.2,0.2,0.4,0.4,0.6,0.5
			c0.9,0.6,2,0.9,3.1,1h0.1c-0.1,0-0.1,0-0.1,0c-0.4,0-0.9-0.1-1.5-0.2c0.5,0.2,1,0.3,1.6,0.3h0.1c-0.1,0-0.1,0-0.1,0
			c-1-0.1-2.9-0.3-4-1.1c-0.1,0.3,0,0.4,0.1,0.6c0.4,0.8,0.8,1.5,1.3,2c0.7,0.7,2.1,1,3,1c0.3,0.1,0.5,0.1,0.7,0.1
			c0.7-1.4,1.2-2.9,1.8-4.5c-0.3,0-0.6,0.1-0.8,0.1c-2.5,0.1-5.5-0.2-7-1.7v0.1C148,84.3,148.5,84.6,149,84.9z"/>
		<path class="st11" d="M150,88.9c-0.5-0.5-1-1.2-1.3-2V87v0.1C149,87.8,149.4,88.4,150,88.9c0.6,0.7,2,1,2.9,1
			c0.3,0.1,0.5,0.1,0.7,0.1l0,0c-0.1,0-0.4,0-0.7-0.1C152.1,89.8,150.6,89.6,150,88.9z"/>
		<path class="st12" d="M148.5,86.1c0.6,0.5,1.6,0.8,2.5,0.9c-0.5-0.2-1.1-0.4-1.5-0.7c-0.3-0.2-0.5-0.4-0.7-0.6c0,0,0,0,0-0.1
			l-0.1-0.1c0.1-0.2,0.2-0.5,0.3-0.6c-0.5-0.3-1-0.6-1.3-0.9c-0.2-0.2-0.3-0.3-0.5-0.5c0,0.3,0.1,0.6,0.2,0.9
			c0.3,0.8,0.7,1.6,1.2,2.4C148.5,86.5,148.4,86.4,148.5,86.1z"/>
		<path class="st12" d="M148.5,86.8c-0.5-0.8-0.9-1.6-1.2-2.4c0.3,0.9,0.8,1.8,1.3,2.7l0,0C148.6,87,148.6,86.9,148.5,86.8
			L148.5,86.8z"/>
		<path class="st12" d="M148.8,85.7c0.1-0.2,0.2-0.5,0.3-0.7c0,0-0.1,0-0.1-0.1C148.9,85.1,148.8,85.4,148.8,85.7
			C148.7,85.6,148.7,85.6,148.8,85.7z"/>
		<path class="st12" d="M148.5,86.8C148.5,86.8,148.5,86.9,148.5,86.8L148.5,86.8C148.6,86.9,148.6,86.9,148.5,86.8
			c0-0.2-0.1-0.3,0-0.5c1,0.8,2.9,1,4,1.1c-0.5-0.1-1-0.2-1.6-0.3c-0.9-0.2-1.9-0.4-2.5-0.9C148.4,86.4,148.5,86.5,148.5,86.8z"/>
		<path class="st12" d="M148.6,86.9L148.6,86.9L148.6,86.9C148.5,86.9,148.5,86.8,148.6,86.9C148.5,86.8,148.5,86.8,148.6,86.9
			c0,0,0,0.1,0,0.2V86.9C148.7,87,148.6,86.9,148.6,86.9z"/>
		<path class="st13" d="M145.8,114.9c0,0.4,0,0.8,0,1.2c-0.7,2-1.3,4.1-1.8,6.2c-0.2,0.8-0.4,1.6-0.5,2.5c2,2.5,4,5.2,5.7,7.8
			c0.1,0.1,0.1,0.1,0.1,0.2c0.9-0.1,1.8-0.2,2.7-0.4c0.5-0.1,0.9-0.2,1.4-0.3c-0.3-3-7.7-17.4-7.7-17.4
			C145.8,114.8,145.8,114.9,145.8,114.9z"/>
		<path class="st14" d="M144,122c0.5-2.1,1.1-4.2,1.8-6.2c0.1-0.4,0.1-0.8,0-1.2c-0.7-0.8-3-2.1-6.2-3.5l0,0c-0.5-0.3-1-0.5-1.6-0.7
			c-0.2-0.1-0.4-0.2-0.7-0.3c-0.1-0.1-0.3-0.1-0.4-0.2c-0.2-0.1-0.4-0.2-0.7-0.3s-0.6-0.3-0.9-0.4c-0.7-0.3-1.4-0.5-2-0.7
			c-1.9-0.7-3.8-1.4-5.7-2v-0.1c0,0,0,0-0.1,0c-0.8-0.3-1.7-0.6-2.5-0.8c-1.4,0.5-2.7,1.3-4,2.4l0,0l0,0c3.9,2,7.4,4.6,10.9,7.6
			c0.5,0.4,0.9,0.8,1.4,1.2l0,0c0.2,0.2,0.5,0.4,0.7,0.6c0.4,0.4,0.8,0.7,1.2,1c0.7,0.6,1.4,1.2,2,1.7c1.2,1,2.1,1.9,2.9,2.5
			c1.1,1,1.9,1.6,2.5,2.1c0.3,0.3,0.6,0.5,0.8,0.7c0-0.3,0.1-0.7,0.1-1l0,0C143.6,123.6,143.8,122.8,144,122z"/>
		<path class="st14" d="M133.3,108.5c0.7,0.2,1.4,0.5,2,0.7c0.3,0.1,0.7,0.3,0.9,0.4c0.2,0.1,0.4,0.2,0.7,0.3
			c-0.2-0.1-0.5-0.2-0.7-0.3c-0.3-0.1-0.7-0.3-0.9-0.4c-0.7-0.3-1.4-0.5-2-0.8c-1.9-0.7-3.8-1.4-5.6-1.9v0.1
			C129.5,107.2,131.4,107.9,133.3,108.5z"/>
		<path class="st14" d="M137.9,110.3c-0.2-0.1-0.4-0.2-0.6-0.2C137.5,110.2,137.8,110.3,137.9,110.3c0.7,0.3,1.2,0.5,1.7,0.8l0,0
			c0,0,0,0-0.1,0C139,110.8,138.5,110.6,137.9,110.3z"/>
		<path class="st15" d="M129.4,124.3c2.5-3,8.4-3.3,11-0.3c0.1,0.2,0.3,0.3,0.4,0.5c0.1,0.2,0.2,0.3,0.3,0.5
			c3.4,5.6-1.3,15-2.3,20.5c-0.4,6.4-0.3,13.2,0.4,20.1c4.4-0.2,8.7-0.7,12.9-1.5c-0.4-10.7-0.6-21.5-3-31.7h0.1
			c-0.1-0.1-0.1-0.1-0.1-0.2c-1.8-2.7-3.8-5.3-5.7-7.8l0,0c0,0.3-0.1,0.7-0.1,1c-0.3-0.2-0.5-0.4-0.8-0.7c-0.6-0.5-1.3-1.1-2.5-2.1
			c-0.8-0.7-1.7-1.5-2.9-2.5c-0.6-0.5-1.3-1.1-2-1.7c-0.4-0.3-0.8-0.7-1.2-1c-0.2-0.2-0.5-0.4-0.7-0.6l0,0c-0.5-0.4-1-0.8-1.4-1.2
			c-3.5-2.9-7-5.6-10.9-7.6c-8.8,7.7-13.5,28.8-15.8,51.4c5.8,2.4,11.9,4.2,18.3,5.2C122.6,150.5,124.2,136.7,129.4,124.3z"/>
		<path class="st15" d="M143.5,124.5c-0.1,0.3-0.1,0.7-0.1,1C143.4,125.2,143.5,124.8,143.5,124.5z"/>
		<path class="st15" d="M121.1,108.1L121.1,108.1c3.8,2,7.3,4.6,10.8,7.6c0.5,0.4,1,0.8,1.4,1.2c-0.5-0.4-0.9-0.8-1.4-1.2
			C128.5,112.7,125,110,121.1,108.1z"/>
		<path class="st2" d="M105.8,43.9c-0.2,0.3-0.3,0.6-0.5,0.9c-2.4,5.2,1.4,6.9,6,10.1c-1.2-0.5-2.4-0.9-3.4-1.4l-0.1,0.1
			c0.1,1.5,0.3,3.1,0.5,4.6c0.3,2,0.5,4.1,0.9,6.1l0,0c4.2,2.1,9.9,2.6,14.6,2.6l0,0c-0.1-0.1-0.3-0.2-0.4-0.3
			c-0.9-0.7-1.5-1.8-1.5-3l0,0l0,0h0.1c3,1.6,7.4,3.7,11.2,3.7c0.1-1,0.2-2,0.4-2.9h-0.1c0.8-1.7,1.6-3.5,1.8-5.4
			c0.1-0.9,0.2-1.8,0.1-2.6c-0.1-0.7-0.3-1.4-0.5-2.1c-7.4-1.1-17.1-1.9-22.5-6.7c0.1,0,0.2,0.1,0.3,0.1c-0.1-0.1-0.1-0.1-0.2-0.2
			c5.6,1.8,12.2,0.7,17.7,0.5c6.2-0.3,12.8,0.2,18.8-0.4c-3.4-0.7-7-2.3-9.6-4.4c0.1,0,0.1,0,0.2,0c0,0-0.1,0-0.1-0.1
			c7.3-0.3,14.6-0.7,21.9-1.6c-0.3-0.4-0.6-0.7-0.9-1.1c0.1,0,0.1,0,0.2,0c0,0,0-0.1-0.1-0.1c0.2-0.1,0.4-0.1,0.7-0.2
			c-2.1-4.1-5.8-7.4-11.9-9.1c-10.6-3-22.7-1-33.3,3.1c-1.4,0.5-2.7,1.1-4.1,1.7c0,0-0.1,0-0.2,0c-2.1,2.1-4.4,4.6-5.8,7.1
			C106.1,43.4,106,43.6,105.8,43.9z M138,40.1c-1.6,0.4-3.1,0.4-4.7,0.5c-1.8,0.1-3.6,0.4-5.4,0.4c-0.2,0-0.3-0.3-0.1-0.4
			c2.8-1.2,7.1-2,10.1-1.2C138.4,39.4,138.4,39.9,138,40.1z M116.8,38.2c10.2-3.2,23.5-6.3,34-2.6c0.7,0.3,0.7,1.2-0.2,1.2
			c-5.5-0.1-10.8-1.1-16.3-0.8c-6,0.3-11.6,1.4-17.5,2.4C116.7,38.4,116.7,38.2,116.8,38.2z"/>
		<path class="st2" d="M108.4,58.2c0.3,2,0.5,4.1,0.9,6.1l0,0l0,0C109,62.2,108.7,60.2,108.4,58.2z"/>
		<path class="st2" d="M122.1,63.6C122.2,63.6,122.2,63.6,122.1,63.6C122.2,63.6,122.2,63.6,122.1,63.6L122.1,63.6z"/>
		<path class="st2" d="M105.4,44.8c-2.4,5.3,1.4,6.9,6,10.1C106.7,51.6,103,50,105.4,44.8z"/>
		<path class="st2" d="M124,66.8L124,66.8L124,66.8z"/>
		<path class="st16" d="M158.1,78.3L158.1,78.3c0.3-0.4,0.7-0.8,1.2-1.2h-0.1C158.8,77.5,158.4,77.9,158.1,78.3z"/>
		<path class="st16" d="M157.9,78.3c0.1,0,0.2,0,0.2,0c0.3-0.4,0.7-0.8,1.1-1.2c-0.5,0.1-0.9,0.3-1.4,0.5
			C157.5,77.8,157.5,78.2,157.9,78.3z"/>
		<path class="st16" d="M158.2,78.3c0.8,0.1,1.3-0.1,1.8-0.8c0.2-0.3-0.1-0.5-0.4-0.5c-0.1,0-0.1,0-0.2,0
			C158.9,77.5,158.5,77.9,158.2,78.3z"/>
		<path class="st17" d="M151.7,74.3c-1.8-0.6-4.3-1.6-6.2-0.7c-0.5,0.2-0.6,0.7-0.5,1.1c0.4,1.8,3.3,2.6,4.9,3.4
			C152.9,79.5,154.8,75.3,151.7,74.3z"/>
		<path class="st18" d="M152.1,65.6c-1.4,0-2.5,1.3-2.5,2.9c0,1.6,1.1,2.9,2.5,2.9s2.5-1.3,2.5-2.9S153.5,65.6,152.1,65.6z"/>
		<path class="st19" d="M150.1,59c-2,0.5-3.2,1.9-4.3,3.3c-0.1,0.2,0,0.3,0.1,0.2c1.3-1.4,3-2.1,5-2.2c1.3-0.1,2.6,0.6,3.9,0.1
			c0.3-0.1,0.5-0.4,0.3-0.7C154,58.4,151.7,58.6,150.1,59z"/>
		<path class="st3" d="M159.8,51.6c-12.2-1.8-25.3,1.9-36.9-2.7c10.1,5,25.8,4.9,36.9,3.5C160.3,52.3,160.3,51.7,159.8,51.6z"/>
		<path class="st20" d="M116.6,79.8c-2-3.7-3.5-7.6-6.1-11c0-0.1-0.2,0-0.1,0.1c2,3.7,3.7,7.4,4.9,11.4c0.9,3.1,2.4,6.7,5.1,9
			c0.4,0.3,1.2,0,1-0.5C120.3,85.7,118.2,82.8,116.6,79.8z"/>
		<path class="st20" d="M119.1,74.2c0.2,0,0.5-0.2,0.4-0.4c-0.1-1.6-2.2-2.3-2.6-3.9c0-0.1-0.3-0.1-0.3,0.1
			C116.5,71.6,116.9,73.9,119.1,74.2z"/>
		<path class="st20" d="M122.3,71.7c0.3,0,0.5-0.3,0.4-0.6c-0.2-0.3-0.9-0.8-1-1.1c-0.3-0.5-1.1-0.3-1.1,0.3
			C120.6,71.2,121.4,71.7,122.3,71.7z"/>
		<path class="st20" d="M134,79.5c0.1,0.2,0.5,0.1,0.5-0.1c0-1.6-0.8-3.1-1.3-4.6c-0.5-1.6-1-3.2-2-4.6c-0.1-0.1-0.3,0-0.3,0.1
			c0.3,1.6,0.8,3.1,1.4,4.7C132.7,76.5,133,78.3,134,79.5z"/>
		<path class="st21" d="M139.3,165.7c-0.7-6.9-0.9-13.6-0.4-20.1c1-5.6,5.7-14.9,2.3-20.5c-0.1-0.2-0.2-0.3-0.3-0.5
			s-0.3-0.3-0.4-0.5c-2.7-3-8.5-2.7-11,0.3c-5.2,12.4-6.8,26.2-5.9,40.4c4.2,0.7,8.5,1,12.8,1C137.4,165.8,138.3,165.7,139.3,165.7z
			"/>
		<path class="st22" d="M136.4,169.2c-46.4,0-84.2-37.7-84.2-84.1S90,0.9,136.4,0.9s84.2,37.8,84.2,84.2S182.8,169.2,136.4,169.2z
			 M136.4,9.4c-41.8,0-75.7,33.9-75.7,75.7s33.9,75.7,75.7,75.7s75.7-33.9,75.7-75.7S178.1,9.4,136.4,9.4z"/>
		<g>
			<path class="st23" d="M68.9,204.8H64v-20.5h4.9V204.8z"/>
			<path class="st23" d="M89.5,204.8h-4.9L77.3,192v12.8h-4.9v-20.5h4.9l7.3,12.8v-12.8h4.9V204.8z"/>
			<path class="st23" d="M105.5,196.6h-8v8.2h-4.9v-20.5h13.7v3.8h-8.8v4.7h8V196.6z"/>
			<path class="st23" d="M113.4,201h8.6v3.8h-13.6v-20.5h4.9L113.4,201L113.4,201z"/>
			<path class="st23" d="M136,201h-6.8l-1.2,3.8h-5.3l7.5-20.5h4.7l7.6,20.5h-5.3L136,201z M130.4,197.1h4.4l-2.2-7.1L130.4,197.1z"
				/>
			<path class="st23" d="M158.4,188.1h-6.2v16.7h-4.9v-16.7h-6v-3.8h17.1L158.4,188.1L158.4,188.1z"/>
			<path class="st23" d="M165.7,204.8h-4.9v-20.5h4.9V204.8z"/>
			<path class="st23" d="M186.6,195c0,2-0.4,3.8-1.1,5.3s-1.8,2.7-3.2,3.6c-1.4,0.8-2.9,1.2-4.7,1.2s-3.3-0.4-4.7-1.2
				c-1.4-0.8-2.4-2-3.2-3.4c-0.8-1.5-1.2-3.2-1.2-5.1v-1.3c0-2,0.4-3.8,1.1-5.3c0.7-1.5,1.8-2.7,3.2-3.6c1.4-0.8,2.9-1.3,4.7-1.3
				c1.7,0,3.3,0.4,4.7,1.2c1.4,0.8,2.4,2,3.2,3.5s1.1,3.3,1.1,5.2L186.6,195L186.6,195L186.6,195z M181.5,194.1c0-2-0.3-3.6-1-4.6
				c-0.7-1.1-1.7-1.6-2.9-1.6c-2.5,0-3.8,1.9-3.9,5.6v1.5c0,2,0.3,3.6,1,4.6c0.7,1.1,1.7,1.6,3,1.6c1.2,0,2.2-0.5,2.9-1.6
				s1-2.6,1-4.6L181.5,194.1L181.5,194.1z"/>
			<path class="st23" d="M206.2,204.8h-4.9L194,192v12.8h-4.9v-20.5h4.9l7.3,12.8v-12.8h4.9V204.8z"/>
		</g>
	</g>
</g>
</svg>
