<?xml version="1.0" encoding="utf-8"?>
<!-- Generator: Adobe Illustrator 22.1.0, SVG Export Plug-In . SVG Version: 6.00 Build 0)  -->
<svg version="1.1" xmlns="http://www.w3.org/2000/svg" xmlns:xlink="http://www.w3.org/1999/xlink" x="0px" y="0px"
	 viewBox="0 0 35.2 32.8" style="enable-background:new 0 0 35.2 32.8;" xml:space="preserve">
<style type="text/css">
	.st0{fill:#FFFFFF;}
</style>
<g id="Layer_1">
	<path class="st0" d="M27.6,19.6c0,5.5-4.5,10-10,10s-10-4.5-10-10s4.5-10,10-10S27.6,14.1,27.6,19.6z M29.6,19.6
		c0-6.6-5.4-12-12-12s-12,5.4-12,12s5.4,12,12,12S29.6,26.2,29.6,19.6z M17.6,21.6l-4.5-4.5l-1.5,1.5l6,6l6-6l-1.5-1.5L17.6,21.6z"
		/>
</g>
<g id="Layer_2">
</g>
<g id="Layer_3">
	<g>
		<path class="st0" d="M7.5,10.2L7,10.7L4.4,8.4l0.5-0.6L7.5,10.2z"/>
		<path class="st0" d="M10.1,7.9L9.5,8.4L6.9,7.5l1.5,1.8L7.8,9.8L5.6,7l0.6-0.5l2.6,0.9L7.3,5.6l0.6-0.5L10.1,7.9z"/>
		<path class="st0" d="M11.7,5.4l-1.3,0.6l0.7,1.3l-0.7,0.3L8.9,4.5l2.1-1L11.2,4L9.8,4.7l0.4,0.8l1.3-0.6L11.7,5.4z"/>
		<path class="st0" d="M13.4,5.8l1.5-0.4L15,5.9l-2.2,0.6l-1-3.4L12.5,3L13.4,5.8z"/>
		<path class="st0" d="M17.3,5L16,5.1l-0.2,0.7L15,5.9l1.1-3.6l0.7,0l1.6,3.5l-0.8,0.1L17.3,5z M16.2,4.5L17,4.4l-0.5-1.3L16.2,4.5z
			"/>
		<path class="st0" d="M21.3,3.1L20.2,3l-0.4,2.9l-0.7-0.1l0.4-2.9l-1.1-0.1l0.1-0.6l2.9,0.4L21.3,3.1z"/>
		<path class="st0" d="M21.9,6.4l-0.7-0.2l1-3.4L22.9,3L21.9,6.4z"/>
		<path class="st0" d="M25.8,6.3c-0.2,0.3-0.3,0.6-0.6,0.7c-0.2,0.2-0.5,0.3-0.7,0.3c-0.3,0-0.5,0-0.8-0.2c-0.3-0.1-0.5-0.3-0.6-0.5
			c-0.1-0.2-0.2-0.5-0.2-0.8c0-0.3,0.1-0.6,0.2-0.9l0.1-0.2c0.2-0.3,0.3-0.6,0.6-0.7s0.5-0.3,0.8-0.3c0.3,0,0.5,0,0.8,0.2
			c0.3,0.1,0.5,0.3,0.6,0.5c0.1,0.2,0.2,0.5,0.2,0.8c0,0.3-0.1,0.6-0.2,0.9L25.8,6.3z M25.2,5.8c0.2-0.3,0.2-0.6,0.2-0.8
			S25.3,4.6,25,4.5c-0.2-0.1-0.4-0.1-0.6,0S24,4.8,23.8,5.2l-0.1,0.2c-0.2,0.3-0.2,0.6-0.2,0.8c0,0.2,0.2,0.4,0.4,0.5
			c0.2,0.1,0.4,0.1,0.6,0S25,6.3,25.1,6L25.2,5.8z"/>
		<path class="st0" d="M27.6,9.9L27,9.4l0.4-2.7l-1.5,1.8L25.4,8l2.3-2.7l0.6,0.5l-0.4,2.7l1.5-1.8l0.6,0.5L27.6,9.9z"/>
	</g>
</g>
</svg>
