<?xml version="1.0" encoding="utf-8"?>
<!-- Generator: Adobe Illustrator 22.1.0, SVG Export Plug-In . SVG Version: 6.00 Build 0)  -->
<svg version="1.1" xmlns="http://www.w3.org/2000/svg" xmlns:xlink="http://www.w3.org/1999/xlink" x="0px" y="0px"
	 viewBox="0 0 35.2 32.8" style="enable-background:new 0 0 35.2 32.8;" xml:space="preserve">
<style type="text/css">
	.st0{fill:#FFFFFF;}
</style>
<g id="Layer_1">
	<path class="st0" d="M27.6,19.6c0,5.5-4.5,10-10,10s-10-4.5-10-10s4.5-10,10-10S27.6,14.1,27.6,19.6z M29.6,19.6
		c0-6.6-5.4-12-12-12s-12,5.4-12,12s5.4,12,12,12S29.6,26.2,29.6,19.6z M17.6,21.6l-4.5-4.5l-1.5,1.5l6,6l6-6l-1.5-1.5L17.6,21.6z"
		/>
</g>
<g id="Layer_2">
</g>
<g id="Layer_3">
	<g>
		<path class="st0" d="M8.9,8.9L8.3,9.4L6,6.7l0.6-0.5L8.9,8.9z"/>
		<path class="st0" d="M11.7,7l-0.6,0.4L8.6,6.1l1.2,2L9.2,8.5l-1.9-3L8,5.1l2.4,1.3l-1.2-2L9.8,4L11.7,7z"/>
		<path class="st0" d="M13.7,3.2l-1,0.3l0.9,2.8l-0.7,0.2l-0.9-2.8l-1,0.3l-0.2-0.6l2.7-0.9L13.7,3.2z"/>
		<path class="st0" d="M16.8,4.2l-1.4,0.2l0.1,0.9l1.6-0.2l0.1,0.6L14.9,6l-0.4-3.5l2.4-0.3l0.1,0.6L15.3,3l0.1,0.8l1.4-0.2
			L16.8,4.2z"/>
		<path class="st0" d="M19,4.5l-0.6,0l-0.1,1.3l-0.7-0.1l0.3-3.5l1.3,0.1c0.4,0,0.7,0.2,0.9,0.4c0.2,0.2,0.3,0.5,0.3,0.8
			c0,0.2-0.1,0.4-0.2,0.6c-0.1,0.2-0.3,0.3-0.5,0.3l0.6,1.5l0,0l-0.8-0.1L19,4.5z M18.4,3.9L19,3.9c0.2,0,0.3,0,0.4-0.1
			c0.1-0.1,0.2-0.2,0.2-0.4c0-0.2,0-0.3-0.1-0.4c-0.1-0.1-0.2-0.2-0.4-0.2l-0.6,0L18.4,3.9z"/>
		<path class="st0" d="M23,5.2l-1.3-0.4l-0.3,0.9L23,6.1l-0.2,0.6L20.5,6l1-3.4l2.3,0.7l-0.2,0.6l-1.6-0.5l-0.2,0.8l1.3,0.4L23,5.2z
			"/>
		<path class="st0" d="M25.1,6.9c0.1-0.1,0.1-0.2,0-0.4c-0.1-0.1-0.2-0.3-0.4-0.5s-0.3-0.4-0.4-0.5c-0.3-0.4-0.3-0.7-0.1-1.1
			c0.1-0.2,0.2-0.3,0.4-0.4C24.8,4,25,4,25.2,4c0.2,0,0.4,0.1,0.7,0.2s0.4,0.3,0.5,0.4c0.1,0.2,0.2,0.4,0.2,0.6c0,0.2,0,0.4-0.1,0.6
			l-0.6-0.3c0.1-0.1,0.1-0.3,0-0.4c0-0.1-0.2-0.2-0.3-0.3c-0.2-0.1-0.3-0.1-0.4-0.1c-0.1,0-0.2,0.1-0.3,0.2c-0.1,0.1,0,0.2,0,0.3
			c0.1,0.1,0.2,0.3,0.3,0.4c0.3,0.3,0.5,0.6,0.6,0.8c0.1,0.3,0.1,0.5-0.1,0.7c-0.1,0.3-0.4,0.4-0.6,0.5c-0.3,0-0.6,0-1-0.2
			c-0.2-0.1-0.4-0.3-0.6-0.5s-0.2-0.4-0.3-0.6c0-0.2,0-0.4,0.1-0.6l0.6,0.3C23.9,6.5,24,6.7,24.4,7c0.2,0.1,0.3,0.1,0.4,0.1
			C25,7,25.1,7,25.1,6.9z"/>
		<path class="st0" d="M29.6,7.7L28.7,7l-1.9,2.3l-0.6-0.5l1.9-2.3l-0.8-0.7l0.4-0.5l2.2,1.9L29.6,7.7z"/>
	</g>
</g>
</svg>
