<svg xmlns="http://www.w3.org/2000/svg" viewBox="0 0 902.48 691.95"><defs><style>.cls-1{isolation:isolate;}.cls-2{fill:#94d3cc;}.cls-3{fill:#999;}.cls-4{fill:gray;}.cls-5{fill:#4d4d4d;}.cls-6{fill:#e5e5e5;}.cls-7{fill:#8dd23f;}.cls-11,.cls-12,.cls-13,.cls-8{fill:#5eb000;}.cls-8{opacity:0.15;}.cls-9{fill:#c8ee9b;}.cls-10{fill:#e9ffcf;}.cls-11{opacity:0.25;}.cls-12{opacity:0.2;mix-blend-mode:multiply;}.cls-14{fill:#a8de69;}.cls-15{fill:#a6cd80;}.cls-16{fill:#e1fbc2;}.cls-17{fill:#603813;}.cls-18,.cls-24{fill:#a3bdab;}.cls-19{fill:#fad367;}.cls-20{fill:none;}.cls-21,.cls-22{fill:#3f5b4f;}.cls-22,.cls-23,.cls-24,.cls-28,.cls-29,.cls-30{fill-rule:evenodd;}.cls-23,.cls-25{fill:#c7dbcd;}.cls-26,.cls-28{fill:#754c24;}.cls-27,.cls-29{fill:#4a2c0f;}.cls-30{fill:#94792c;}</style></defs><title>liberty scale</title><g class="cls-1"><g id="Layer_1" data-name="Layer 1"><path class="cls-2" d="M293,680.7c0,6.21,70.85,11.25,158.24,11.25s158.24-5,158.24-11.25-70.85-11.25-158.24-11.25S293,674.49,293,680.7Z"/><path class="cls-3" d="M116.32,477.23c-1.2,4.25.7,8.51,4.24,9.5l657,185.33c3.54,1,7.38-1.64,8.58-5.89h0c1.2-4.25-.7-8.51-4.24-9.51l-657-185.32c-3.54-1-7.38,1.64-8.58,5.89Z"/><polygon class="cls-4" points="407.25 667.7 495.25 667.7 475.75 580.7 426.75 580.7 407.25 667.7"/><path class="cls-4" d="M451.5,557.2c13.53,0,20.67,11.08,24.25,23.5h-49C429.38,567.57,438,557.2,451.5,557.2Z"/><circle class="cls-5" cx="451.25" cy="571.7" r="5.83"/><path class="cls-5" d="M339.75,679.7a12,12,0,0,1,12-12h199a12,12,0,0,1,12,12v1h-223Z"/><rect class="cls-5" x="738.75" y="662.7" width="53.84" height="9"/><path class="cls-6" d="M766,665.2c-75.38,0-136.5-9-136.5-20h273C902.48,656.25,841.37,665.2,766,665.2Z"/><rect class="cls-5" x="109.58" y="478.7" width="53.84" height="9"/><path class="cls-6" d="M136.5,481.2C61.11,481.2,0,472.25,0,461.2H273C273,472.25,211.89,481.2,136.5,481.2Z"/><rect class="cls-7" x="649.05" y="633.41" width="104.66" height="12.51"/><rect class="cls-8" x="649.05" y="634.42" width="104.66" height="0.49"/><rect class="cls-8" x="649.05" y="635.48" width="104.66" height="0.49"/><rect class="cls-8" x="649.05" y="636.53" width="104.66" height="0.49"/><rect class="cls-8" x="649.05" y="637.59" width="104.66" height="0.49"/><rect class="cls-8" x="649.05" y="638.65" width="104.66" height="0.49"/><rect class="cls-8" x="649.05" y="639.7" width="104.66" height="0.49"/><rect class="cls-8" x="649.05" y="640.76" width="104.66" height="0.49"/><rect class="cls-8" x="649.05" y="641.81" width="104.66" height="0.49"/><rect class="cls-8" x="649.05" y="642.87" width="104.66" height="0.49"/><rect class="cls-8" x="649.05" y="643.93" width="104.66" height="0.49"/><rect class="cls-8" x="649.05" y="644.98" width="104.66" height="0.49"/><rect class="cls-9" x="690.57" y="633.41" width="21.61" height="12.51"/><rect class="cls-10" x="692.19" y="633.41" width="1.87" height="12.51"/><rect class="cls-10" x="708.69" y="633.41" width="1.87" height="12.51"/><rect class="cls-11" x="649.05" y="643.75" width="104.66" height="2.18"/><rect class="cls-7" x="651.41" y="620.9" width="104.66" height="12.51"/><rect class="cls-8" x="651.41" y="621.91" width="104.66" height="0.49"/><rect class="cls-8" x="651.41" y="622.97" width="104.66" height="0.49"/><rect class="cls-8" x="651.41" y="624.02" width="104.66" height="0.49"/><rect class="cls-8" x="651.41" y="625.08" width="104.66" height="0.49"/><rect class="cls-8" x="651.41" y="626.13" width="104.66" height="0.49"/><rect class="cls-8" x="651.41" y="627.19" width="104.66" height="0.49"/><rect class="cls-8" x="651.41" y="628.25" width="104.66" height="0.49"/><rect class="cls-8" x="651.41" y="629.3" width="104.66" height="0.49"/><rect class="cls-8" x="651.41" y="630.36" width="104.66" height="0.49"/><rect class="cls-8" x="651.41" y="631.41" width="104.66" height="0.49"/><rect class="cls-8" x="651.41" y="632.47" width="104.66" height="0.49"/><rect class="cls-9" x="692.93" y="620.9" width="21.61" height="12.51"/><rect class="cls-10" x="694.55" y="620.9" width="1.87" height="12.51"/><rect class="cls-10" x="711.05" y="620.9" width="1.87" height="12.51"/><rect class="cls-11" x="651.41" y="631.23" width="104.66" height="2.18"/><rect class="cls-7" x="649.05" y="608.39" width="104.66" height="12.51"/><rect class="cls-8" x="649.05" y="609.4" width="104.66" height="0.49"/><rect class="cls-8" x="649.05" y="610.46" width="104.66" height="0.49"/><rect class="cls-8" x="649.05" y="611.51" width="104.66" height="0.49"/><rect class="cls-8" x="649.05" y="612.57" width="104.66" height="0.49"/><rect class="cls-8" x="649.05" y="613.62" width="104.66" height="0.49"/><rect class="cls-8" x="649.05" y="614.68" width="104.66" height="0.49"/><rect class="cls-8" x="649.05" y="615.74" width="104.66" height="0.49"/><rect class="cls-8" x="649.05" y="616.79" width="104.66" height="0.49"/><rect class="cls-8" x="649.05" y="617.85" width="104.66" height="0.49"/><rect class="cls-8" x="649.05" y="618.9" width="104.66" height="0.49"/><rect class="cls-8" x="649.05" y="619.96" width="104.66" height="0.49"/><rect class="cls-9" x="690.57" y="608.39" width="21.61" height="12.51"/><rect class="cls-10" x="692.19" y="608.39" width="1.87" height="12.51"/><rect class="cls-10" x="708.69" y="608.39" width="1.87" height="12.51"/><rect class="cls-11" x="649.05" y="618.72" width="104.66" height="2.18"/><rect class="cls-7" x="647.87" y="595.88" width="104.66" height="12.51"/><rect class="cls-8" x="647.87" y="596.89" width="104.66" height="0.49"/><rect class="cls-8" x="647.87" y="597.95" width="104.66" height="0.49"/><rect class="cls-8" x="647.87" y="599" width="104.66" height="0.49"/><rect class="cls-8" x="647.87" y="600.06" width="104.66" height="0.49"/><rect class="cls-8" x="647.87" y="601.11" width="104.66" height="0.49"/><rect class="cls-8" x="647.87" y="602.17" width="104.66" height="0.49"/><rect class="cls-8" x="647.87" y="603.23" width="104.66" height="0.49"/><rect class="cls-8" x="647.87" y="604.28" width="104.66" height="0.49"/><rect class="cls-8" x="647.87" y="605.34" width="104.66" height="0.49"/><rect class="cls-8" x="647.87" y="606.39" width="104.66" height="0.49"/><rect class="cls-8" x="647.87" y="607.45" width="104.66" height="0.49"/><rect class="cls-9" x="689.39" y="595.88" width="21.61" height="12.51"/><rect class="cls-10" x="691.01" y="595.88" width="1.87" height="12.51"/><rect class="cls-10" x="707.52" y="595.88" width="1.87" height="12.51"/><rect class="cls-11" x="647.87" y="606.21" width="104.66" height="2.18"/><rect class="cls-7" x="645.51" y="583.37" width="104.66" height="12.51"/><rect class="cls-8" x="645.51" y="584.38" width="104.66" height="0.49"/><rect class="cls-8" x="645.51" y="585.43" width="104.66" height="0.49"/><rect class="cls-8" x="645.51" y="586.49" width="104.66" height="0.49"/><rect class="cls-8" x="645.51" y="587.55" width="104.66" height="0.49"/><rect class="cls-8" x="645.51" y="588.6" width="104.66" height="0.49"/><rect class="cls-8" x="645.51" y="589.66" width="104.66" height="0.49"/><rect class="cls-8" x="645.51" y="590.72" width="104.66" height="0.49"/><rect class="cls-8" x="645.51" y="591.77" width="104.66" height="0.49"/><rect class="cls-8" x="645.51" y="592.83" width="104.66" height="0.49"/><rect class="cls-8" x="645.51" y="593.88" width="104.66" height="0.49"/><rect class="cls-8" x="645.51" y="594.94" width="104.66" height="0.49"/><rect class="cls-9" x="687.03" y="583.37" width="21.61" height="12.51"/><rect class="cls-10" x="688.65" y="583.37" width="1.87" height="12.51"/><rect class="cls-10" x="705.16" y="583.37" width="1.87" height="12.51"/><rect class="cls-11" x="645.51" y="593.7" width="104.66" height="2.18"/><rect class="cls-7" x="650.23" y="570.86" width="104.66" height="12.51"/><rect class="cls-8" x="650.23" y="571.87" width="104.66" height="0.49"/><rect class="cls-8" x="650.23" y="572.92" width="104.66" height="0.49"/><rect class="cls-8" x="650.23" y="573.98" width="104.66" height="0.49"/><rect class="cls-8" x="650.23" y="575.04" width="104.66" height="0.49"/><rect class="cls-8" x="650.23" y="576.09" width="104.66" height="0.49"/><rect class="cls-8" x="650.23" y="577.15" width="104.66" height="0.49"/><rect class="cls-8" x="650.23" y="578.2" width="104.66" height="0.49"/><rect class="cls-8" x="650.23" y="579.26" width="104.66" height="0.49"/><rect class="cls-8" x="650.23" y="580.32" width="104.66" height="0.49"/><rect class="cls-8" x="650.23" y="581.37" width="104.66" height="0.49"/><rect class="cls-8" x="650.23" y="582.43" width="104.66" height="0.49"/><rect class="cls-9" x="691.75" y="570.86" width="21.61" height="12.51"/><rect class="cls-10" x="693.37" y="570.86" width="1.87" height="12.51"/><rect class="cls-10" x="709.87" y="570.86" width="1.87" height="12.51"/><rect class="cls-11" x="650.23" y="581.19" width="104.66" height="2.18"/><rect class="cls-7" x="646.69" y="558.35" width="104.66" height="12.51"/><rect class="cls-8" x="646.69" y="559.36" width="104.66" height="0.49"/><rect class="cls-8" x="646.69" y="560.41" width="104.66" height="0.49"/><rect class="cls-8" x="646.69" y="561.47" width="104.66" height="0.49"/><rect class="cls-8" x="646.69" y="562.53" width="104.66" height="0.49"/><rect class="cls-8" x="646.69" y="563.58" width="104.66" height="0.49"/><rect class="cls-8" x="646.69" y="564.64" width="104.66" height="0.49"/><rect class="cls-8" x="646.69" y="565.69" width="104.66" height="0.49"/><rect class="cls-8" x="646.69" y="566.75" width="104.66" height="0.49"/><rect class="cls-8" x="646.69" y="567.81" width="104.66" height="0.49"/><rect class="cls-8" x="646.69" y="568.86" width="104.66" height="0.49"/><rect class="cls-8" x="646.69" y="569.92" width="104.66" height="0.49"/><rect class="cls-9" x="688.21" y="558.35" width="21.61" height="12.51"/><rect class="cls-10" x="689.83" y="558.35" width="1.87" height="12.51"/><rect class="cls-10" x="706.34" y="558.35" width="1.87" height="12.51"/><rect class="cls-11" x="646.69" y="568.68" width="104.66" height="2.18"/><rect class="cls-7" x="647.87" y="545.84" width="104.66" height="12.51"/><rect class="cls-8" x="647.87" y="546.85" width="104.66" height="0.49"/><rect class="cls-8" x="647.87" y="547.9" width="104.66" height="0.49"/><rect class="cls-8" x="647.87" y="548.96" width="104.66" height="0.49"/><rect class="cls-8" x="647.87" y="550.02" width="104.66" height="0.49"/><rect class="cls-8" x="647.87" y="551.07" width="104.66" height="0.49"/><rect class="cls-8" x="647.87" y="552.13" width="104.66" height="0.49"/><rect class="cls-8" x="647.87" y="553.18" width="104.66" height="0.49"/><rect class="cls-8" x="647.87" y="554.24" width="104.66" height="0.49"/><rect class="cls-8" x="647.87" y="555.3" width="104.66" height="0.49"/><rect class="cls-8" x="647.87" y="556.35" width="104.66" height="0.49"/><rect class="cls-8" x="647.87" y="557.41" width="104.66" height="0.49"/><rect class="cls-9" x="689.39" y="545.84" width="21.61" height="12.51"/><rect class="cls-10" x="691.01" y="545.84" width="1.87" height="12.51"/><rect class="cls-10" x="707.52" y="545.84" width="1.87" height="12.51"/><rect class="cls-11" x="647.87" y="556.17" width="104.66" height="2.18"/><polygon class="cls-12" points="714.47 545.85 635.46 645.92 717.74 645.92 717.74 545.85 714.47 545.85"/><rect class="cls-7" x="634.3" y="633.41" width="104.66" height="12.51"/><rect class="cls-8" x="634.3" y="634.42" width="104.66" height="0.49"/><rect class="cls-8" x="634.3" y="635.48" width="104.66" height="0.49"/><rect class="cls-8" x="634.3" y="636.53" width="104.66" height="0.49"/><rect class="cls-8" x="634.3" y="637.59" width="104.66" height="0.49"/><rect class="cls-8" x="634.3" y="638.65" width="104.66" height="0.49"/><rect class="cls-8" x="634.3" y="639.7" width="104.66" height="0.49"/><rect class="cls-8" x="634.3" y="640.76" width="104.66" height="0.49"/><rect class="cls-8" x="634.3" y="641.81" width="104.66" height="0.49"/><rect class="cls-8" x="634.3" y="642.87" width="104.66" height="0.49"/><rect class="cls-8" x="634.3" y="643.93" width="104.66" height="0.49"/><rect class="cls-8" x="634.3" y="644.98" width="104.66" height="0.49"/><rect class="cls-9" x="675.82" y="633.41" width="21.61" height="12.51"/><rect class="cls-10" x="677.44" y="633.41" width="1.87" height="12.51"/><rect class="cls-10" x="693.94" y="633.41" width="1.87" height="12.51"/><rect class="cls-11" x="634.3" y="643.75" width="104.66" height="2.18"/><rect class="cls-7" x="637.83" y="620.9" width="104.66" height="12.51"/><rect class="cls-8" x="637.83" y="621.91" width="104.66" height="0.49"/><rect class="cls-8" x="637.83" y="622.97" width="104.66" height="0.49"/><rect class="cls-8" x="637.83" y="624.02" width="104.66" height="0.49"/><rect class="cls-8" x="637.83" y="625.08" width="104.66" height="0.49"/><rect class="cls-8" x="637.83" y="626.13" width="104.66" height="0.49"/><rect class="cls-8" x="637.83" y="627.19" width="104.66" height="0.49"/><rect class="cls-8" x="637.83" y="628.25" width="104.66" height="0.49"/><rect class="cls-8" x="637.83" y="629.3" width="104.66" height="0.49"/><rect class="cls-8" x="637.83" y="630.36" width="104.66" height="0.49"/><rect class="cls-8" x="637.83" y="631.41" width="104.66" height="0.49"/><rect class="cls-8" x="637.83" y="632.47" width="104.66" height="0.49"/><rect class="cls-9" x="679.35" y="620.9" width="21.61" height="12.51"/><rect class="cls-10" x="680.97" y="620.9" width="1.87" height="12.51"/><rect class="cls-10" x="697.48" y="620.9" width="1.87" height="12.51"/><rect class="cls-11" x="637.83" y="631.23" width="104.66" height="2.18"/><rect class="cls-7" x="636.65" y="608.39" width="104.66" height="12.51"/><rect class="cls-8" x="636.65" y="609.4" width="104.66" height="0.49"/><rect class="cls-8" x="636.65" y="610.46" width="104.66" height="0.49"/><rect class="cls-8" x="636.65" y="611.51" width="104.66" height="0.49"/><rect class="cls-8" x="636.65" y="612.57" width="104.66" height="0.49"/><rect class="cls-8" x="636.65" y="613.62" width="104.66" height="0.49"/><rect class="cls-8" x="636.65" y="614.68" width="104.66" height="0.49"/><rect class="cls-8" x="636.65" y="615.74" width="104.66" height="0.49"/><rect class="cls-8" x="636.65" y="616.79" width="104.66" height="0.49"/><rect class="cls-8" x="636.65" y="617.85" width="104.66" height="0.49"/><rect class="cls-8" x="636.65" y="618.9" width="104.66" height="0.49"/><rect class="cls-8" x="636.65" y="619.96" width="104.66" height="0.49"/><rect class="cls-9" x="678.18" y="608.39" width="21.61" height="12.51"/><rect class="cls-10" x="679.79" y="608.39" width="1.87" height="12.51"/><rect class="cls-10" x="696.3" y="608.39" width="1.87" height="12.51"/><rect class="cls-11" x="636.65" y="618.72" width="104.66" height="2.18"/><rect class="cls-7" x="641.37" y="595.88" width="104.66" height="12.51"/><rect class="cls-8" x="641.37" y="596.89" width="104.66" height="0.49"/><rect class="cls-8" x="641.37" y="597.95" width="104.66" height="0.49"/><rect class="cls-8" x="641.37" y="599" width="104.66" height="0.49"/><rect class="cls-8" x="641.37" y="600.06" width="104.66" height="0.49"/><rect class="cls-8" x="641.37" y="601.11" width="104.66" height="0.49"/><rect class="cls-8" x="641.37" y="602.17" width="104.66" height="0.49"/><rect class="cls-8" x="641.37" y="603.23" width="104.66" height="0.49"/><rect class="cls-8" x="641.37" y="604.28" width="104.66" height="0.49"/><rect class="cls-8" x="641.37" y="605.34" width="104.66" height="0.49"/><rect class="cls-8" x="641.37" y="606.39" width="104.66" height="0.49"/><rect class="cls-8" x="641.37" y="607.45" width="104.66" height="0.49"/><rect class="cls-9" x="682.89" y="595.88" width="21.61" height="12.51"/><rect class="cls-10" x="684.51" y="595.88" width="1.87" height="12.51"/><rect class="cls-10" x="701.01" y="595.88" width="1.87" height="12.51"/><rect class="cls-11" x="641.37" y="606.21" width="104.66" height="2.18"/><rect class="cls-7" x="639.01" y="583.37" width="104.66" height="12.51"/><rect class="cls-8" x="639.01" y="584.38" width="104.66" height="0.49"/><rect class="cls-8" x="639.01" y="585.43" width="104.66" height="0.49"/><rect class="cls-8" x="639.01" y="586.49" width="104.66" height="0.49"/><rect class="cls-8" x="639.01" y="587.55" width="104.66" height="0.49"/><rect class="cls-8" x="639.01" y="588.6" width="104.66" height="0.49"/><rect class="cls-8" x="639.01" y="589.66" width="104.66" height="0.49"/><rect class="cls-8" x="639.01" y="590.72" width="104.66" height="0.49"/><rect class="cls-8" x="639.01" y="591.77" width="104.66" height="0.49"/><rect class="cls-8" x="639.01" y="592.83" width="104.66" height="0.49"/><rect class="cls-8" x="639.01" y="593.88" width="104.66" height="0.49"/><rect class="cls-8" x="639.01" y="594.94" width="104.66" height="0.49"/><rect class="cls-9" x="680.53" y="583.37" width="21.61" height="12.51"/><rect class="cls-10" x="682.15" y="583.37" width="1.87" height="12.51"/><rect class="cls-10" x="698.66" y="583.37" width="1.87" height="12.51"/><rect class="cls-11" x="639.01" y="593.7" width="104.66" height="2.18"/><polygon class="cls-12" points="713.83 583.37 664.45 645.92 715.87 645.92 715.87 583.37 713.83 583.37"/><rect class="cls-7" x="712.78" y="633.41" width="104.66" height="12.51"/><rect class="cls-8" x="712.78" y="634.42" width="104.66" height="0.49"/><rect class="cls-8" x="712.78" y="635.48" width="104.66" height="0.49"/><rect class="cls-8" x="712.78" y="636.53" width="104.66" height="0.49"/><rect class="cls-8" x="712.78" y="637.59" width="104.66" height="0.49"/><rect class="cls-8" x="712.78" y="638.65" width="104.66" height="0.49"/><rect class="cls-8" x="712.78" y="639.7" width="104.66" height="0.49"/><rect class="cls-8" x="712.78" y="640.76" width="104.66" height="0.49"/><rect class="cls-8" x="712.78" y="641.81" width="104.66" height="0.49"/><rect class="cls-8" x="712.78" y="642.87" width="104.66" height="0.49"/><rect class="cls-8" x="712.78" y="643.93" width="104.66" height="0.49"/><rect class="cls-8" x="712.78" y="644.98" width="104.66" height="0.49"/><rect class="cls-9" x="754.31" y="633.41" width="21.61" height="12.51"/><rect class="cls-10" x="755.92" y="633.41" width="1.87" height="12.51"/><rect class="cls-10" x="772.43" y="633.41" width="1.87" height="12.51"/><rect class="cls-11" x="712.78" y="643.75" width="104.66" height="2.18"/><rect class="cls-7" x="715.14" y="620.9" width="104.66" height="12.51"/><rect class="cls-8" x="715.14" y="621.91" width="104.66" height="0.49"/><rect class="cls-8" x="715.14" y="622.97" width="104.66" height="0.49"/><rect class="cls-8" x="715.14" y="624.02" width="104.66" height="0.49"/><rect class="cls-8" x="715.14" y="625.08" width="104.66" height="0.49"/><rect class="cls-8" x="715.14" y="626.13" width="104.66" height="0.49"/><rect class="cls-8" x="715.14" y="627.19" width="104.66" height="0.49"/><rect class="cls-8" x="715.14" y="628.25" width="104.66" height="0.49"/><rect class="cls-8" x="715.14" y="629.3" width="104.66" height="0.49"/><rect class="cls-8" x="715.14" y="630.36" width="104.66" height="0.49"/><rect class="cls-8" x="715.14" y="631.41" width="104.66" height="0.49"/><rect class="cls-8" x="715.14" y="632.47" width="104.66" height="0.49"/><rect class="cls-9" x="756.66" y="620.9" width="21.61" height="12.51"/><rect class="cls-10" x="758.28" y="620.9" width="1.87" height="12.51"/><rect class="cls-10" x="774.79" y="620.9" width="1.87" height="12.51"/><rect class="cls-11" x="715.14" y="631.23" width="104.66" height="2.18"/><rect class="cls-7" x="712.78" y="608.39" width="104.66" height="12.51"/><rect class="cls-8" x="712.78" y="609.4" width="104.66" height="0.49"/><rect class="cls-8" x="712.78" y="610.46" width="104.66" height="0.49"/><rect class="cls-8" x="712.78" y="611.51" width="104.66" height="0.49"/><rect class="cls-8" x="712.78" y="612.57" width="104.66" height="0.49"/><rect class="cls-8" x="712.78" y="613.62" width="104.66" height="0.49"/><rect class="cls-8" x="712.78" y="614.68" width="104.66" height="0.49"/><rect class="cls-8" x="712.78" y="615.74" width="104.66" height="0.49"/><rect class="cls-8" x="712.78" y="616.79" width="104.66" height="0.49"/><rect class="cls-8" x="712.78" y="617.85" width="104.66" height="0.49"/><rect class="cls-8" x="712.78" y="618.9" width="104.66" height="0.49"/><rect class="cls-8" x="712.78" y="619.96" width="104.66" height="0.49"/><rect class="cls-9" x="754.31" y="608.39" width="21.61" height="12.51"/><rect class="cls-10" x="755.92" y="608.39" width="1.87" height="12.51"/><rect class="cls-10" x="772.43" y="608.39" width="1.87" height="12.51"/><rect class="cls-11" x="712.78" y="618.72" width="104.66" height="2.18"/><rect class="cls-7" x="713.96" y="595.88" width="104.66" height="12.51"/><rect class="cls-8" x="713.96" y="596.89" width="104.66" height="0.49"/><rect class="cls-8" x="713.96" y="597.95" width="104.66" height="0.49"/><rect class="cls-8" x="713.96" y="599" width="104.66" height="0.49"/><rect class="cls-8" x="713.96" y="600.06" width="104.66" height="0.49"/><rect class="cls-8" x="713.96" y="601.11" width="104.66" height="0.49"/><rect class="cls-8" x="713.96" y="602.17" width="104.66" height="0.49"/><rect class="cls-8" x="713.96" y="603.23" width="104.66" height="0.49"/><rect class="cls-8" x="713.96" y="604.28" width="104.66" height="0.49"/><rect class="cls-8" x="713.96" y="605.34" width="104.66" height="0.49"/><rect class="cls-8" x="713.96" y="606.39" width="104.66" height="0.49"/><rect class="cls-8" x="713.96" y="607.45" width="104.66" height="0.49"/><rect class="cls-9" x="755.48" y="595.88" width="21.61" height="12.51"/><rect class="cls-10" x="757.1" y="595.88" width="1.87" height="12.51"/><rect class="cls-10" x="773.61" y="595.88" width="1.87" height="12.51"/><rect class="cls-11" x="713.96" y="606.21" width="104.66" height="2.18"/><rect class="cls-7" x="711.61" y="583.37" width="104.66" height="12.51"/><rect class="cls-8" x="711.61" y="584.38" width="104.66" height="0.49"/><rect class="cls-8" x="711.61" y="585.43" width="104.66" height="0.49"/><rect class="cls-8" x="711.61" y="586.49" width="104.66" height="0.49"/><rect class="cls-8" x="711.61" y="587.55" width="104.66" height="0.49"/><rect class="cls-8" x="711.61" y="588.6" width="104.66" height="0.49"/><rect class="cls-8" x="711.61" y="589.66" width="104.66" height="0.49"/><rect class="cls-8" x="711.61" y="590.72" width="104.66" height="0.49"/><rect class="cls-8" x="711.61" y="591.77" width="104.66" height="0.49"/><rect class="cls-8" x="711.61" y="592.83" width="104.66" height="0.49"/><rect class="cls-8" x="711.61" y="593.88" width="104.66" height="0.49"/><rect class="cls-8" x="711.61" y="594.94" width="104.66" height="0.49"/><rect class="cls-9" x="753.13" y="583.37" width="21.61" height="12.51"/><rect class="cls-10" x="754.75" y="583.37" width="1.87" height="12.51"/><rect class="cls-10" x="771.25" y="583.37" width="1.87" height="12.51"/><rect class="cls-11" x="711.61" y="593.7" width="104.66" height="2.18"/><rect class="cls-7" x="715.14" y="570.86" width="104.66" height="12.51"/><rect class="cls-8" x="715.14" y="571.87" width="104.66" height="0.49"/><rect class="cls-8" x="715.14" y="572.92" width="104.66" height="0.49"/><rect class="cls-8" x="715.14" y="573.98" width="104.66" height="0.49"/><rect class="cls-8" x="715.14" y="575.04" width="104.66" height="0.49"/><rect class="cls-8" x="715.14" y="576.09" width="104.66" height="0.49"/><rect class="cls-8" x="715.14" y="577.15" width="104.66" height="0.49"/><rect class="cls-8" x="715.14" y="578.2" width="104.66" height="0.49"/><rect class="cls-8" x="715.14" y="579.26" width="104.66" height="0.49"/><rect class="cls-8" x="715.14" y="580.32" width="104.66" height="0.49"/><rect class="cls-8" x="715.14" y="581.37" width="104.66" height="0.49"/><rect class="cls-8" x="715.14" y="582.43" width="104.66" height="0.49"/><rect class="cls-9" x="756.66" y="570.86" width="21.61" height="12.51"/><rect class="cls-10" x="758.28" y="570.86" width="1.87" height="12.51"/><rect class="cls-10" x="774.79" y="570.86" width="1.87" height="12.51"/><rect class="cls-11" x="715.14" y="581.19" width="104.66" height="2.18"/><rect class="cls-7" x="712.78" y="558.35" width="104.66" height="12.51"/><rect class="cls-8" x="712.78" y="559.36" width="104.66" height="0.49"/><rect class="cls-8" x="712.78" y="560.41" width="104.66" height="0.49"/><rect class="cls-8" x="712.78" y="561.47" width="104.66" height="0.49"/><rect class="cls-8" x="712.78" y="562.53" width="104.66" height="0.49"/><rect class="cls-8" x="712.78" y="563.58" width="104.66" height="0.49"/><rect class="cls-8" x="712.78" y="564.64" width="104.66" height="0.49"/><rect class="cls-8" x="712.78" y="565.69" width="104.66" height="0.49"/><rect class="cls-8" x="712.78" y="566.75" width="104.66" height="0.49"/><rect class="cls-8" x="712.78" y="567.81" width="104.66" height="0.49"/><rect class="cls-8" x="712.78" y="568.86" width="104.66" height="0.49"/><rect class="cls-8" x="712.78" y="569.92" width="104.66" height="0.49"/><rect class="cls-9" x="754.31" y="558.35" width="21.61" height="12.51"/><rect class="cls-10" x="755.92" y="558.35" width="1.87" height="12.51"/><rect class="cls-10" x="772.43" y="558.35" width="1.87" height="12.51"/><rect class="cls-11" x="712.78" y="568.68" width="104.66" height="2.18"/><rect class="cls-7" x="716.32" y="545.84" width="104.66" height="12.51"/><rect class="cls-8" x="716.32" y="546.85" width="104.66" height="0.49"/><rect class="cls-8" x="716.32" y="547.9" width="104.66" height="0.49"/><rect class="cls-8" x="716.32" y="548.96" width="104.66" height="0.49"/><rect class="cls-8" x="716.32" y="550.02" width="104.66" height="0.49"/><rect class="cls-8" x="716.32" y="551.07" width="104.66" height="0.49"/><rect class="cls-8" x="716.32" y="552.13" width="104.66" height="0.49"/><rect class="cls-8" x="716.32" y="553.18" width="104.66" height="0.49"/><rect class="cls-8" x="716.32" y="554.24" width="104.66" height="0.49"/><rect class="cls-8" x="716.32" y="555.3" width="104.66" height="0.49"/><rect class="cls-8" x="716.32" y="556.35" width="104.66" height="0.49"/><rect class="cls-8" x="716.32" y="557.41" width="104.66" height="0.49"/><rect class="cls-9" x="757.84" y="545.84" width="21.61" height="12.51"/><rect class="cls-10" x="759.46" y="545.84" width="1.87" height="12.51"/><rect class="cls-10" x="775.97" y="545.84" width="1.87" height="12.51"/><rect class="cls-11" x="716.32" y="556.17" width="104.66" height="2.18"/><rect class="cls-7" x="713.96" y="533.33" width="104.66" height="12.51"/><rect class="cls-8" x="713.96" y="534.34" width="104.66" height="0.49"/><rect class="cls-8" x="713.96" y="535.39" width="104.66" height="0.49"/><rect class="cls-8" x="713.96" y="536.45" width="104.66" height="0.49"/><rect class="cls-8" x="713.96" y="537.5" width="104.66" height="0.49"/><rect class="cls-8" x="713.96" y="538.56" width="104.66" height="0.49"/><rect class="cls-8" x="713.96" y="539.62" width="104.66" height="0.49"/><rect class="cls-8" x="713.96" y="540.67" width="104.66" height="0.49"/><rect class="cls-8" x="713.96" y="541.73" width="104.66" height="0.49"/><rect class="cls-8" x="713.96" y="542.78" width="104.66" height="0.49"/><rect class="cls-8" x="713.96" y="543.84" width="104.66" height="0.49"/><rect class="cls-8" x="713.96" y="544.9" width="104.66" height="0.49"/><rect class="cls-9" x="755.48" y="533.33" width="21.61" height="12.51"/><rect class="cls-10" x="757.1" y="533.33" width="1.87" height="12.51"/><rect class="cls-10" x="773.61" y="533.33" width="1.87" height="12.51"/><rect class="cls-11" x="713.96" y="543.66" width="104.66" height="2.18"/><rect class="cls-7" x="712.78" y="520.82" width="104.66" height="12.51"/><rect class="cls-8" x="712.78" y="521.83" width="104.66" height="0.49"/><rect class="cls-8" x="712.78" y="522.88" width="104.66" height="0.49"/><rect class="cls-8" x="712.78" y="523.94" width="104.66" height="0.49"/><rect class="cls-8" x="712.78" y="524.99" width="104.66" height="0.49"/><rect class="cls-8" x="712.78" y="526.05" width="104.66" height="0.49"/><rect class="cls-8" x="712.78" y="527.11" width="104.66" height="0.49"/><rect class="cls-8" x="712.78" y="528.16" width="104.66" height="0.49"/><rect class="cls-8" x="712.78" y="529.22" width="104.66" height="0.49"/><rect class="cls-8" x="712.78" y="530.27" width="104.66" height="0.49"/><rect class="cls-8" x="712.78" y="531.33" width="104.66" height="0.49"/><rect class="cls-8" x="712.78" y="532.39" width="104.66" height="0.49"/><rect class="cls-9" x="754.31" y="520.82" width="21.61" height="12.51"/><rect class="cls-10" x="755.92" y="520.82" width="1.87" height="12.51"/><rect class="cls-10" x="772.43" y="520.82" width="1.87" height="12.51"/><rect class="cls-11" x="712.78" y="531.15" width="104.66" height="2.18"/><polygon class="cls-12" points="717.74 545.85 717.32 645.92 799.59 645.92 799.59 545.85 717.74 545.85"/><rect class="cls-7" x="793.64" y="633.41" width="104.66" height="12.51"/><rect class="cls-8" x="793.64" y="634.42" width="104.66" height="0.49"/><rect class="cls-8" x="793.64" y="635.48" width="104.66" height="0.49"/><rect class="cls-8" x="793.64" y="636.53" width="104.66" height="0.49"/><rect class="cls-8" x="793.64" y="637.59" width="104.66" height="0.49"/><rect class="cls-8" x="793.64" y="638.65" width="104.66" height="0.49"/><rect class="cls-8" x="793.64" y="639.7" width="104.66" height="0.49"/><rect class="cls-8" x="793.64" y="640.76" width="104.66" height="0.49"/><rect class="cls-8" x="793.64" y="641.81" width="104.66" height="0.49"/><rect class="cls-8" x="793.64" y="642.87" width="104.66" height="0.49"/><rect class="cls-8" x="793.64" y="643.93" width="104.66" height="0.49"/><rect class="cls-8" x="793.64" y="644.98" width="104.66" height="0.49"/><rect class="cls-9" x="835.16" y="633.41" width="21.61" height="12.51"/><rect class="cls-10" x="836.78" y="633.41" width="1.87" height="12.51"/><rect class="cls-10" x="853.29" y="633.41" width="1.87" height="12.51"/><rect class="cls-11" x="793.64" y="643.75" width="104.66" height="2.18"/><rect class="cls-7" x="791.28" y="620.9" width="104.66" height="12.51"/><rect class="cls-8" x="791.28" y="621.91" width="104.66" height="0.49"/><rect class="cls-8" x="791.28" y="622.97" width="104.66" height="0.49"/><rect class="cls-8" x="791.28" y="624.02" width="104.66" height="0.49"/><rect class="cls-8" x="791.28" y="625.08" width="104.66" height="0.49"/><rect class="cls-8" x="791.28" y="626.13" width="104.66" height="0.49"/><rect class="cls-8" x="791.28" y="627.19" width="104.66" height="0.49"/><rect class="cls-8" x="791.28" y="628.25" width="104.66" height="0.49"/><rect class="cls-8" x="791.28" y="629.3" width="104.66" height="0.49"/><rect class="cls-8" x="791.28" y="630.36" width="104.66" height="0.49"/><rect class="cls-8" x="791.28" y="631.41" width="104.66" height="0.49"/><rect class="cls-8" x="791.28" y="632.47" width="104.66" height="0.49"/><rect class="cls-9" x="832.8" y="620.9" width="21.61" height="12.51"/><rect class="cls-10" x="834.42" y="620.9" width="1.87" height="12.51"/><rect class="cls-10" x="850.93" y="620.9" width="1.87" height="12.51"/><rect class="cls-11" x="791.28" y="631.23" width="104.66" height="2.18"/><rect class="cls-7" x="792.46" y="608.39" width="104.66" height="12.51"/><rect class="cls-8" x="792.46" y="609.4" width="104.66" height="0.49"/><rect class="cls-8" x="792.46" y="610.46" width="104.66" height="0.49"/><rect class="cls-8" x="792.46" y="611.51" width="104.66" height="0.49"/><rect class="cls-8" x="792.46" y="612.57" width="104.66" height="0.49"/><rect class="cls-8" x="792.46" y="613.62" width="104.66" height="0.49"/><rect class="cls-8" x="792.46" y="614.68" width="104.66" height="0.49"/><rect class="cls-8" x="792.46" y="615.74" width="104.66" height="0.49"/><rect class="cls-8" x="792.46" y="616.79" width="104.66" height="0.49"/><rect class="cls-8" x="792.46" y="617.85" width="104.66" height="0.49"/><rect class="cls-8" x="792.46" y="618.9" width="104.66" height="0.49"/><rect class="cls-8" x="792.46" y="619.96" width="104.66" height="0.49"/><rect class="cls-9" x="833.98" y="608.39" width="21.61" height="12.51"/><rect class="cls-10" x="835.6" y="608.39" width="1.87" height="12.51"/><rect class="cls-10" x="852.11" y="608.39" width="1.87" height="12.51"/><rect class="cls-11" x="792.46" y="618.72" width="104.66" height="2.18"/><rect class="cls-7" x="791.28" y="595.88" width="104.66" height="12.51"/><rect class="cls-8" x="791.28" y="596.89" width="104.66" height="0.49"/><rect class="cls-8" x="791.28" y="597.95" width="104.66" height="0.49"/><rect class="cls-8" x="791.28" y="599" width="104.66" height="0.49"/><rect class="cls-8" x="791.28" y="600.06" width="104.66" height="0.49"/><rect class="cls-8" x="791.28" y="601.11" width="104.66" height="0.49"/><rect class="cls-8" x="791.28" y="602.17" width="104.66" height="0.49"/><rect class="cls-8" x="791.28" y="603.23" width="104.66" height="0.49"/><rect class="cls-8" x="791.28" y="604.28" width="104.66" height="0.49"/><rect class="cls-8" x="791.28" y="605.34" width="104.66" height="0.49"/><rect class="cls-8" x="791.28" y="606.39" width="104.66" height="0.49"/><rect class="cls-8" x="791.28" y="607.45" width="104.66" height="0.49"/><rect class="cls-9" x="832.8" y="595.88" width="21.61" height="12.51"/><rect class="cls-10" x="834.42" y="595.88" width="1.87" height="12.51"/><rect class="cls-10" x="850.93" y="595.88" width="1.87" height="12.51"/><rect class="cls-11" x="791.28" y="606.21" width="104.66" height="2.18"/><rect class="cls-7" x="790.1" y="583.37" width="104.66" height="12.51"/><rect class="cls-8" x="790.1" y="584.38" width="104.66" height="0.49"/><rect class="cls-8" x="790.1" y="585.43" width="104.66" height="0.49"/><rect class="cls-8" x="790.1" y="586.49" width="104.66" height="0.49"/><rect class="cls-8" x="790.1" y="587.55" width="104.66" height="0.49"/><rect class="cls-8" x="790.1" y="588.6" width="104.66" height="0.49"/><rect class="cls-8" x="790.1" y="589.66" width="104.66" height="0.49"/><rect class="cls-8" x="790.1" y="590.72" width="104.66" height="0.49"/><rect class="cls-8" x="790.1" y="591.77" width="104.66" height="0.49"/><rect class="cls-8" x="790.1" y="592.83" width="104.66" height="0.49"/><rect class="cls-8" x="790.1" y="593.88" width="104.66" height="0.49"/><rect class="cls-8" x="790.1" y="594.94" width="104.66" height="0.49"/><rect class="cls-9" x="831.63" y="583.37" width="21.61" height="12.51"/><rect class="cls-10" x="833.24" y="583.37" width="1.87" height="12.51"/><rect class="cls-10" x="849.75" y="583.37" width="1.87" height="12.51"/><rect class="cls-11" x="790.1" y="593.7" width="104.66" height="2.18"/><rect class="cls-7" x="793.64" y="570.86" width="104.66" height="12.51"/><rect class="cls-8" x="793.64" y="571.87" width="104.66" height="0.49"/><rect class="cls-8" x="793.64" y="572.92" width="104.66" height="0.49"/><rect class="cls-8" x="793.64" y="573.98" width="104.66" height="0.49"/><rect class="cls-8" x="793.64" y="575.04" width="104.66" height="0.49"/><rect class="cls-8" x="793.64" y="576.09" width="104.66" height="0.49"/><rect class="cls-8" x="793.64" y="577.15" width="104.66" height="0.49"/><rect class="cls-8" x="793.64" y="578.2" width="104.66" height="0.49"/><rect class="cls-8" x="793.64" y="579.26" width="104.66" height="0.49"/><rect class="cls-8" x="793.64" y="580.32" width="104.66" height="0.49"/><rect class="cls-8" x="793.64" y="581.37" width="104.66" height="0.49"/><rect class="cls-8" x="793.64" y="582.43" width="104.66" height="0.49"/><rect class="cls-9" x="835.16" y="570.86" width="21.61" height="12.51"/><rect class="cls-10" x="836.78" y="570.86" width="1.87" height="12.51"/><rect class="cls-10" x="853.29" y="570.86" width="1.87" height="12.51"/><rect class="cls-11" x="793.64" y="581.19" width="104.66" height="2.18"/><rect class="cls-7" x="791.28" y="558.35" width="104.66" height="12.51"/><rect class="cls-8" x="791.28" y="559.36" width="104.66" height="0.49"/><rect class="cls-8" x="791.28" y="560.41" width="104.66" height="0.49"/><rect class="cls-8" x="791.28" y="561.47" width="104.66" height="0.49"/><rect class="cls-8" x="791.28" y="562.53" width="104.66" height="0.49"/><rect class="cls-8" x="791.28" y="563.58" width="104.66" height="0.49"/><rect class="cls-8" x="791.28" y="564.64" width="104.66" height="0.49"/><rect class="cls-8" x="791.28" y="565.69" width="104.66" height="0.49"/><rect class="cls-8" x="791.28" y="566.75" width="104.66" height="0.49"/><rect class="cls-8" x="791.28" y="567.81" width="104.66" height="0.49"/><rect class="cls-8" x="791.28" y="568.86" width="104.66" height="0.49"/><rect class="cls-8" x="791.28" y="569.92" width="104.66" height="0.49"/><rect class="cls-9" x="832.8" y="558.35" width="21.61" height="12.51"/><rect class="cls-10" x="834.42" y="558.35" width="1.87" height="12.51"/><rect class="cls-10" x="850.93" y="558.35" width="1.87" height="12.51"/><rect class="cls-11" x="791.28" y="568.68" width="104.66" height="2.18"/><rect class="cls-7" x="793.64" y="545.84" width="104.66" height="12.51"/><rect class="cls-8" x="793.64" y="546.85" width="104.66" height="0.49"/><rect class="cls-8" x="793.64" y="547.9" width="104.66" height="0.49"/><rect class="cls-8" x="793.64" y="548.96" width="104.66" height="0.49"/><rect class="cls-8" x="793.64" y="550.02" width="104.66" height="0.49"/><rect class="cls-8" x="793.64" y="551.07" width="104.66" height="0.49"/><rect class="cls-8" x="793.64" y="552.13" width="104.66" height="0.49"/><rect class="cls-8" x="793.64" y="553.18" width="104.66" height="0.49"/><rect class="cls-8" x="793.64" y="554.24" width="104.66" height="0.49"/><rect class="cls-8" x="793.64" y="555.3" width="104.66" height="0.49"/><rect class="cls-8" x="793.64" y="556.35" width="104.66" height="0.49"/><rect class="cls-8" x="793.64" y="557.41" width="104.66" height="0.49"/><rect class="cls-9" x="835.16" y="545.84" width="21.61" height="12.51"/><rect class="cls-10" x="836.78" y="545.84" width="1.87" height="12.51"/><rect class="cls-10" x="853.29" y="545.84" width="1.87" height="12.51"/><rect class="cls-11" x="793.64" y="556.17" width="104.66" height="2.18"/><rect class="cls-13" x="768.65" y="601.42" width="104.66" height="44.51" transform="translate(1641.95 1247.34) rotate(180)"/><path class="cls-14" d="M868.59,615.83v15.68a9.7,9.7,0,0,0-9.7,9.7H783.06a9.7,9.7,0,0,0-9.7-9.7V615.83a9.7,9.7,0,0,0,9.7-9.7h75.83A9.7,9.7,0,0,0,868.59,615.83Z"/><path class="cls-13" d="M821,607.75a15.92,15.92,0,1,1-15.92,15.92A15.93,15.93,0,0,1,821,607.75Zm0,30.66a14.74,14.74,0,1,0-14.74-14.74A14.76,14.76,0,0,0,821,638.41Z"/><circle class="cls-13" cx="820.98" cy="623.67" r="12.97" transform="translate(26.79 1281.12) rotate(-76.84)"/><circle class="cls-7" cx="792.98" cy="623.67" r="9.33" transform="translate(50.88 1307.09) rotate(-80.83)"/><circle class="cls-7" cx="848.97" cy="623.67" r="9.33" transform="translate(97.95 1362.37) rotate(-80.83)"/><path class="cls-9" d="M822.11,634.28H820.7V633a12.35,12.35,0,0,1-2.39-.32,10.17,10.17,0,0,1-2-.79,14.77,14.77,0,0,0,.87-3.58l1.15.16a4,4,0,0,0,.59,2.41,2.93,2.93,0,0,0,1.94.9v-5.59c-1.75-1.24-2.82-2-3.22-2.38a5.69,5.69,0,0,1-1.3-1.61,4.45,4.45,0,0,1-.41-2,4.83,4.83,0,0,1,1.3-3.31,6.21,6.21,0,0,1,3.63-1.89V612.8h1.46v2a14.9,14.9,0,0,1,4.62.81,37.28,37.28,0,0,0-.67,3.94h-1.07a4.64,4.64,0,0,0-.91-2.57,3,3,0,0,0-2.06-.88v6.42l2,1.55a9.4,9.4,0,0,1,1.38,1.26,4.35,4.35,0,0,1,.77,1.33,4,4,0,0,1,.27,1.43,4.31,4.31,0,0,1-.41,1.82,4.94,4.94,0,0,1-1.05,1.48,4.85,4.85,0,0,1-1.31.91,8,8,0,0,1-1.76.51Zm0-2.67a2.4,2.4,0,0,0,1.16-.83,2.06,2.06,0,0,0,.38-1.23,2.14,2.14,0,0,0-.32-1.16,5.51,5.51,0,0,0-1.22-1.28Zm-1.22-15.34a3,3,0,0,0-1.4,1,2.48,2.48,0,0,0-.46,1.49,2.41,2.41,0,0,0,.41,1.33,5.77,5.77,0,0,0,1.45,1.45Z"/><path class="cls-14" d="M864.12,606.11h4.47v4.47h0a4.47,4.47,0,0,1-4.47-4.47Z"/><path class="cls-14" d="M868.59,636.76v4.47h-4.47a4.47,4.47,0,0,1,4.47-4.47Z"/><rect class="cls-15" x="810.17" y="600.91" width="21.61" height="44.93"/><rect class="cls-16" x="811.79" y="600.91" width="1.87" height="44.93"/><rect class="cls-16" x="828.29" y="600.91" width="1.87" height="44.93"/><rect class="cls-7" x="649.05" y="533.34" width="104.66" height="12.51"/><rect class="cls-8" x="649.05" y="534.35" width="104.66" height="0.49"/><rect class="cls-8" x="649.05" y="535.4" width="104.66" height="0.49"/><rect class="cls-8" x="649.05" y="536.46" width="104.66" height="0.49"/><rect class="cls-8" x="649.05" y="537.51" width="104.66" height="0.49"/><rect class="cls-8" x="649.05" y="538.57" width="104.66" height="0.49"/><rect class="cls-8" x="649.05" y="539.63" width="104.66" height="0.49"/><rect class="cls-8" x="649.05" y="540.68" width="104.66" height="0.49"/><rect class="cls-8" x="649.05" y="541.74" width="104.66" height="0.49"/><rect class="cls-8" x="649.05" y="542.79" width="104.66" height="0.49"/><rect class="cls-8" x="649.05" y="543.85" width="104.66" height="0.49"/><rect class="cls-8" x="649.05" y="544.91" width="104.66" height="0.49"/><rect class="cls-9" x="690.57" y="533.34" width="21.61" height="12.51"/><rect class="cls-10" x="692.19" y="533.34" width="1.87" height="12.51"/><rect class="cls-10" x="708.69" y="533.34" width="1.87" height="12.51"/><rect class="cls-11" x="649.05" y="543.67" width="104.66" height="2.18"/><rect class="cls-7" x="651.41" y="520.83" width="104.66" height="12.51"/><rect class="cls-8" x="651.41" y="521.83" width="104.66" height="0.49"/><rect class="cls-8" x="651.41" y="522.89" width="104.66" height="0.49"/><rect class="cls-8" x="651.41" y="523.95" width="104.66" height="0.49"/><rect class="cls-8" x="651.41" y="525" width="104.66" height="0.49"/><rect class="cls-8" x="651.41" y="526.06" width="104.66" height="0.49"/><rect class="cls-8" x="651.41" y="527.12" width="104.66" height="0.49"/><rect class="cls-8" x="651.41" y="528.17" width="104.66" height="0.49"/><rect class="cls-8" x="651.41" y="529.23" width="104.66" height="0.49"/><rect class="cls-8" x="651.41" y="530.28" width="104.66" height="0.49"/><rect class="cls-8" x="651.41" y="531.34" width="104.66" height="0.49"/><rect class="cls-8" x="651.41" y="532.4" width="104.66" height="0.49"/><rect class="cls-9" x="692.93" y="520.83" width="21.61" height="12.51"/><rect class="cls-10" x="694.55" y="520.83" width="1.87" height="12.51"/><rect class="cls-10" x="711.05" y="520.83" width="1.87" height="12.51"/><rect class="cls-11" x="651.41" y="531.16" width="104.66" height="2.18"/><rect class="cls-7" x="649.05" y="508.32" width="104.66" height="12.51"/><rect class="cls-8" x="649.05" y="509.32" width="104.66" height="0.49"/><rect class="cls-8" x="649.05" y="510.38" width="104.66" height="0.49"/><rect class="cls-8" x="649.05" y="511.44" width="104.66" height="0.49"/><rect class="cls-8" x="649.05" y="512.49" width="104.66" height="0.49"/><rect class="cls-8" x="649.05" y="513.55" width="104.66" height="0.49"/><rect class="cls-8" x="649.05" y="514.6" width="104.66" height="0.49"/><rect class="cls-8" x="649.05" y="515.66" width="104.66" height="0.49"/><rect class="cls-8" x="649.05" y="516.72" width="104.66" height="0.49"/><rect class="cls-8" x="649.05" y="517.77" width="104.66" height="0.49"/><rect class="cls-8" x="649.05" y="518.83" width="104.66" height="0.49"/><rect class="cls-8" x="649.05" y="519.88" width="104.66" height="0.49"/><rect class="cls-9" x="690.57" y="508.32" width="21.61" height="12.51"/><rect class="cls-10" x="692.19" y="508.32" width="1.87" height="12.51"/><rect class="cls-10" x="708.69" y="508.32" width="1.87" height="12.51"/><rect class="cls-11" x="649.05" y="518.65" width="104.66" height="2.18"/><rect class="cls-7" x="647.87" y="495.81" width="104.66" height="12.51"/><rect class="cls-8" x="647.87" y="496.81" width="104.66" height="0.49"/><rect class="cls-8" x="647.87" y="497.87" width="104.66" height="0.49"/><rect class="cls-8" x="647.87" y="498.93" width="104.66" height="0.49"/><rect class="cls-8" x="647.87" y="499.98" width="104.66" height="0.49"/><rect class="cls-8" x="647.87" y="501.04" width="104.66" height="0.49"/><rect class="cls-8" x="647.87" y="502.09" width="104.66" height="0.49"/><rect class="cls-8" x="647.87" y="503.15" width="104.66" height="0.49"/><rect class="cls-8" x="647.87" y="504.21" width="104.66" height="0.49"/><rect class="cls-8" x="647.87" y="505.26" width="104.66" height="0.49"/><rect class="cls-8" x="647.87" y="506.32" width="104.66" height="0.49"/><rect class="cls-8" x="647.87" y="507.37" width="104.66" height="0.49"/><rect class="cls-9" x="689.39" y="495.81" width="21.61" height="12.51"/><rect class="cls-10" x="691.01" y="495.81" width="1.87" height="12.51"/><rect class="cls-10" x="707.52" y="495.81" width="1.87" height="12.51"/><rect class="cls-11" x="647.87" y="506.14" width="104.66" height="2.18"/><rect class="cls-7" x="645.51" y="483.3" width="104.66" height="12.51"/><rect class="cls-8" x="645.51" y="484.3" width="104.66" height="0.49"/><rect class="cls-8" x="645.51" y="485.36" width="104.66" height="0.49"/><rect class="cls-8" x="645.51" y="486.42" width="104.66" height="0.49"/><rect class="cls-8" x="645.51" y="487.47" width="104.66" height="0.49"/><rect class="cls-8" x="645.51" y="488.53" width="104.66" height="0.49"/><rect class="cls-8" x="645.51" y="489.58" width="104.66" height="0.49"/><rect class="cls-8" x="645.51" y="490.64" width="104.66" height="0.49"/><rect class="cls-8" x="645.51" y="491.7" width="104.66" height="0.49"/><rect class="cls-8" x="645.51" y="492.75" width="104.66" height="0.49"/><rect class="cls-8" x="645.51" y="493.81" width="104.66" height="0.49"/><rect class="cls-8" x="645.51" y="494.86" width="104.66" height="0.49"/><rect class="cls-9" x="687.03" y="483.3" width="21.61" height="12.51"/><rect class="cls-10" x="688.65" y="483.3" width="1.87" height="12.51"/><rect class="cls-10" x="705.16" y="483.3" width="1.87" height="12.51"/><rect class="cls-11" x="645.51" y="493.63" width="104.66" height="2.18"/><rect class="cls-7" x="650.23" y="470.78" width="104.66" height="12.51"/><rect class="cls-8" x="650.23" y="471.79" width="104.66" height="0.49"/><rect class="cls-8" x="650.23" y="472.85" width="104.66" height="0.49"/><rect class="cls-8" x="650.23" y="473.9" width="104.66" height="0.49"/><rect class="cls-8" x="650.23" y="474.96" width="104.66" height="0.49"/><rect class="cls-8" x="650.23" y="476.02" width="104.66" height="0.49"/><rect class="cls-8" x="650.23" y="477.07" width="104.66" height="0.49"/><rect class="cls-8" x="650.23" y="478.13" width="104.66" height="0.49"/><rect class="cls-8" x="650.23" y="479.19" width="104.66" height="0.49"/><rect class="cls-8" x="650.23" y="480.24" width="104.66" height="0.49"/><rect class="cls-8" x="650.23" y="481.3" width="104.66" height="0.49"/><rect class="cls-8" x="650.23" y="482.35" width="104.66" height="0.49"/><rect class="cls-9" x="691.75" y="470.78" width="21.61" height="12.51"/><rect class="cls-10" x="693.37" y="470.78" width="1.87" height="12.51"/><rect class="cls-10" x="709.87" y="470.78" width="1.87" height="12.51"/><rect class="cls-11" x="650.23" y="481.12" width="104.66" height="2.18"/><rect class="cls-7" x="646.69" y="458.27" width="104.66" height="12.51"/><rect class="cls-8" x="646.69" y="459.28" width="104.66" height="0.49"/><rect class="cls-8" x="646.69" y="460.34" width="104.66" height="0.49"/><rect class="cls-8" x="646.69" y="461.39" width="104.66" height="0.49"/><rect class="cls-8" x="646.69" y="462.45" width="104.66" height="0.49"/><rect class="cls-8" x="646.69" y="463.51" width="104.66" height="0.49"/><rect class="cls-8" x="646.69" y="464.56" width="104.66" height="0.49"/><rect class="cls-8" x="646.69" y="465.62" width="104.66" height="0.49"/><rect class="cls-8" x="646.69" y="466.67" width="104.66" height="0.49"/><rect class="cls-8" x="646.69" y="467.73" width="104.66" height="0.49"/><rect class="cls-8" x="646.69" y="468.79" width="104.66" height="0.49"/><rect class="cls-8" x="646.69" y="469.84" width="104.66" height="0.49"/><rect class="cls-9" x="688.21" y="458.27" width="21.61" height="12.51"/><rect class="cls-10" x="689.83" y="458.27" width="1.87" height="12.51"/><rect class="cls-10" x="706.34" y="458.27" width="1.87" height="12.51"/><rect class="cls-11" x="646.69" y="468.61" width="104.66" height="2.18"/><rect class="cls-7" x="647.87" y="445.76" width="104.66" height="12.51"/><rect class="cls-8" x="647.87" y="446.77" width="104.66" height="0.49"/><rect class="cls-8" x="647.87" y="447.83" width="104.66" height="0.49"/><rect class="cls-8" x="647.87" y="448.88" width="104.66" height="0.49"/><rect class="cls-8" x="647.87" y="449.94" width="104.66" height="0.49"/><rect class="cls-8" x="647.87" y="451" width="104.66" height="0.49"/><rect class="cls-8" x="647.87" y="452.05" width="104.66" height="0.49"/><rect class="cls-8" x="647.87" y="453.11" width="104.66" height="0.49"/><rect class="cls-8" x="647.87" y="454.16" width="104.66" height="0.49"/><rect class="cls-8" x="647.87" y="455.22" width="104.66" height="0.49"/><rect class="cls-8" x="647.87" y="456.28" width="104.66" height="0.49"/><rect class="cls-8" x="647.87" y="457.33" width="104.66" height="0.49"/><rect class="cls-9" x="689.39" y="445.76" width="21.61" height="12.51"/><rect class="cls-10" x="691.01" y="445.76" width="1.87" height="12.51"/><rect class="cls-10" x="707.52" y="445.76" width="1.87" height="12.51"/><rect class="cls-11" x="647.87" y="456.1" width="104.66" height="2.18"/><polygon class="cls-12" points="714.47 445.77 635.46 545.85 717.74 545.85 717.74 445.77 714.47 445.77"/><rect class="cls-7" x="634.3" y="533.34" width="104.66" height="12.51"/><rect class="cls-8" x="634.3" y="534.35" width="104.66" height="0.49"/><rect class="cls-8" x="634.3" y="535.4" width="104.66" height="0.49"/><rect class="cls-8" x="634.3" y="536.46" width="104.66" height="0.49"/><rect class="cls-8" x="634.3" y="537.51" width="104.66" height="0.49"/><rect class="cls-8" x="634.3" y="538.57" width="104.66" height="0.49"/><rect class="cls-8" x="634.3" y="539.63" width="104.66" height="0.49"/><rect class="cls-8" x="634.3" y="540.68" width="104.66" height="0.49"/><rect class="cls-8" x="634.3" y="541.74" width="104.66" height="0.49"/><rect class="cls-8" x="634.3" y="542.79" width="104.66" height="0.49"/><rect class="cls-8" x="634.3" y="543.85" width="104.66" height="0.49"/><rect class="cls-8" x="634.3" y="544.91" width="104.66" height="0.49"/><rect class="cls-9" x="675.82" y="533.34" width="21.61" height="12.51"/><rect class="cls-10" x="677.44" y="533.34" width="1.87" height="12.51"/><rect class="cls-10" x="693.94" y="533.34" width="1.87" height="12.51"/><rect class="cls-11" x="634.3" y="543.67" width="104.66" height="2.18"/><rect class="cls-7" x="637.83" y="520.83" width="104.66" height="12.51"/><rect class="cls-8" x="637.83" y="521.83" width="104.66" height="0.49"/><rect class="cls-8" x="637.83" y="522.89" width="104.66" height="0.49"/><rect class="cls-8" x="637.83" y="523.95" width="104.66" height="0.49"/><rect class="cls-8" x="637.83" y="525" width="104.66" height="0.49"/><rect class="cls-8" x="637.83" y="526.06" width="104.66" height="0.49"/><rect class="cls-8" x="637.83" y="527.12" width="104.66" height="0.49"/><rect class="cls-8" x="637.83" y="528.17" width="104.66" height="0.49"/><rect class="cls-8" x="637.83" y="529.23" width="104.66" height="0.49"/><rect class="cls-8" x="637.83" y="530.28" width="104.66" height="0.49"/><rect class="cls-8" x="637.83" y="531.34" width="104.66" height="0.49"/><rect class="cls-8" x="637.83" y="532.4" width="104.66" height="0.49"/><rect class="cls-9" x="679.35" y="520.83" width="21.61" height="12.51"/><rect class="cls-10" x="680.97" y="520.83" width="1.87" height="12.51"/><rect class="cls-10" x="697.48" y="520.83" width="1.87" height="12.51"/><rect class="cls-11" x="637.83" y="531.16" width="104.66" height="2.18"/><rect class="cls-7" x="636.65" y="508.32" width="104.66" height="12.51"/><rect class="cls-8" x="636.65" y="509.32" width="104.66" height="0.49"/><rect class="cls-8" x="636.65" y="510.38" width="104.66" height="0.49"/><rect class="cls-8" x="636.65" y="511.44" width="104.66" height="0.49"/><rect class="cls-8" x="636.65" y="512.49" width="104.66" height="0.49"/><rect class="cls-8" x="636.65" y="513.55" width="104.66" height="0.49"/><rect class="cls-8" x="636.65" y="514.6" width="104.66" height="0.49"/><rect class="cls-8" x="636.65" y="515.66" width="104.66" height="0.49"/><rect class="cls-8" x="636.65" y="516.72" width="104.66" height="0.49"/><rect class="cls-8" x="636.65" y="517.77" width="104.66" height="0.49"/><rect class="cls-8" x="636.65" y="518.83" width="104.66" height="0.49"/><rect class="cls-8" x="636.65" y="519.88" width="104.66" height="0.49"/><rect class="cls-9" x="678.18" y="508.32" width="21.61" height="12.51"/><rect class="cls-10" x="679.79" y="508.32" width="1.87" height="12.51"/><rect class="cls-10" x="696.3" y="508.32" width="1.87" height="12.51"/><rect class="cls-11" x="636.65" y="518.65" width="104.66" height="2.18"/><rect class="cls-7" x="641.37" y="495.81" width="104.66" height="12.51"/><rect class="cls-8" x="641.37" y="496.81" width="104.66" height="0.49"/><rect class="cls-8" x="641.37" y="497.87" width="104.66" height="0.49"/><rect class="cls-8" x="641.37" y="498.93" width="104.66" height="0.49"/><rect class="cls-8" x="641.37" y="499.98" width="104.66" height="0.49"/><rect class="cls-8" x="641.37" y="501.04" width="104.66" height="0.49"/><rect class="cls-8" x="641.37" y="502.09" width="104.66" height="0.49"/><rect class="cls-8" x="641.37" y="503.15" width="104.66" height="0.49"/><rect class="cls-8" x="641.37" y="504.21" width="104.66" height="0.49"/><rect class="cls-8" x="641.37" y="505.26" width="104.66" height="0.49"/><rect class="cls-8" x="641.37" y="506.32" width="104.66" height="0.49"/><rect class="cls-8" x="641.37" y="507.37" width="104.66" height="0.49"/><rect class="cls-9" x="682.89" y="495.81" width="21.61" height="12.51"/><rect class="cls-10" x="684.51" y="495.81" width="1.87" height="12.51"/><rect class="cls-10" x="701.01" y="495.81" width="1.87" height="12.51"/><rect class="cls-11" x="641.37" y="506.14" width="104.66" height="2.18"/><rect class="cls-7" x="639.01" y="483.3" width="104.66" height="12.51"/><rect class="cls-8" x="639.01" y="484.3" width="104.66" height="0.49"/><rect class="cls-8" x="639.01" y="485.36" width="104.66" height="0.49"/><rect class="cls-8" x="639.01" y="486.42" width="104.66" height="0.49"/><rect class="cls-8" x="639.01" y="487.47" width="104.66" height="0.49"/><rect class="cls-8" x="639.01" y="488.53" width="104.66" height="0.49"/><rect class="cls-8" x="639.01" y="489.58" width="104.66" height="0.49"/><rect class="cls-8" x="639.01" y="490.64" width="104.66" height="0.49"/><rect class="cls-8" x="639.01" y="491.7" width="104.66" height="0.49"/><rect class="cls-8" x="639.01" y="492.75" width="104.66" height="0.49"/><rect class="cls-8" x="639.01" y="493.81" width="104.66" height="0.49"/><rect class="cls-8" x="639.01" y="494.86" width="104.66" height="0.49"/><rect class="cls-9" x="680.53" y="483.3" width="21.61" height="12.51"/><rect class="cls-10" x="682.15" y="483.3" width="1.87" height="12.51"/><rect class="cls-10" x="698.66" y="483.3" width="1.87" height="12.51"/><rect class="cls-11" x="639.01" y="493.63" width="104.66" height="2.18"/><polygon class="cls-12" points="713.83 483.3 664.45 545.85 715.87 545.85 715.87 483.3 713.83 483.3"/><rect class="cls-7" x="712.78" y="533.34" width="104.66" height="12.51"/><rect class="cls-8" x="712.78" y="534.35" width="104.66" height="0.49"/><rect class="cls-8" x="712.78" y="535.4" width="104.66" height="0.49"/><rect class="cls-8" x="712.78" y="536.46" width="104.66" height="0.49"/><rect class="cls-8" x="712.78" y="537.51" width="104.66" height="0.49"/><rect class="cls-8" x="712.78" y="538.57" width="104.66" height="0.49"/><rect class="cls-8" x="712.78" y="539.63" width="104.66" height="0.49"/><rect class="cls-8" x="712.78" y="540.68" width="104.66" height="0.49"/><rect class="cls-8" x="712.78" y="541.74" width="104.66" height="0.49"/><rect class="cls-8" x="712.78" y="542.79" width="104.66" height="0.49"/><rect class="cls-8" x="712.78" y="543.85" width="104.66" height="0.49"/><rect class="cls-8" x="712.78" y="544.91" width="104.66" height="0.49"/><rect class="cls-9" x="754.31" y="533.34" width="21.61" height="12.51"/><rect class="cls-10" x="755.92" y="533.34" width="1.87" height="12.51"/><rect class="cls-10" x="772.43" y="533.34" width="1.87" height="12.51"/><rect class="cls-11" x="712.78" y="543.67" width="104.66" height="2.18"/><rect class="cls-7" x="715.14" y="520.83" width="104.66" height="12.51"/><rect class="cls-8" x="715.14" y="521.83" width="104.66" height="0.49"/><rect class="cls-8" x="715.14" y="522.89" width="104.66" height="0.49"/><rect class="cls-8" x="715.14" y="523.95" width="104.66" height="0.49"/><rect class="cls-8" x="715.14" y="525" width="104.66" height="0.49"/><rect class="cls-8" x="715.14" y="526.06" width="104.66" height="0.49"/><rect class="cls-8" x="715.14" y="527.12" width="104.66" height="0.49"/><rect class="cls-8" x="715.14" y="528.17" width="104.66" height="0.49"/><rect class="cls-8" x="715.14" y="529.23" width="104.66" height="0.49"/><rect class="cls-8" x="715.14" y="530.28" width="104.66" height="0.49"/><rect class="cls-8" x="715.14" y="531.34" width="104.66" height="0.49"/><rect class="cls-8" x="715.14" y="532.4" width="104.66" height="0.49"/><rect class="cls-9" x="756.66" y="520.83" width="21.61" height="12.51"/><rect class="cls-10" x="758.28" y="520.83" width="1.87" height="12.51"/><rect class="cls-10" x="774.79" y="520.83" width="1.87" height="12.51"/><rect class="cls-11" x="715.14" y="531.16" width="104.66" height="2.18"/><rect class="cls-7" x="712.78" y="508.32" width="104.66" height="12.51"/><rect class="cls-8" x="712.78" y="509.32" width="104.66" height="0.49"/><rect class="cls-8" x="712.78" y="510.38" width="104.66" height="0.49"/><rect class="cls-8" x="712.78" y="511.44" width="104.66" height="0.49"/><rect class="cls-8" x="712.78" y="512.49" width="104.66" height="0.49"/><rect class="cls-8" x="712.78" y="513.55" width="104.66" height="0.49"/><rect class="cls-8" x="712.78" y="514.6" width="104.66" height="0.49"/><rect class="cls-8" x="712.78" y="515.66" width="104.66" height="0.49"/><rect class="cls-8" x="712.78" y="516.72" width="104.66" height="0.49"/><rect class="cls-8" x="712.78" y="517.77" width="104.66" height="0.49"/><rect class="cls-8" x="712.78" y="518.83" width="104.66" height="0.49"/><rect class="cls-8" x="712.78" y="519.88" width="104.66" height="0.49"/><rect class="cls-9" x="754.31" y="508.32" width="21.61" height="12.51"/><rect class="cls-10" x="755.92" y="508.32" width="1.87" height="12.51"/><rect class="cls-10" x="772.43" y="508.32" width="1.87" height="12.51"/><rect class="cls-11" x="712.78" y="518.65" width="104.66" height="2.18"/><rect class="cls-7" x="713.96" y="495.81" width="104.66" height="12.51"/><rect class="cls-8" x="713.96" y="496.81" width="104.66" height="0.49"/><rect class="cls-8" x="713.96" y="497.87" width="104.66" height="0.49"/><rect class="cls-8" x="713.96" y="498.93" width="104.66" height="0.49"/><rect class="cls-8" x="713.96" y="499.98" width="104.66" height="0.49"/><rect class="cls-8" x="713.96" y="501.04" width="104.66" height="0.49"/><rect class="cls-8" x="713.96" y="502.09" width="104.66" height="0.49"/><rect class="cls-8" x="713.96" y="503.15" width="104.66" height="0.49"/><rect class="cls-8" x="713.96" y="504.21" width="104.66" height="0.49"/><rect class="cls-8" x="713.96" y="505.26" width="104.66" height="0.49"/><rect class="cls-8" x="713.96" y="506.32" width="104.66" height="0.49"/><rect class="cls-8" x="713.96" y="507.37" width="104.66" height="0.49"/><rect class="cls-9" x="755.48" y="495.81" width="21.61" height="12.51"/><rect class="cls-10" x="757.1" y="495.81" width="1.87" height="12.51"/><rect class="cls-10" x="773.61" y="495.81" width="1.87" height="12.51"/><rect class="cls-11" x="713.96" y="506.14" width="104.66" height="2.18"/><rect class="cls-7" x="711.61" y="483.3" width="104.66" height="12.51"/><rect class="cls-8" x="711.61" y="484.3" width="104.66" height="0.49"/><rect class="cls-8" x="711.61" y="485.36" width="104.66" height="0.49"/><rect class="cls-8" x="711.61" y="486.42" width="104.66" height="0.49"/><rect class="cls-8" x="711.61" y="487.47" width="104.66" height="0.49"/><rect class="cls-8" x="711.61" y="488.53" width="104.66" height="0.49"/><rect class="cls-8" x="711.61" y="489.58" width="104.66" height="0.49"/><rect class="cls-8" x="711.61" y="490.64" width="104.66" height="0.49"/><rect class="cls-8" x="711.61" y="491.7" width="104.66" height="0.49"/><rect class="cls-8" x="711.61" y="492.75" width="104.66" height="0.49"/><rect class="cls-8" x="711.61" y="493.81" width="104.66" height="0.49"/><rect class="cls-8" x="711.61" y="494.86" width="104.66" height="0.49"/><rect class="cls-9" x="753.13" y="483.3" width="21.61" height="12.51"/><rect class="cls-10" x="754.75" y="483.3" width="1.87" height="12.51"/><rect class="cls-10" x="771.25" y="483.3" width="1.87" height="12.51"/><rect class="cls-11" x="711.61" y="493.63" width="104.66" height="2.18"/><rect class="cls-7" x="715.14" y="470.78" width="104.66" height="12.51"/><rect class="cls-8" x="715.14" y="471.79" width="104.66" height="0.49"/><rect class="cls-8" x="715.14" y="472.85" width="104.66" height="0.49"/><rect class="cls-8" x="715.14" y="473.9" width="104.66" height="0.49"/><rect class="cls-8" x="715.14" y="474.96" width="104.66" height="0.49"/><rect class="cls-8" x="715.14" y="476.02" width="104.66" height="0.49"/><rect class="cls-8" x="715.14" y="477.07" width="104.66" height="0.49"/><rect class="cls-8" x="715.14" y="478.13" width="104.66" height="0.49"/><rect class="cls-8" x="715.14" y="479.19" width="104.66" height="0.49"/><rect class="cls-8" x="715.14" y="480.24" width="104.66" height="0.49"/><rect class="cls-8" x="715.14" y="481.3" width="104.66" height="0.49"/><rect class="cls-8" x="715.14" y="482.35" width="104.66" height="0.49"/><rect class="cls-9" x="756.66" y="470.78" width="21.61" height="12.51"/><rect class="cls-10" x="758.28" y="470.78" width="1.87" height="12.51"/><rect class="cls-10" x="774.79" y="470.78" width="1.87" height="12.51"/><rect class="cls-11" x="715.14" y="481.12" width="104.66" height="2.18"/><rect class="cls-7" x="712.78" y="458.27" width="104.66" height="12.51"/><rect class="cls-8" x="712.78" y="459.28" width="104.66" height="0.49"/><rect class="cls-8" x="712.78" y="460.34" width="104.66" height="0.49"/><rect class="cls-8" x="712.78" y="461.39" width="104.66" height="0.49"/><rect class="cls-8" x="712.78" y="462.45" width="104.66" height="0.49"/><rect class="cls-8" x="712.78" y="463.51" width="104.66" height="0.49"/><rect class="cls-8" x="712.78" y="464.56" width="104.66" height="0.49"/><rect class="cls-8" x="712.78" y="465.62" width="104.66" height="0.49"/><rect class="cls-8" x="712.78" y="466.67" width="104.66" height="0.49"/><rect class="cls-8" x="712.78" y="467.73" width="104.66" height="0.49"/><rect class="cls-8" x="712.78" y="468.79" width="104.66" height="0.49"/><rect class="cls-8" x="712.78" y="469.84" width="104.66" height="0.49"/><rect class="cls-9" x="754.31" y="458.27" width="21.61" height="12.51"/><rect class="cls-10" x="755.92" y="458.27" width="1.87" height="12.51"/><rect class="cls-10" x="772.43" y="458.27" width="1.87" height="12.51"/><rect class="cls-11" x="712.78" y="468.61" width="104.66" height="2.18"/><rect class="cls-7" x="716.32" y="445.76" width="104.66" height="12.51"/><rect class="cls-8" x="716.32" y="446.77" width="104.66" height="0.49"/><rect class="cls-8" x="716.32" y="447.83" width="104.66" height="0.49"/><rect class="cls-8" x="716.32" y="448.88" width="104.66" height="0.49"/><rect class="cls-8" x="716.32" y="449.94" width="104.66" height="0.49"/><rect class="cls-8" x="716.32" y="451" width="104.66" height="0.49"/><rect class="cls-8" x="716.32" y="452.05" width="104.66" height="0.49"/><rect class="cls-8" x="716.32" y="453.11" width="104.66" height="0.49"/><rect class="cls-8" x="716.32" y="454.16" width="104.66" height="0.49"/><rect class="cls-8" x="716.32" y="455.22" width="104.66" height="0.49"/><rect class="cls-8" x="716.32" y="456.28" width="104.66" height="0.49"/><rect class="cls-8" x="716.32" y="457.33" width="104.66" height="0.49"/><rect class="cls-9" x="757.84" y="445.76" width="21.61" height="12.51"/><rect class="cls-10" x="759.46" y="445.76" width="1.87" height="12.51"/><rect class="cls-10" x="775.97" y="445.76" width="1.87" height="12.51"/><rect class="cls-11" x="716.32" y="456.1" width="104.66" height="2.18"/><rect class="cls-7" x="713.96" y="433.25" width="104.66" height="12.51"/><rect class="cls-8" x="713.96" y="434.26" width="104.66" height="0.49"/><rect class="cls-8" x="713.96" y="435.32" width="104.66" height="0.49"/><rect class="cls-8" x="713.96" y="436.37" width="104.66" height="0.49"/><rect class="cls-8" x="713.96" y="437.43" width="104.66" height="0.49"/><rect class="cls-8" x="713.96" y="438.49" width="104.66" height="0.49"/><rect class="cls-8" x="713.96" y="439.54" width="104.66" height="0.49"/><rect class="cls-8" x="713.96" y="440.6" width="104.66" height="0.49"/><rect class="cls-8" x="713.96" y="441.65" width="104.66" height="0.49"/><rect class="cls-8" x="713.96" y="442.71" width="104.66" height="0.49"/><rect class="cls-8" x="713.96" y="443.77" width="104.66" height="0.49"/><rect class="cls-8" x="713.96" y="444.82" width="104.66" height="0.49"/><rect class="cls-9" x="755.48" y="433.25" width="21.61" height="12.51"/><rect class="cls-10" x="757.1" y="433.25" width="1.87" height="12.51"/><rect class="cls-10" x="773.61" y="433.25" width="1.87" height="12.51"/><rect class="cls-11" x="713.96" y="443.59" width="104.66" height="2.18"/><rect class="cls-7" x="712.78" y="420.74" width="104.66" height="12.51"/><rect class="cls-8" x="712.78" y="421.75" width="104.66" height="0.49"/><rect class="cls-8" x="712.78" y="422.81" width="104.66" height="0.49"/><rect class="cls-8" x="712.78" y="423.86" width="104.66" height="0.49"/><rect class="cls-8" x="712.78" y="424.92" width="104.66" height="0.49"/><rect class="cls-8" x="712.78" y="425.97" width="104.66" height="0.49"/><rect class="cls-8" x="712.78" y="427.03" width="104.66" height="0.49"/><rect class="cls-8" x="712.78" y="428.09" width="104.66" height="0.49"/><rect class="cls-8" x="712.78" y="429.14" width="104.66" height="0.49"/><rect class="cls-8" x="712.78" y="430.2" width="104.66" height="0.49"/><rect class="cls-8" x="712.78" y="431.25" width="104.66" height="0.49"/><rect class="cls-8" x="712.78" y="432.31" width="104.66" height="0.49"/><rect class="cls-9" x="754.31" y="420.74" width="21.61" height="12.51"/><rect class="cls-10" x="755.92" y="420.74" width="1.87" height="12.51"/><rect class="cls-10" x="772.43" y="420.74" width="1.87" height="12.51"/><rect class="cls-11" x="712.78" y="431.07" width="104.66" height="2.18"/><polygon class="cls-12" points="796.33 445.77 717.32 545.85 799.59 545.85 799.59 445.77 796.33 445.77"/><rect class="cls-7" x="793.64" y="533.34" width="104.66" height="12.51"/><rect class="cls-8" x="793.64" y="534.35" width="104.66" height="0.49"/><rect class="cls-8" x="793.64" y="535.4" width="104.66" height="0.49"/><rect class="cls-8" x="793.64" y="536.46" width="104.66" height="0.49"/><rect class="cls-8" x="793.64" y="537.51" width="104.66" height="0.49"/><rect class="cls-8" x="793.64" y="538.57" width="104.66" height="0.49"/><rect class="cls-8" x="793.64" y="539.63" width="104.66" height="0.49"/><rect class="cls-8" x="793.64" y="540.68" width="104.66" height="0.49"/><rect class="cls-8" x="793.64" y="541.74" width="104.66" height="0.49"/><rect class="cls-8" x="793.64" y="542.79" width="104.66" height="0.49"/><rect class="cls-8" x="793.64" y="543.85" width="104.66" height="0.49"/><rect class="cls-8" x="793.64" y="544.91" width="104.66" height="0.49"/><rect class="cls-9" x="835.16" y="533.34" width="21.61" height="12.51"/><rect class="cls-10" x="836.78" y="533.34" width="1.87" height="12.51"/><rect class="cls-10" x="853.29" y="533.34" width="1.87" height="12.51"/><rect class="cls-11" x="793.64" y="543.67" width="104.66" height="2.18"/><rect class="cls-7" x="791.28" y="520.83" width="104.66" height="12.51"/><rect class="cls-8" x="791.28" y="521.83" width="104.66" height="0.49"/><rect class="cls-8" x="791.28" y="522.89" width="104.66" height="0.49"/><rect class="cls-8" x="791.28" y="523.95" width="104.66" height="0.49"/><rect class="cls-8" x="791.28" y="525" width="104.66" height="0.49"/><rect class="cls-8" x="791.28" y="526.06" width="104.66" height="0.49"/><rect class="cls-8" x="791.28" y="527.12" width="104.66" height="0.49"/><rect class="cls-8" x="791.28" y="528.17" width="104.66" height="0.49"/><rect class="cls-8" x="791.28" y="529.23" width="104.66" height="0.49"/><rect class="cls-8" x="791.28" y="530.28" width="104.66" height="0.49"/><rect class="cls-8" x="791.28" y="531.34" width="104.66" height="0.49"/><rect class="cls-8" x="791.28" y="532.4" width="104.66" height="0.49"/><rect class="cls-9" x="832.8" y="520.83" width="21.61" height="12.51"/><rect class="cls-10" x="834.42" y="520.83" width="1.87" height="12.51"/><rect class="cls-10" x="850.93" y="520.83" width="1.87" height="12.51"/><rect class="cls-11" x="791.28" y="531.16" width="104.66" height="2.18"/><rect class="cls-7" x="792.46" y="508.32" width="104.66" height="12.51"/><rect class="cls-8" x="792.46" y="509.32" width="104.66" height="0.49"/><rect class="cls-8" x="792.46" y="510.38" width="104.66" height="0.49"/><rect class="cls-8" x="792.46" y="511.44" width="104.66" height="0.49"/><rect class="cls-8" x="792.46" y="512.49" width="104.66" height="0.49"/><rect class="cls-8" x="792.46" y="513.55" width="104.66" height="0.49"/><rect class="cls-8" x="792.46" y="514.6" width="104.66" height="0.49"/><rect class="cls-8" x="792.46" y="515.66" width="104.66" height="0.49"/><rect class="cls-8" x="792.46" y="516.72" width="104.66" height="0.49"/><rect class="cls-8" x="792.46" y="517.77" width="104.66" height="0.49"/><rect class="cls-8" x="792.46" y="518.83" width="104.66" height="0.49"/><rect class="cls-8" x="792.46" y="519.88" width="104.66" height="0.49"/><rect class="cls-9" x="833.98" y="508.32" width="21.61" height="12.51"/><rect class="cls-10" x="835.6" y="508.32" width="1.87" height="12.51"/><rect class="cls-10" x="852.11" y="508.32" width="1.87" height="12.51"/><rect class="cls-11" x="792.46" y="518.65" width="104.66" height="2.18"/><rect class="cls-7" x="791.28" y="495.81" width="104.66" height="12.51"/><rect class="cls-8" x="791.28" y="496.81" width="104.66" height="0.49"/><rect class="cls-8" x="791.28" y="497.87" width="104.66" height="0.49"/><rect class="cls-8" x="791.28" y="498.93" width="104.66" height="0.49"/><rect class="cls-8" x="791.28" y="499.98" width="104.66" height="0.49"/><rect class="cls-8" x="791.28" y="501.04" width="104.66" height="0.49"/><rect class="cls-8" x="791.28" y="502.09" width="104.66" height="0.49"/><rect class="cls-8" x="791.28" y="503.15" width="104.66" height="0.49"/><rect class="cls-8" x="791.28" y="504.21" width="104.66" height="0.49"/><rect class="cls-8" x="791.28" y="505.26" width="104.66" height="0.49"/><rect class="cls-8" x="791.28" y="506.32" width="104.66" height="0.49"/><rect class="cls-8" x="791.28" y="507.37" width="104.66" height="0.49"/><rect class="cls-9" x="832.8" y="495.81" width="21.61" height="12.51"/><rect class="cls-10" x="834.42" y="495.81" width="1.87" height="12.51"/><rect class="cls-10" x="850.93" y="495.81" width="1.87" height="12.51"/><rect class="cls-11" x="791.28" y="506.14" width="104.66" height="2.18"/><rect class="cls-7" x="790.1" y="483.3" width="104.66" height="12.51"/><rect class="cls-8" x="790.1" y="484.3" width="104.66" height="0.49"/><rect class="cls-8" x="790.1" y="485.36" width="104.66" height="0.49"/><rect class="cls-8" x="790.1" y="486.42" width="104.66" height="0.49"/><rect class="cls-8" x="790.1" y="487.47" width="104.66" height="0.49"/><rect class="cls-8" x="790.1" y="488.53" width="104.66" height="0.49"/><rect class="cls-8" x="790.1" y="489.58" width="104.66" height="0.49"/><rect class="cls-8" x="790.1" y="490.64" width="104.66" height="0.49"/><rect class="cls-8" x="790.1" y="491.7" width="104.66" height="0.49"/><rect class="cls-8" x="790.1" y="492.75" width="104.66" height="0.49"/><rect class="cls-8" x="790.1" y="493.81" width="104.66" height="0.49"/><rect class="cls-8" x="790.1" y="494.86" width="104.66" height="0.49"/><rect class="cls-9" x="831.63" y="483.3" width="21.61" height="12.51"/><rect class="cls-10" x="833.24" y="483.3" width="1.87" height="12.51"/><rect class="cls-10" x="849.75" y="483.3" width="1.87" height="12.51"/><rect class="cls-11" x="790.1" y="493.63" width="104.66" height="2.18"/><rect class="cls-7" x="793.64" y="470.78" width="104.66" height="12.51"/><rect class="cls-8" x="793.64" y="471.79" width="104.66" height="0.49"/><rect class="cls-8" x="793.64" y="472.85" width="104.66" height="0.49"/><rect class="cls-8" x="793.64" y="473.9" width="104.66" height="0.49"/><rect class="cls-8" x="793.64" y="474.96" width="104.66" height="0.49"/><rect class="cls-8" x="793.64" y="476.02" width="104.66" height="0.49"/><rect class="cls-8" x="793.64" y="477.07" width="104.66" height="0.49"/><rect class="cls-8" x="793.64" y="478.13" width="104.66" height="0.49"/><rect class="cls-8" x="793.64" y="479.19" width="104.66" height="0.49"/><rect class="cls-8" x="793.64" y="480.24" width="104.66" height="0.49"/><rect class="cls-8" x="793.64" y="481.3" width="104.66" height="0.49"/><rect class="cls-8" x="793.64" y="482.35" width="104.66" height="0.49"/><rect class="cls-9" x="835.16" y="470.78" width="21.61" height="12.51"/><rect class="cls-10" x="836.78" y="470.78" width="1.87" height="12.51"/><rect class="cls-10" x="853.29" y="470.78" width="1.87" height="12.51"/><rect class="cls-11" x="793.64" y="481.12" width="104.66" height="2.18"/><rect class="cls-7" x="791.28" y="458.27" width="104.66" height="12.51"/><rect class="cls-8" x="791.28" y="459.28" width="104.66" height="0.49"/><rect class="cls-8" x="791.28" y="460.34" width="104.66" height="0.49"/><rect class="cls-8" x="791.28" y="461.39" width="104.66" height="0.49"/><rect class="cls-8" x="791.28" y="462.45" width="104.66" height="0.49"/><rect class="cls-8" x="791.28" y="463.51" width="104.66" height="0.49"/><rect class="cls-8" x="791.28" y="464.56" width="104.66" height="0.49"/><rect class="cls-8" x="791.28" y="465.62" width="104.66" height="0.49"/><rect class="cls-8" x="791.28" y="466.67" width="104.66" height="0.49"/><rect class="cls-8" x="791.28" y="467.73" width="104.66" height="0.49"/><rect class="cls-8" x="791.28" y="468.79" width="104.66" height="0.49"/><rect class="cls-8" x="791.28" y="469.84" width="104.66" height="0.49"/><rect class="cls-9" x="832.8" y="458.27" width="21.61" height="12.51"/><rect class="cls-10" x="834.42" y="458.27" width="1.87" height="12.51"/><rect class="cls-10" x="850.93" y="458.27" width="1.87" height="12.51"/><rect class="cls-11" x="791.28" y="468.61" width="104.66" height="2.18"/><rect class="cls-7" x="793.64" y="445.76" width="104.66" height="12.51"/><rect class="cls-8" x="793.64" y="446.77" width="104.66" height="0.49"/><rect class="cls-8" x="793.64" y="447.83" width="104.66" height="0.49"/><rect class="cls-8" x="793.64" y="448.88" width="104.66" height="0.49"/><rect class="cls-8" x="793.64" y="449.94" width="104.66" height="0.49"/><rect class="cls-8" x="793.64" y="451" width="104.66" height="0.49"/><rect class="cls-8" x="793.64" y="452.05" width="104.66" height="0.49"/><rect class="cls-8" x="793.64" y="453.11" width="104.66" height="0.49"/><rect class="cls-8" x="793.64" y="454.16" width="104.66" height="0.49"/><rect class="cls-8" x="793.64" y="455.22" width="104.66" height="0.49"/><rect class="cls-8" x="793.64" y="456.28" width="104.66" height="0.49"/><rect class="cls-8" x="793.64" y="457.33" width="104.66" height="0.49"/><rect class="cls-9" x="835.16" y="445.76" width="21.61" height="12.51"/><rect class="cls-10" x="836.78" y="445.76" width="1.87" height="12.51"/><rect class="cls-10" x="853.29" y="445.76" width="1.87" height="12.51"/><rect class="cls-11" x="793.64" y="456.1" width="104.66" height="2.18"/><rect class="cls-17" x="86.81" y="443.68" width="89.04" height="17.73"/><path class="cls-18" d="M180.24,269.71c-3.87-2-8-3.06-13.15-4.56-2.45-.75-2.46,5.21-4.28,6.88-.24-.71-1-4.08-3.92-3.79-2.47-6.63-2.65-18-12-18.83-1.94-3.26-3.63-5.68-4.49-9.95.52-.74-.15-2.19.36-2.92-1.87-4.83-.49-8.43.18-13.51,5-.58,8.84-.44,13.6-.67-4.75-.7-10.63-2.23-14.32-2.76.1-.71.36-.68.09-1,3.13-2.24,9.39-5,13-6.83,0,0-13.09,4.25-13.41,4.31-1.48-.23-1-1.47-2.18-2-.21-.24,8.16-14.6,8.34-14.88,0,0-11,12.75-11.43,13.23a16.81,16.81,0,0,0-4.54-1.1c-.75-4-1.76-17.6-1.76-17.6s-.86,14-1.08,17.61a24.09,24.09,0,0,0-5.59,1.47c-3.93-2.11-10.8-12.58-10.8-12.58l9.36,15c-.11.12.65.67-1.1.76-.1-.15-10.69-1.78-11.08-1.83,0-9.29-5.15-18.28-4.49-28.64a18.23,18.23,0,0,0,0-5.47c-.74-3.67-3.13-5.56-3.26-6.7-.2-1.92,1.82-2.84,1-4.26,2.81-.11-1.28-3.59-.26-5.37-1.75-2.53,5.09-1.12,5.14-3.76-1.6-1.05-5.81,1-5.86-2.43,2.5-2.58.46-5.19,1.4-8.26-1.68-.31-.93-.74-.93-.74-1.12-.58,1.18-6.71-.19-6.92-1.55-.24-1.52,6-4.38,5a3.42,3.42,0,0,1-1.89-1.69,10.72,10.72,0,0,0-.26,2.37c0,.94.26,2.32-.07,3.12-.57,1.38-1.75,1.27-2.22,2.31a2.54,2.54,0,0,0,.2,2.61,4.28,4.28,0,0,1,.33,2s-5.19.69-5.77,2.28c-.38,1.15-.14,2.2,1,2.56l0,.9c-.09.23-.18.22-.29.35s-1.71,1.2-1.71,2.56c.11,1.9,1.91,2.34,3.57,3.39a5.87,5.87,0,0,1,2.48,3.83,1.59,1.59,0,0,0-1,1.64c.12,1,.54,1.51.62,2.34.27,3.23-.63,7.08,2.94,8.31a8.42,8.42,0,0,1-.63,1.66c-.29.58-.93.3-1.08,1.45a2.38,2.38,0,0,0,.79,2.09c.47.47.59,1.75.85,2.43.19.48,1,.91,1.1,1.43.93,3.77.2,7.66.27,11.61.12,5.93,2.57,12.45,3.58,18-4.6,6.59-8.71,15.38-4,22.49,1,1.64,2.48,0,2.55.64-.12,1.81-1.83,2-1.57,4.15.52,1.79,2.83,1.92,4,3.65a21.6,21.6,0,0,1,0,5c-.21,1.87-1.22,3-1.44,5.21,0,2.93,2.13,2.86,3.44,4.65a10.31,10.31,0,0,1,2.4,4.58c.63,2.54-1.13,3.7-2.71,7.73-2,5.05-5.84,13.58-2.48,17.87,1.82,2.52,5.63,1.64,5.43,1.55.44,2.84-1.29,2.6-3.13,12.62-1.15,6.19,1.71,23.35,2.74,28.05-1.22,3.39-2.55,5.38-.45,9.73-1,3.34.31,4.14-.81,7.25-1.44,3.44-1.83,8.4-.59,15.19a14.25,14.25,0,0,0,1.53,3.57c.28.59.08.81-.84,2.05a4.77,4.77,0,0,0-.6,5.83c.55,1.09,1.24,1.11,1.15,2-.15,1.48.65,1.52.65,1.52s-.3.41-.39.82c-.22,1-1.44,3.39-3,8.36l57.12,1.52c-.08-10.09.3-17.19,0-24.69.58-1.39,2.25-1.76,2.93-3.05.27-6.16-2-10.62-.52-16.43,0-1.12.85-1.09,1.26-1.82-.58-.94.51-3.82-.15-5.48.54-.81,1.94-1,2-2.21-1.16-3.44.26-7-1.32-9.35a48,48,0,0,0-.85-6.79c-.81-4.7,0-14.16-1.1-15.83-.1-3,1.75-4,4.47-4.83,3.3-4,4.44-11.39,4.1-17.3,6.81-1.46,5.67-7.17,8.33-11.71-.27-1.52-2.17-1.57-1.59-2.42C179.15,275.77,179.06,272,180.24,269.71Zm-61.36-49.94-9.44.43c-1.6-.82,1.19-3.73.56-5.14,0-.13,0-.26,0-.4,2.81.62,9.31,3.46,9.31,3.74A4.82,4.82,0,0,1,118.88,219.77Zm-2,12.94c-3.51-2.08-.49-6.48-2.85-8a6.84,6.84,0,0,0-.2-3.25c1.26-.64,2.85-.34,4.58,1.34C119.71,226.38,120.32,231.06,116.84,232.71Z"/><path class="cls-19" d="M102.58,157.17c2.49-2.58.15-4.85,1.09-7.92-1.68-.31-.36-.86-.36-.86-.82-.42.7-2-.09-6-.54-2.23-.89-3.3-.89-3.3s-1.57,8-4.43,7a2.76,2.76,0,0,1-1.65-1.89,17,17,0,0,0-.47,3c0,.94.27,2.15-.06,2.95-.56,1.37-1.87,1.54-2.34,2.58a3.21,3.21,0,0,0,0,2.92,3.81,3.81,0,0,1,.42,1.87s2.13-.17,4.4-.27S102.58,157.17,102.58,157.17Z"/><rect class="cls-17" x="96.95" y="420.56" width="68.78" height="6.94"/><path class="cls-20" d="M148,286s-1.92,9.58-4.33,15-1.8,8.41-2.4,4.8-1.89-10.7,0-12S148,286,148,286Z"/><path class="cls-21" d="M130.27,216.91c.54-.09.31-3.17-.6-1.15C129.52,216.11,129.92,217,130.27,216.91Z"/><path class="cls-21" d="M109.29,255.26c-.65,1.7-4.57,3.24-3,5.16,3.27-5.09,7.84-12,9-17.18-1.91,5.43-8.29,9.63-9,14.31C106.73,256.59,108.11,253.63,109.29,255.26Z"/><path class="cls-21" d="M109.29,255.26c-.65,1.7-4.57,3.24-3,5.16,3.27-5.09,7.84-12,9-17.18-1.91,5.43-8.29,9.63-9,14.31C106.73,256.59,108.11,253.63,109.29,255.26Z"/><path class="cls-21" d="M129.67,215.76c-.15.35.25,1.21.6,1.15C130.81,216.82,130.58,213.74,129.67,215.76Z"/><path class="cls-22" d="M89.5,161c.57,1,3.54-.8,6.19-.86,1.59,0,2.87.86,4,2.58-3.34-.41-9.15,0-10.79,2.86-.55,1.75,2.47,1.79,4,3.79a6.09,6.09,0,0,1,1.74,3.42c0,.42,2.21-.93,2.22.74,0,.62-.53.8-1.2,1s-1.87.32-2,1.38a13.53,13.53,0,0,1,2.87-.45c.62,0,.86.42.73,1-.29.79-1.64.62-2.51.89a.93.93,0,0,0-.72.69c.11.47.42.44.73.5,1,.24,2.61-.49,2.72.28.23,1.15-.68,1.36-1.81,1.41a2.46,2.46,0,0,0-1.43.22c-.1.76.58.59.83.58.85-.12,1.38-.27,1.47.27.14,1.26-2.18.91-2.13,1.21.22,1.47.83,1.94,2.25,2.54-.17-1.5.22-2.46,1.8-2.29-.3,2.38,2.59,2.51,2,5.13-3.71.66-4.43,1.7-4.51,1.86s1.89,0,2,.28a5.1,5.1,0,0,0,.53,1c.17.25-1.71.93-1.54,1.16s2.15.08,2.08.41a2,2,0,0,0-.08.79c.25.6,1.17.56,1.38,1.21,1.63,5.12,2.12,12,3.88,16.77-1.64.06-1.8-.71-1.88.5.44,5.28,4.6,8.41,5.63,13.62-5-.75-10.09,3.59-7.74,4.64,2,.75,2.23-3.13,3-1.71-.46,1.61-2.94,2.66-4.41,4.19-1.27,1.32-1.65,3.24-1,3.25,1.45,0,1.45-2.21,2.4-1.72s-1.38,2.47,0,2.87c1.51.15,1.22-5.94,2.39-5.73,1.42.24.6,6.17,4.8-.57,1.56-2.51,2.76-6.85,5.4-8.59.08.56-2.52,5.29-1.8,6.3a12.46,12.46,0,0,0,1.8-3.29c.29-1,0-2.59.9-3l5.89,1.56c1.63,3.17,1.7,8.09-2,9.32-.79.31-1.45-1.1-1.69-2.13-.12-.54-.19-2.2-1-2.09-.59.09-.07,1.9-.93,2.5-.57.39-1-.95-1.8,0-1.91,2.21-2.44,7-5.4,6.87.84-2.08,4-4.89,3-6.87-2.3,4.86-10.14,10.59-10.19,11.45s2.37.66,2.33,1.55-4.18,1-3,1.78,3.5-.63,3.59.62c-.54,1.21-2.23,1.86-2.21,3.61,1.1,2,7.15-2.44,4,3.8-.87,2.25-.32,4.74-.39,6.81-.05,1.49-2.25,4.16-2,5.3.68,1.36,2.93-.52,3.55.31,1.45,2,1,6.29,2.45,8.28,1.06-6.24,1.39-13.18,4.8-17.18.5,4-4.24,8.17-1.8,10.31,4-10.37,4.84-21.67,6.59-33.2,0-.85,3,.22,3.6,1.71a5,5,0,0,1,.17,1.33c.43,5.56-2.59,9.94-1.37,14.13,1.14-3.87,2.47-7.57,2.4-12.59,1.56,2.33,2.93,1.46,4.79,0-5,11.79,5,10.93,13.19,8.58,0,.73-.76.79-.6,1.72,2.63-2,4.64-.41,7.8,0-1.29-3.39-3.69-6.15-4.2-10.3-.13-1.11.64-2.79.6-4-.15-4.44-1.95-8.3-.6-12l13.23-.86-13.33-1.8a4.44,4.44,0,0,0-.18-2c3.59-1.38,12.11-6.83,12.11-6.83-3.7,1.05-9,4.22-13,4.94-.87-1.41-1.65-2.36-2.37-2.62,1.82-2.65,8.13-14.85,8.13-14.85l-10.32,13.63a9.48,9.48,0,0,0-5-1c.15,0-2.37-18.15-2.37-18.15.22,4-.3,18-.51,18.13a10.4,10.4,0,0,0-4.65.92l-12.31-12.52c-.16-.13,7.07,10.2,9.9,14-.16.46-.72.86-2.34,2.41l-10-2c.35-8.85-4.07-16-4.71-23.82-.37-4.63.64-8.76,0-12.59-.67-2.86-2.67-3.53-2.59-5.44.06-1.59.52-3.69,2-4.25s3.11-.47,3.63-1.76c.45-1.58-.64-2.36-.63-3.58,0-1,1.38-2.07.63-3.29-1-1.17-2.61-1.35-5.07-1.53C91.91,158,89.16,159.36,89.5,161Zm30.1,59.35-7.76.44c-1.29-.71-1.38-4.55-1.35-5.72,2.82.74,9.19,4.2,9.19,4.2C119.67,219.7,119.6,220.33,119.6,220.33Zm-13.31,40.09c-1.57-1.92,2.35-3.46,3-5.16-1.18-1.63-2.56,1.33-3,2.29.7-4.68,7.08-8.88,9-14.31C114.13,248.44,109.56,255.33,106.29,260.42Z"/><path class="cls-22" d="M112.29,229.5c.3-1.81,1.76-2.51,1.8-4.58C116.74,225.57,114.05,231.31,112.29,229.5Z"/><path class="cls-22" d="M115.28,238.66c1.41.15.35,2.52,0,2.86C113.53,241,115.64,239.68,115.28,238.66Z"/><path class="cls-22" d="M138.66,242.67c1.92.08,2.64,1.3,2.4,3.43C138.52,246.63,138.5,244.73,138.66,242.67Z"/><path class="cls-22" d="M143.46,251.26c-.5,1.43-1.64,2.24-1.8,4C140.23,254.23,141.53,251,143.46,251.26Z"/><path class="cls-22" d="M138.07,265c2.4,5.23-2,13.14-3.6,18.32C134.54,278.42,137.57,271.39,138.07,265Z"/><path class="cls-22" d="M149.46,274.73c1.3-.11,1.9.47,1.8,1.71C150.7,275.83,149,276.27,149.46,274.73Z"/><path class="cls-22" d="M155.45,275.3c.83-1.66,2.12,1,1.8,2.29C155.6,277.84,156.69,275.46,155.45,275.3Z"/><path class="cls-22" d="M144.66,278.16c1-2,1.21,1.44,2.4,1.15C146.17,281.19,145.37,278.33,144.66,278.16Z"/><path class="cls-22" d="M158.45,296.48c.7-.09,1.07.13,1.2.57.55,10.35,2.2,22.49,3,32.61-5.56-1.75-2.42-14.65-5.4-18.87-.45-2,2.44-.72,1.8-2.86C159.44,303.38,156.68,300.67,158.45,296.48Z"/><path class="cls-22" d="M160.85,332c3,1.95,2.93,9.79,2.4,13.17C160.94,344,160.56,334.93,160.85,332Z"/><path class="cls-22" d="M123.68,384c3.06,2.2-.72,9.09-1.8,11.45C120.58,392.14,124.26,388.62,123.68,384Z"/><path class="cls-22" d="M158.7,398h-.6c-.89-3.92-.68-8.89-1.2-13.17C159.27,387.24,159,394.93,158.7,398Z"/><path class="cls-22" d="M115.28,386.91c1.34.24.47,3,0,3.43C113.65,389.82,116.12,388.55,115.28,386.91Z"/><path class="cls-22" d="M112.29,390.34c2.11-.32.72,4.52-1.2,4C111.55,393.08,112.35,392.12,112.29,390.34Z"/><path class="cls-22" d="M125.48,397.78c.63-2.65,4.41-5.3,3-8-.14.62-1,1.37-1.2.57-.37-2.93,3.07-2.25,2.69-15-2.2.57-2.68,2.78-4.2,4-.64,1.86-1,4-3,4.58-.68,4.32-2.36,7.09-5.09,7.55,3.39-3.45,3.9-9.64,5.4-14.88-1.61.39-.94-.4-1.58-.94-1.69-.77-2.62,2.44-2.62.36,1-4.4,14.23-4.35,13.79-13.74,2.08.42,5.62,2.29,5.4.58-.08-1-4.76-8.81-2.4-14.32,1.32,2.28.24,3.66.62,6.64,9.61,2,11.25-8.66,22.76-12.36-1.91-6.86-2.06-19.46-3-26.88-.34-2.7-1.79-5.12-1.2-7.45s1.24,1.21,1.2-1.14c-.05-3-1.6-6.22-1.8-8.59.15-2.43,3-1.21,2.4-3.43a14.19,14.19,0,0,0-3-6.3c-.3,1.43-.22,5.37-1.8,3.44-1.56-3.09-.2-9-3-10.88.87,7.32-3.71,10.19-7.46,13.1-1.36,1-.89,3-2.74,3.5,0-9.57,11.46-8.15,9.6-19.46-.43-2.07-3.49-1.64-3.6-4-.86-.47-1.76-2.57,6-1.15-1.58-2.79,0-5.07-1.2-8-.19,1.92-.62,3.61-1.8,4.58.39-3.64.3-7.73,1.8-10.31,2.66,12,4.19,25,9.59,34.35-.24-5.12-2.7-11.15-1.8-15.45,1.54,1.37,2.38,5.26,4.2,1.71-.68,3.94-.72,15.36.6,21.76,0,0,6.37-9.66,8.16-15.46.1-.32-.78-1.34.19-1.7.7-.24,1.19.75,1.92,1.1a.69.69,0,0,0,.81-.11.6.6,0,0,0,0-.87c-1.05-1.55-2.46-2.21-1.68-3s3,1.46,3.74,1.77c.3.13.8-.11.4-.59s-4.36-2.64-3.05-3.65c.93-.53,2.55,1.39,3.72,1.84.28.1.39.2.55.05s.19-.4-.08-.78c-1-1.86-4.89-3.13-3.26-4.25.89-.5,2.25.92,2.54.83,1.45-1.78,1.84-8.2,4.21-7.69,1.12.3-1,6.56-2.49,8.55.35,1.07,4,1.81,2.47,3.91-3.07,3.88-1.94,9.84-8.65,10.95.28,6.08-.08,11.16-2.93,16.53a30.08,30.08,0,0,1-5.89,7.07c-.14,11.21,4.17,21.31,2.89,29.54-.37,2.29-1.52,1.18-1.7,2.92.12,1.79,1.63,3.24-.1,5.67-4.34,5.73,1,10.73-.82,17.89-1.5,3.29-4.76,2.91-5.17,5.58-.76-4.51-1.45-8-3.53-7.7-.44.06-2.21.5-2.24,4.2,0,3.08,1.11,6.38,1.42,4.79.3-4.15.87,3,.15,8.44-.09,1.06-2,.36-2.39,1.15a7.37,7.37,0,0,1,0,5.72c-1.91.39-4.67,2-6,1.15,4.44-8.55,4.11-17.49,4.2-30.2-3.2,1.91-3.71,3.47-4.2,8.44-.62,6.34.6,17.61-1.8,18.9-2.77,1.14-8.37-.56-11.39,4.57Z"/><path class="cls-21" d="M131.47,307.36c-.41,6.29-3.73,15.68-5.4,18.87C130.24,323.52,132.85,313.45,131.47,307.36Z"/><path class="cls-21" d="M134.47,283.32c1.58-5.18,6-13.09,3.6-18.32C137.57,271.39,134.54,278.42,134.47,283.32Z"/><path class="cls-21" d="M139.27,249.54c-3.68.68-1.51,2.76,0,0Z"/><path class="cls-21" d="M115.28,238.66c.36,1-1.75,2.38,0,2.86C115.63,241.18,116.69,238.81,115.28,238.66Z"/><path class="cls-21" d="M109.29,255.26c-.65,1.7-4.57,3.24-3,5.16,3.27-5.09,7.84-12,9-17.18-1.91,5.43-8.29,9.63-9,14.31C106.73,256.59,108.11,253.63,109.29,255.26Z"/><path class="cls-21" d="M138.66,242.67c-.16,2.06-.14,4,2.4,3.43C141.3,244,140.58,242.75,138.66,242.67Z"/><path class="cls-21" d="M112.29,385.76c1.87-.17-1.53,1.66.6,1.72,1.1-4.65,5.8-5.45,5.39-9.73C117.23,381.33,112.81,381.69,112.29,385.76Z"/><path class="cls-21" d="M112.29,390.34c.06,1.78-.74,2.74-1.2,4C113,394.86,114.4,390,112.29,390.34Z"/><path class="cls-21" d="M110.49,385.76c-.17,3.2-4.12,1-4.2,2.87.08.85,2.12.64,3.6.57C109.2,387.47,113.29,385.89,110.49,385.76Z"/><path class="cls-21" d="M115.28,386.91c.84,1.64-1.63,2.91,0,3.43C115.75,389.94,116.62,387.15,115.28,386.91Z"/><path class="cls-21" d="M114.05,224.77c0,2.07-1.46,2.92-1.76,4.73C114.05,231.31,116.7,225.42,114.05,224.77Z"/><path class="cls-21" d="M123.68,384c.58,4.58-3.1,8.1-1.8,11.45C123,393.13,126.74,386.24,123.68,384Z"/><path class="cls-21" d="M143.46,270.14h0Z"/><path class="cls-21" d="M141.66,255.26c.16-1.76,1.3-2.57,1.8-4C141.53,251,140.23,254.23,141.66,255.26Z"/><path class="cls-21" d="M143.46,270.14c1.22-3.22,1.08-7.74,3-10.3C142.9,257.93,143.47,269.68,143.46,270.14Z"/><path class="cls-21" d="M144.66,278.16c.71.17,1.51,3,2.4,1.15C145.87,279.6,145.69,276.15,144.66,278.16Z"/><path class="cls-21" d="M158.1,379.25c-.53,2.18.32,2.86.6,1.71C158.79,380.57,158.49,377.63,158.1,379.25Z"/><path class="cls-21" d="M162.81,272c-.24-.71-1-4.08-3.92-3.79,0,0,.24,0,.24,3.62s-1.21,8.71.6,7.81,2.1-2.1,2.4-4.2A28.32,28.32,0,0,1,162.81,272Z"/><path class="cls-21" d="M155.45,275.3c1.24.16.15,2.54,1.8,2.29C157.57,276.26,156.28,273.64,155.45,275.3Z"/><path class="cls-21" d="M138.66,242.67c-.16,2.06-.14,4,2.4,3.43C141.3,244,140.58,242.75,138.66,242.67Z"/><path class="cls-21" d="M109.29,255.26c-.65,1.7-4.57,3.24-3,5.16,3.27-5.09,7.84-12,9-17.18-1.91,5.43-8.29,9.63-9,14.31C106.73,256.59,108.11,253.63,109.29,255.26Z"/><path class="cls-21" d="M115.28,238.66c.36,1-1.75,2.38,0,2.86C115.63,241.18,116.69,238.81,115.28,238.66Z"/><path class="cls-22" d="M139.27,249.54c-1.51,2.76-3.68.68,0,0Z"/><path class="cls-22" d="M150.06,254.69c-.43-.71.87.07,1.2,0,1.67-.35-1.08-1.51-3.71-2.13-1.86-.44-2.85-1.59-2.29-1.88,1.28-.66,3.32,1.12,5.15-.27,5.33,2.93,6.29,9.15,8.11,16.73-2.77-2.45-.14,4.5-.67,7-2.12-5.24-4.89-11.55-4.8-17.27C153.07,255.81,150.49,255.4,150.06,254.69Z"/><path class="cls-22" d="M146.46,259.84c-1.92,2.56-1.78,7.08-3,10.31C143.51,270.57,142.77,257.85,146.46,259.84Z"/><path class="cls-22" d="M131.47,307.36c1.38,6.09-1.23,16.16-5.4,18.87C127.74,323,131.06,313.65,131.47,307.36Z"/><path class="cls-22" d="M134,318.71c1.35-1.94,2.52-6.23,3.45-6.2.68,0,.26,3.43.26,5.23,0,7.81-1.35,19.42-1.46,27.38-.7-.1-.51-1.05-.6-1.72-.59-7.83.29-14.79-.58-21.06-7.65,4.29-7.24,20.64-11.72,27-.79-.68-1.28-1.07-2.34,1.08-4.21,9.76-6.09,20.7-8.14,26.72-1.1,3.21-4,9.75-6.6,8-2.17-1.79.83-5.72,2.4-6.87,1.8-1.07-1.07,3.63,0,2.86,2-1.69,3.33-4.7,4.2-7.44,1.69-5.36.24-5.92,2.75-10.73-4.64,3.39-1.73,10.23-8.52,14.81-1-4.57-3-9.4,1-11.52-1.49.06-1.86,1.07-3,0,3.87-5,.46-11.08,4.2-14.89-.27-1.65-2.21,2.16-2.62.36-1.45-2.74-.33-6.83.82-8.94.76,2.09,1.65,4.93-.6,7.44,3.25-1.88,7.14-4.13,9.59-6.87,1.11-1.24,1.32-3.18,2.4-4.58C123.17,333.26,129.51,325.2,134,318.71Z"/><path class="cls-22" d="M112.29,385.76c.52-4.07,4.94-4.43,6-8,.41,4.28-4.29,5.08-5.39,9.73C110.76,387.42,114.16,385.59,112.29,385.76Z"/><path class="cls-22" d="M139.78,253.26c.71.09.51,1,.6,1.72-5.91,8.65-10.15,16.55-21.22,26.8-6.19,4.38-7.81,13.82-11.75,15.56-2.67,1.43-4.54-.15-4.8-2.29-.58-7.23,4.77-8.81,6-14.31,1,1,.8,3,1.2,4.58C118,272.87,132.88,266.89,139.78,253.26Z"/><path class="cls-23" d="M111.55,342.77c5.66-3.2,5.81-6,7-12.92s-1.91-3.08-.11-10.52,4.2-14.31,4.8-19.46.3-15.77.3-15.77-2.36,11.86-6.3,27.22c-2.31,9-4.19,12.57-5.39,18.29S109.91,343.7,111.55,342.77Z"/><path class="cls-22" d="M124.18,283.25c-9.23,25-11.48,60.63-13.16,59.52-1.42-.94-2.26-37.33,3.57-47.49-2.51,8.48-1.6,18.18-2.91,27.81C117.11,310.34,116.11,293.48,124.18,283.25Z"/><path class="cls-22" d="M135,250.68c-.1,12.48-10.25,11.85-15.59,20C122,263.8,129.46,256.61,135,250.68Z"/><path class="cls-18" d="M131.38,219c-2.78,1.54-5.74,3.6-8.9,4.78-.49-7.2,14.27-8.61,16.79-2.86C136.29,221.37,133.88,219.86,131.38,219Z"/><path class="cls-24" d="M130.54,233.11c.11.11-.24.16-.24.54.22.28.23.24.62.46a.9.9,0,0,1,.46.83c0,.33-.27,1-.51.86-4.42.15-4.19-2-4.34-4.33,0-.63-.4-1-.46-2a2.42,2.42,0,0,1,2.18-2.79c1.11-.27,2.13.27,2-1.21-.09-.68-1.09-.49-1.8-.58,0-2.1,2.1-2.19,3-3.43,1,.73,2.36,1.18,2.4,2.86-2.51-.27-1.77,2.57-1.74,4.72,0,.36.24.72-.19.88-.16.08-.66.06-.93.14-.5.14-.82.44-1.34.56,1.44,1.85-.19,1.52-.72,2.53C129.75,232.77,130.25,232.82,130.54,233.11Z"/><rect class="cls-18" x="100.06" y="397.82" width="61.37" height="8.48"/><rect class="cls-25" x="95.11" y="397.82" width="5.77" height="8.48"/><rect class="cls-21" x="161.01" y="397.82" width="5.77" height="8.48"/><rect class="cls-17" x="98.34" y="410.53" width="65.6" height="6.94"/><rect class="cls-26" x="91.41" y="420.56" width="6.46" height="6.94"/><rect class="cls-17" x="84.33" y="426.32" width="94.67" height="6.96"/><rect class="cls-26" x="93.05" y="410.56" width="6.16" height="6.92"/><rect class="cls-27" x="86.45" y="443.68" width="6.05" height="17.73"/><rect class="cls-26" x="98.41" y="425.18" width="4.53" height="8.09"/><rect class="cls-26" x="117.39" y="425.22" width="4.53" height="8.09"/><rect class="cls-26" x="136.33" y="425.2" width="4.53" height="8.09"/><polygon class="cls-28" points="169.67 417.38 93.05 417.38 91.41 420.58 171.71 420.58 169.67 417.38"/><polygon class="cls-29" points="169.66 410.6 93.05 410.6 93.93 406.26 166.79 406.26 169.66 410.6"/><rect class="cls-27" x="121.94" y="425.22" width="1.78" height="8.09"/><rect class="cls-27" x="140.87" y="425.2" width="1.78" height="8.09"/><polygon class="cls-28" points="181.12 433.27 81.11 433.27 81.11 437.9 181.24 437.9 181.12 433.27"/><rect class="cls-26" x="155.25" y="425.18" width="4.53" height="8.09"/><rect class="cls-26" x="174.56" y="425.18" width="4.53" height="8.09"/><rect class="cls-26" x="81.11" y="425.18" width="4.53" height="8.09"/><rect class="cls-27" x="85.64" y="425.18" width="1.78" height="8.09"/><rect class="cls-27" x="102.81" y="425.18" width="1.78" height="8.09"/><rect class="cls-27" x="159.82" y="425.18" width="1.78" height="8.09"/><rect class="cls-27" x="179.01" y="425.18" width="1.78" height="8.09"/><rect class="cls-27" x="163.5" y="410.6" width="6.16" height="6.79"/><polygon class="cls-28" points="123.73 425.22 136.32 425.22 136.32 418.17 129.86 413.24 123.73 418.53 123.73 425.22"/><rect class="cls-27" x="126.72" y="420.03" width="6.61" height="5.2"/><polygon class="cls-29" points="81.13 437.9 86.47 443.68 176.25 443.68 181.24 437.9 81.13 437.9"/><polygon class="cls-29" points="115.91 449.85 115.91 447.54 107.67 447.54 107.67 449.85 106.23 449.85 106.23 459.49 117.36 459.49 117.36 449.85 115.91 449.85"/><polygon class="cls-29" points="134.06 449.85 134.06 447.54 125.82 447.54 125.82 449.85 124.36 449.85 124.36 459.49 135.48 459.49 135.48 449.85 134.06 449.85"/><polygon class="cls-29" points="152.18 449.85 152.18 447.54 143.94 447.54 143.94 449.85 142.48 449.85 142.48 459.49 153.6 459.49 153.6 449.85 152.18 449.85"/><rect class="cls-26" x="97.17" y="443.69" width="65.08" height="3.9"/><path class="cls-23" d="M139,299.2c-.6,1.21-.3,2.71-.3,7.82s-2.4,34.55-.9,31.85,2.1-6.91,3.31-14.43-.3-11.71-.6-15.32S139,299.2,139,299.2Z"/><path class="cls-23" d="M148.86,289.61c1.48-2,1.2-.57,2.4,9.74s4.19,39.47,3.59,41.19-7.19,8.59-7.79,5.15S145.86,293.62,148.86,289.61Z"/><path class="cls-23" d="M142,289.06a101.59,101.59,0,0,1-.29-17.17c.6-10.3,2.68-13.74,3.28-15.46s2.4-3.49,0-3.43-4.19,6.87-4.79,11.45-4.2,25.76-1.8,25.76A5.38,5.38,0,0,0,142,289.06Z"/><path class="cls-23" d="M129.67,359.43c0,4.58,0,5.15-2.4,7.44s-1.79,1.15-4.79,3.44a14.13,14.13,0,0,0-4.2,5.15s4.2-14.88,6-20.61,7.12-26.4,8.39-28.62c2.47-4.31,2,.28,2,.28Z"/><path class="cls-23" d="M130.27,252.4s-15.43,12.3-18,16.29-9.32,15.1-9,16.92c.56,3.12,6-9.74,13.79-18.32S130.27,255.26,130.27,252.4Z"/><path class="cls-23" d="M123.08,326.23c-3,2.83,1.8-16,2.4-25.17s-1.2-12.59,0-18.32,1.79-6.3,4.19-10.3,7.8-10.88,7.8-10.88-5.4,12.6-5.4,23.47.6,13.17-.6,18.32S125.48,323.94,123.08,326.23Z"/><polygon class="cls-18" points="132.49 216.03 131.48 215.99 131.48 214.18 132.49 214.22 132.49 216.03"/><polygon class="cls-18" points="130.3 216 129.28 216.07 129.28 214.27 130.3 214.19 130.3 216"/><polygon class="cls-18" points="134.69 216.19 133.67 216.07 133.67 214.27 134.69 214.38 134.69 216.19"/><polygon class="cls-18" points="136.89 216.79 135.88 216.57 135.88 214.77 136.89 214.99 136.89 216.79"/><polygon class="cls-18" points="138.99 217.9 137.98 217.38 137.98 215.57 138.99 216.09 138.99 217.9"/><polygon class="cls-18" points="128.11 216.28 127.11 216.53 127.1 214.7 128.13 214.44 128.11 216.28"/><polygon class="cls-18" points="126.05 216.89 125 217.4 125.01 215.57 126.05 215.1 126.05 216.89"/><polygon class="cls-18" points="124.16 217.84 123.14 218.46 123.14 216.65 124.16 216.03 124.16 217.84"/><polygon class="cls-21" points="97.88 161.82 96.86 161.81 96.86 160.01 97.88 159.87 97.88 161.82"/><polygon class="cls-21" points="95.74 161.9 94.72 162 94.68 160.1 95.69 159.96 95.74 161.9"/><polygon class="cls-21" points="93.6 162.17 92.59 162.42 92.59 160.69 93.6 160.37 93.6 162.17"/><polygon class="cls-21" points="91.78 162.63 90.73 163.09 90.73 161.08 91.74 160.46 91.78 162.63"/><path class="cls-23" d="M119.28,237.9c2,0,1.2.76,0,5.72a48.06,48.06,0,0,0-1.2,11.83c0,2.68-.31,6.53,1.25,6.13s0,2.27-2.45,4.18-3.59,3.05-3.59,3.05,2-9.92,2.79-13S118.08,237.9,119.28,237.9Z"/><path class="cls-23" d="M105.69,234.08a25.36,25.36,0,0,1-3.6,4.58c-2,1.91-2.74,2.82-4.79,3.44-1.73.52-1.88-1.72-1.41-4.82a22.24,22.24,0,0,1,2.21-5.87s-3,7,1,6.87S104.49,234.08,105.69,234.08Z"/><rect class="cls-27" x="165.26" y="420.56" width="6.44" height="5.78"/><path class="cls-23" d="M105.79,389.37,103,397.82h6.26a27.35,27.35,0,0,1,.8-5.57,6.85,6.85,0,0,0-.2-3.05Z"/><path class="cls-18" d="M115.28,238.66c.36,1-1.75,2.38,0,2.86C115.63,241.18,116.69,238.81,115.28,238.66Z"/><path class="cls-18" d="M108.63,255.32c.24,1.8-3.91,3.18-2.34,5.1,3.27-5.09,7.84-12,9-17.18-1.91,5.43-8.29,9.63-9,14.31C106.73,256.59,108.37,253.32,108.63,255.32Z"/><path class="cls-18" d="M135,228c.13,1.08-.68,1.26-.61,2.29C136.1,230.48,136.65,228.11,135,228Z"/><path class="cls-18" d="M138.66,242.67c-.16,2.06-.14,4,2.4,3.43C141.3,244,140.58,242.75,138.66,242.67Z"/><path class="cls-18" d="M143.36,221.15h0a.92.92,0,0,1-.92-.94c0-.3,0-7.35-11.14-7.7-9.91-.33-10.91,7-10.95,7.34-.06.5-.49.48-1.11.5s-.85-.2-.79-.7c0-.09,1.18-9.3,12.92-9,6.78.21,9.95,2.76,11.42,4.87a8.48,8.48,0,0,1,1.56,4.71.94.94,0,0,1-.95.88Z"/><path class="cls-22" d="M144.19,343.41c0,2.56.08,5.34-2.73,5.81-3.73.63-1.92-3.58-.13-12.12,2.2-10.44,3-26.92,3.33-26.31C146.13,313.54,144.19,341.69,144.19,343.41Z"/><path class="cls-30" d="M103.26,156.74a8.53,8.53,0,0,0,1.61-2.77c.85-2.68,1-6.47.22-8.16-.89,3.13-2,2.62-2.47,1.08-.34-1-.16-2.95-.53-3.08-.55,1.55-2.15,5.56-.59,6.3a5.17,5.17,0,0,1-2.85,1.43c-1.12.28-4.94.4-4.35,3.15.25.69,1,1.39,1.34,2.1.21.44.57,1.08-.14,1.33l8.12.19c-.69-.17-1.25-.05-.93-.76A8.17,8.17,0,0,1,103.26,156.74Z"/><path class="cls-18" d="M102.34,158.4a46.58,46.58,0,0,0-8.14.15.64.64,0,0,1-.58-.6.55.55,0,0,1,.55-.57,47.41,47.41,0,0,1,8.2-.08A14,14,0,0,1,107.6,159,26.56,26.56,0,0,0,102.34,158.4Z"/></g></g></svg>