<svg preserveAspectRatio="none slice" xmlns="http://www.w3.org/2000/svg" viewBox="0 0 1114 1008.18"><defs><style>.a,.f{fill:#c4db7e;}.b,.g{fill:#a7ca65;}.c{fill:#618e34;}.d{fill:#fff;}.e{fill:#4a752e;}.f{stroke:#c4db7e;stroke-width:1.23px;}.f,.g,.h{stroke-miterlimit:10;}.g{stroke:#618e34;stroke-width:2.98px;}.h,.i{fill:none;}.h{stroke:#5f8447;stroke-width:1.31px;}</style></defs><title>lincoln_4</title><path class="a" d="M190,467.87s-62.83.18-88.38-49.87l-9.27-57.28s32.18,51.5,91,53.9Z"/><path class="b" d="M179.51,462.05c-30.24-3.83-48.69-15.82-58.87-25.27-10.4-9.64-14.52-18.65-15.08-19.94l-5.77-37,1-1.79c16.72,20.61,35.34,30.66,48.22,35.47a86.79,86.79,0,0,0,23.88,5.58,8.83,8.83,0,0,0,6.9,5.92l3.61,32.79A11.16,11.16,0,0,0,179.51,462.05Z"/><path class="c" d="M101.74,381.8c16.33,19.06,34.19,28.6,46.69,33.28a90.2,90.2,0,0,0,23.29,5.59,10.3,10.3,0,0,0,6.55,5.68L181.65,457a12.93,12.93,0,0,0-3,3.26c-29.07-3.91-46.86-15.45-56.74-24.57s-14-17.65-14.74-19.33l-5.4-34.57m-1.15-6.63-2.57,4.35,5.89,37.73s15.57,39.36,76.57,46.59a9.53,9.53,0,0,1,4.69-5.09l-3.91-35.23s-6,0-7.11-6c0,0-41-.63-73.59-42.35Z"/><path class="d" d="M171.94,441c.52,8.71-9.91,9.34-10.43.62S171.43,432.28,171.94,441Z"/><path class="d" d="M111.06,404.8c2,8.53-3.71,9.88-5.72,1.36S109.05,396.28,111.06,404.8Z"/><ellipse class="e" cx="133.11" cy="428.19" rx="9.14" ry="14.44" transform="translate(-125.55 61.91) rotate(-17.96)"/><path class="a" d="M272.38,42.12s27.18,57.56-9.86,107.08l57.75,14.6S356.56,114.7,331,44.68Z"/><path class="b" d="M279.28,148.23a7.91,7.91,0,0,0-4.47-7.67c20.95-38.78,10.74-76.91,8-85.45a7.85,7.85,0,0,0,4.32-4.74l31.74,1.73c1.37,5,6.37,6.69,10,7,15.27,44.18-4,84.56-7.71,91.6a11,11,0,0,0-2.13-.21,9.52,9.52,0,0,0-8.5,5.44Z"/><path class="c" d="M288.19,52.08l29.48,1.61a10.89,10.89,0,0,0,6.47,6,17,17,0,0,0,3.45.91c8.12,24.29,5.59,47.17,2,62.25a125.37,125.37,0,0,1-9.4,26.08q-.63-.06-1.2-.06a10.9,10.9,0,0,0-9.25,5.17l-28.82-7.11A9.48,9.48,0,0,0,277,140a114.57,114.57,0,0,0,7.83-84,9.74,9.74,0,0,0,3.37-3.86m-2.31-3.44s-.74,4.86-5.21,5.3c0,0,16.68,43.26-8.22,87.47,0,0,6.36,1.57,5,8.07l34.06,8.37s1.76-5.7,7.48-5.7a10.6,10.6,0,0,1,3,.46s26-45,8.05-95.12h0c-.34,0-8.89-.07-9.78-7l-34.35-1.88Z"/><path class="e" d="M306.67,116.05c7.76,1.31,14.9-2.62,15.95-8.8S318.21,95,310.45,93.7s-14.91,2.62-15.95,8.79S298.9,114.73,306.67,116.05Z"/><path class="d" d="M307.13,76.75c3.33.56,6.31-.64,6.66-2.69s-2.07-4.16-5.4-4.73-6.31.64-6.65,2.69S303.85,76.18,307.13,76.75Z"/><path class="d" d="M297.47,138.93c3.33.56,6.31-.64,6.66-2.69s-2.07-4.16-5.4-4.73-6.31.64-6.66,2.69S294.13,138.36,297.47,138.93Z"/><path class="a" d="M620.05,151.15s48.58-43.94,33.16-100.47L620.17,0s11.32,62.3-32.38,105.44Z"/><path class="b" d="M624.05,139.35a12.12,12.12,0,0,0-4-.71,10.34,10.34,0,0,0-2,.19L597.8,111a9.19,9.19,0,0,0,1.16-9.43c5.1-5.39,29.59-33.93,26.82-82.23l2.1.67,21.49,32.56C650.34,55.39,662.5,94.31,624.05,139.35Z"/><path class="c" d="M627.63,22.69,647.84,53.3c1.25,3.8,12.08,40.77-24.36,84.1a13.32,13.32,0,0,0-3.44-.46q-.62,0-1.23.06l-18.95-26.07a10.73,10.73,0,0,0,1.08-9,94.57,94.57,0,0,0,14-20.66c6.36-12.41,13.47-32.35,12.64-58.59M623.93,17c4.16,55-27,84.3-27,84.3,3.3,5.4-1.26,9.63-1.26,9.63l21.71,29.88a8.51,8.51,0,0,1,2.7-.42,10.3,10.3,0,0,1,4.5,1c41.9-48.39,26.32-89.6,26.32-89.6L629,18.55,624,17Z"/><path class="d" d="M615,109c-2.34,1.89-2.3,5.82.09,8.78s6.22,3.82,8.56,1.93,2.3-5.82-.08-8.78S617.34,107.12,615,109Z"/><path class="d" d="M636,39.65c-1.48.83-1.19,4.19.65,7.51s4.54,5.35,6,4.53,1.19-4.18-.65-7.51S637.47,38.83,636,39.65Z"/><ellipse class="e" cx="636" cy="80.61" rx="9.53" ry="15.06" transform="translate(23.31 269.29) rotate(-24.34)"/><path class="a" d="M858.71,218.59l17.2-71.07,31.34,1.4-20,69.41S884.54,229,858.71,218.59Z"/><path class="b" d="M876.45,218.49a26.69,26.69,0,0,1-6.71-1c.48-3.42-1.73-6.13-2.94-7.33l4.69-16.37,10.41,4.37,3.57,13.24c-.54,4.75-3.5,7.06-9,7.06Z"/><path class="c" d="M872.43,195.77l8.26,3.47L884,211.53c-.35,2.67-1.67,5.51-7.55,5.51a24,24,0,0,1-5.21-.63,10.53,10.53,0,0,0-2.82-6.63l4-14m-1.87-3.91-5.39,18.79s4.43,3.46,2.85,7.86a28.71,28.71,0,0,0,8.43,1.42c4.73,0,9.82-1.67,10.48-8.62l-3.83-14.18-12.54-5.27Z"/><path class="a" d="M907.25,148.92l-20,69.41c2.57-8.88-5.63-29.39-69.14-31.2l20-64.8S895.36,121.82,907.25,148.92Z"/><path class="b" d="M889.76,204.29c-10.13-17.67-49.55-20.83-57.8-21.3a9.24,9.24,0,0,0-3.81-7.32l13.07-43.38a11.1,11.1,0,0,0,8.4-4c23.65.84,37.41,7.4,44.82,12.79,6.8,5,9.6,9.83,10.33,11.27Z"/><path class="c" d="M904.29,148.78c-3.65-5.15-13-14.79-33.74-19.41a114.91,114.91,0,0,0-21.63-2.56,8.86,8.86,0,0,1-2.72,2.56,9.77,9.77,0,0,1-5.26,1.47h-.78l-.6,2-1.14,3.79-1.29,4.26-.64,2.15-.77,2.57-.1.32-8.27,27.39-.9,3a7.69,7.69,0,0,1,2.64,2.4,6.46,6.46,0,0,1,.75,1.3v.06h0a8.43,8.43,0,0,1,.58,4.27s2.16.09,5.66.41h0c2.08.18,4.64.44,7.49.82,4.27.57,9.23,1.4,14.29,2.58,2.55.59,5.12,1.28,7.65,2.08,1.69.53,3.35,1.09,5,1.72a45.51,45.51,0,0,1,13.17,7.4,19.47,19.47,0,0,1,6.33,9.19l.19-.7h0l1.35-4.67-.82,2.44a16.56,16.56,0,0,0-.9-1.66,25.18,25.18,0,0,0-4.38-5.52c-5-4.85-12-8.3-19.28-10.76-2.41-.81-4.87-1.51-7.29-2.13a142.41,142.41,0,0,0-19.67-3.4c-2.46-.25-4.5-.41-6-.5a10.41,10.41,0,0,0-2.42-5.39,9.91,9.91,0,0,0-1-1.1v-.06l8.37-27.8.42-1.37.45-1.53.6-2,1.25-4.11,1.14-3.8.24-.82a12.53,12.53,0,0,0,7.93-3.92c22.72.91,36,7.19,43.15,12.35a42.4,42.4,0,0,1,7,6.52,49.33,49.33,0,0,1,4,5.1,13.9,13.9,0,0,1,1,1.61l.89-3.11A20.15,20.15,0,0,0,904.29,148.78Z"/><path class="e" d="M879.13,170.73c2.39-10.79,10.18-18.25,17.42-16.65,3.18.71,5.72,3.06,7.36,6.39.09.17-9.13,31.65-9.13,31.65a10.14,10.14,0,0,1-6.87,1C880.66,191.57,876.75,181.52,879.13,170.73Z"/><path class="d" d="M848.2,154.85c-1.26,4.62-.1,9,2.6,9.71s5.91-2.41,7.17-7,.11-9-2.59-9.71S849.47,150.23,848.2,154.85Z"/><path class="f" d="M933.47,495.05s-51.37-32.36-47.09-91.93l-53.84,18.51s-3.9,58.84,52.56,102.15Z"/><path class="g" d="M890.76,513.42l28.53-16.56s-1.9-4.33,1.46-7c0,0-35.61-26.28-38.34-75.17,0,0-5.91,2.07-8.16-3.92l-31.62,11.12s2,7.41-5.71,9.74c0,0,2.3,50.11,42.4,81.29C879.29,512.88,886.41,508.15,890.76,513.42Z"/><path class="h" d="M890.76,513.42l28.53-16.56s-1.9-4.33,1.46-7c0,0-35.61-26.28-38.34-75.17,0,0-5.91,2.07-8.16-3.92l-31.62,11.12s2,7.41-5.71,9.74c0,0,2.3,50.11,42.4,81.29C879.29,512.88,886.41,508.15,890.76,513.42Z"/><path class="e" d="M868,453.17c-6.9,3-10.61,9.95-8.28,15.5s9.82,7.61,16.73,4.59,10.61-9.95,8.28-15.5S874.89,450.15,868,453.17Z"/><path class="d" d="M883.81,491c1.84,4.38,12.57-.27,10.71-4.68S882,486.52,883.81,491Z"/><path class="d" d="M859.65,435.47c1.84,4.38,12.57-.26,10.72-4.67S857.8,431.07,859.65,435.47Z"/><path class="f" d="M933.47,495.05s-51.37-32.36-47.09-91.93l-53.84,18.51s-3.9,58.84,52.56,102.15Z"/><path class="g" d="M890.76,513.42l28.53-16.56s-1.9-4.33,1.46-7c0,0-35.61-26.28-38.34-75.17,0,0-5.91,2.07-8.16-3.92l-31.62,11.12s2,7.41-5.71,9.74c0,0,2.3,50.11,42.4,81.29C879.29,512.88,886.41,508.15,890.76,513.42Z"/><path class="h" d="M890.76,513.42l28.53-16.56s-1.9-4.33,1.46-7c0,0-35.61-26.28-38.34-75.17,0,0-5.91,2.07-8.16-3.92l-31.62,11.12s2,7.41-5.71,9.74c0,0,2.3,50.11,42.4,81.29C879.29,512.88,886.41,508.15,890.76,513.42Z"/><path class="e" d="M868,453.17c-6.9,3-10.61,9.95-8.28,15.5s9.82,7.61,16.73,4.59,10.61-9.95,8.28-15.5S874.89,450.15,868,453.17Z"/><path class="d" d="M883.81,491c1.84,4.38,12.57-.27,10.71-4.68S882,486.52,883.81,491Z"/><path class="d" d="M859.65,435.47c1.84,4.38,12.57-.26,10.72-4.67S857.8,431.07,859.65,435.47Z"/><rect class="i" y="0.18" width="1114" height="1008"/></svg>