<svg preserveAspectRatio="none slice" xmlns="http://www.w3.org/2000/svg" viewBox="0 0 1125.02 1008.22"><defs><style>.cls-1{fill:#537f02;}.cls-2{fill:#284500;}.cls-3{fill:#c4db7e;}.cls-4,.cls-42{fill:#a7ca65;}.cls-10,.cls-11,.cls-12,.cls-13,.cls-14,.cls-15,.cls-16,.cls-17,.cls-18,.cls-19,.cls-20,.cls-22,.cls-23,.cls-24,.cls-25,.cls-26,.cls-27,.cls-28,.cls-29,.cls-30,.cls-31,.cls-32,.cls-33,.cls-34,.cls-35,.cls-36,.cls-37,.cls-38,.cls-40,.cls-41,.cls-5{fill:none;}.cls-10,.cls-11,.cls-12,.cls-13,.cls-14,.cls-15,.cls-16,.cls-17,.cls-18,.cls-19,.cls-20,.cls-22,.cls-23,.cls-24,.cls-25,.cls-26,.cls-27,.cls-28,.cls-30,.cls-31,.cls-32,.cls-33,.cls-34,.cls-35,.cls-36,.cls-37,.cls-38,.cls-5{stroke:#618e34;}.cls-10,.cls-11,.cls-12,.cls-13,.cls-14,.cls-15,.cls-16,.cls-17,.cls-18,.cls-19,.cls-20,.cls-22,.cls-23,.cls-24,.cls-25,.cls-26,.cls-27,.cls-28,.cls-30,.cls-31,.cls-32,.cls-33,.cls-34,.cls-35,.cls-36,.cls-37,.cls-38,.cls-40,.cls-41,.cls-5{stroke-miterlimit:10;}.cls-5{stroke-width:1.58px;}.cls-6{fill:#4a752e;}.cls-7{fill:#fff;}.cls-8{fill:#619a25;}.cls-9{fill:#47631a;}.cls-10{stroke-width:2.81px;}.cls-11{stroke-width:4.44px;}.cls-12{stroke-width:2.57px;}.cls-13,.cls-41{stroke-width:1.75px;}.cls-14{stroke-width:2.91px;}.cls-15{stroke-width:2.29px;}.cls-16{stroke-width:2.15px;}.cls-17{stroke-width:1.92px;}.cls-18{stroke-width:2.34px;}.cls-19{stroke-width:2.46px;}.cls-20{stroke-width:4.3px;}.cls-21{fill:#2e5061;}.cls-22{stroke-width:3.55px;}.cls-23{stroke-width:4.86px;}.cls-24{stroke-width:3.17px;}.cls-25{stroke-width:3px;}.cls-26{stroke-width:2.99px;}.cls-27{stroke-width:2.04px;}.cls-28{stroke-width:3.88px;}.cls-30{stroke-width:3.15px;}.cls-31{stroke-width:3.45px;}.cls-32{stroke-width:4.23px;}.cls-33{stroke-width:3.28px;}.cls-34{stroke-width:3.22px;}.cls-35{stroke-width:4.07px;}.cls-36{stroke-width:3.87px;}.cls-37{stroke-width:3.91px;}.cls-38{stroke-width:4.67px;}.cls-39{fill:#93bec9;}.cls-40{stroke:#203d4d;stroke-width:5.06px;opacity:0.35;}.cls-41{stroke:#405920;}.cls-42{opacity:0.53;}</style></defs><title>lincoln_3</title><g id="Layer_2" data-name="Layer 2"><g id="_3" data-name="3"><polygon class="cls-1" points="1103.43 364.77 1095.71 404.05 1039.54 396.5 1060.98 343.54 1103.43 364.77"/><polygon class="cls-1" points="981.68 383.85 968.44 355.43 940.33 362.81 953.92 398.7 981.68 383.85"/><polygon class="cls-1" points="1026.87 352.86 986.58 349.34 977.04 381.29 1018.19 388.31 1026.87 352.86"/><polygon class="cls-2" points="1081.85 469.1 1036.17 462.23 1027.73 483.41 1081.85 469.1"/><polygon class="cls-1" points="790.34 457.54 780.12 435.16 813.81 406.79 822.52 426.78 817.95 399 848.17 394.03 850.96 410.97 852.28 395.5 880.18 395.64 878.39 414.41 790.34 457.54"/><polygon class="cls-1" points="715.88 483.4 712.05 460.67 749.98 449.03 757.22 468.05 715.88 483.4"/><path class="cls-2" d="M963.48,455.28s14.95-2.17,24.27-12.35L964.5,430.38l-14.67,19.05Z"/><path class="cls-3" d="M967.55,454.08,934.8,442.87c4.19,1.43,15-1,21.24-26.83l30.46,11S982,450.42,967.55,454.08Z"/><path class="cls-4" d="M941.66,445.22c9.4-4.43,14.6-19,15.7-22.87a6.14,6.14,0,0,0,3.61-1.17l19.75,7a4.23,4.23,0,0,0,1.29,3.46c-4,15.79-13.76,20.41-17.3,21.48Z"/><path class="cls-5" d="M941.66,445.22c9.4-4.43,14.6-19,15.7-22.87a6.14,6.14,0,0,0,3.61-1.17l19.75,7a4.23,4.23,0,0,0,1.29,3.46c-4,15.79-13.76,20.41-17.3,21.48Z"/><path class="cls-6" d="M965.88,449.49a5.87,5.87,0,0,1-3.79,2.73c-.09,0-14.93-5.12-14.93-5.12a3.39,3.39,0,0,1,.06-2.84C950.57,437.34,969.2,442.65,965.88,449.49Z"/><path class="cls-7" d="M964.5,430.38c-1.41,2.54,6.5,5.15,7.92,2.6S965.92,427.82,964.5,430.38Z"/><path class="cls-1" d="M930.76,440.76c5.42,1.09,39,13.44,49.84,12.57l-8,7.58-45.72-16.25Z"/><path class="cls-8" d="M259.15,467.58l-8.89,17L228,473.85c4.08-10.26,2.34-5.85,7.83-19.74C236.25,454.37,258.7,467.31,259.15,467.58Z"/><polygon class="cls-1" points="790.34 457.54 780.12 435.16 813.81 406.79 822.52 426.78 817.95 399 848.17 394.03 850.96 410.97 852.28 395.5 880.18 395.64 878.39 414.41 790.34 457.54"/><polygon class="cls-1" points="715.88 483.4 712.05 460.67 749.98 449.03 757.22 468.05 715.88 483.4"/><path class="cls-2" d="M963.48,455.28s14.95-2.17,24.27-12.35L964.5,430.38l-14.67,19.05Z"/><path class="cls-3" d="M967.55,454.08,934.8,442.87c4.19,1.43,15-1,21.24-26.83l30.46,11S982,450.42,967.55,454.08Z"/><path class="cls-4" d="M941.66,445.22c9.4-4.43,14.6-19,15.7-22.87a6.14,6.14,0,0,0,3.61-1.17l19.75,7a4.23,4.23,0,0,0,1.29,3.46c-4,15.79-13.76,20.41-17.3,21.48Z"/><path class="cls-5" d="M941.66,445.22c9.4-4.43,14.6-19,15.7-22.87a6.14,6.14,0,0,0,3.61-1.17l19.75,7a4.23,4.23,0,0,0,1.29,3.46c-4,15.79-13.76,20.41-17.3,21.48Z"/><path class="cls-6" d="M965.88,449.49a5.87,5.87,0,0,1-3.79,2.73c-.09,0-14.93-5.12-14.93-5.12a3.39,3.39,0,0,1,.06-2.84C950.57,437.34,969.2,442.65,965.88,449.49Z"/><path class="cls-7" d="M964.5,430.38c-1.41,2.54,6.5,5.15,7.92,2.6S965.92,427.82,964.5,430.38Z"/><path class="cls-1" d="M930.76,440.76c5.42,1.09,39,13.44,49.84,12.57l-8,7.58-45.72-16.25Z"/><path class="cls-9" d="M259.15,467.58l-8.89,17L228,473.85c4.08-10.26,2.34-5.85,7.83-19.74C236.25,454.37,258.7,467.31,259.15,467.58Z"/><path class="cls-1" d="M1125,370l-.75-1.21v-.06c.62,0,.31,0,0,0h0V335q-20.44,2.7-40.24,6L1070.12,334l-4.07,10.07q-16.27,2.94-32.21,6.28l1.69-6.9-40.88-3.57-6.23,20.91-4.74,1.2-7.42-15.93-28.51,7.48L954,370c-24.39,6.9-44.35,13.33-67.67,21.41h0c-10.84,3.81-22,7.94-29.18,10.69-.72,0-28.88,11.47-29.61,11.78h0c-35.68,15.27-63.2,27.38-107.57,51.43h0c-1.24.69-6.31,3.45-13.07,7.26h0c-.65.36-1.28.72-1.92,1.1-4.75,2.66-9.41,5.37-14,8.06h0q-6.33,3.71-12.52,7.44c-1.87,1.12-3.73,2.26-5.57,3.39h0l-13.51-22.29-33.53,22.26L633,504.32c-2.34-.14-4.64-.24-6.94-.32l-31.64-13.19-11.68,14.28-1.53.13-1.78-6.56-30.71-2.14-1.92,13.91q-2.67.56-5.26,1.16l-12.1-15.78-26.41,17.85,5.51,7.66c-3.95,1.44-7.61,2.9-11,4.33l-1.66-14.13-30-3.57.67,8.32q-9.66-4.36-20-8.67c-11.71-4.86-24-9.61-37-14.14-4.76-1.67-9.58-3.3-14.5-4.87C267,446.82,132.42,445.45,2.56,491V751.88c-2.5,8-3.56,14.73-1.37,17.56a5.63,5.63,0,0,0,1.37,1.22v237H661.74c.29.23.59.1.88,0h2.06a2.25,2.25,0,0,0,1.36,0h447.61c.2,1,.39.51.56,0h10.06V370.34Z"/><path class="cls-8" d="M492.43,532l-.16.44L486.7,547.9,470.2,543l-1.93-.57-27.91-8.2-.41,6.4L439,555.22l0,.57v0l-1.24,19.28L432.23,551l-27.61,7.15,1.85,20.31-10.12-14.85L377,576.38c2.48,18.71,2.09,15.78,2.45,18.47-24,5,6.27-1.3-59.33,12.33l-33.58-9.47L282.13,619,279,594.48,250.16,610v20.24c-.89-2.5-.25-.7-3.23-9L221,624.12l-4.72,15.67-7-12.53c-13.53,2.67-8.41,1.64-33.23,6.54l4.3,14.05-26.26,8.87,4.28,9.77-32.13-3.61,12.05-9.56-24.92-11.18-20.35,9.58,6.76-14.14L68.57,623.79,56.66,638.34l-1-20.44-35.13-1.5-8.22,20.8L5.57,626.39V460.94l7.21-3.9,9.54,18.13,2.48-.71V448.69l46.88-.82-.33,15.35c3.11-.62,6.19-1.21,9.28-1.77L78,458l34.17-23.36,9.09,13.06-2.61-16.27,13.65-.74,14.92-.82,12.84-.71,2.56,23.3c.44,0,.89,0,1.33,0l3.34-15.82,39.4,9.42-2.44,6.34c8.69.27,17.3.74,25.78,1.41,1.13-2.85.24-.61,4.55-11.36l23.24,14.09q17.38,2.13,34.08,5.17l.78-16.73,39.42,6.44L331,469.94q5.43,1.33,10.75,2.74l8.9-13L374,480c1.34.47,4.17,1.67,7.68,3.22h0c4.8,2.13,10.87,4.89,16.07,7.24,4.86,2.19,9,4,10.63,4.65l.56-9.19,33.73,10.18.2,9.34.06,2.73c7.58,3.36,15.65,7.07,23.52,10.81,9,4.26,17.64,8.56,25,12.46.22.11.45.22.66.34Z"/><path class="cls-2" d="M961.06,700.85l8.73-26.38,43.87-10.37,5.19,13.63-4.65-25.13,37.6,4.8,1.5,16,3.16-8.2,33,27.66s.65,2.2-6.29,16.71-23.6,1.67-23.6,1.67Z"/><polygon class="cls-1" points="955.38 711.46 957.78 675.79 1003.32 667.59 1000.77 699.2 1011.4 659.81 1042.51 671.45 1036.04 695.46 1045.6 675.85 1082.63 703.89 1067.49 726.6 955.38 711.46"/><path class="cls-2" d="M568.64,650.69l6.2-31.64,34.26,6.71.35,13.38,7.64-13.82,30.71,14.83c-6.68,9.25-10.5,15.49-19.59,22l-4.56.88Z"/><polygon class="cls-1" points="624.86 664.85 636.63 641.75 605.93 626.92 598.28 640.74 597.94 627.35 563.67 620.65 557.48 652.29 624.86 664.85"/><polygon class="cls-1" points="584.62 592.79 589.07 574.25 554.64 560.59 540.84 578.56 584.62 592.79"/><polygon class="cls-2" points="296.88 659.19 292.26 641.91 258.8 643.56 265.56 667.02 251.99 650.12 224.93 669.51 249.48 684.89 296.88 659.19"/><polygon class="cls-1" points="304.03 657.72 304.36 642.44 273.15 643.9 273.15 664.64 265.15 649.7 235.14 666.84 250.39 689.44 304.03 657.72"/><polygon class="cls-2" points="905.45 888.48 847.64 905.52 905.45 905.52 905.45 888.48"/><polygon class="cls-2" points="989.97 784.67 1037.46 790.59 1034.39 772.16 989.97 784.67"/><polygon class="cls-2" points="369.22 715.92 292.71 721.53 285.53 743.06 279.07 702.44 369.22 715.92"/><polygon class="cls-1" points="379.67 715.89 299.09 698.4 277.49 753.88 333.61 762.36 379.67 715.89"/><polygon class="cls-1" points="1029.42 376.7 1096.34 348.59 1115.09 378.99 1075.5 399.56 1029.42 376.7"/><polygon class="cls-2" points="1095.04 945.15 1082.53 948.55 1065.11 907.07 1095.04 945.15"/><polygon class="cls-2" points="868.55 956.01 822.56 947.24 800.48 985.22 815.64 935.01 868.55 956.01"/><polygon class="cls-2" points="994.01 518.73 951.66 524.15 966.55 531.45 994.01 518.73"/><path class="cls-1" d="M468.42,547.48c4.48-3.91,85.52-57.07,220.92-27.89L593.8,602.21Z"/><polygon class="cls-1" points="643.59 533.3 622.85 499.81 655.91 477.86 675.49 510.17 643.59 533.3"/><path class="cls-2" d="M37.6,757.36c12,6.48,27.93,13.46,53.86,10l18-36.41s-47.87,7-62.34-3.49Z"/><path class="cls-2" d="M425,716c-2.13.53-29.77,23.92-29.77,23.92s39.87,15.42,72.84,12.76l4.25-12.22Z"/><path class="cls-2" d="M163,629.93s-16.59-2.4-26.93-13.71l25.79-13.93,16.29,21.15Z"/><path class="cls-2" d="M1085.8,987.87l-20.58-1.53c-3.36,2.29-6.93,4.55-10.71,6.74.34-2,.91-5.58,1.12-7.45l.8.06c1.37-.87,2.69-1.76,4-2.64-27.74,0-20.24-.37-34.22,1.44,0,0,.51-7.6,1-1.44H989.44l-10.35-26.36,90.38-41.46C1087.09,993.6,1083.21,976.44,1085.8,987.87Z"/><path class="cls-2" d="M1099.05,555.64s-2.4,29.51-39.88,55.83c0,0,2.66.79-27.12,12l28.71-76.57Z"/><path class="cls-3" d="M996.82,604.87s45-29.83,39.92-82l48.33,14.78s4.75,51.59-44.56,91.19Z"/><path class="cls-4" d="M1035.24,619.81l-25.75-13.74s1.6-3.86-1.45-6.14c0,0,31.12-24.07,32.48-67.09,0,0,5.3,1.65,7.18-3.66l28.39,8.89s-1.64,6.57,5.29,8.41c0,0-1,44.08-36,72.57C1045.41,619.05,1039,615.09,1035.24,619.81Z"/><path class="cls-10" d="M1035.24,619.81l-25.75-13.74s1.6-3.86-1.45-6.14c0,0,31.12-24.07,32.48-67.09,0,0,5.3,1.65,7.18-3.66l28.39,8.89s-1.64,6.57,5.29,8.41c0,0-1,44.08-36,72.57C1045.41,619.05,1039,615.09,1035.24,619.81Z"/><path class="cls-6" d="M1054.2,566.28c6.22,2.46,9.67,8.46,7.72,13.4s-8.58,7-14.79,4.49-9.67-8.46-7.71-13.4S1048,563.82,1054.2,566.28Z"/><path class="cls-6" d="M1041,599.9c-1.55,3.91-11.19.09-9.65-3.81S1042.49,596,1041,599.9Z"/><path class="cls-6" d="M1061.24,550.51c-1.55,3.91-11.19.09-9.65-3.81S1062.79,546.59,1061.24,550.51Z"/><path class="cls-3" d="M1108.37,943.72c-8.69,14.48-29.17,35-53.86,49.36.34-2,.91-5.58,1.12-7.45l.8.06c1.37-.87,2.69-1.76,4-2.64-27.74,0-20.24-.37-34.22,1.44,0,0,.51-7.6,1-1.44H980.52l-.8.87-1.09-.87H950.22c-8.36-17.93-16.87-36.16-16.87-36.16,11.12.54,32.06-1.68,51.61-8h0c32.11-10.35,58.5-30,75.74-59.07Z"/><path class="cls-4" d="M1055.63,985.63l.8.06-.87.57C1055.61,985.84,1055.63,985.63,1055.63,985.63Z"/><path class="cls-4" d="M1095.41,951.57c-6.27,8.14-20,21.29-35,31.48-27.74,0-20.24-.37-34.22,1.44,0,0,.51-7.6,1-1.44H980.52c-.27.29-.54-5.57-.8-5.27l-1.09,5.27H959.29c-9.5-19.8-7.27-15.17-10.95-22.8,2.94-2,5-5.3,3.9-9.15v0c31.75-.88,75.83-19.12,103.94-55,0,0,5.2,7.06,12.54,2,.5.68,18.76,25.5,27.81,37.82C1092.73,939.08,1090.45,945.11,1095.41,951.57Z"/><path class="cls-11" d="M1055.63,985.63l.8.06-.87.57C1055.61,985.84,1055.63,985.63,1055.63,985.63Z"/><path class="cls-11" d="M960.15,975.68l-8.94-9.49-2.87-5.94c2.94-2,5-5.3,3.9-9.15v0c31.75-.88,75.83-19.12,103.94-55,0,0,5.2,7.06,12.54,2,.5.68,18.76,25.5,27.81,37.82-3.79,3.14-6.07,9.17-1.11,15.63-6.27,8.14-20,21.29-35,31.48-20.63,9.77-18.77,9.83-32.77,11.41"/><path class="cls-6" d="M1042.35,951.39c5.6,8.92,4.4,19.77-2.7,24.23s-17.39.83-23-8.1-4.4-19.77,2.7-24.23S1036.74,942.46,1042.35,951.39Z"/><path class="cls-7" d="M994.1,981.77c-5.62,3.52-14.32-10.34-8.7-13.86S999.71,978.24,994.1,981.77Z"/><path class="cls-7" d="M1066,937.89c-5.61,3.53-14.31-10.33-8.7-13.85S1071.65,934.35,1066,937.89Z"/><path class="cls-2" d="M983.69,983.05c-23.44-18.48,14.45,11.38-23.49-18.52l43.08-35.09a44.67,44.67,0,0,0,13.58-5.7c6.44-3.86,18.79-13.4,18.79-13.4.21,1.22-11.82,32.84-26.42,51.69,2.67,5.44,6.89,13.4,11.19,21Z"/><path class="cls-1" d="M989.32,947.79l-34.7,16.35,20.89,16.45a30.65,30.65,0,0,1,4.91.31c.21-.23,12.54,20.84,13.45,22.09,1.35,1.85,81.36-5.91,105.64-12.14-3-3.5-85.3-5.25-91.33-15.72C1002.32,965,993.3,955.25,989.32,947.79Z"/><polygon class="cls-2" points="988.52 975.31 1006.86 967.73 995.3 946.2 988.52 975.31"/><path class="cls-3" d="M981.84,981.59c-.43.49-.67-4-1.11-3.46-.27.3-1-7.66-1.23-7.37l-5.22,7.68c-78.19-2.92-58.58-.84-93.19-8.66,12.22-7,32.12-23.55,46.69-44.28,14.13-20.14,25.72-47.1,24.65-80.74L1027,873C1027.58,896.25,1015.66,944.45,981.84,981.59Z"/><path class="cls-4" d="M1020.26,886.63c-1.49,17.06-12.39,61.09-44.75,94-.81.83-3.77-11.87-4.61-11.06-62.06,6.5-48,6.12-70,3.46,0,0,2.92-5.91-1.64-9.82,17-11.49,52.78-47.92,58.09-102.24,0,0,8.17,3.16,11.67-5l43.78,17S1009.53,883,1020.26,886.63Z"/><path class="cls-11" d="M1020.26,886.63c-1.49,17.06-12.39,61.09-44.75,94-.81.83-3.47-5.42-4.3-4.61-62.79,0-48.66.86-70.31-3,0,0,2.92-5.91-1.64-9.82,17-11.49,52.78-47.92,58.09-102.24,0,0,8.17,3.16,11.67-5l43.78,17S1009.53,883,1020.26,886.63Z"/><ellipse class="cls-6" cx="968.92" cy="928.7" rx="15.17" ry="19.09" transform="translate(-285.3 1406.43) rotate(-64.64)"/><path class="cls-7" d="M951.06,966.54c-2.84,6-17.62-1-14.78-7S953.9,960.55,951.06,966.54Z"/><path class="cls-7" d="M988.12,890.9c-2.84,6-17.62-1-14.78-7S991,884.88,988.12,890.9Z"/><path class="cls-7" d="M26.07,601.07c-4.32.9-3.34,7.08,1,6.19S30.37,600.17,26.07,601.07Z"/><path class="cls-3" d="M22.49,766.06s47.19,9.7,74.42-24.4l16.17-42.07S80.63,733.78,36,726.65Z"/><path class="cls-4" d="M36.45,734.24a6,6,0,0,0,6.26-3.49c16.67,2.5,41.09-3.31,61.6-20.65l.94,2.91L94.83,740.6a39.72,39.72,0,0,1-4.62,5.25c-8.13,7.89-26.65,20.72-59.55,18.16a7.71,7.71,0,0,0-2.56-4.31Z"/><path class="cls-12" d="M36.45,734.24a6,6,0,0,0,6.26-3.49c16.67,2.5,41.09-3.31,61.6-20.65l.94,2.91L94.83,740.6a39.72,39.72,0,0,1-4.62,5.25c-8.13,7.89-26.65,20.72-59.55,18.16a7.71,7.71,0,0,0-2.56-4.31Z"/><path class="cls-7" d="M40.35,748.41c-1.78,6.52,5.95,8.6,7.74,2.05S42.14,741.85,40.35,748.41Z"/><path class="cls-7" d="M91.91,730.2c-2.88,6.17,1.2,8.06,4.08,1.9S94.79,724,91.91,730.2Z"/><path class="cls-6" d="M77.13,734.82c-8-4.55-19.16,14.92-11.11,19.51S85.17,739.41,77.13,734.82Z"/><path class="cls-3" d="M158.47,628.6l36.35-12.45c-4.65,1.6-16.7-1.12-23.58-29.77l-33.81,12.2S142.46,624.54,158.47,628.6Z"/><path class="cls-4" d="M187.2,618.76c-10.43-4.91-16.2-21.1-17.42-25.38a6.79,6.79,0,0,1-4-1.3l-21.92,7.77a4.69,4.69,0,0,1-1.42,3.84c4.43,17.52,15.26,22.64,19.19,23.83Z"/><path class="cls-13" d="M187.2,618.76c-10.43-4.91-16.2-21.1-17.42-25.38a6.79,6.79,0,0,1-4-1.3l-21.92,7.77a4.69,4.69,0,0,1-1.42,3.84c4.43,17.52,15.26,22.64,19.19,23.83Z"/><path class="cls-6" d="M160.32,623.51a6.48,6.48,0,0,0,4.2,3c.1,0,16.57-5.67,16.57-5.67a3.75,3.75,0,0,0-.06-3.16C177.31,610,156.64,615.91,160.32,623.51Z"/><path class="cls-7" d="M161.85,602.29c1.57,2.82-7.21,5.72-8.78,2.89S160.28,599.46,161.85,602.29Z"/><path class="cls-3" d="M396.68,718.81s35.27,45.69,86.67,36l47.57-25.58s-56.2,5.69-91.14-35.65Z"/><path class="cls-4" d="M434.24,700.82a7.24,7.24,0,0,0,8.41,1.73c13.18,15.29,39.9,29.1,72.1,29.38l-1.42,3.38-31.05,16.91a45.69,45.69,0,0,1-8.3,1.16c-13.55.82-40.4-2-68.28-30a9.25,9.25,0,0,0,1.05-5.91Z"/><path class="cls-14" d="M434.24,700.82a7.24,7.24,0,0,0,8.41,1.73c13.18,15.29,39.9,29.1,72.1,29.38l-1.42,3.38-31.05,16.91a45.69,45.69,0,0,1-8.3,1.16c-13.55.82-40.4-2-68.28-30a9.25,9.25,0,0,0,1.05-5.91Z"/><path class="cls-7" d="M426.7,716.73c-6.72,4.53-1.33,12.47,5.42,7.92S433.45,712.18,426.7,716.73Z"/><path class="cls-7" d="M487.76,740.5c-7.43,3.34-5.2,8.26,2.23,4.91S495.2,737.15,487.76,740.5Z"/><ellipse class="cls-6" cx="458.06" cy="737.66" rx="13.45" ry="8.39" transform="translate(-221.12 196.66) rotate(-19.62)"/><path class="cls-3" d="M876.53,502.4l31,42.23-15.37,16.81L863.4,518.38S858.8,512,876.53,502.4Z"/><path class="cls-4" d="M887.23,523.49l-7.8-11.63s-4,.87-5.63-2c0,0-11.61,7-4.87,13.83l9.56,4.39Z"/><path class="cls-15" d="M887.23,523.49l-7.8-11.63s-4,.87-5.63-2c0,0-11.61,7-4.87,13.83l9.56,4.39Z"/><path class="cls-3" d="M892.13,561.44,863.4,518.38c3.67,5.51,18.75,10.37,49.34-24.15L939,535.13S912.53,567.27,892.13,561.44Z"/><path class="cls-4" d="M869.42,527.4c15.12.69,34.42-17.47,39.2-22.49A7.3,7.3,0,0,0,914,506l17.11,26.32a8.94,8.94,0,0,0-1.59,6.3c-18.94,20.94-34.67,20.27-39.84,19.1Z"/><path class="cls-15" d="M869.42,527.4c15.12.69,34.42-17.47,39.2-22.49A7.3,7.3,0,0,0,914,506l17.11,26.32a8.94,8.94,0,0,0-1.59,6.3c-18.94,20.94-34.67,20.27-39.84,19.1Z"/><path class="cls-6" d="M893.27,535.76c7.4,9.68,3.73,20.79-5.93,18.51-.13,0-13.1-19.63-13.1-19.63C876.13,526.5,886.63,527.08,893.27,535.76Z"/><path class="cls-7" d="M909.86,522.82c-4,2.77,3.08,13,7,10.24S913.83,520.05,909.86,522.82Z"/><path class="cls-1" d="M861.48,523.63c2.12.53,54.61,16.47,85-2.29,20.51-12.67,17,22.33,17,22.33l-70,33.41Z"/><path class="cls-3" d="M996.82,604.87s45-29.83,39.92-82l48.33,14.78s4.75,51.59-44.56,91.19Z"/><path class="cls-4" d="M1035.24,619.81l-25.75-13.74s1.6-3.86-1.45-6.14c0,0,31.12-24.07,32.48-67.09,0,0,5.3,1.65,7.18-3.66l28.39,8.89s-1.64,6.57,5.29,8.41c0,0-1,44.08-36,72.57C1045.41,619.05,1039,615.09,1035.24,619.81Z"/><path class="cls-10" d="M1035.24,619.81l-25.75-13.74s1.6-3.86-1.45-6.14c0,0,31.12-24.07,32.48-67.09,0,0,5.3,1.65,7.18-3.66l28.39,8.89s-1.64,6.57,5.29,8.41c0,0-1,44.08-36,72.57C1045.41,619.05,1039,615.09,1035.24,619.81Z"/><path class="cls-6" d="M1054.2,566.28c6.22,2.46,9.67,8.46,7.72,13.4s-8.58,7-14.79,4.49-9.67-8.46-7.71-13.4S1048,563.82,1054.2,566.28Z"/><path class="cls-6" d="M1041,599.9c-1.55,3.91-11.19.09-9.65-3.81S1042.49,596,1041,599.9Z"/><path class="cls-7" d="M1061.24,550.51c-1.55,3.91-11.19.09-9.65-3.81S1062.79,546.59,1061.24,550.51Z"/><path class="cls-1" d="M411.73,752.19s70.18-8.5,103.15-36.15l33.5,19.14L450,774.53Z"/><path class="cls-8" d="M199.3,613.82c-6,1.2-43.29,14.91-55.31,13.95l8.9,8.41,50.74-18Z"/><path class="cls-1" d="M1003.82,986.66h-19c-.27.29-1.16-3-1.42-2.7-13,6.13-109.46,2.45-109,2.08l-16.53-9.79c42.83-40.6-7.18,6.82,61.69-58.48,33,30.9,68.36,57.42,68.36,57.42C990.12,976.82,995.48,980.9,1003.82,986.66Z"/><path class="cls-1" d="M43.08,707.48c2.5,20.45,11,53.37,20.45,64.84,0,0-49.37,9.47-56.36.5s19.45-58.36,19.45-58.36Z"/><polygon class="cls-2" points="571.86 790.65 558.83 801.55 553.25 790.12 571.86 790.65"/><path class="cls-4" d="M558.83,801.55l2.39-18.61s23.66,14.89,35.36,15.42Z"/><path class="cls-2" d="M794.18,899.17s5.78,1.41,13.36-2.58L790.39,883Z"/><polygon class="cls-3" points="776.04 879.42 800.76 883.43 794.18 899.16 776.04 879.42"/><path class="cls-2" d="M343.15,665c.5-.33,9.11-2.65,9.11-2.65l-12.09-6.78Z"/><polygon class="cls-3" points="343.15 664.96 348.65 652.88 325.94 653.71 343.15 664.96"/><path class="cls-2" d="M558.66,677.43c.82-.55-15.13-9.23-15.13-9.23l10.23-6.28Z"/><polygon class="cls-3" points="558.66 677.43 564.81 660.72 548.2 657.22 558.66 677.43"/><path class="cls-2" d="M117,591.45c-.58-.33-10.69-2.64-10.69-2.64L120.5,582Z"/><polygon class="cls-3" points="117 591.45 120.92 579.83 137.22 580.2 117 591.45"/><path class="cls-1" d="M1000.15,570.79s46.65,35.89,73.37,42.27l-16.75,32.3L969,605.08Z"/><path class="cls-2" d="M911.35,816.44c-.26,1.33-6.11,12-5.32,12s-12.22-12-12.22-12Z"/><polygon class="cls-4" points="906.03 828.4 902.31 810.59 929.16 814.84 906.03 828.4"/><path class="cls-2" d="M434.88,646s-11.1-1.79-13.61-3.94c0,0,24-17.55,27.23-22.56l6.09,25.79Z"/><path class="cls-3" d="M451.8,602.16s14.24,38.72,54,44.12L486.25,679.6s-39.18-5.55-59.92-49.18Z"/><path class="cls-4" d="M433.93,628.09l14.75-16.72s2.58,1.86,4.82,0c0,0,12.4,27.36,44.14,36,0,0-2.16,3.65,1.46,6l-11.61,19.54a5.25,5.25,0,0,0-7.18,2.45s-32.6-8.47-47.61-39.52C432.7,635.78,436.77,631.71,433.93,628.09Z"/><path class="cls-16" d="M433.93,628.09l14.75-16.72s2.58,1.86,4.82,0c0,0,12.4,27.36,44.14,36,0,0-2.16,3.65,1.46,6l-11.61,19.54a5.25,5.25,0,0,0-7.18,2.45s-32.6-8.47-47.61-39.52C432.7,635.78,436.77,631.71,433.93,628.09Z"/><path class="cls-6" d="M470.37,651.61c-2.92,4.18-8,5.69-11.31,3.37s-3.66-7.6-.73-11.78,8-5.7,11.31-3.37S473.29,647.42,470.37,651.61Z"/><path class="cls-7" d="M447.72,635.83c-2.64-1.84,1.9-8.33,4.53-6.49S450.35,637.67,447.72,635.83Z"/><path class="cls-6" d="M480.86,659.61c-2.64-1.83,1.9-8.33,4.53-6.49S483.5,661.46,480.86,659.61Z"/><path class="cls-1" d="M406.58,633.77C441.69,656,501.87,656,527.66,639.51l3.58,23.64-24.35,28.66-91.71-10Z"/><path class="cls-2" d="M339.36,624.57s-26.37-12.49-29-14.78c0,0,27.28-7.26,30.72-12.6l4.77,16Z"/><path class="cls-3" d="M362.54,564.06s-4.37,36.51,25,56.88l-29,18.56s-28.86-20.27-27.66-63.31Z"/><path class="cls-4" d="M337.85,577.41l18.48-7.3s1.3,2.53,3.83,1.95c0,0-1.23,26.75,20.49,46.43a3.87,3.87,0,0,0-1.26,5.33l-17.14,10.82a4.67,4.67,0,0,0-6.69-1S333.11,613.75,333.77,583C333.77,583,338.65,581.44,337.85,577.41Z"/><path class="cls-17" d="M337.85,577.41l18.48-7.3s1.3,2.53,3.83,1.95c0,0-1.23,26.75,20.49,46.43a3.87,3.87,0,0,0-1.26,5.33l-17.14,10.82a4.67,4.67,0,0,0-6.69-1S333.11,613.75,333.77,583C333.77,583,338.65,581.44,337.85,577.41Z"/><path class="cls-6" d="M346.92,608.94c-4.06-7.62,10.46-15.4,14.54-7.75S351,616.59,346.92,608.94Z"/><path class="cls-7" d="M345.67,589.15c-1.35-2.53,4.88-5.85,6.23-3.33S347,591.67,345.67,589.15Z"/><path class="cls-6" d="M362.35,621.45c-1.35-2.53,4.89-5.85,6.23-3.33S363.7,624,362.35,621.45Z"/><path class="cls-1" d="M316.94,591.36c37.4,23.67,53.52,10.54,81-7l20.74,33.5-4.72,53L326.1,642.51Z"/><path class="cls-2" d="M620,563s11.83-1.91,14.51-4.2c0,0-27.29-7.26-30.73-12.6l-4.77,16Z"/><path class="cls-3" d="M603.92,539s-18.86,31.56-54.54,29.74L561,601.09s35.23,1.6,60.6-33.19Z"/><path class="cls-4" d="M615.29,564.61l-10.15-17.08s-2.57,1.2-4.22-.8c0,0-15.38,21.93-44.6,24.22a3.88,3.88,0,0,1-2.27,5l7,19a4.68,4.68,0,0,1,5.88,3.34s30-2,48.22-26.76C615.1,571.55,612.2,567.31,615.29,564.61Z"/><path class="cls-17" d="M615.29,564.61l-10.15-17.08s-2.57,1.2-4.22-.8c0,0-15.38,21.93-44.6,24.22a3.88,3.88,0,0,1-2.27,5l7,19a4.68,4.68,0,0,1,5.88,3.34s30-2,48.22-26.76C615.1,571.55,612.2,567.31,615.29,564.61Z"/><path class="cls-6" d="M579.49,579.2c1.87,4.14,6.06,6.3,9.36,4.82s4.45-6.06,2.58-10.2-6-6.31-9.35-4.82S577.63,575.05,579.49,579.2Z"/><path class="cls-7" d="M601.94,569.11c2.61-1.17-.29-7.61-2.9-6.43S599.33,570.29,601.94,569.11Z"/><path class="cls-6" d="M569,584.48c2.61-1.18-.29-7.62-2.9-6.44S566.37,585.66,569,584.48Z"/><path class="cls-1" d="M653,548c-37.41,23.66-101.53,23.66-129,6.11l-3.81,25.19,41.54,30.27,82.12-10.43Z"/><path class="cls-2" d="M126.37,699.29c-.65-.44-12-3.49-12-3.49l16-9Z"/><polygon class="cls-3" points="126.37 699.29 119.12 683.34 149.1 684.43 126.37 699.29"/><path class="cls-2" d="M753.66,610.93c6.06-8.2,16.4-24.24,18.89-37.78,0,0-36,2.85-39.92-1.79s-16.76,47.06-16.76,47.06Z"/><path class="cls-3" d="M701.41,618.17s30-33.45,15-74.46l42,1.8s14.63,40.57-16.82,82.79Z"/><path class="cls-4" d="M735.49,622.17l-23.63-5.68s.48-3.44-2.45-4.64c0,0,20-25.91,12.13-60.86,0,0,4.62.22,5-4.45l24.74,1.22a5.72,5.72,0,0,0,6,5.67s8.46,35.72-13.79,66C743.53,619.43,737.53,617.58,735.49,622.17Z"/><path class="cls-18" d="M735.49,622.17l-23.63-5.68s.48-3.44-2.45-4.64c0,0,20-25.91,12.13-60.86,0,0,4.62.22,5-4.45l24.74,1.22a5.72,5.72,0,0,0,6,5.67s8.46,35.72-13.79,66C743.53,619.43,737.53,617.58,735.49,622.17Z"/><ellipse class="cls-6" cx="738.59" cy="583.02" rx="8.01" ry="10.07" transform="translate(69.52 1244.67) rotate(-82.97)"/><path class="cls-7" d="M735.92,604.94c-.43,3.47-9,2.41-8.57-1.06S736.35,601.47,735.92,604.94Z"/><path class="cls-7" d="M741.93,560.9c-.43,3.47-9,2.41-8.57-1.06S742.36,557.41,741.93,560.9Z"/><path class="cls-1" d="M688.07,613.78c16.4-1.78,65.23-4.63,84.13-17.46L779,635.89l-91.61,6.41Z"/><path class="cls-2" d="M186.37,752.19c-7.86-4.87-22-15.19-28.47-27.07,0,0,31.93-15.53,33.81-22s29.62,37.15,29.62,37.15Z"/><path class="cls-3" d="M233.71,732.66S197,715.45,196.75,668l-35.62,23.12s.51,46.82,41.23,71.81Z"/><path class="cls-4" d="M205.65,753.86l18.51-17.52a5.69,5.69,0,0,1,.61-5.76s-25.62-15-30.1-52.89c0,0-3.9,2.56-5.76-1.77L168,689.68a7.45,7.45,0,0,1-3.35,8.56s4.25,39,33.19,57C197.84,755.29,202.41,750.45,205.65,753.86Z"/><path class="cls-18" d="M205.65,753.86l18.51-17.52a5.69,5.69,0,0,1,.61-5.76s-25.62-15-30.1-52.89c0,0-3.9,2.56-5.76-1.77L168,689.68a7.45,7.45,0,0,1-3.35,8.56s4.25,39,33.19,57C197.84,755.29,202.41,750.45,205.65,753.86Z"/><path class="cls-6" d="M182.13,723.72c4.47,9.46,21-3,16.42-12.56S177.6,714.14,182.13,723.72Z"/><path class="cls-7" d="M199.71,737.36c1.49,3.15,8.53-2.23,7-5.38S198.22,734.21,199.71,737.36Z"/><path class="cls-7" d="M180.31,697.67c1.49,3.15,8.53-2.23,7-5.39S178.82,694.5,180.31,697.67Z"/><path class="cls-1" d="M243.78,721.62c-14.7,6.6-57.68,28.66-78.09,25.81l6.94,41.85,81-40.34Z"/><path class="cls-3" d="M680.89,662.58l-28.11,48.58,18.33,16.13,25.63-49.21S700.9,670.76,680.89,662.58Z"/><path class="cls-4" d="M671.93,686.28l7-13.29s4.32.47,5.77-2.81c0,0,13.17,6.1,6.78,14.18l-9.67,5.77Z"/><path class="cls-19" d="M671.93,686.28l7-13.29s4.32.47,5.77-2.81c0,0,13.17,6.1,6.78,14.18l-9.67,5.77Z"/><path class="cls-3" d="M671.11,727.29l25.63-49.21c-3.28,6.3-18.78,13.22-55.38-20l-23.21,46.62S650,735.87,671.11,727.29Z"/><path class="cls-4" d="M691.37,688.4c-16,2.48-38.71-14.64-44.39-19.44a7.77,7.77,0,0,1-5.55,1.76l-15.2,30a9.52,9.52,0,0,1,2.42,6.53c22.62,20.13,39.3,17.59,44.68,15.75Z"/><path class="cls-19" d="M691.37,688.4c-16,2.48-38.71-14.64-44.39-19.44a7.77,7.77,0,0,1-5.55,1.76l-15.2,30a9.52,9.52,0,0,1,2.42,6.53c22.62,20.13,39.3,17.59,44.68,15.75Z"/><path class="cls-6" d="M666.92,700.06c-6.77,11.17-1.57,22.59,8.45,19,.14-.05,11.69-22.43,11.69-22.43C684.11,688.21,673,690.05,666.92,700.06Z"/><path class="cls-7" d="M647.74,688.2c4.55,2.49-1.77,14.22-6.32,11.73S643.19,685.7,647.74,688.2Z"/><path class="cls-1" d="M699.39,683.46c-2.2.81-56.28,23.87-90.81,7.39C585.26,679.72,593,716.62,593,716.62l78.43,27.5Z"/><path class="cls-2" d="M841.72,596.81s20.81-5.72,20.37-34.32l-45.84-3.41s-3.6,30.36-16.08,42.5S841.72,596.81,841.72,596.81Z"/><path class="cls-2" d="M867.35,616.71s27.76-9.91,37.93-36.64L864.51,568.4s-10.71,25.34-26.8,32S867.35,616.71,867.35,616.71Z"/><path class="cls-1" d="M835.5,603.36S849,580.58,841.44,553l-42.07,5.44s4.08,30.3-5,45.17S835.5,603.36,835.5,603.36Z"/><path class="cls-1" d="M861.64,621.79s22.41-14.1,28.32-42.09l-39.9-14.4S839.83,594.11,825,603.19,861.64,621.79,861.64,621.79Z"/><path class="cls-2" d="M212.5,529.52s-16.63-4.57-16.29-27.44l36.66-2.73s2.88,24.28,12.86,34S212.5,529.52,212.5,529.52Z"/><path class="cls-2" d="M192,545.44s-22.2-7.93-30.33-29.31l32.6-9.33s8.57,20.27,21.43,25.6S192,545.44,192,545.44Z"/><path class="cls-8" d="M217.48,534.76s-10.79-18.22-4.75-40.28l33.64,4.35s-3.26,24.22,4,36.11S217.48,534.76,217.48,534.76Z"/><path class="cls-8" d="M196.58,549.49s-17.93-11.27-22.65-33.65l31.91-11.51s8.18,23,20.06,30.29S196.58,549.49,196.58,549.49Z"/><polygon class="cls-2" points="498.41 661.8 496.51 649.54 460.38 652.08 464.02 666.7 454.08 656.17 420.86 666.88 445.56 684.71 498.41 661.8"/><polygon class="cls-1" points="509.19 663.63 508.33 637.72 474.3 639.59 474.29 655.38 467.52 643.83 434.3 654.53 444.16 685.22 509.19 663.63"/><path class="cls-3" d="M774.19,985.36H733.52c12.42-11.85,18.1-21.49,18.1-21.49Z"/><path class="cls-4" d="M763.13,985.36H741.51a66.67,66.67,0,0,0,5.16-6.06c5,3.64,11.22,1,11.22,1Z"/><path class="cls-20" d="M763.13,985.36H741.51a66.67,66.67,0,0,0,5.16-6.06c5,3.64,11.22,1,11.22,1Z"/><path class="cls-1" d="M468.14,551.63c0-2.11-2.82-36.6-2.82-36.6l29.57,3.52,2.81,23.93,16.89-4.22-12.67-17.6L528,503.06l16.19,21.12L547,503.77l30.27,2.11,2.11,7.74L592,498.13l33.79,14.08-69,43.64Z"/><path class="cls-21" d="M707.11,537l.28-.25C707.09,537.4,707,537.47,707.11,537Z"/><path class="cls-21" d="M739,537l.29-.25C739,537.4,738.9,537.47,739,537Z"/><path class="cls-21" d="M770.91,537l.29-.25C770.9,537.4,770.8,537.47,770.91,537Z"/><path class="cls-2" d="M662.78,926.5c4-3.19,37.48-12,47.85-8.77,0,0-20.74-37.49-40.67-51.84s-54.24,51-54.24,51Z"/><path class="cls-2" d="M672.08,903.91c-.53,2.12-36.15,1.06-54.76-8s-34-24.46-34-24.46,58,24.46,78.16,14.89Z"/><path class="cls-3" d="M686.19,943.47,641.36,876l-32.6,13.37L656,954S662.79,964.11,686.19,943.47Z"/><path class="cls-4" d="M661.27,916.7,674,934.22s-3.38,5.29-.06,9.27c0,0-16.34,13.13-22.68-.31L650,927Z"/><path class="cls-22" d="M661.27,916.7,674,934.22s-3.38,5.29-.06,9.27c0,0-16.34,13.13-22.68-.31L650,927Z"/><path class="cls-3" d="M608.76,889.36,656,954c-6-8.28-5.06-32.76,61.38-58.8l-45.43-59.88S611.17,856.61,608.76,889.36Z"/><path class="cls-4" d="M646.08,940.48c7.07-22.33,43.73-40.68,53.57-45a11.21,11.21,0,0,1,1.29-8.31l-29.1-38.89a13.8,13.8,0,0,1-10-1c-40.52,16.35-47.93,39.55-49,47.69Z"/><path class="cls-22" d="M646.08,940.48c7.07-22.33,43.73-40.68,53.57-45a11.21,11.21,0,0,1,1.29-8.31l-29.1-38.89a13.8,13.8,0,0,1-10-1c-40.52,16.35-47.93,39.55-49,47.69Z"/><path class="cls-6" d="M646.66,901.39c-10.11-15.92-28.21-16.51-30-1.26,0,.2,21.52,29.48,21.52,29.48C650.93,931.21,655.75,915.69,646.66,901.39Z"/><path class="cls-7" d="M673.39,873.09c7.35,10.36-1.94,16.9-9.32,6.5-3.07-4.33-3.47-9.3-.9-11.09S670.32,868.75,673.39,873.09Z"/><path class="cls-2" d="M644,921.32s6-28.71,33.1-46.66L639.2,859.11l-19.94,50.25Z"/><path class="cls-3" d="M578.86,904l74.58,29.18c-9.55-3.73-21.87-24.9,20.18-82.56l-70.49-26.1S563.3,875.12,578.86,904Z"/><path class="cls-4" d="M637.81,927.1c-6-22.64,15-57.81,21-66.7a11.2,11.2,0,0,1-3.38-7.7L610,835.53a13.8,13.8,0,0,1-9,4.49c-25.39,35.56-19.17,59.12-15.69,66.54Z"/><path class="cls-22" d="M637.81,927.1c-6-22.64,15-57.81,21-66.7a11.2,11.2,0,0,1-3.38-7.7L610,835.53a13.8,13.8,0,0,1-9,4.49c-25.39,35.56-19.17,59.12-15.69,66.54Z"/><path class="cls-6" d="M617.29,893.81c-11.09-5.18-23-3.3-26.55,4.21-1.57,3.31-1.25,7.16.54,10.87.09.19,34,13.31,34,13.31C636.92,916.67,632.64,901,617.29,893.81Z"/><path class="cls-7" d="M624.63,855.58c4.92,2,7.93,6,6.72,8.88s-6.17,3.62-11.09,1.62-7.92-6-6.72-8.88S619.71,853.58,624.63,855.58Z"/><path class="cls-1" d="M567.73,868.66c5.59,7.18,91.46,55.05,132.93,57.05,35.2,1.69-35.49,63.8-35.49,63.8l-112.1-33.36Z"/><path class="cls-2" d="M561.24,1002.71c-11.53-14.34-15.78-31-16.12-38.57l58.12-7.57,8.31-3.78c-5.75,9.32,7.14,32.88,14.35,49.92Z"/><path class="cls-3" d="M658.37,1002.71H568.85c-6.19-16.87-6.71-42.34-4.41-59.21l79.94-18.19c0,.06-.66,7.11-.61,7.11C642.22,953.26,642,989.76,658.37,1002.71Z"/><path class="cls-4" d="M647.31,1002.71H576.86c-6.15-13.75-7.05-29.9-5.79-45a15,15,0,0,0,5.86-8.91l51.71-11.44a11.26,11.26,0,0,0,7.42,4.56C635,959.92,637.51,987.34,647.31,1002.71Z"/><path class="cls-23" d="M647.31,1002.71H576.86c-6.15-13.75-7.05-29.9-5.79-45a15,15,0,0,0,5.86-8.91l51.71-11.44a11.26,11.26,0,0,0,7.42,4.56C635,959.92,637.51,987.34,647.31,1002.71Z"/><path class="cls-6" d="M597.49,1002.71c11.52-12.7,38.41-12.3,43.3,0Z"/><path class="cls-7" d="M612.79,961c1.17,7.46-19.39,11.5-20.56,4S611.63,953.55,612.79,961Z"/><path class="cls-1" d="M696.68,1002.71H662.61c18.06-8,28.18-17.51,32.88-25C695.53,978.36,696.65,1002.08,696.68,1002.71Z"/><path class="cls-2" d="M957.45,697.9c-2.22,14.16-32.51,38.88-59,54.64-15.65,15.26,8.29,17.46-21.92,22.57l46.06-95.31S942.38,691,957.45,697.9Z"/><path class="cls-3" d="M946.52,666.92s-25.79,95.39-70,108.2L834.2,759.49S882.1,737.37,908,649.36Z"/><path class="cls-4" d="M913.28,658.21c-1.09,3.3-3.52,8.26-6.94,7.59-9.43,31.47-30.41,70-58.26,89.07l1.49,4.79,27.65,10.57a23.85,23.85,0,0,0,7.1-2.74c11.5-6.25,33.9-26,55-88a22.48,22.48,0,0,1-1.39-9.2Z"/><path class="cls-24" d="M913.28,658.21c-1.09,3.3-3.52,8.26-6.94,7.59-9.43,31.47-30.41,70-58.26,89.07l1.49,4.79,27.65,10.57a23.85,23.85,0,0,0,7.1-2.74c11.5-6.25,33.9-26,55-88a22.48,22.48,0,0,1-1.39-9.2Z"/><path class="cls-7" d="M921,680.32c6.1,3.75,2.13,19.84-3.89,16.14S915,676.61,921,680.32Z"/><path class="cls-7" d="M871.58,753.9c6.55,1.36,5.07,10.74-1.45,9.38S865.05,752.54,871.58,753.9Z"/><path class="cls-6" d="M885.31,732.17c.94-8.1,6.65-14.5,12.77-14.29s10.32,6.92,9.38,15-6.65,14.49-12.76,14.29S884.38,740.26,885.31,732.17Z"/><path class="cls-1" d="M805.82,727.61c40.67,3.19,108.38,31.64,135.36-9.31l2.26,49.19L854.91,794.6l-55.43-31.1Z"/><path class="cls-2" d="M910.15,749.9c-17.87-7.63-39.77-16.95-54.68-41.17l-30.75,36.34L800,760.44s46.13,27.49,80.14,26.56S910.15,749.9,910.15,749.9Z"/><path class="cls-3" d="M827.63,698.33s34,47.93,94.06,49l-17.31,46S845,792,799.85,738.64Z"/><path class="cls-4" d="M810.21,734.49l16-23.8s4.42,2,7.07-.72c0,0,27.46,33.54,76.91,39.93,0,0-1.94,5,4.16,7.51l-10.41,27s-7.54-2.39-9.7,4.24c0,0-50.67-6.11-83.18-44C811,744.62,815.61,738.75,810.21,734.49Z"/><path class="cls-25" d="M810.21,734.49l16-23.8s4.42,2,7.07-.72c0,0,27.46,33.54,76.91,39.93,0,0-1.94,5,4.16,7.51l-10.41,27s-7.54-2.39-9.7,4.24c0,0-50.67-6.11-83.18-44C811,744.62,815.61,738.75,810.21,734.49Z"/><path class="cls-6" d="M871.61,759.48c-2.87,5.85-9.78,8.55-15.45,6s-7.93-9.28-5.06-15.12,9.78-8.55,15.45-6S874.48,753.64,871.61,759.48Z"/><path class="cls-7" d="M833.05,742.46c-4.48-2,0-11.06,4.45-9.07S837.53,744.44,833.05,742.46Z"/><path class="cls-7" d="M871.44,771.79c-3.83-1.7,0-9.46,3.81-7.76S875.3,773.5,871.44,771.79Z"/><path class="cls-1" d="M817.27,782.81s98.31-8.85,127.66-44.73l12.58,30.75-75.94,42.4-52.19-6.52Z"/><path class="cls-2" d="M176.72,773.52c-18.35,5.49-18.22,5.13-18.61,6.07-4.71,11.19,8.49,24.14,26.51,31a1.41,1.41,0,0,1,.24.13C175.22,772.83,175,774.08,176.72,773.52Z"/><path class="cls-2" d="M184.86,810.77l.78,3.06C185.52,812.18,185.69,811.3,184.86,810.77Z"/><path class="cls-1" d="M262.28,799.92,243.5,749.3l-60.85,16.19c-4.48,7.18-5.53,24.94,5.68,42.2Z"/><path class="cls-2" d="M244,831.6c-10.07-9.21,54.4-10,75.37-40.93l-44.93-15-49.89,43.08Z"/><path class="cls-3" d="M318.88,763.79s-27.76,58-80.79,65.71l-51.82-9.62s57.18-13.35,85.32-66.88Z"/><path class="cls-4" d="M278.33,758.4c-1.74,2.91-4.67,5-8.13,4.61-11,20.46-35.78,43.1-67.3,54.09l2,2.92,33.85,6.5a46.36,46.36,0,0,0,8.5-1.65c13.69-3.77,40.09-15.74,63.37-53.46a8.45,8.45,0,0,1-2-5.61Z"/><path class="cls-26" d="M278.33,758.4c-1.74,2.91-4.67,5-8.13,4.61-11,20.46-35.78,43.1-67.3,54.09l2,2.92,33.85,6.5a46.36,46.36,0,0,0,8.5-1.65c13.69-3.77,40.09-15.74,63.37-53.46a8.45,8.45,0,0,1-2-5.61Z"/><path class="cls-7" d="M288.5,771.88c7.48,2.29,3.37,12.12-4.12,9.82S281,769.59,288.5,771.88Z"/><path class="cls-7" d="M231.31,816.57c8,.84,6.59,6.56-1.42,5.71S223.31,815.72,231.31,816.57Z"/><ellipse class="cls-6" cx="260.57" cy="803.62" rx="13.54" ry="8.87" transform="translate(-77.02 29.19) rotate(-5.59)"/><path class="cls-3" d="M170.76,819.42l45.5,6.16c-5.82-.79-15.56-10.92.07-48.74l-42.82-5S158.17,805.42,170.76,819.42Z"/><path class="cls-4" d="M206.72,824.29c-6.43-11.8.55-34.25,2.69-40a6.45,6.45,0,0,1-2.93-3.84L178.84,777a7.9,7.9,0,0,1-4.41,3.72c-9.33,23.26-2.67,35.54.27,39.2Z"/><path class="cls-27" d="M206.72,824.29c-6.43-11.8.55-34.25,2.69-40a6.45,6.45,0,0,1-2.93-3.84L178.84,777a7.9,7.9,0,0,1-4.41,3.72c-9.33,23.26-2.67,35.54.27,39.2Z"/><path class="cls-6" d="M190.79,808.52c-10.6-2.14-18,5.11-12.46,11.93.08.09,20.75,2.8,20.75,2.8C204.83,818.59,200.29,810.44,190.79,808.52Z"/><path class="cls-7" d="M194.65,790.26c-.67,4.24-11.58,2.61-10.91-1.63S195.31,786,194.65,790.26Z"/><path class="cls-1" d="M203.89,756.36c9,17.47,56.8,66.77,86.75,78.75l-80.56,14-42.7-15.23-5.78-32.26Z"/><path class="cls-2" d="M406.22,803s-22.48-6.18-22-37.08l49.53-3.68s3.89,32.8,17.38,45.92S406.22,803,406.22,803Z"/><path class="cls-2" d="M378.53,824.53s-30-10.71-41-39.6l44.06-12.61s11.57,27.39,28.95,34.59S378.53,824.53,378.53,824.53Z"/><path class="cls-1" d="M384.7,830s-24.23-15.23-30.61-45.47L397.21,769s11.06,31.13,27.11,40.94S384.7,830,384.7,830Z"/><path class="cls-1" d="M419.09,823.62s-14.58-24.62-6.42-54.44l45.46,5.88s-4.41,32.74,5.38,48.8S419.09,823.62,419.09,823.62Z"/><path class="cls-2" d="M441.12,859.81l-82.95,18.34S418.79,930,465.84,925.21s12.76-43.87,12.76-43.87Z"/><path class="cls-4" d="M436.67,845.84a10.51,10.51,0,0,0,11.47,4.82c14.46,25.41,48.56,52.51,94.24,61.91l-3,4.4-48.84,15.35a67.83,67.83,0,0,1-12.11-.67C459,929,421.63,917.49,389.84,869.86a13.39,13.39,0,0,0,3.14-8.12Z"/><path class="cls-28" d="M436.67,845.84a10.51,10.51,0,0,0,11.47,4.82c14.46,25.41,48.56,52.51,94.24,61.91l-3,4.4-48.84,15.35a67.83,67.83,0,0,1-12.11-.67C459,929,421.63,917.49,389.84,869.86a13.39,13.39,0,0,0,3.14-8.12Z"/><path class="cls-7" d="M421.52,866.35c-10.81,4.56-5.37,17.34,5.49,12.76S432.38,861.77,421.52,866.35Z"/><path class="cls-7" d="M501.65,917.19c-11.5,2.68-9.71,10.29,1.79,7.61S513.14,914.51,501.65,917.19Z"/><ellipse class="cls-6" cx="460.23" cy="904.85" rx="19.47" ry="12.15" transform="translate(-128.42 77.77) rotate(-8.48)"/><path class="cls-1" d="M390.07,914c19.15,5.59,87.69,10.37,136.34-33.49s83,49.44,83,49.44L465.05,969.87Z"/><path class="cls-1" d="M759.05,770.21c1.12,5.73,7.25,37.32,7.25,37.32-5.73,1.57-12.16,3.3-35.3,6.26l1.91-.92c-22.78,1-43-3.54-64.16-12-2.79-1.1-5.46-2.22-8-3.3l-.22-.37-18.63-31,35.25,1.19,12.92-14.68,35.35,16.31C736.7,769.46,752.5,770,759.05,770.21Z"/><line class="cls-29" x1="759.74" y1="769.84" x2="733.31" y2="769.8"/><path class="cls-2" d="M793.25,789.55c-16.2,16.69-39.53,21.33-62.25,24.24l1.91-.92a141.25,141.25,0,0,1-43.68-5l4.14-2.87h0c5.49-3.8,75.72-52.6,76.95-53.46C796.3,794.63,779.4,766.56,793.25,789.55Z"/><path class="cls-3" d="M795.64,771.78c-18.49,20.81-48.87,37-55.32,40.7-3.15.5-6.27.92-9.32,1.31l1.91-.92c-22.78,1-43-3.54-64.16-12-2.79-1.1-5.46-2.22-8-3.3l-.12-.06-.1-.31L658.71,791C693,788.08,740,767.64,770,733.67Z"/><path class="cls-4" d="M787.79,767.73c-3.56,2.5-6.47,6.92-3.67,10.57-10.32,9.87-30.72,24.53-51.21,34.57-22.78,1-43-3.54-64.16-12l-.76-2.44s5-2.83,4.67-6.51c25.1-3.66,62.8-20.49,90.86-47,0,0,2.78,4.22,9.4.14Z"/><path class="cls-30" d="M787.79,767.73c-3.56,2.5-6.47,6.92-3.67,10.57-10.32,9.87-30.72,24.53-51.21,34.57-22.78,1-43-3.54-64.16-12l-.76-2.44s5-2.83,4.67-6.51c25.1-3.66,62.8-20.49,90.86-47,0,0,2.78,4.22,9.4.14Z"/><path class="cls-6" d="M742.81,783.36c2.77,5.42-.12,12.8-6.45,16.48s-13.7,2.25-16.47-3.17.13-12.81,6.46-16.48S740.05,777.93,742.81,783.36Z"/><path class="cls-7" d="M699.77,808.4c-5,2.91-9.3-5.51-4.29-8.42S704.77,805.49,699.77,808.4Z"/><path class="cls-7" d="M763.67,772c-5,2.9-9.29-5.52-4.28-8.42S768.7,769.1,763.67,772Z"/><path class="cls-1" d="M742.71,812.1c-1.23.21-5.53.9-11.71,1.69l1.91-.92C736.38,812.71,739.71,812.44,742.71,812.1Z"/><path class="cls-1" d="M774.86,805l-8.09,5-.47-2.42C769.11,806.76,772,805.91,774.86,805Z"/><polygon class="cls-1" points="419.09 824.84 519.77 866.38 509.71 915.17 419.14 880.95 419.09 824.84"/><path class="cls-2" d="M427.16,903.34c9.31-4.26,60,6.06,95.06-54.55l-49.36-14.66c-47.5,39-33.79,28-61.92,49.8Z"/><path class="cls-2" d="M370.13,847.38s.4,14.75,32.7,25.92S426,863.73,426,863.73,385.29,865.72,370.13,847.38Z"/><path class="cls-3" d="M371.07,866.89s65.58-9.27,87.48-69.78L504.26,839s-22,59.62-97.45,77.44Z"/><path class="cls-4" d="M405.72,903.7l-21.26-28.8s3.8-3.43,1.63-7.56c0,0,47.15-10.23,71.36-57.14,0,0,5,4.63,9.88-.27l26.74,24.84s-5.28,6.39,1.42,12.09c0,0-24.31,48.3-78.11,61.36C417.38,908.22,412.37,900.45,405.72,903.7Z"/><path class="cls-31" d="M405.72,903.7l-21.26-28.8s3.8-3.43,1.63-7.56c0,0,47.15-10.23,71.36-57.14,0,0,5,4.63,9.88-.27l26.74,24.84s-5.28,6.39,1.42,12.09c0,0-24.31,48.3-78.11,61.36C417.38,908.22,412.37,900.45,405.72,903.7Z"/><path class="cls-6" d="M455,854.45c5.59,6,6.24,14.46,1.47,18.89s-13.16,3.17-18.74-2.83-6.24-14.46-1.47-18.9S449.37,848.45,455,854.45Z"/><path class="cls-7" d="M422.54,884.67c-3.78,3.51-12.44-5.8-8.67-9.31S426.31,881.16,422.54,884.67Z"/><path class="cls-7" d="M471.06,840.7c-3.77,3.51-12.44-5.81-8.66-9.32S474.85,837.17,471.06,840.7Z"/><path class="cls-1" d="M350.59,841.93c36.16,18.61,71.25,67,139.84,57.42l-40.94,41.47-96.24,7.45-10.63-90.92Z"/><path class="cls-2" d="M439.07,951.36s-11-1.62-28.59-24.25l15-10.17s22.57,40.12,51.39,51.11Z"/><polygon class="cls-2" points="521.17 960.88 551.37 943.84 499.49 923.1 521.17 960.88"/><path class="cls-3" d="M541.13,925.61s-29.91,76.32-106.69,81l-78.28-18.87s81.82-12,113.15-82.09Z"/><path class="cls-4" d="M480.28,913.77a10.2,10.2,0,0,1-11.12,5.4c-11.81,25.7-43.27,54.69-89,66.59l3.48,4.22,51.18,12.62a69.49,69.49,0,0,0,12.22-1.32c19.49-3.66,56.16-17.12,83.33-66.16a14,14,0,0,1-4-7.9Z"/><path class="cls-32" d="M480.28,913.77a10.2,10.2,0,0,1-11.12,5.4c-11.81,25.7-43.27,54.69-89,66.59l3.48,4.22,51.18,12.62a69.49,69.49,0,0,0,12.22-1.32c19.49-3.66,56.16-17.12,83.33-66.16a14,14,0,0,1-4-7.9Z"/><path class="cls-7" d="M497.85,933.33c11.49,4,7.27,16.94-4.21,13S486.37,929.37,497.85,933.33Z"/><path class="cls-7" d="M422,988.16c12,2,10.95,9.7-1,7.66S410,986.12,422,988.16Z"/><ellipse class="cls-6" cx="462.69" cy="973.67" rx="12.03" ry="19.95" transform="translate(-558.79 1318.21) rotate(-83.22)"/><path class="cls-1" d="M528.28,998.72l-21.88,8.9H368.49l-20.09-11h0l-6.14-3.35,84.19-48.62c1.57,1.57,28.6,15.82,30.74,17h0C479.27,973.34,507.67,988.09,528.28,998.72Z"/><path class="cls-2" d="M68.62,833.14c-5.87,10.49-4.88,18.4-22,18.93a85.12,85.12,0,0,1-31.2-5.22s21.84-31.12,22.7-41.41Z"/><path class="cls-2" d="M83.29,802.47c18.38-10.71,60.53,2.6,73.45-25.76,23,11,13,6.25,47.67,22.29,0,0-47.71,28.58-84.81,32.18S83.29,802.47,83.29,802.47Z"/><path class="cls-3" d="M166,735.23s-30.45,56.71-95.58,66l25,47.61s64.32-9.52,106.2-73.6Z"/><path class="cls-4" d="M189.82,772.17l-20.57-23.7s-4.54,2.8-7.78.18c0,0-25.3,40.17-78.18,53.82,0,0,2.79,5.22-3.51,8.73l15,27.92s7.87-3.63,11.11,3.28c0,0,54.24-13.5,84.45-59.11C190.32,783.29,184.53,777.54,189.82,772.17Z"/><path class="cls-33" d="M189.82,772.17l-20.57-23.7s-4.54,2.8-7.78.18c0,0-25.3,40.17-78.18,53.82,0,0,2.79,5.22-3.51,8.73l15,27.92s7.87-3.63,11.11,3.28c0,0,54.24-13.5,84.45-59.11C190.32,783.29,184.53,777.54,189.82,772.17Z"/><path class="cls-6" d="M126.47,807.66c3.91,6,11.79,8,17.61,4.47S151.44,801,147.53,795s-11.79-8-17.61-4.47S122.56,801.7,126.47,807.66Z"/><path class="cls-7" d="M166.08,783.92c4.6-2.76-1.47-12-6.07-9.25S161.47,786.69,166.08,783.92Z"/><path class="cls-1" d="M188.7,825.65s-81.53-8.19-113.57-52.42L34.37,829.47l88.3,35.79,55.83-14.17Z"/><path class="cls-3" d="M146.16,823.86S85.79,831.51,33,784L18.4,831.48s52.39,46.69,125.93,44.11Z"/><path class="cls-4" d="M138,864.24l1.47-30.19s-5.14-2.07-5.68-6.2c0,0-45.41,2.4-92.46-32.67,0,0-1.56,5.23-8.45,2.14l-8.32,28s8.08,4.31,5.69,10.88c0,0,47.91,36.26,100.53,34.73C130.78,871,130.58,863,138,864.24Z"/><path class="cls-34" d="M138,864.24l1.47-30.19s-5.14-2.07-5.68-6.2c0,0-45.41,2.4-92.46-32.67,0,0-1.56,5.23-8.45,2.14l-8.32,28s8.08,4.31,5.69,10.88c0,0,47.91,36.26,100.53,34.73C130.78,871,130.58,863,138,864.24Z"/><path class="cls-6" d="M68.62,833.14c-1.27,6.56,3,14.09,9.52,16.82s12.86-.4,14.13-7-3-14.1-9.52-16.82S69.89,826.57,68.62,833.14Z"/><path class="cls-7" d="M113.05,851.7c5.17,2.15,7.14-8,2-10.19S107.89,849.55,113.05,851.7Z"/><path class="cls-7" d="M47.26,825c5.17,2.15,7.14-8,2-10.2S42.07,822.85,47.26,825Z"/><path class="cls-1" d="M135.37,818s-82.81,25.6-107.84,44c73.6,28.19,114.55,22.67,114.55,22.67,12.82-17.69,16.36-34.65,14.36-58.85Z"/><polygon class="cls-2" points="236.13 905.48 224.17 910.49 201.45 871.66 236.13 905.48"/><polygon class="cls-1" points="195.33 922.57 271.28 890.76 296.56 925.58 345.52 925.32 387.5 966.57 286.45 998.27 195.33 922.57"/><path class="cls-2" d="M284.76,886.45l2.93,31.91S202,933.74,158.43,905L197,831.69Z"/><path class="cls-3" d="M195,805.71s41.52,66.19,117.22,60.69l-23.12,69.36s-74.79,5-130.27-67.74Z"/><path class="cls-4" d="M172,860.73,192.83,824s5.52,2.44,8.93-1.89c0,0,33.68,45.88,95.86,49.41,0,0-2.59,7.61,5,10.51l-13.89,40.74s-9.43-2.61-12.34,7.35c0,0-63.72-3-103.66-54.64C172.76,875.47,178.72,866.33,172,860.73Z"/><path class="cls-35" d="M172,860.73,192.83,824s5.52,2.44,8.93-1.89c0,0,33.68,45.88,95.86,49.41,0,0-2.59,7.61,5,10.51l-13.89,40.74s-9.43-2.61-12.34,7.35c0,0-63.72-3-103.66-54.64C172.76,875.47,178.72,866.33,172,860.73Z"/><path class="cls-6" d="M248.75,890.09C245,899,236.18,903.76,229.1,900.76s-9.74-12.66-6-21.55,12.58-13.68,19.65-10.67S252.53,881.19,248.75,890.09Z"/><path class="cls-7" d="M200.61,869.7c-5.6-2.38.27-16.19,5.86-13.81S206.2,872.08,200.61,869.7Z"/><path class="cls-6" d="M271.31,900.83c-5.6-2.38.27-16.19,5.87-13.81S276.93,903.21,271.31,900.83Z"/><path class="cls-1" d="M178.42,936.7c53.44-20.74,140.37-71.78,152.33-92.52l40.68,63-164.3,84.54Z"/><polygon class="cls-2" points="332.36 972.13 318.71 993.23 299.47 980.2 332.36 972.13"/><polygon class="cls-4" points="318.71 993.23 311.26 965.3 368.05 970.88 318.71 993.23"/><path class="cls-2" d="M146,971s-30.48-8.37-29.84-50.28l67.16-5s5.28,44.48,23.56,62.27S146,971,146,971Z"/><path class="cls-2" d="M108.41,1000.19s-40.67-14.52-55.57-53.7l59.74-17.09s15.69,37.13,39.26,46.9S108.41,1000.19,108.41,1000.19Z"/><path class="cls-1" d="M155.08,980.63s-19.77-33.39-8.7-73.82l61.63,8s-6,44.39,7.3,66.18S155.08,980.63,155.08,980.63Z"/><path class="cls-1" d="M116.79,1007.62S83.94,987,75.29,946l58.46-21.1s15,42.21,36.76,55.52S116.79,1007.62,116.79,1007.62Z"/><path class="cls-3" d="M280.21,851.19s-9.73,70.93-82.29,113l51.56,33.93S321,956.27,340.79,872.34Z"/><path class="cls-4" d="M325.42,875.29,290.18,862.5s-4.05,5-9.1,4.11c0,0-11.29,52.14-67.38,92.27,0,0,5.7,3.7-.11,10.32L244.16,989s7.61-7.53,14.63-2.4c0,0,57.77-40.69,72.35-100.62C331.14,885.93,321.65,883.22,325.42,875.29Z"/><path class="cls-36" d="M325.42,875.29,290.18,862.5s-4.05,5-9.1,4.11c0,0-11.29,52.14-67.38,92.27,0,0,5.7,3.7-.11,10.32L244.16,989s7.61-7.53,14.63-2.4c0,0,57.77-40.69,72.35-100.62C331.14,885.93,321.65,883.22,325.42,875.29Z"/><path class="cls-6" d="M267.05,942.1c7.37,3.86,17.6,1.83,22.85-4.53s3.53-14.66-3.84-18.52-17.59-1.82-22.84,4.54S259.69,938.24,267.05,942.1Z"/><path class="cls-7" d="M302.82,898.82c4.16-5-7.28-11-11.43-6S298.67,903.85,302.82,898.82Z"/><path class="cls-7" d="M250.81,963.2c4.16-5-7.28-11-11.43-6S246.64,968.26,250.81,963.2Z"/><path class="cls-2" d="M367,979.7c15.08-3.34,53.92,3.43,80.44-10.27,0,0-43.7-26.24-43.08-37.49s-67.11,42.18-67.11,42.18Z"/><path class="cls-3" d="M436.75,949.43c-4.72,13-18.24,34.88-29.58,46.51h0c-1.06,1.23-4.85,5.27-9.09,9.22H314.85c-11.21-22.31.73,1.47-15.24-30.3,18.16-1.85,71.74-18.9,93.78-81.45l7.85,10.13v0l7.65,9.85h0C410.57,915.62,435.94,948.38,436.75,949.43Z"/><path class="cls-4" d="M427.29,958.71a146.54,146.54,0,0,1-11.57,19h0a159.72,159.72,0,0,1-24.6,27.48H322.53c-11-21.37-7.35-14.28-9.92-19.25a9.27,9.27,0,0,0,2.19-9.41c5-1,12.42-3.89,17.07-6.12h0c2.85-1.33,5.93-2.93,9.2-4.85h0c22.24-13.08,39.06-32.83,50.23-55.72A8.94,8.94,0,0,0,394,912h0c2.74,1.44,5.3.49,7.39-1.8,1.81,2.36,25.1,32.89,25.33,33.2A12.16,12.16,0,0,0,427.29,958.71Z"/><path class="cls-37" d="M427.29,958.71a146.54,146.54,0,0,1-11.57,19h0a159.72,159.72,0,0,1-24.6,27.48H322.53c-11-21.37-7.35-14.28-9.92-19.25a9.27,9.27,0,0,0,2.19-9.41c5-1,12.42-3.89,17.07-6.12h0c2.85-1.33,5.93-2.93,9.2-4.85h0c22.24-13.08,39.06-32.83,50.23-55.72A8.94,8.94,0,0,0,394,912h0c2.74,1.44,5.3.49,7.39-1.8,1.81,2.36,25.1,32.89,25.33,33.2A12.16,12.16,0,0,0,427.29,958.71Z"/><ellipse class="cls-6" cx="376.27" cy="974.79" rx="12.66" ry="17.72" transform="matrix(0.94, -0.33, 0.33, 0.94, -300.12, 178.36)"/><path class="cls-7" d="M350.54,1001c-4.09,4.15-12.2-8.2-8.12-12.34S354.62,996.84,350.54,1001Z"/><path class="cls-7" d="M402.94,949.17c-4.08,4.15-12.19-8.2-8.11-12.35S407,945,402.94,949.17Z"/><path class="cls-1" d="M448.9,979.89c-10.72,15.09-8.67,23.89-11.39,27.73H277.11l-5.62-8.25c30.52-18.45-20-4.45,70.92-59.4C363.35,959.57,420.41,974.36,448.9,979.89Z"/><path class="cls-2" d="M872.59,872.84c-18.23.29-36.76,0-54.8-2.51C823.3,851.69,836,825.26,829.84,815l7.77,3.82c57.89,8.28,20.75,3,53.43,7.65A75,75,0,0,1,872.59,872.84Z"/><path class="cls-3" d="M872.35,805.63c3,17.37,4.63,48.68-3.63,67.27-24.93.3-54.14-.86-78-8.47,8-8.48,14.34-29.77,7.76-77.18Z"/><path class="cls-4" d="M813.43,799.44,861.23,811a16.4,16.4,0,0,0,5.8,9c2.17,17.34,2.12,37.41-6.23,53-20-.05-42.3-1.29-61.77-6.16,10.74-18.55,8.89-52.93,7.87-62.74C808.13,804,811.46,802.71,813.43,799.44Z"/><path class="cls-38" d="M806.9,804a9.54,9.54,0,0,0,6.53-4.6L861.23,811a16.4,16.4,0,0,0,5.8,9c2.17,17.34,2.12,37.41-6.23,53-20-.05-42.3-1.29-61.77-6.16,10.74-18.55,8.89-52.93,7.87-62.74"/><path class="cls-6" d="M849,872.76c-14.36-.41-29.73-1.66-43.74-4.57,0-6.93,8.4-14.13,22.59-11.83C838.81,858.15,847.65,865.2,849,872.76Z"/><path class="cls-7" d="M829.12,823.31c-.68,7.58,18.3,11.59,19,4.08S829.8,815.8,829.12,823.31Z"/><path class="cls-2" d="M69.23,560.76s-18.26-1-29-15.16l22.22-14.1S73.27,544.71,84,545.86,69.23,560.76,69.23,560.76Z"/><path class="cls-8" d="M73.52,562.78s-15.81-4.46-24.23-20.09l21.22-15.56s11.14,15.35,21.58,18.15S73.52,562.78,73.52,562.78Z"/><path class="cls-39" d="M819.51,893.23a12.64,12.64,0,0,1-16.5,6.89"/><path class="cls-40" d="M819.51,893.23a12.64,12.64,0,0,1-16.5,6.89"/><path class="cls-39" d="M571.24,963a12.65,12.65,0,0,1-17.74-2.29"/><path class="cls-40" d="M571.24,963a12.65,12.65,0,0,1-17.74-2.29"/><path class="cls-9" d="M492.43,532l-.16.44L486.7,547.9,470.2,543l-1.93-.57-27.91-8.2-.41,6.4L439,555.22l0,.57v0l-1.24,19.28L432.23,551l-27.61,7.15,1.85,20.31-10.12-14.85L377,576.38c2.48,18.71,2.09,15.78,2.45,18.47-24,5,6.27-1.3-59.33,12.33l-33.58-9.47L282.13,619,279,594.48,250.16,610v20.24c-.89-2.5-.25-.7-3.23-9L221,624.12l-4.72,15.67-7-12.53c-13.53,2.67-8.41,1.64-33.23,6.54l4.3,14.05-26.26,8.87,4.28,9.77-32.13-3.61,12.05-9.56-24.92-11.18-20.35,9.58,6.76-14.14L68.57,623.79,56.66,638.34l-1-20.44-35.13-1.5-8.22,20.8L5.57,626.39V460.94l7.21-3.9,9.54,18.13,2.48-.71V448.69l46.88-.82-.33,15.35c3.11-.62,6.19-1.21,9.28-1.77L78,458l34.17-23.36,9.09,13.06-2.61-16.27,13.65-.74,14.92-.82,12.84-.71,2.56,23.3c.44,0,.89,0,1.33,0l3.34-15.82,39.4,9.42-2.44,6.34c8.69.27,17.3.74,25.78,1.41,1.13-2.85.24-.61,4.55-11.36l23.24,14.09q17.38,2.13,34.08,5.17l.78-16.73,39.42,6.44L331,469.94q5.43,1.33,10.75,2.74l8.9-13L374,480c1.34.47,4.17,1.67,7.68,3.22h0c4.8,2.13,10.87,4.89,16.07,7.24,4.86,2.19,9,4,10.63,4.65l.56-9.19,33.73,10.18.2,9.34.06,2.73c7.58,3.36,15.65,7.07,23.52,10.81,9,4.26,17.64,8.56,25,12.46.22.11.45.22.66.34Z"/><path class="cls-2" d="M961.06,700.85l8.73-26.38,43.87-10.37,5.19,13.63-4.65-25.13,37.6,4.8,1.5,16,3.16-8.2,33,27.66s.65,2.2-6.29,16.71-23.6,1.67-23.6,1.67Z"/><polygon class="cls-1" points="955.38 711.46 957.78 675.79 1003.32 667.59 1000.77 699.2 1011.4 659.81 1042.51 671.45 1036.04 695.46 1045.6 675.85 1082.63 703.89 1067.49 726.6 955.38 711.46"/><polygon class="cls-1" points="1103.43 364.77 1095.71 404.05 1039.54 396.5 1060.98 343.54 1103.43 364.77"/><polygon class="cls-1" points="981.68 383.85 968.44 355.43 940.33 362.81 953.92 398.7 981.68 383.85"/><polygon class="cls-1" points="1026.87 352.86 986.58 349.34 977.04 381.29 1018.19 388.31 1026.87 352.86"/><polygon class="cls-2" points="1081.85 469.1 1036.17 462.23 1027.73 483.41 1081.85 469.1"/><path class="cls-2" d="M568.64,650.69l6.2-31.64,34.26,6.71.35,13.38,7.64-13.82,30.71,14.83c-6.68,9.25-10.5,15.49-19.59,22l-4.56.88Z"/><polygon class="cls-1" points="624.86 664.85 636.63 641.75 605.93 626.92 598.28 640.74 597.94 627.35 563.67 620.65 557.48 652.29 624.86 664.85"/><polygon class="cls-1" points="584.62 592.79 589.07 574.25 554.64 560.59 540.84 578.56 584.62 592.79"/><polygon class="cls-2" points="296.88 659.19 292.26 641.91 258.8 643.56 265.56 667.02 251.99 650.12 224.93 669.51 249.48 684.89 296.88 659.19"/><polygon class="cls-1" points="304.03 657.72 304.36 642.44 273.15 643.9 273.15 664.64 265.15 649.7 235.14 666.84 250.39 689.44 304.03 657.72"/><polygon class="cls-2" points="905.45 888.48 847.64 905.52 905.45 905.52 905.45 888.48"/><polygon class="cls-2" points="989.97 784.67 1037.46 790.59 1034.39 772.16 989.97 784.67"/><polygon class="cls-2" points="369.22 715.92 292.71 721.53 285.53 743.06 279.07 702.44 369.22 715.92"/><polygon class="cls-1" points="379.67 715.89 299.09 698.4 277.49 753.88 333.61 762.36 379.67 715.89"/><polygon class="cls-1" points="1029.42 376.7 1096.34 348.59 1115.09 378.99 1075.5 399.56 1029.42 376.7"/><polygon class="cls-2" points="1095.04 945.15 1082.53 948.55 1065.11 907.07 1095.04 945.15"/><polygon class="cls-2" points="868.55 956.01 822.56 947.24 800.48 985.22 815.64 935.01 868.55 956.01"/><polygon class="cls-2" points="994.01 518.73 951.66 524.15 966.55 531.45 994.01 518.73"/><path class="cls-1" d="M468.42,547.48c4.48-3.91,85.52-57.07,220.92-27.89L593.8,602.21Z"/><polygon class="cls-1" points="643.59 533.3 622.85 499.81 655.91 477.86 675.49 510.17 643.59 533.3"/><path class="cls-2" d="M37.6,757.36c12,6.48,27.93,13.46,53.86,10l18-36.41s-47.87,7-62.34-3.49Z"/><path class="cls-2" d="M425,716c-2.13.53-29.77,23.92-29.77,23.92s39.87,15.42,72.84,12.76l4.25-12.22Z"/><path class="cls-2" d="M163,629.93s-16.59-2.4-26.93-13.71l25.79-13.93,16.29,21.15Z"/><path class="cls-2" d="M1085.8,987.87l-20.58-1.53c-3.36,2.29-6.93,4.55-10.71,6.74.34-2,.91-5.58,1.12-7.45l.8.06c1.37-.87,2.69-1.76,4-2.64-27.74,0-20.24-.37-34.22,1.44,0,0,.51-7.6,1-1.44H989.44l-10.35-26.36,90.38-41.46C1087.09,993.6,1083.21,976.44,1085.8,987.87Z"/><path class="cls-2" d="M1099.05,555.64s-2.4,29.51-39.88,55.83c0,0,2.66.79-27.12,12l28.71-76.57Z"/><path class="cls-3" d="M996.82,604.87s45-29.83,39.92-82l48.33,14.78s4.75,51.59-44.56,91.19Z"/><path class="cls-4" d="M1035.24,619.81l-25.75-13.74s1.6-3.86-1.45-6.14c0,0,31.12-24.07,32.48-67.09,0,0,5.3,1.65,7.18-3.66l28.39,8.89s-1.64,6.57,5.29,8.41c0,0-1,44.08-36,72.57C1045.41,619.05,1039,615.09,1035.24,619.81Z"/><path class="cls-10" d="M1035.24,619.81l-25.75-13.74s1.6-3.86-1.45-6.14c0,0,31.12-24.07,32.48-67.09,0,0,5.3,1.65,7.18-3.66l28.39,8.89s-1.64,6.57,5.29,8.41c0,0-1,44.08-36,72.57C1045.41,619.05,1039,615.09,1035.24,619.81Z"/><path class="cls-6" d="M1054.2,566.28c6.22,2.46,9.67,8.46,7.72,13.4s-8.58,7-14.79,4.49-9.67-8.46-7.71-13.4S1048,563.82,1054.2,566.28Z"/><path class="cls-6" d="M1041,599.9c-1.55,3.91-11.19.09-9.65-3.81S1042.49,596,1041,599.9Z"/><path class="cls-6" d="M1061.24,550.51c-1.55,3.91-11.19.09-9.65-3.81S1062.79,546.59,1061.24,550.51Z"/><path class="cls-3" d="M1108.37,943.72c-8.69,14.48-29.17,35-53.86,49.36.34-2,.91-5.58,1.12-7.45l.8.06c1.37-.87,2.69-1.76,4-2.64-27.74,0-20.24-.37-34.22,1.44,0,0,.51-7.6,1-1.44H980.52l-.8.87-1.09-.87H950.22c-8.36-17.93-16.87-36.16-16.87-36.16,11.12.54,32.06-1.68,51.61-8h0c32.11-10.35,58.5-30,75.74-59.07Z"/><path class="cls-4" d="M1055.63,985.63l.8.06-.87.57C1055.61,985.84,1055.63,985.63,1055.63,985.63Z"/><path class="cls-4" d="M1095.41,951.57c-6.27,8.14-20,21.29-35,31.48-27.74,0-20.24-.37-34.22,1.44,0,0,.51-7.6,1-1.44H980.52c-.27.29-.54-5.57-.8-5.27l-1.09,5.27H959.29c-9.5-19.8-7.27-15.17-10.95-22.8,2.94-2,5-5.3,3.9-9.15v0c31.75-.88,75.83-19.12,103.94-55,0,0,5.2,7.06,12.54,2,.5.68,18.76,25.5,27.81,37.82C1092.73,939.08,1090.45,945.11,1095.41,951.57Z"/><path class="cls-11" d="M1055.63,985.63l.8.06-.87.57C1055.61,985.84,1055.63,985.63,1055.63,985.63Z"/><path class="cls-11" d="M960.15,975.68l-8.94-9.49-2.87-5.94c2.94-2,5-5.3,3.9-9.15v0c31.75-.88,75.83-19.12,103.94-55,0,0,5.2,7.06,12.54,2,.5.68,18.76,25.5,27.81,37.82-3.79,3.14-6.07,9.17-1.11,15.63-6.27,8.14-20,21.29-35,31.48-20.63,9.77-18.77,9.83-32.77,11.41"/><path class="cls-6" d="M1042.35,951.39c5.6,8.92,4.4,19.77-2.7,24.23s-17.39.83-23-8.1-4.4-19.77,2.7-24.23S1036.74,942.46,1042.35,951.39Z"/><path class="cls-7" d="M994.1,981.77c-5.62,3.52-14.32-10.34-8.7-13.86S999.71,978.24,994.1,981.77Z"/><path class="cls-7" d="M1066,937.89c-5.61,3.53-14.31-10.33-8.7-13.85S1071.65,934.35,1066,937.89Z"/><path class="cls-2" d="M983.69,983.05c-23.44-18.48,14.45,11.38-23.49-18.52l43.08-35.09a44.67,44.67,0,0,0,13.58-5.7c6.44-3.86,18.79-13.4,18.79-13.4.21,1.22-11.82,32.84-26.42,51.69,2.67,5.44,6.89,13.4,11.19,21Z"/><path class="cls-1" d="M989.32,947.79l-34.7,16.35,20.89,16.45a30.65,30.65,0,0,1,4.91.31c.21-.23,12.54,20.84,13.45,22.09,1.35,1.85,81.36-5.91,105.64-12.14-3-3.5-85.3-5.25-91.33-15.72C1002.32,965,993.3,955.25,989.32,947.79Z"/><polygon class="cls-2" points="988.52 975.31 1006.86 967.73 995.3 946.2 988.52 975.31"/><path class="cls-3" d="M981.84,981.59c-.43.49-.67-4-1.11-3.46-.27.3-1-7.66-1.23-7.37l-5.22,7.68c-78.19-2.92-58.58-.84-93.19-8.66,12.22-7,32.12-23.55,46.69-44.28,14.13-20.14,25.72-47.1,24.65-80.74L1027,873C1027.58,896.25,1015.66,944.45,981.84,981.59Z"/><path class="cls-4" d="M1020.26,886.63c-1.49,17.06-12.39,61.09-44.75,94-.81.83-3.77-11.87-4.61-11.06-62.06,6.5-48,6.12-70,3.46,0,0,2.92-5.91-1.64-9.82,17-11.49,52.78-47.92,58.09-102.24,0,0,8.17,3.16,11.67-5l43.78,17S1009.53,883,1020.26,886.63Z"/><path class="cls-11" d="M1020.26,886.63c-1.49,17.06-12.39,61.09-44.75,94-.81.83-3.47-5.42-4.3-4.61-62.79,0-48.66.86-70.31-3,0,0,2.92-5.91-1.64-9.82,17-11.49,52.78-47.92,58.09-102.24,0,0,8.17,3.16,11.67-5l43.78,17S1009.53,883,1020.26,886.63Z"/><ellipse class="cls-6" cx="968.92" cy="928.7" rx="15.17" ry="19.09" transform="translate(-285.3 1406.43) rotate(-64.64)"/><path class="cls-7" d="M951.06,966.54c-2.84,6-17.62-1-14.78-7S953.9,960.55,951.06,966.54Z"/><path class="cls-7" d="M988.12,890.9c-2.84,6-17.62-1-14.78-7S991,884.88,988.12,890.9Z"/><path class="cls-3" d="M22.49,766.06s47.19,9.7,74.42-24.4l16.17-42.07S80.63,733.78,36,726.65Z"/><path class="cls-4" d="M36.45,734.24a6,6,0,0,0,6.26-3.49c16.67,2.5,41.09-3.31,61.6-20.65l.94,2.91L94.83,740.6a39.72,39.72,0,0,1-4.62,5.25c-8.13,7.89-26.65,20.72-59.55,18.16a7.71,7.71,0,0,0-2.56-4.31Z"/><path class="cls-12" d="M36.45,734.24a6,6,0,0,0,6.26-3.49c16.67,2.5,41.09-3.31,61.6-20.65l.94,2.91L94.83,740.6a39.72,39.72,0,0,1-4.62,5.25c-8.13,7.89-26.65,20.72-59.55,18.16a7.71,7.71,0,0,0-2.56-4.31Z"/><path class="cls-7" d="M40.35,748.41c-1.78,6.52,5.95,8.6,7.74,2.05S42.14,741.85,40.35,748.41Z"/><path class="cls-7" d="M91.91,730.2c-2.88,6.17,1.2,8.06,4.08,1.9S94.79,724,91.91,730.2Z"/><path class="cls-6" d="M77.13,734.82c-8-4.55-19.16,14.92-11.11,19.51S85.17,739.41,77.13,734.82Z"/><path class="cls-1" d="M158.47,628.6l36.35-12.45c-4.65,1.6-16.7-1.12-23.58-29.77l-33.81,12.2S142.46,624.54,158.47,628.6Z"/><path class="cls-1" d="M187.2,618.76c-10.43-4.91-16.2-21.1-17.42-25.38a6.79,6.79,0,0,1-4-1.3l-21.92,7.77a4.69,4.69,0,0,1-1.42,3.84c4.43,17.52,15.26,22.64,19.19,23.83Z"/><path class="cls-41" d="M187.2,618.76c-10.43-4.91-16.2-21.1-17.42-25.38a6.79,6.79,0,0,1-4-1.3l-21.92,7.77a4.69,4.69,0,0,1-1.42,3.84c4.43,17.52,15.26,22.64,19.19,23.83Z"/><path class="cls-9" d="M160.32,623.51a6.48,6.48,0,0,0,4.2,3c.1,0,16.57-5.67,16.57-5.67a3.75,3.75,0,0,0-.06-3.16C177.31,610,156.64,615.91,160.32,623.51Z"/><path class="cls-42" d="M161.85,602.29c1.57,2.82-7.21,5.72-8.78,2.89S160.28,599.46,161.85,602.29Z"/><path class="cls-3" d="M396.68,718.81s35.27,45.69,86.67,36l47.57-25.58s-56.2,5.69-91.14-35.65Z"/><path class="cls-4" d="M434.24,700.82a7.24,7.24,0,0,0,8.41,1.73c13.18,15.29,39.9,29.1,72.1,29.38l-1.42,3.38-31.05,16.91a45.69,45.69,0,0,1-8.3,1.16c-13.55.82-40.4-2-68.28-30a9.25,9.25,0,0,0,1.05-5.91Z"/><path class="cls-14" d="M434.24,700.82a7.24,7.24,0,0,0,8.41,1.73c13.18,15.29,39.9,29.1,72.1,29.38l-1.42,3.38-31.05,16.91a45.69,45.69,0,0,1-8.3,1.16c-13.55.82-40.4-2-68.28-30a9.25,9.25,0,0,0,1.05-5.91Z"/><path class="cls-7" d="M426.7,716.73c-6.72,4.53-1.33,12.47,5.42,7.92S433.45,712.18,426.7,716.73Z"/><path class="cls-7" d="M487.76,740.5c-7.43,3.34-5.2,8.26,2.23,4.91S495.2,737.15,487.76,740.5Z"/><ellipse class="cls-6" cx="458.06" cy="737.66" rx="13.45" ry="8.39" transform="translate(-221.12 196.66) rotate(-19.62)"/><path class="cls-3" d="M876.53,502.4l31,42.23-15.37,16.81L863.4,518.38S858.8,512,876.53,502.4Z"/><path class="cls-4" d="M887.23,523.49l-7.8-11.63s-4,.87-5.63-2c0,0-11.61,7-4.87,13.83l9.56,4.39Z"/><path class="cls-15" d="M887.23,523.49l-7.8-11.63s-4,.87-5.63-2c0,0-11.61,7-4.87,13.83l9.56,4.39Z"/><path class="cls-3" d="M892.13,561.44,863.4,518.38c3.67,5.51,18.75,10.37,49.34-24.15L939,535.13S912.53,567.27,892.13,561.44Z"/><path class="cls-4" d="M869.42,527.4c15.12.69,34.42-17.47,39.2-22.49A7.3,7.3,0,0,0,914,506l17.11,26.32a8.94,8.94,0,0,0-1.59,6.3c-18.94,20.94-34.67,20.27-39.84,19.1Z"/><path class="cls-15" d="M869.42,527.4c15.12.69,34.42-17.47,39.2-22.49A7.3,7.3,0,0,0,914,506l17.11,26.32a8.94,8.94,0,0,0-1.59,6.3c-18.94,20.94-34.67,20.27-39.84,19.1Z"/><path class="cls-6" d="M893.27,535.76c7.4,9.68,3.73,20.79-5.93,18.51-.13,0-13.1-19.63-13.1-19.63C876.13,526.5,886.63,527.08,893.27,535.76Z"/><path class="cls-7" d="M909.86,522.82c-4,2.77,3.08,13,7,10.24S913.83,520.05,909.86,522.82Z"/><path class="cls-1" d="M861.48,523.63c2.12.53,54.61,16.47,85-2.29,20.51-12.67,17,22.33,17,22.33l-70,33.41Z"/><path class="cls-3" d="M996.82,604.87s45-29.83,39.92-82l48.33,14.78s4.75,51.59-44.56,91.19Z"/><path class="cls-4" d="M1035.24,619.81l-25.75-13.74s1.6-3.86-1.45-6.14c0,0,31.12-24.07,32.48-67.09,0,0,5.3,1.65,7.18-3.66l28.39,8.89s-1.64,6.57,5.29,8.41c0,0-1,44.08-36,72.57C1045.41,619.05,1039,615.09,1035.24,619.81Z"/><path class="cls-10" d="M1035.24,619.81l-25.75-13.74s1.6-3.86-1.45-6.14c0,0,31.12-24.07,32.48-67.09,0,0,5.3,1.65,7.18-3.66l28.39,8.89s-1.64,6.57,5.29,8.41c0,0-1,44.08-36,72.57C1045.41,619.05,1039,615.09,1035.24,619.81Z"/><path class="cls-6" d="M1054.2,566.28c6.22,2.46,9.67,8.46,7.72,13.4s-8.58,7-14.79,4.49-9.67-8.46-7.71-13.4S1048,563.82,1054.2,566.28Z"/><path class="cls-6" d="M1041,599.9c-1.55,3.91-11.19.09-9.65-3.81S1042.49,596,1041,599.9Z"/><path class="cls-7" d="M1061.24,550.51c-1.55,3.91-11.19.09-9.65-3.81S1062.79,546.59,1061.24,550.51Z"/><path class="cls-1" d="M411.73,752.19s70.18-8.5,103.15-36.15l33.5,19.14L450,774.53Z"/><path class="cls-9" d="M199.3,613.82c-6,1.2-43.29,14.91-55.31,13.95l8.9,8.41,50.74-18Z"/><path class="cls-1" d="M1003.82,986.66h-19c-.27.29-1.16-3-1.42-2.7-13,6.13-109.46,2.45-109,2.08l-16.53-9.79c42.83-40.6-7.18,6.82,61.69-58.48,33,30.9,68.36,57.42,68.36,57.42C990.12,976.82,995.48,980.9,1003.82,986.66Z"/><path class="cls-1" d="M43.08,707.48c2.5,20.45,11,53.37,20.45,64.84,0,0-49.37,9.47-56.36.5s19.45-58.36,19.45-58.36Z"/><polygon class="cls-2" points="571.86 790.65 558.83 801.55 553.25 790.12 571.86 790.65"/><path class="cls-4" d="M558.83,801.55l2.39-18.61s23.66,14.89,35.36,15.42Z"/><path class="cls-2" d="M794.18,899.17s5.78,1.41,13.36-2.58L790.39,883Z"/><polygon class="cls-3" points="776.04 879.42 800.76 883.43 794.18 899.16 776.04 879.42"/><path class="cls-2" d="M343.15,665c.5-.33,9.11-2.65,9.11-2.65l-12.09-6.78Z"/><polygon class="cls-3" points="343.15 664.96 348.65 652.88 325.94 653.71 343.15 664.96"/><path class="cls-2" d="M558.66,677.43c.82-.55-15.13-9.23-15.13-9.23l10.23-6.28Z"/><polygon class="cls-3" points="558.66 677.43 564.81 660.72 548.2 657.22 558.66 677.43"/><path class="cls-2" d="M117,591.45c-.58-.33-10.69-2.64-10.69-2.64L120.5,582Z"/><polygon class="cls-9" points="117 591.45 120.92 579.83 137.22 580.2 117 591.45"/><path class="cls-1" d="M1000.15,570.79s46.65,35.89,73.37,42.27l-16.75,32.3L969,605.08Z"/><path class="cls-2" d="M911.35,816.44c-.26,1.33-6.11,12-5.32,12s-12.22-12-12.22-12Z"/><polygon class="cls-4" points="906.03 828.4 902.31 810.59 929.16 814.84 906.03 828.4"/><path class="cls-2" d="M434.88,646s-11.1-1.79-13.61-3.94c0,0,24-17.55,27.23-22.56l6.09,25.79Z"/><path class="cls-3" d="M451.8,602.16s14.24,38.72,54,44.12L486.25,679.6s-39.18-5.55-59.92-49.18Z"/><path class="cls-4" d="M433.93,628.09l14.75-16.72s2.58,1.86,4.82,0c0,0,12.4,27.36,44.14,36,0,0-2.16,3.65,1.46,6l-11.61,19.54a5.25,5.25,0,0,0-7.18,2.45s-32.6-8.47-47.61-39.52C432.7,635.78,436.77,631.71,433.93,628.09Z"/><path class="cls-16" d="M433.93,628.09l14.75-16.72s2.58,1.86,4.82,0c0,0,12.4,27.36,44.14,36,0,0-2.16,3.65,1.46,6l-11.61,19.54a5.25,5.25,0,0,0-7.18,2.45s-32.6-8.47-47.61-39.52C432.7,635.78,436.77,631.71,433.93,628.09Z"/><path class="cls-6" d="M470.37,651.61c-2.92,4.18-8,5.69-11.31,3.37s-3.66-7.6-.73-11.78,8-5.7,11.31-3.37S473.29,647.42,470.37,651.61Z"/><path class="cls-7" d="M447.72,635.83c-2.64-1.84,1.9-8.33,4.53-6.49S450.35,637.67,447.72,635.83Z"/><path class="cls-6" d="M480.86,659.61c-2.64-1.83,1.9-8.33,4.53-6.49S483.5,661.46,480.86,659.61Z"/><path class="cls-1" d="M406.58,633.77C441.69,656,501.87,656,527.66,639.51l3.58,23.64-24.35,28.66-91.71-10Z"/><path class="cls-2" d="M339.36,624.57s-26.37-12.49-29-14.78c0,0,27.28-7.26,30.72-12.6l4.77,16Z"/><path class="cls-3" d="M362.54,564.06s-4.37,36.51,25,56.88l-29,18.56s-28.86-20.27-27.66-63.31Z"/><path class="cls-4" d="M337.85,577.41l18.48-7.3s1.3,2.53,3.83,1.95c0,0-1.23,26.75,20.49,46.43a3.87,3.87,0,0,0-1.26,5.33l-17.14,10.82a4.67,4.67,0,0,0-6.69-1S333.11,613.75,333.77,583C333.77,583,338.65,581.44,337.85,577.41Z"/><path class="cls-17" d="M337.85,577.41l18.48-7.3s1.3,2.53,3.83,1.95c0,0-1.23,26.75,20.49,46.43a3.87,3.87,0,0,0-1.26,5.33l-17.14,10.82a4.67,4.67,0,0,0-6.69-1S333.11,613.75,333.77,583C333.77,583,338.65,581.44,337.85,577.41Z"/><path class="cls-6" d="M346.92,608.94c-4.06-7.62,10.46-15.4,14.54-7.75S351,616.59,346.92,608.94Z"/><path class="cls-7" d="M345.67,589.15c-1.35-2.53,4.88-5.85,6.23-3.33S347,591.67,345.67,589.15Z"/><path class="cls-6" d="M362.35,621.45c-1.35-2.53,4.89-5.85,6.23-3.33S363.7,624,362.35,621.45Z"/><path class="cls-1" d="M316.94,591.36c37.4,23.67,53.52,10.54,81-7l20.74,33.5-4.72,53L326.1,642.51Z"/><path class="cls-2" d="M620,563s11.83-1.91,14.51-4.2c0,0-27.29-7.26-30.73-12.6l-4.77,16Z"/><path class="cls-3" d="M603.92,539s-18.86,31.56-54.54,29.74L561,601.09s35.23,1.6,60.6-33.19Z"/><path class="cls-4" d="M615.29,564.61l-10.15-17.08s-2.57,1.2-4.22-.8c0,0-15.38,21.93-44.6,24.22a3.88,3.88,0,0,1-2.27,5l7,19a4.68,4.68,0,0,1,5.88,3.34s30-2,48.22-26.76C615.1,571.55,612.2,567.31,615.29,564.61Z"/><path class="cls-17" d="M615.29,564.61l-10.15-17.08s-2.57,1.2-4.22-.8c0,0-15.38,21.93-44.6,24.22a3.88,3.88,0,0,1-2.27,5l7,19a4.68,4.68,0,0,1,5.88,3.34s30-2,48.22-26.76C615.1,571.55,612.2,567.31,615.29,564.61Z"/><path class="cls-6" d="M579.49,579.2c1.87,4.14,6.06,6.3,9.36,4.82s4.45-6.06,2.58-10.2-6-6.31-9.35-4.82S577.63,575.05,579.49,579.2Z"/><path class="cls-7" d="M601.94,569.11c2.61-1.17-.29-7.61-2.9-6.43S599.33,570.29,601.94,569.11Z"/><path class="cls-6" d="M569,584.48c2.61-1.18-.29-7.62-2.9-6.44S566.37,585.66,569,584.48Z"/><path class="cls-1" d="M653,548c-37.41,23.66-101.53,23.66-129,6.11l-3.81,25.19,41.54,30.27,82.12-10.43Z"/><path class="cls-2" d="M126.37,699.29c-.65-.44-12-3.49-12-3.49l16-9Z"/><polygon class="cls-3" points="126.37 699.29 119.12 683.34 149.1 684.43 126.37 699.29"/><path class="cls-2" d="M753.66,610.93c6.06-8.2,16.4-24.24,18.89-37.78,0,0-36,2.85-39.92-1.79s-16.76,47.06-16.76,47.06Z"/><path class="cls-3" d="M701.41,618.17s30-33.45,15-74.46l42,1.8s14.63,40.57-16.82,82.79Z"/><path class="cls-4" d="M735.49,622.17l-23.63-5.68s.48-3.44-2.45-4.64c0,0,20-25.91,12.13-60.86,0,0,4.62.22,5-4.45l24.74,1.22a5.72,5.72,0,0,0,6,5.67s8.46,35.72-13.79,66C743.53,619.43,737.53,617.58,735.49,622.17Z"/><path class="cls-18" d="M735.49,622.17l-23.63-5.68s.48-3.44-2.45-4.64c0,0,20-25.91,12.13-60.86,0,0,4.62.22,5-4.45l24.74,1.22a5.72,5.72,0,0,0,6,5.67s8.46,35.72-13.79,66C743.53,619.43,737.53,617.58,735.49,622.17Z"/><ellipse class="cls-6" cx="738.59" cy="583.02" rx="8.01" ry="10.07" transform="translate(69.52 1244.67) rotate(-82.97)"/><path class="cls-7" d="M735.92,604.94c-.43,3.47-9,2.41-8.57-1.06S736.35,601.47,735.92,604.94Z"/><path class="cls-7" d="M741.93,560.9c-.43,3.47-9,2.41-8.57-1.06S742.36,557.41,741.93,560.9Z"/><path class="cls-1" d="M688.07,613.78c16.4-1.78,65.23-4.63,84.13-17.46L779,635.89l-91.61,6.41Z"/><path class="cls-2" d="M186.37,752.19c-7.86-4.87-22-15.19-28.47-27.07,0,0,31.93-15.53,33.81-22s29.62,37.15,29.62,37.15Z"/><path class="cls-3" d="M233.71,732.66S197,715.45,196.75,668l-35.62,23.12s.51,46.82,41.23,71.81Z"/><path class="cls-4" d="M205.65,753.86l18.51-17.52a5.69,5.69,0,0,1,.61-5.76s-25.62-15-30.1-52.89c0,0-3.9,2.56-5.76-1.77L168,689.68a7.45,7.45,0,0,1-3.35,8.56s4.25,39,33.19,57C197.84,755.29,202.41,750.45,205.65,753.86Z"/><path class="cls-18" d="M205.65,753.86l18.51-17.52a5.69,5.69,0,0,1,.61-5.76s-25.62-15-30.1-52.89c0,0-3.9,2.56-5.76-1.77L168,689.68a7.45,7.45,0,0,1-3.35,8.56s4.25,39,33.19,57C197.84,755.29,202.41,750.45,205.65,753.86Z"/><path class="cls-6" d="M182.13,723.72c4.47,9.46,21-3,16.42-12.56S177.6,714.14,182.13,723.72Z"/><path class="cls-7" d="M199.71,737.36c1.49,3.15,8.53-2.23,7-5.38S198.22,734.21,199.71,737.36Z"/><path class="cls-7" d="M180.31,697.67c1.49,3.15,8.53-2.23,7-5.39S178.82,694.5,180.31,697.67Z"/><path class="cls-1" d="M243.78,721.62c-14.7,6.6-57.68,28.66-78.09,25.81l6.94,41.85,81-40.34Z"/><path class="cls-3" d="M680.89,662.58l-28.11,48.58,18.33,16.13,25.63-49.21S700.9,670.76,680.89,662.58Z"/><path class="cls-4" d="M671.93,686.28l7-13.29s4.32.47,5.77-2.81c0,0,13.17,6.1,6.78,14.18l-9.67,5.77Z"/><path class="cls-19" d="M671.93,686.28l7-13.29s4.32.47,5.77-2.81c0,0,13.17,6.1,6.78,14.18l-9.67,5.77Z"/><path class="cls-3" d="M671.11,727.29l25.63-49.21c-3.28,6.3-18.78,13.22-55.38-20l-23.21,46.62S650,735.87,671.11,727.29Z"/><path class="cls-4" d="M691.37,688.4c-16,2.48-38.71-14.64-44.39-19.44a7.77,7.77,0,0,1-5.55,1.76l-15.2,30a9.52,9.52,0,0,1,2.42,6.53c22.62,20.13,39.3,17.59,44.68,15.75Z"/><path class="cls-19" d="M691.37,688.4c-16,2.48-38.71-14.64-44.39-19.44a7.77,7.77,0,0,1-5.55,1.76l-15.2,30a9.52,9.52,0,0,1,2.42,6.53c22.62,20.13,39.3,17.59,44.68,15.75Z"/><path class="cls-6" d="M666.92,700.06c-6.77,11.17-1.57,22.59,8.45,19,.14-.05,11.69-22.43,11.69-22.43C684.11,688.21,673,690.05,666.92,700.06Z"/><path class="cls-7" d="M647.74,688.2c4.55,2.49-1.77,14.22-6.32,11.73S643.19,685.7,647.74,688.2Z"/><path class="cls-1" d="M699.39,683.46c-2.2.81-56.28,23.87-90.81,7.39C585.26,679.72,593,716.62,593,716.62l78.43,27.5Z"/><path class="cls-2" d="M841.72,596.81s20.81-5.72,20.37-34.32l-45.84-3.41s-3.6,30.36-16.08,42.5S841.72,596.81,841.72,596.81Z"/><path class="cls-2" d="M867.35,616.71s27.76-9.91,37.93-36.64L864.51,568.4s-10.71,25.34-26.8,32S867.35,616.71,867.35,616.71Z"/><path class="cls-1" d="M835.5,603.36S849,580.58,841.44,553l-42.07,5.44s4.08,30.3-5,45.17S835.5,603.36,835.5,603.36Z"/><path class="cls-1" d="M861.64,621.79s22.41-14.1,28.32-42.09l-39.9-14.4S839.83,594.11,825,603.19,861.64,621.79,861.64,621.79Z"/><path class="cls-2" d="M212.5,529.52s-16.63-4.57-16.29-27.44l36.66-2.73s2.88,24.28,12.86,34S212.5,529.52,212.5,529.52Z"/><path class="cls-2" d="M192,545.44s-22.2-7.93-30.33-29.31l32.6-9.33s8.57,20.27,21.43,25.6S192,545.44,192,545.44Z"/><path class="cls-9" d="M217.48,534.76s-10.79-18.22-4.75-40.28l33.64,4.35s-3.26,24.22,4,36.11S217.48,534.76,217.48,534.76Z"/><path class="cls-9" d="M196.58,549.49s-17.93-11.27-22.65-33.65l31.91-11.51s8.18,23,20.06,30.29S196.58,549.49,196.58,549.49Z"/><polygon class="cls-2" points="498.41 661.8 496.51 649.54 460.38 652.08 464.02 666.7 454.08 656.17 420.86 666.88 445.56 684.71 498.41 661.8"/><polygon class="cls-1" points="509.19 663.63 508.33 637.72 474.3 639.59 474.29 655.38 467.52 643.83 434.3 654.53 444.16 685.22 509.19 663.63"/><path class="cls-3" d="M774.19,985.36H733.52c12.42-11.85,18.1-21.49,18.1-21.49Z"/><path class="cls-4" d="M763.13,985.36H741.51a66.67,66.67,0,0,0,5.16-6.06c5,3.64,11.22,1,11.22,1Z"/><path class="cls-20" d="M763.13,985.36H741.51a66.67,66.67,0,0,0,5.16-6.06c5,3.64,11.22,1,11.22,1Z"/><path class="cls-1" d="M468.14,551.63c0-2.11-2.82-36.6-2.82-36.6l29.57,3.52,2.81,23.93,16.89-4.22-12.67-17.6L528,503.06l16.19,21.12L547,503.77l30.27,2.11,2.11,7.74L592,498.13l33.79,14.08-69,43.64Z"/><path class="cls-21" d="M707.11,537l.28-.25C707.09,537.4,707,537.47,707.11,537Z"/><path class="cls-21" d="M739,537l.29-.25C739,537.4,738.9,537.47,739,537Z"/><path class="cls-21" d="M770.91,537l.29-.25C770.9,537.4,770.8,537.47,770.91,537Z"/><path class="cls-2" d="M662.78,926.5c4-3.19,37.48-12,47.85-8.77,0,0-20.74-37.49-40.67-51.84s-54.24,51-54.24,51Z"/><path class="cls-2" d="M672.08,903.91c-.53,2.12-36.15,1.06-54.76-8s-34-24.46-34-24.46,58,24.46,78.16,14.89Z"/><path class="cls-3" d="M686.19,943.47,641.36,876l-32.6,13.37L656,954S662.79,964.11,686.19,943.47Z"/><path class="cls-4" d="M661.27,916.7,674,934.22s-3.38,5.29-.06,9.27c0,0-16.34,13.13-22.68-.31L650,927Z"/><path class="cls-22" d="M661.27,916.7,674,934.22s-3.38,5.29-.06,9.27c0,0-16.34,13.13-22.68-.31L650,927Z"/><path class="cls-3" d="M608.76,889.36,656,954c-6-8.28-5.06-32.76,61.38-58.8l-45.43-59.88S611.17,856.61,608.76,889.36Z"/><path class="cls-4" d="M646.08,940.48c7.07-22.33,43.73-40.68,53.57-45a11.21,11.21,0,0,1,1.29-8.31l-29.1-38.89a13.8,13.8,0,0,1-10-1c-40.52,16.35-47.93,39.55-49,47.69Z"/><path class="cls-22" d="M646.08,940.48c7.07-22.33,43.73-40.68,53.57-45a11.21,11.21,0,0,1,1.29-8.31l-29.1-38.89a13.8,13.8,0,0,1-10-1c-40.52,16.35-47.93,39.55-49,47.69Z"/><path class="cls-6" d="M646.66,901.39c-10.11-15.92-28.21-16.51-30-1.26,0,.2,21.52,29.48,21.52,29.48C650.93,931.21,655.75,915.69,646.66,901.39Z"/><path class="cls-7" d="M673.39,873.09c7.35,10.36-1.94,16.9-9.32,6.5-3.07-4.33-3.47-9.3-.9-11.09S670.32,868.75,673.39,873.09Z"/><path class="cls-2" d="M644,921.32s6-28.71,33.1-46.66L639.2,859.11l-19.94,50.25Z"/><path class="cls-3" d="M578.86,904l74.58,29.18c-9.55-3.73-21.87-24.9,20.18-82.56l-70.49-26.1S563.3,875.12,578.86,904Z"/><path class="cls-4" d="M637.81,927.1c-6-22.64,15-57.81,21-66.7a11.2,11.2,0,0,1-3.38-7.7L610,835.53a13.8,13.8,0,0,1-9,4.49c-25.39,35.56-19.17,59.12-15.69,66.54Z"/><path class="cls-22" d="M637.81,927.1c-6-22.64,15-57.81,21-66.7a11.2,11.2,0,0,1-3.38-7.7L610,835.53a13.8,13.8,0,0,1-9,4.49c-25.39,35.56-19.17,59.12-15.69,66.54Z"/><path class="cls-6" d="M617.29,893.81c-11.09-5.18-23-3.3-26.55,4.21-1.57,3.31-1.25,7.16.54,10.87.09.19,34,13.31,34,13.31C636.92,916.67,632.64,901,617.29,893.81Z"/><path class="cls-7" d="M624.63,855.58c4.92,2,7.93,6,6.72,8.88s-6.17,3.62-11.09,1.62-7.92-6-6.72-8.88S619.71,853.58,624.63,855.58Z"/><path class="cls-1" d="M567.73,868.66c5.59,7.18,91.46,55.05,132.93,57.05,35.2,1.69-35.49,63.8-35.49,63.8l-112.1-33.36Z"/><path class="cls-2" d="M561.24,1002.71c-11.53-14.34-15.78-31-16.12-38.57l58.12-7.57,8.31-3.78c-5.75,9.32,7.14,32.88,14.35,49.92Z"/><path class="cls-3" d="M658.37,1002.71H568.85c-6.19-16.87-6.71-42.34-4.41-59.21l79.94-18.19c0,.06-.66,7.11-.61,7.11C642.22,953.26,642,989.76,658.37,1002.71Z"/><path class="cls-4" d="M647.31,1002.71H576.86c-6.15-13.75-7.05-29.9-5.79-45a15,15,0,0,0,5.86-8.91l51.71-11.44a11.26,11.26,0,0,0,7.42,4.56C635,959.92,637.51,987.34,647.31,1002.71Z"/><path class="cls-23" d="M647.31,1002.71H576.86c-6.15-13.75-7.05-29.9-5.79-45a15,15,0,0,0,5.86-8.91l51.71-11.44a11.26,11.26,0,0,0,7.42,4.56C635,959.92,637.51,987.34,647.31,1002.71Z"/><path class="cls-6" d="M597.49,1002.71c11.52-12.7,38.41-12.3,43.3,0Z"/><path class="cls-7" d="M612.79,961c1.17,7.46-19.39,11.5-20.56,4S611.63,953.55,612.79,961Z"/><path class="cls-1" d="M696.68,1002.71H662.61c18.06-8,28.18-17.51,32.88-25C695.53,978.36,696.65,1002.08,696.68,1002.71Z"/><path class="cls-2" d="M957.45,697.9c-2.22,14.16-32.51,38.88-59,54.64-15.65,15.26,8.29,17.46-21.92,22.57l46.06-95.31S942.38,691,957.45,697.9Z"/><path class="cls-3" d="M946.52,666.92s-25.79,95.39-70,108.2L834.2,759.49S882.1,737.37,908,649.36Z"/><path class="cls-4" d="M913.28,658.21c-1.09,3.3-3.52,8.26-6.94,7.59-9.43,31.47-30.41,70-58.26,89.07l1.49,4.79,27.65,10.57a23.85,23.85,0,0,0,7.1-2.74c11.5-6.25,33.9-26,55-88a22.48,22.48,0,0,1-1.39-9.2Z"/><path class="cls-24" d="M913.28,658.21c-1.09,3.3-3.52,8.26-6.94,7.59-9.43,31.47-30.41,70-58.26,89.07l1.49,4.79,27.65,10.57a23.85,23.85,0,0,0,7.1-2.74c11.5-6.25,33.9-26,55-88a22.48,22.48,0,0,1-1.39-9.2Z"/><path class="cls-7" d="M921,680.32c6.1,3.75,2.13,19.84-3.89,16.14S915,676.61,921,680.32Z"/><path class="cls-7" d="M871.58,753.9c6.55,1.36,5.07,10.74-1.45,9.38S865.05,752.54,871.58,753.9Z"/><path class="cls-6" d="M885.31,732.17c.94-8.1,6.65-14.5,12.77-14.29s10.32,6.92,9.38,15-6.65,14.49-12.76,14.29S884.38,740.26,885.31,732.17Z"/><path class="cls-1" d="M805.82,727.61c40.67,3.19,108.38,31.64,135.36-9.31l2.26,49.19L854.91,794.6l-55.43-31.1Z"/><path class="cls-2" d="M910.15,749.9c-17.87-7.63-39.77-16.95-54.68-41.17l-30.75,36.34L800,760.44s46.13,27.49,80.14,26.56S910.15,749.9,910.15,749.9Z"/><path class="cls-3" d="M827.63,698.33s34,47.93,94.06,49l-17.31,46S845,792,799.85,738.64Z"/><path class="cls-4" d="M810.21,734.49l16-23.8s4.42,2,7.07-.72c0,0,27.46,33.54,76.91,39.93,0,0-1.94,5,4.16,7.51l-10.41,27s-7.54-2.39-9.7,4.24c0,0-50.67-6.11-83.18-44C811,744.62,815.61,738.75,810.21,734.49Z"/><path class="cls-25" d="M810.21,734.49l16-23.8s4.42,2,7.07-.72c0,0,27.46,33.54,76.91,39.93,0,0-1.94,5,4.16,7.51l-10.41,27s-7.54-2.39-9.7,4.24c0,0-50.67-6.11-83.18-44C811,744.62,815.61,738.75,810.21,734.49Z"/><path class="cls-6" d="M871.61,759.48c-2.87,5.85-9.78,8.55-15.45,6s-7.93-9.28-5.06-15.12,9.78-8.55,15.45-6S874.48,753.64,871.61,759.48Z"/><path class="cls-7" d="M833.05,742.46c-4.48-2,0-11.06,4.45-9.07S837.53,744.44,833.05,742.46Z"/><path class="cls-7" d="M871.44,771.79c-3.83-1.7,0-9.46,3.81-7.76S875.3,773.5,871.44,771.79Z"/><path class="cls-1" d="M817.27,782.81s98.31-8.85,127.66-44.73l12.58,30.75-75.94,42.4-52.19-6.52Z"/><path class="cls-2" d="M176.72,773.52c-18.35,5.49-18.22,5.13-18.61,6.07-4.71,11.19,8.49,24.14,26.51,31a1.41,1.41,0,0,1,.24.13C175.22,772.83,175,774.08,176.72,773.52Z"/><path class="cls-2" d="M184.86,810.77l.78,3.06C185.52,812.18,185.69,811.3,184.86,810.77Z"/><path class="cls-1" d="M262.28,799.92,243.5,749.3l-60.85,16.19c-4.48,7.18-5.53,24.94,5.68,42.2Z"/><path class="cls-2" d="M244,831.6c-10.07-9.21,54.4-10,75.37-40.93l-44.93-15-49.89,43.08Z"/><path class="cls-3" d="M318.88,763.79s-27.76,58-80.79,65.71l-51.82-9.62s57.18-13.35,85.32-66.88Z"/><path class="cls-4" d="M278.33,758.4c-1.74,2.91-4.67,5-8.13,4.61-11,20.46-35.78,43.1-67.3,54.09l2,2.92,33.85,6.5a46.36,46.36,0,0,0,8.5-1.65c13.69-3.77,40.09-15.74,63.37-53.46a8.45,8.45,0,0,1-2-5.61Z"/><path class="cls-26" d="M278.33,758.4c-1.74,2.91-4.67,5-8.13,4.61-11,20.46-35.78,43.1-67.3,54.09l2,2.92,33.85,6.5a46.36,46.36,0,0,0,8.5-1.65c13.69-3.77,40.09-15.74,63.37-53.46a8.45,8.45,0,0,1-2-5.61Z"/><path class="cls-7" d="M288.5,771.88c7.48,2.29,3.37,12.12-4.12,9.82S281,769.59,288.5,771.88Z"/><path class="cls-7" d="M231.31,816.57c8,.84,6.59,6.56-1.42,5.71S223.31,815.72,231.31,816.57Z"/><ellipse class="cls-6" cx="260.57" cy="803.62" rx="13.54" ry="8.87" transform="translate(-77.02 29.19) rotate(-5.59)"/><path class="cls-3" d="M170.76,819.42l45.5,6.16c-5.82-.79-15.56-10.92.07-48.74l-42.82-5S158.17,805.42,170.76,819.42Z"/><path class="cls-4" d="M206.72,824.29c-6.43-11.8.55-34.25,2.69-40a6.45,6.45,0,0,1-2.93-3.84L178.84,777a7.9,7.9,0,0,1-4.41,3.72c-9.33,23.26-2.67,35.54.27,39.2Z"/><path class="cls-27" d="M206.72,824.29c-6.43-11.8.55-34.25,2.69-40a6.45,6.45,0,0,1-2.93-3.84L178.84,777a7.9,7.9,0,0,1-4.41,3.72c-9.33,23.26-2.67,35.54.27,39.2Z"/><path class="cls-6" d="M190.79,808.52c-10.6-2.14-18,5.11-12.46,11.93.08.09,20.75,2.8,20.75,2.8C204.83,818.59,200.29,810.44,190.79,808.52Z"/><path class="cls-7" d="M194.65,790.26c-.67,4.24-11.58,2.61-10.91-1.63S195.31,786,194.65,790.26Z"/><path class="cls-1" d="M203.89,756.36c9,17.47,56.8,66.77,86.75,78.75l-80.56,14-42.7-15.23-5.78-32.26Z"/><path class="cls-2" d="M406.22,803s-22.48-6.18-22-37.08l49.53-3.68s3.89,32.8,17.38,45.92S406.22,803,406.22,803Z"/><path class="cls-2" d="M378.53,824.53s-30-10.71-41-39.6l44.06-12.61s11.57,27.39,28.95,34.59S378.53,824.53,378.53,824.53Z"/><path class="cls-1" d="M384.7,830s-24.23-15.23-30.61-45.47L397.21,769s11.06,31.13,27.11,40.94S384.7,830,384.7,830Z"/><path class="cls-1" d="M419.09,823.62s-14.58-24.62-6.42-54.44l45.46,5.88s-4.41,32.74,5.38,48.8S419.09,823.62,419.09,823.62Z"/><path class="cls-2" d="M441.12,859.81l-82.95,18.34S418.79,930,465.84,925.21s12.76-43.87,12.76-43.87Z"/><path class="cls-4" d="M436.67,845.84a10.51,10.51,0,0,0,11.47,4.82c14.46,25.41,48.56,52.51,94.24,61.91l-3,4.4-48.84,15.35a67.83,67.83,0,0,1-12.11-.67C459,929,421.63,917.49,389.84,869.86a13.39,13.39,0,0,0,3.14-8.12Z"/><path class="cls-28" d="M436.67,845.84a10.51,10.51,0,0,0,11.47,4.82c14.46,25.41,48.56,52.51,94.24,61.91l-3,4.4-48.84,15.35a67.83,67.83,0,0,1-12.11-.67C459,929,421.63,917.49,389.84,869.86a13.39,13.39,0,0,0,3.14-8.12Z"/><path class="cls-7" d="M421.52,866.35c-10.81,4.56-5.37,17.34,5.49,12.76S432.38,861.77,421.52,866.35Z"/><path class="cls-7" d="M501.65,917.19c-11.5,2.68-9.71,10.29,1.79,7.61S513.14,914.51,501.65,917.19Z"/><ellipse class="cls-6" cx="460.23" cy="904.85" rx="19.47" ry="12.15" transform="translate(-128.42 77.77) rotate(-8.48)"/><path class="cls-1" d="M390.07,914c19.15,5.59,87.69,10.37,136.34-33.49s83,49.44,83,49.44L465.05,969.87Z"/><path class="cls-1" d="M759.05,770.21c1.12,5.73,7.25,37.32,7.25,37.32-5.73,1.57-12.16,3.3-35.3,6.26l1.91-.92c-22.78,1-43-3.54-64.16-12-2.79-1.1-5.46-2.22-8-3.3l-.22-.37-18.63-31,35.25,1.19,12.92-14.68,35.35,16.31C736.7,769.46,752.5,770,759.05,770.21Z"/><line class="cls-29" x1="759.74" y1="769.84" x2="733.31" y2="769.8"/><path class="cls-2" d="M793.25,789.55c-16.2,16.69-39.53,21.33-62.25,24.24l1.91-.92a141.25,141.25,0,0,1-43.68-5l4.14-2.87h0c5.49-3.8,75.72-52.6,76.95-53.46C796.3,794.63,779.4,766.56,793.25,789.55Z"/><path class="cls-3" d="M795.64,771.78c-18.49,20.81-48.87,37-55.32,40.7-3.15.5-6.27.92-9.32,1.31l1.91-.92c-22.78,1-43-3.54-64.16-12-2.79-1.1-5.46-2.22-8-3.3l-.12-.06-.1-.31L658.71,791C693,788.08,740,767.64,770,733.67Z"/><path class="cls-4" d="M787.79,767.73c-3.56,2.5-6.47,6.92-3.67,10.57-10.32,9.87-30.72,24.53-51.21,34.57-22.78,1-43-3.54-64.16-12l-.76-2.44s5-2.83,4.67-6.51c25.1-3.66,62.8-20.49,90.86-47,0,0,2.78,4.22,9.4.14Z"/><path class="cls-30" d="M787.79,767.73c-3.56,2.5-6.47,6.92-3.67,10.57-10.32,9.87-30.72,24.53-51.21,34.57-22.78,1-43-3.54-64.16-12l-.76-2.44s5-2.83,4.67-6.51c25.1-3.66,62.8-20.49,90.86-47,0,0,2.78,4.22,9.4.14Z"/><path class="cls-6" d="M742.81,783.36c2.77,5.42-.12,12.8-6.45,16.48s-13.7,2.25-16.47-3.17.13-12.81,6.46-16.48S740.05,777.93,742.81,783.36Z"/><path class="cls-7" d="M699.77,808.4c-5,2.91-9.3-5.51-4.29-8.42S704.77,805.49,699.77,808.4Z"/><path class="cls-7" d="M763.67,772c-5,2.9-9.29-5.52-4.28-8.42S768.7,769.1,763.67,772Z"/><path class="cls-1" d="M742.71,812.1c-1.23.21-5.53.9-11.71,1.69l1.91-.92C736.38,812.71,739.71,812.44,742.71,812.1Z"/><path class="cls-1" d="M774.86,805l-8.09,5-.47-2.42C769.11,806.76,772,805.91,774.86,805Z"/><polygon class="cls-1" points="419.09 824.84 519.77 866.38 509.71 915.17 419.14 880.95 419.09 824.84"/><path class="cls-2" d="M427.16,903.34c9.31-4.26,60,6.06,95.06-54.55l-49.36-14.66c-47.5,39-33.79,28-61.92,49.8Z"/><path class="cls-2" d="M370.13,847.38s.4,14.75,32.7,25.92S426,863.73,426,863.73,385.29,865.72,370.13,847.38Z"/><path class="cls-3" d="M371.07,866.89s65.58-9.27,87.48-69.78L504.26,839s-22,59.62-97.45,77.44Z"/><path class="cls-4" d="M405.72,903.7l-21.26-28.8s3.8-3.43,1.63-7.56c0,0,47.15-10.23,71.36-57.14,0,0,5,4.63,9.88-.27l26.74,24.84s-5.28,6.39,1.42,12.09c0,0-24.31,48.3-78.11,61.36C417.38,908.22,412.37,900.45,405.72,903.7Z"/><path class="cls-31" d="M405.72,903.7l-21.26-28.8s3.8-3.43,1.63-7.56c0,0,47.15-10.23,71.36-57.14,0,0,5,4.63,9.88-.27l26.74,24.84s-5.28,6.39,1.42,12.09c0,0-24.31,48.3-78.11,61.36C417.38,908.22,412.37,900.45,405.72,903.7Z"/><path class="cls-6" d="M455,854.45c5.59,6,6.24,14.46,1.47,18.89s-13.16,3.17-18.74-2.83-6.24-14.46-1.47-18.9S449.37,848.45,455,854.45Z"/><path class="cls-7" d="M422.54,884.67c-3.78,3.51-12.44-5.8-8.67-9.31S426.31,881.16,422.54,884.67Z"/><path class="cls-7" d="M471.06,840.7c-3.77,3.51-12.44-5.81-8.66-9.32S474.85,837.17,471.06,840.7Z"/><path class="cls-1" d="M350.59,841.93c36.16,18.61,71.25,67,139.84,57.42l-40.94,41.47-96.24,7.45-10.63-90.92Z"/><path class="cls-2" d="M439.07,951.36s-11-1.62-28.59-24.25l15-10.17s22.57,40.12,51.39,51.11Z"/><polygon class="cls-2" points="521.17 960.88 551.37 943.84 499.49 923.1 521.17 960.88"/><path class="cls-3" d="M541.13,925.61s-29.91,76.32-106.69,81l-78.28-18.87s81.82-12,113.15-82.09Z"/><path class="cls-4" d="M480.28,913.77a10.2,10.2,0,0,1-11.12,5.4c-11.81,25.7-43.27,54.69-89,66.59l3.48,4.22,51.18,12.62a69.49,69.49,0,0,0,12.22-1.32c19.49-3.66,56.16-17.12,83.33-66.16a14,14,0,0,1-4-7.9Z"/><path class="cls-32" d="M480.28,913.77a10.2,10.2,0,0,1-11.12,5.4c-11.81,25.7-43.27,54.69-89,66.59l3.48,4.22,51.18,12.62a69.49,69.49,0,0,0,12.22-1.32c19.49-3.66,56.16-17.12,83.33-66.16a14,14,0,0,1-4-7.9Z"/><path class="cls-7" d="M497.85,933.33c11.49,4,7.27,16.94-4.21,13S486.37,929.37,497.85,933.33Z"/><path class="cls-7" d="M422,988.16c12,2,10.95,9.7-1,7.66S410,986.12,422,988.16Z"/><ellipse class="cls-6" cx="462.69" cy="973.67" rx="12.03" ry="19.95" transform="translate(-558.79 1318.21) rotate(-83.22)"/><path class="cls-1" d="M528.28,998.72l-21.88,8.9H368.49l-20.09-11h0l-6.14-3.35,84.19-48.62c1.57,1.57,28.6,15.82,30.74,17h0C479.27,973.34,507.67,988.09,528.28,998.72Z"/><path class="cls-2" d="M68.62,833.14c-5.87,10.49-4.88,18.4-22,18.93a85.12,85.12,0,0,1-31.2-5.22s21.84-31.12,22.7-41.41Z"/><path class="cls-2" d="M83.29,802.47c18.38-10.71,60.53,2.6,73.45-25.76,23,11,13,6.25,47.67,22.29,0,0-47.71,28.58-84.81,32.18S83.29,802.47,83.29,802.47Z"/><path class="cls-3" d="M166,735.23s-30.45,56.71-95.58,66l25,47.61s64.32-9.52,106.2-73.6Z"/><path class="cls-4" d="M189.82,772.17l-20.57-23.7s-4.54,2.8-7.78.18c0,0-25.3,40.17-78.18,53.82,0,0,2.79,5.22-3.51,8.73l15,27.92s7.87-3.63,11.11,3.28c0,0,54.24-13.5,84.45-59.11C190.32,783.29,184.53,777.54,189.82,772.17Z"/><path class="cls-33" d="M189.82,772.17l-20.57-23.7s-4.54,2.8-7.78.18c0,0-25.3,40.17-78.18,53.82,0,0,2.79,5.22-3.51,8.73l15,27.92s7.87-3.63,11.11,3.28c0,0,54.24-13.5,84.45-59.11C190.32,783.29,184.53,777.54,189.82,772.17Z"/><path class="cls-6" d="M126.47,807.66c3.91,6,11.79,8,17.61,4.47S151.44,801,147.53,795s-11.79-8-17.61-4.47S122.56,801.7,126.47,807.66Z"/><path class="cls-7" d="M166.08,783.92c4.6-2.76-1.47-12-6.07-9.25S161.47,786.69,166.08,783.92Z"/><path class="cls-1" d="M188.7,825.65s-81.53-8.19-113.57-52.42L34.37,829.47l88.3,35.79,55.83-14.17Z"/><path class="cls-3" d="M146.16,823.86S85.79,831.51,33,784L18.4,831.48s52.39,46.69,125.93,44.11Z"/><path class="cls-4" d="M138,864.24l1.47-30.19s-5.14-2.07-5.68-6.2c0,0-45.41,2.4-92.46-32.67,0,0-1.56,5.23-8.45,2.14l-8.32,28s8.08,4.31,5.69,10.88c0,0,47.91,36.26,100.53,34.73C130.78,871,130.58,863,138,864.24Z"/><path class="cls-34" d="M138,864.24l1.47-30.19s-5.14-2.07-5.68-6.2c0,0-45.41,2.4-92.46-32.67,0,0-1.56,5.23-8.45,2.14l-8.32,28s8.08,4.31,5.69,10.88c0,0,47.91,36.26,100.53,34.73C130.78,871,130.58,863,138,864.24Z"/><path class="cls-6" d="M68.62,833.14c-1.27,6.56,3,14.09,9.52,16.82s12.86-.4,14.13-7-3-14.1-9.52-16.82S69.89,826.57,68.62,833.14Z"/><path class="cls-7" d="M113.05,851.7c5.17,2.15,7.14-8,2-10.19S107.89,849.55,113.05,851.7Z"/><path class="cls-7" d="M47.26,825c5.17,2.15,7.14-8,2-10.2S42.07,822.85,47.26,825Z"/><path class="cls-1" d="M135.37,818s-82.81,25.6-107.84,44c73.6,28.19,114.55,22.67,114.55,22.67,12.82-17.69,16.36-34.65,14.36-58.85Z"/><polygon class="cls-2" points="236.13 905.48 224.17 910.49 201.45 871.66 236.13 905.48"/><polygon class="cls-1" points="195.33 922.57 271.28 890.76 296.56 925.58 345.52 925.32 387.5 966.57 286.45 998.27 195.33 922.57"/><path class="cls-2" d="M284.76,886.45l2.93,31.91S202,933.74,158.43,905L197,831.69Z"/><path class="cls-3" d="M195,805.71s41.52,66.19,117.22,60.69l-23.12,69.36s-74.79,5-130.27-67.74Z"/><path class="cls-4" d="M172,860.73,192.83,824s5.52,2.44,8.93-1.89c0,0,33.68,45.88,95.86,49.41,0,0-2.59,7.61,5,10.51l-13.89,40.74s-9.43-2.61-12.34,7.35c0,0-63.72-3-103.66-54.64C172.76,875.47,178.72,866.33,172,860.73Z"/><path class="cls-35" d="M172,860.73,192.83,824s5.52,2.44,8.93-1.89c0,0,33.68,45.88,95.86,49.41,0,0-2.59,7.61,5,10.51l-13.89,40.74s-9.43-2.61-12.34,7.35c0,0-63.72-3-103.66-54.64C172.76,875.47,178.72,866.33,172,860.73Z"/><path class="cls-6" d="M248.75,890.09C245,899,236.18,903.76,229.1,900.76s-9.74-12.66-6-21.55,12.58-13.68,19.65-10.67S252.53,881.19,248.75,890.09Z"/><path class="cls-7" d="M200.61,869.7c-5.6-2.38.27-16.19,5.86-13.81S206.2,872.08,200.61,869.7Z"/><path class="cls-6" d="M271.31,900.83c-5.6-2.38.27-16.19,5.87-13.81S276.93,903.21,271.31,900.83Z"/><path class="cls-1" d="M178.42,936.7c53.44-20.74,140.37-71.78,152.33-92.52l40.68,63-164.3,84.54Z"/><polygon class="cls-2" points="332.36 972.13 318.71 993.23 299.47 980.2 332.36 972.13"/><polygon class="cls-4" points="318.71 993.23 311.26 965.3 368.05 970.88 318.71 993.23"/><path class="cls-2" d="M146,971s-30.48-8.37-29.84-50.28l67.16-5s5.28,44.48,23.56,62.27S146,971,146,971Z"/><path class="cls-2" d="M108.41,1000.19s-40.67-14.52-55.57-53.7l59.74-17.09s15.69,37.13,39.26,46.9S108.41,1000.19,108.41,1000.19Z"/><path class="cls-1" d="M155.08,980.63s-19.77-33.39-8.7-73.82l61.63,8s-6,44.39,7.3,66.18S155.08,980.63,155.08,980.63Z"/><path class="cls-1" d="M116.79,1007.62S83.94,987,75.29,946l58.46-21.1s15,42.21,36.76,55.52S116.79,1007.62,116.79,1007.62Z"/><path class="cls-3" d="M280.21,851.19s-9.73,70.93-82.29,113l51.56,33.93S321,956.27,340.79,872.34Z"/><path class="cls-4" d="M325.42,875.29,290.18,862.5s-4.05,5-9.1,4.11c0,0-11.29,52.14-67.38,92.27,0,0,5.7,3.7-.11,10.32L244.16,989s7.61-7.53,14.63-2.4c0,0,57.77-40.69,72.35-100.62C331.14,885.93,321.65,883.22,325.42,875.29Z"/><path class="cls-36" d="M325.42,875.29,290.18,862.5s-4.05,5-9.1,4.11c0,0-11.29,52.14-67.38,92.27,0,0,5.7,3.7-.11,10.32L244.16,989s7.61-7.53,14.63-2.4c0,0,57.77-40.69,72.35-100.62C331.14,885.93,321.65,883.22,325.42,875.29Z"/><path class="cls-6" d="M267.05,942.1c7.37,3.86,17.6,1.83,22.85-4.53s3.53-14.66-3.84-18.52-17.59-1.82-22.84,4.54S259.69,938.24,267.05,942.1Z"/><path class="cls-7" d="M302.82,898.82c4.16-5-7.28-11-11.43-6S298.67,903.85,302.82,898.82Z"/><path class="cls-7" d="M250.81,963.2c4.16-5-7.28-11-11.43-6S246.64,968.26,250.81,963.2Z"/><path class="cls-2" d="M367,979.7c15.08-3.34,53.92,3.43,80.44-10.27,0,0-43.7-26.24-43.08-37.49s-67.11,42.18-67.11,42.18Z"/><path class="cls-3" d="M436.75,949.43c-4.72,13-18.24,34.88-29.58,46.51h0c-1.06,1.23-4.85,5.27-9.09,9.22H314.85c-11.21-22.31.73,1.47-15.24-30.3,18.16-1.85,71.74-18.9,93.78-81.45l7.85,10.13v0l7.65,9.85h0C410.57,915.62,435.94,948.38,436.75,949.43Z"/><path class="cls-4" d="M427.29,958.71a146.54,146.54,0,0,1-11.57,19h0a159.72,159.72,0,0,1-24.6,27.48H322.53c-11-21.37-7.35-14.28-9.92-19.25a9.27,9.27,0,0,0,2.19-9.41c5-1,12.42-3.89,17.07-6.12h0c2.85-1.33,5.93-2.93,9.2-4.85h0c22.24-13.08,39.06-32.83,50.23-55.72A8.94,8.94,0,0,0,394,912h0c2.74,1.44,5.3.49,7.39-1.8,1.81,2.36,25.1,32.89,25.33,33.2A12.16,12.16,0,0,0,427.29,958.71Z"/><path class="cls-37" d="M427.29,958.71a146.54,146.54,0,0,1-11.57,19h0a159.72,159.72,0,0,1-24.6,27.48H322.53c-11-21.37-7.35-14.28-9.92-19.25a9.27,9.27,0,0,0,2.19-9.41c5-1,12.42-3.89,17.07-6.12h0c2.85-1.33,5.93-2.93,9.2-4.85h0c22.24-13.08,39.06-32.83,50.23-55.72A8.94,8.94,0,0,0,394,912h0c2.74,1.44,5.3.49,7.39-1.8,1.81,2.36,25.1,32.89,25.33,33.2A12.16,12.16,0,0,0,427.29,958.71Z"/><ellipse class="cls-6" cx="376.27" cy="974.79" rx="12.66" ry="17.72" transform="matrix(0.94, -0.33, 0.33, 0.94, -300.12, 178.36)"/><path class="cls-7" d="M350.54,1001c-4.09,4.15-12.2-8.2-8.12-12.34S354.62,996.84,350.54,1001Z"/><path class="cls-7" d="M402.94,949.17c-4.08,4.15-12.19-8.2-8.11-12.35S407,945,402.94,949.17Z"/><path class="cls-1" d="M448.9,979.89c-10.72,15.09-8.67,23.89-11.39,27.73H277.11l-5.62-8.25c30.52-18.45-20-4.45,70.92-59.4C363.35,959.57,420.41,974.36,448.9,979.89Z"/><path class="cls-2" d="M872.59,872.84c-18.23.29-36.76,0-54.8-2.51C823.3,851.69,836,825.26,829.84,815l7.77,3.82c57.89,8.28,20.75,3,53.43,7.65A75,75,0,0,1,872.59,872.84Z"/><path class="cls-3" d="M872.35,805.63c3,17.37,4.63,48.68-3.63,67.27-24.93.3-54.14-.86-78-8.47,8-8.48,14.34-29.77,7.76-77.18Z"/><path class="cls-4" d="M813.43,799.44,861.23,811a16.4,16.4,0,0,0,5.8,9c2.17,17.34,2.12,37.41-6.23,53-20-.05-42.3-1.29-61.77-6.16,10.74-18.55,8.89-52.93,7.87-62.74C808.13,804,811.46,802.71,813.43,799.44Z"/><path class="cls-38" d="M806.9,804a9.54,9.54,0,0,0,6.53-4.6L861.23,811a16.4,16.4,0,0,0,5.8,9c2.17,17.34,2.12,37.41-6.23,53-20-.05-42.3-1.29-61.77-6.16,10.74-18.55,8.89-52.93,7.87-62.74"/><path class="cls-6" d="M849,872.76c-14.36-.41-29.73-1.66-43.74-4.57,0-6.93,8.4-14.13,22.59-11.83C838.81,858.15,847.65,865.2,849,872.76Z"/><path class="cls-7" d="M829.12,823.31c-.68,7.58,18.3,11.59,19,4.08S829.8,815.8,829.12,823.31Z"/><path class="cls-2" d="M69.23,560.76s-18.26-1-29-15.16l22.22-14.1S73.27,544.71,84,545.86,69.23,560.76,69.23,560.76Z"/><path class="cls-9" d="M73.52,562.78s-15.81-4.46-24.23-20.09l21.22-15.56s11.14,15.35,21.58,18.15S73.52,562.78,73.52,562.78Z"/><rect class="cls-29" x="5.61" width="1114" height="1008"/></g></g></svg>