<svg preserveAspectRatio="none slice" xmlns="http://www.w3.org/2000/svg" xmlns:xlink="http://www.w3.org/1999/xlink" viewBox="0 0 1164.79 1008"><defs><style>.a,.t{fill:none;}.b{clip-path:url(#a);}.c{fill:#82651d;}.d{fill:#628c20;}.e{fill:#71a526;}.f{fill:#79b52c;}.g{fill:#898989;}.h{fill:#999;}.i{fill:#afafaf;}.j{fill:#727272;}.k{fill:#939393;}.l{fill:#d1d1d1;}.m{fill:#ededed;}.n{fill:#c4c4c4;}.o{fill:#ccc;}.p{fill:#d6d6d6;}.q{fill:#9b9b9b;}.r{fill:#a3a3a3;}.s{fill:#b7b7b7;}.t{stroke:#c1c1c1;stroke-miterlimit:10;stroke-width:1.2px;}.u{fill:#284500;}.v{fill:#606b3c;}.w{fill:#c4db7e;}.x{fill:#a7ca65;}</style><clipPath id="a"><rect class="a" width="1164.79" height="1008"/></clipPath></defs><title>lincoln_2</title><g class="b"><rect class="a" x="25.4" width="1114" height="1008"/><rect class="c" x="413.48" y="410.47" width="2.18" height="11.75"/><rect class="c" x="684.48" y="405.3" width="3.13" height="16.92"/><path class="d" d="M674.07,397.06c0,9.54-5,17.28-11.17,17.28s-11.16-7.74-11.16-17.28,5-36.07,11.16-36.07S674.07,387.51,674.07,397.06Z"/><path class="e" d="M704.22,394.72a17.92,17.92,0,0,1-35.83.85c0-.29,0-.57,0-.85,0-9.89,8-24.4,17.9-24.4S704.22,384.83,704.22,394.72Z"/><path class="d" d="M428.46,397.85a13.89,13.89,0,1,1-27.78,0h0c0-7.67,6.22-29,13.89-29S428.46,390.18,428.46,397.85Z"/><path class="e" d="M452.4,390.05a17.92,17.92,0,0,1-35.83.85c0-.29,0-.57,0-.85,0-9.9,8-37.39,17.92-37.39S452.4,380.15,452.4,390.05Z"/><rect class="d" x="169.99" y="422.1" width="766.44" height="22.19"/><rect class="f" x="169.99" y="435.09" width="766.44" height="9.21"/><rect class="e" x="170.35" y="428.6" width="766.44" height="6.47"/><polygon class="g" points="635.72 356.69 471.17 356.69 461.81 352.71 644.8 352.71 635.72 356.69"/><polygon class="h" points="635.67 396.13 638.32 396.13 638.32 352.71 635.46 356.69 635.67 396.13"/><polygon class="h" points="470.95 396.13 468.31 396.13 468.31 352.71 471.17 356.69 470.95 396.13"/><rect class="i" x="477.75" y="319.64" width="151.14" height="76.49"/><rect class="j" x="529.01" y="352.71" width="47.92" height="43.42"/><rect class="k" x="475.33" y="321.46" width="155.98" height="1.9"/><rect class="l" x="461.82" y="343.19" width="182.99" height="9.52"/><rect class="m" x="459.23" y="339.21" width="188.18" height="3.98"/><rect class="i" x="460.96" y="396.14" width="184.72" height="2.8"/><rect class="n" x="457.49" y="398.93" width="191.65" height="2.42"/><rect class="o" x="454.46" y="401.36" width="197.71" height="2.42"/><rect class="i" x="425.38" y="403.78" width="255.87" height="18.32"/><rect class="p" x="461.82" y="352.71" width="6.58" height="43.42"/><rect class="p" x="638.23" y="352.71" width="6.58" height="43.42"/><rect class="p" x="621.57" y="352.71" width="6.58" height="43.42"/><rect class="p" x="605.59" y="352.71" width="6.58" height="43.42"/><rect class="p" x="589.61" y="352.71" width="6.58" height="43.42"/><rect class="p" x="573.64" y="352.71" width="6.58" height="43.42"/><rect class="p" x="525.72" y="352.71" width="6.58" height="43.42"/><rect class="p" x="509.75" y="352.71" width="6.58" height="43.42"/><rect class="p" x="493.77" y="352.71" width="6.58" height="43.42"/><rect class="p" x="477.8" y="352.71" width="6.58" height="43.42"/><rect class="l" x="477.75" y="323.37" width="151.14" height="6.15"/><rect class="m" x="513.04" y="396.14" width="79.87" height="25.97"/><rect class="p" x="507.18" y="403.11" width="5.85" height="19.89"/><rect class="p" x="592.91" y="403.11" width="5.85" height="19.89"/><rect class="m" x="572.95" y="352.66" width="7.96" height="1.44"/><polygon class="l" points="580.9 354.1 572.95 354.1 573.63 355.53 580.22 355.53 580.9 354.1"/><rect class="m" x="588.92" y="352.66" width="7.96" height="1.44"/><polygon class="l" points="596.88 354.1 588.91 354.1 589.61 355.53 596.18 355.53 596.88 354.1"/><rect class="m" x="604.89" y="352.66" width="7.96" height="1.44"/><polygon class="l" points="612.86 354.1 604.88 354.1 605.58 355.53 612.15 355.53 612.86 354.1"/><rect class="m" x="620.86" y="352.66" width="7.96" height="1.44"/><polygon class="l" points="628.84 354.1 620.88 354.1 621.57 355.53 628.14 355.53 628.84 354.1"/><rect class="m" x="637.54" y="352.66" width="7.96" height="1.44"/><polygon class="l" points="645.5 354.1 637.53 354.1 638.23 355.53 644.8 355.53 645.5 354.1"/><rect class="m" x="493.09" y="352.66" width="7.96" height="1.44"/><polygon class="l" points="501.06 354.1 493.08 354.1 493.79 355.53 500.37 355.53 501.06 354.1"/><rect class="m" x="509.07" y="352.66" width="7.96" height="1.44"/><polygon class="l" points="517.02 354.1 509.06 354.1 509.75 355.53 516.34 355.53 517.02 354.1"/><rect class="m" x="525.04" y="352.66" width="7.96" height="1.44"/><polygon class="l" points="533 354.1 525.03 354.1 525.73 355.53 532.3 355.53 533 354.1"/><rect class="m" x="461.13" y="352.66" width="7.96" height="1.44"/><polygon class="l" points="469.08 354.1 461.13 354.1 461.81 355.53 468.39 355.53 469.08 354.1"/><rect class="m" x="477.1" y="352.66" width="7.96" height="1.44"/><polygon class="l" points="485.06 354.1 477.1 354.1 477.8 355.53 484.38 355.53 485.06 354.1"/><rect class="g" x="593.48" y="394.99" width="0.72" height="8.12"/><rect class="g" x="595.48" y="394.99" width="0.72" height="8.12"/><rect class="g" x="597.47" y="394.99" width="0.72" height="8.12"/><rect class="g" x="593.48" y="393.29" width="4.71" height="1.7"/><rect class="g" x="507.75" y="394.99" width="0.72" height="8.12"/><rect class="g" x="509.75" y="394.99" width="0.72" height="8.12"/><rect class="g" x="511.75" y="394.99" width="0.72" height="8.12"/><rect class="g" x="507.75" y="393.29" width="4.71" height="1.7"/><rect class="p" x="513.04" y="401.4" width="79.87" height="2.6"/><rect class="p" x="513.04" y="406.57" width="79.87" height="2.6"/><rect class="p" x="513.04" y="411.74" width="79.87" height="2.6"/><rect class="p" x="513.04" y="416.91" width="79.87" height="2.6"/><rect class="p" x="513" y="396.14" width="79.87" height="2.6"/><rect class="m" x="478.96" y="435.09" width="148.02" height="6.49"/><rect class="p" x="484.8" y="428.6" width="136.33" height="6.49"/><rect class="m" x="498.44" y="422.1" width="109.07" height="6.49"/><rect class="p" x="478.96" y="440.28" width="148.02" height="1.3"/><rect class="p" x="478.96" y="435.09" width="148.02" height="1.3"/><rect class="p" x="478.96" y="437.68" width="148.02" height="1.3"/><rect class="m" x="484.8" y="433.79" width="136.33" height="1.3"/><rect class="m" x="484.8" y="428.6" width="136.33" height="1.3"/><rect class="m" x="484.8" y="431.19" width="136.33" height="1.3"/><rect class="p" x="498.44" y="427.3" width="109.07" height="1.3"/><rect class="p" x="498.44" y="422.1" width="109.07" height="1.3"/><rect class="p" x="498.44" y="424.7" width="109.07" height="1.3"/><rect class="i" x="459.31" y="441.58" width="187.32" height="2.71"/><path class="l" d="M552.82,373.31a1.44,1.44,0,0,0-1.28,0c-.55.36-.9.93-1.2,1.11A3.76,3.76,0,0,1,549,375c-.7.16-1.38.52-1.47.88a2.15,2.15,0,0,0,.19,1l-.21,10.49h11.38v-7.76l.42-.71v-1.17a1.28,1.28,0,0,0,.16-1.14c-.16-.81-.42-1.69-.78-1.88s-.94-.26-1.23-.62a4.83,4.83,0,0,0-1.85-.74c-.42-.13-.75-.56-.62-.88s.16-.53.26-.78a1.84,1.84,0,0,0-.1-1.4,1,1,0,0,0-.9-.61,1,1,0,0,0-1.1.65,1.29,1.29,0,0,0-.15,1.26,2.11,2.11,0,0,1,.35,1c0,.19-.1.26-.2.45a2.26,2.26,0,0,0-.15.39Z"/><path class="q" d="M549.4,377.57v9.8h7.78V383.6s-.75,0-.71-1.13.07-1.79.07-1.79l-.68,2.76s.16.84.26,1.56a4.87,4.87,0,0,1-.13,1.52H554.4a23.71,23.71,0,0,1,.13-3.67,4.84,4.84,0,0,0,0-1.78l-.71,2.08a5.12,5.12,0,0,1-.39-1.72,2.41,2.41,0,0,0,0-1s0-.29-.15.55a8.77,8.77,0,0,0,0,2.4c.05.1.34,1.3.4,1.43a4.92,4.92,0,0,1,.2,1.07,3.53,3.53,0,0,1,0,.65h-1.66l-.23-1a6.06,6.06,0,0,1-.45-.78c0-.1-.82-2.3-.84-2.73a10.5,10.5,0,0,1,.07-1.68,6.51,6.51,0,0,1,.28-.94,12.13,12.13,0,0,0,.55-2.73,9.3,9.3,0,0,0-.09-1.36,15.76,15.76,0,0,1-.35,2.82c-.26.71-.52,2.21-.62,2.4a3.43,3.43,0,0,0-.13,1.62,3.32,3.32,0,0,1,.2,1.43c-.13.23-.65-.16-.69-.29a11.06,11.06,0,0,1-.29-2.43A28.45,28.45,0,0,0,549.4,377.57Z"/><path class="q" d="M553.62,372.86s.5.51.91.19.23.23,0,.39S553.53,373.38,553.62,372.86Z"/><rect class="r" x="546.78" y="387.37" width="12.71" height="3.41"/><rect class="s" x="544.98" y="390.78" width="15.97" height="5.36"/><rect class="p" x="557.67" y="352.71" width="6.58" height="43.42"/><rect class="p" x="541.68" y="352.71" width="6.58" height="43.42"/><rect class="m" x="556.98" y="352.66" width="7.96" height="1.44"/><polygon class="l" points="564.93 354.1 556.98 354.1 557.66 355.53 564.25 355.53 564.93 354.1"/><rect class="m" x="541.01" y="352.66" width="7.96" height="1.44"/><polygon class="l" points="548.97 354.1 541 354.1 541.7 355.53 548.27 355.53 548.97 354.1"/><path class="t" d="M481.76,323.63c0,2.05,2.28,3.72,5.1,3.72s5.1-1.67,5.1-3.72"/><path class="t" d="M492,323.63c0,2.05,2.29,3.72,5.11,3.72s5.1-1.67,5.1-3.72"/><path class="t" d="M502.18,323.63c0,2.05,2.29,3.72,5.11,3.72s5.1-1.67,5.1-3.72"/><path class="t" d="M512.46,323.63c0,2.05,2.29,3.72,5.11,3.72s5.1-1.67,5.1-3.72"/><path class="t" d="M522.68,323.63c0,2.05,2.28,3.72,5.1,3.72s5.11-1.67,5.11-3.72"/><path class="t" d="M532.89,323.63c0,2.05,2.29,3.72,5.1,3.72s5.1-1.67,5.1-3.72"/><path class="t" d="M543.1,323.63c0,2.05,2.29,3.72,5.11,3.72s5.11-1.67,5.11-3.72"/><path class="t" d="M553.32,323.63c0,2.05,2.28,3.72,5.09,3.72s5.11-1.67,5.11-3.72"/><path class="t" d="M563.53,323.63c0,2.05,2.29,3.72,5.11,3.72s5.1-1.67,5.1-3.72"/><path class="t" d="M573.8,323.63c0,2.05,2.29,3.72,5.11,3.72s5.1-1.67,5.1-3.72"/><path class="t" d="M584,323.63c0,2.05,2.28,3.72,5.1,3.72s5.11-1.67,5.11-3.72"/><path class="t" d="M594.24,323.63c0,2.05,2.28,3.72,5.1,3.72s5.11-1.67,5.11-3.72"/><path class="t" d="M604.45,323.63c0,2.05,2.28,3.72,5.1,3.72s5.11-1.67,5.11-3.72"/><path class="t" d="M614.67,323.63c0,2.05,2.28,3.72,5.1,3.72s5.11-1.67,5.11-3.72"/><g class="b"><path class="u" d="M0,429.59,337,483l333,25,228-71,120-54,146.79-79.49V1008H0"/></g><path class="v" d="M356,578.42c-1-24.87,42.81-46.07,129.71-88.14C523.5,472,595.53,441.67,696.58,429.6,810,416.07,896.31,405.76,945.37,458.66c39,42.08,52.93,122.51,21.08,172.89C870.52,783.29,359.34,662.22,356,578.42Z"/><path class="u" d="M150.52,502.93c2.21-33.11,73.26-54.73,113.13-66.86,124.09-37.74,239.3-13.28,339.8,9.23C700.12,467,753.68,479,757,502.93c6.36,45.66-171,121.77-342.94,111.3C286.9,606.49,147.37,550.44,150.52,502.93Z"/><ellipse class="w" cx="306.23" cy="390.78" rx="101.08" ry="56.34"/><ellipse class="w" cx="787.14" cy="376.51" rx="98.21" ry="54.74"/><ellipse class="x" cx="191.31" cy="361.47" rx="115.84" ry="115.14"/><path class="f" d="M203.71,315.63c0,98.05-65.53,177.52-146.37,177.52A124.23,124.23,0,0,1,0,479V152.24A124.1,124.1,0,0,1,57.34,138.1C138.18,138.1,203.71,217.59,203.71,315.63Z"/><ellipse class="x" cx="892.41" cy="348.05" rx="112.55" ry="111.87"/><ellipse class="f" cx="1022.57" cy="303.51" rx="142.22" ry="172.48"/></g></svg>