<?xml version="1.0" encoding="utf-8"?>
<!-- Generator: Adobe Illustrator 22.1.0, SVG Export Plug-In . SVG Version: 6.00 Build 0)  -->
<svg version="1.1" id="Layer_5" xmlns="http://www.w3.org/2000/svg" xmlns:xlink="http://www.w3.org/1999/xlink" x="0px" y="0px"
	 viewBox="0 0 372.7 89.2" style="enable-background:new 0 0 372.7 89.2;" xml:space="preserve">
<style type="text/css">
	.st0{fill:#C5CCD7;}
	.st1{fill:#D2DEEE;}
	.st2{fill:#F89B68;}
	.st3{fill:#F58C8C;}
	.st4{fill:#534363;}
	.st5{fill:#E9E6EB;}
	.st6{fill:#574568;}
	.st7{fill:#D9D0D9;}
	.st8{fill:#68597D;}
	.st9{fill:#FDCCA1;}
	.st10{fill:#DE7D83;}
	.st11{fill:#531C3C;}
	.st12{fill:#7F3043;}
	.st13{fill:#612A4B;}
	.st14{fill:#3C4462;}
	.st15{fill:#55809D;}
	.st16{fill:#3D4760;}
	.st17{fill:#567A94;}
	.st18{fill:#404D6B;}
	.st19{fill:#F5F6F6;}
	.st20{fill:none;}
	.st21{fill:#F3F3F3;}
	.st22{fill:#D32629;}
	.st23{fill:#2D6B87;}
</style>
<g>
	<g>
		<g>
			<circle class="st0" cx="44" cy="44.7" r="41.7"/>
			<path class="st1" d="M44,88.6c-24.2,0-44-19.7-44-43.9s19.7-44,44-44s44,19.7,44,44S68.3,88.6,44,88.6z M44,5.2
				C22.2,5.2,4.5,22.9,4.5,44.7S22.2,84.2,44,84.2s39.5-17.7,39.5-39.5S65.8,5.2,44,5.2z"/>
		</g>
		<path class="st2" d="M48.4,75.1c-0.1-1.2-0.5-2.2-0.8-3.3c0.1,0.3,0.2,0.6,0.3,0.9c-1-3.2-1.4-6.3,1.5-9.2l3-3.1
			c0.6-0.6,1.1-1.3,1.8-2c5.5-6.8,2.7-10.8-2.8-12.7c-6.2-2.2-9.6,2-11.3,6.2c-0.6,1.4-1.1,3-1.2,4.5l-0.9,5c-0.3,1.6-1,3.1-2,4.4
			l-2,2.3c-1.4,1.5-2.6,3.6-3.5,6.1c-1.3,3.6-0.7,6,1.4,7.9c3.8,1.2,7.8,1.9,12,1.9c1,0,2.1-0.1,3.1-0.2c0.6-0.8,1-1.8,1.2-3.2
			C48.5,78.8,48.5,76.9,48.4,75.1z"/>
		<path class="st3" d="M54.8,43l1.3-4.1c0.4-1.4-0.3-2.8-1.7-3.2c-1.4-0.4-2.8,0.4-3.2,1.7l-1.8,5.9c0.9,0.1,1.8,0.2,2.8,0.1
			C53.1,43.3,53.9,43.2,54.8,43z"/>
		<path class="st4" d="M53.1,50.9h0.6c0.3,0,0.6-0.2,0.6-0.5c0.2-0.7,0.7-2.1,1.1-3.1c-0.1-0.1-0.2-0.1-0.2-0.1
			C53.9,48.5,53.4,49.8,53.1,50.9z"/>
		<path class="st5" d="M50.1,48.4c0.1,0.3,0.2,0.6,0.3,0.8c0.4,1.1,1,1.9,1.8,2.8c0.2,0.3,0.5,0.5,0.7,0.7c0-0.6,0-1.2,0.2-1.9
			c0.2-1.1,0.7-2.3,2.1-3.8c0,0-0.1-0.1-0.2-0.1c-0.3-0.2-0.6-0.2-0.9-0.2c-3.9,0.3-5.7,0.7-7.3,1.6l2.4-0.5
			C49.7,47.9,50.1,48.1,50.1,48.4z"/>
		<path class="st6" d="M46.4,60c1.9,0.7,4.3-0.8,5.2-3.4c-0.3,0.9-0.9,1.6-1.6,1.9c-0.7,0.4-1.5,0.5-2.2,0.2l-4.3-1.6
			c-0.9,0.7-1.5,1.2-1.5,1.2L46.4,60z"/>
		<path class="st4" d="M50.4,49.2c-0.7,0.6-1.4,1.3-2,2c-0.2,0.2-0.3,0.3-0.4,0.4c-2.2,2.7-3.9,4.3-4.9,5.4
			c-0.7,0.7-1.1,1.1-1.2,1.3c0,0,0.6-0.5,1.5-1.2c1.4-1.1,3.6-2.7,5.3-3.5c0.7-0.4,1.4-0.7,1.9-0.9c0.7-0.3,1.3-0.6,1.6-0.7
			C51.4,51.2,50.8,50.3,50.4,49.2z"/>
		<path class="st5" d="M45.5,46.4c-0.7,0.7-1.5,1.7-2.1,2.9c-0.1,0.2-0.2,0.4-0.3,0.6c-1.4,2.7-1.6,5.1-1.5,6.6
			c0.1,1.1,0.3,1.8,0.3,1.8c0.1-0.2,0.5-0.6,1.2-1.3c1-1,2.7-2.7,4.9-5.4c0.1-0.2,0.3-0.3,0.4-0.4c0.7-0.8,1.4-1.5,2-2
			c-0.1-0.3-0.2-0.5-0.3-0.8c-0.1-0.3-0.4-0.5-0.7-0.5L47,48.4l-1.3-1.9C45.7,46.5,45.6,46.4,45.5,46.4z"/>
		<path class="st7" d="M50.1,48.4c-0.1-0.3-0.4-0.5-0.7-0.5L47,48.4l-1.3-1.9c-0.1-0.1-0.1-0.2-0.2-0.2c-0.3,0.3-0.6,0.7-0.9,1
			c0.2-0.1,0.3-0.2,0.5-0.3l1.2,1.7l0,0c0.1,0.1,0.1,0.1,0.2,0.2c0,0,0,0,0.1,0.1s0.2,0.1,0.2,0.1l0,0l0,0l0,0
			c0.1,0,0.2,0.1,0.3,0.1h0.1c0.1,0,0.1,0,0.1,0l2.2-0.4c0.1,0.3,0.2,0.5,0.2,0.7c0.1,0.1,0.1,0.2,0.1,0.3c0.2-0.2,0.4-0.4,0.6-0.6
			C50.3,49,50.3,48.7,50.1,48.4z"/>
		<path class="st5" d="M43.2,46.9c-1,1-1.5,1.8-1.5,1.8c0.1-0.1,0.1-0.1,0.2-0.2c0.2-0.2,0.4-0.4,0.5-0.5c0.3-0.3,0.6-0.5,0.9-0.7
			c0.5-0.4,1-0.7,1.6-0.9c0.2-0.1,0.5-0.1,0.6,0s0.2,0.1,0.2,0.2l1.3,1.9c-0.1-1.4,0.5-2.7,1.2-3.6c0.1-0.1,0.1-0.2,0.1-0.3
			s-0.2-0.2-0.3-0.2l0,0C47.9,44.2,45,45.2,43.2,46.9z"/>
		<path class="st4" d="M43.5,46.2c-0.3,0.2-0.4,0.5-0.3,0.7c0.9-0.9,2.5-1.9,4.8-2.6l0,0C46.6,44.4,44.5,45.6,43.5,46.2z"/>
		<path class="st6" d="M41.9,58.4c0,0-0.3-0.7-0.6-1.9l-2.1-0.8l-0.9-0.3c-0.1,0-0.1,0-0.1-0.1c-0.8-0.4-1.1-1.8-0.7-3.4
			c-0.4,1.2-0.4,2.3-0.1,3.3c0.2,0.5,0.3,0.8,0.6,1.2c0.4,0.5,0.8,0.9,1.4,1.1L41.9,58.4z"/>
		<path class="st4" d="M43.1,49.9c0.1-0.2,0.2-0.4,0.3-0.6c0.7-1.2,1.5-2.2,2.1-2.9c-0.2-0.1-0.4-0.2-0.6,0c-0.6,0.3-1,0.6-1.6,0.9
			l0.3,0.7h-0.9c-0.1,0-0.2,0-0.2,0c-0.2,0.2-0.4,0.3-0.5,0.5s-0.2,0.5-0.3,0.8c-0.2,0.5-0.3,1-0.5,1.7c-0.4,2.1-0.2,4,0.2,5.4
			c0.3,1.2,0.6,1.9,0.6,1.9s-0.3-0.7-0.3-1.8C41.4,55,41.7,52.6,43.1,49.9z"/>
		<path class="st8" d="M43.6,48.1l-0.3-0.7c-0.3,0.2-0.6,0.5-0.9,0.7c0.1,0,0.2,0,0.2,0H43.6z"/>
		<path class="st8" d="M38.2,55.3c0,0,0.1,0,0.1,0.1l0.9,0.3l2.1,0.8c-0.3-1.4-0.6-3.3-0.2-5.4c0.2-0.6,0.3-1.2,0.5-1.7
			c0.1-0.3,0.3-0.6,0.3-0.8c-0.1,0.1-0.1,0.1-0.2,0.2c0,0,0.4-0.8,1.5-1.8c-0.1-0.3,0.1-0.6,0.3-0.7c0.9-0.6,3-1.7,4.4-1.8
			c-0.7-0.2-1.4-0.3-2.2-0.5l-0.9-0.2c-1.7-0.5-4,0.1-4.6,1.9c-0.3,0.7-0.2,1.5,0.1,2.1c0.3,0.7-0.1,1.5-0.7,1.8
			c-0.1,0.1-0.2,0.1-0.3,0.2c-0.7,0.4-1.3,1-1.6,1.9c-0.1,0.2-0.1,0.3-0.1,0.4C37,53.4,37.3,54.9,38.2,55.3z"/>
		<path class="st7" d="M43.1,57.1l-1.5-0.6l0,0c0.1,1.1,0.3,1.8,0.3,1.8C42,58.2,42.4,57.8,43.1,57.1L43.1,57.1z"/>
		<path class="st9" d="M25.6,9.7c-1.9,1-3.8,2.2-5.5,3.5c0.1,1.9,1.3,3.3,2.7,3.3c0.8,0,1.6-0.5,2-1.3c0.5-0.8,1.1-1.5,1.9-2.1
			c1-0.8,1.6-1.2,1.6-1.2c0.3-0.2,0.4-0.6,0.2-0.9s-0.6-0.4-0.9-0.2c-0.4,0.3-0.9,0.7-1.5,1c-0.1,0.1-0.3,0.1-0.4,0.1
			c-0.2-0.1-0.3-0.2-0.3-0.4c0-0.3,0-0.5-0.1-0.7c-0.1-0.4,0-0.7,0.1-1.1L25.6,9.7z"/>
		<path class="st5" d="M24.9,15.8c0-0.1-0.2-0.2-0.3-0.2c-2.3,0.4-1.3,0.2-3.6,0.6c-0.1,0-0.2,0.2-0.2,0.3l0.2,1
			c2.7-0.4,1.4-0.2,4-0.6L24.9,15.8z"/>
		<path class="st8" d="M40.9,47.6c0.5,0.4,1.1,0.5,1.8,0.5c0.6-0.1,1.2-0.5,1.6-1s0.5-1.1,0.5-1.8c-0.1-0.6-0.5-1.2-0.9-1.6
			l-13.1-9.5c-1.8-1.4-3-3.3-3.3-5.5L25.7,17c0-0.2-0.2-0.3-0.3-0.2c-0.1,0-0.1,0-0.2,0c-2.7,0.4-1.4,0.2-4,0.6c-0.1,0-0.1,0-0.2,0
			c-0.2,0-0.3,0.2-0.2,0.3l1.8,11.7c0.6,3.5,2.4,6.6,5.3,8.7L40.9,47.6z"/>
		<g>
			<path class="st2" d="M50,49.5c-0.1,0-0.2-0.1-0.3-0.1c-1.1-0.5-1.8-1.8-1.4-3.1l2.8-8.9c0.4-1.4,1.8-2.1,3.2-1.7
				c1.4,0.4,2.1,1.8,1.7,3.2l-2.8,8.9C52.7,49.2,51.3,49.9,50,49.5z"/>
		</g>
		<path class="st9" d="M63.6,33.8c1.6-4.3-0.9-9.2-5.7-11c-0.7-0.3-1.5-0.5-2.2-0.5c-2.2-0.3-4.6,0.2-6.4,1.4
			c-0.9,0.6-1.7,1.4-2.2,2.2c-0.8,1.1-1.1,2.4-1.6,3.7c-0.4,1.1-1,2.3-1.3,3.6c-0.5,2.1-0.2,4.5,1.3,6.4c1.6,2.1,4.4,2.5,6.9,2.3
			c2.4-0.2,4.9-0.9,6.7-2.2c2.1-1.4,3.7-3.4,4.5-5.6C63.6,33.9,63.6,33.8,63.6,33.8z"/>
		<path class="st3" d="M60.7,33.8c-0.5-0.4-1.2-0.2-1.5,0.4c-0.4,0.8,0.1,1-0.3,1.8c-0.3,0.5-0.5,0.5-0.7,0.9s-0.3,0.9,0.1,1.1
			c0.6,0.4,1.8-0.4,2.4-1.4C61.2,35.8,61.6,34.4,60.7,33.8z"/>
		<path class="st10" d="M52.1,37.7c0,0-0.8,0.4-2.2-0.2c-1.4-0.5-2-0.7-2-0.7c-0.3-0.1-0.7-0.2-0.8,0c-0.1,0.3-0.1,0.3,0.4,0.5
			c0.1,0,0.5,0.2,2.2,0.8c1.8,0.7,2.9,0,2.9,0c0.2-0.1,0.4-0.2,0.3-0.4C52.7,37.6,52.2,37.5,52.1,37.7z"/>
		<path class="st11" d="M53.5,34.5L53.5,34.5c0.3,0.2,0.6,0.2,0.7-0.1l0.4-0.5c0.2-0.3,0.2-0.6-0.1-0.7s-0.6-0.2-0.7,0.1l-0.4,0.5
			C53.2,34,53.2,34.3,53.5,34.5z"/>
		<path class="st11" d="M46.5,32L46.5,32c0.3,0.2,0.6,0.2,0.7-0.1l0.4-0.5c0.2-0.3,0.2-0.6-0.1-0.7c-0.3-0.2-0.6-0.2-0.7,0.1
			l-0.4,0.5C46.2,31.5,46.2,31.8,46.5,32z"/>
		<path class="st12" d="M49.5,30.1c-0.9-0.9-2.1-1.8-2.1-1.8c-0.2-0.1-0.3-0.1-0.4,0.1c-0.1,0.1-0.1,0.3,0.1,0.4
			c0,0,1.3,0.9,1.8,1.5c0.1,0.1,0.1,0.1,0.2,0.2s0.3,0.1,0.4,0C49.6,30.4,49.6,30.2,49.5,30.1z"/>
		<path class="st12" d="M56,32.5c-0.8-1-1.9-1.9-2-1.9c-0.1-0.1-0.3-0.1-0.4,0.1c-0.1,0.1-0.1,0.3,0.1,0.4c0,0,1.2,1,1.7,1.7
			c0.1,0.1,0.1,0.1,0.2,0.2s0.3,0.1,0.4,0C56.1,32.7,56.1,32.6,56,32.5z"/>
		<path class="st13" d="M57.3,43.3c8.4-16.8-8.7-16.2-5.7-20.2c-4.8,3.3,6.1,5.1,6.4,11.7c0.1,2.5-4.1,8.5-5,9.1
			C53.1,43.9,55,44,57.3,43.3z"/>
		<path class="st11" d="M58.9,21.7c-3-0.9-5-1-6.3-0.1c-4.2-0.9-8.7,2-10,7.6c-0.8,3.4-2.2,9.2,3.9,12.3c0.3-0.8-4.8-5.5-1-11.3
			c0.8-1.3,0.8-3.2,1.6-4.3c0.5-0.7,2.1-2.4,4.5-2.9c-3,4.1,13.6,3.2,5.7,20.2c1.9-0.6,4.2-2.6,5.8-4.8C68.1,32,64.4,23.3,58.9,21.7
			z"/>
		<path class="st11" d="M54.3,31.7c-2.1-0.5-3-0.2-3.4-0.3c-0.4-0.2-0.8-1-2.9-1.9c-2-0.9-3.2-0.4-3.2-0.4L44.5,30
			c0,0,0.2,0.2,0.2,0.6c-0.1,0.2-0.1,0.4-0.1,0.6c-0.1,0.6,0.2,1.2,0.7,1.4l2,0.8h0.1c0.7,0.2,1.4-0.1,1.9-0.7
			c0.2-0.1,0.3-0.3,0.4-0.4c0.3-0.3,0.6-0.2,0.8-0.2c0.1,0,0.2,0.1,0.2,0.1c0.2,0.1,0.6,0.2,0.6,0.6c0,0.2,0,0.4,0.1,0.5
			c0,0.8,0.4,1.6,1,1.8l2.1,0.6c0.5,0.2,1.1-0.1,1.4-0.7c0.1-0.2,0.2-0.4,0.3-0.5c0.3-0.2,0.5-0.3,0.5-0.3l0.3-0.9
			C57.1,33.4,56.4,32.3,54.3,31.7z M47.6,33.2l-2-0.8c-0.4-0.2-0.6-0.6-0.5-1.1c0.1-0.6,0.2-1.1,0.3-1.4c0.2-0.3,0.7-0.7,2.1-0.2
			c0.1,0,0.2,0.1,0.2,0.1c1.1,0.4,1.7,0.8,1.9,1.3c0.1,0.3,0.1,0.6-0.1,1C49,32.9,48.2,33.4,47.6,33.2z M55.7,35
			c-0.3,0.5-0.7,0.7-1.1,0.6l-2-0.6h-0.1c-0.7-0.3-1-1.1-0.8-2c0.1-0.5,0.3-0.7,0.6-0.9c0.4-0.3,1.1-0.2,2.2,0.2
			c0.1,0,0.2,0.1,0.2,0.1c1.4,0.5,1.6,1.1,1.6,1.5C56.3,33.9,56,34.5,55.7,35z"/>
		<path class="st11" d="M57.1,33.4c-0.1,0.3-0.2,0.5-0.2,0.6s0,0.1,0,0.1c0,0.1-0.1,0.1-0.1,0.2l0.3,0.1c0.4,0.2,1.1-0.3,1.6-0.2
			l0.7,0.3c0-0.1,0-0.2,0-0.3L57.1,33.4z"/>
		<path class="st14" d="M35.4,72.9c0.1-0.2,0.2-0.4,0.2-0.5C35.6,72.6,35.5,72.7,35.4,72.9z"/>
		<path class="st14" d="M53.1,50.9h0.6c0.3,0,0.6-0.2,0.6-0.5c0.2-0.7,0.7-2.1,1.1-3.1c-0.1-0.1-0.2-0.1-0.2-0.1
			C53.9,48.5,53.4,49.8,53.1,50.9z"/>
		<path class="st15" d="M49.4,48c0.3-0.1,0.6,0.2,0.7,0.5s0.2,0.6,0.3,0.8c0.4,1.1,1,1.9,1.8,2.8c0.2,0.3,0.5,0.5,0.7,0.7
			c0-0.6,0-1.2,0.2-1.9c0.2-1.1,0.7-2.3,2.1-3.8c0,0-0.1-0.1-0.2-0.1c-0.3-0.2-0.6-0.2-0.9-0.2c-0.1,0-0.2,0-0.3,0
			c-3.6,0.3-5.3,0.7-6.8,1.4c-0.1,0-0.1,0.1-0.2,0.1L49.4,48z"/>
		<path class="st16" d="M46.4,60c1.9,0.7,4.3-0.8,5.2-3.4c-0.3,0.9-0.9,1.6-1.6,1.9c-0.7,0.4-1.5,0.5-2.2,0.2l-4.3-1.6
			c-0.9,0.7-1.5,1.2-1.5,1.2L46.4,60z"/>
		<path class="st14" d="M50.4,49.2c-0.2,0.1-0.3,0.2-0.4,0.3c-0.1,0.1-0.2,0.2-0.3,0.3l0,0c-0.5,0.4-0.9,0.9-1.4,1.5
			c-0.2,0.2-0.3,0.3-0.4,0.4C45.7,54.4,44,56,43,57.1l0,0l0,0c-0.7,0.7-1.1,1.1-1.2,1.3c0,0,0.6-0.5,1.5-1.2
			c1.4-1.1,3.6-2.7,5.3-3.5c0.7-0.4,1.4-0.7,1.9-0.9c0.7-0.3,1.3-0.6,1.6-0.7C51.4,51.2,50.8,50.3,50.4,49.2z"/>
		<path class="st15" d="M41.5,56.5L41.5,56.5l1.5,0.6c1-1,2.7-2.7,4.9-5.4c0.1-0.2,0.3-0.3,0.4-0.4c0.5-0.6,0.9-1,1.4-1.5
			c-0.1-0.1-0.1-0.2-0.1-0.3c-0.1-0.2-0.2-0.4-0.2-0.7l-2.2,0.4c-0.1,0-0.1,0-0.1,0H47c-0.1,0-0.2,0-0.3-0.1l0,0l0,0
			c-0.1,0-0.2-0.1-0.2-0.1s0,0-0.1-0.1s-0.1-0.1-0.2-0.2l0,0l-0.1-0.1c-0.8,0.4-1.8,0.7-3,0.8c-0.1,0.1-0.1,0.2-0.2,0.3
			C41.7,52.6,41.4,55,41.5,56.5z"/>
		<path class="st15" d="M50.4,49.2c-0.2,0.1-0.3,0.2-0.4,0.3C50.1,49.4,50.3,49.3,50.4,49.2z"/>
		<path class="st17" d="M46.3,48.9c0.1,0.1,0.1,0.1,0.2,0.2c0,0,0,0,0.1,0.1s0.2,0.1,0.2,0.1l0,0l0,0c0.1,0,0.2,0.1,0.3,0.1h0.1
			c0.1,0,0.1,0,0.1,0l2.2-0.4c0.1,0.3,0.2,0.5,0.2,0.7c0.1,0.1,0.1,0.2,0.1,0.3l0,0c0.1-0.1,0.2-0.2,0.3-0.3
			c0.2-0.1,0.3-0.2,0.4-0.3c-0.1-0.3-0.2-0.5-0.3-0.8c-0.1-0.3-0.4-0.5-0.7-0.5l-2.4,0.5c-0.3,0.2-0.5,0.3-0.7,0.4L46.3,48.9
			L46.3,48.9z"/>
		<path class="st16" d="M39.4,57.4l2.6,0.9c0,0-0.3-0.7-0.6-1.9l-2.1-0.8l-0.9-0.3c-0.1,0-0.1,0-0.1-0.1c-0.8-0.4-1.1-1.8-0.7-3.4
			c-0.4,1.2-0.4,2.3-0.1,3.3c0.2,0.5,0.3,0.8,0.6,1.2C38.3,56.9,38.8,57.2,39.4,57.4z"/>
		<path class="st14" d="M41.3,56.4c0.3,1.2,0.6,1.9,0.6,1.9s-0.3-0.7-0.3-1.8c-0.1-1.5,0.1-3.9,1.5-6.6c0.1-0.1,0.1-0.2,0.2-0.3
			c-0.5,0.1-1.1,0.1-1.7,0.1c-0.2,0.4-0.3,0.8-0.4,1.4C40.7,53.1,41,55.1,41.3,56.4z"/>
		<path class="st18" d="M38.2,55.3c0,0,0.1,0,0.1,0.1l0.9,0.3l2.1,0.8c-0.3-1.4-0.6-3.3-0.2-5.4c0.1-0.5,0.2-0.9,0.4-1.4h-0.1
			c-0.8,0-1.6-0.1-2.2-0.2c-0.7,0.4-1.3,1-1.6,1.9c-0.1,0.2-0.1,0.3-0.1,0.4C37,53.4,37.3,54.9,38.2,55.3z"/>
		<path class="st17" d="M43.1,57.1L43.1,57.1l-1.5-0.6l0,0c0.1,1.1,0.3,1.8,0.3,1.8C42,58.2,42.4,57.8,43.1,57.1L43.1,57.1z"/>
		<g>
			<path class="st19" d="M75.1,55.6c0,0.2-0.1,0.3-0.1,0.4C75.1,55.9,75.1,55.8,75.1,55.6z"/>
			<path class="st20" d="M32.4,41.5l-0.2-0.1c-0.1,0.1-0.3,0.2-0.4,0.3C32,41.6,32.2,41.5,32.4,41.5z"/>
			<path class="st20" d="M37.3,38.9c-0.1,0-0.1,0-0.2,0.1l1.4,1c1.7-0.2,3.5-0.3,5.4-0.2c-0.2-0.2-0.3-0.3-0.4-0.5
				C42,38.6,40.1,38.3,37.3,38.9z"/>
			<path class="st20" d="M70.5,50.3c-0.3-1.7-1.1-3.3-3.5-4.9c-2.5-1.7-4.8-2.1-7-2.2C64.6,45.1,68.3,47.6,70.5,50.3z"/>
			<path class="st21" d="M37.3,38.9c2.8-0.6,4.6-0.3,6.3,0.4c-0.5-0.6-0.8-1.1-1-1.8c-1.5-0.4-3.2-0.5-5.5,0.1
				c-0.4,0.1-0.8,0.2-1.2,0.3L37.3,38.9C37.3,38.9,37.3,38.9,37.3,38.9z"/>
			<path class="st21" d="M31.9,41.6c0.1-0.1,0.2-0.2,0.4-0.3l-1.1-0.8c-1.4,1.2-2.3,2.5-3,3.5c0,0.1-0.1,0.1-0.1,0.1
				C29,43.1,30.3,42.3,31.9,41.6z"/>
			<path class="st21" d="M45.6,39.8L45.6,39.8L45.6,39.8L45.6,39.8z"/>
			<path class="st21" d="M60,43.2c2.2,0.1,4.5,0.5,7,2.2c2.3,1.6,3.1,3.2,3.5,4.9c0.6,0.7,1.1,1.5,1.5,2.2c-0.1-2.6-0.4-5.5-4.3-8.2
				c-2.9-1.9-5.5-2.4-8-2.4c-0.4,0.3-0.8,0.6-1.2,0.8C59.1,42.8,59.6,43,60,43.2z"/>
			<path class="st21" d="M71.2,61.5l0.2,0.2c0.4,0.4,0.7,0.8,1,1.3c0.3-1.5,0.1-2.9-0.2-3.9c-0.3,0.5-0.7,1-1.1,1.5
				C71.2,60.9,71.2,61.2,71.2,61.5z"/>
			<path class="st19" d="M60,43.2c-0.5-0.2-0.9-0.4-1.4-0.5c-0.5,0.3-0.9,0.5-1.4,0.6c-0.5,0.2-0.9,0.3-1.3,0.3
				c0,0.3-0.1,0.6-0.2,0.9c-0.2,0.9-0.5,1.8-0.7,2.6c0,0,0,0,0.1,0c0.1,0.1,0.2,0.1,0.2,0.1c0.1,0.1,0.2,0.1,0.2,0.1
				c0.5,0.3,1.1,0.6,1.8,0.9l0,0c0.1,0,0.2,0.1,0.2,0.1s0.1,0,0.1,0.1c0.1,0.1,0.2,0.1,0.2,0.1s0,0,0.1,0c0.5,0.3,0.9,0.7,1.3,1.2
				c0.1,0.1,0.2,0.1,0.2,0.2l1.1,1.1c0.6,0.5,1.1,0.9,1.5,1.4l0,0c2.2-3.7,9.5-1.9,10.7,1.7c-0.2-0.5-0.4-1-0.6-1.5
				c-0.4-0.7-0.9-1.5-1.5-2.2C68.3,47.6,64.6,45.1,60,43.2z"/>
			<path class="st19" d="M38.6,39.9l4.8,3.5c0.5,0,0.9,0.1,1.4,0.2l0.9,0.2c0.4,0.1,0.7,0.2,1,0.2c0.1-0.4,0.1-0.8,0.2-1.3
				c0.1-0.6,0.3-1.2,0.5-1.7c-0.7-0.3-1.3-0.7-1.8-1.3l0,0c0.5,0.9,0.9,1.5,0.8,1.8c-1-0.6-1.9-1.2-2.5-1.8
				C42.1,39.7,40.3,39.7,38.6,39.9z"/>
			<path class="st19" d="M73,55.8c0,0.1,0,0.2,0,0.3C73,56,73,55.9,73,55.8z"/>
			<path class="st19" d="M73,54.9c0,0.2,0.1,0.3,0.1,0.4C73,55.1,73,55,73,54.9z"/>
			<path class="st19" d="M73,55.3c0,0.2,0,0.3,0.1,0.4C73,55.6,73,55.4,73,55.3z"/>
			<path class="st19" d="M63.8,54.2l7,6.8c0.2-0.2,0.3-0.3,0.4-0.4c0.5-0.5,0.8-1,1.1-1.5c0-0.1,0.1-0.1,0.1-0.2
				C72.4,55.7,67.6,53.4,63.8,54.2z"/>
			<path class="st19" d="M38.2,47.3L38.2,47.3c0.4-0.2,0.9-0.4,1.5-0.5l-7.3-5.3c-0.2,0.1-0.3,0.2-0.5,0.2c-1.6,0.7-2.9,1.5-3.9,2.5
				c-0.2,0.2-0.4,0.4-0.6,0.7c0.1-0.1,0.2-0.2,0.3-0.3C30.3,41.8,37.6,43.1,38.2,47.3z"/>
			<path class="st22" d="M56,43.6c-0.6,0.1-1,0.2-1.5,0.2l-0.6,1.9l0,0l-0.3,1l0,0c0.1,0.1,0.2,0.2,0.3,0.2s0.2,0,0.3,0h0.1
				c0.3,0,0.5,0.1,0.8,0.2c0.3-0.7,0.6-1.6,0.7-2.6C55.9,44.2,56,43.9,56,43.6z"/>
			<path class="st22" d="M46.9,42.8c-0.1,0.5-0.2,0.9-0.2,1.3c0.4,0.1,0.8,0.2,1.2,0.3H48c0.1,0,0.2,0.1,0.3,0.2s0,0.3-0.1,0.3
				s-0.1,0.2-0.2,0.2c0.2,0,0.4,0,0.6,0l0.6-1.8l0,0l0.5-1.5c-0.8-0.1-1.6-0.3-2.2-0.6C47.2,41.6,47,42.2,46.9,42.8z"/>
			<path class="st22" d="M26.6,46.3L26.6,46.3c-0.1,0.2-0.1,0.3-0.2,0.4v0.1c-0.1,0.1-0.1,0.2-0.1,0.3c0,0.1,0,0.1,0,0.1
				c-0.1,0.2-0.1,0.3-0.1,0.4c0,0.2-0.1,0.3-0.1,0.4v0.1c0,0.1,0,0.2-0.1,0.3c0,0,0,0,0,0.1c0,0.3,0,0.6,0,0.8
				c1.5-3.4,8.2-3.2,11,0.3l0,0c0-0.1,0-0.1-0.1-0.2c0,0,0,0,0-0.1s0-0.1,0-0.2V49c0-0.1,0-0.1,0-0.1v-0.2l0.1-0.2
				c0,0,0-0.1,0.1-0.1c0-0.1,0-0.1,0.1-0.1c0-0.1,0.1-0.1,0.1-0.1s0-0.1,0.1-0.1c0.1-0.1,0.1-0.1,0.1-0.2c0,0,0,0,0-0.1
				c0.1-0.1,0.1-0.1,0.2-0.2l0,0c0.1-0.1,0.1-0.1,0.2-0.2l0,0c0.1-0.1,0.2-0.1,0.2-0.2l0,0c0.1-0.1,0.2-0.1,0.3-0.2l0,0l0,0
				c-0.5-4.2-7.8-5.5-10.4-2.8c-0.1,0.1-0.2,0.2-0.3,0.3c0,0,0,0-0.1,0.1s-0.2,0.2-0.2,0.3c0,0,0,0.1-0.1,0.1
				c-0.2,0.2-0.3,0.5-0.4,0.7c0,0,0,0.1-0.1,0.1C26.6,46,26.6,46.2,26.6,46.3z"/>
			<path class="st22" d="M62,52.3L62,52.3L62,52.3c0.1,0.1,0.1,0.2,0.2,0.2l0,0c0.1,0.1,0.1,0.1,0.1,0.2l1.5,1.5
				c3.8-0.8,8.6,1.5,8.6,4.8l0,0l0,0c0.2-0.3,0.3-0.5,0.3-0.7c0,0,0,0,0-0.1c0.1-0.1,0.1-0.2,0.1-0.3v-0.1c0.1-0.2,0.1-0.3,0.1-0.4
				c0-0.2,0.1-0.3,0.1-0.4s0-0.1,0-0.1c0-0.1,0-0.2,0-0.3v-0.1c0-0.2,0-0.3,0-0.4V56c0-0.1,0-0.2,0-0.3v-0.1c0-0.2,0-0.3-0.1-0.4
				l0,0c0-0.2-0.1-0.3-0.1-0.4v-0.1c0-0.1-0.1-0.2-0.1-0.4v-0.1c-0.1-0.2-0.1-0.3-0.1-0.4l0,0l0,0C71.4,50.4,64.2,48.7,62,52.3z"/>
		</g>
		<path class="st15" d="M31.6,64.9L31.6,64.9L31.6,64.9L31.6,64.9z"/>
		<path class="st19" d="M58.8,56.2c-2.6,0.4-6.1,0.2-9.9-0.6c-6.3-1.4-11.3-4-11.9-6.2c-2.8-3.4-9.5-3.7-11-0.3
			c0.4,6.1,9.2,12.5,21,15c7.8,1.7,14.4,1.5,19.3-0.6C63.8,61.1,61.4,58.7,58.8,56.2z"/>
		<g>
			<path class="st22" d="M51.7,64.9c0,0,1.4-3.1,1.8-5.8c0.2-1.3,0.1-2.9,0.1-2.9c-1.5-0.2-3-0.4-4.6-0.7c-1.6-0.3-3.1-0.7-4.5-1.3
				c0,0-0.7,1.1-1.3,2.9c-0.6,2.1-0.6,5.8-0.6,5.8c1.5,0.5,3,0.9,4.5,1.2C48.6,64.5,50.2,64.7,51.7,64.9z"/>
		</g>
		<path class="st21" d="M42.2,62.7c-1.8,0.2-3.8,0.3-5.8,0.1c-0.1,0.5-0.2,0.9-0.3,1.3c2.1,0.3,4.2,0.1,6.2,0
			c1.9-0.2,3.6-0.1,5.1,0.2l0.3-1.3C46,62.6,44.3,62.5,42.2,62.7z"/>
		<path class="st21" d="M68.7,66.7c-1,0.7-2.5,1.2-4.2,1.5c-4.8,0.8-7.6-0.8-10.6-2.6C52,64.5,50,63.4,47.5,63l-0.2,1.3
			c2.2,0.3,4.1,1.4,6,2.5c3,1.8,6.2,3.6,11.5,2.7c1.6-0.3,2.4-0.5,3.5-1C68.5,67.9,68.8,67.6,68.7,66.7z"/>
		<path class="st21" d="M31.7,61.3c-3.9-2.1-6.5-5.1-6.9-8c-0.2-1.5,0.2-3,1.2-4.5c0-0.2,0-0.3,0-0.5c0,0,0,0,0-0.1s0-0.2,0.1-0.3
			v-0.1c0-0.2,0.1-0.3,0.1-0.4c0-0.2,0.1-0.3,0.1-0.4s0-0.1,0-0.1c0-0.1,0.1-0.2,0.1-0.3v-0.1c0.1-0.1,0.1-0.3,0.2-0.4V46
			c0.1-0.1,0.1-0.2,0.1-0.3c-2.5,2.3-3.5,4.9-3.1,7.5c0.5,3.3,3.3,6.7,7.6,9c0.2,0.1,0.4,0.2,0.6,0.3c1.5,0.7,3,1,4.5,1.2
			c0.2-0.4,0.4-0.8,0.6-1.3C35,62.7,33.3,62.2,31.7,61.3z"/>
		<path class="st14" d="M35.5,76.2c-0.4-1-0.5-2.2-0.1-3.3c-0.8,1.6-3.3,3.7-4.8,3.2l-1.1-0.4c-0.1,0.5-0.2,1-0.2,1.4
			c-0.1,0.9-0.3,1.7-0.7,2.4c-0.2,0.4-0.4,0.7-0.6,1c4.9,2.1,10.2,3.3,15.8,3.3c1.2,0,2.4-0.1,3.6-0.2c0.3-0.4,0.5-0.8,0.6-1.3
			c-0.9-0.3-9.7-3.5-9.9-3.6C37,78.4,36,77.5,35.5,76.2z"/>
		<path class="st18" d="M59.4,49.8c-0.1-0.1-0.2-0.2-0.3-0.2c-0.5-0.7-1.1-1.2-1.8-1.5c-0.6-0.3-1.3-0.6-1.8-0.9
			c-0.5,1-0.9,2.4-1.1,3.1c-0.1,0.3-0.4,0.5-0.6,0.5h-0.6C53,51.5,53,52.2,53,52.7c-0.3-0.3-0.5-0.5-0.7-0.7
			c-0.4,0.2-0.9,0.4-1.6,0.7c-0.5,0.3-1.2,0.6-1.9,0.9c-1.7,0.8-3.8,2.4-5.3,3.5l4.3,1.6c0.7,0.3,1.6,0.2,2.2-0.2
			c0.7-0.4,1.3-1,1.6-1.9c-0.9,2.6-3.3,4.1-5.2,3.4l-4.5-1.7l-2.6-0.9c-0.6-0.2-1-0.6-1.4-1.1c0,0.1,0,0.2,0,0.2L37,61.4
			c-0.6,3.1-2.4,4.4-3.8,6.3c-1.5,1.5-2.7,3.6-3.7,6.3c-0.2,0.5-0.3,0.9-0.4,1.4c-0.1,0.2,0.1,0.3,0.2,0.4l0.2,0.1l1.1,0.4
			c1.4,0.5,3.9-1.6,4.8-3.2c0.1-0.2,0.2-0.4,0.2-0.5c-0.1,0.2-0.2,0.4-0.2,0.5c-0.4,1-0.4,2.2,0.1,3.3c0.5,1.3,1.5,2.2,2.8,2.7
			c0.2,0.1,8.9,3.2,9.9,3.6c0.1,0,0.1,0,0.1,0c0.1,0,0.2,0,0.3,0c0.1-0.1,0.2-0.1,0.2-0.2c0.2-0.5,0.3-0.9,0.4-1.5
			c0.5-2.5,0.5-5.5-0.4-8.1v-0.1c-1-3.3-1.2-5.8,1.2-8.2c0.3-0.3,2.7-2.7,3-3.1l0,0c1.1-1.1,2.6-2.8,3.4-4.3
			c0.4-0.7,0.9-1.4,1.5-1.9l10.3,10.1c0.8,0.7,0.9,1.9,0.4,2.9l-6.2,11c-0.1,0.1-0.1,0.3,0.1,0.3c3.3-1.8,6.3-4,9-6.6l1.4-2.4
			c1.6-2.9,1.1-6.5-1.3-8.8L59.4,49.8z"/>
	</g>
	<g>
		<path class="st23" d="M124.5,48c-0.1,1.4-0.5,2.7-1.2,3.8c-0.7,1.1-1.7,1.9-3,2.5s-2.7,0.9-4.4,0.9c-2.7,0-4.8-0.9-6.4-2.6
			c-1.4-1.7-2.2-4.2-2.2-7.4v-1c0-2,0.4-3.8,1-5.3s1.7-2.7,3-3.5s2.8-1.2,4.6-1.2c2.5,0,4.5,0.7,6,2s2.4,3.1,2.6,5.4h-4.9
			c0-1.2-0.4-2.1-0.9-2.7s-1.5-0.8-2.7-0.8s-2.1,0.5-2.7,1.4s-0.9,2.4-0.9,4.4v1.4c0,2.2,0.3,3.8,0.8,4.7s1.5,1.4,2.8,1.4
			c1.1,0,2-0.3,2.6-0.8s0.9-1.4,1-2.6L124.5,48L124.5,48z"/>
		<path class="st23" d="M134.4,47.7h-2.7V55h-4.9V34.5h8.1c2.4,0,4.3,0.5,5.7,1.6c1.4,1.1,2.1,2.6,2.1,4.6c0,1.4-0.3,2.6-0.9,3.5
			s-1.5,1.7-2.7,2.3l4.3,8.3V55h-5.3L134.4,47.7z M131.8,43.9h3.1c0.9,0,1.6-0.2,2.1-0.7s0.7-1.2,0.7-2.1s-0.2-1.6-0.7-2.1
			s-1.2-0.8-2.1-0.8h-3.1V43.9z"/>
		<path class="st23" d="M158.4,46.3h-7.8v4.9h9.2V55h-14.2V34.5h14.2v3.8h-9.2v4.3h7.8V46.3z"/>
		<path class="st23" d="M161.8,55V34.5h6.6c1.8,0,3.4,0.4,4.9,1.2c1.4,0.8,2.6,2,3.4,3.5s1.2,3.2,1.2,5v0.9c0,1.9-0.4,3.6-1.2,5.1
			c-0.8,1.5-1.9,2.7-3.4,3.5s-3.1,1.3-4.8,1.3H161.8z M166.7,38.3v12.9h1.7c1.4,0,2.5-0.5,3.3-1.5s1.1-2.5,1.1-4.5v-0.9
			c0-2-0.4-3.5-1.1-4.5c-0.8-1-1.9-1.5-3.3-1.5H166.7z"/>
		<path class="st23" d="M185.7,55h-4.9V34.5h4.9V55z"/>
		<path class="st23" d="M204.9,38.3h-6.2V55h-4.9V38.3h-6v-3.8h17.1V38.3z"/>
		<path class="st23" d="M224.9,51.2h-6.8l-1.2,3.8h-5.3l7.5-20.5h4.7l7.6,20.5h-5.3L224.9,51.2z M219.3,47.3h4.4l-2.2-7.1
			L219.3,47.3z"/>
		<path class="st23" d="M250.1,55h-4.9l-7.3-12.8V55H233V34.5h4.9l7.3,12.8V34.5h4.9V55z"/>
		<path class="st23" d="M253.2,55V34.5h6.6c1.8,0,3.4,0.4,4.9,1.2c1.4,0.8,2.6,2,3.4,3.5s1.2,3.2,1.2,5v0.9c0,1.9-0.4,3.6-1.2,5.1
			c-0.8,1.5-1.9,2.7-3.4,3.5s-3.1,1.3-4.8,1.3H253.2z M258.1,38.3v12.9h1.7c1.4,0,2.5-0.5,3.3-1.5s1.1-2.5,1.1-4.5v-0.9
			c0-2-0.4-3.5-1.1-4.5s-1.8-1.5-3.3-1.5H258.1z"/>
		<path class="st23" d="M279,55V34.5h6.6c1.8,0,3.4,0.4,4.9,1.2c1.4,0.8,2.6,2,3.4,3.5s1.2,3.2,1.2,5v0.9c0,1.9-0.4,3.6-1.2,5.1
			s-1.9,2.7-3.4,3.5s-3.1,1.3-4.8,1.3H279z M284,38.3v12.9h1.7c1.4,0,2.5-0.5,3.3-1.5s1.1-2.5,1.1-4.5v-0.9c0-2-0.4-3.5-1.1-4.5
			s-1.9-1.5-3.3-1.5H284z"/>
		<path class="st23" d="M310.4,46.3h-7.8v4.9h9.2V55h-14.1V34.5h14.2v3.8h-9.2v4.3h7.8L310.4,46.3L310.4,46.3z"/>
		<path class="st23" d="M313.9,55V34.5h7.4c2.6,0,4.6,0.5,6,1.5s2.1,2.4,2.1,4.2c0,1.1-0.2,2-0.7,2.7c-0.5,0.8-1.2,1.3-2.2,1.7
			c1.1,0.3,1.9,0.8,2.5,1.6c0.6,0.8,0.9,1.7,0.9,2.8c0,2-0.6,3.5-1.9,4.5s-3.2,1.5-5.7,1.5C322.3,55,313.9,55,313.9,55z M318.8,43
			h2.6c1.1,0,1.9-0.2,2.3-0.6c0.5-0.4,0.7-1,0.7-1.7c0-0.9-0.2-1.5-0.7-1.9s-1.3-0.6-2.4-0.6h-2.4L318.8,43L318.8,43L318.8,43z
			 M318.8,46.3v4.9h3.2c0.9,0,1.6-0.2,2.1-0.6s0.7-1,0.7-1.7c0-1.7-0.8-2.6-2.5-2.6C322.3,46.3,318.8,46.3,318.8,46.3z"/>
		<path class="st23" d="M348.2,38.3H342V55h-4.9V38.3h-6v-3.8h17.1L348.2,38.3L348.2,38.3z"/>
	</g>
</g>
</svg>
