<?xml version="1.0" encoding="utf-8"?>
<!-- Generator: Adobe Illustrator 22.1.0, SVG Export Plug-In . SVG Version: 6.00 Build 0)  -->
<svg version="1.1" id="Layer_3" xmlns="http://www.w3.org/2000/svg" xmlns:xlink="http://www.w3.org/1999/xlink" x="0px" y="0px"
	 viewBox="0 0 372.7 89.2" style="enable-background:new 0 0 372.7 89.2;" xml:space="preserve">
<style type="text/css">
	.st0{fill:#2D6B87;}
	.st1{fill:#1F7FC3;}
	.st2{fill:#383938;}
	.st3{fill:#232323;}
	.st4{fill:#1E1E1E;}
	.st5{fill:#FAC5C6;}
	.st6{fill:#F2A5AB;}
	.st7{fill:#353635;}
	.st8{fill:#FFFFFF;}
	.st9{fill:#3B3A3B;}
	.st10{fill:#404040;}
	.st11{fill:#505050;}
	.st12{fill:#9B9B9B;}
	.st13{fill:#010101;}
	.st14{fill:#676767;}
	.st15{fill:#F0ECEE;}
	.st16{fill:#E8E1E6;}
	.st17{fill:#CB3B54;}
	.st18{fill:#B6314A;}
	.st19{fill:#542542;}
	.st20{fill:#EDB0AF;}
	.st21{fill:#DD7D81;}
	.st22{fill:#333333;}
	.st23{fill:#4D4D4D;}
	.st24{fill:#98C6E5;}
</style>
<g>
	<g>
		<path class="st0" d="M113.3,41.6h-4.8v-20h4.8V41.6z"/>
		<path class="st0" d="M116.7,41.6v-20h6.4c1.8,0,3.3,0.4,4.7,1.2c1.4,0.8,2.5,1.9,3.3,3.4s1.2,3.1,1.2,4.9V32
			c0,1.8-0.4,3.5-1.2,4.9c-0.8,1.4-1.9,2.6-3.3,3.4s-3,1.2-4.7,1.2h-6.4V41.6z M121.5,25.2v12.5h1.7c1.4,0,2.4-0.5,3.2-1.5
			c0.8-1,1.1-2.4,1.1-4.4V31c0-1.9-0.4-3.4-1.1-4.3c-0.7-1-1.8-1.5-3.2-1.5L121.5,25.2L121.5,25.2z"/>
		<path class="st0" d="M147.1,33.1h-7.5v4.8h8.9v3.7h-13.7v-20h13.7v3.7h-8.9v4.2h7.5L147.1,33.1L147.1,33.1z"/>
		<path class="st0" d="M167,41.6h-4.8l-7.1-12.4v12.4h-4.8v-20h4.8l7,12.4V21.6h4.8L167,41.6L167,41.6z"/>
		<path class="st0" d="M185.3,25.2h-6v16.3h-4.8V25.2h-5.9v-3.7h16.6L185.3,25.2L185.3,25.2z"/>
		<path class="st0" d="M192.4,41.6h-4.8v-20h4.8V41.6z"/>
		<path class="st0" d="M211,25.2h-6v16.3h-4.8V25.2h-5.9v-3.7h16.6L211,25.2L211,25.2z"/>
		<path class="st0" d="M220.5,30.2l3.7-8.6h5.2L223,34.4v7.1h-4.9v-7.2l-6.4-12.8h5.2L220.5,30.2z"/>
		<path class="st0" d="M252.6,25.2h-6v16.3h-4.8V25.2h-5.9v-3.7h16.6L252.6,25.2L252.6,25.2z"/>
		<path class="st0" d="M271.2,41.6h-4.8v-8.3h-7.1v8.3h-4.8v-20h4.8v7.9h7.1v-7.9h4.8V41.6L271.2,41.6z"/>
		<path class="st0" d="M286.7,33.1h-7.5v4.8h8.9v3.7h-13.7v-20h13.7v3.7h-8.9v4.2h7.5V33.1z"/>
		<path class="st0" d="M302.5,33.6h-7.7v8H290v-20h13.3v3.7h-8.5v4.6h7.7V33.6z"/>
		<path class="st0" d="M321.2,25.2h-6v16.3h-4.8V25.2h-5.9v-3.7H321L321.2,25.2L321.2,25.2z"/>
		<path class="st0" d="M120.5,64.8h-6.6l-1.1,3.8h-5.1l7.3-19.9h4.5l7.3,19.9h-5.2L120.5,64.8z M115.1,61.1h4.3l-2.1-6.9L115.1,61.1
			z"/>
		<path class="st0" d="M144.9,68.6h-4.8L133,56.2v12.4h-4.8v-20h4.8l7,12.4V48.6h4.8L144.9,68.6L144.9,68.6z"/>
		<path class="st0" d="M147.9,68.6v-20h6.4c1.8,0,3.3,0.4,4.7,1.2c1.4,0.8,2.5,1.9,3.3,3.4s1.2,3.1,1.2,4.9V59
			c0,1.8-0.4,3.5-1.2,4.9s-1.9,2.6-3.3,3.4s-3,1.2-4.7,1.2h-6.4V68.6z M152.7,52.2v12.5h1.7c1.4,0,2.4-0.5,3.2-1.5s1.1-2.4,1.1-4.4
			V58c0-1.9-0.4-3.4-1.1-4.3s-1.8-1.5-3.2-1.5L152.7,52.2L152.7,52.2z"/>
		<path class="st0" d="M183.3,63.2c0-0.7-0.2-1.2-0.7-1.6s-1.4-0.8-2.6-1.2c-1.2-0.4-2.3-0.8-3.1-1.2c-2.6-1.3-3.9-3-3.9-5.2
			c0-1.1,0.3-2.1,1-2.9s1.6-1.5,2.7-2s2.5-0.7,4-0.7c1.4,0,2.7,0.3,3.8,0.8c1.1,0.5,2,1.2,2.6,2.2s0.9,2,0.9,3.2h-4.8
			c0-0.8-0.2-1.4-0.7-1.9s-1.2-0.7-2-0.7c-0.9,0-1.5,0.2-2,0.6s-0.7,0.9-0.7,1.4s0.3,1,0.8,1.4s1.5,0.8,2.9,1.3s2.5,0.9,3.4,1.4
			c2.2,1.2,3.2,2.9,3.2,5.1c0,1.7-0.7,3.1-2,4.1s-3.1,1.5-5.4,1.5c-1.6,0-3.1-0.3-4.4-0.9s-2.3-1.4-3-2.4s-1-2.2-1-3.5h4.8
			c0,1.1,0.3,1.9,0.8,2.4s1.4,0.8,2.7,0.8c0.8,0,1.4-0.2,1.9-0.5C183,64.5,183.3,63.9,183.3,63.2z"/>
		<path class="st0" d="M201.8,64.8h-6.6l-1.1,3.7h-5.1l7.3-19.9h4.5l7.4,19.9h-5.2L201.8,64.8z M196.4,61.1h4.3l-2.1-6.9L196.4,61.1
			z"/>
		<path class="st0" d="M222.1,60.6h-7.7v7.9h-4.8V48.6h13.3v3.7h-8.5v4.6h7.7V60.6z"/>
		<path class="st0" d="M237.3,60.1h-7.5v4.8h8.9v3.7h-13.7v-20h13.7v3.7h-8.9v4.2h7.5V60.1z"/>
		<path class="st0" d="M256.5,52.2h-6v16.3h-4.8V52.2h-5.9v-3.7h16.6L256.5,52.2L256.5,52.2z"/>
		<path class="st0" d="M266,57.2l3.7-8.6h5.2l-6.4,12.8v7.2h-4.9v-7.2l-6.4-12.9h5.2L266,57.2z"/>
	</g>
	<g>
		<circle class="st1" cx="45.2" cy="45.4" r="41.2"/>
		<path class="st2" d="M56.2,73.6c0.8-1.6,0.2-3.6-1.5-4.3c-1.6-0.8-3.6-0.2-4.3,1.5l-7.6,15.1c2.2,0.5,4.4,0.9,6.6,1.3L56.2,73.6z"
			/>
		<path class="st3" d="M57.5,74.2c1.1-2.3,0.2-5.1-2.1-6.3c-2.3-1.1-5.1-0.2-6.3,2.1l-7.7,15.5c3.2,0.8,6.4,1.4,9.5,1.8L57.5,74.2z"
			/>
		<g>
			<path class="st4" d="M28.2,56.1c1.5,1.1,2.7,2.6,4.2,4.2c2.2,2.5,5.6,7.1,9.8,9.4c0.4,0.3,0.9,0.5,1.3,0.6
				c0.1,0.1,0.2,0.1,0.3,0.1c0.4,0.2,0.7,0.2,1.1,0.3c3.2,0.5,6.8-1.5,7.9-4.1c0.1-0.3,0.2-0.5,0.3-0.8v0.1l0,0
				c0.1-0.3,0.1-0.5,0.1-0.7C53,58.8,41.6,53.9,37,52.1c-11.5-4.3-13.6-3.3-15.7,2.2c1.3,0,2.6,0.1,4,0.3
				C26.4,55,27.4,55.5,28.2,56.1z"/>
		</g>
		<g>
			<g>
				<path class="st5" d="M36.6,70.1c0.5,0.2,1.1,0.2,1.6,0.2c2.5-0.1,4.6-1.7,5.3-4.2L48.8,46c0.8-3-1-6.1-4-6.9s-6.1,1-6.9,4
					l-5.4,20.1C31.8,66.2,33.5,69.4,36.6,70.1z"/>
			</g>
			<g>
				<path class="st6" d="M35.7,51.8l2.3-8.6c0.8-3,3.9-4.8,6.9-4s4.8,3.9,4,6.9l-3.1,11.6c-1.9-0.6-4-1.6-6.1-2.9
					C38.3,54,36.9,53,35.7,51.8z"/>
			</g>
		</g>
		<path class="st7" d="M32.4,60.4c-1.5-1.7-2.7-3.1-4.2-4.2c-0.8-0.6-1.8-1.1-2.9-1.5c-1.4-0.2-2.8-0.3-4-0.3
			c-1.1,0-2.1,0.1-3.1,0.2c-1.5,0.2-2.9,0.9-3.8,2.1s-1.4,2.7-1.1,4.2c0.1,0.5,0.2,1.1,0.4,1.6c0.9,2,1.1,4.2,0.7,6.3
			c-0.2,0.8-0.3,1.7-0.5,2.6c6.4,6.5,15.1,10.8,24.3,13.4c1.6-5.1,3.1-11,4-14.9C37.9,67.4,34.6,62.8,32.4,60.4z"/>
		<g>
			<path class="st3" d="M32.4,60.4c2.2,2.5,5.6,7.1,9.8,9.4c0.4-1.6,0.6-2.8,0.7-3.6c-1.3-1.3-2.9-3.5-4.8-5.6
				c-0.6-0.7-1.3-1.5-1.9-2.1s-1.2-1.1-1.8-1.6c-3.2-1-6.3-1.7-9.1-2c1.1,0.3,2,0.8,2.9,1.5C29.7,57.1,30.9,58.6,32.4,60.4z"/>
		</g>
		<g>
			<path class="st5" d="M44.9,63.8c1.5,0.6,2.5,0.6,3,0.6c0.1-0.3,0.1-0.6,0.1-0.9c-3.5-2-7.6-3.8-11.7-5.2c0.7,0.7,1.3,1.4,1.9,2.1
				C40.4,61.8,43.1,63.1,44.9,63.8z"/>
		</g>
		<g>
			<path class="st8" d="M44.2,67.1c0.1,0,0.1,0.1,0.1,0.1c0.4,0.2,0.8,0.1,1.4-0.2c0.9-0.4,1.9-1.4,2.2-2.6c-0.5,0.1-1.5-0.1-3-0.6
				c-1.7-0.6-4.5-2-6.7-3.3c1.8,2.1,3.4,4.4,4.8,5.6C43.4,66.6,43.8,67,44.2,67.1z"/>
		</g>
		<g>
			<path class="st9" d="M43.8,70.5c0.4,0.2,0.7,0.2,1.1,0.3c0.4-1.6,0.6-2.9,0.8-3.8c-0.5,0.2-1,0.3-1.4,0.2c-0.1,0-0.1,0-0.1-0.1
				c-0.4-0.2-0.8-0.5-1.3-1c-0.1,0.8-0.4,2.1-0.7,3.6c0.4,0.3,0.9,0.5,1.3,0.6C43.6,70.4,43.7,70.5,43.8,70.5z"/>
		</g>
		<path class="st10" d="M43.8,70.5c-0.1-0.1-0.2-0.1-0.3-0.1c-0.5-0.2-0.9-0.4-1.3-0.6c-0.9,4-2.5,9.9-4,14.9
			c0.9,0.3,1.8,0.5,2.8,0.8c1.6-5,3-10.6,4-14.7C44.5,70.6,44.1,70.6,43.8,70.5z"/>
		<path class="st7" d="M55.5,77.1c0.2-0.1,0.3-0.2,0.5-0.4c1.1-1,1.8-2.4,1.9-3.9s-0.5-2.9-1.5-4.1c-0.9-1-2-2-3.3-3v0.1
			c-0.1,0.3-0.2,0.5-0.3,0.8c-1.1,2.6-4.7,4.6-7.9,4.1c-0.9,4-2.4,9.7-4,14.7c3.1,0.8,6.2,1.4,9.2,1.8c0.6-1.7,1.1-3.4,1.7-5.1
			C52.5,80.1,53.8,78.4,55.5,77.1z"/>
		<g>
			<path class="st3" d="M52.8,66.6c0.1-0.3,0.2-0.5,0.3-0.8l0,0l0,0c-1.4-1.1-3-2.1-4.7-3.2c-0.1-0.1-0.2-0.1-0.3,0
				c-0.1,0.1-0.2,0.2-0.1,0.3c0.1,0.2,0.1,0.4,0.1,0.6c0,0.3-0.1,0.6-0.1,0.9c-0.3,1.2-1.3,2.1-2.2,2.6c-0.2,0.9-0.4,2.2-0.8,3.8
				C48.1,71.2,51.7,69.1,52.8,66.6z"/>
		</g>
		<path class="st11" d="M44.3,66.8c-0.3-0.1-0.6,0.2-0.6,0.4c-0.7,3.7-2.6,11.3-4.6,17.7c0.4,0.1,0.7,0.2,1,0.3
			c2-6.4,4-14.1,4.6-17.8C44.8,67.1,44.6,66.8,44.3,66.8z"/>
		<g>
			<g>
				<polygon class="st12" points="44.1,69.6 43.4,69.1 43.3,69.6 44,70 				"/>
			</g>
			<g>
				<path class="st12" d="M41.8,75.4l0.9,0.4c0.3,0.1,0.5-0.1,0.6-0.3l1.1-4.8c0.1-0.3-0.1-0.5-0.3-0.6H44l-0.7-0.3h-0.1
					c-0.3-0.1-0.5,0.1-0.6,0.3l-1.2,4.8C41.4,74.9,41.5,75.2,41.8,75.4z M41.9,74.8l0.3-1.3c0-0.1,0.1-0.2,0.2-0.1l0.7,0.3
					c0.1,0.1,0.2,0.2,0.2,0.3L43,75.2c0,0.1-0.1,0.2-0.2,0.1L42.1,75C41.9,75,41.8,74.9,41.9,74.8z"/>
			</g>
			<g>
				<path class="st12" d="M43.3,69.1L43.3,69.1l0.8,0.3h0.1c0.3,0.1,0.5-0.1,0.5-0.3l0.3-1c0.1-0.3-0.1-0.5-0.3-0.6l-0.8-0.3
					c-0.3-0.1-0.5,0.1-0.5,0.3l-0.3,1C42.9,68.9,43.1,69.1,43.3,69.1z"/>
			</g>
		</g>
		<g>
			<path class="st13" d="M37.9,63.2c-0.3-0.2-0.5-0.2-0.6-0.1c-0.3,0.2-0.1,0.9,0.4,1.6C37.7,64.2,37.8,63.8,37.9,63.2z"/>
		</g>
		<g>
			<path class="st14" d="M38.7,65.8c0.1-0.5,0.2-1,0.3-1.6c-0.1-0.1-0.1-0.1-0.1-0.2c-0.3-0.4-0.6-0.7-0.9-0.8
				c-0.1,0.5-0.2,1-0.3,1.5c-0.1,0.4-0.2,0.8-0.2,1.1c-1.2,6-2.7,10.9-4.6,16.9c0.4,0.2,0.8,0.3,1.1,0.4c1.9-5.8,3.4-10.5,4.5-16.3
				C38.5,66.6,38.6,66.1,38.7,65.8z"/>
			<path class="st14" d="M31.9,85.4c0.2-0.1,0.4,0,0.6,0.1s0.4,0.2,0.5,0.4c0.3-0.8,0.6-1.7,0.8-2.5c-0.4-0.2-0.8-0.3-1.1-0.4
				C32.4,83.6,32.2,84.5,31.9,85.4z"/>
		</g>
		<g>
			<path class="st13" d="M39.3,65.9c0.3-0.2,0.1-0.9-0.4-1.6c-0.1,0.5-0.2,1-0.3,1.6C38.9,66,39.2,66,39.3,65.9z"/>
		</g>
		<g>
			<path class="st13" d="M48.3,69.5c0.1-0.5,0.2-1,0.3-1.5c-0.7,0.4-1.1,0.9-0.9,1.3C47.7,69.4,48,69.5,48.3,69.5z"/>
		</g>
		<path class="st14" d="M49.6,69c0.1-0.5,0.2-0.9,0.3-1.4c-0.3,0-0.7,0.1-1.2,0.3c-0.1,0-0.1,0.1-0.1,0.1c-0.1,0.5-0.2,1-0.3,1.5
			c-0.1,0.4-0.1,0.7-0.2,1c-1.1,6.2-2.2,10.8-3.8,15.7c0.4,0.1,0.8,0.2,1.2,0.3c1.6-5.2,2.7-9.9,3.9-16.5
			C49.5,69.6,49.6,69.4,49.6,69z"/>
		<g>
			<path class="st13" d="M50.4,67.8c-0.1-0.2-0.3-0.3-0.5-0.3c-0.1,0.5-0.2,0.9-0.3,1.4C50.2,68.6,50.6,68.1,50.4,67.8z"/>
		</g>
		<path class="st15" d="M56.4,87.5L56.2,84c0-0.4-0.4-0.7-0.7-0.7l-19,0.8c5.6,1.8,11.3,2.9,16.8,3.5C54.4,87.9,55.5,87.8,56.4,87.5
			z"/>
		<path class="st15" d="M56.4,87.5L56.2,84c0-0.4-0.4-0.7-0.7-0.7l-19,0.8c5.6,1.8,11.3,2.9,16.8,3.5C54.4,87.9,55.5,87.8,56.4,87.5
			z"/>
		<path class="st16" d="M52.1,81.8c-0.1-0.4-0.4-0.7-0.8-0.6l-19.4,1.5c6.7,2.6,13.9,4.2,20.6,5L52.1,81.8z"/>
		<path class="st15" d="M44.1,78.1l-17.3,2.2c6,3,12.6,5,19.1,6.2l-1-7.8C44.8,78.2,44.5,78.1,44.1,78.1z"/>
		<path class="st17" d="M36.8,77.2c-0.2-0.8-0.8-1.4-1.4-1.3l-2.9,0.6l5.2,4.8L36.8,77.2z"/>
		<path class="st18" d="M32.5,76.6l-9.2,1.9c4.6,2.7,9.8,4.8,15,6.3l-0.7-3.3L32.5,76.6z"/>
		<path class="st2" d="M21,57c-1.1-1.4-3.1-1.6-4.5-0.5L8,63.2c1,1.9,2.2,3.8,3.6,5.4l8.9-7.1C21.9,60.4,22.1,58.2,21,57z"/>
		<path class="st4" d="M22.1,56.1c-1.6-2-4.5-2.3-6.5-0.7L7.4,62c1.4,2.9,3.1,5.5,5.1,7.8l8.9-7.1C23.4,61.1,23.7,58.1,22.1,56.1z"
			/>
		<path class="st5" d="M28.9,29.4c0-0.2,0.1-0.3,0.1-0.4c1.4-8.7,10.4-14.5,20.2-13.1c1.5,0.2,2.9,0.6,4.3,1.1
			c4.2,1.7,7.6,4.7,9.6,8.4c1,1.9,1.5,3.9,1.7,5.9c0.3,2.6-0.3,5.1-0.7,7.6c-0.4,2.3-0.5,4.9-1.1,7.2c-1.1,4-4,7.7-8.1,9.5
			c-4.6,2.1-10,0-14-2.5s-7.4-6.2-9.5-10C29.1,38.8,28.4,34,28.9,29.4z"/>
		<path class="st19" d="M58.8,38.6c0.6,0.1,1,0.7,0.9,1.4l-0.1,0.8c-0.1,0.7-0.7,1.1-1.3,1l0,0c-0.6-0.1-1-0.7-0.9-1.4l0.1-0.8
			C57.6,39.1,58.2,38.6,58.8,38.6z"/>
		<path class="st19" d="M44,36.5c0.6,0.1,1,0.7,0.9,1.4l-0.1,0.8c-0.1,0.7-0.7,1.1-1.3,1l0,0c-0.6-0.1-1-0.7-0.9-1.4l0.1-0.8
			C42.8,36.9,43.4,36.5,44,36.5z"/>
		<path class="st20" d="M37,39.1c0.2,0,0.3,0.1,0.4,0.3c0.6,2.4,2.1,6.5,4.6,6.9c2.6,0.4,5.1-3.3,10.3-2.5c3.8,0.6,5.4,5,7.7,5.3
			c1,0.2,1.6-0.2,2-0.7c-1.5,3.1-4,5.7-7.3,7.2c-4.6,2.1-10,0-14-2.5c-1-0.6-2-1.3-2.9-2.1c-2-3.9-1.7-8.9-1.3-11.6
			C36.7,39.1,36.8,39.1,37,39.1z"/>
		<path class="st3" d="M28.4,33.1c0,0.1,0.1,0.2,0.2,0.2l8.1,1.3c1.9,0.3,1.8,2.6,2.8,4.6c0,0,2,4.1,5.4,4.6c3.3,0.5,5.3-3.3,8-2.9
			c2.3,0.4,2.7,4.6,5.5,5c2.1,0.3,4.2-1.6,5.1-2.5c0.3-0.3,0.5-0.6,0.6-1c0.2-0.5,0.3-1.1,0.5-2c0.2-1.3,0.4-2.6,0.5-3.1
			c0-0.1-0.1-0.2-0.2-0.3c-17.4-2.7-19.8-3-36.1-5.5c-0.1,0-0.1,0-0.2,0.1s-0.1,0.1-0.1,0.2C28.3,32,28.3,32.5,28.4,33.1z
			 M57.3,40.4c0.3-1.6,1.5-2.8,2.8-2.6c1.3,0.2,2.1,1.7,1.9,3.3c-0.3,1.6-1.5,2.8-2.8,2.6S57.1,42,57.3,40.4z M42.5,38.1
			c0.3-1.6,1.7-2.8,3.2-2.5c1.6,0.3,2.6,1.8,2.3,3.4c-0.3,1.6-1.7,2.8-3.2,2.5C43.3,41.2,42.3,39.6,42.5,38.1z"/>
		<path class="st6" d="M33.1,32.1c1.6-0.1,3,2.2,3.1,5c0.2,2.8-0.9,5.1-2.5,5.2s-3-2.2-3.1-5C30.5,34.5,31.6,32.1,33.1,32.1z"/>
		<path class="st21" d="M51.4,46c2.8,0.4,3.8,1.5,3.9,1.6c0.2,0.2,0.2,0.6-0.1,0.8c-0.1,0.1-0.3,0.2-0.5,0.2c-0.1,0-0.3-0.1-0.3-0.2
			c0,0-0.8-0.8-3.2-1.3c-2.4-0.4-3.4,0.2-3.4,0.2c-0.1,0.1-0.3,0.1-0.4,0.1c-0.2,0-0.3-0.1-0.4-0.3c-0.2-0.3-0.1-0.6,0.2-0.8
			C47.4,46.1,48.6,45.5,51.4,46z"/>
		<path class="st22" d="M30.4,21.2c-0.4-0.1-0.8,0.1-1,0.4c-1.5,2.1-2.3,4.2-2.8,6.5c-0.1,0.3,0,0.6,0.2,0.8s0.4,0.4,0.7,0.4
			c0.8,0.1,0.5,0.1,2.2,0.4c0.5-2.5,1.4-5.4,2.9-8.1L31,21.3L30.4,21.2z"/>
		<path class="st22" d="M37.6,22.5c-1.1,2.8-1.9,5.7-2.3,8.2c10,1.5-3.8-0.6,7.1,1.1c0.4-2.5,1-5.5,1.7-8.3L40.5,23L37.6,22.5z"/>
		<path class="st22" d="M55.4,25.1l-3.6-0.5c-0.2,2.9-0.5,6-0.9,8.5c11.5,1.8-3.9-0.6,7.1,1.1c0.3-2.5,0.5-5.5,0.2-8.6L55.4,25.1z"
			/>
		<path class="st22" d="M63.3,26.4c0.6,3,0.5,6.1,0.3,8.6c3.2,0.5,0.8,0.1,2.2,0.3c0.4,0.1,0.7-0.1,1-0.3s0.4-0.6,0.5-0.9
			c0.1-2.2-0.1-4.4-0.9-6.7c-0.1-0.4-0.4-0.6-0.8-0.7L65,26.5L63.3,26.4z"/>
		<path class="st11" d="M32.7,21.6c-1.5,2.7-2.3,5.7-2.9,8.1c6.9,1-1.3-0.2,5.5,0.8c0.5-2.5,1.2-5.4,2.3-8.2l-2.8-0.5L32.7,21.6
			L32.7,21.6z"/>
		<path class="st11" d="M44,23.4c-0.7,2.8-1.3,5.8-1.7,8.3L51,33c0.4-2.5,0.7-5.5,0.9-8.5L48,23.9L44,23.4z"/>
		<path class="st11" d="M63.2,26.4l-2.2-0.3l-2.8-0.4c0.3,3,0.1,6.1-0.2,8.6c6.8,1-1.4-0.2,5.5,0.8C63.8,32.5,63.9,29.4,63.2,26.4
			L63.2,26.4z"/>
		<path class="st10" d="M36,17.1c-1.4,1.3-2.5,2.8-3.4,4.4h0.1l2.2,0.3c1.3-2.7,3.1-5.1,5.6-6.6C38.9,15.8,37.4,16.5,36,17.1z"/>
		<path class="st10" d="M43.6,14.8c-2.8,1.5-4.6,4.4-6,7.7l2.9,0.4c1.2-3.6,2.9-6.7,5.2-8.2C45,14.6,44.3,14.6,43.6,14.8z"/>
		<path class="st10" d="M47.6,14.6c-1.5,1.6-2.6,5-3.6,8.8l3.9,0.6l1.4-9.2C48.8,14.8,48.2,14.6,47.6,14.6z"/>
		<path class="st10" d="M51.1,15.1c0.9,1.9,1,5.6,0.8,9.4l3.6,0.5c-0.1-3.7-0.7-7.3-2.5-9.5C52.3,15.5,51.7,15.4,51.1,15.1z"/>
		<path class="st10" d="M57.8,18.1c-0.9-0.6-1.9-1.1-2.9-1.6c2.1,2.3,3.1,5.6,3.4,9.1l2.8,0.4C60.6,23.1,59.7,20.4,57.8,18.1z"/>
		<path class="st10" d="M61.5,21.1c0.9,1.6,1.5,3.4,1.8,5.1l1.6,0.3c-0.2-0.5-0.4-1-0.7-1.5C63.5,23.6,62.6,22.4,61.5,21.1z"/>
		<path class="st23" d="M31,21.4l1.6,0.3c0.9-1.6,2-3.1,3.4-4.4C34.1,18.2,32.4,19.8,31,21.4z"/>
		<path class="st23" d="M40.4,15.4c-2.5,1.6-4.3,4-5.6,6.6l2.8,0.4c1.4-3.2,3.2-6.2,6-7.7C42.5,14.9,41.5,15.1,40.4,15.4z"/>
		<path class="st23" d="M45.8,14.6c-2.3,1.5-4,4.8-5.2,8.2l3.6,0.5c0.9-3.8,2.1-7.2,3.6-8.8C47,14.6,46.3,14.6,45.8,14.6z"/>
		<path class="st23" d="M49.4,14.8L48,24l3.9,0.6c0.2-3.9,0.2-7.5-0.8-9.4C50.6,15.1,50,14.9,49.4,14.8L49.4,14.8z"/>
		<path class="st23" d="M52.9,15.6c1.8,2.1,2.4,5.7,2.5,9.5l2.9,0.4c-0.3-3.4-1.3-6.8-3.4-9.1c-0.3-0.2-0.6-0.3-1-0.4
			C53.6,15.9,53.3,15.8,52.9,15.6z"/>
		<path class="st23" d="M57.8,18.1c1.9,2.2,2.8,5,3.2,7.9l2.2,0.3h0.1c-0.4-1.8-0.9-3.5-1.8-5.1C60.4,20.1,59.2,19.1,57.8,18.1z"/>
		<path class="st24" d="M44.4,89.1c-24.2,0-44-19.7-44-44s19.8-44,44-44s44,19.7,44,44S68.8,89.1,44.4,89.1z M44.4,5.8
			C22.6,5.8,4.9,23.5,4.9,45.2s17.7,39.5,39.5,39.5S83.9,67,83.9,45.2S66.2,5.8,44.4,5.8z"/>
	</g>
</g>
</svg>
