<?xml version="1.0" encoding="utf-8"?>
<!-- Generator: Adobe Illustrator 22.1.0, SVG Export Plug-In . SVG Version: 6.00 Build 0)  -->
<svg version="1.1" id="Layer_2_1_" xmlns="http://www.w3.org/2000/svg" xmlns:xlink="http://www.w3.org/1999/xlink" x="0px" y="0px"
	 viewBox="0 0 372.7 89.2" style="enable-background:new 0 0 372.7 89.2;" xml:space="preserve">
<style type="text/css">
	.st0{fill:#2C6A85;}
	.st1{fill:#AEC0BE;}
	.st2{fill:#2E1611;}
	.st3{fill:#4D2715;}
	.st4{fill:#714A3A;}
	.st5{fill:#5C321F;}
	.st6{fill:#BC7950;}
	.st7{fill:#F9AA77;}
	.st8{fill:#FDCBA0;}
	.st9{fill:#F89B67;}
	.st10{fill:#5C2F1E;}
	.st11{fill:#D34A64;}
	.st12{fill:#FFFFFF;}
	.st13{fill:#4B2D16;}
	.st14{fill:#B33E55;}
	.st15{fill:#FBD2D0;}
	.st16{fill:#F27685;}
	.st17{fill:#CF855A;}
	.st18{fill:#F9A98D;}
	.st19{fill:#344A52;}
	.st20{fill:#2D1812;}
	.st21{fill:#592B1A;}
	.st22{fill:#F5949D;}
	.st23{fill:#D4E6E4;}
</style>
<g>
	<path class="st0" d="M112.2,55h-4.9V34.5h4.9V55z"/>
	<path class="st0" d="M132.8,55h-4.9l-7.3-12.8V55h-4.9V34.5h4.9l7.3,12.8V34.5h4.9V55z"/>
	<path class="st0" d="M148.8,46.8h-8V55h-4.9V34.5h13.7v3.8h-8.8V43h8V46.8z"/>
	<path class="st0" d="M156.7,51.2h8.6V55h-13.6V34.5h4.9L156.7,51.2L156.7,51.2z"/>
	<path class="st0" d="M179.3,51.2h-6.8l-1.2,3.8H166l7.5-20.5h4.7l7.6,20.5h-5.3L179.3,51.2z M173.7,47.3h4.4l-2.2-7.1L173.7,47.3z"
		/>
	<path class="st0" d="M201.7,38.3h-6.2V55h-4.9V38.3h-6v-3.8h17.1L201.7,38.3L201.7,38.3z"/>
	<path class="st0" d="M209,55h-4.9V34.5h4.9V55z"/>
	<path class="st0" d="M229.9,45.2c0,2-0.4,3.8-1.1,5.3s-1.8,2.7-3.2,3.6c-1.4,0.8-2.9,1.2-4.7,1.2s-3.3-0.4-4.7-1.2s-2.4-2-3.2-3.4
		c-0.8-1.5-1.2-3.2-1.2-5.1v-1.3c0-2,0.4-3.8,1.1-5.3c0.7-1.5,1.8-2.7,3.2-3.6c1.4-0.8,2.9-1.3,4.7-1.3c1.7,0,3.3,0.4,4.7,1.2
		s2.4,2,3.2,3.5s1.1,3.3,1.1,5.2L229.9,45.2L229.9,45.2L229.9,45.2z M224.8,44.3c0-2-0.3-3.6-1-4.6c-0.7-1.1-1.7-1.6-2.9-1.6
		c-2.5,0-3.8,1.9-3.9,5.6v1.5c0,2,0.3,3.6,1,4.6c0.7,1.1,1.7,1.6,3,1.6c1.2,0,2.2-0.5,2.9-1.6s1-2.6,1-4.6L224.8,44.3L224.8,44.3z"
		/>
	<path class="st0" d="M249.5,55h-4.9l-7.3-12.8V55h-4.9V34.5h4.9l7.3,12.8V34.5h4.9V55z"/>
</g>
<g>
	<g>
		<g id="Layer_2_6_">
			<path class="st1" d="M45,2C21.9,2,3.3,20.7,3.3,43.8c0,17.3,10.5,32.1,25.5,38.4c0-0.1,0-0.2,0.1-0.3c4.9,2.3,10.4,3.7,16.2,3.7
				c2.9,0,5.6-0.3,8.3-0.9v0.1c0,0,0,0,0.1,0v-0.1c1.6-0.4,3.1-0.8,4.6-1.4c0,0.1,0.1,0.1,0.1,0.2C74.9,78,86.9,62.4,86.9,43.9
				C86.7,20.7,68,2,45,2z"/>
		</g>
		<g id="Layer_3_2_">
			<path class="st2" d="M28.3,20.8l12.6-4.5l12.5,0.8l5,5.2L58,24.8v2.5l-4.1,0.3l-6.4,5l1.6,15.8L44,52.6l-8.8-5.7
				c0,0-6.8-17.4-7-17.6C28,28.9,28.3,20.8,28.3,20.8z"/>
		</g>
	</g>
	<path class="st1" d="M44.7,20.5C44.6,20.5,44.6,20.5,44.7,20.5c0.1,0.2,0.2,0.4,0.4,0.6c0.1,0,0.1,0,0.1,0
		C45,20.9,44.8,20.7,44.7,20.5z"/>
	<path class="st1" d="M42.4,22C42.3,22,42.3,22,42.4,22c1.3,1.1,3.2,1.9,4.9,2.3c0.1,0,0.1,0,0.2,0C45.7,23.9,43.8,23,42.4,22z"/>
	<path class="st1" d="M44.7,22.8c0.1-0.2,0.2-0.3,0.3-0.5C44.9,22.5,44.8,22.6,44.7,22.8z"/>
	<path class="st3" d="M43.4,21.9c-0.1,0.1-0.1,0.3-0.2,0.4C43.3,22.2,43.4,22,43.4,21.9c0.8-1.3,2-2.6,3.1-3.7c0,0,0,0-0.1,0
		C45.4,19.3,44.2,20.6,43.4,21.9z"/>
	<path class="st3" d="M50.6,21.1c-3.8,0.4-7.7,0.6-11.4,0.8c0,0,0,0,0.1,0.1C43,21.8,46.8,21.6,50.6,21.1
		C50.6,21.2,50.6,21.2,50.6,21.1z"/>
	<path class="st3" d="M44.5,24.5c3.3-0.2,6.8,0.2,10-0.3c-0.1,0-0.1,0-0.1,0C51.2,24.7,47.8,24.4,44.5,24.5
		c-2.9,0.1-6.3,0.7-9.2-0.3c0.1,0.1,0.1,0.1,0.1,0.1C38.3,25.2,41.7,24.7,44.5,24.5z"/>
	<path class="st3" d="M44.7,20.5c0.1-0.1,0.3-0.1,0.4-0.1c0,0,0-0.1-0.1-0.1C45,20.4,44.8,20.5,44.7,20.5L44.7,20.5z"/>
	<path class="st4" d="M47.7,23.5c-0.8-0.2-1.7,0.1-2.6,0.1c-1,0-2.1-0.2-3.2-0.4c-0.1,0-0.2,0.1-0.1,0.1c1.6,0.6,4.2,1.3,5.8,0.5
		C47.9,23.8,47.9,23.6,47.7,23.5z"/>
	<path class="st4" d="M44.3,22.7c0.5,0,0.8-0.1,1.3-0.3c0.2-0.1,0.1-0.4-0.1-0.4c-0.4,0-0.8,0.1-1.2,0.2C44,22.2,44,22.6,44.3,22.7z
		"/>
	<path class="st5" d="M43.8,18.2c2.9-0.2,5.6,0.4,8.5,0.4c0.4,0,0.5-0.5,0.1-0.6c-5.5-1.9-12.4-0.3-17.8,1.4c-0.1,0.1-0.1,0.1,0,0.1
		C37.7,19,40.7,18.4,43.8,18.2z"/>
	<path class="st5" d="M45.7,19.9c-1.6-0.4-3.8,0.1-5.3,0.6c-0.2,0.1-0.1,0.2,0.1,0.2c0.9,0,1.9-0.2,2.8-0.2c0.8-0.1,1.6-0.1,2.5-0.3
		C45.9,20.2,45.9,20,45.7,19.9z"/>
	<path class="st1" d="M38.2,34.2c-0.5-0.4-0.8-0.9-0.8-1.6l0,0C37.4,33.2,37.7,33.7,38.2,34.2z"/>
	<path class="st1" d="M38.4,34.3c-2.5,0-5.4-0.3-7.6-1.4C32.9,34.1,35.9,34.3,38.4,34.3z"/>
	<path class="st1" d="M38.4,34.3c-0.1-0.1-0.2-0.1-0.2-0.2C38.3,34.2,38.3,34.3,38.4,34.3L38.4,34.3z"/>
	<path class="st1" d="M31.8,28c-0.6-0.3-1.3-0.5-1.8-0.7l-0.1,0.1l0.1-0.1C30.6,27.6,31.2,27.8,31.8,28z"/>
	<path class="st1" d="M48,27.8c0.1,0,0.2,0,0.2,0S48.1,27.8,48,27.8z"/>
	<path class="st1" d="M47.9,27.8c-1.3,0.1-2.6,0.3-3.7-0.2l0,0C45.4,28.1,46.7,27.9,47.9,27.8z"/>
	<path class="st1" d="M50.6,43.4c-0.1-0.2-0.1-0.3-0.1-0.5c0.1,0.1,0.2,0.2,0.3,0.3c0.2,0.2,0.4,0.4,0.7,0.5l0,0
		c-0.3-0.2-0.5-0.3-0.7-0.5v-0.1c-0.1-0.1-0.2-0.2-0.3-0.3C50.5,43.1,50.5,43.3,50.6,43.4z"/>
	<path class="st1" d="M56.2,40.3c-0.1,0.2-0.2,0.3-0.3,0.5C56.1,40.6,56.1,40.4,56.2,40.3L56.2,40.3z"/>
	<path class="st1" d="M55.7,41.2L55.7,41.2L55.7,41.2z"/>
	<path class="st1" d="M55.8,41L55.8,41L55.8,41z"/>
	<path class="st1" d="M51.7,44.4c0.3,0.2,0.5,0.3,0.8,0.4s0.6,0.1,0.8,0.1C52.7,44.9,52.2,44.7,51.7,44.4c-0.2-0.1-0.3-0.2-0.4-0.3
		c0,0,0,0,0,0.1C51.5,44.2,51.6,44.3,51.7,44.4z"/>
	<path class="st1" d="M43.3,34.6c-2-0.1-4.3-1.1-5.8-1.9C39.1,33.4,41.3,34.5,43.3,34.6z"/>
	<path class="st1" d="M44.7,41.7C44.7,41.7,44.8,41.7,44.7,41.7L44.7,41.7z"/>
	<path class="st1" d="M55.6,28.4c-0.7,0-1.4,0.1-2,0c-1.7-0.2-3.3-0.5-5-0.6c0,0,0,0-0.1,0c1.7,0.2,3.3,0.5,5,0.6
		C54.2,28.5,54.9,28.5,55.6,28.4z"/>
	<path class="st1" d="M56,40.9L56,40.9L56,40.9z"/>
	<path class="st1" d="M43.3,60.4L43.3,60.4L43.3,60.4c0.1,0.1,0.3,0.2,0.4,0.3c0.2,0.2,0.4,0.4,0.6,0.5c-0.2-0.2-0.4-0.4-0.6-0.5
		C43.5,60.6,43.4,60.5,43.3,60.4z"/>
	<path class="st1" d="M41.9,41.9L41.9,41.9c0.2-0.1,0.5-0.1,0.7-0.1l0,0C42.3,41.9,42.1,41.9,41.9,41.9z"/>
	<path class="st1" d="M41.7,41.2c-0.9,0.2-2,0.2-2.3-0.5c-0.1-0.2-0.2-0.4-0.2-0.6c0,0.2,0.1,0.4,0.2,0.6
		C39.7,41.4,40.8,41.4,41.7,41.2L41.7,41.2L41.7,41.2z"/>
	<path class="st1" d="M40.7,37.8C40.7,37.9,40.7,37.9,40.7,37.8H41v-0.1L40.7,37.8z"/>
	<path class="st1" d="M37,39.3c-0.1,1.4,0.3,3.4,1.7,4.3C37.3,42.7,37,40.6,37,39.3c0.1-1.6,2.4-3.2,3.4-2.1
		C39.5,36,37.1,37.5,37,39.3z"/>
	<path class="st1" d="M45.4,56.9c-0.1-0.1-0.2-0.1-0.2-0.1S45.3,56.8,45.4,56.9z"/>
	<path class="st1" d="M45.3,62.1c-0.3-0.3-0.7-0.6-1-0.9C44.6,61.6,45,61.9,45.3,62.1z"/>
	<path class="st1" d="M48.1,64.5c-0.3-0.3-0.7-0.6-1.3-1.1C47.4,64,47.8,64.3,48.1,64.5z"/>
	<path class="st1" d="M46.8,63.4c-0.4-0.4-0.9-0.8-1.5-1.3C45.9,62.7,46.4,63.1,46.8,63.4z"/>
	<path class="st6" d="M41.7,41.2c-0.2-1-0.4-1.9-0.6-2.9c-0.8,0.1-1.9,1-1.9,1.9c0,0.2,0.1,0.4,0.2,0.6
		C39.7,41.4,40.8,41.4,41.7,41.2z"/>
	<path class="st2" d="M38.8,43.6C38.7,43.6,38.7,43.5,38.8,43.6c-1.5-0.9-1.9-3-1.8-4.4c0.1-1.7,2.5-3.2,3.4-2.1
		c0.2,0.2,0.3,0.4,0.3,0.6l0.3-0.1v0.1l0,0c0.1,0.1,0.1,0.3,0.1,0.4l0,0c0.3,1,0.4,2,0.6,3h-0.2l0,0l0,0c0,0,0,0,0.1,0
		c0.1,0.3,0.1,0.5,0.2,0.7c0.3-0.1,0.5-0.1,0.7-0.1l0,0l0,0c0.3,0,0.6,0,0.9,0.1c0.3,0,0.6,0,0.9-0.1l0.2-0.1c0-0.1,0-0.1,0-0.1
		c-0.9-1.8-1.5-4.8-1.4-7.2c-2-0.1-4.3-1.1-5.8-1.9h-0.1c0,0.6,0.3,1.2,0.8,1.6c0.1,0.1,0.1,0.1,0.2,0.2l0,0l0,0l0,0
		c-2.5,0-5.5-0.3-7.6-1.4l0,0c-0.2-1-0.4-2.1-0.5-3.2c-0.1-0.8-0.2-1.6-0.3-2.4l0.1-0.1c0.5,0.3,1.1,0.5,1.8,0.7
		c-2.4-1.7-4.4-2.5-3.1-5.3c0.1-0.2,0.2-0.3,0.3-0.5c0.1-0.1,0.1-0.3,0.2-0.4c0.7-1.3,1.9-2.6,3.1-3.7c0,0,0,0,0.1,0
		c0,0,0,0,0.1-0.1c-0.4,0.2-0.7,0.3-1.1,0.5c-3.2,1.4-4.5,2.5-5.2,6.2c-0.2,1.1,3.8,13.3,4.2,14.2c0.4,0.8,0.8,1.5,1.3,2.2
		c0.1,0.2,0.2,0.4,0.2,0.5c1.3,2.9,3.6,5.3,4.9,8.2c0.5-0.1,0.9-0.3,1.3-0.5c1.9-1.2,2.8-3.7,3.1-5.5C40.2,44.1,39.4,44,38.8,43.6z
		 M42.2,36c0.5,0.7,0.8,1.6,1,2.4c0.3,0.8,0.7,1.6,0.7,2.4c0,0.2-0.2,0.2-0.3,0.1c-0.5-0.6-0.7-1.6-0.9-2.3
		c-0.3-0.8-0.5-1.6-0.7-2.5C42,36,42.1,35.9,42.2,36z M37.2,35.9c0.1,0.2,0.4,0.4,0.5,0.6s-0.1,0.3-0.2,0.3
		c-0.5-0.1-0.9-0.3-0.9-0.7C36.7,35.8,37.1,35.7,37.2,35.9z M34.6,35.9c0-0.1,0.2-0.1,0.2-0.1c0.3,0.8,1.3,1.2,1.4,2
		c0.1,0.1-0.1,0.2-0.2,0.2C34.7,38,34.5,36.8,34.6,35.9z M36.5,46c-1.4-1.1-2.2-3-2.7-4.7c-0.6-2.1-1.5-4-2.6-6
		c-0.1-0.1,0.1-0.1,0.1-0.1c1.4,1.8,2.1,3.9,3.2,5.7c0.8,1.5,1.9,3,2.5,4.7C37.1,46,36.7,46.2,36.5,46z"/>
	<path class="st2" d="M41.1,38.2c0.2,1,0.4,1.9,0.6,2.9h0.1C41.6,40.2,41.4,39.2,41.1,38.2L41.1,38.2L41.1,38.2L41.1,38.2z"/>
	<path class="st7" d="M41.8,52.6C41.9,52.6,41.9,52.7,41.8,52.6c0.3,0.2,0.5,0.3,0.7,0.3c0.2,0.1,0.4,0.2,0.6,0.3s0.4,0.1,0.5,0.2
		c0.8,0.2,1.6,0.3,2.4,0.2c0.2,0,0.3-0.1,0.4-0.1s0.1-0.1,0.2-0.1c-1.3-1.3-1.9-3.1-2-5.2c-0.2-2.1-0.1-4.3,0.1-6.4l-0.2,0.1
		c-0.4,0.1-0.7,0.1-1,0.1s-0.6-0.1-1-0.1c-0.2,0-0.5,0-0.7,0.1l0,0c0,0,0,0-0.1,0c-0.1-0.3-0.1-0.5-0.2-0.7c-0.9,0.2-2,0.2-2.3-0.5
		c-0.1-0.2-0.2-0.4-0.2-0.6c0-0.9,1-1.8,1.9-1.9c-0.1-0.1-0.1-0.3-0.1-0.4L40.5,38c0,0,0,0,0-0.1l0,0c-0.1-0.3-0.2-0.5-0.3-0.7
		c-0.9-1.1-3.2,0.5-3.3,2.1c-0.1,1.3,0.3,3.3,1.7,4.2c0.1,0,0.1,0.1,0.1,0.1c0.6,0.4,1.4,0.5,2.1,0.3V44h0.1
		c-0.4,1.8-1.3,4.4-3.1,5.5c0.4,0.5,0.9,0.9,1.4,1.3c0.3,0.2,0.5,0.4,0.7,0.6c0,0,0,0,0.1,0l0,0C40.6,51.9,41.2,52.3,41.8,52.6z"/>
	<path class="st7" d="M41.1,38.2L41.1,38.2L41.1,38.2c-0.8,0.1-1.9,1-1.9,1.9C39.2,39.2,40.3,38.3,41.1,38.2z"/>
	<path class="st7" d="M42.6,41.9c0.3,0,0.6,0,1,0.1C43.2,41.9,42.9,41.9,42.6,41.9L42.6,41.9z"/>
	<path class="st7" d="M40.4,37.2c0.2,0.2,0.3,0.4,0.3,0.7l0,0C40.7,37.5,40.5,37.3,40.4,37.2z"/>
	<path class="st7" d="M41.7,41.2c0.1,0.3,0.1,0.5,0.2,0.7c0,0,0,0,0.1,0C41.8,41.7,41.8,41.4,41.7,41.2L41.7,41.2z"/>
	<path class="st7" d="M41,37.8L41,37.8c0,0.1,0.1,0.3,0.1,0.4l0,0C41.1,38.1,41,37.9,41,37.8z"/>
	<path class="st7" d="M38.8,43.6C38.7,43.6,38.7,43.5,38.8,43.6C38.7,43.6,38.8,43.6,38.8,43.6c0.6,0.4,1.4,0.5,2.1,0.4v-0.1
		C40.2,44.1,39.4,43.9,38.8,43.6z"/>
	<path class="st7" d="M41.1,38.2L41.1,38.2L41.1,38.2L41.1,38.2L41.1,38.2L41.1,38.2z"/>
	<path class="st8" d="M50.7,30c-0.6,0-1.1,0.1-1.6,0.2c-2.2,0.4-2.9,1.4-3.4,4.1c-0.5,2.5-0.9,5-1,7.5l0.1,0.1h-0.1
		c-0.2,2.1-0.2,4.3-0.1,6.4s0.7,4,2,5.2c3.3-0.8,6.4-2.9,7.3-7c-0.1,0-0.1,0-0.1,0s0,0-0.1,0l0,0c-0.1,0-0.3,0-0.4-0.1
		c-0.5-0.1-1.3-0.2-1.6-0.5s-0.5-0.5-0.6-0.9l0,0c-0.3-0.5-0.6-0.9-0.7-1.4c-0.1-0.2-0.1-0.4-0.1-0.6c0.1,0.1,0.2,0.2,0.3,0.3v-0.1
		c0.8,0.8,2.3,0.9,3.7,0.9c0.2,0,0.3,0,0.4-0.1c0.2-0.6,0.4-1.1,0.5-1.7c0.1-0.2,0.1-0.4,0.2-0.6c0.2-0.1,0.3-0.1,0.5-0.2
		c-0.1-0.2-0.1-0.3-0.1-0.5v-0.1c0-0.1,0-0.1,0.1-0.2c0.1-0.2,0.2-0.3,0.3-0.5c-0.1,0-0.1,0-0.1,0c-0.2-0.1-0.2-0.3-0.1-0.3
		c0.3-0.2,0.5-0.2,0.7-0.3c0.7-0.6,1.8-1.1,2.3-0.9h0.1c0-0.1,0-0.1,0-0.2c-1.7-0.7-2.6-2.7-2.6-4.3c0-0.2,0-0.3,0-0.4
		c0.1-1.4,0-2.8-0.2-4.2c0,0,0,0-0.1,0c0,0,0,0,0,0.1C54.5,29.8,52.7,30,50.7,30z M51.9,40.2c-0.8-0.4-2.3-0.8-2.6-1.8
		c-0.1-0.3,0.1-0.5,0.3-0.6c1-0.5,2.3,0.1,3.2,0.4C54.5,38.7,53.5,40.9,51.9,40.2z M53.1,36.7c-0.7,0-1.3-0.7-1.3-1.5
		s0.6-1.5,1.3-1.5s1.3,0.7,1.3,1.5C54.4,36,53.9,36.7,53.1,36.7z M54.5,30.9c-0.6,0.3-1.3-0.1-2-0.1c-1,0.1-1.9,0.4-2.6,1.1
		c-0.1,0.1-0.1,0-0.1-0.1c0.6-0.7,1.3-1.4,2.2-1.7c0.8-0.2,2-0.4,2.6,0.4C54.7,30.8,54.6,30.9,54.5,30.9z M55.7,41.2L55.7,41.2
		L55.7,41.2c0-0.1,0.1-0.1,0.1-0.2c0.1,0,0.1-0.1,0.1,0l0,0l0,0C55.8,41,55.7,41.2,55.7,41.2L55.7,41.2z"/>
	<path class="st9" d="M44.3,56.4c0.2,0.1,0.3,0.2,0.5,0.2c0.1,0.1,0.3,0.1,0.4,0.2s0.2,0.1,0.2,0.1c0.1,0.1,0.2,0.1,0.3,0.1
		c0.3,0.2,0.6,0.3,0.8,0.4c0,0,0,0,0.1,0c-0.1-0.2-0.3-0.9-0.5-1.8c-0.1-0.7,0-1.4,0-2c-0.7,0.1-1.6,0-2.4-0.2
		c-0.2-0.1-0.4-0.1-0.5-0.2c-0.2-0.1-0.4-0.2-0.6-0.3s-0.4-0.2-0.6-0.3c-0.1,0-0.1-0.1-0.2-0.1c-0.6-0.3-1.3-0.7-1.9-1.1
		c0.1,1,0.3,2.5,0.4,3.6c0.9,0.3,2,0.6,2.9,1C43.6,56.1,44,56.2,44.3,56.4z"/>
	<path class="st9" d="M41.9,52.6C41.8,52.6,41.8,52.5,41.9,52.6c-0.7-0.4-1.4-0.8-2-1.2l0,0C40.5,51.9,41.2,52.2,41.9,52.6
		C41.8,52.6,41.9,52.6,41.9,52.6z"/>
	<path class="st3" d="M44.7,41.7L44.7,41.7L44.7,41.7L44.7,41.7z"/>
	<path class="st7" d="M55.6,28.4c-0.7,0.1-1.4,0.1-2.1,0c-1.7-0.2-3.3-0.5-5-0.6c-0.1,0-0.2,0-0.3,0s-0.2,0-0.2,0h-0.1
		c-1.3,0.1-2.6,0.3-3.7-0.2c0,0.1,0.1,0.1,0.1,0.1s0,0-0.1,0l0,0c0.2,0.4,0.2,0.7,0.3,1.1s0.1,0.9-0.1,1.4c-0.2,0.9-0.5,1.9-0.9,2.8
		l0,0c-0.1,0.4-0.2,0.9-0.2,1.5c-0.2,2.3,0.4,5.3,1.4,7.2c0.2-2.5,0.5-5.1,1-7.5c0.5-2.6,1.1-3.7,3.4-4c0.5-0.1,1-0.2,1.6-0.2
		c1.9,0,3.7-0.2,5.6-0.3c-0.1-0.4-0.1-0.8-0.1-1.3l0,0C56.1,28.4,55.8,28.4,55.6,28.4z"/>
	<path class="st7" d="M49.1,30.1c0.5-0.1,1-0.1,1.6-0.2c1.9,0,3.8-0.2,5.6-0.3c0,0,0,0,0-0.1c-1.9,0.2-3.7,0.3-5.6,0.3
		C50.2,30,49.7,30,49.1,30.1z"/>
	<path class="st10" d="M57.7,20.5c0.2,0.2,0.3,0.4,0.5,0.6c-0.1,0-0.1,0-0.1,0l0,0c-3.8,0.4-7.6,0.6-11.4,0.8
		c1.4,1.1,3.3,1.9,5.1,2.3c-0.1,0-0.1,0-0.2,0c0.1,0,0.1,0,0.1,0c-3.2,0.4-6.6,0.1-10,0.3c-2.8,0.2-6.2,0.7-9.1-0.2
		c2.8,2.5,7.8,2.9,11.6,3.4c0-0.1-0.1-0.1-0.1-0.1s0,0,0.1,0l0,0c1,0.4,2.4,0.2,3.7,0.2c0.1,0,0.1,0,0.1,0h0.2c0.1,0,0.2,0,0.3,0
		l0,0c0,0,0,0,0.1,0c1.7,0.2,3.3,0.5,5,0.6c0.6,0,1.4,0,2,0c0.2,0,0.5-0.1,0.7-0.1c0,0,0,0,0,0.1c2.9-0.2,6.1-0.7,8.5-1.5
		c-0.1,0-0.2,0-0.3,0c-1.5,0-3.6-0.6-5.2-1.2c0-0.1,0-0.2,0-0.3c1.6,0,3.2-0.4,4.8-0.6c-2.5,0.4-4-1.3-5.4-3
		c-0.1-0.3-0.2-0.4-0.3-0.7c-0.1-0.3-0.2-0.4-0.3-0.6c-0.1,0-0.1,0-0.1,0s0,0.1,0.1,0.1C58,20.5,57.8,20.5,57.7,20.5z M54.9,22.2
		c0.4-0.1,0.7-0.2,1.2-0.2c0.2,0,0.3,0.3,0.1,0.4c-0.4,0.2-0.8,0.3-1.3,0.3C54.6,22.6,54.5,22.2,54.9,22.2z M57.1,26.7
		c-5.8,0.7-14,0.8-19.3-1.8l0,0l0,0c6.1,2.4,12.9,0.5,19.3,1.4C57.4,26.4,57.4,26.7,57.1,26.7z M57.6,23.8c-1.6,0.8-4.3,0.1-5.8-0.5
		c-0.1,0-0.1-0.1,0.1-0.1c1,0.3,2.1,0.4,3.2,0.4c0.8,0,1.7-0.2,2.6-0.1C57.7,23.6,57.7,23.8,57.6,23.8z"/>
	<path class="st10" d="M48.6,27.8c-0.1,0-0.2,0-0.3,0C48.3,27.8,48.5,27.8,48.6,27.8L48.6,27.8z"/>
	<path class="st10" d="M44.3,27.7L44.3,27.7c-0.1,0,0,0.1,0,0.1s0,0,0.1,0C44.3,27.7,44.3,27.7,44.3,27.7z"/>
	<path class="st10" d="M55.6,28.4c0.2,0,0.5,0,0.7,0l0,0c0,0,0,0,0-0.1C56.1,28.4,55.8,28.4,55.6,28.4z"/>
	<path class="st10" d="M47.9,27.8C48,27.8,48,27.8,47.9,27.8C48,27.8,48,27.8,47.9,27.8z"/>
	<path class="st7" d="M57.2,39.9c-0.3,0.3-0.5,0.5-0.9,0.4c-0.1,0.2-0.2,0.3-0.3,0.5c0,0.1-0.1,0.1-0.1,0.2v0.1c0,0.2,0,0.3,0.1,0.5
		l0,0c0,0,0,0,0,0.1c1.4-0.5,3.1-1.4,3.2-2.7h-0.1c-0.5-0.2-1.6,0.2-2.3,0.8c0.1,0,0.1,0,0.1,0C57.1,39.6,57.3,39.7,57.2,39.9z"/>
	<path class="st7" d="M56,40.9c0-0.1,0-0.1,0.1-0.2C56,40.8,56,40.8,56,40.9z"/>
	<path class="st7" d="M56,40.9c-0.1,0.2,0,0.3,0.1,0.5l0,0C56,41.3,55.9,41.2,56,40.9z"/>
	<path class="st7" d="M55.8,41L55.8,41c-0.1,0.1-0.1,0.1-0.1,0.2l0,0C55.7,41.2,55.7,41,55.8,41L55.8,41z"/>
	<path class="st7" d="M55.7,41.2c0.1-0.1,0.1-0.1,0.1-0.2C55.7,41,55.7,41.2,55.7,41.2z"/>
	<path class="st7" d="M55.7,41.2L55.7,41.2c0.1-0.1,0.1-0.1,0.1-0.2C55.7,41,55.7,41.2,55.7,41.2z"/>
	<path class="st7" d="M55.7,41C55.8,41,55.8,41,55.7,41C55.8,41,55.8,41,55.7,41z"/>
	<path class="st11" d="M53.5,67.8C53.2,67.9,53,68,52.8,68c-0.5,0.1-0.9,0.1-1.4,0.2h-0.1c1.2,5.4,1.3,11,1.6,16.6
		c1.6-0.3,3.2-0.7,4.7-1.3C55.9,76.6,54.2,70.1,53.5,67.8C53.5,67.8,53.5,67.8,53.5,67.8z"/>
	<path class="st12" d="M51.5,43.7L51.5,43.7C51.5,43.8,51.5,43.8,51.5,43.7c0,0.2-0.1,0.3-0.1,0.4c0.1,0.1,0.2,0.2,0.3,0.3
		c0.5,0.3,1,0.5,1.6,0.5h0.1c-0.1,0-0.1,0-0.1,0c-0.2,0-0.5-0.1-0.8-0.1c0.3,0.1,0.5,0.2,0.8,0.2h0.1c-0.1,0-0.1,0-0.1,0
		c-0.5-0.1-1.5-0.2-2.1-0.6c-0.1,0.2,0,0.2,0.1,0.3c0.2,0.4,0.4,0.8,0.7,1c0.4,0.4,1.1,0.5,1.6,0.5c0.2,0.1,0.3,0.1,0.4,0.1
		c0.4-0.7,0.6-1.5,0.9-2.3c-0.2,0-0.3,0.1-0.4,0.1c-1.3,0.1-2.9-0.1-3.7-0.9v0.1C51,43.4,51.2,43.6,51.5,43.7z"/>
	<path class="st12" d="M52,45.8c-0.3-0.3-0.5-0.6-0.7-1v0.1V45C51.5,45.2,51.7,45.5,52,45.8c0.3,0.4,1,0.5,1.5,0.5
		c0.2,0.1,0.3,0.1,0.4,0.1l0,0c-0.1,0-0.2,0-0.4-0.1C53.1,46.3,52.3,46.2,52,45.8z"/>
	<path class="st13" d="M51.2,44.3c0.3,0.3,0.8,0.4,1.3,0.5c-0.3-0.1-0.6-0.2-0.8-0.4c-0.2-0.1-0.3-0.2-0.4-0.3c0,0,0,0,0-0.1
		l-0.1-0.1c0.1-0.1,0.1-0.3,0.2-0.3c-0.3-0.2-0.5-0.3-0.7-0.5c-0.1-0.1-0.2-0.2-0.3-0.3c0,0.2,0.1,0.3,0.1,0.5
		c0.2,0.4,0.4,0.8,0.6,1.3C51.2,44.5,51.2,44.5,51.2,44.3z"/>
	<path class="st13" d="M51.2,44.7c-0.3-0.4-0.5-0.8-0.6-1.3c0.2,0.5,0.4,0.9,0.7,1.4l0,0C51.3,44.8,51.3,44.8,51.2,44.7L51.2,44.7z"
		/>
	<path class="st13" d="M51.4,44.1c0.1-0.1,0.1-0.3,0.2-0.4c0,0-0.1,0-0.1-0.1C51.4,43.8,51.4,44,51.4,44.1
		C51.3,44.1,51.3,44.1,51.4,44.1z"/>
	<path class="st13" d="M51.2,44.7C51.2,44.7,51.2,44.8,51.2,44.7L51.2,44.7C51.3,44.8,51.3,44.8,51.2,44.7c0-0.1-0.1-0.2,0-0.3
		c0.5,0.4,1.5,0.5,2.1,0.6c-0.3-0.1-0.5-0.1-0.8-0.2c-0.5-0.1-1-0.2-1.3-0.5C51.2,44.5,51.2,44.5,51.2,44.7z"/>
	<path class="st13" d="M51.3,44.8L51.3,44.8L51.3,44.8C51.2,44.8,51.2,44.7,51.3,44.8C51.2,44.7,51.2,44.7,51.3,44.8L51.3,44.8
		L51.3,44.8L51.3,44.8z"/>
	<path class="st14" d="M49.8,59.4c0,0.2,0,0.4,0,0.6c-0.4,1-0.7,2.1-0.9,3.2c-0.1,0.4-0.2,0.8-0.3,1.3c1,1.3,2.1,2.7,3,4.1
		c0.1,0.1,0.1,0.1,0.1,0.1c0.5-0.1,0.9-0.1,1.4-0.2c0.3-0.1,0.5-0.1,0.7-0.2c-0.2-1.6-4-9.1-4-9.1C49.8,59.3,49.8,59.4,49.8,59.4z"
		/>
	<path class="st15" d="M48.9,63.1c0.3-1.1,0.6-2.2,0.9-3.2c0.1-0.2,0.1-0.4,0-0.6c-0.4-0.4-1.6-1.1-3.2-1.8l0,0
		c-0.3-0.2-0.5-0.3-0.8-0.4c-0.1-0.1-0.2-0.1-0.4-0.2c-0.1-0.1-0.2-0.1-0.2-0.1c-0.1-0.1-0.2-0.1-0.4-0.2s-0.3-0.2-0.5-0.2
		c-0.4-0.2-0.7-0.3-1-0.4c-1-0.4-2-0.7-3-1v-0.1c0,0,0,0-0.1,0c-0.4-0.2-0.9-0.3-1.3-0.4c-0.7,0.3-1.4,0.7-2.1,1.3l0,0l0,0
		c2,1,3.9,2.4,5.7,4c0.3,0.2,0.5,0.4,0.7,0.6l0,0c0.1,0.1,0.3,0.2,0.4,0.3c0.2,0.2,0.4,0.4,0.6,0.5c0.4,0.3,0.7,0.6,1,0.9
		c0.6,0.5,1.1,1,1.5,1.3c0.6,0.5,1,0.8,1.3,1.1c0.2,0.2,0.3,0.3,0.4,0.4c0-0.2,0.1-0.4,0.1-0.5l0,0C48.7,63.9,48.8,63.5,48.9,63.1z"
		/>
	<path class="st15" d="M43.3,56c0.4,0.1,0.7,0.3,1,0.4c0.2,0.1,0.4,0.2,0.5,0.2c0.1,0.1,0.2,0.1,0.4,0.2c-0.1-0.1-0.3-0.1-0.4-0.2
		c-0.2-0.1-0.4-0.2-0.5-0.2C44,56.2,43.6,56.1,43.3,56c-1-0.4-2-0.8-2.9-1v0.1C41.3,55.4,42.3,55.7,43.3,56z"/>
	<path class="st15" d="M45.7,57c-0.1-0.1-0.2-0.1-0.3-0.1C45.5,56.9,45.6,57,45.7,57c0.4,0.2,0.6,0.3,0.9,0.4l0,0c0,0,0,0-0.1,0
		C46.3,57.2,46,57.1,45.7,57z"/>
	<path class="st16" d="M41.2,64.3c1.3-1.6,4.4-1.7,5.7-0.2c0.1,0.1,0.2,0.2,0.2,0.3c0.1,0.1,0.1,0.2,0.2,0.3
		c1.8,2.9-0.7,7.8-1.2,10.7c-0.2,3.3-0.2,6.9,0.2,10.5c2.3-0.1,4.5-0.4,6.7-0.8c-0.2-5.6-0.3-11.2-1.6-16.6h0.1
		c-0.1-0.1-0.1-0.1-0.1-0.1c-0.9-1.4-2-2.8-3-4.1l0,0c0,0.2-0.1,0.4-0.1,0.5c-0.2-0.1-0.3-0.2-0.4-0.4c-0.3-0.3-0.7-0.6-1.3-1.1
		c-0.4-0.4-0.9-0.8-1.5-1.3c-0.3-0.3-0.7-0.6-1-0.9c-0.2-0.2-0.4-0.4-0.6-0.5c-0.1-0.1-0.3-0.2-0.4-0.3l0,0
		c-0.3-0.2-0.5-0.4-0.7-0.6c-1.8-1.5-3.7-2.9-5.7-4c-4.6,4-7,15-8.2,26.8c3,1.3,6.2,2.2,9.6,2.7C37.7,78,38.5,70.8,41.2,64.3z"/>
	<path class="st16" d="M48.6,64.4c-0.1,0.2-0.1,0.4-0.1,0.5C48.6,64.8,48.6,64.5,48.6,64.4z"/>
	<path class="st16" d="M36.9,55.8L36.9,55.8c2,1,3.8,2.4,5.6,4c0.3,0.2,0.5,0.4,0.7,0.6c-0.3-0.2-0.5-0.4-0.7-0.6
		C40.8,58.2,38.9,56.8,36.9,55.8z"/>
	<path class="st3" d="M28.9,22.3c-0.1,0.2-0.2,0.3-0.3,0.5c-1.3,2.7,0.7,3.6,3.1,5.3c-0.6-0.3-1.3-0.5-1.8-0.7l-0.1,0.1
		c0.1,0.8,0.2,1.6,0.3,2.4c0.2,1,0.3,2.1,0.5,3.2l0,0c2.2,1.1,5.2,1.4,7.6,1.4l0,0c-0.1-0.1-0.2-0.1-0.2-0.2
		c-0.5-0.4-0.8-0.9-0.8-1.6l0,0l0,0h0.1c1.6,0.8,3.9,1.9,5.8,1.9c0.1-0.5,0.1-1,0.2-1.5h-0.1c0.4-0.9,0.8-1.8,0.9-2.8
		c0.1-0.5,0.1-0.9,0.1-1.4c-0.1-0.4-0.2-0.7-0.3-1.1c-3.9-0.6-8.9-1-11.7-3.5c0.1,0,0.1,0.1,0.2,0.1c-0.1-0.1-0.1-0.1-0.1-0.1
		c2.9,0.9,6.4,0.4,9.2,0.3c3.2-0.2,6.7,0.1,9.8-0.2c-1.8-0.4-3.7-1.2-5-2.3c0.1,0,0.1,0,0.1,0s-0.1,0-0.1-0.1
		c3.8-0.2,7.6-0.4,11.4-0.8c-0.2-0.2-0.3-0.4-0.5-0.6c0.1,0,0.1,0,0.1,0s0-0.1-0.1-0.1c0.1-0.1,0.2-0.1,0.4-0.1
		c-1.1-2.1-3-3.9-6.2-4.8C45.9,14,39.5,15.1,34,17.2c-0.7,0.3-1.4,0.6-2.1,0.9h-0.1c-1.1,1.1-2.3,2.4-3,3.7
		C29.1,22,29,22.1,28.9,22.3z M45.7,20.3c-0.8,0.2-1.6,0.2-2.5,0.3c-0.9,0.1-1.9,0.2-2.8,0.2c-0.1,0-0.2-0.2-0.1-0.2
		c1.5-0.6,3.7-1,5.3-0.6C45.9,20,45.9,20.2,45.7,20.3z M34.7,19.3C40,17.6,47,16,52.5,17.9c0.4,0.2,0.4,0.6-0.1,0.6
		c-2.9-0.1-5.6-0.6-8.5-0.4c-3.1,0.2-6.1,0.7-9.1,1.3C34.6,19.4,34.6,19.3,34.7,19.3z"/>
	<path class="st3" d="M30.3,29.8c0.2,1,0.3,2.1,0.5,3.2l0,0l0,0C30.6,31.9,30.4,30.8,30.3,29.8z"/>
	<path class="st3" d="M37.4,32.6C37.5,32.6,37.5,32.6,37.4,32.6C37.5,32.6,37.5,32.6,37.4,32.6L37.4,32.6z"/>
	<path class="st3" d="M28.7,22.8c-1.3,2.8,0.7,3.6,3.1,5.3C29.4,26.3,27.5,25.5,28.7,22.8z"/>
	<path class="st3" d="M38.4,34.3L38.4,34.3L38.4,34.3z"/>
	<path class="st17" d="M56.2,40.3L56.2,40.3c0.2-0.2,0.4-0.4,0.6-0.6h-0.1C56.6,39.8,56.4,40.1,56.2,40.3z"/>
	<path class="st17" d="M56.1,40.3C56.2,40.3,56.2,40.3,56.1,40.3c0.3-0.2,0.5-0.4,0.7-0.6c-0.3,0.1-0.5,0.2-0.7,0.3
		C55.9,40,55.9,40.2,56.1,40.3z"/>
	<path class="st17" d="M56.3,40.3c0.4,0.1,0.7-0.1,0.9-0.4c0.1-0.2-0.1-0.3-0.2-0.3s-0.1,0-0.1,0C56.6,39.8,56.4,40.1,56.3,40.3z"/>
	<path class="st18" d="M52.9,38.2c-0.9-0.3-2.2-0.8-3.2-0.4c-0.3,0.1-0.3,0.4-0.3,0.6c0.2,0.9,1.7,1.4,2.6,1.8
		C53.5,40.9,54.5,38.7,52.9,38.2z"/>
	<path class="st19" d="M53.1,33.6c-0.7,0-1.3,0.7-1.3,1.5s0.6,1.5,1.3,1.5s1.3-0.7,1.3-1.5S53.8,33.6,53.1,33.6z"/>
	<path class="st20" d="M52.1,30.2c-1,0.3-1.7,1-2.2,1.7c-0.1,0.1,0,0.2,0.1,0.1c0.7-0.7,1.6-1.1,2.6-1.1c0.7-0.1,1.4,0.3,2,0.1
		c0.2-0.1,0.3-0.2,0.2-0.4C54.1,29.9,52.9,30,52.1,30.2z"/>
	<path class="st4" d="M57.1,26.3c-6.4-0.9-13.2,1-19.3-1.4c5.3,2.6,13.5,2.6,19.3,1.8C57.4,26.7,57.4,26.4,57.1,26.3z"/>
	<path class="st21" d="M34.6,41c-1-1.9-1.8-4-3.2-5.7c0-0.1-0.1,0-0.1,0.1c1,1.9,1.9,3.9,2.6,6c0.5,1.6,1.3,3.5,2.7,4.7
		c0.2,0.2,0.6,0,0.5-0.3C36.5,44.1,35.4,42.6,34.6,41z"/>
	<path class="st21" d="M35.9,38.1c0.1,0,0.3-0.1,0.2-0.2c-0.1-0.8-1.1-1.2-1.4-2c0-0.1-0.2-0.1-0.2,0.1C34.5,36.8,34.7,38,35.9,38.1
		z"/>
	<path class="st21" d="M37.5,36.8c0.2,0,0.3-0.2,0.2-0.3c-0.1-0.2-0.5-0.4-0.5-0.6c-0.2-0.3-0.6-0.2-0.6,0.2
		C36.7,36.6,37.1,36.8,37.5,36.8z"/>
	<path class="st21" d="M43.6,40.9c0.1,0.1,0.3,0.1,0.3-0.1c0-0.8-0.4-1.6-0.7-2.4c-0.3-0.8-0.5-1.7-1-2.4c-0.1-0.1-0.2,0-0.2,0.1
		c0.2,0.8,0.4,1.6,0.7,2.5C43,39.3,43.1,40.3,43.6,40.9z"/>
	<path class="st22" d="M46.4,85.9c-0.4-3.6-0.5-7.1-0.2-10.5c0.5-2.9,3-7.8,1.2-10.7c-0.1-0.1-0.1-0.2-0.2-0.3
		c-0.1-0.1-0.2-0.2-0.2-0.3c-1.4-1.6-4.4-1.4-5.7,0.2c-2.7,6.5-3.6,13.7-3.1,21.1c2.2,0.4,4.4,0.5,6.7,0.5
		C45.4,86,45.9,85.9,46.4,85.9z"/>
	<path class="st23" d="M44.9,87.7c-24.2,0-44-19.7-44-43.9s19.7-44,44-44s44,19.7,44,44S69.1,87.7,44.9,87.7z M44.9,4.3
		C23.1,4.3,5.4,22,5.4,43.8s17.7,39.5,39.5,39.5s39.5-17.7,39.5-39.5S66.7,4.3,44.9,4.3z"/>
</g>
</svg>
