<?xml version="1.0" encoding="utf-8"?>
<!-- Generator: Adobe Illustrator 22.1.0, SVG Export Plug-In . SVG Version: 6.00 Build 0)  -->
<svg version="1.1" id="Layer_1" xmlns="http://www.w3.org/2000/svg" xmlns:xlink="http://www.w3.org/1999/xlink" x="0px" y="0px"
	 viewBox="0 0 199.5 245.5" style="enable-background:new 0 0 199.5 245.5;" xml:space="preserve">
<style type="text/css">
	.st0{fill:#579AB8;}
	.st1{fill:none;stroke:#121436;stroke-width:0.216;stroke-miterlimit:22.9256;}
	.st2{fill:#EDF0F1;}
	.st3{fill:#F47E65;}
	.st4{fill:#FFFFFF;}
</style>
<g id="Layer_3_1_">
	<g id="Layer_3">
		<g id="Layer_1_5_">
			<path class="st0" d="M25.8,46.6c45.3-12.6,93.7-13.8,146.2,0v72.1v74.1v10.3l-36.5,21.2l-36.6,21.1l-36.6-21.1l-36.6-21.1v-10.3
				l0,0L25.8,46.6L25.8,46.6z"/>
			<path class="st1" d="M25.8,46.6c45.3-12.6,93.7-13.8,146.2,0v72.1v74.1v10.3l-36.5,21.2l-36.6,21.1l-36.6-21.1l-36.6-21.1v-10.3
				l0,0L25.8,46.6L25.8,46.6z"/>
			<path class="st2" d="M31,50.9V200l68,39.3l68-39.3V51C121.6,39.6,76.3,39,31,50.9z M160.4,196.2L99,231.7l-61.5-35.5V56.1
				c40.9-9.9,81.9-9.4,122.8,0.1L160.4,196.2L160.4,196.2z"/>
			<path class="st3" d="M36.9,55.2v128.7l61.2-13.5l43-6.5l19.8-5.6V55.2C119.6,45.6,78.3,45.1,36.9,55.2z"/>
			<g>
				<g>
					<path class="st4" d="M58.5,75.8l7-58.9h67.3v20.7H87.1l-2.6,22.9c1.9-1.1,4.4-2.1,7.5-3c3.1-0.8,6.1-1.3,9.1-1.3
						c11.4,0,20.2,3.4,26.4,10.2c6.2,6.7,9.2,16.3,9.2,28.5c0,7.3-1.7,14.1-5,20.1s-7.9,10.6-13.9,13.8s-13,4.8-21.1,4.8
						c-7.2,0-14-1.5-20.3-4.5c-6.4-3-11.3-7.1-14.9-12.2c-3.6-5.2-5.4-11-5.3-17.6h26.7c0.3,4.2,1.6,7.6,4,10s5.6,3.7,9.6,3.7
						c8.9,0,13.4-6.6,13.4-19.9c0-12.3-5.5-18.4-16.4-18.4c-6.2,0-10.9,2-13.9,6L58.5,75.8z"/>
					<path class="st0" d="M96.8,136.5c-7.6,0-14.8-1.6-21.5-4.8c-6.7-3.1-12.1-7.6-16-13.2c-3.9-5.6-5.9-12.1-5.8-19.2v-2.8h32.2
						l0.2,2.7c0.2,3.5,1.3,6.2,3.2,8.2c1.9,1.9,4.4,2.9,7.6,2.9c4.6,0,10.6-1.8,10.6-17c0-10.8-4.2-15.5-13.6-15.5
						c-5.3,0-9.2,1.6-11.7,4.9l-1.1,1.4l-25.5-6L63,14.2h72.6v26.4h-46L87.8,56c1-0.3,2.2-0.7,3.4-1c3.3-0.9,6.6-1.3,9.8-1.3
						c12.2,0,21.8,3.8,28.4,11c6.6,7.2,9.9,17.5,9.9,30.4c0,7.8-1.8,15-5.3,21.4c-3.5,6.5-8.6,11.5-15,14.9
						C112.9,134.7,105.3,136.5,96.8,136.5z M59.2,102.1c0.4,4.8,1.9,9.2,4.7,13.1c3.3,4.8,7.9,8.6,13.7,11.3
						c5.9,2.8,12.3,4.2,19.1,4.2c7.6,0,14.3-1.5,19.8-4.5s9.7-7.2,12.7-12.7s4.6-11.8,4.6-18.7c0-11.4-2.9-20.4-8.5-26.6
						C119.7,62,111.7,59,101,59c-2.7,0-5.5,0.4-8.3,1.2c-2.9,0.8-5.1,1.7-6.8,2.7L81,65.8l3.5-31h45.4V19.7H68l-6.5,53.9l17,4
						C82,73.8,87.1,72,93.4,72c8.8,0,19.3,3.7,19.3,21.3c0,18.8-8.9,22.8-16.3,22.8c-4.7,0-8.6-1.5-11.5-4.6
						c-2.4-2.4-3.9-5.5-4.5-9.2H59.2V102.1L59.2,102.1z"/>
				</g>
			</g>
			<polygon class="st0" points="27,129.4 199.1,98.2 199.5,175.3 172.1,191.8 170.8,180.6 0.5,211.6 0,134.4 25.8,121 			"/>
			<polygon class="st0" points="103.2,0 50.5,9.6 47.8,10.1 48,33.7 94.6,25.2 103.3,23.6 			"/>
			<g>
				<path class="st4" d="M66.7,13.3l-5.5,0.9v14L56.8,29V15.1L51.4,16v-3.2l15.1-2.7L66.7,13.3L66.7,13.3z"/>
				<path class="st4" d="M83.7,24.2L79.3,25v-7.2L72.9,19v7.2L68.5,27V9.9l4.4-0.8v6.8l6.4-1.2V7.9l4.4-0.8V24.2z"/>
				<path class="st4" d="M97.7,14.4l-6.9,1.3v4.1l8.1-1.4v3.1l-12.4,2.3V6.6L99,4.3v3.2l-8.2,1.4v3.6l6.9-1.3V14.4L97.7,14.4z"/>
			</g>
			<g>
				<path class="st4" d="M7.8,168v-26l9.4-1.7c3.4-0.6,6-0.4,7.7,0.4c1.8,0.9,2.7,2.5,2.7,4.9c0,1.3-0.3,2.5-0.9,3.6
					c-0.6,1-1.5,1.9-2.8,2.6c1.3,0.1,2.4,0.6,3.1,1.4c0.8,0.8,1.1,1.9,1.1,3.4c0,2.5-0.8,4.6-2.4,6.2s-4,2.7-7.2,3.3L7.8,168z
					 M14.2,151.7l3.3-0.6c1.4-0.3,2.4-0.7,3-1.3s0.9-1.3,0.9-2.3c0-1.1-0.3-1.9-0.9-2.2c-0.7-0.3-1.7-0.4-3.1-0.2l-3.1,0.6
					L14.2,151.7z M14.2,155.8v6.2l4.1-0.8c1.2-0.2,2-0.6,2.7-1.3c0.6-0.7,0.9-1.4,0.9-2.4c0-2.2-1.1-3-3.3-2.7L14.2,155.8z"/>
				<path class="st4" d="M46.7,156.2l-8.7,1.5l-1.5,5.1l-6.7,1.2l9.6-27.7l6-1l9.7,24.2l-6.8,1.2L46.7,156.2z M39.5,152.6l5.6-1
					l-2.9-8.5L39.5,152.6z"/>
				<path class="st4" d="M70.4,149.9c0-0.9-0.3-1.5-1-1.9s-1.8-0.7-3.5-0.9c-1.7-0.3-3-0.6-4-0.8c-3.4-1-5.1-3-5.1-5.9
					c0-1.4,0.4-2.8,1.3-4c0.8-1.3,2-2.3,3.6-3.2c1.5-0.9,3.3-1.5,5.2-1.9c1.9-0.3,3.6-0.3,5.1,0.1c1.5,0.4,2.7,1.2,3.5,2.2
					c0.8,1.1,1.3,2.4,1.3,4l-6.3,1.1c0-1-0.3-1.8-1-2.3c-0.7-0.4-1.5-0.6-2.7-0.4c-1.2,0.2-2,0.6-2.7,1.2c-0.7,0.6-1,1.3-1,2
					s0.3,1.2,1.1,1.6c0.7,0.4,2,0.8,3.8,1c1.8,0.3,3.3,0.6,4.5,1c2.9,1.1,4.3,3,4.3,5.9c0,2.3-0.8,4.2-2.6,5.8s-4.1,2.7-7.1,3.2
					c-2.2,0.4-4,0.3-5.8-0.1c-1.8-0.4-3-1.3-3.9-2.4c-0.8-1.2-1.3-2.6-1.3-4.3l6.4-1.2c0,1.4,0.3,2.4,1.1,2.9
					c0.8,0.6,1.9,0.7,3.5,0.3c1-0.2,1.9-0.6,2.5-1.1C70.1,151.4,70.4,150.6,70.4,149.9z"/>
				<path class="st4" d="M86.8,153.8l-6.3,1.2v-26l6.3-1.2V153.8z"/>
				<path class="st4" d="M112.5,140.4c-0.1,1.8-0.6,3.5-1.5,5.1s-2.2,2.9-3.8,3.9c-1.7,1-3.5,1.8-5.6,2.2c-3.5,0.6-6.2,0-8.2-1.9
					s-3-4.8-3-8.9v-1.3c0-2.5,0.4-4.9,1.3-6.9c0.9-2,2.2-3.8,3.9-5.1s3.6-2.2,5.9-2.6c3.2-0.6,5.7-0.2,7.7,1.1
					c1.9,1.3,3,3.4,3.3,6.2l-6.3,1.2c-0.1-1.5-0.4-2.7-1.2-3.2c-0.8-0.6-1.9-0.7-3.5-0.4c-1.5,0.3-2.8,1-3.5,2.4
					c-0.8,1.3-1.1,3.2-1.2,5.8v1.9c0,2.8,0.3,4.7,1,5.7s1.9,1.4,3.6,1.2c1.4-0.3,2.5-0.8,3.4-1.6c0.8-0.8,1.2-1.9,1.3-3.5
					L112.5,140.4z"/>
				<path class="st4" d="M129.1,139.3c0-0.9-0.3-1.5-1-1.9s-1.8-0.7-3.5-0.9c-1.7-0.3-3-0.6-4-0.8c-3.4-1-5.1-3-5.1-5.9
					c0-1.4,0.4-2.8,1.3-4c0.8-1.3,2-2.3,3.6-3.2c1.5-0.9,3.3-1.5,5.2-1.9c1.9-0.3,3.6-0.3,5.1,0.1c1.5,0.4,2.7,1.2,3.5,2.2
					c0.8,1.1,1.3,2.4,1.3,4l-6.3,1.2c0-1-0.3-1.8-1-2.3c-0.7-0.4-1.5-0.6-2.7-0.4c-1.2,0.2-2,0.6-2.7,1.2c-0.7,0.6-1,1.3-1,2
					s0.3,1.2,1.1,1.6c0.7,0.4,2,0.8,3.8,1s3.3,0.6,4.5,1c2.9,1.1,4.3,3,4.3,5.9c0,2.3-0.8,4.2-2.6,5.8s-4.1,2.7-7.1,3.2
					c-2.2,0.4-4,0.3-5.8-0.1s-3-1.3-3.9-2.4c-0.8-1.2-1.3-2.6-1.3-4.3l6.4-1.2c0,1.4,0.3,2.4,1.1,2.9c0.8,0.6,1.9,0.7,3.5,0.3
					c1-0.2,1.9-0.6,2.5-1.1C128.8,140.8,129.1,140.2,129.1,139.3z"/>
				<path class="st4" d="M170.1,126.4c0,2.5-0.4,4.9-1.4,7c-0.9,2.1-2.3,3.9-4,5.2c-1.8,1.3-3.8,2.3-6,2.7c-2.3,0.4-4.2,0.3-6-0.4
					s-3.1-1.9-4-3.6c-0.9-1.7-1.5-3.8-1.5-6.2v-1.4c0-2.5,0.4-4.9,1.4-7c0.9-2.1,2.3-3.9,4-5.2s3.8-2.3,6-2.7s4.2-0.3,6,0.5
					s3.1,1.9,4,3.8c0.9,1.8,1.4,3.9,1.4,6.4L170.1,126.4z M163.7,126.5c0-2.5-0.4-4.5-1.3-5.6c-0.8-1.2-2.1-1.6-3.8-1.3
					c-3.1,0.6-4.9,3.2-5.1,8v1.9c0,2.5,0.4,4.4,1.3,5.6c0.8,1.2,2.1,1.7,3.8,1.3c1.6-0.3,2.9-1.2,3.7-2.7c0.8-1.5,1.3-3.5,1.3-6
					L163.7,126.5L163.7,126.5z"/>
				<path class="st4" d="M190,124.9l-10.2,1.9v10.3l-6.4,1.2v-26l17.6-3.1v4.8l-11.3,2v6l10.2-1.9L190,124.9z"/>
				<path class="st4" d="M24.4,186.2l-10.2,1.9v10.3l-6.4,1.2v-26l17.6-3.1v4.8l-11.3,2v6l10.2-1.9L24.4,186.2z"/>
				<path class="st4" d="M34.8,194.7l-6.3,1.2v-26l6.3-1.2V194.7z"/>
				<path class="st4" d="M61.3,189.9l-6.3,1.2l-9.3-14.5v16.1l-6.4,1.2v-26l6.4-1.2l9.3,14.5v-16.1l6.3-1.2V189.9z"/>
				<path class="st4" d="M80.5,181.6l-8.7,1.5l-1.5,5.1l-6.7,1.2l9.6-27.7l6-1l9.7,24.2l-6.8,1.2L80.5,181.6z M73.3,178l5.6-1
					l-2.9-8.5L73.3,178z"/>
				<path class="st4" d="M112.7,180.6l-6.3,1.2l-9.3-14.5v16.1l-6.4,1.2v-26l6.4-1.2l9.3,14.5v-16.1l6.3-1.2V180.6z"/>
				<path class="st4" d="M138,167.3c-0.1,1.8-0.6,3.5-1.5,5.1c-0.9,1.5-2.2,2.9-3.8,3.9s-3.5,1.8-5.6,2.2c-3.5,0.6-6.2,0-8.2-1.9
					s-3-4.8-3-8.9v-1.3c0-2.5,0.4-4.9,1.3-6.9c0.9-2,2.2-3.8,3.9-5.1s3.6-2.2,5.9-2.6c3.2-0.6,5.7-0.2,7.7,1.1
					c1.9,1.3,3,3.4,3.3,6.2l-6.3,1.2c-0.1-1.5-0.4-2.7-1.2-3.2c-0.8-0.6-1.9-0.7-3.5-0.4c-1.5,0.3-2.8,1-3.5,2.4
					c-0.8,1.3-1.1,3.2-1.2,5.8v1.9c0,2.8,0.3,4.7,1,5.7s1.9,1.4,3.6,1.2c1.4-0.3,2.5-0.8,3.4-1.6c0.8-0.8,1.2-1.9,1.3-3.5L138,167.3
					z"/>
				<path class="st4" d="M147.8,174.4l-6.3,1.2v-26l6.3-1.2V174.4z"/>
				<path class="st4" d="M167.4,166l-8.7,1.5l-1.5,5.1l-6.7,1.2l9.6-27.7l6-1l9.7,24.2l-6.8,1.2L167.4,166z M160.2,162.4l5.6-1
					l-2.9-8.5L160.2,162.4z"/>
				<path class="st4" d="M184,163l11-2v4.8l-17.4,3.1v-26l6.4-1.2V163z"/>
			</g>
			<g>
				<path class="st4" d="M69.6,203.7l6-1.1v2.6l-9.4,1.7v-14.1l3.5-0.6L69.6,203.7z"/>
				<path class="st4" d="M80.8,204.4l-3.5,0.6v-14.1l3.5-0.6V204.4z"/>
				<path class="st4" d="M94.1,190.5l-4.3,0.8v11.5l-3.5,0.6v-11.5l-4.2,0.8v-2.6l11.9-2.2L94.1,190.5z"/>
				<path class="st4" d="M104.4,194.1L99,195v3.4l6.4-1.2v2.6l-9.8,1.8v-14.1l9.9-1.8v2.6l-6.4,1.2v3l5.4-0.9L104.4,194.1z"/>
				<path class="st4" d="M112.1,193.8l-1.9,0.3v5l-3.5,0.6v-14.1l5.6-1c1.7-0.3,3-0.2,4,0.4c0.9,0.6,1.4,1.5,1.4,2.9
					c0,1-0.2,1.9-0.6,2.5c-0.4,0.7-1,1.3-1.9,1.9l3,5.1v0.2l-3.7,0.7L112.1,193.8z M110.2,191.5l2.2-0.4c0.7-0.1,1.2-0.3,1.4-0.8
					c0.3-0.4,0.5-0.9,0.5-1.5s-0.2-1-0.5-1.3s-0.8-0.3-1.4-0.3l-2.2,0.4V191.5z"/>
				<path class="st4" d="M128,193.2l-4.7,0.8l-0.8,2.8l-3.6,0.7l5.2-15l3.3-0.6l5.2,13.2l-3.7,0.7L128,193.2z M124.1,191.3l3-0.6
					l-1.5-4.6L124.1,191.3z"/>
				<path class="st4" d="M144.9,188c-0.1,1-0.3,1.9-0.8,2.8c-0.5,0.8-1.2,1.5-2,2.1c-0.9,0.6-1.9,0.9-3,1.2c-1.9,0.3-3.4,0-4.5-1
					s-1.6-2.6-1.6-4.8v-0.7c0-1.4,0.3-2.7,0.8-3.8s1.2-2,2.1-2.8c0.9-0.8,1.9-1.2,3.1-1.4c1.8-0.3,3.1-0.1,4.1,0.6
					c1,0.7,1.7,1.9,1.8,3.4l-3.5,0.6c-0.1-0.8-0.3-1.4-0.7-1.8c-0.4-0.3-1-0.3-1.9-0.2c-0.8,0.2-1.5,0.6-1.9,1.3s-0.6,1.8-0.7,3.1v1
					c0,1.5,0.2,2.5,0.6,3.1c0.4,0.6,1,0.8,1.9,0.6c0.8-0.2,1.4-0.4,1.8-0.9c0.4-0.4,0.7-1,0.7-1.9L144.9,188z"/>
				<path class="st4" d="M151.8,183.6l2.6-6.6l3.7-0.7l-4.6,9.9v5.1L150,192v-5.1l-4.6-8.2l3.7-0.7L151.8,183.6z"/>
			</g>
		</g>
	</g>
</g>
</svg>
