<?xml version="1.0" encoding="utf-8"?>
<!-- Generator: Adobe Illustrator 22.1.0, SVG Export Plug-In . SVG Version: 6.00 Build 0)  -->
<svg version="1.1" id="Layer_1" xmlns="http://www.w3.org/2000/svg" xmlns:xlink="http://www.w3.org/1999/xlink" x="0px" y="0px"
	 viewBox="0 0 372.7 89.2" style="enable-background:new 0 0 372.7 89.2;" xml:space="preserve">
<style type="text/css">
	.st0{fill:#39B16D;}
	.st1{opacity:6.000000e-02;fill:#FFFFFF;enable-background:new    ;}
	.st2{fill:#A85238;}
	.st3{opacity:0.1;fill:#FFFFFF;enable-background:new    ;}
	.st4{opacity:0.15;fill:#030303;enable-background:new    ;}
	.st5{fill:#F4D27A;}
	.st6{fill:#F7CD4A;}
	.st7{fill:#F29F25;}
	.st8{fill:#E47E27;}
	.st9{fill:#FFFFFF;}
	.st10{opacity:0.1;fill:#231F20;enable-background:new    ;}
	.st11{opacity:0.25;fill:#FFFFFF;enable-background:new    ;}
	.st12{opacity:0.1;fill:#030303;enable-background:new    ;}
	.st13{fill:#A7D8BC;}
	.st14{fill:#2D6B87;}
</style>
<g>
	<g>
		<g id="Layer_2_7_">
			<ellipse class="st0" cx="43.5" cy="43.7" rx="42.7" ry="41.5"/>
		</g>
		<g>
			<path class="st0" d="M50.9,55.4c-0.6,0.6-1.2,1.1-1.9,1.5l0.6,0.7C50,56.8,50.4,56.1,50.9,55.4z"/>
			<path class="st0" d="M51.7,54.5L51.7,54.5c-0.1,0.1-0.2,0.2-0.2,0.2C51.6,54.7,51.7,54.6,51.7,54.5z"/>
			<path class="st0" d="M48.2,41.2c-0.8-2-2.2-6.2-2.8-9.9c-0.1,2.1-0.2,5.2-0.3,9.1C46.1,40.5,47.2,40.8,48.2,41.2z"/>
			<path class="st0" d="M56.1,14.3c-0.8,0.9-10.5,9.1-9.6,14.1c-0.9,5,8.8,13.2,9.6,14c0.1,0.1,0.2,0.2,0.2,0.2
				c6.5,6,13.5,12,17.2,20.2c1.3,2.9,2,6.1,2.3,9.3c6.5-7.4,10.4-17,10.4-27.6c0-16.2-9.3-30.3-22.9-37.2c-2.3,2.3-4.8,4.5-7.1,6.7
				C56.3,14.1,56.2,14.2,56.1,14.3z"/>
			<path class="st0" d="M43.9,40.4c-0.1-3.6-0.2-6.6-0.3-8.6c-0.6,3.6-2,7.4-2.7,9.3c0.6-0.3,1.1-0.5,1.8-0.6
				C43.1,40.6,43.5,40.5,43.9,40.4z"/>
			<path class="st0" d="M32.8,42.6c0.1-0.1,0.2-0.2,0.2-0.2c0.8-0.9,10.5-9.1,9.6-14c0.9-5-8.8-13.2-9.6-14
				c-0.1-0.1-0.2-0.2-0.2-0.2c-2.3-2.2-4.8-4.3-7-6.6C12.2,14.4,2.9,28.5,2.9,44.8c0,10.5,3.9,20.2,10.4,27.5c0.3-3.2,1-6.4,2.3-9.3
				C19.3,54.7,26.4,48.6,32.8,42.6z"/>
			<path class="st0" d="M45.3,28.4C45.3,28.3,45.3,28.3,45.3,28.4l-1.4-0.1v0.1h0.7H45.3z"/>
			<path class="st0" d="M37.4,54.4c-0.1,0.5-0.2,0.9-0.3,1.5c0.9,0.2,1.8,0.4,2.7,0.8C38.8,56.1,38,55.3,37.4,54.4z"/>
			<path class="st0" d="M23.5,62.8c2.6-8.2,8.3-14.3,12.8-20.2c0.1-0.1,0.1-0.2,0.2-0.2c0.6-0.9,7.4-9.1,6.8-14
				c0.1-0.4,0.1-0.8,0-1.2c-0.2-0.6-0.4-1.3-0.7-1.9c0.4,1.1,0.6,2.2,0.5,3.1c0.8,5-7.6,13.2-8.4,14c-0.1,0.1-0.2,0.2-0.2,0.2
				c-5.6,6-11.7,12-14.9,20.2c-0.7,1.8-1.3,3.8-1.6,5.8c1.4-0.8,2.9-1.4,4.6-1.4C22.7,65.7,23.1,64.3,23.5,62.8z"/>
			<path class="st0" d="M45.8,28.4c-0.7,5,6.2,13.2,6.8,14c0.1,0.1,0.1,0.2,0.2,0.2c2.3,3.1,5,6.3,7.4,9.7c3.8,1,6.5,4.4,6.5,8.5
				c0,1.3-0.3,2.4-0.7,3.5c0.3,0.9,0.5,1.9,0.6,2.9c0.1,0,0.1,0,0.1,0c1.6,0,3.2,0.5,4.5,1.3c-0.4-1.9-0.8-3.8-1.6-5.6
				c-3.2-8.2-9.3-14.3-14.9-20.2c-0.1-0.1-0.2-0.2-0.2-0.2c-0.7-0.9-9.1-9.1-8.4-14c-0.2-1.3,0.2-2.7,0.9-4.2
				c-0.5,0.9-0.9,1.8-1.2,2.6C45.8,27.3,45.8,27.9,45.8,28.4z"/>
			<path class="st1" d="M14.8,89.1c-0.1,0-0.2,0.1-0.3,0.1H15C14.9,89.1,14.9,89.1,14.8,89.1z"/>
			<path class="st2" d="M53.2,84.9H50c-0.2,0-0.3,0-0.4,0h5.9c0.1,0,0.1,0,0.1,0H53.2z"/>
			<path class="st2" d="M44.6,84.9h-7.7l0,0h11.6c-0.2,0-0.3,0-0.4,0H44.6z"/>
			<path class="st2" d="M49.1,84.9c-0.2,0-0.3,0-0.5,0H37v0.7c2.5,0.5,5,0.7,7.6,0.7c3.8,0,7.4-0.5,10.9-1.5h-5.9
				C49.4,84.9,49.2,84.9,49.1,84.9z"/>
			<path class="st1" d="M49.1,84.9c-0.2,0-0.3,0-0.5,0H37v0.7c2.5,0.5,5,0.7,7.6,0.7c3.8,0,7.4-0.5,10.9-1.5h-5.9
				C49.4,84.9,49.2,84.9,49.1,84.9z"/>
			<path class="st2" d="M37,84.9h-3.3c0.1,0,0.1,0,0.1,0H37L37,84.9z"/>
			<path class="st3" d="M37,84.9h-3.3c0.1,0,0.1,0,0.1,0H37L37,84.9z"/>
			<path class="st2" d="M33.7,84.9c1.1,0.3,2.1,0.5,3.3,0.7v-0.7H33.7z"/>
			<path class="st1" d="M33.7,84.9c1.1,0.3,2.1,0.5,3.3,0.7v-0.7H33.7z"/>
			<path class="st3" d="M33.7,84.9c1.1,0.3,2.1,0.5,3.3,0.7v-0.7H33.7z"/>
			<path class="st4" d="M14.6,89c0.1,0.1,0.1,0.1,0.2,0.1h0.1C14.8,89,14.7,89,14.6,89z"/>
			<path class="st5" d="M40.2,76.1c0-1.8,0.6-3.5,1.5-4.9c-1.6,1.4-3.7,2.3-6,2.3c-0.2,0-0.4,0-0.6-0.1c0,1.8,0,3.7,0.1,5.4
				c0,0.4,0.1,2.6,0.3,4.2h8C41.5,81.4,40.2,78.9,40.2,76.1z"/>
			<path class="st5" d="M40.6,57.2c2.4,1.6,4,4.3,4,7.4c0,1.8-0.6,3.5-1.5,4.9c1.6-1.4,3.7-2.3,6-2.3c1.1,0,2.2,0.2,3.2,0.6
				c-2-1.6-3.3-4.1-3.3-6.9c0-1.1,0.2-2.3,0.6-3.3L49,56.9c-0.8,0.5-1.6,0.8-2.6,1C44.4,58.4,42.3,58,40.6,57.2z"/>
			<path class="st5" d="M53.2,84.8h-3.1c-0.1,0-0.1,0-0.2,0H53.2C53.2,84.9,53.2,84.9,53.2,84.8z"/>
			<path class="st5" d="M48.1,84.9c-0.1,0-0.1,0-0.2,0h-3.4h-7.6l0,0h7.7H48.1z"/>
			<path class="st5" d="M37,84.8h-3.4c0.1,0,0.1,0,0.1,0H37L37,84.8z"/>
			<path class="st6" d="M45.1,40.4c0.1-3.9,0.2-7,0.3-9.1c-0.2-1-0.2-2.1-0.2-3h-0.7h-0.7c0.1,1-0.1,2.2-0.3,3.4
				c0.1,2.1,0.2,5,0.3,8.6C44.3,40.4,44.7,40.4,45.1,40.4z"/>
			<path class="st6" d="M17.5,71.2c0.1-0.1,0.1-0.1,0.1-0.1s0.1-0.1,0.2-0.2c0.9-0.9,2.1-1.5,3.5-1.8c0.3-0.1,0.6-0.1,0.8-0.1
				c0.1-0.6,0.2-1.2,0.3-1.8c-1.7,0.1-3.2,0.5-4.6,1.4C17.7,69.5,17.6,70.3,17.5,71.2L17.5,71.2z"/>
			<path class="st7" d="M17.6,71c0.1-0.1,0.1-0.1,0.2-0.2C17.7,70.9,17.7,71,17.6,71z"/>
			<path class="st7" d="M20.6,72.6c-0.3,0.4-0.4,1-0.2,1.6c0.1,0.4,0.2,0.6,0.4,0.8c0.2,0.2,0.4,0.4,0.6,0.5
				c0.2,0.1,0.4,0.2,0.5,0.2c0-0.9-0.1-1.9,0-2.8l-0.2-1C21.2,71.9,20.9,72.1,20.6,72.6z"/>
			<path class="st7" d="M21,78.4c0.1,0,0.1,0,0.2,0.1s0.1,0.1,0.1,0.2c0.1,0.4,0.2,0.7,0.3,0.9c0.1,0.1,0.2,0.2,0.3,0.2
				c-0.1-0.2-0.1-0.4-0.1-0.4c-0.1-0.4-0.1-0.9,0.1-1.3c-0.1-0.6-0.1-1.2-0.1-1.8c-0.3-0.1-0.5-0.2-0.7-0.3
				c-0.3-0.2-0.5-0.4-0.7-0.6s-0.4-0.6-0.4-1c-0.2-0.7-0.1-1.3,0.2-1.9c0.4-0.6,0.8-0.9,1.4-1L21.5,71c-0.1-0.2,0.1-0.3,0.2-0.4
				c0.1,0,0.3,0.1,0.3,0.1c0.1-0.4,0.1-0.7,0.1-1.1c-0.2,0-0.3,0.1-0.4,0.1c-1.8,0.3-3.2,1.3-4.3,2.6c-0.1,1.4-0.1,2.8-0.1,4.2
				c1.1,0.9,2.3,1.9,3.5,2.7c-0.1-0.1-0.1-0.2-0.1-0.4C20.8,78.5,20.9,78.4,21,78.4z"/>
			<path class="st7" d="M17.5,71.2L17.5,71.2L17.5,71.2L17.5,71.2z"/>
			<path class="st7" d="M22,78.8c-0.1-0.3-0.1-0.6-0.1-0.8c-0.1,0.4-0.1,0.9-0.1,1.3c0,0.1,0,0.2,0.1,0.4c0.1,0.1,0.1,0.1,0.2,0.1
				C22.1,79.3,22,78.9,22,78.8z"/>
			<path class="st8" d="M17.5,71.2c0.1-0.1,0.1-0.1,0.1-0.1C17.6,71,17.6,71.1,17.5,71.2z"/>
			<path class="st8" d="M22.2,69c-0.3,0-0.6,0.1-0.8,0.1c-1.4,0.3-2.6,0.9-3.5,1.8C19,69.8,20.6,69.1,22.2,69L22.2,69z"/>
			<path class="st8" d="M17.4,72.1c1-1.3,2.5-2.2,4.3-2.6c0.2,0,0.3-0.1,0.4-0.1c0-0.2,0.1-0.3,0.1-0.5c-1.6,0.1-3.2,0.7-4.3,1.8
				c-0.1,0.1-0.1,0.1-0.2,0.2C17.6,71,17.6,71,17.6,71s0,0-0.1,0.1C17.5,71.5,17.5,71.8,17.4,72.1z"/>
			<path class="st9" d="M21.3,75.5c-0.2-0.1-0.4-0.3-0.6-0.5c-0.2-0.2-0.3-0.5-0.4-0.8c-0.1-0.6-0.1-1.1,0.2-1.6
				c0.2-0.4,0.6-0.7,1-0.8l0.2,1c0.1-0.7,0.1-1.5,0.2-2.2c-0.1-0.1-0.2-0.1-0.3-0.1c-0.2,0.1-0.3,0.2-0.2,0.4l0.1,0.5
				c-0.6,0.2-1,0.5-1.4,1c-0.3,0.6-0.4,1.1-0.2,1.9c0.1,0.4,0.2,0.8,0.4,1c0.2,0.3,0.4,0.4,0.7,0.6s0.5,0.3,0.7,0.3
				c0-0.2,0-0.3,0-0.5C21.7,75.6,21.5,75.5,21.3,75.5z"/>
			<path class="st9" d="M21.3,78.6c0-0.1-0.1-0.1-0.1-0.2s-0.1-0.1-0.2-0.1c-0.2,0.1-0.2,0.1-0.2,0.3c0.1,0.2,0.1,0.3,0.1,0.4
				c0.3,0.2,0.5,0.3,0.7,0.5C21.5,79.2,21.4,78.9,21.3,78.6z"/>
			<path class="st6" d="M66.6,67.3c0.1,0.6,0.2,1.1,0.3,1.7c1.8,0.1,3.4,0.7,4.6,1.9c-0.1-0.8-0.2-1.6-0.3-2.3
				c-1.3-0.8-2.9-1.3-4.5-1.3C66.7,67.3,66.7,67.3,66.6,67.3z"/>
			<path class="st7" d="M67.2,77.7c0.1,0.5,0.2,1,0.1,1.5c0,0.1,0,0.1,0,0.2v0.2c0.5-0.3,0.9-0.6,1.4-0.9c0-0.1,0-0.2,0-0.3
				c0-0.4-0.1-0.7-0.2-0.9c-0.1-0.2-0.3-0.4-0.5-0.6s-0.4-0.3-0.6-0.4c-0.1,0-0.1,0-0.1-0.1c0,0.2,0,0.5-0.1,0.7L67.2,77.7
				L67.2,77.7z"/>
			<path class="st7" d="M66.9,69.5c0.1,0.6,0.2,1.3,0.2,1.9c0.5,0.1,0.8,0.3,1.1,0.5c0.4,0.4,0.6,1,0.7,1.9c0,0.1,0,0.1-0.1,0.2
				c-0.1,0-0.1,0.1-0.2,0.1s-0.1,0-0.2-0.1c0-0.1-0.1-0.1-0.1-0.2c-0.1-0.7-0.2-1.3-0.6-1.6c-0.2-0.2-0.4-0.3-0.7-0.4
				c0.1,1.4,0.1,2.9,0.1,4.3c0.1,0.1,0.2,0.1,0.3,0.1c0.2,0.1,0.5,0.2,0.7,0.4s0.4,0.4,0.5,0.7c0.2,0.3,0.3,0.6,0.3,1
				c0.9-0.7,1.8-1.4,2.7-2.1c0.1-1.7,0.1-3.4-0.1-5.2C70.3,70.1,68.7,69.5,66.9,69.5z"/>
			<path class="st7" d="M67.3,79.2c0.1-0.5,0.1-1-0.1-1.5l0.1,1.7C67.3,79.3,67.3,79.3,67.3,79.2z"/>
			<path class="st8" d="M71.6,71c0-0.1,0-0.1,0-0.2c-1.3-1.1-2.9-1.8-4.6-1.9c0,0.1,0,0.1,0,0.1C68.7,69.1,70.3,69.8,71.6,71z"/>
			<path class="st8" d="M71.6,71.1c0-0.1,0-0.1,0-0.2C70.4,69.8,68.7,69,67,69c0,0.2,0.1,0.3,0.1,0.5C68.7,69.5,70.3,70.1,71.6,71.1
				z"/>
			<path class="st9" d="M67.2,77.3c0,0.1,0,0.2,0,0.3c0,0.1,0.1,0.1,0.1,0.2L67.2,77.3z"/>
			<path class="st9" d="M67.9,72.2c0.4,0.4,0.5,0.9,0.6,1.6c0,0.1,0.1,0.1,0.1,0.2c0.1,0.1,0.1,0.1,0.2,0.1S68.9,74,69,74
				c0.1-0.1,0.1-0.1,0.1-0.2c-0.1-0.8-0.3-1.5-0.7-1.9c-0.3-0.3-0.6-0.5-1.1-0.5c0,0.2,0,0.3,0.1,0.4C67.4,71.9,67.7,72,67.9,72.2z"
				/>
			<path class="st9" d="M67.2,79.6L67.2,79.6v-0.2C67.2,79.5,67.2,79.6,67.2,79.6z"/>
			<path class="st9" d="M68.2,76.6c-0.2-0.2-0.5-0.4-0.7-0.4c-0.1-0.1-0.2-0.1-0.3-0.1c0,0.2,0,0.3,0,0.5c0.1,0,0.1,0.1,0.1,0.1
				c0.2,0.1,0.4,0.2,0.6,0.4c0.2,0.2,0.4,0.4,0.5,0.6c0.2,0.2,0.2,0.5,0.2,0.9c0,0.1,0,0.2,0,0.3c0.2-0.1,0.3-0.2,0.4-0.3
				c0-0.4-0.1-0.7-0.3-1C68.7,77.1,68.5,76.8,68.2,76.6z"/>
			<path class="st9" d="M67.2,77.7c0-0.1-0.1-0.1-0.1-0.2C67,77.9,67,78.4,67,78.8c0,0.1-0.1,0.5-0.1,0.9c0.1-0.1,0.2-0.2,0.3-0.2
				c0-0.1,0-0.2,0-0.2L67.2,77.7z"/>
			<path class="st6" d="M38.7,58.1c0.1,0.1,0.2,0.1,0.3,0.2l1.2-1.3c-0.2-0.1-0.3-0.2-0.4-0.3c-0.8-0.4-1.7-0.7-2.7-0.8
				c-0.1,0.6-0.2,1.1-0.3,1.7C37.5,57.7,38,57.8,38.7,58.1z"/>
			<path class="st6" d="M39.4,58.5c0.1,0.1,0.3,0.2,0.4,0.2c2.8,1.9,3.9,5.6,2.4,8.8c-1.3,2.8-4.1,4.4-7,4.1c0,0.6-0.1,1.2-0.1,1.8
				c0.2,0,0.4,0.1,0.6,0.1c2.3,0,4.3-0.9,6-2.3c0.4-0.6,0.9-1.1,1.5-1.7c0.9-1.4,1.5-3.1,1.5-4.9c0-3.1-1.6-5.8-4-7.4
				c-0.2-0.1-0.3-0.2-0.4-0.2l-1.2,1.3C39.2,58.4,39.3,58.4,39.4,58.5C39.3,58.5,39.4,58.5,39.4,58.5z"/>
			<path class="st7" d="M36.3,60.6c-0.1,0.3-0.1,0.5-0.2,0.8l0.8-0.8C36.7,60.4,36.5,60.4,36.3,60.6z"/>
			<path class="st7" d="M37.4,60l1.3-1.4c-0.6-0.3-1.3-0.5-1.9-0.5c-0.1,0.6-0.2,1.2-0.3,1.8C36.7,59.9,37.1,60,37.4,60z"/>
			<path class="st7" d="M36,62.8c-0.1,0.4-0.1,0.8-0.2,1.1l1.6-3.4c-0.1-0.1-0.3-0.1-0.4-0.1l-0.8,0.8C36.1,61.9,36.1,62.3,36,62.8z
				"/>
			<path class="st7" d="M35.4,68.6c0.4-0.2,0.8-0.6,1-1.1c0.1-0.3,0.2-0.6,0.2-0.9c-0.1-0.3-0.1-0.5-0.2-0.7
				c-0.1-0.2-0.2-0.4-0.4-0.6c0-0.1-0.1-0.1-0.1-0.2l-0.3,0.7C35.5,66.7,35.4,67.7,35.4,68.6C35.3,68.6,35.4,68.6,35.4,68.6z"/>
			<path class="st7" d="M42.2,67.5c1.5-3.2,0.4-6.8-2.4-8.8c1.8,1.3,2.9,3.3,3,5.4c-0.4-2.3-1.8-4.4-4.1-5.5c-0.1,0-0.1,0-0.1-0.1
				l-1.3,1.4c0.1,0,0.1,0.1,0.2,0.1l0.2-0.4c0.1-0.1,0.2-0.2,0.4-0.1s0.2,0.3,0.2,0.4l-0.2,0.4c0.5,0.3,0.8,0.7,1,1.1
				c0.2,0.6,0.1,1.2-0.3,2c0,0.1-0.1,0.1-0.1,0.1c-0.1,0.1-0.2,0.1-0.2,0c-0.1-0.1-0.2-0.1-0.2-0.2s0-0.1,0-0.2
				c0.3-0.7,0.4-1.2,0.3-1.7c-0.1-0.4-0.3-0.6-0.7-0.8l-1.8,3.9c0.1,0.1,0.2,0.2,0.4,0.4c0.2,0.2,0.3,0.4,0.4,0.7
				c0.1,0.2,0.2,0.6,0.3,0.9c0,0.4-0.1,0.7-0.2,1c-0.2,0.4-0.4,0.6-0.6,0.8c-0.2,0.3-0.4,0.4-0.7,0.6C35.6,69,35.4,69,35.3,69
				c-0.1,0.8-0.1,1.6-0.1,2.5C38.1,71.9,41,70.3,42.2,67.5z"/>
			<path class="st7" d="M39.2,58.4c0.1,0.1,0.1,0.1,0.2,0.1C39.4,58.5,39.3,58.5,39.2,58.4z"/>
			<path class="st8" d="M39,58.3c-0.1-0.1-0.2-0.1-0.3-0.2C38.8,58.1,38.9,58.2,39,58.3L39,58.3z"/>
			<path class="st8" d="M39.4,58.5c0.1,0.1,0.3,0.2,0.4,0.2C39.7,58.7,39.6,58.6,39.4,58.5z"/>
			<path class="st8" d="M39.2,58.4c-0.1-0.1-0.2-0.1-0.3-0.2l0,0C39.1,58.3,39.1,58.4,39.2,58.4z"/>
			<path class="st8" d="M38.6,58.7l0.4-0.4c-0.1-0.1-0.2-0.1-0.3-0.2c-0.6-0.3-1.3-0.5-1.9-0.6c-0.1,0.2-0.1,0.4-0.1,0.6
				C37.4,58.2,38,58.4,38.6,58.7z"/>
			<path class="st8" d="M42.8,64.2c-0.1-2.1-1.2-4.2-3-5.4c-0.1-0.1-0.2-0.2-0.4-0.2c-0.1-0.1-0.1-0.1-0.2-0.1
				c-0.1-0.1-0.2-0.1-0.3-0.2l-0.4,0.4c0.1,0,0.1,0,0.1,0.1C41,59.7,42.5,61.9,42.8,64.2z"/>
			<path class="st9" d="M37,60.5l0.4-0.4C37.1,60,36.8,60,36.5,60c-0.1,0.2-0.1,0.4-0.1,0.6C36.5,60.4,36.7,60.4,37,60.5z"/>
			<path class="st9" d="M36.4,68.5c0.2-0.2,0.4-0.5,0.6-0.8c0.2-0.4,0.2-0.7,0.2-1c-0.1-0.4-0.2-0.7-0.3-0.9
				c-0.1-0.3-0.3-0.5-0.4-0.7c-0.1-0.2-0.2-0.3-0.4-0.4l1.8-3.9c0.4,0.2,0.6,0.5,0.7,0.8c0.1,0.4,0.1,1-0.3,1.7c0,0.1,0,0.1,0,0.2
				s0.1,0.1,0.2,0.2c0.1,0.1,0.1,0.1,0.2,0c0.1,0,0.1-0.1,0.1-0.1c0.4-0.8,0.4-1.4,0.3-2c-0.2-0.5-0.5-0.9-1-1.1l0.2-0.4
				c0.1-0.1,0-0.3-0.2-0.4s-0.4,0-0.4,0.1l-0.2,0.4c-0.1,0-0.1-0.1-0.2-0.1l-0.4,0.4c0.1,0,0.3,0.1,0.4,0.1L35.7,64
				c-0.1,0.6-0.2,1.2-0.2,1.8l0.3-0.7c0.1,0.1,0.1,0.1,0.1,0.2c0.2,0.2,0.3,0.4,0.4,0.6c0.1,0.2,0.2,0.4,0.2,0.7
				c0,0.3-0.1,0.6-0.2,0.9c-0.3,0.6-0.6,1-1,1.1h-0.1c0,0.2,0,0.4-0.1,0.6c0.1-0.1,0.3-0.1,0.4-0.1C36,69,36.2,68.8,36.4,68.5z"/>
			<path class="st6" d="M51.5,54.7c-0.2,0.3-0.4,0.5-0.6,0.7c-0.5,0.7-0.9,1.4-1.3,2.2l1.4,1.5c0.2-0.9,0.6-1.7,1.1-2.4
				c-0.1-0.7-0.3-1.5-0.4-2.2C51.7,54.6,51.6,54.7,51.5,54.7z"/>
			<path class="st6" d="M64.8,59.1c-0.1-0.3-0.3-0.6-0.4-0.8c0.3,0.8,0.5,1.7,0.5,2.7c0,0.1,0,0.1,0,0.2c0.2,0.6,0.5,1.2,0.6,1.8
				c0.2,0.5,0.3,1,0.4,1.5c0.5-1,0.7-2.2,0.7-3.5c0-4.1-2.8-7.5-6.5-8.5c0.6,0.8,1.1,1.7,1.7,2.6C63.3,55.9,64.4,57.4,64.8,59.1z"/>
			<path class="st6" d="M52.3,67.9c0.5,0.2,1,0.5,1.5,0.7c-0.1-0.7-0.1-1.4-0.2-2c-1.7-1.3-2.8-3.3-2.8-5.6c0-0.6,0.1-1.2,0.2-1.8
				l-1.4-1.5c-0.4,1-0.6,2.1-0.6,3.3C49,63.7,50.3,66.2,52.3,67.9z"/>
			<path class="st7" d="M62.4,55.8c1,1.7,1.8,3.4,2.6,5.3c0-0.1,0-0.1,0-0.2c0-0.9-0.2-1.8-0.5-2.7C63.9,57.3,63.2,56.5,62.4,55.8z"
				/>
			<path class="st7" d="M52.9,61.2c-0.2-1.3-0.4-2.6-0.6-3.8c-0.4,0.6-0.8,1.3-1,2L52.9,61.2z"/>
			<path class="st7" d="M51,59.2c0.2-0.9,0.6-1.7,1.1-2.5c0,0,0,0,0-0.1C51.6,57.4,51.2,58.3,51,59.2L51,59.2z"/>
			<path class="st7" d="M53.6,66.6c-0.1-1.3-0.3-2.6-0.5-3.8c-0.1-0.5-0.2-1.1-0.3-1.6l-1.6-1.8c-0.1,0.2-0.1,0.3-0.1,0.4
				c-0.3,1.1-0.2,2.3,0.1,3.4c-0.4-1.2-0.6-2.6-0.2-4c0-0.1,0-0.1,0.1-0.1L51,59c-0.2,0.6-0.2,1.1-0.2,1.8
				C50.8,63.2,51.9,65.3,53.6,66.6z"/>
			<path class="st8" d="M64.4,58.3c0.2,0.3,0.3,0.6,0.4,0.8c-0.5-1.7-1.5-3.1-2.9-4.1c0.1,0.1,0.1,0.1,0.1,0.2
				C63.1,56,63.9,57,64.4,58.3z"/>
			<path class="st8" d="M62,55.2c0.1,0.2,0.3,0.4,0.4,0.6c0.8,0.7,1.6,1.5,2,2.5C63.9,57,63.1,56,62,55.2z"/>
			<path class="st8" d="M52.2,57.4c-0.1-0.2-0.1-0.4-0.1-0.6c-0.5,0.7-0.9,1.5-1.1,2.5l0.2,0.3C51.5,58.7,51.8,58,52.2,57.4z"/>
			<path class="st8" d="M51.2,63.3c-0.3-1.1-0.4-2.2-0.1-3.4c0.1-0.2,0.1-0.3,0.1-0.4L51,59.2c0,0.1,0,0.1-0.1,0.1
				C50.7,60.7,50.8,62.1,51.2,63.3z"/>
			<path class="st6" d="M45,42.2c0.1,0,0.1,0,0.2,0c0.1,0,0.1,0,0.1,0c0.2,0,0.3,0.1,0.4,0.1c1.2,0.2,2.3,0.7,3.3,1.5
				c-0.2-0.4-0.3-0.8-0.4-1.2c0-0.1-0.1-0.2-0.1-0.2c-0.1-0.2-0.2-0.6-0.4-1.1c-0.9-0.4-2-0.7-3.1-0.7C45,41,45,41.7,45,42.2z"/>
			<path class="st6" d="M40.5,42.6C40.3,43,40.2,43.5,40,44c0.9-0.7,1.9-1.3,3.1-1.6c0.3-0.1,0.6-0.1,0.8-0.1c0-0.6,0-1.2-0.1-1.8
				c-0.4,0.1-0.8,0.1-1.2,0.2c-0.6,0.1-1.2,0.3-1.8,0.6c-0.2,0.6-0.4,1-0.4,1.1C40.5,42.4,40.5,42.5,40.5,42.6z"/>
			<path class="st6" d="M39.8,56.7c0.2,0.1,0.3,0.2,0.5,0.3l1.2-1.3c-1.6-0.8-2.9-2.2-3.4-4c-0.2,0.9-0.4,1.8-0.5,2.8
				C38,55.3,38.8,56.1,39.8,56.7z"/>
			<path class="st6" d="M47.8,55.6l1.2,1.3c0.7-0.4,1.4-0.9,1.9-1.5c0.2-0.3,0.4-0.5,0.6-0.7c0.1-0.1,0.2-0.2,0.2-0.3
				c-0.2-0.9-0.3-1.8-0.5-2.6C50.6,53.5,49.4,54.8,47.8,55.6z"/>
			<path class="st6" d="M46.4,57.9c0.9-0.2,1.8-0.6,2.6-1l-1.2-1.3c-0.5,0.3-1.1,0.5-1.7,0.6c-1.7,0.4-3.3,0.1-4.7-0.6l-1.2,1.3
				c0.1,0.1,0.3,0.2,0.4,0.2C42.3,58,44.4,58.4,46.4,57.9z"/>
			<path class="st6" d="M45,42.2c0-0.6,0-1.2,0.1-1.8c-0.4,0-0.7,0-1.1,0c0,0.6,0.1,1.1,0.1,1.8C44.3,42.2,44.7,42.2,45,42.2z"/>
			<path class="st6" d="M39.8,56.7c0.2,0.1,0.3,0.2,0.4,0.3l0,0C40.1,56.8,39.9,56.8,39.8,56.7z"/>
			<path class="st6" d="M40.2,56.9L40.2,56.9c0.1,0.1,0.3,0.2,0.4,0.2C40.4,57.1,40.3,57,40.2,56.9z"/>
			<path class="st6" d="M51.5,54.7c-0.2,0.2-0.4,0.5-0.6,0.7C51.1,55.2,51.3,55,51.5,54.7z"/>
			<path class="st7" d="M49.1,43.8c-0.9-0.8-2.1-1.3-3.3-1.5C47,42.5,48.1,43.1,49.1,43.8L49.1,43.8z"/>
			<path class="st7" d="M43.9,53.7c-0.1-0.1-0.1-0.1-0.1-0.1c-0.5-0.3-0.8-0.9-0.9-1.7c0-0.2,0.1-0.2,0.2-0.3c0.1,0,0.1,0,0.2,0.1
				s0.1,0.1,0.1,0.2c0.1,0.4,0.2,0.8,0.4,1c0.2,0.3,0.4,0.4,0.6,0.6c0.2,0.1,0.4,0.2,0.6,0.2c0.1,0,0.3,0,0.4,0l-0.4-2h-0.4h-0.4
				c0-0.7,0-1.4,0-2.1c-0.1,0-0.2-0.1-0.2-0.1c-0.3-0.1-0.5-0.2-0.8-0.4c-0.3-0.2-0.5-0.4-0.7-0.6c-0.2-0.3-0.3-0.6-0.4-1
				c-0.2-0.7-0.1-1.3,0.2-1.9c0.3-0.5,0.7-0.9,1.3-1l-0.1-0.5c-0.1-0.2,0.1-0.3,0.2-0.4c0.2,0,0.3,0.1,0.4,0.2l0.1,0.5h0.1
				c0-0.6,0-1.2-0.1-1.8c-0.2,0-0.3,0.1-0.5,0.1c-1.6,0.4-2.9,1.2-3.9,2.4c-0.6,1.9-1.1,3.8-1.5,5.8c0,0.1,0,0.1,0.1,0.2
				c0.2,1.1,0.7,2.1,1.5,3.1c-0.7-0.8-1.3-1.7-1.7-2.7v0.1c0.6,1.8,1.9,3.2,3.4,4l0.9-0.9C42.7,54.1,43.3,53.8,43.9,53.7z"/>
			<path class="st7" d="M46.7,52.7c0.2-0.4,0.3-0.9,0.2-1.6c-0.1-0.4-0.2-0.6-0.4-0.8c-0.2-0.2-0.4-0.3-0.6-0.4
				c-0.2-0.1-0.4-0.2-0.7-0.2c-0.1-0.1-0.2-0.1-0.2-0.1l0.8,3.8C46.3,53.2,46.6,53,46.7,52.7z"/>
			<path class="st7" d="M44,44.9L44,44.9L44,44.9z"/>
			<path class="st7" d="M42.5,45.8c-0.2,0.4-0.3,1-0.2,1.6c0.1,0.4,0.2,0.6,0.4,0.8c0.2,0.2,0.4,0.4,0.6,0.5
				c0.2,0.2,0.4,0.2,0.7,0.3c0.1,0,0.1,0.1,0.1,0.1c0-0.4,0-0.7,0-1.1l-0.6-2.9C43,45.1,42.7,45.4,42.5,45.8z"/>
			<path class="st7" d="M45,42.6c0,0.6,0,1.3-0.1,2c0.2,0.1,0.3,0.1,0.5,0.2c0.5,0.4,0.8,0.9,0.9,1.7c0,0.1,0,0.1-0.1,0.2
				s-0.1,0.1-0.2,0.1c-0.1,0-0.2,0-0.2-0.1s-0.1-0.1-0.1-0.2c-0.2-0.6-0.4-1.1-0.8-1.4L44.8,45c0,1.3-0.1,2.6-0.1,4
				c0.2,0.1,0.3,0.1,0.4,0.1c0.3,0.1,0.5,0.2,0.8,0.3c0.3,0.2,0.5,0.3,0.8,0.5c0.2,0.3,0.3,0.6,0.4,1s0.1,0.7,0.1,1
				c-0.1,0.3-0.2,0.6-0.3,0.8c-0.3,0.5-0.7,0.8-1.2,1l0.1,0.2c0.3,0.2,0.6,0.4,0.9,0.7l0.8,0.9c1.6-0.8,2.8-2.2,3.4-3.8
				c-0.6-2.8-1.3-5.3-2.1-7.8C48,43.1,46.5,42.6,45,42.6z"/>
			<path class="st7" d="M45.2,42.3c0.1,0,0.1,0,0.1,0S45.3,42.3,45.2,42.3z"/>
			<path class="st7" d="M46.1,56.3c0.6-0.2,1.1-0.4,1.7-0.6L47,54.8c-0.3-0.3-0.6-0.6-0.9-0.7l0.1,0.4c0.1,0.2-0.1,0.3-0.2,0.4
				c-0.2,0-0.3-0.1-0.4-0.2l-0.1-0.6c-0.6,0.1-1,0-1.5-0.3c-0.6,0.2-1.2,0.5-1.7,1l-0.9,0.9C42.8,56.4,44.4,56.6,46.1,56.3z"/>
			<path class="st7" d="M44.3,49l-0.2-1c0,0.4,0,0.7,0,1.1C44.2,49,44.3,49,44.3,49z"/>
			<path class="st7" d="M44.1,49.5c0,0.7,0,1.4,0,2.1h0.4h0.4l-0.4-2C44.3,49.6,44.2,49.6,44.1,49.5z"/>
			<path class="st7" d="M44,44.9L44,44.9l0.9,4.2H45c0-1.4,0-2.7,0.1-4C44.7,44.9,44.4,44.9,44,44.9z"/>
			<path class="st7" d="M45,44.6c0-0.7,0-1.4,0.1-2c-0.4,0-0.7,0-1,0.1c0,0.6,0,1.2,0.1,1.8C44.4,44.5,44.7,44.5,45,44.6z"/>
			<path class="st8" d="M43.1,42.4c0.3-0.1,0.6-0.1,0.8-0.1l0,0C43.7,42.3,43.4,42.3,43.1,42.4c-1.2,0.2-2.2,0.8-3.1,1.5l0,0
				C40.9,43.2,41.9,42.6,43.1,42.4z"/>
			<path class="st8" d="M45.2,42.3c-0.1,0-0.1,0-0.2,0l0,0C45.1,42.3,45.1,42.3,45.2,42.3z"/>
			<path class="st8" d="M45.4,42.3c0.2,0,0.3,0.1,0.4,0.1C45.6,42.3,45.5,42.3,45.4,42.3z"/>
			<path class="st8" d="M45,42.3C45,42.2,45,42.2,45,42.3c-0.4-0.1-0.7-0.1-1,0l0,0C44.3,42.2,44.7,42.2,45,42.3z"/>
			<path class="st8" d="M45,42.6c1.5,0,2.9,0.5,4.1,1.4c0-0.1-0.1-0.1-0.1-0.2c-0.9-0.8-2.1-1.3-3.3-1.5c-0.2,0-0.3-0.1-0.4-0.1
				c-0.1,0-0.1,0-0.1,0c-0.1,0-0.1,0-0.2,0C45,42.4,45,42.5,45,42.6z"/>
			<path class="st8" d="M43.1,42.4c-1.2,0.3-2.2,0.8-3.1,1.5c-0.2,0.4-0.3,0.8-0.4,1.3c1-1.1,2.3-2,3.9-2.4c0.2-0.1,0.3-0.1,0.5-0.1
				c0-0.2,0-0.3,0-0.5C43.7,42.3,43.4,42.3,43.1,42.4z"/>
			<path class="st8" d="M39.6,54.3c-0.8-0.9-1.3-1.9-1.5-3.1c0-0.1,0-0.1-0.1-0.2c-0.1,0.2-0.1,0.4-0.1,0.5
				C38.3,52.6,38.9,53.6,39.6,54.3z"/>
			<path class="st8" d="M45,42.6c0-0.1,0-0.3,0-0.4c-0.4,0-0.7,0-1,0c0,0.2,0,0.3,0,0.5C44.3,42.6,44.7,42.6,45,42.6z"/>
			<path class="st9" d="M47.2,52.8c0.1-0.3,0.2-0.6,0.3-0.8c0.1-0.4,0-0.7-0.1-1c-0.1-0.4-0.2-0.7-0.4-1c-0.4-0.2-0.6-0.3-0.8-0.5
				c-0.3-0.1-0.5-0.2-0.8-0.3c-0.2-0.1-0.3-0.1-0.4-0.1c0,0.8,0,1.6,0,2.5h-0.1l0.4,2c-0.1,0-0.3,0-0.4,0c-0.2,0-0.4-0.1-0.6-0.2
				s-0.4-0.3-0.6-0.6c-0.2-0.2-0.4-0.6-0.4-1c0-0.1-0.1-0.1-0.1-0.2s-0.1-0.1-0.2-0.1c-0.2,0.1-0.2,0.1-0.2,0.3
				c0.2,0.8,0.5,1.4,0.9,1.7c0.1,0.1,0.1,0.1,0.1,0.1c0.7-0.2,1.4-0.1,2.1,0.3l-0.1-0.2C46.6,53.6,46.9,53.3,47.2,52.8z M45,49.6
				c0.1,0,0.1,0,0.2,0.1c0.2,0.1,0.4,0.1,0.7,0.2c0.2,0.1,0.4,0.3,0.6,0.4c0.2,0.2,0.4,0.5,0.4,0.8c0.1,0.6,0,1.1-0.2,1.6
				c-0.2,0.4-0.4,0.6-0.8,0.7L45,49.6z"/>
			<path class="st9" d="M45,45.2c0.4,0.3,0.7,0.8,0.8,1.5c0,0.1,0.1,0.1,0.1,0.2S46,47,46.1,47c0.1,0,0.1-0.1,0.2-0.1
				s0.1-0.1,0.1-0.2c-0.2-0.8-0.5-1.4-0.9-1.7c-0.2-0.1-0.3-0.2-0.5-0.2C45,45,45,45.2,45,45.2C45,45.1,45,45.1,45,45.2z"/>
			<path class="st9" d="M43.9,49c-0.2-0.1-0.4-0.1-0.7-0.3c-0.2-0.1-0.4-0.3-0.6-0.5c-0.2-0.2-0.3-0.5-0.4-0.8
				c-0.1-0.6-0.1-1.1,0.2-1.6c0.2-0.4,0.5-0.7,0.9-0.8l0.6,2.9c0-1,0-2-0.1-3l0,0l0,0c0-0.2,0-0.3,0-0.4h-0.1L43.6,44
				c-0.1-0.2-0.2-0.2-0.4-0.2C43,43.9,42.9,44,43,44.2l0.1,0.5c-0.6,0.2-1,0.6-1.3,1c-0.3,0.6-0.4,1.1-0.2,1.9
				c0.1,0.4,0.2,0.7,0.4,1c0.2,0.2,0.4,0.4,0.7,0.6s0.5,0.2,0.8,0.4c0.1,0,0.2,0.1,0.2,0.1c0-0.2,0-0.4,0-0.5C44,49,44,49,43.9,49z"
				/>
			<path class="st9" d="M43.9,53.7c0.4,0.3,0.9,0.4,1.5,0.3l0.1,0.6c0.1,0.2,0.2,0.2,0.4,0.2c0.2-0.1,0.3-0.2,0.2-0.4L46,54
				C45.4,53.6,44.6,53.5,43.9,53.7z"/>
			<path class="st9" d="M44.9,49.2L44.9,49.2L44,45c0,0.9,0,1.9,0.1,3l0.2,1c-0.1,0.1-0.1,0.1-0.2,0.1c0,0.2,0,0.4,0,0.5
				c0.2,0.1,0.3,0.1,0.4,0.1l0.4,2H45C44.9,50.8,44.9,50,44.9,49.2z"/>
			<path class="st9" d="M45,45.1c0-0.2,0-0.4,0-0.5c-0.3-0.1-0.6-0.2-1-0.1c0,0.2,0,0.3,0,0.4C44.4,44.9,44.7,44.9,45,45.1z"/>
			<path class="st6" d="M48.6,84.9h0.9c0.2,0,0.3,0,0.4,0h-1.8C48.3,84.9,48.4,84.9,48.6,84.9z"/>
			<path class="st6" d="M49.1,84.9c0.2,0,0.3,0,0.5,0h-0.9C48.8,84.9,48.9,84.9,49.1,84.9z"/>
			<path class="st6" d="M53.6,83c0.1-0.5,0.1-1,0.2-1.5C53,82.2,52,82.8,50.9,83H53.6z"/>
			<path class="st6" d="M43.5,83h3.8c-3.9-1-6.1-4.9-5.2-8.6c1-3.9,4.9-6.1,8.6-5.2c0.1,0,0.1,0.1,0.2,0.1c1.1,0.3,2.1,0.9,3,1.6
				c-0.1-0.7-0.1-1.4-0.1-2c-0.5-0.3-1-0.6-1.5-0.9c-1-0.4-2.1-0.6-3.2-0.6c-2.3,0-4.3,0.9-6,2.3c-0.4,0.6-0.9,1.1-1.5,1.7
				c-0.9,1.4-1.5,3.1-1.5,4.9C40.2,78.9,41.5,81.4,43.5,83z"/>
			<path class="st6" d="M48,84.8c0.1,0,0.1,0,0.2,0H50c0.1,0,0.1,0,0.2,0H48z"/>
			<path class="st6" d="M43.1,69.5c-0.5,0.5-1,1-1.5,1.7C42.2,70.7,42.7,70.1,43.1,69.5z"/>
			<path class="st6" d="M53.8,68.8c0-0.1,0-0.2,0-0.2c-0.5-0.3-0.9-0.5-1.5-0.7C52.8,68.2,53.2,68.5,53.8,68.8z"/>
			<path class="st7" d="M48.4,80.4c0.4,0,0.7-0.1,1-0.3c0.4-0.3,0.7-0.7,0.9-1.4c0.1-0.3,0.1-0.6,0-0.9c-0.1-0.2-0.2-0.5-0.4-0.7
				c-0.2-0.2-0.3-0.4-0.5-0.5c-0.1-0.1-0.1-0.1-0.2-0.1L48.4,80.4z"/>
			<path class="st7" d="M53.9,71.3c-0.8-0.7-1.8-1.3-2.9-1.5c-3.8-0.9-7.7,1.4-8.6,5.2c-0.4,1.1-0.4,2.3,0,3.4
				c-0.4-1.2-0.5-2.6-0.2-4c1-3.9,4.9-6.1,8.6-5.2h0.1c-0.1,0-0.1-0.1-0.2-0.1c-3.8-0.9-7.6,1.3-8.6,5.2c-0.9,3.8,1.3,7.6,5.2,8.6
				h3.4c1.1-0.3,2.1-0.8,2.9-1.5c0.1-1.3,0.2-2.4,0.2-2.7C54,76.4,54,73.8,53.9,71.3z M51.9,74.5c0,0.1-0.1,0.1-0.1,0.1
				c-0.1,0-0.2,0-0.2,0c-0.1,0-0.1-0.1-0.2-0.1s-0.1-0.1-0.1-0.2c0.2-0.7,0.2-1.3-0.1-1.7c-0.2-0.3-0.4-0.5-0.8-0.7l-1,4.2
				c0.1,0.1,0.2,0.2,0.4,0.3c0.2,0.2,0.4,0.4,0.6,0.6c0.2,0.3,0.3,0.5,0.5,1c0.1,0.3,0.1,0.7,0,1.1c-0.1,0.3-0.2,0.6-0.4,0.9
				c-0.2,0.3-0.4,0.5-0.6,0.7c-0.4,0.3-1,0.4-1.5,0.4l-0.2,0.6c0,0.1-0.2,0.2-0.4,0.2c-0.2-0.1-0.3-0.2-0.2-0.4l0.1-0.6
				c-0.7-0.2-1.1-0.6-1.3-1c-0.3-0.5-0.4-1.1-0.1-2c0.1-0.2,0.2-0.2,0.4-0.2c0.1,0,0.1,0.1,0.2,0.1C47,77.9,47,77.9,47,78
				c-0.1,0.4-0.2,0.8-0.1,1.1c0.1,0.3,0.2,0.5,0.3,0.7c0.1,0.2,0.3,0.3,0.5,0.4c0.1,0.1,0.2,0.1,0.4,0.2l1-4
				c-0.1-0.1-0.3-0.2-0.5-0.4c-0.2-0.2-0.4-0.4-0.6-0.6c-0.2-0.3-0.3-0.5-0.4-0.8s-0.1-0.7,0-1.1c0.2-0.7,0.5-1.2,1-1.6
				s1-0.5,1.7-0.4l0.1-0.5c0-0.1,0.2-0.2,0.4-0.2c0.2,0.1,0.3,0.2,0.2,0.4l-0.1,0.5c0.6,0.2,1,0.5,1.2,0.9
				C52.1,73,52.1,73.7,51.9,74.5z"/>
			<path class="st7" d="M48.6,72.1c-0.4,0.4-0.7,0.8-0.8,1.4c-0.1,0.3-0.1,0.6,0,0.9s0.2,0.5,0.4,0.7c0.2,0.2,0.3,0.3,0.5,0.5
				c0.1,0.1,0.2,0.2,0.2,0.3l1-4C49.4,71.7,49,71.8,48.6,72.1z"/>
			<path class="st8" d="M53.9,70.9C53.9,70.9,53.9,70.8,53.9,70.9c-0.8-0.8-1.8-1.4-3-1.7C52,69.5,53.1,70.1,53.9,70.9z"/>
			<path class="st8" d="M42.2,74.4c-0.4,1.4-0.3,2.7,0.2,4c-0.4-1.1-0.4-2.2,0-3.4c0.9-3.8,4.8-6.1,8.6-5.2c1.1,0.3,2.1,0.8,2.9,1.5
				c0-0.1,0-0.3,0-0.4c-0.8-0.8-1.8-1.4-3-1.7h-0.1C47,68.3,43.2,70.5,42.2,74.4z"/>
			<path class="st9" d="M50.6,71.6l0.1-0.5c0.1-0.2-0.1-0.3-0.2-0.4c-0.2-0.1-0.4,0.1-0.4,0.2L50,71.4c-0.6-0.1-1.1,0-1.7,0.4
				c-0.5,0.4-0.8,0.9-1,1.6c-0.1,0.4-0.1,0.8,0,1.1s0.2,0.6,0.4,0.8s0.4,0.4,0.6,0.6s0.4,0.3,0.5,0.4l-1,4c-0.1-0.1-0.2-0.1-0.4-0.2
				c-0.2-0.1-0.4-0.2-0.5-0.4c-0.1-0.2-0.2-0.4-0.3-0.7c-0.1-0.3,0-0.7,0.1-1.1c0-0.1,0-0.1-0.1-0.2s-0.1-0.1-0.2-0.1
				c-0.2-0.1-0.3,0-0.4,0.2c-0.2,0.8-0.2,1.5,0.1,2c0.2,0.4,0.7,0.8,1.3,1l-0.1,0.6c-0.1,0.2,0.1,0.3,0.2,0.4
				c0.2,0.1,0.4-0.1,0.4-0.2l0.2-0.6c0.6,0.1,1.1-0.1,1.5-0.4c0.2-0.2,0.4-0.4,0.6-0.7c0.2-0.3,0.3-0.6,0.4-0.9
				c0.1-0.4,0.1-0.8,0-1.1c-0.2-0.5-0.3-0.7-0.5-1c-0.2-0.2-0.4-0.4-0.6-0.6c-0.2-0.1-0.3-0.2-0.4-0.3l1-4.2
				c0.4,0.2,0.7,0.4,0.8,0.7c0.2,0.4,0.2,1,0.1,1.7c0,0.1,0,0.1,0.1,0.2s0.1,0.1,0.2,0.1s0.2,0,0.2,0c0.1-0.1,0.1-0.1,0.1-0.1
				c0.2-0.8,0.2-1.5-0.1-2C51.6,72.1,51.2,71.7,50.6,71.6z M49.5,76.8c0.2,0.1,0.4,0.3,0.5,0.5c0.2,0.2,0.3,0.4,0.4,0.7
				c0.1,0.3,0.1,0.6,0,0.9c-0.2,0.6-0.5,1-0.9,1.4c-0.4,0.2-0.7,0.3-1,0.3l0.9-3.8C49.4,76.7,49.4,76.7,49.5,76.8z M48.9,75.7
				c-0.1-0.1-0.1-0.1-0.2-0.3c-0.2-0.2-0.4-0.4-0.5-0.5c-0.2-0.2-0.2-0.4-0.4-0.7c-0.1-0.3-0.1-0.6,0-0.9c0.2-0.6,0.4-1,0.8-1.4
				c0.4-0.3,0.8-0.4,1.2-0.3L48.9,75.7z"/>
			<path class="st6" d="M45.3,28.3c-0.4-5,3.1-13.2,3.3-14c0-0.1,0,0,0-0.1c1.3-3.4,2.2-6.8,3.1-10.7c-2.3-0.4-4.6-0.6-7.1-0.6
				c-2.4,0-4.8,0.2-7.1,0.6c0.8,3.9,1.8,7.4,3.1,10.8l0,0l0,0c0.3,0.9,3.7,9.1,3.3,14l0,0L45.3,28.3C45.3,28.3,45.3,28.3,45.3,28.3z
				"/>
			<path class="st6" d="M36.5,14.2c-0.1-0.1-0.1-0.2-0.2-0.2c-2-2.7-4.3-5.5-6.5-8.5c-0.8,0.3-1.5,0.6-2.3,0.9
				c2.2,2.6,4.6,5.1,6.8,7.5c0.1,0.1,0.2,0.2,0.2,0.2c0.6,0.7,6.2,6.2,7.9,10.9c0.3,0.7,0.6,1.3,0.7,1.9C42.8,22.1,37,15,36.5,14.2z
				"/>
			<path class="st6" d="M54.7,14.1c2.3-2.5,4.7-4.9,6.9-7.6c-0.8-0.4-1.5-0.7-2.3-0.9c-2.1,3-4.5,5.7-6.5,8.5
				c-0.1,0.1-0.1,0.2-0.2,0.2c-0.5,0.8-6.1,7.5-6.7,12.5c0.3-0.8,0.7-1.7,1.2-2.6c2.1-4.4,6.9-9.2,7.5-9.9
				C54.6,14.2,54.7,14.1,54.7,14.1z"/>
			<path class="st0" d="M17.8,68.6c0.4-2,0.9-4,1.6-5.8c3.2-8.2,9.3-14.3,14.9-20.2c0.1-0.1,0.1-0.2,0.2-0.2c0.7-0.9,9.1-9.1,8.4-14
				c0.2-0.9-0.1-2-0.5-3.1c-2.3-4.7-8.4-10.2-9-10.9c-0.1-0.1-0.2-0.2-0.2-0.2c-2.3-2.2-4.8-4.5-7-6.9c-0.2,0.1-0.3,0.2-0.5,0.3
				c2.3,2.3,4.8,4.4,7,6.6c0.1,0.1,0.2,0.2,0.2,0.2c0.8,0.9,10.5,9.1,9.6,14c0.9,5-8.8,13.2-9.6,14c-0.1,0.1-0.2,0.2-0.2,0.2
				c-6.4,6.1-13.5,12.1-17.2,20.3c-1.3,2.9-2.1,6.1-2.3,9.3c0.3,0.4,0.7,0.7,1,1.1C14.9,71.3,16.2,69.7,17.8,68.6z"/>
			<path class="st10" d="M17.8,68.6c0.4-2,0.9-4,1.6-5.8c3.2-8.2,9.3-14.3,14.9-20.2c0.1-0.1,0.1-0.2,0.2-0.2
				c0.7-0.9,9.1-9.1,8.4-14c0.2-0.9-0.1-2-0.5-3.1c-2.3-4.7-8.4-10.2-9-10.9c-0.1-0.1-0.2-0.2-0.2-0.2c-2.3-2.2-4.8-4.5-7-6.9
				c-0.2,0.1-0.3,0.2-0.5,0.3c2.3,2.3,4.8,4.4,7,6.6c0.1,0.1,0.2,0.2,0.2,0.2c0.8,0.9,10.5,9.1,9.6,14c0.9,5-8.8,13.2-9.6,14
				c-0.1,0.1-0.2,0.2-0.2,0.2c-6.4,6.1-13.5,12.1-17.2,20.3c-1.3,2.9-2.1,6.1-2.3,9.3c0.3,0.4,0.7,0.7,1,1.1
				C14.9,71.3,16.2,69.7,17.8,68.6z"/>
			<path class="st6" d="M15.6,74.7c0.1-0.3,0.1-0.5,0.2-0.7c0.4-1.1,0.9-2,1.7-2.8c0.1-0.8,0.2-1.7,0.3-2.5c-1.7,1.1-3,2.7-3.6,4.6
				C14.7,73.8,15.2,74.2,15.6,74.7z"/>
			<path class="st10" d="M15.6,74.7c0.1-0.3,0.1-0.5,0.2-0.7c0.4-1.1,0.9-2,1.7-2.8c0.1-0.8,0.2-1.7,0.3-2.5c-1.7,1.1-3,2.7-3.6,4.6
				C14.7,73.8,15.2,74.2,15.6,74.7z"/>
			<path class="st7" d="M17.5,71.2L17.5,71.2c-0.7,0.8-1.4,1.7-1.7,2.8c-0.1,0.3-0.2,0.5-0.2,0.7c0,0,0,0,0.1,0.1
				C15.9,73.3,16.6,72.1,17.5,71.2z"/>
			<path class="st10" d="M17.5,71.2L17.5,71.2c-0.7,0.8-1.4,1.7-1.7,2.8c-0.1,0.3-0.2,0.5-0.2,0.7c0,0,0,0,0.1,0.1
				C15.9,73.3,16.6,72.1,17.5,71.2z"/>
			<path class="st7" d="M17.4,72.1c-0.7,0.8-1.1,1.9-1.4,3c0.4,0.4,0.9,0.8,1.4,1.2C17.3,74.9,17.4,73.6,17.4,72.1z"/>
			<path class="st10" d="M17.4,72.1c-0.7,0.8-1.1,1.9-1.4,3c0.4,0.4,0.9,0.8,1.4,1.2C17.3,74.9,17.4,73.6,17.4,72.1z"/>
			<path class="st8" d="M17.5,71.2c-0.9,1-1.6,2.2-1.8,3.6c0.2,0.1,0.3,0.3,0.4,0.4c0.2-1.1,0.7-2.1,1.4-3
				C17.5,71.8,17.5,71.5,17.5,71.2z"/>
			<path class="st10" d="M17.5,71.2c-0.9,1-1.6,2.2-1.8,3.6c0.2,0.1,0.3,0.3,0.4,0.4c0.2-1.1,0.7-2.1,1.4-3
				C17.5,71.8,17.5,71.5,17.5,71.2z"/>
			<path class="st6" d="M34.4,14c-2.3-2.5-4.6-4.9-6.8-7.5c-0.5,0.2-0.9,0.4-1.4,0.6c2.3,2.3,4.7,4.6,7,6.9c0.1,0.1,0.2,0.2,0.2,0.2
				c0.6,0.7,6.7,6.2,9,10.9c-1.7-4.7-7.3-10.2-7.9-10.9C34.5,14.2,34.5,14.1,34.4,14z"/>
			<path class="st10" d="M34.4,14c-2.3-2.5-4.6-4.9-6.8-7.5c-0.5,0.2-0.9,0.4-1.4,0.6c2.3,2.3,4.7,4.6,7,6.9
				c0.1,0.1,0.2,0.2,0.2,0.2c0.6,0.7,6.7,6.2,9,10.9c-1.7-4.7-7.3-10.2-7.9-10.9C34.5,14.2,34.5,14.1,34.4,14z"/>
			<path class="st0" d="M55.8,14c-0.1,0.1-0.2,0.2-0.2,0.2c-0.6,0.7-5.8,5.4-8.5,9.9c-0.7,1.5-1.1,3-0.9,4.2c-0.8,5,7.6,13.2,8.4,14
				c0.1,0.1,0.1,0.2,0.2,0.2c5.6,6,11.7,12,14.9,20.2c0.7,1.8,1.2,3.7,1.6,5.6c1.8,1,3.1,2.7,3.8,4.6c0.3-0.3,0.6-0.6,0.8-0.9
				c-0.3-3.2-1-6.4-2.3-9.3c-3.8-8.2-10.8-14.3-17.2-20.2c-0.1-0.1-0.2-0.2-0.2-0.2c-0.8-0.9-10.5-9.1-9.6-14
				c-0.9-5,8.8-13.2,9.6-14c0.1-0.1,0.2-0.2,0.2-0.2c2.3-2.2,4.8-4.4,7.1-6.7c-0.2-0.1-0.4-0.2-0.6-0.3C60.6,9.5,58.1,11.8,55.8,14z
				"/>
			<path class="st11" d="M55.8,14c-0.1,0.1-0.2,0.2-0.2,0.2c-0.6,0.7-5.8,5.4-8.5,9.9c-0.7,1.5-1.1,3-0.9,4.2
				c-0.8,5,7.6,13.2,8.4,14c0.1,0.1,0.1,0.2,0.2,0.2c5.6,6,11.7,12,14.9,20.2c0.7,1.8,1.2,3.7,1.6,5.6c1.8,1,3.1,2.7,3.8,4.6
				c0.3-0.3,0.6-0.6,0.8-0.9c-0.3-3.2-1-6.4-2.3-9.3c-3.8-8.2-10.8-14.3-17.2-20.2c-0.1-0.1-0.2-0.2-0.2-0.2
				c-0.8-0.9-10.5-9.1-9.6-14c-0.9-5,8.8-13.2,9.6-14c0.1-0.1,0.2-0.2,0.2-0.2c2.3-2.2,4.8-4.4,7.1-6.7c-0.2-0.1-0.4-0.2-0.6-0.3
				C60.6,9.5,58.1,11.8,55.8,14z"/>
			<path class="st6" d="M72.9,72.5c-0.2-0.3-0.4-0.5-0.6-0.7c0.6,0.8,1.1,1.8,1.3,2.8c0.5-0.5,1-0.9,1.4-1.5
				c-0.7-1.9-2.1-3.6-3.8-4.6c0.2,0.8,0.3,1.6,0.3,2.3C72.1,71.3,72.5,71.9,72.9,72.5z"/>
			<path class="st11" d="M72.9,72.5c-0.2-0.3-0.4-0.5-0.6-0.7c0.6,0.8,1.1,1.8,1.3,2.8c0.5-0.5,1-0.9,1.4-1.5
				c-0.7-1.9-2.1-3.6-3.8-4.6c0.2,0.8,0.3,1.6,0.3,2.3C72.1,71.3,72.5,71.9,72.9,72.5z"/>
			<path class="st7" d="M71.6,71.1c0.2,1.7,0.2,3.4,0.1,5.2c0.7-0.6,1.3-1.1,1.9-1.7c-0.2-1-0.7-2-1.3-2.8
				C72,71.5,71.8,71.3,71.6,71.1z"/>
			<path class="st11" d="M71.6,71.1c0.2,1.7,0.2,3.4,0.1,5.2c0.7-0.6,1.3-1.1,1.9-1.7c-0.2-1-0.7-2-1.3-2.8
				C72,71.5,71.8,71.3,71.6,71.1z"/>
			<path class="st8" d="M72.3,71.8c0.2,0.2,0.4,0.5,0.6,0.7c-0.4-0.6-0.8-1.1-1.4-1.6c0,0.1,0,0.1,0,0.2
				C71.8,71.2,72,71.5,72.3,71.8z"/>
			<path class="st11" d="M72.3,71.8c0.2,0.2,0.4,0.5,0.6,0.7c-0.4-0.6-0.8-1.1-1.4-1.6c0,0.1,0,0.1,0,0.2
				C71.8,71.2,72,71.5,72.3,71.8z"/>
			<path class="st8" d="M71.6,71c0,0.1,0,0.1,0,0.2c0.3,0.2,0.5,0.4,0.7,0.6C72,71.5,71.8,71.2,71.6,71z"/>
			<path class="st11" d="M71.6,71c0,0.1,0,0.1,0,0.2c0.3,0.2,0.5,0.4,0.7,0.6C72,71.5,71.8,71.2,71.6,71z"/>
			<path class="st6" d="M54.7,14.1c-0.1,0.1-0.1,0.2-0.2,0.2C54,15,49.1,19.7,47,24.2c2.7-4.5,7.9-9.2,8.5-9.9
				c0.1-0.1,0.2-0.2,0.2-0.2c2.3-2.2,4.8-4.5,7.1-6.9C62.4,7,62,6.8,61.5,6.6C59.4,9.2,57,11.6,54.7,14.1z"/>
			<path class="st11" d="M54.7,14.1c-0.1,0.1-0.1,0.2-0.2,0.2C54,15,49.1,19.7,47,24.2c2.7-4.5,7.9-9.2,8.5-9.9
				c0.1-0.1,0.2-0.2,0.2-0.2c2.3-2.2,4.8-4.5,7.1-6.9C62.4,7,62,6.8,61.5,6.6C59.4,9.2,57,11.6,54.7,14.1z"/>
			<path class="st0" d="M28.3,69.3c-0.9-1.4-1.4-3-1.4-4.7c0-4.9,4-8.9,8.9-8.9c0.5,0,0.9,0.1,1.4,0.1c0.1-0.5,0.2-1,0.3-1.5
				c-0.7-0.9-1.2-2-1.5-3.3c-0.9-4.2,1.3-8.2,5-9.9c0.7-1.9,2.1-5.8,2.7-9.3c-0.1-2.2-0.2-3.4-0.2-3.4h0.4v-0.1h-0.4
				c0-0.4-0.1-0.8-0.2-1.3c0.1,0.4,0.1,0.8,0,1.2c0.7,5-6.2,13.2-6.8,14c-0.1,0.1-0.1,0.2-0.2,0.2c-4.5,6-10.2,12-12.8,20.2
				c-0.4,1.4-0.8,2.9-1,4.4c0.1,0,0.1,0,0.2,0C24.8,67.2,26.8,68,28.3,69.3z"/>
			<path class="st11" d="M28.3,69.3c-0.9-1.4-1.4-3-1.4-4.7c0-4.9,4-8.9,8.9-8.9c0.5,0,0.9,0.1,1.4,0.1c0.1-0.5,0.2-1,0.3-1.5
				c-0.7-0.9-1.2-2-1.5-3.3c-0.9-4.2,1.3-8.2,5-9.9c0.7-1.9,2.1-5.8,2.7-9.3c-0.1-2.2-0.2-3.4-0.2-3.4h0.4v-0.1h-0.4
				c0-0.4-0.1-0.8-0.2-1.3c0.1,0.4,0.1,0.8,0,1.2c0.7,5-6.2,13.2-6.8,14c-0.1,0.1-0.1,0.2-0.2,0.2c-4.5,6-10.2,12-12.8,20.2
				c-0.4,1.4-0.8,2.9-1,4.4c0.1,0,0.1,0,0.2,0C24.8,67.2,26.8,68,28.3,69.3z"/>
			<path class="st5" d="M35.3,78.8c-0.1-1.8-0.1-3.6-0.1-5.4c-1.9-0.2-3.7-0.9-5.1-2c0.9,1.4,1.4,3,1.4,4.7c0,2.8-1.3,5.3-3.3,6.9
				h7.4C35.4,81.3,35.3,79.1,35.3,78.8z"/>
			<path class="st11" d="M35.3,78.8c-0.1-1.8-0.1-3.6-0.1-5.4c-1.9-0.2-3.7-0.9-5.1-2c0.9,1.4,1.4,3,1.4,4.7c0,2.8-1.3,5.3-3.3,6.9
				h7.4C35.4,81.3,35.3,79.1,35.3,78.8z"/>
			<path class="st6" d="M43.9,28.4h-0.4c0,0,0.1,1.3,0.2,3.4C43.8,30.6,43.9,29.4,43.9,28.4z"/>
			<path class="st11" d="M43.9,28.4h-0.4c0,0,0.1,1.3,0.2,3.4C43.8,30.6,43.9,29.4,43.9,28.4z"/>
			<path class="st6" d="M27.5,70.9l1.1-1.2c-0.1-0.2-0.2-0.3-0.3-0.4c-1.5-1.3-3.5-2.1-5.7-2.1c-0.1,0-0.1,0-0.2,0
				c-0.1,0.6-0.2,1.2-0.3,1.8C24.2,68.9,26.1,69.6,27.5,70.9z"/>
			<path class="st11" d="M27.5,70.9l1.1-1.2c-0.1-0.2-0.2-0.3-0.3-0.4c-1.5-1.3-3.5-2.1-5.7-2.1c-0.1,0-0.1,0-0.2,0
				c-0.1,0.6-0.2,1.2-0.3,1.8C24.2,68.9,26.1,69.6,27.5,70.9z"/>
			<path class="st6" d="M28.2,71.7c-0.1-0.1-0.3-0.3-0.4-0.4c1.7,1.8,2.3,4.4,1.5,6.9c-0.5,1.7-1.7,3-3,3.9c0.6,0.3,1.2,0.6,1.8,0.8
				l0,0c2-1.6,3.3-4.1,3.3-6.9c0-1.7-0.5-3.3-1.4-4.7c-0.6-0.5-1.1-1-1.5-1.6l-1.1,1.2C27.7,71.2,28,71.4,28.2,71.7z"/>
			<path class="st11" d="M28.2,71.7c-0.1-0.1-0.3-0.3-0.4-0.4c1.7,1.8,2.3,4.4,1.5,6.9c-0.5,1.7-1.7,3-3,3.9
				c0.6,0.3,1.2,0.6,1.8,0.8l0,0c2-1.6,3.3-4.1,3.3-6.9c0-1.7-0.5-3.3-1.4-4.7c-0.6-0.5-1.1-1-1.5-1.6l-1.1,1.2
				C27.7,71.2,28,71.4,28.2,71.7z"/>
			<path class="st7" d="M22,70.7l0.1,0.5c0.6-0.1,1.1,0.1,1.5,0.4c0.5,0.3,0.8,0.9,0.9,1.7c0,0.1,0,0.1-0.1,0.2s-0.1,0.1-0.2,0.1
				c-0.1,0-0.2,0-0.2-0.1s-0.1-0.1-0.1-0.2c-0.2-0.7-0.4-1.2-0.8-1.5c-0.3-0.2-0.6-0.3-1-0.3l0.8,4.2c0,0,0,0,0.1,0l4.4-4.9
				c-1.5-1.1-3.3-1.7-5.3-1.5C22,69.7,22,70,22,70.4C22,70.6,22,70.7,22,70.7z"/>
			<path class="st11" d="M22,70.7l0.1,0.5c0.6-0.1,1.1,0.1,1.5,0.4c0.5,0.3,0.8,0.9,0.9,1.7c0,0.1,0,0.1-0.1,0.2s-0.1,0.1-0.2,0.1
				c-0.1,0-0.2,0-0.2-0.1s-0.1-0.1-0.1-0.2c-0.2-0.7-0.4-1.2-0.8-1.5c-0.3-0.2-0.6-0.3-1-0.3l0.8,4.2c0,0,0,0,0.1,0l4.4-4.9
				c-1.5-1.1-3.3-1.7-5.3-1.5C22,69.7,22,70,22,70.4C22,70.6,22,70.7,22,70.7z"/>
			<path class="st7" d="M21.8,75.7c0.1,0,0.1,0.1,0.2,0.1c0.1,0.1,0.3,0.1,0.4,0.1L21.8,73C21.8,73.8,21.8,74.8,21.8,75.7z"/>
			<path class="st11" d="M21.8,75.7c0.1,0,0.1,0.1,0.2,0.1c0.1,0.1,0.3,0.1,0.4,0.1L21.8,73C21.8,73.8,21.8,74.8,21.8,75.7z"/>
			<path class="st7" d="M22.5,76.3c-0.2,0-0.4-0.1-0.6-0.1h-0.1c0,0.6,0.1,1.2,0.1,1.8c0.1-0.5,0.3-1,0.6-1.5V76.3z"/>
			<path class="st11" d="M22.5,76.3c-0.2,0-0.4-0.1-0.6-0.1h-0.1c0,0.6,0.1,1.2,0.1,1.8c0.1-0.5,0.3-1,0.6-1.5V76.3z"/>
			<path class="st7" d="M22.1,79.8c0.3,0.2,0.6,0.4,0.9,0.6c0.1,0,0.2,0,0.3,0l-0.7-3.9c-0.3,0.4-0.5,0.9-0.6,1.5
				c0,0.3,0.1,0.6,0.1,0.8C22,78.9,22.1,79.3,22.1,79.8z"/>
			<path class="st11" d="M22.1,79.8c0.3,0.2,0.6,0.4,0.9,0.6c0.1,0,0.2,0,0.3,0l-0.7-3.9c-0.3,0.4-0.5,0.9-0.6,1.5
				c0,0.3,0.1,0.6,0.1,0.8C22,78.9,22.1,79.3,22.1,79.8z"/>
			<path class="st7" d="M24.6,79.6c0.3-0.4,0.4-0.9,0.2-1.6c-0.1-0.4-0.2-0.6-0.4-0.8c-0.2-0.2-0.4-0.4-0.6-0.5
				c-0.2-0.1-0.4-0.2-0.7-0.2c-0.1,0-0.2-0.1-0.2-0.1l0.7,3.8C24.1,80.1,24.4,79.9,24.6,79.6z"/>
			<path class="st11" d="M24.6,79.6c0.3-0.4,0.4-0.9,0.2-1.6c-0.1-0.4-0.2-0.6-0.4-0.8c-0.2-0.2-0.4-0.4-0.6-0.5
				c-0.2-0.1-0.4-0.2-0.7-0.2c-0.1,0-0.2-0.1-0.2-0.1l0.7,3.8C24.1,80.1,24.4,79.9,24.6,79.6z"/>
			<path class="st7" d="M29.3,78.3c0.8-2.5,0.1-5.1-1.5-6.9c-0.1-0.1-0.3-0.2-0.4-0.3L23,76c0.1,0.1,0.3,0.1,0.4,0.1
				c0.3,0.1,0.5,0.2,0.8,0.4c0.3,0.2,0.5,0.4,0.8,0.6c0.2,0.3,0.4,0.6,0.4,1c0.1,0.4,0.1,0.7,0,1s-0.1,0.6-0.3,0.8
				c-0.2,0.5-0.7,0.8-1.2,0.9l0.1,0.3c0.7,0.4,1.5,0.8,2.3,1.2C27.7,81.3,28.8,79.9,29.3,78.3z"/>
			<path class="st11" d="M29.3,78.3c0.8-2.5,0.1-5.1-1.5-6.9c-0.1-0.1-0.3-0.2-0.4-0.3L23,76c0.1,0.1,0.3,0.1,0.4,0.1
				c0.3,0.1,0.5,0.2,0.8,0.4c0.3,0.2,0.5,0.4,0.8,0.6c0.2,0.3,0.4,0.6,0.4,1c0.1,0.4,0.1,0.7,0,1s-0.1,0.6-0.3,0.8
				c-0.2,0.5-0.7,0.8-1.2,0.9l0.1,0.3c0.7,0.4,1.5,0.8,2.3,1.2C27.7,81.3,28.8,79.9,29.3,78.3z"/>
			<path class="st8" d="M24.7,69.4c1,0.3,2,0.9,2.7,1.6l0.1-0.1c-1.4-1.4-3.3-2-5.3-1.9l0,0C23,69,23.9,69.1,24.7,69.4z"/>
			<path class="st11" d="M24.7,69.4c1,0.3,2,0.9,2.7,1.6l0.1-0.1c-1.4-1.4-3.3-2-5.3-1.9l0,0C23,69,23.9,69.1,24.7,69.4z"/>
			<path class="st8" d="M27.8,71.4c0.1,0.1,0.3,0.3,0.4,0.4c-0.2-0.3-0.5-0.5-0.7-0.8l-0.1,0.1C27.6,71.1,27.7,71.2,27.8,71.4z"/>
			<path class="st11" d="M27.8,71.4c0.1,0.1,0.3,0.3,0.4,0.4c-0.2-0.3-0.5-0.5-0.7-0.8l-0.1,0.1C27.6,71.1,27.7,71.2,27.8,71.4z"/>
			<path class="st8" d="M27.4,71L27.4,71c-0.7-0.7-1.6-1.3-2.7-1.7C23.9,69,23,68.9,22.1,69c0,0.2-0.1,0.3-0.1,0.5
				C24.1,69.3,26,69.8,27.4,71z"/>
			<path class="st11" d="M27.4,71L27.4,71c-0.7-0.7-1.6-1.3-2.7-1.7C23.9,69,23,68.9,22.1,69c0,0.2-0.1,0.3-0.1,0.5
				C24.1,69.3,26,69.8,27.4,71z"/>
			<path class="st8" d="M27.8,71.4c-0.1-0.1-0.2-0.3-0.4-0.4l-0.1,0.1C27.6,71.1,27.7,71.2,27.8,71.4z"/>
			<path class="st11" d="M27.8,71.4c-0.1-0.1-0.2-0.3-0.4-0.4l-0.1,0.1C27.6,71.1,27.7,71.2,27.8,71.4z"/>
			<path class="st9" d="M22.5,76.3l0.1,0.2c0.1-0.2,0.3-0.4,0.4-0.5l0.1-0.1c0,0,0,0-0.1,0l-0.8-4.2c0.4,0,0.8,0.1,1,0.3
				c0.4,0.3,0.6,0.8,0.8,1.5c0,0.1,0.1,0.1,0.1,0.2s0.1,0.1,0.2,0.1c0.1,0,0.1-0.1,0.2-0.1s0.1-0.1,0.1-0.2
				c-0.2-0.8-0.4-1.4-0.9-1.7c-0.4-0.3-0.9-0.4-1.5-0.4l-0.1-0.5c0-0.1,0-0.1-0.1-0.1c-0.1,0.7-0.1,1.5-0.2,2.2l0.6,2.9
				c-0.2,0-0.3,0-0.4-0.1c-0.1,0-0.1-0.1-0.2-0.1c0,0.2,0,0.3,0,0.5h0.1C22.1,76.2,22.3,76.3,22.5,76.3z"/>
			<path class="st11" d="M22.5,76.3l0.1,0.2c0.1-0.2,0.3-0.4,0.4-0.5l0.1-0.1c0,0,0,0-0.1,0l-0.8-4.2c0.4,0,0.8,0.1,1,0.3
				c0.4,0.3,0.6,0.8,0.8,1.5c0,0.1,0.1,0.1,0.1,0.2s0.1,0.1,0.2,0.1c0.1,0,0.1-0.1,0.2-0.1s0.1-0.1,0.1-0.2
				c-0.2-0.8-0.4-1.4-0.9-1.7c-0.4-0.3-0.9-0.4-1.5-0.4l-0.1-0.5c0-0.1,0-0.1-0.1-0.1c-0.1,0.7-0.1,1.5-0.2,2.2l0.6,2.9
				c-0.2,0-0.3,0-0.4-0.1c-0.1,0-0.1-0.1-0.2-0.1c0,0.2,0,0.3,0,0.5h0.1C22.1,76.2,22.3,76.3,22.5,76.3z"/>
			<path class="st9" d="M25.2,79.7c0.2-0.3,0.2-0.6,0.3-0.8c0.1-0.4,0.1-0.7,0-1c-0.1-0.4-0.2-0.7-0.4-1c-0.3-0.2-0.5-0.4-0.8-0.6
				s-0.5-0.2-0.8-0.4c-0.2-0.1-0.3-0.1-0.4-0.1L23,75.9c-0.2,0.2-0.3,0.3-0.4,0.5l0.7,3.9c-0.1,0-0.2,0-0.3,0c0.3,0.2,0.6,0.4,1,0.6
				l-0.1-0.3C24.5,80.5,24.9,80.2,25.2,79.7z M23,76.5c0.1,0,0.1,0.1,0.2,0.1c0.2,0.1,0.4,0.1,0.7,0.2c0.2,0.1,0.4,0.3,0.6,0.5
				c0.2,0.2,0.3,0.5,0.4,0.8c0.2,0.6,0.1,1.1-0.2,1.6c-0.2,0.4-0.5,0.6-0.9,0.7L23,76.5z"/>
			<path class="st11" d="M25.2,79.7c0.2-0.3,0.2-0.6,0.3-0.8c0.1-0.4,0.1-0.7,0-1c-0.1-0.4-0.2-0.7-0.4-1c-0.3-0.2-0.5-0.4-0.8-0.6
				s-0.5-0.2-0.8-0.4c-0.2-0.1-0.3-0.1-0.4-0.1L23,75.9c-0.2,0.2-0.3,0.3-0.4,0.5l0.7,3.9c-0.1,0-0.2,0-0.3,0c0.3,0.2,0.6,0.4,1,0.6
				l-0.1-0.3C24.5,80.5,24.9,80.2,25.2,79.7z M23,76.5c0.1,0,0.1,0.1,0.2,0.1c0.2,0.1,0.4,0.1,0.7,0.2c0.2,0.1,0.4,0.3,0.6,0.5
				c0.2,0.2,0.3,0.5,0.4,0.8c0.2,0.6,0.1,1.1-0.2,1.6c-0.2,0.4-0.5,0.6-0.9,0.7L23,76.5z"/>
			<path class="st6" d="M29.8,68.4c-0.7-1.1-1.1-2.4-1.1-3.7c0-0.1,0-0.2,0-0.3c0-0.1,0-0.1,0-0.2c0-0.9,0.2-1.8,0.6-2.7
				c0.3-0.7,0.7-1.3,1.1-1.8c0.3-0.4,0.6-0.7,1-0.9c0.4-0.3,0.7-0.5,1.1-0.7c1.2-0.6,2.6-0.8,4-0.7c0.1,0,0.1,0,0.2,0.1
				c0.1-0.6,0.2-1.1,0.3-1.7c-0.4-0.1-0.9-0.1-1.4-0.1c-4.9,0-8.9,4-8.9,8.9c0,1.7,0.5,3.3,1.4,4.7c0.1,0.1,0.3,0.2,0.4,0.3
				L29.8,68.4z"/>
			<path class="st11" d="M29.8,68.4c-0.7-1.1-1.1-2.4-1.1-3.7c0-0.1,0-0.2,0-0.3c0-0.1,0-0.1,0-0.2c0-0.9,0.2-1.8,0.6-2.7
				c0.3-0.7,0.7-1.3,1.1-1.8c0.3-0.4,0.6-0.7,1-0.9c0.4-0.3,0.7-0.5,1.1-0.7c1.2-0.6,2.6-0.8,4-0.7c0.1,0,0.1,0,0.2,0.1
				c0.1-0.6,0.2-1.1,0.3-1.7c-0.4-0.1-0.9-0.1-1.4-0.1c-4.9,0-8.9,4-8.9,8.9c0,1.7,0.5,3.3,1.4,4.7c0.1,0.1,0.3,0.2,0.4,0.3
				L29.8,68.4z"/>
			<path class="st6" d="M35.2,71.6c-0.8-0.1-1.6-0.3-2.4-0.6c-1.3-0.6-2.3-1.5-3-2.6l-1.1,1.3c0.5,0.5,1,1.1,1.4,1.7
				c1.4,1.1,3.1,1.9,5.1,2C35.2,72.8,35.2,72.2,35.2,71.6z"/>
			<path class="st11" d="M35.2,71.6c-0.8-0.1-1.6-0.3-2.4-0.6c-1.3-0.6-2.3-1.5-3-2.6l-1.1,1.3c0.5,0.5,1,1.1,1.4,1.7
				c1.4,1.1,3.1,1.9,5.1,2C35.2,72.8,35.2,72.2,35.2,71.6z"/>
			<path class="st6" d="M28.3,69.3c0.1,0.2,0.2,0.3,0.3,0.4l0.1-0.1C28.5,69.5,28.4,69.4,28.3,69.3z"/>
			<path class="st11" d="M28.3,69.3c0.1,0.2,0.2,0.3,0.3,0.4l0.1-0.1C28.5,69.5,28.4,69.4,28.3,69.3z"/>
			<path class="st6" d="M30.1,71.4c-0.4-0.6-0.9-1.2-1.4-1.7l-0.1,0.1C29,70.4,29.5,70.9,30.1,71.4z"/>
			<path class="st11" d="M30.1,71.4c-0.4-0.6-0.9-1.2-1.4-1.7l-0.1,0.1C29,70.4,29.5,70.9,30.1,71.4z"/>
			<path class="st7" d="M34.4,62.6c-0.1-0.4,0.1-0.7,0.2-1c0.3-0.7,0.7-1.1,1.3-1.4c0.2-0.1,0.4-0.2,0.6-0.2
				c0.1-0.6,0.2-1.3,0.3-1.8c-3-0.4-6.1,1.1-7.4,4.1c-0.5,1-0.7,2.2-0.6,3.3c-0.1-0.3-0.1-0.6-0.1-0.8c0.1,1.3,0.4,2.6,1.1,3.7
				l4.7-5.2C34.4,63,34.4,62.8,34.4,62.6z"/>
			<path class="st11" d="M34.4,62.6c-0.1-0.4,0.1-0.7,0.2-1c0.3-0.7,0.7-1.1,1.3-1.4c0.2-0.1,0.4-0.2,0.6-0.2
				c0.1-0.6,0.2-1.3,0.3-1.8c-3-0.4-6.1,1.1-7.4,4.1c-0.5,1-0.7,2.2-0.6,3.3c-0.1-0.3-0.1-0.6-0.1-0.8c0.1,1.3,0.4,2.6,1.1,3.7
				l4.7-5.2C34.4,63,34.4,62.8,34.4,62.6z"/>
			<path class="st7" d="M31.5,58.9c-0.4,0.3-0.7,0.6-1,0.9C30.8,59.5,31.1,59.2,31.5,58.9z"/>
			<path class="st11" d="M31.5,58.9c-0.4,0.3-0.7,0.6-1,0.9C30.8,59.5,31.1,59.2,31.5,58.9z"/>
			<path class="st7" d="M28.6,64.5c0-0.1,0-0.1,0-0.2C28.6,64.4,28.6,64.4,28.6,64.5z"/>
			<path class="st11" d="M28.6,64.5c0-0.1,0-0.1,0-0.2C28.6,64.4,28.6,64.4,28.6,64.5z"/>
			<path class="st7" d="M36.6,57.5c-1.4-0.2-2.8,0.1-4,0.7C33.9,57.6,35.2,57.4,36.6,57.5z"/>
			<path class="st11" d="M36.6,57.5c-1.4-0.2-2.8,0.1-4,0.7C33.9,57.6,35.2,57.4,36.6,57.5z"/>
			<path class="st7" d="M31.5,58.9c0.4-0.3,0.7-0.5,1.1-0.7C32.3,58.4,31.8,58.6,31.5,58.9z"/>
			<path class="st11" d="M31.5,58.9c0.4-0.3,0.7-0.5,1.1-0.7C32.3,58.4,31.8,58.6,31.5,58.9z"/>
			<path class="st7" d="M36.3,60.6c-0.1,0.1-0.2,0.1-0.3,0.1c-0.4,0.2-0.8,0.6-1,1.1c-0.1,0.3-0.2,0.6-0.2,0.9c0,0.1,0,0.1,0,0.1
				l1.3-1.5C36.2,61.1,36.3,60.8,36.3,60.6z"/>
			<path class="st11" d="M36.3,60.6c-0.1,0.1-0.2,0.1-0.3,0.1c-0.4,0.2-0.8,0.6-1,1.1c-0.1,0.3-0.2,0.6-0.2,0.9c0,0.1,0,0.1,0,0.1
				l1.3-1.5C36.2,61.1,36.3,60.8,36.3,60.6z"/>
			<path class="st7" d="M32.8,71c0.8,0.4,1.6,0.6,2.4,0.6c0-0.8,0.1-1.7,0.1-2.5c-0.4,0.1-0.7,0.1-1.1-0.1L34,69.5
				c-0.1,0.1-0.2,0.2-0.4,0.1s-0.2-0.3-0.2-0.4l0.2-0.5c-0.6-0.4-0.9-0.7-1.1-1.2c-0.2-0.6-0.1-1.2,0.3-2c0.1-0.2,0.2-0.2,0.4-0.1
				c0.1,0,0.1,0.1,0.1,0.1c0.1,0.1,0.1,0.1,0,0.2c-0.2,0.4-0.4,0.8-0.4,1.1c-0.1,0.4,0,0.6,0.1,0.8c0.1,0.2,0.3,0.4,0.4,0.5
				c0.1,0.1,0.2,0.2,0.4,0.2l1.7-3.8c-0.1-0.2-0.3-0.3-0.4-0.5s-0.3-0.4-0.4-0.7c-0.1-0.1-0.1-0.2-0.1-0.3l-4.7,5.2
				C30.5,69.5,31.5,70.4,32.8,71z"/>
			<path class="st11" d="M32.8,71c0.8,0.4,1.6,0.6,2.4,0.6c0-0.8,0.1-1.7,0.1-2.5c-0.4,0.1-0.7,0.1-1.1-0.1L34,69.5
				c-0.1,0.1-0.2,0.2-0.4,0.1s-0.2-0.3-0.2-0.4l0.2-0.5c-0.6-0.4-0.9-0.7-1.1-1.2c-0.2-0.6-0.1-1.2,0.3-2c0.1-0.2,0.2-0.2,0.4-0.1
				c0.1,0,0.1,0.1,0.1,0.1c0.1,0.1,0.1,0.1,0,0.2c-0.2,0.4-0.4,0.8-0.4,1.1c-0.1,0.4,0,0.6,0.1,0.8c0.1,0.2,0.3,0.4,0.4,0.5
				c0.1,0.1,0.2,0.2,0.4,0.2l1.7-3.8c-0.1-0.2-0.3-0.3-0.4-0.5s-0.3-0.4-0.4-0.7c-0.1-0.1-0.1-0.2-0.1-0.3l-4.7,5.2
				C30.5,69.5,31.5,70.4,32.8,71z"/>
			<path class="st7" d="M36.2,61.3l-1.3,1.5c0,0.2,0.1,0.4,0.2,0.6c0.1,0.2,0.2,0.4,0.4,0.6c0.1,0.1,0.2,0.2,0.2,0.4l0.2-0.4
				c0.1-0.4,0.1-0.8,0.2-1.1C36.1,62.3,36.1,61.9,36.2,61.3z"/>
			<path class="st11" d="M36.2,61.3l-1.3,1.5c0,0.2,0.1,0.4,0.2,0.6c0.1,0.2,0.2,0.4,0.4,0.6c0.1,0.1,0.2,0.2,0.2,0.4l0.2-0.4
				c0.1-0.4,0.1-0.8,0.2-1.1C36.1,62.3,36.1,61.9,36.2,61.3z"/>
			<path class="st7" d="M35.3,68.6c0.1-0.9,0.2-1.9,0.3-2.8l-1.3,2.9C34.7,68.7,35,68.7,35.3,68.6z"/>
			<path class="st11" d="M35.3,68.6c0.1-0.9,0.2-1.9,0.3-2.8l-1.3,2.9C34.7,68.7,35,68.7,35.3,68.6z"/>
			<path class="st8" d="M28.6,64.3c0.1-0.9,0.3-1.8,0.6-2.7C28.9,62.5,28.6,63.4,28.6,64.3z"/>
			<path class="st11" d="M28.6,64.3c0.1-0.9,0.3-1.8,0.6-2.7C28.9,62.5,28.6,63.4,28.6,64.3z"/>
			<path class="st8" d="M28.6,64.7c0-0.1,0-0.2,0-0.3C28.6,64.6,28.6,64.6,28.6,64.7z"/>
			<path class="st11" d="M28.6,64.7c0-0.1,0-0.2,0-0.3C28.6,64.6,28.6,64.6,28.6,64.7z"/>
			<path class="st8" d="M29.3,62.2c1.4-2.9,4.4-4.5,7.4-4.1c0.1-0.2,0.1-0.4,0.1-0.6c-0.1,0-0.1,0-0.2-0.1c-1.4-0.2-2.8,0.1-4,0.7
				c-0.4,0.2-0.8,0.4-1.1,0.7c-0.4,0.3-0.7,0.6-1,0.9c-0.5,0.5-0.9,1.1-1.1,1.8c-0.4,0.9-0.6,1.8-0.6,2.7c0,0.1,0,0.1,0,0.2
				s0,0.2,0,0.3c0,0.3,0.1,0.6,0.1,0.8C28.7,64.4,28.9,63.3,29.3,62.2z"/>
			<path class="st11" d="M29.3,62.2c1.4-2.9,4.4-4.5,7.4-4.1c0.1-0.2,0.1-0.4,0.1-0.6c-0.1,0-0.1,0-0.2-0.1c-1.4-0.2-2.8,0.1-4,0.7
				c-0.4,0.2-0.8,0.4-1.1,0.7c-0.4,0.3-0.7,0.6-1,0.9c-0.5,0.5-0.9,1.1-1.1,1.8c-0.4,0.9-0.6,1.8-0.6,2.7c0,0.1,0,0.1,0,0.2
				s0,0.2,0,0.3c0,0.3,0.1,0.6,0.1,0.8C28.7,64.4,28.9,63.3,29.3,62.2z"/>
			<path class="st9" d="M34.9,62.7c0-0.3,0.1-0.6,0.2-0.9c0.3-0.6,0.6-0.9,1-1.1c0.1-0.1,0.2-0.1,0.3-0.1c0.1-0.2,0.1-0.4,0.1-0.6
				c-0.2,0.1-0.4,0.1-0.6,0.2c-0.6,0.3-0.9,0.7-1.3,1.4c-0.2,0.4-0.3,0.7-0.2,1c0,0.3,0.1,0.4,0.1,0.6L34.9,62.7L34.9,62.7z"/>
			<path class="st11" d="M34.9,62.7c0-0.3,0.1-0.6,0.2-0.9c0.3-0.6,0.6-0.9,1-1.1c0.1-0.1,0.2-0.1,0.3-0.1c0.1-0.2,0.1-0.4,0.1-0.6
				c-0.2,0.1-0.4,0.1-0.6,0.2c-0.6,0.3-0.9,0.7-1.3,1.4c-0.2,0.4-0.3,0.7-0.2,1c0,0.3,0.1,0.4,0.1,0.6L34.9,62.7L34.9,62.7z"/>
			<path class="st9" d="M34.3,68.6l1.3-2.9c0.1-0.6,0.2-1.2,0.2-1.8l-0.2,0.4c-0.1-0.2-0.2-0.3-0.2-0.4c-0.2-0.2-0.3-0.4-0.4-0.6
				c-0.1-0.2-0.2-0.4-0.2-0.6l-0.4,0.5c0.1,0.1,0.1,0.2,0.1,0.3c0.1,0.3,0.3,0.5,0.4,0.7c0.2,0.2,0.4,0.4,0.4,0.5l-1.7,3.8
				c-0.1-0.1-0.2-0.1-0.4-0.2s-0.4-0.3-0.4-0.5c-0.1-0.2-0.2-0.4-0.1-0.8c0-0.3,0.1-0.7,0.4-1.1c0.1-0.1,0.1-0.1,0-0.2
				c0-0.1-0.1-0.1-0.1-0.1c-0.2-0.1-0.3-0.1-0.4,0.1c-0.4,0.8-0.4,1.4-0.3,2c0.2,0.5,0.5,0.9,1.1,1.2l-0.2,0.5
				c-0.1,0.1,0,0.3,0.2,0.4s0.4,0,0.4-0.1l0.2-0.5c0.4,0.1,0.8,0.2,1.1,0.1c0-0.2,0-0.4,0.1-0.6C35,68.7,34.7,68.7,34.3,68.6z"/>
			<path class="st11" d="M34.3,68.6l1.3-2.9c0.1-0.6,0.2-1.2,0.2-1.8l-0.2,0.4c-0.1-0.2-0.2-0.3-0.2-0.4c-0.2-0.2-0.3-0.4-0.4-0.6
				c-0.1-0.2-0.2-0.4-0.2-0.6l-0.4,0.5c0.1,0.1,0.1,0.2,0.1,0.3c0.1,0.3,0.3,0.5,0.4,0.7c0.2,0.2,0.4,0.4,0.4,0.5l-1.7,3.8
				c-0.1-0.1-0.2-0.1-0.4-0.2s-0.4-0.3-0.4-0.5c-0.1-0.2-0.2-0.4-0.1-0.8c0-0.3,0.1-0.7,0.4-1.1c0.1-0.1,0.1-0.1,0-0.2
				c0-0.1-0.1-0.1-0.1-0.1c-0.2-0.1-0.3-0.1-0.4,0.1c-0.4,0.8-0.4,1.4-0.3,2c0.2,0.5,0.5,0.9,1.1,1.2l-0.2,0.5
				c-0.1,0.1,0,0.3,0.2,0.4s0.4,0,0.4-0.1l0.2-0.5c0.4,0.1,0.8,0.2,1.1,0.1c0-0.2,0-0.4,0.1-0.6C35,68.7,34.7,68.7,34.3,68.6z"/>
			<path class="st6" d="M37.7,50.8c-0.5-2.4,0.3-4.8,1.8-6.4c0.2-0.2,0.3-0.3,0.5-0.5c0.2-0.5,0.3-0.9,0.5-1.4
				c0-0.1,0.1-0.2,0.1-0.2c0.1-0.2,0.2-0.6,0.4-1.1c-3.7,1.7-5.9,5.8-5,9.9c0.3,1.2,0.8,2.3,1.5,3.3c0.2-0.9,0.4-1.9,0.5-2.8
				C37.8,51.4,37.7,51.1,37.7,50.8z"/>
			<path class="st11" d="M37.7,50.8c-0.5-2.4,0.3-4.8,1.8-6.4c0.2-0.2,0.3-0.3,0.5-0.5c0.2-0.5,0.3-0.9,0.5-1.4
				c0-0.1,0.1-0.2,0.1-0.2c0.1-0.2,0.2-0.6,0.4-1.1c-3.7,1.7-5.9,5.8-5,9.9c0.3,1.2,0.8,2.3,1.5,3.3c0.2-0.9,0.4-1.9,0.5-2.8
				C37.8,51.4,37.7,51.1,37.7,50.8z"/>
			<path class="st7" d="M38,51c0.4-2,0.9-4,1.5-5.8C38.3,46.8,37.6,48.9,38,51z"/>
			<path class="st11" d="M38,51c0.4-2,0.9-4,1.5-5.8C38.3,46.8,37.6,48.9,38,51z"/>
			<path class="st7" d="M37.7,50.8c-0.5-2.4,0.2-4.8,1.8-6.4C37.9,46,37.2,48.4,37.7,50.8c0.1,0.3,0.1,0.6,0.2,0.8v-0.1
				C37.8,51.3,37.8,51,37.7,50.8z"/>
			<path class="st11" d="M37.7,50.8c-0.5-2.4,0.2-4.8,1.8-6.4C37.9,46,37.2,48.4,37.7,50.8c0.1,0.3,0.1,0.6,0.2,0.8v-0.1
				C37.8,51.3,37.8,51,37.7,50.8z"/>
			<path class="st8" d="M40,43.9c-0.2,0.2-0.3,0.3-0.5,0.5C39.7,44.2,39.8,44.1,40,43.9L40,43.9z"/>
			<path class="st11" d="M40,43.9c-0.2,0.2-0.3,0.3-0.5,0.5C39.7,44.2,39.8,44.1,40,43.9L40,43.9z"/>
			<path class="st8" d="M37.7,50.8c0.1,0.3,0.1,0.5,0.2,0.8c0.1-0.2,0.1-0.4,0.1-0.5c-0.4-2.2,0.2-4.3,1.5-5.8
				c0.2-0.4,0.3-0.8,0.4-1.3c-0.2,0.2-0.3,0.3-0.5,0.5C37.9,46,37.2,48.4,37.7,50.8z"/>
			<path class="st11" d="M37.7,50.8c0.1,0.3,0.1,0.5,0.2,0.8c0.1-0.2,0.1-0.4,0.1-0.5c-0.4-2.2,0.2-4.3,1.5-5.8
				c0.2-0.4,0.3-0.8,0.4-1.3c-0.2,0.2-0.3,0.3-0.5,0.5C37.9,46,37.2,48.4,37.7,50.8z"/>
			<path class="st6" d="M43.9,28.3L43.9,28.3c0.3-5-3.1-13.2-3.3-14.1l0,0l0,0c-1.3-3.4-2.2-6.9-3.1-10.8c-2.7,0.5-5.2,1.1-7.7,2.1
				c2.1,3,4.4,5.7,6.5,8.5c0.1,0.1,0.1,0.2,0.2,0.2C37,15,42.8,22.1,43.3,27c0.1,0.4,0.2,0.8,0.2,1.3C43.4,28.3,43.9,28.3,43.9,28.3
				z"/>
			<path class="st11" d="M43.9,28.3L43.9,28.3c0.3-5-3.1-13.2-3.3-14.1l0,0l0,0c-1.3-3.4-2.2-6.9-3.1-10.8c-2.7,0.5-5.2,1.1-7.7,2.1
				c2.1,3,4.4,5.7,6.5,8.5c0.1,0.1,0.1,0.2,0.2,0.2C37,15,42.8,22.1,43.3,27c0.1,0.4,0.2,0.8,0.2,1.3C43.4,28.3,43.9,28.3,43.9,28.3
				z"/>
			<path class="st0" d="M45.3,28.3L45.3,28.3l0.3,0.1c0,0-0.1,1-0.2,3c0.5,3.7,2,7.8,2.8,9.9c2.5,1.1,4.4,3.3,5.1,6.2
				c0.5,2.6-0.1,5.1-1.5,7v0.1c1.6-1.5,3.7-2.5,6.1-2.5c0.8,0,1.6,0.1,2.3,0.3c-2.4-3.4-5.1-6.6-7.4-9.7c-0.1-0.1-0.1-0.2-0.2-0.2
				c-0.6-0.9-7.4-9.1-6.8-14c-0.1-0.5-0.1-1,0.1-1.6c-0.2,0.5-0.3,1-0.3,1.6C45.6,28.3,45.3,28.3,45.3,28.3z"/>
			<path class="st10" d="M45.3,28.3L45.3,28.3l0.3,0.1c0,0-0.1,1-0.2,3c0.5,3.7,2,7.8,2.8,9.9c2.5,1.1,4.4,3.3,5.1,6.2
				c0.5,2.6-0.1,5.1-1.5,7v0.1c1.6-1.5,3.7-2.5,6.1-2.5c0.8,0,1.6,0.1,2.3,0.3c-2.4-3.4-5.1-6.6-7.4-9.7c-0.1-0.1-0.1-0.2-0.2-0.2
				c-0.6-0.9-7.4-9.1-6.8-14c-0.1-0.5-0.1-1,0.1-1.6c-0.2,0.5-0.3,1-0.3,1.6C45.6,28.3,45.3,28.3,45.3,28.3z"/>
			<path class="st0" d="M63.1,68c1.1-0.5,2.2-0.7,3.5-0.8c-0.2-1-0.4-1.9-0.6-2.9C65.4,65.9,64.4,67.1,63.1,68z"/>
			<path class="st10" d="M63.1,68c1.1-0.5,2.2-0.7,3.5-0.8c-0.2-1-0.4-1.9-0.6-2.9C65.4,65.9,64.4,67.1,63.1,68z"/>
			<path class="st0" d="M61.4,69c-0.4,0.2-0.7,0.3-1.1,0.4l0.3,0.3C60.9,69.5,61.2,69.2,61.4,69z"/>
			<path class="st10" d="M61.4,69c-0.4,0.2-0.7,0.3-1.1,0.4l0.3,0.3C60.9,69.5,61.2,69.2,61.4,69z"/>
			<path class="st5" d="M61.1,83L61.1,83c-0.1-0.1-0.1,0-0.2,0H61.1z"/>
			<path class="st10" d="M61.1,83L61.1,83c-0.1-0.1-0.1,0-0.2,0H61.1z"/>
			<path class="st5" d="M54.6,69.2c1.9,1.5,3.2,3.9,3.3,6.5c0.2-2.3,1.1-4.4,2.7-5.9l-0.3-0.3c-0.8,0.2-1.6,0.4-2.5,0.4
				C56.7,69.8,55.6,69.6,54.6,69.2z"/>
			<path class="st10" d="M54.6,69.2c1.9,1.5,3.2,3.9,3.3,6.5c0.2-2.3,1.1-4.4,2.7-5.9l-0.3-0.3c-0.8,0.2-1.6,0.4-2.5,0.4
				C56.7,69.8,55.6,69.6,54.6,69.2z"/>
			<path class="st5" d="M54.6,83H61c0.1,0,0.1-0.1,0.1-0.1c-1.8-1.5-3-3.8-3.2-6.4C57.7,79.1,56.5,81.4,54.6,83z"/>
			<path class="st10" d="M54.6,83H61c0.1,0,0.1-0.1,0.1-0.1c-1.8-1.5-3-3.8-3.2-6.4C57.7,79.1,56.5,81.4,54.6,83z"/>
			<path class="st5" d="M53.2,84.9h2.3c0.1,0,0.1,0,0.1,0H53.2L53.2,84.9z"/>
			<path class="st10" d="M53.2,84.9h2.3c0.1,0,0.1,0,0.1,0H53.2L53.2,84.9z"/>
			<path class="st6" d="M45.4,31.4c0.1-1.9,0.2-3,0.2-3h-0.3C45.1,29.3,45.3,30.3,45.4,31.4z"/>
			<path class="st10" d="M45.4,31.4c0.1-1.9,0.2-3,0.2-3h-0.3C45.1,29.3,45.3,30.3,45.4,31.4z"/>
			<path class="st6" d="M61.4,69c-0.3,0.2-0.6,0.5-0.8,0.7l1.1,1.3c1.2-1.2,2.8-2,4.6-2c0.2,0,0.3,0,0.5,0c-0.1-0.6-0.2-1.1-0.3-1.7
				c-1.3,0-2.5,0.3-3.5,0.8C62.6,68.4,62.1,68.7,61.4,69z"/>
			<path class="st10" d="M61.4,69c-0.3,0.2-0.6,0.5-0.8,0.7l1.1,1.3c1.2-1.2,2.8-2,4.6-2c0.2,0,0.3,0,0.5,0
				c-0.1-0.6-0.2-1.1-0.3-1.7c-1.3,0-2.5,0.3-3.5,0.8C62.6,68.4,62.1,68.7,61.4,69z"/>
			<path class="st6" d="M57.9,75.6c0,0.2,0,0.3,0,0.5s0,0.3,0,0.5c0.2,2.6,1.4,4.8,3.2,6.4c0.6-0.3,1.3-0.5,1.8-0.8
				c-2-1.3-3.3-3.4-3.3-6c0-1.1,0.3-2.1,0.7-3.1c0-0.1,0.1-0.1,0.1-0.1c0.1-0.1,0.1-0.3,0.2-0.4s0.2-0.3,0.2-0.4l0.1-0.1
				c0.3-0.4,0.6-0.8,0.9-1.1l-1.1-1.3C59,71.2,58,73.3,57.9,75.6z"/>
			<path class="st10" d="M57.9,75.6c0,0.2,0,0.3,0,0.5s0,0.3,0,0.5c0.2,2.6,1.4,4.8,3.2,6.4c0.6-0.3,1.3-0.5,1.8-0.8
				c-2-1.3-3.3-3.4-3.3-6c0-1.1,0.3-2.1,0.7-3.1c0-0.1,0.1-0.1,0.1-0.1c0.1-0.1,0.1-0.3,0.2-0.4s0.2-0.3,0.2-0.4l0.1-0.1
				c0.3-0.4,0.6-0.8,0.9-1.1l-1.1-1.3C59,71.2,58,73.3,57.9,75.6z"/>
			<path class="st7" d="M67.2,77.3c0-0.2,0.1-0.5,0.1-0.7h-0.1V77.3z"/>
			<path class="st10" d="M67.2,77.3c0-0.2,0.1-0.5,0.1-0.7h-0.1V77.3z"/>
			<path class="st7" d="M66.1,75.7c0.1,0.1,0.3,0.1,0.4,0.1l-0.2-4.1c-0.4,0.1-0.8,0.3-1,0.7c-0.3,0.4-0.4,0.9-0.4,1.5
				c0,0.2,0,0.3,0.1,0.5L66.1,75.7C66,75.7,66.1,75.7,66.1,75.7z"/>
			<path class="st10" d="M66.1,75.7c0.1,0.1,0.3,0.1,0.4,0.1l-0.2-4.1c-0.4,0.1-0.8,0.3-1,0.7c-0.3,0.4-0.4,0.9-0.4,1.5
				c0,0.2,0,0.3,0.1,0.5L66.1,75.7C66,75.7,66.1,75.7,66.1,75.7z"/>
			<path class="st7" d="M67.1,76.1c0.1,0,0.1,0.1,0.1,0.1c0.1-1.4,0.1-2.9-0.1-4.3c-0.1,0-0.2-0.1-0.3-0.1L67.1,76.1z"/>
			<path class="st10" d="M67.1,76.1c0.1,0,0.1,0.1,0.1,0.1c0.1-1.4,0.1-2.9-0.1-4.3c-0.1,0-0.2-0.1-0.3-0.1L67.1,76.1z"/>
			<path class="st7" d="M64.7,72.2c0.4-0.5,0.8-0.8,1.5-0.8v-0.5c0-0.2,0.1-0.3,0.3-0.3s0.4,0.1,0.4,0.3v0.5c0.1,0,0.2,0,0.3,0.1
				c-0.1-0.6-0.1-1.3-0.2-1.9c-0.1,0-0.2,0-0.2,0c-1.8,0.1-3.3,0.8-4.5,1.9l2.1,2.3C64.3,73.1,64.4,72.6,64.7,72.2z"/>
			<path class="st10" d="M64.7,72.2c0.4-0.5,0.8-0.8,1.5-0.8v-0.5c0-0.2,0.1-0.3,0.3-0.3s0.4,0.1,0.4,0.3v0.5c0.1,0,0.2,0,0.3,0.1
				c-0.1-0.6-0.1-1.3-0.2-1.9c-0.1,0-0.2,0-0.2,0c-1.8,0.1-3.3,0.8-4.5,1.9l2.1,2.3C64.3,73.1,64.4,72.6,64.7,72.2z"/>
			<path class="st7" d="M60.4,72.9c0.1-0.1,0.1-0.2,0.2-0.4C60.5,72.7,60.4,72.8,60.4,72.9z"/>
			<path class="st10" d="M60.4,72.9c0.1-0.1,0.1-0.2,0.2-0.4C60.5,72.7,60.4,72.8,60.4,72.9z"/>
			<path class="st7" d="M65.1,80.4c-0.4-0.4-0.6-1-0.7-1.9c-0.1-0.1,0.1-0.2,0.2-0.2s0.1,0,0.2,0.1c0,0.1,0.1,0.1,0.1,0.2
				c0,0.4,0.1,0.8,0.2,1.1c0.2,0.3,0.3,0.4,0.5,0.6c0.1,0.1,0.2,0.2,0.3,0.2c0.2-0.1,0.4-0.3,0.6-0.4l-0.2-3.6
				c-0.2-0.1-0.4-0.1-0.6-0.2c-0.3-0.1-0.5-0.3-0.7-0.4c-0.2-0.2-0.4-0.4-0.6-0.7c-0.2-0.3-0.3-0.6-0.3-1c0-0.1,0-0.2,0-0.3L62,71.6
				c-1.5,1.4-2.3,3.3-2.2,5.5c0.1,1.2,0.4,2.3,1,3.2c-0.7-1-1.3-2.3-1.3-3.8c-0.1-1.2,0.2-2.3,0.7-3.3c-0.5,0.9-0.7,2-0.7,3.1
				c0,2.5,1.3,4.7,3.3,6c0.9-0.4,1.8-0.9,2.6-1.4C65.4,80.6,65.3,80.5,65.1,80.4z"/>
			<path class="st10" d="M65.1,80.4c-0.4-0.4-0.6-1-0.7-1.9c-0.1-0.1,0.1-0.2,0.2-0.2s0.1,0,0.2,0.1c0,0.1,0.1,0.1,0.1,0.2
				c0,0.4,0.1,0.8,0.2,1.1c0.2,0.3,0.3,0.4,0.5,0.6c0.1,0.1,0.2,0.2,0.3,0.2c0.2-0.1,0.4-0.3,0.6-0.4l-0.2-3.6
				c-0.2-0.1-0.4-0.1-0.6-0.2c-0.3-0.1-0.5-0.3-0.7-0.4c-0.2-0.2-0.4-0.4-0.6-0.7c-0.2-0.3-0.3-0.6-0.3-1c0-0.1,0-0.2,0-0.3L62,71.6
				c-1.5,1.4-2.3,3.3-2.2,5.5c0.1,1.2,0.4,2.3,1,3.2c-0.7-1-1.3-2.3-1.3-3.8c-0.1-1.2,0.2-2.3,0.7-3.3c-0.5,0.9-0.7,2-0.7,3.1
				c0,2.5,1.3,4.7,3.3,6c0.9-0.4,1.8-0.9,2.6-1.4C65.4,80.6,65.3,80.5,65.1,80.4z"/>
			<path class="st7" d="M65.5,75.4c0.2,0.1,0.3,0.2,0.5,0.3l-1.1-1.3c0.1,0.2,0.1,0.3,0.2,0.4C65.1,75.1,65.3,75.2,65.5,75.4z"/>
			<path class="st10" d="M65.5,75.4c0.2,0.1,0.3,0.2,0.5,0.3l-1.1-1.3c0.1,0.2,0.1,0.3,0.2,0.4C65.1,75.1,65.3,75.2,65.5,75.4z"/>
			<path class="st7" d="M60.8,72.2L60.8,72.2C60.8,72.1,60.8,72.1,60.8,72.2z"/>
			<path class="st10" d="M60.8,72.2L60.8,72.2C60.8,72.1,60.8,72.1,60.8,72.2z"/>
			<path class="st8" d="M61.8,71L61.8,71c1.3-1.2,3-2,4.9-2c0.1,0,0.1,0,0.2,0c0-0.1,0-0.1,0-0.1c-0.2,0-0.3,0-0.5,0
				C64.6,69.1,63,69.8,61.8,71z"/>
			<path class="st10" d="M61.8,71L61.8,71c1.3-1.2,3-2,4.9-2c0.1,0,0.1,0,0.2,0c0-0.1,0-0.1,0-0.1c-0.2,0-0.3,0-0.5,0
				C64.6,69.1,63,69.8,61.8,71z"/>
			<path class="st8" d="M61.8,71L61.8,71c-0.4,0.3-0.7,0.7-0.9,1.1C61.1,71.7,61.4,71.4,61.8,71z"/>
			<path class="st10" d="M61.8,71L61.8,71c-0.4,0.3-0.7,0.7-0.9,1.1C61.1,71.7,61.4,71.4,61.8,71z"/>
			<path class="st8" d="M60.6,72.6c0.1-0.1,0.2-0.3,0.2-0.4C60.7,72.3,60.7,72.5,60.6,72.6z"/>
			<path class="st10" d="M60.6,72.6c0.1-0.1,0.2-0.3,0.2-0.4C60.7,72.3,60.7,72.5,60.6,72.6z"/>
			<path class="st8" d="M60.3,73c0-0.1,0.1-0.1,0.1-0.1L60.3,73z"/>
			<path class="st10" d="M60.3,73c0-0.1,0.1-0.1,0.1-0.1L60.3,73z"/>
			<path class="st8" d="M66.7,69.5c0.1,0,0.2,0,0.2,0c0-0.2-0.1-0.3-0.1-0.5c-0.1,0-0.1,0-0.2,0c-1.9,0-3.7,0.8-4.9,2l0.4,0.4
				C63.4,70.3,64.9,69.6,66.7,69.5z"/>
			<path class="st10" d="M66.7,69.5c0.1,0,0.2,0,0.2,0c0-0.2-0.1-0.3-0.1-0.5c-0.1,0-0.1,0-0.2,0c-1.9,0-3.7,0.8-4.9,2l0.4,0.4
				C63.4,70.3,64.9,69.6,66.7,69.5z"/>
			<path class="st8" d="M60.9,72.1L60.9,72.1c-0.2,0.2-0.2,0.3-0.3,0.4s-0.2,0.2-0.2,0.4c0,0.1-0.1,0.1-0.1,0.1
				c-0.5,1-0.7,2.1-0.7,3.3c0.1,1.4,0.6,2.7,1.3,3.8c-0.6-0.9-0.9-2-1-3.2c-0.1-2.1,0.8-4.1,2.2-5.5L61.7,71
				C61.4,71.4,61.1,71.7,60.9,72.1z"/>
			<path class="st10" d="M60.9,72.1L60.9,72.1c-0.2,0.2-0.2,0.3-0.3,0.4s-0.2,0.2-0.2,0.4c0,0.1-0.1,0.1-0.1,0.1
				c-0.5,1-0.7,2.1-0.7,3.3c0.1,1.4,0.6,2.7,1.3,3.8c-0.6-0.9-0.9-2-1-3.2c-0.1-2.1,0.8-4.1,2.2-5.5L61.7,71
				C61.4,71.4,61.1,71.7,60.9,72.1z"/>
			<path class="st9" d="M66.8,70.9c0-0.2-0.2-0.3-0.4-0.3s-0.3,0.1-0.3,0.3v0.5c-0.7,0.1-1.1,0.4-1.5,0.8c-0.3,0.4-0.4,0.9-0.5,1.5
				l0.6,0.7c-0.1-0.2-0.1-0.3-0.1-0.5c-0.1-0.6,0.1-1.1,0.4-1.5s0.6-0.6,1-0.7l0.2,4.1c-0.1-0.1-0.2-0.1-0.4-0.1
				c-0.1-0.1-0.1-0.1-0.2-0.1l0.3,0.3c0.4,0.4,0.7,1,0.8,1.6c0-0.1,0-0.2,0-0.3l-0.1-0.7h0.1c0-0.2,0-0.3,0-0.5
				c-0.1,0-0.1-0.1-0.1-0.1l-0.2-4.3c0.1,0,0.2,0,0.3,0.1c0-0.2,0-0.3-0.1-0.4c-0.1,0-0.2-0.1-0.3-0.1v-0.3H66.8L66.8,70.9z"/>
			<path class="st10" d="M66.8,70.9c0-0.2-0.2-0.3-0.4-0.3s-0.3,0.1-0.3,0.3v0.5c-0.7,0.1-1.1,0.4-1.5,0.8c-0.3,0.4-0.4,0.9-0.5,1.5
				l0.6,0.7c-0.1-0.2-0.1-0.3-0.1-0.5c-0.1-0.6,0.1-1.1,0.4-1.5s0.6-0.6,1-0.7l0.2,4.1c-0.1-0.1-0.2-0.1-0.4-0.1
				c-0.1-0.1-0.1-0.1-0.2-0.1l0.3,0.3c0.4,0.4,0.7,1,0.8,1.6c0-0.1,0-0.2,0-0.3l-0.1-0.7h0.1c0-0.2,0-0.3,0-0.5
				c-0.1,0-0.1-0.1-0.1-0.1l-0.2-4.3c0.1,0,0.2,0,0.3,0.1c0-0.2,0-0.3-0.1-0.4c-0.1,0-0.2-0.1-0.3-0.1v-0.3H66.8L66.8,70.9z"/>
			<path class="st9" d="M67.1,77.6c-0.2-0.6-0.5-1.1-0.8-1.6L66,75.7c-0.2-0.1-0.3-0.2-0.5-0.3c-0.2-0.2-0.4-0.4-0.5-0.6
				c-0.1-0.1-0.2-0.3-0.2-0.4l-0.6-0.7c0,0.1,0,0.2,0,0.3c0,0.4,0.1,0.8,0.3,1s0.4,0.5,0.6,0.7s0.4,0.4,0.7,0.4
				c0.2,0.1,0.4,0.2,0.6,0.2l0.2,3.6c0.1-0.1,0.2-0.2,0.3-0.2c0.1-0.5,0.1-0.8,0.1-0.9C67.1,78.5,67.1,78,67.1,77.6z"/>
			<path class="st10" d="M67.1,77.6c-0.2-0.6-0.5-1.1-0.8-1.6L66,75.7c-0.2-0.1-0.3-0.2-0.5-0.3c-0.2-0.2-0.4-0.4-0.5-0.6
				c-0.1-0.1-0.2-0.3-0.2-0.4l-0.6-0.7c0,0.1,0,0.2,0,0.3c0,0.4,0.1,0.8,0.3,1s0.4,0.5,0.6,0.7s0.4,0.4,0.7,0.4
				c0.2,0.1,0.4,0.2,0.6,0.2l0.2,3.6c0.1-0.1,0.2-0.2,0.3-0.2c0.1-0.5,0.1-0.8,0.1-0.9C67.1,78.5,67.1,78,67.1,77.6z"/>
			<path class="st9" d="M65.6,80.2c-0.2-0.2-0.4-0.4-0.5-0.6s-0.2-0.7-0.2-1.1c0-0.1-0.1-0.1-0.1-0.2c-0.1-0.1-0.1-0.1-0.2-0.1
				c-0.2,0-0.3,0.1-0.2,0.2c0.1,0.8,0.3,1.4,0.7,1.9c0.1,0.1,0.3,0.2,0.4,0.3c0.2-0.1,0.3-0.2,0.5-0.3
				C65.8,80.4,65.7,80.3,65.6,80.2z"/>
			<path class="st10" d="M65.6,80.2c-0.2-0.2-0.4-0.4-0.5-0.6s-0.2-0.7-0.2-1.1c0-0.1-0.1-0.1-0.1-0.2c-0.1-0.1-0.1-0.1-0.2-0.1
				c-0.2,0-0.3,0.1-0.2,0.2c0.1,0.8,0.3,1.4,0.7,1.9c0.1,0.1,0.3,0.2,0.4,0.3c0.2-0.1,0.3-0.2,0.5-0.3
				C65.8,80.4,65.7,80.3,65.6,80.2z"/>
			<path class="st6" d="M64.9,61.1c-0.1,3.4-2.7,6.3-6,6.8l1.4,1.5c0.4-0.1,0.8-0.3,1.1-0.4c0.5-0.4,1-0.7,1.7-1
				c1.3-0.9,2.2-2.2,2.9-3.6c-0.2-0.5-0.3-1-0.4-1.5C65.4,62.3,65.1,61.7,64.9,61.1z"/>
			<path class="st10" d="M64.9,61.1c-0.1,3.4-2.7,6.3-6,6.8l1.4,1.5c0.4-0.1,0.8-0.3,1.1-0.4c0.5-0.4,1-0.7,1.7-1
				c1.3-0.9,2.2-2.2,2.9-3.6c-0.2-0.5-0.3-1-0.4-1.5C65.4,62.3,65.1,61.7,64.9,61.1z"/>
			<path class="st6" d="M51.7,54.5c0.2,0.7,0.3,1.5,0.4,2.2c0.7-0.9,1.6-1.7,2.6-2.1c0.1,0,0.1-0.1,0.2-0.1c0.1-0.1,0.3-0.1,0.4-0.2
				c0.2-0.1,0.3-0.1,0.5-0.2h0.1c1.2-0.4,2.5-0.5,3.8-0.2c0.9,0.2,1.7,0.5,2.3,1c-0.5-0.9-1.1-1.7-1.7-2.6C59.6,52.1,58.8,52,58,52
				C55.5,52.1,53.3,53,51.7,54.5z"/>
			<path class="st10" d="M51.7,54.5c0.2,0.7,0.3,1.5,0.4,2.2c0.7-0.9,1.6-1.7,2.6-2.1c0.1,0,0.1-0.1,0.2-0.1
				c0.1-0.1,0.3-0.1,0.4-0.2c0.2-0.1,0.3-0.1,0.5-0.2h0.1c1.2-0.4,2.5-0.5,3.8-0.2c0.9,0.2,1.7,0.5,2.3,1c-0.5-0.9-1.1-1.7-1.7-2.6
				C59.6,52.1,58.8,52,58,52C55.5,52.1,53.3,53,51.7,54.5z"/>
			<path class="st6" d="M53.6,66.6c0.1,0.7,0.1,1.3,0.2,2c0.3,0.2,0.6,0.4,0.8,0.6c1,0.4,2.1,0.6,3.2,0.6c0.9,0,1.7-0.1,2.5-0.4
				l-1.4-1.5C58.5,68,58.2,68,57.8,68C56.3,68,54.8,67.4,53.6,66.6z"/>
			<path class="st10" d="M53.6,66.6c0.1,0.7,0.1,1.3,0.2,2c0.3,0.2,0.6,0.4,0.8,0.6c1,0.4,2.1,0.6,3.2,0.6c0.9,0,1.7-0.1,2.5-0.4
				l-1.4-1.5C58.5,68,58.2,68,57.8,68C56.3,68,54.8,67.4,53.6,66.6z"/>
			<path class="st6" d="M61.4,69c0.6-0.3,1.1-0.6,1.7-1C62.5,68.3,62,68.6,61.4,69z"/>
			<path class="st10" d="M61.4,69c0.6-0.3,1.1-0.6,1.7-1C62.5,68.3,62,68.6,61.4,69z"/>
			<path class="st7" d="M58.4,64.9c0.4-0.3,0.6-0.7,0.8-1.4c0.1-0.3,0.1-0.6,0-0.9s-0.2-0.5-0.4-0.7c-0.2-0.2-0.3-0.4-0.5-0.5
				c-0.1-0.1-0.1-0.1-0.2-0.1l-0.9,3.8C57.7,65.3,58.1,65.1,58.4,64.9z"/>
			<path class="st10" d="M58.4,64.9c0.4-0.3,0.6-0.7,0.8-1.4c0.1-0.3,0.1-0.6,0-0.9s-0.2-0.5-0.4-0.7c-0.2-0.2-0.3-0.4-0.5-0.5
				c-0.1-0.1-0.1-0.1-0.2-0.1l-0.9,3.8C57.7,65.3,58.1,65.1,58.4,64.9z"/>
			<path class="st7" d="M57.4,56.9c-0.4,0.4-0.7,0.8-0.8,1.4c-0.1,0.3-0.1,0.6,0,0.9c0.1,0.2,0.2,0.4,0.4,0.7
				c0.2,0.2,0.3,0.3,0.5,0.5c0.1,0.1,0.2,0.2,0.3,0.2l0.9-4C58.2,56.6,57.7,56.7,57.4,56.9z"/>
			<path class="st10" d="M57.4,56.9c-0.4,0.4-0.7,0.8-0.8,1.4c-0.1,0.3-0.1,0.6,0,0.9c0.1,0.2,0.2,0.4,0.4,0.7
				c0.2,0.2,0.3,0.3,0.5,0.5c0.1,0.1,0.2,0.2,0.3,0.2l0.9-4C58.2,56.6,57.7,56.7,57.4,56.9z"/>
			<path class="st7" d="M55.7,54.1L55.7,54.1L55.7,54.1z"/>
			<path class="st10" d="M55.7,54.1L55.7,54.1L55.7,54.1z"/>
			<path class="st7" d="M54.7,54.5c-1,0.5-1.9,1.3-2.6,2.1c0,0,0,0,0,0.1C52.8,55.8,53.7,55.1,54.7,54.5z"/>
			<path class="st10" d="M54.7,54.5c-1,0.5-1.9,1.3-2.6,2.1c0,0,0,0,0,0.1C52.8,55.8,53.7,55.1,54.7,54.5z"/>
			<path class="st7" d="M59.7,54.5c-2.9-0.7-5.8,0.6-7.4,2.9c0.2,1.2,0.4,2.5,0.6,3.8l2.2,2.5c0-0.3,0-0.7,0.1-1.1
				c0-0.2,0.1-0.2,0.3-0.2c0.1,0,0.1,0.1,0.2,0.1s0.1,0.1,0.1,0.2c-0.1,0.4-0.1,0.8-0.1,1.1c0.1,0.3,0.1,0.5,0.3,0.7
				c0.1,0.2,0.3,0.3,0.5,0.4c0.1,0,0.2,0.1,0.4,0.1l0.9-4c-0.1-0.1-0.3-0.2-0.5-0.4s-0.4-0.4-0.6-0.6c-0.2-0.3-0.3-0.5-0.4-0.8
				s-0.1-0.7,0-1.1c0.2-0.7,0.5-1.2,0.9-1.6c0.5-0.4,1-0.5,1.7-0.4l0.1-0.5c0-0.1,0.2-0.2,0.4-0.2c0.2,0.1,0.3,0.2,0.2,0.4l-0.1,0.5
				c0.6,0.3,1,0.5,1.2,0.9c0.3,0.5,0.3,1.1,0.1,2c0,0.1-0.1,0.1-0.1,0.1c-0.1,0.1-0.2,0.1-0.2,0.1s-0.1-0.1-0.2-0.1
				c-0.1-0.1-0.1-0.1-0.1-0.2c0.2-0.7,0.1-1.2-0.1-1.7c-0.2-0.3-0.4-0.5-0.8-0.7l-1,4.2c0.1,0.1,0.2,0.2,0.4,0.3
				c0.2,0.2,0.4,0.4,0.6,0.6s0.3,0.5,0.5,0.8c0.1,0.3,0.1,0.7,0,1.1s-0.2,0.7-0.4,0.9s-0.4,0.5-0.6,0.7c-0.4,0.4-0.9,0.4-1.5,0.4
				l-0.1,0.2l1.8,1.9c3.3-0.5,5.9-3.3,6-6.8c-0.7-1.9-1.6-3.6-2.6-5.3C61.6,55.2,60.7,54.8,59.7,54.5z"/>
			<path class="st10" d="M59.7,54.5c-2.9-0.7-5.8,0.6-7.4,2.9c0.2,1.2,0.4,2.5,0.6,3.8l2.2,2.5c0-0.3,0-0.7,0.1-1.1
				c0-0.2,0.1-0.2,0.3-0.2c0.1,0,0.1,0.1,0.2,0.1s0.1,0.1,0.1,0.2c-0.1,0.4-0.1,0.8-0.1,1.1c0.1,0.3,0.1,0.5,0.3,0.7
				c0.1,0.2,0.3,0.3,0.5,0.4c0.1,0,0.2,0.1,0.4,0.1l0.9-4c-0.1-0.1-0.3-0.2-0.5-0.4s-0.4-0.4-0.6-0.6c-0.2-0.3-0.3-0.5-0.4-0.8
				s-0.1-0.7,0-1.1c0.2-0.7,0.5-1.2,0.9-1.6c0.5-0.4,1-0.5,1.7-0.4l0.1-0.5c0-0.1,0.2-0.2,0.4-0.2c0.2,0.1,0.3,0.2,0.2,0.4l-0.1,0.5
				c0.6,0.3,1,0.5,1.2,0.9c0.3,0.5,0.3,1.1,0.1,2c0,0.1-0.1,0.1-0.1,0.1c-0.1,0.1-0.2,0.1-0.2,0.1s-0.1-0.1-0.2-0.1
				c-0.1-0.1-0.1-0.1-0.1-0.2c0.2-0.7,0.1-1.2-0.1-1.7c-0.2-0.3-0.4-0.5-0.8-0.7l-1,4.2c0.1,0.1,0.2,0.2,0.4,0.3
				c0.2,0.2,0.4,0.4,0.6,0.6s0.3,0.5,0.5,0.8c0.1,0.3,0.1,0.7,0,1.1s-0.2,0.7-0.4,0.9s-0.4,0.5-0.6,0.7c-0.4,0.4-0.9,0.4-1.5,0.4
				l-0.1,0.2l1.8,1.9c3.3-0.5,5.9-3.3,6-6.8c-0.7-1.9-1.6-3.6-2.6-5.3C61.6,55.2,60.7,54.8,59.7,54.5z"/>
			<path class="st7" d="M54.9,54.5c0.1-0.1,0.3-0.1,0.4-0.2C55.1,54.4,55,54.4,54.9,54.5z"/>
			<path class="st10" d="M54.9,54.5c0.1-0.1,0.3-0.1,0.4-0.2C55.1,54.4,55,54.4,54.9,54.5z"/>
			<path class="st7" d="M57.1,66.3c0,0.1-0.2,0.2-0.4,0.2c-0.2-0.1-0.3-0.2-0.2-0.4l0.1-0.6c-0.7-0.2-1.1-0.6-1.3-1
				c-0.2-0.3-0.2-0.5-0.2-0.9l-2.2-2.5c0.1,0.5,0.2,1,0.3,1.6c0.2,1.2,0.3,2.5,0.5,3.8c1.2,0.9,2.7,1.4,4.2,1.4
				c0.4,0,0.7-0.1,1.1-0.1l-1.8-1.9L57.1,66.3z"/>
			<path class="st10" d="M57.1,66.3c0,0.1-0.2,0.2-0.4,0.2c-0.2-0.1-0.3-0.2-0.2-0.4l0.1-0.6c-0.7-0.2-1.1-0.6-1.3-1
				c-0.2-0.3-0.2-0.5-0.2-0.9l-2.2-2.5c0.1,0.5,0.2,1,0.3,1.6c0.2,1.2,0.3,2.5,0.5,3.8c1.2,0.9,2.7,1.4,4.2,1.4
				c0.4,0,0.7-0.1,1.1-0.1l-1.8-1.9L57.1,66.3z"/>
			<path class="st8" d="M62,55.2c-0.1-0.1-0.1-0.1-0.1-0.2c-0.7-0.5-1.5-0.8-2.3-1c-1.3-0.3-2.6-0.2-3.8,0.2
				c0.7-0.2,1.4-0.3,2.1-0.3C59.4,53.8,60.8,54.3,62,55.2z"/>
			<path class="st10" d="M62,55.2c-0.1-0.1-0.1-0.1-0.1-0.2c-0.7-0.5-1.5-0.8-2.3-1c-1.3-0.3-2.6-0.2-3.8,0.2
				c0.7-0.2,1.4-0.3,2.1-0.3C59.4,53.8,60.8,54.3,62,55.2z"/>
			<path class="st8" d="M55.2,54.3c0.2-0.1,0.3-0.1,0.5-0.2C55.5,54.2,55.4,54.3,55.2,54.3z"/>
			<path class="st10" d="M55.2,54.3c0.2-0.1,0.3-0.1,0.5-0.2C55.5,54.2,55.4,54.3,55.2,54.3z"/>
			<path class="st8" d="M54.7,54.5c0.1,0,0.1-0.1,0.2-0.1C54.8,54.5,54.8,54.5,54.7,54.5z"/>
			<path class="st10" d="M54.7,54.5c0.1,0,0.1-0.1,0.2-0.1C54.8,54.5,54.8,54.5,54.7,54.5z"/>
			<path class="st8" d="M52.1,56.7c0.1,0.2,0.1,0.4,0.1,0.6c1.6-2.3,4.5-3.6,7.4-2.9c1,0.2,1.9,0.7,2.7,1.3
				c-0.1-0.2-0.3-0.4-0.4-0.6c-1.1-0.8-2.6-1.4-4.1-1.4c-0.7,0-1.4,0.1-2.1,0.3h-0.1c-0.2,0.1-0.3,0.1-0.5,0.2
				c-0.1,0.1-0.3,0.1-0.4,0.2c-0.1,0-0.1,0.1-0.2,0.1C53.7,55.1,52.8,55.8,52.1,56.7z"/>
			<path class="st10" d="M52.1,56.7c0.1,0.2,0.1,0.4,0.1,0.6c1.6-2.3,4.5-3.6,7.4-2.9c1,0.2,1.9,0.7,2.7,1.3
				c-0.1-0.2-0.3-0.4-0.4-0.6c-1.1-0.8-2.6-1.4-4.1-1.4c-0.7,0-1.4,0.1-2.1,0.3h-0.1c-0.2,0.1-0.3,0.1-0.5,0.2
				c-0.1,0.1-0.3,0.1-0.4,0.2c-0.1,0-0.1,0.1-0.2,0.1C53.7,55.1,52.8,55.8,52.1,56.7z"/>
			<path class="st9" d="M57.3,65.7c0.6,0.1,1.1-0.1,1.5-0.4c0.2-0.2,0.4-0.4,0.6-0.7c0.2-0.3,0.3-0.6,0.4-0.9c0.1-0.4,0.1-0.8,0-1.1
				c-0.2-0.3-0.3-0.6-0.5-0.8c-0.2-0.2-0.4-0.4-0.6-0.6c-0.2-0.1-0.3-0.2-0.4-0.3l1-4.2c0.4,0.2,0.7,0.4,0.8,0.7
				c0.2,0.4,0.3,1,0.1,1.7c0,0.1,0,0.1,0.1,0.2s0.1,0.1,0.2,0.1s0.2,0,0.2-0.1s0.1-0.1,0.1-0.1c0.2-0.8,0.2-1.5-0.1-2
				c-0.2-0.4-0.7-0.7-1.2-0.9l0.1-0.5c0.1-0.2-0.1-0.3-0.2-0.4c-0.2-0.1-0.4,0.1-0.4,0.2l-0.1,0.5c-0.6-0.1-1.1,0.1-1.7,0.4
				c-0.5,0.4-0.8,0.9-0.9,1.6c-0.1,0.4-0.1,0.8,0,1.1s0.2,0.6,0.4,0.8c0.2,0.2,0.4,0.4,0.6,0.6s0.4,0.3,0.5,0.4l-0.9,4
				c-0.1-0.1-0.2-0.1-0.4-0.1c-0.2-0.1-0.4-0.2-0.5-0.4c-0.2-0.2-0.2-0.4-0.3-0.7c-0.1-0.3,0-0.7,0.1-1.1c0-0.1,0-0.1-0.1-0.2
				s-0.1-0.1-0.2-0.1c-0.2-0.1-0.3,0-0.3,0.2c-0.1,0.4-0.1,0.8-0.1,1.1l2,2.2L57.3,65.7z M57.7,60.6c-0.1-0.1-0.2-0.1-0.3-0.2
				c-0.2-0.2-0.4-0.4-0.5-0.5c-0.2-0.2-0.3-0.4-0.4-0.7c-0.1-0.3-0.1-0.6,0-0.9c0.2-0.6,0.4-1,0.8-1.4c0.4-0.3,0.8-0.4,1.2-0.4
				L57.7,60.6z M58.2,61.4c0.1,0.1,0.1,0.1,0.2,0.1c0.2,0.1,0.4,0.3,0.5,0.5c0.2,0.2,0.3,0.4,0.4,0.7c0.1,0.3,0.1,0.6,0,0.9
				c-0.2,0.6-0.4,1-0.8,1.4c-0.3,0.2-0.7,0.4-1,0.3L58.2,61.4z"/>
			<path class="st10" d="M57.3,65.7c0.6,0.1,1.1-0.1,1.5-0.4c0.2-0.2,0.4-0.4,0.6-0.7c0.2-0.3,0.3-0.6,0.4-0.9
				c0.1-0.4,0.1-0.8,0-1.1c-0.2-0.3-0.3-0.6-0.5-0.8c-0.2-0.2-0.4-0.4-0.6-0.6c-0.2-0.1-0.3-0.2-0.4-0.3l1-4.2
				c0.4,0.2,0.7,0.4,0.8,0.7c0.2,0.4,0.3,1,0.1,1.7c0,0.1,0,0.1,0.1,0.2s0.1,0.1,0.2,0.1s0.2,0,0.2-0.1s0.1-0.1,0.1-0.1
				c0.2-0.8,0.2-1.5-0.1-2c-0.2-0.4-0.7-0.7-1.2-0.9l0.1-0.5c0.1-0.2-0.1-0.3-0.2-0.4c-0.2-0.1-0.4,0.1-0.4,0.2l-0.1,0.5
				c-0.6-0.1-1.1,0.1-1.7,0.4c-0.5,0.4-0.8,0.9-0.9,1.6c-0.1,0.4-0.1,0.8,0,1.1s0.2,0.6,0.4,0.8c0.2,0.2,0.4,0.4,0.6,0.6
				s0.4,0.3,0.5,0.4l-0.9,4c-0.1-0.1-0.2-0.1-0.4-0.1c-0.2-0.1-0.4-0.2-0.5-0.4c-0.2-0.2-0.2-0.4-0.3-0.7c-0.1-0.3,0-0.7,0.1-1.1
				c0-0.1,0-0.1-0.1-0.2s-0.1-0.1-0.2-0.1c-0.2-0.1-0.3,0-0.3,0.2c-0.1,0.4-0.1,0.8-0.1,1.1l2,2.2L57.3,65.7z M57.7,60.6
				c-0.1-0.1-0.2-0.1-0.3-0.2c-0.2-0.2-0.4-0.4-0.5-0.5c-0.2-0.2-0.3-0.4-0.4-0.7c-0.1-0.3-0.1-0.6,0-0.9c0.2-0.6,0.4-1,0.8-1.4
				c0.4-0.3,0.8-0.4,1.2-0.4L57.7,60.6z M58.2,61.4c0.1,0.1,0.1,0.1,0.2,0.1c0.2,0.1,0.4,0.3,0.5,0.5c0.2,0.2,0.3,0.4,0.4,0.7
				c0.1,0.3,0.1,0.6,0,0.9c-0.2,0.6-0.4,1-0.8,1.4c-0.3,0.2-0.7,0.4-1,0.3L58.2,61.4z"/>
			<path class="st9" d="M56.7,65.6l-0.1,0.6c-0.1,0.2,0.1,0.3,0.2,0.4c0.2,0.1,0.4-0.1,0.4-0.2l0.1-0.3l-2-2.2
				c0,0.3,0.1,0.6,0.2,0.9C55.6,65,56,65.4,56.7,65.6z"/>
			<path class="st10" d="M56.7,65.6l-0.1,0.6c-0.1,0.2,0.1,0.3,0.2,0.4c0.2,0.1,0.4-0.1,0.4-0.2l0.1-0.3l-2-2.2
				c0,0.3,0.1,0.6,0.2,0.9C55.6,65,56,65.4,56.7,65.6z"/>
			<path class="st6" d="M48.6,42.6c0.2,0.4,0.3,0.8,0.4,1.2c1.2,1,2.1,2.3,2.5,4c0.3,1.4,0.2,2.8-0.3,4c0.2,0.8,0.4,1.7,0.5,2.6
				c1.4-1.9,2-4.4,1.5-7c-0.6-2.9-2.6-5.1-5.1-6.2c0.2,0.6,0.4,1,0.4,1.1C48.6,42.4,48.6,42.5,48.6,42.6z"/>
			<path class="st10" d="M48.6,42.6c0.2,0.4,0.3,0.8,0.4,1.2c1.2,1,2.1,2.3,2.5,4c0.3,1.4,0.2,2.8-0.3,4c0.2,0.8,0.4,1.7,0.5,2.6
				c1.4-1.9,2-4.4,1.5-7c-0.6-2.9-2.6-5.1-5.1-6.2c0.2,0.6,0.4,1,0.4,1.1C48.6,42.4,48.6,42.5,48.6,42.6z"/>
			<path class="st7" d="M50.1,44.8c-0.3-0.3-0.6-0.6-0.9-0.8c0.9,2.5,1.5,5.1,2.1,7.8c0.5-1.3,0.6-2.6,0.3-4c-0.4-1.7-1.3-3.1-2.5-4
				c0,0,0,0,0,0.1C49.4,44.1,49.7,44.4,50.1,44.8z"/>
			<path class="st10" d="M50.1,44.8c-0.3-0.3-0.6-0.6-0.9-0.8c0.9,2.5,1.5,5.1,2.1,7.8c0.5-1.3,0.6-2.6,0.3-4
				c-0.4-1.7-1.3-3.1-2.5-4c0,0,0,0,0,0.1C49.4,44.1,49.7,44.4,50.1,44.8z"/>
			<path class="st8" d="M49.1,43.8c0,0.1,0.1,0.1,0.1,0.2c0.3,0.3,0.6,0.5,0.9,0.8C49.7,44.4,49.4,44.1,49.1,43.8z"/>
			<path class="st10" d="M49.1,43.8c0,0.1,0.1,0.1,0.1,0.2c0.3,0.3,0.6,0.5,0.9,0.8C49.7,44.4,49.4,44.1,49.1,43.8z"/>
			<path class="st6" d="M53.9,70.8c1,0.9,1.8,2.2,2.1,3.6c-0.1-0.2-0.2-0.4-0.3-0.6c0.4,1.3,0.5,2.7,0.2,4c-0.4,1.5-1.1,2.7-2.2,3.7
				c-0.1,0.5-0.1,1-0.2,1.5h1c1.9-1.5,3.1-3.8,3.3-6.4c0-0.2,0-0.3,0-0.5s0-0.3,0-0.5c-0.2-2.6-1.4-4.9-3.3-6.5
				c-0.3-0.1-0.6-0.3-0.8-0.4C53.8,69.5,53.9,70.2,53.9,70.8z"/>
			<path class="st10" d="M53.9,70.8c1,0.9,1.8,2.2,2.1,3.6c-0.1-0.2-0.2-0.4-0.3-0.6c0.4,1.3,0.5,2.7,0.2,4
				c-0.4,1.5-1.1,2.7-2.2,3.7c-0.1,0.5-0.1,1-0.2,1.5h1c1.9-1.5,3.1-3.8,3.3-6.4c0-0.2,0-0.3,0-0.5s0-0.3,0-0.5
				c-0.2-2.6-1.4-4.9-3.3-6.5c-0.3-0.1-0.6-0.3-0.8-0.4C53.8,69.5,53.9,70.2,53.9,70.8z"/>
			<path class="st6" d="M57.9,76.6c0-0.2,0-0.3,0-0.5s0-0.3,0-0.5c0,0.2,0,0.3,0,0.5S57.9,76.4,57.9,76.6z"/>
			<path class="st10" d="M57.9,76.6c0-0.2,0-0.3,0-0.5s0-0.3,0-0.5c0,0.2,0,0.3,0,0.5S57.9,76.4,57.9,76.6z"/>
			<path class="st6" d="M54.6,69.2c-0.3-0.2-0.6-0.4-0.8-0.6c0,0.1,0,0.2,0,0.2C54,68.9,54.3,69.1,54.6,69.2z"/>
			<path class="st10" d="M54.6,69.2c-0.3-0.2-0.6-0.4-0.8-0.6c0,0.1,0,0.2,0,0.2C54,68.9,54.3,69.1,54.6,69.2z"/>
			<path class="st7" d="M53.9,71.3c0.1,2.6,0.1,5.1-0.1,7.6c0,0.3-0.1,1.4-0.2,2.7c1.1-0.9,1.9-2.2,2.2-3.7c0.4-1.4,0.3-2.8-0.2-4
				C55.3,72.8,54.7,71.9,53.9,71.3z"/>
			<path class="st10" d="M53.9,71.3c0.1,2.6,0.1,5.1-0.1,7.6c0,0.3-0.1,1.4-0.2,2.7c1.1-0.9,1.9-2.2,2.2-3.7c0.4-1.4,0.3-2.8-0.2-4
				C55.3,72.8,54.7,71.9,53.9,71.3z"/>
			<path class="st8" d="M55.7,73.8c0.1,0.2,0.2,0.4,0.3,0.6c-0.3-1.4-1.1-2.6-2.1-3.6v0.1C54.8,71.7,55.4,72.7,55.7,73.8z"/>
			<path class="st10" d="M55.7,73.8c0.1,0.2,0.2,0.4,0.3,0.6c-0.3-1.4-1.1-2.6-2.1-3.6v0.1C54.8,71.7,55.4,72.7,55.7,73.8z"/>
			<path class="st8" d="M53.9,71.3c0.8,0.7,1.5,1.6,1.9,2.6c-0.4-1.1-1-2.1-1.9-2.9C53.9,71,53.9,71.1,53.9,71.3z"/>
			<path class="st10" d="M53.9,71.3c0.8,0.7,1.5,1.6,1.9,2.6c-0.4-1.1-1-2.1-1.9-2.9C53.9,71,53.9,71.1,53.9,71.3z"/>
			<path class="st6" d="M48.6,14.2L48.6,14.2c-0.3,0.9-3.7,9.2-3.3,14.1l0,0h0.4c0-0.5,0.1-1,0.3-1.6c0.7-5,6.2-11.7,6.7-12.5
				c0.1-0.1,0.1-0.2,0.2-0.2c2.1-2.8,4.4-5.5,6.5-8.5c-2.5-0.9-5-1.6-7.7-2.1C50.8,7.3,49.8,10.8,48.6,14.2z"/>
			<path class="st10" d="M48.6,14.2L48.6,14.2c-0.3,0.9-3.7,9.2-3.3,14.1l0,0h0.4c0-0.5,0.1-1,0.3-1.6c0.7-5,6.2-11.7,6.7-12.5
				c0.1-0.1,0.1-0.2,0.2-0.2c2.1-2.8,4.4-5.5,6.5-8.5c-2.5-0.9-5-1.6-7.7-2.1C50.8,7.3,49.8,10.8,48.6,14.2z"/>
			<path class="st5" d="M35.5,83c0.1,1,0.2,1.8,0.3,1.8h11.8c-1.6-0.3-3-0.9-4.1-1.8H35.5z"/>
			<path class="st12" d="M35.5,83c0.1,1,0.2,1.8,0.3,1.8h11.8c-1.6-0.3-3-0.9-4.1-1.8H35.5z"/>
			<path class="st5" d="M50.5,84.8h2.8c0.1-0.2,0.2-0.5,0.2-1C52.6,84.3,51.5,84.6,50.5,84.8z"/>
			<path class="st12" d="M50.5,84.8h2.8c0.1-0.2,0.2-0.5,0.2-1C52.6,84.3,51.5,84.6,50.5,84.8z"/>
			<path class="st5" d="M50.2,84.8h3.1c0,0,0-0.1,0.1-0.1h-2.8C50.4,84.8,50.3,84.8,50.2,84.8z"/>
			<path class="st12" d="M50.2,84.8h3.1c0,0,0-0.1,0.1-0.1h-2.8C50.4,84.8,50.3,84.8,50.2,84.8z"/>
			<path class="st5" d="M48,84.8c-0.1,0-0.2-0.1-0.3-0.1H35.9h-2.6c0.1,0,0.1,0.1,0.2,0.1h3.4h7.6H48z"/>
			<path class="st12" d="M48,84.8c-0.1,0-0.2-0.1-0.3-0.1H35.9h-2.6c0.1,0,0.1,0.1,0.2,0.1h3.4h7.6H48z"/>
			<path class="st6" d="M53.5,83.7c0.1-0.2,0.1-0.5,0.1-0.8h-2.8c-1.1,0.3-2.3,0.3-3.4,0h-3.8c1.1,0.9,2.6,1.6,4.1,1.8h2.8
				C51.5,84.6,52.6,84.3,53.5,83.7z"/>
			<path class="st12" d="M53.5,83.7c0.1-0.2,0.1-0.5,0.1-0.8h-2.8c-1.1,0.3-2.3,0.3-3.4,0h-3.8c1.1,0.9,2.6,1.6,4.1,1.8h2.8
				C51.5,84.6,52.6,84.3,53.5,83.7z"/>
			<path class="st6" d="M47.7,84.8c0.1,0,0.2,0.1,0.3,0.1h2.2c0.1,0,0.2-0.1,0.3-0.1H47.7z"/>
			<path class="st12" d="M47.7,84.8c0.1,0,0.2,0.1,0.3,0.1h2.2c0.1,0,0.2-0.1,0.3-0.1H47.7z"/>
			<path class="st7" d="M50.7,83h-3.4C48.4,83.3,49.6,83.3,50.7,83z"/>
			<path class="st12" d="M50.7,83h-3.4C48.4,83.3,49.6,83.3,50.7,83z"/>
			<path class="st5" d="M35.5,83h-7.4l0,0c1.7,0.7,3.4,1.3,5.2,1.8h2.6C35.8,84.8,35.6,84,35.5,83z"/>
			<path class="st11" d="M35.5,83h-7.4l0,0c1.7,0.7,3.4,1.3,5.2,1.8h2.6C35.8,84.8,35.6,84,35.5,83z"/>
			<path class="st12" d="M35.5,83h-7.4l0,0c1.7,0.7,3.4,1.3,5.2,1.8h2.6C35.8,84.8,35.6,84,35.5,83z"/>
			<path class="st6" d="M28.1,83L28.1,83L28.1,83L28.1,83z"/>
			<path class="st11" d="M28.1,83L28.1,83L28.1,83L28.1,83z"/>
			<path class="st12" d="M28.1,83L28.1,83L28.1,83L28.1,83z"/>
			<path class="st5" d="M54.6,83c-0.4,0.3-0.7,0.5-1.1,0.8c-0.1,0.5-0.2,0.9-0.2,1h2.5c1.8-0.5,3.5-1.1,5.2-1.8H54.6z"/>
			<path class="st10" d="M54.6,83c-0.4,0.3-0.7,0.5-1.1,0.8c-0.1,0.5-0.2,0.9-0.2,1h2.5c1.8-0.5,3.5-1.1,5.2-1.8H54.6z"/>
			<path class="st12" d="M54.6,83c-0.4,0.3-0.7,0.5-1.1,0.8c-0.1,0.5-0.2,0.9-0.2,1h2.5c1.8-0.5,3.5-1.1,5.2-1.8H54.6z"/>
			<path class="st5" d="M53.2,84.8L53.2,84.8l2.3,0.1c0.1,0,0.1-0.1,0.2-0.1H53.2z"/>
			<path class="st10" d="M53.2,84.8L53.2,84.8l2.3,0.1c0.1,0,0.1-0.1,0.2-0.1H53.2z"/>
			<path class="st12" d="M53.2,84.8L53.2,84.8l2.3,0.1c0.1,0,0.1-0.1,0.2-0.1H53.2z"/>
			<path class="st6" d="M54.6,83h-1c-0.1,0.3-0.1,0.5-0.1,0.8C53.9,83.5,54.2,83.3,54.6,83z"/>
			<path class="st10" d="M54.6,83h-1c-0.1,0.3-0.1,0.5-0.1,0.8C53.9,83.5,54.2,83.3,54.6,83z"/>
			<path class="st12" d="M54.6,83h-1c-0.1,0.3-0.1,0.5-0.1,0.8C53.9,83.5,54.2,83.3,54.6,83z"/>
		</g>
		<path class="st13" d="M44,87.9C19.8,87.9,0,68.2,0,44S19.7,0,44,0s44,19.7,44,44S68.2,87.9,44,87.9z M44,4.5
			C22.2,4.5,4.5,22.2,4.5,44S22.2,83.5,44,83.5S83.5,65.8,83.5,44S65.8,4.5,44,4.5z"/>
	</g>
	<g>
		<path class="st14" d="M124.3,38.2h-6.1v16.6h-5V38.2h-6v-3.8h17v3.8H124.3z"/>
		<path class="st14" d="M143.5,54.8h-4.9v-8.6h-7.2v8.6h-4.9V34.4h4.9v8.1h7.3v-8.1h4.9L143.5,54.8L143.5,54.8z"/>
		<path class="st14" d="M159.2,46.2h-7.8v4.9h9.2v3.8h-14V34.5h14.1v3.8h-9.2v4.3h7.8L159.2,46.2L159.2,46.2z"/>
		<path class="st14" d="M177.7,49.2l4.1-14.8h5.5l-6.9,20.4H175l-6.8-20.4h5.5L177.7,49.2z"/>
		<path class="st14" d="M199.3,51h-6.8l-1.2,3.8H186l7.5-20.4h4.7l7.6,20.4h-5.3L199.3,51z M193.7,47.2h4.4l-2.2-7.1L193.7,47.2z"/>
		<path class="st14" d="M212.2,51h8.6v3.8h-13.5V34.4h4.9V51L212.2,51z"/>
		<path class="st14" d="M238.5,34.4v13.3c0,1.5-0.3,2.8-1,4s-1.6,2-2.8,2.5c-1.2,0.6-2.6,0.9-4.3,0.9c-2.5,0-4.5-0.6-5.9-1.9
			s-2.2-3.1-2.2-5.3V34.5h5V48c0.1,2.2,1.1,3.4,3.1,3.4c1,0,1.8-0.3,2.3-0.8s0.8-1.5,0.8-2.7V34.6h5V34.4L238.5,34.4z"/>
		<path class="st14" d="M254.2,46.2h-7.8v4.9h9.2v3.8h-14V34.5h14.1v3.8h-9.2v4.3h7.8L254.2,46.2L254.2,46.2L254.2,46.2z"/>
		<path class="st14" d="M282.1,45.1c0,2-0.4,3.8-1.1,5.3s-1.8,2.7-3.2,3.6c-1.4,0.8-2.9,1.2-4.7,1.2c-1.8,0-3.3-0.4-4.7-1.2
			s-2.4-2-3.2-3.4c-0.8-1.5-1.2-3.2-1.2-5.1v-1.3c0-2,0.4-3.8,1.1-5.3s1.8-2.7,3.2-3.6c1.4-0.8,2.9-1.3,4.7-1.3
			c1.7,0,3.3,0.4,4.7,1.2c1.4,0.8,2.4,2,3.2,3.5s1.1,3.3,1.1,5.2L282.1,45.1L282.1,45.1z M277.1,44.2c0-2-0.3-3.6-1-4.6
			c-0.7-1.1-1.7-1.6-2.9-1.6c-2.5,0-3.8,1.9-3.9,5.6v1.5c0,2,0.3,3.6,1,4.6c0.7,1.1,1.7,1.6,3,1.6c1.2,0,2.2-0.5,2.9-1.6
			s1-2.6,1-4.6L277.1,44.2L277.1,44.2z"/>
		<path class="st14" d="M297.5,46.7h-8v8.2h-4.9V34.5h13.6v3.8h-8.8V43h8L297.5,46.7L297.5,46.7z"/>
		<path class="st14" d="M322.6,38.2h-6.2v16.6h-4.9V38.2h-6v-3.8h17v3.8H322.6z"/>
		<path class="st14" d="M329.9,54.8H325V34.4h4.9V54.8z"/>
		<path class="st14" d="M339.8,34.4l4.6,14.2l4.6-14.2h6.5v20.4h-5V50l0.5-9.7l-5,14.5h-3.3l-5-14.5l0.5,9.7v4.8h-4.8V34.4H339.8z"
			/>
		<path class="st14" d="M371.2,46.2h-7.8v4.9h9.2v3.8h-14V34.5h14.1v3.8h-9.2v4.3h7.8L371.2,46.2L371.2,46.2L371.2,46.2z"/>
	</g>
</g>
</svg>
