<svg preserveAspectRatio="none slice" xmlns="http://www.w3.org/2000/svg" viewBox="0 0 983.19 426.33"><defs><style>.cls-1{isolation:isolate;}.cls-2{fill:#5eb8e8;}.cls-10,.cls-11,.cls-12,.cls-13,.cls-14,.cls-15,.cls-16,.cls-17,.cls-18,.cls-2,.cls-3,.cls-4,.cls-5,.cls-6,.cls-7,.cls-8,.cls-9{mix-blend-mode:multiply;}.cls-3{fill:#ef62a4;}.cls-4{fill:#27aae1;}.cls-5{fill:#176f6d;}.cls-6{fill:#17bd6d;}.cls-7{fill:#415ba9;}.cls-8{fill:#e63f25;}.cls-9{fill:#ddce22;}.cls-10{fill:#00afb9;}.cls-11{fill:#ff6100;}.cls-12{fill:#b3ff2e;}.cls-13{fill:#e66625;}.cls-14{fill:#b90f00;}.cls-15{fill:#009c7a;}.cls-16{fill:#e77e00;}.cls-17{fill:#3a6ab3;}.cls-18{fill:#04ccd6;}</style></defs><title>new york</title><g class="cls-1"><g id="Layer_2" data-name="Layer 2"><g id="Layer_2-2" data-name="Layer 2"><polygon class="cls-2" points="736.91 292.79 693.83 292.79 672.29 305.71 672.29 426.33 736.91 426.33 736.91 292.79"/><polygon class="cls-2" points="169.08 309.46 131.38 309.46 112.53 320.77 112.53 426.33 169.08 426.33 169.08 309.46"/><polygon class="cls-3" points="368.29 426.33 368.29 275.73 334.86 275.73 320.37 284.57 320.37 426.33 368.29 426.33"/><polygon class="cls-4" points="938.38 426.33 938.38 221.02 904.96 221.02 890.47 233.07 890.47 426.33 938.38 426.33"/><polygon class="cls-5" points="547.62 426.33 547.62 275.73 514.19 275.73 499.7 284.57 499.7 426.33 547.62 426.33"/><polygon class="cls-6" points="510.12 426.33 510.12 330.91 474.23 330.91 458.67 336.51 458.67 426.33 510.12 426.33"/><polygon class="cls-7" points="225.45 289.93 225.45 265.74 220.61 254.72 217.91 254.72 213.26 241.94 209.59 242.53 203.78 225.11 197.78 233.82 197.78 239.32 194.26 239.32 194.26 233.82 188.26 225.11 182.45 242.53 178.78 241.94 174.13 254.72 171.43 254.72 166.59 265.74 166.59 289.93 161.56 289.93 161.56 426.33 189.57 426.33 202.47 426.33 230.48 426.33 230.48 289.93 225.45 289.93"/><polygon class="cls-8" points="645.83 222.02 670.89 222.02 687.15 277.96 687.15 426.33 618.06 426.33 645.83 222.02"/><polygon class="cls-9" points="331.35 270.88 331.35 251.06 327.28 251.06 327.28 233.61 296.69 233.61 296.69 251.06 292.62 251.06 292.62 270.88 287.52 270.88 287.52 426.33 334.92 426.33 334.92 270.88 331.35 270.88"/><path class="cls-10" d="M380.74,201l1.15,1.13c.37.55,3.1,7.53,3.49,8.47s2.85,5.08,3.49,6.22a26.59,26.59,0,0,1,1.89,3.83,11.93,11.93,0,0,0,.76,2.43l.78.46.42.64.42.5.58.75,0,.74.66.58.29.49.23,1,0,1.15.92.67.21-.45-.23-.39,0-.26-.26-.3.17-.41,0-.3-.77-.5.16-2-.6-.75-.83.21-.12-.22.34-.37-.21-.76.09-1.61-2.52.06,0-.26,2.84-.88a2.76,2.76,0,0,1-.37-1.82l-4.58-2.08,0-.41,4.78,1.66.81-.7-5.55-5.38.26-.3,6.28,5.35a2.07,2.07,0,0,1,1.56.19l-1.61-4.63.31-.1,2.58,5,1.83.88,2.07-2.74.3.2-.75,2.46A5,5,0,0,1,405,219c1,.75.85.81.85.81l2.07-.56.08.34-1.63,1.06.61,1.77a18.13,18.13,0,0,1-.34,2.42l.28.5,1.14.33-.18,2.86.58,2c-.29.57-2,.89-2.14,1.61s.09,1.44.66,1.63l1.31-.14c.25,0,.69.53,1.38.89s1-.19,1.57-.07.34,1.39,1.07,1.93.82.12,1.14.46,1.56,2.37,2.1,3,.39,1.08.72,1.62l4.14,7.09v.67l.65.18.77,1.76v4.24c.54.53.59.57.87,1.79a6.51,6.51,0,0,1,.13,2.67l-.53,1.22c0,.5.55,2.94.12,3.58s-1.22.83-1.32,1.4a4,4,0,0,1-3.25,4l1.58,20.64s.11.22-.54.5l.87,6.22s.36,1.7-.38,1.87c0,0,1.15,9.64,1.31,10.51s1.48,6.89,1.64,7l2.29,2.23h5.79v4.6l2.14,1.13-.39,1.06-.71,1v4l1.27,1.21v2.95H439v-.7h2.42v5.54l-.62.34v2h-2.19l-1.76,2v2.39h-.36l1.6,16.85h1.48v1h-.41l-.55.37v1.56H438v9l3.14.54v1l-.54.54,2,.54v1.27l.46.45v1.82l2.45.81.73.46v2.9l-1.37,1.36v6.35l2.45.46v2.44l.81.82v6.43H463.4v9.54H497v13.16H325.73v-10h29.6v-10.2h14.16v-7.37H371v-3.43h1.87v-6.53L371,387.67v-2.32h.89v-1.23h1.2l.67-.87v-1.88h.88v-1.66h2.56V367l-1.44-.44v-.89h1.44V347.17l-1.11-1.55v-.78h-2.21V343l-1-.44V337.1h2.11v1h2v-1.55h1.42v1.1l2.78-.55-.11-3,1.1-1.09v-3.78l-1.89-2.8,2.34.19V322s4.79-1.6,7.05-2.46a17.67,17.67,0,0,0,1.67-6.6c.07-3.4.26-6,.26-6s-.26-2.47-.26-4.2V291.46a9.85,9.85,0,0,1-2.33-5.73c-.2-3.46.34-11.33.34-11.33a28.79,28.79,0,0,1-2.08-9.38,27.12,27.12,0,0,1,.41-6.4s.07-4,.07-6.46,2.06-5.52,2.06-5.52l0-3.86.25-2c-.54.16-1.19-1.35-1-2.41l-1.38.24-.17-1.68c-.41-.48-1.2-.45-1.36-1.5a12.11,12.11,0,0,1,1.19-5.49,20.53,20.53,0,0,0-1.8-4.69,4.67,4.67,0,0,1-1.71-2.79c-.58-2.08-2.67-12.42-2.67-12.42l-.65.32-.2,1.51H380v.81s-.13.89-.81.89-.8-.84-.8-.84l0-.77H378V210.7a.89.89,0,0,1-.7-.81c-.06-.68.31-.49.31-.49l-.1-3.29-.8-.62.76-.56,0-.32s-.94.36-1-.43.88-.77.88-.77V203l-.89-.53.67-.56.07-1.3-.79-.71.41-.73,0-.3s-2.54.27-2.77-1l-.37-.29.64-1.06v-.83a.91.91,0,0,1-.57-1.2l.4.39.39-.75.36.4,1-.37.43-.31.82.32v-1.64s-2.05-.52-1.75-2.42,1.85-1.69,2-1.89l.47-.81h.38l.73-.8.26,1,0,1.34.87-1.22.53.56,1.38-.9.9,0,1.12-1.54.17,1-.33,1.13-1.1.85-.74,1.89-1.66,1.6V194l1-.33.88.4.68-.27.15.44.62-.06c.3.22-.35.56-.38,1.37s.62,1.07.56,1.74-1.05,1.62-2.94,1.4v.41l.37.43-.66.75Z"/><path class="cls-11" d="M622,426.33V187h-.37l-.78-.16v-20l-.34-.08-2.46-.47v-9.42h-.37l-.57-.15V152l-.65-.27v-.17h-.4l-1.91-.81v-1.61h-1.55V147.7h-.4v-1.79h-2.87v-1.32h-.49V141l-.67-.73v-3.45l-.58-.53-.43-3.52-.77-.72-.08-8.34.95-.77v-1h-.85v-.83h1v-1.58h-1.49v-2.41l-1.67-1.93h-.54l-.25-20.25h.46v-.62h-.39L603,79.61l-.68,14.71h-.38v.62h.45l-.23,20.25h-.56l-1.67,1.93v2.41h-1.48v1.58h.94v.83h-.84v1l.94.76-.08,8.34-.78.72-.41,3.52-.57.53v3.45L597,141v3.59h-.19v1.24H594v1.32h-1.09v4.28h-3.42v4.68h-1.17v9h-3.35v20.63h-1.16V426.33Z"/><path class="cls-12" d="M298.18,338.48v-6.27l2-4.45h-2.48v-2.64H216.19v2.64h-2.47l2,4.45v6.27h-5.6v4.95l2.14,3.63v79.27h30.4V369.22a14.31,14.31,0,0,1,28.61,0v57.11h30.4V347.06l2.14-3.63v-4.95Z"/><path class="cls-13" d="M850.69,282.43c-9.93.19-56.37,2.68-70.88,32.56V426.33h70.88Z"/><path class="cls-14" d="M900.36,191.67l1.73-2.13-1-1-1.81.87-3.15-.63S896,165,896,163.65a5.14,5.14,0,0,0-.34-2.18l-1.38-.11s-1.41-.88-1.3-1.11-.34-6.31-.42-7-.88-.88-.8-.95a38.58,38.58,0,0,0-.58-7,3.47,3.47,0,0,0-1.1-1.22,24.47,24.47,0,0,0-.58-7.26c-.15-.57-1.83-1.72-1.79-1.84a16.57,16.57,0,0,0-.77-6.3c-.42-1.15-2.21-2-2.21-2s.23-1,.38-1.53-.8-4-1.07-4.81-1.45-2.14-1.42-2.41c0-.84-.45-6.19-.57-6.8s-.65-2.41-.65-2.41-.08-7-.19-7.76a5.65,5.65,0,0,0-.86-1.8v-.32c0-1.33,0-2.69,0-4.08l-.07-4.22c0-2.82-.07-5.65-.1-8.29,0-1.33,0-2.61,0-3.82s0-2.36-.06-3.42c-.07-4.24-.12-7.06-.12-7.06h-.09L879.72,75c0,1.06,0,2.21-.05,3.42s0,2.49,0,3.82c0,2.64-.07,5.47-.11,8.29,0,1.41,0,2.83-.06,4.22s0,2.75-.05,4.08v.32a5.45,5.45,0,0,0-.86,1.8c-.12.81-.19,7.76-.19,7.76s-.54,1.8-.65,2.41-.54,6-.58,6.8c0,.27-1.14,1.57-1.41,2.41s-1.22,4.28-1.07,4.81.38,1.53.38,1.53-1.8.88-2.22,2A16.6,16.6,0,0,0,872,135c0,.12-1.64,1.27-1.8,1.84a25,25,0,0,0-.57,7.26,3.55,3.55,0,0,0-1.11,1.22,38.64,38.64,0,0,0-.57,7c.08.07-.73.3-.8.95s-.54,6.73-.42,7-1.3,1.11-1.3,1.11l-1.38.11a5.14,5.14,0,0,0-.34,2.18c0,1.38-.14,25.1-.14,25.1l-3.15.63-1.82-.87-.94,1,1.73,2.13v6.94h-1V426.33h43V198.61h-1Z"/><polygon class="cls-15" points="591.83 331.25 591.83 269.46 583.62 254.64 536.42 254.64 536.42 426.33 594.79 426.33 591.83 331.25"/><path class="cls-16" d="M173.26,394.07l-3-.48-74.48-63,1.29-6.26-2.82-1-6.07-.85L43.84,328l1.4,2.85.09,2.89C38.78,335.81,18,342.31,0,347.39v1.53c17.79-5,38.29-11.41,45.38-13.65l.07,2.3C37.83,339.75,18.9,345,0,349.1v1.49c18.77-4,37.6-9.26,45.49-11.51l.07,2.13c-9,2.2-26.27,6.21-45.56,9.48v1.48c19.21-3.24,36.5-7.24,45.6-9.47l.31,10-1.45,4.64L46,373.05,0,365.44v17.88l45.44,6.26c-.1,6.56-.45,28.95-.48,36.75h57.5l-2.58-29.25,67.72,9.32Zm-108-17.85-11.15-1.85V352.23s1.51-6.46,5.66-10.41l2.73,3.39,2.93,3.86Zm18.62-22.45-.6,25.42L72,377.34l-.25-27.2a27.16,27.16,0,0,1,1.61-4.48l10.48,7.91Zm.08-2L74,344.33a18.34,18.34,0,0,1,3.38-4.6l2.45,3,.06-.1L84,349.49ZM100.4,382l-1.93-17.41,29,21.88Zm30.18,5-32.33-24.4-.55-4.9-.93-5.65,47.3,37.18Zm16.49,2.72L96.64,350.1l0-.65,57,41.38ZM96.5,347.57l-.8-15.2,71.79,60.75-10.65-1.76Z"/><path class="cls-17" d="M787.19,426.33l-5.41-322.12-9.49-1.78V92.2h-8.78l-6.85-24.69-.3.08V0h-2.87V67.59l-.3-.08L746.34,92.2h-8.78v10.23l-9.49,1.78-5.41,322.12ZM756.36,77.13l4.18,15.07h-4.18Zm-2.87,0V92.2h-4.18Z"/><polygon class="cls-18" points="980.11 320.45 972.29 320.45 972.29 267.12 969.22 267.12 968.28 268.15 968.28 241.53 966.24 237.69 964.18 241.44 964.18 244.34 962.98 244.34 957.37 229.27 957.33 229.17 957.29 229.27 951.69 244.34 950.48 244.34 950.48 241.44 948.43 237.69 946.38 241.53 946.38 268.15 945.45 267.12 942.37 267.12 942.37 320.45 934.55 320.45 931.47 324.71 931.47 426.33 957.24 426.33 957.42 426.33 983.19 426.33 983.19 324.71 980.11 320.45"/></g></g></g></svg>