<svg xmlns="http://www.w3.org/2000/svg" xmlns:xlink="http://www.w3.org/1999/xlink" viewBox="0 0 2120.94 517.67"><defs><style>.cls-1,.cls-5{fill:none;}.cls-2{fill:#f2f1df;}.cls-3{fill:#bb8c46;}.cls-4{fill:#fee9ca;}.cls-5{stroke:#666;stroke-miterlimit:10;stroke-width:0.57px;}.cls-6{fill:#606060;}.cls-7{fill:#efce99;}.cls-8{fill:#c59452;}.cls-9{clip-path:url(#clip-path);}.cls-10{fill:url(#New_Pattern_2);}.cls-11{fill:url(#New_Pattern_2-3);}.cls-12{fill:url(#New_Pattern_2-5);}.cls-13{fill:#02294f;}.cls-14{fill:#eaeaea;}.cls-15{fill:#ffe0e7;}.cls-16{fill:#b8e5ff;}.cls-17{fill:#e9a367;}.cls-18{fill:#ed5645;}.cls-19{fill:#fff;}.cls-20{fill:#cc3d2d;}.cls-21{fill:#b8362c;}</style><clipPath id="clip-path"><path class="cls-1" d="M1621.6,341.52C1097.42,285.7,539.34,364.23,5.34,328.25c0,0-6.41-47.73-5.18-71.89,1.35-26.64,5.18-72,5.18-72,534,36,1092.08-42.55,1616.26,13.27,0,0-4.27,40.62-5.81,68.39S1621.6,341.52,1621.6,341.52Z"/></clipPath><pattern id="New_Pattern_2" data-name="New Pattern 2" width="47.07" height="53.88" patternTransform="translate(222.89 -21.86) scale(1.15 1.16)" patternUnits="userSpaceOnUse" viewBox="0 0 47.07 53.88"><rect class="cls-1" width="47.07" height="53.88"/><rect class="cls-2" x="26.89" y="42.82" width="40.34" height="22.11"/><rect class="cls-3" x="26.89" y="42.82" width="1.43" height="22.11"/><rect class="cls-4" x="42.46" y="42.82" width="23.14" height="22.11"/><polygon class="cls-5" points="59.88 42.82 52.2 42.82 42.46 42.82 28.33 42.82 26.89 42.82 26.89 64.94 28.33 64.94 42.46 64.94 52.2 64.94 59.88 64.94 65.59 64.94 67.24 64.94 67.24 42.82 65.59 42.82 59.88 42.82"/><path class="cls-6" d="M43.23,55.24a2.38,2.38,0,0,1-2.51,2,3.22,3.22,0,0,1-2.35-1.32l-2.55,1.86a6.38,6.38,0,0,0,4.9,2.57c3.54,0,5.76-2.22,5.76-5.12a4.37,4.37,0,0,0-4.38-4.63,4.14,4.14,0,0,0-2.49.74l.28-1.83h5.6V46.66H37.3L36.23,54l1.42.8A4.52,4.52,0,0,1,41,53.34C42.28,53.34,43.23,54,43.23,55.24Z"/><rect class="cls-1" x="23.53" y="40.41" width="47.07" height="26.94"/><polygon class="cls-5" points="59.88 42.82 52.2 42.82 42.46 42.82 28.33 42.82 26.89 42.82 26.89 64.94 28.33 64.94 42.46 64.94 52.2 64.94 59.88 64.94 65.59 64.94 67.24 64.94 67.24 42.82 65.59 42.82 59.88 42.82"/><rect class="cls-2" x="-20.17" y="42.82" width="40.34" height="22.11"/><rect class="cls-4" x="-4.61" y="42.82" width="23.14" height="22.11"/><rect class="cls-7" x="5.13" y="42.82" width="7.68" height="22.11"/><rect class="cls-8" x="18.53" y="42.82" width="1.64" height="22.11"/><polygon class="cls-5" points="12.82 42.82 5.13 42.82 -4.61 42.82 -18.74 42.82 -20.17 42.82 -20.17 64.94 -18.74 64.94 -4.61 64.94 5.13 64.94 12.82 64.94 18.53 64.94 20.17 64.94 20.17 42.82 18.53 42.82 12.82 42.82"/><path class="cls-6" d="M1.08,53.43c0,3.86,1.15,6.91,5.12,6.91s5-3.05,5-6.91-1.11-7-5-7S1.08,49.52,1.08,53.43Zm3.29,0c0-2.08.5-3.79,1.83-3.79S8,51.35,8,53.43,7.5,57.17,6.2,57.17,4.37,55.48,4.37,53.43Z"/><rect class="cls-1" x="-23.53" y="40.41" width="47.07" height="26.94"/><polygon class="cls-5" points="12.82 42.82 5.13 42.82 -4.61 42.82 -18.74 42.82 -20.17 42.82 -20.17 64.94 -18.74 64.94 -4.61 64.94 5.13 64.94 12.82 64.94 18.53 64.94 20.17 64.94 20.17 42.82 18.53 42.82 12.82 42.82"/><rect class="cls-2" x="3.36" y="15.88" width="40.34" height="22.11"/><rect class="cls-3" x="3.36" y="15.88" width="1.43" height="22.11"/><rect class="cls-4" x="18.92" y="15.88" width="23.14" height="22.11"/><rect class="cls-7" x="28.67" y="15.88" width="7.68" height="22.11"/><rect class="cls-8" x="42.06" y="15.88" width="1.64" height="22.11"/><polygon class="cls-5" points="36.35 15.88 28.67 15.88 18.93 15.88 4.79 15.88 3.36 15.88 3.36 38 4.79 38 18.93 38 28.67 38 36.35 38 42.06 38 43.7 38 43.7 15.88 42.06 15.88 36.35 15.88"/><path class="cls-6" d="M19.69,28.3a2.37,2.37,0,0,1-2.51,2A3.22,3.22,0,0,1,14.84,29l-2.55,1.85a6.37,6.37,0,0,0,4.89,2.57c3.54,0,5.76-2.22,5.76-5.12a4.37,4.37,0,0,0-4.38-4.63,4.18,4.18,0,0,0-2.49.74l.29-1.83H22V19.72H13.77L12.7,27l1.42.8a4.5,4.5,0,0,1,3.33-1.44C18.75,26.4,19.69,27.1,19.69,28.3Z"/><path class="cls-6" d="M24.61,26.49c0,3.86,1.16,6.91,5.13,6.91s5-3,5-6.91-1.11-7-5-7S24.61,22.58,24.61,26.49Zm3.3,0c0-2.08.49-3.79,1.83-3.79s1.75,1.71,1.75,3.79-.46,3.74-1.75,3.74S27.91,28.54,27.91,26.49Z"/><rect class="cls-1" y="13.47" width="47.07" height="26.94"/><polygon class="cls-5" points="36.35 15.88 28.67 15.88 18.93 15.88 4.79 15.88 3.36 15.88 3.36 38 4.79 38 18.93 38 28.67 38 36.35 38 42.06 38 43.7 38 43.7 15.88 42.06 15.88 36.35 15.88"/><rect class="cls-2" x="26.89" y="-11.06" width="40.34" height="22.11"/><rect class="cls-3" x="26.89" y="-11.06" width="1.43" height="22.11"/><rect class="cls-4" x="42.46" y="-11.06" width="23.14" height="22.11"/><polygon class="cls-5" points="59.88 -11.06 52.2 -11.06 42.46 -11.06 28.33 -11.06 26.89 -11.06 26.89 11.06 28.33 11.06 42.46 11.06 52.2 11.06 59.88 11.06 65.59 11.06 67.24 11.06 67.24 -11.06 65.59 -11.06 59.88 -11.06"/><path class="cls-6" d="M43.23,1.36a2.38,2.38,0,0,1-2.51,2,3.24,3.24,0,0,1-2.35-1.31L35.82,3.91a6.38,6.38,0,0,0,4.9,2.57c3.54,0,5.76-2.22,5.76-5.12A4.37,4.37,0,0,0,42.1-3.27a4.14,4.14,0,0,0-2.49.74l.28-1.83h5.6V-7.22H37.3L36.23.1l1.42.8A4.52,4.52,0,0,1,41-.54C42.28-.54,43.23.16,43.23,1.36Z"/><rect class="cls-1" x="23.53" y="-13.47" width="47.07" height="26.94"/><polygon class="cls-5" points="59.88 -11.06 52.2 -11.06 42.46 -11.06 28.33 -11.06 26.89 -11.06 26.89 11.06 28.33 11.06 42.46 11.06 52.2 11.06 59.88 11.06 65.59 11.06 67.24 11.06 67.24 -11.06 65.59 -11.06 59.88 -11.06"/><rect class="cls-2" x="-20.17" y="-11.06" width="40.34" height="22.11"/><rect class="cls-4" x="-4.61" y="-11.06" width="23.14" height="22.11"/><rect class="cls-7" x="5.13" y="-11.06" width="7.68" height="22.11"/><rect class="cls-8" x="18.53" y="-11.06" width="1.64" height="22.11"/><polygon class="cls-5" points="12.82 -11.06 5.13 -11.06 -4.61 -11.06 -18.74 -11.06 -20.17 -11.06 -20.17 11.06 -18.74 11.06 -4.61 11.06 5.13 11.06 12.82 11.06 18.53 11.06 20.17 11.06 20.17 -11.06 18.53 -11.06 12.82 -11.06"/><path class="cls-6" d="M1.08-.45c0,3.86,1.15,6.91,5.12,6.91s5-3,5-6.91-1.11-7-5-7S1.08-4.36,1.08-.45Zm3.29,0c0-2.08.5-3.79,1.83-3.79S8-2.53,8-.45,7.5,3.29,6.2,3.29,4.37,1.6,4.37-.45Z"/><rect class="cls-1" x="-23.53" y="-13.47" width="47.07" height="26.94"/><polygon class="cls-5" points="12.82 -11.06 5.13 -11.06 -4.61 -11.06 -18.74 -11.06 -20.17 -11.06 -20.17 11.06 -18.74 11.06 -4.61 11.06 5.13 11.06 12.82 11.06 18.53 11.06 20.17 11.06 20.17 -11.06 18.53 -11.06 12.82 -11.06"/></pattern><pattern id="New_Pattern_2-3" data-name="New Pattern 2" width="47.07" height="53.88" patternTransform="translate(223.01 -21.86) scale(1.15 1.16)" patternUnits="userSpaceOnUse" viewBox="0 0 47.07 53.88"><rect class="cls-1" width="47.07" height="53.88"/><rect class="cls-2" x="26.89" y="42.82" width="40.34" height="22.11"/><rect class="cls-3" x="26.89" y="42.82" width="1.43" height="22.11"/><rect class="cls-4" x="42.46" y="42.82" width="23.14" height="22.11"/><polygon class="cls-5" points="59.88 42.82 52.2 42.82 42.46 42.82 28.33 42.82 26.89 42.82 26.89 64.94 28.33 64.94 42.46 64.94 52.2 64.94 59.88 64.94 65.59 64.94 67.24 64.94 67.24 42.82 65.59 42.82 59.88 42.82"/><path class="cls-6" d="M43.23,55.24a2.38,2.38,0,0,1-2.51,2,3.22,3.22,0,0,1-2.35-1.32l-2.55,1.86a6.38,6.38,0,0,0,4.9,2.57c3.54,0,5.76-2.22,5.76-5.12a4.37,4.37,0,0,0-4.38-4.63,4.14,4.14,0,0,0-2.49.74l.28-1.83h5.6V46.66H37.3L36.23,54l1.42.8A4.52,4.52,0,0,1,41,53.34C42.28,53.34,43.23,54,43.23,55.24Z"/><rect class="cls-1" x="23.53" y="40.41" width="47.07" height="26.94"/><polygon class="cls-5" points="59.88 42.82 52.2 42.82 42.46 42.82 28.33 42.82 26.89 42.82 26.89 64.94 28.33 64.94 42.46 64.94 52.2 64.94 59.88 64.94 65.59 64.94 67.24 64.94 67.24 42.82 65.59 42.82 59.88 42.82"/><rect class="cls-2" x="-20.17" y="42.82" width="40.34" height="22.11"/><rect class="cls-4" x="-4.61" y="42.82" width="23.14" height="22.11"/><rect class="cls-7" x="5.13" y="42.82" width="7.68" height="22.11"/><rect class="cls-8" x="18.53" y="42.82" width="1.64" height="22.11"/><polygon class="cls-5" points="12.82 42.82 5.13 42.82 -4.61 42.82 -18.74 42.82 -20.17 42.82 -20.17 64.94 -18.74 64.94 -4.61 64.94 5.13 64.94 12.82 64.94 18.53 64.94 20.17 64.94 20.17 42.82 18.53 42.82 12.82 42.82"/><path class="cls-6" d="M1.08,53.43c0,3.86,1.15,6.91,5.12,6.91s5-3.05,5-6.91-1.11-7-5-7S1.08,49.52,1.08,53.43Zm3.29,0c0-2.08.5-3.79,1.83-3.79S8,51.35,8,53.43,7.5,57.17,6.2,57.17,4.37,55.48,4.37,53.43Z"/><rect class="cls-1" x="-23.53" y="40.41" width="47.07" height="26.94"/><polygon class="cls-5" points="12.82 42.82 5.13 42.82 -4.61 42.82 -18.74 42.82 -20.17 42.82 -20.17 64.94 -18.74 64.94 -4.61 64.94 5.13 64.94 12.82 64.94 18.53 64.94 20.17 64.94 20.17 42.82 18.53 42.82 12.82 42.82"/><rect class="cls-2" x="3.36" y="15.88" width="40.34" height="22.11"/><rect class="cls-3" x="3.36" y="15.88" width="1.43" height="22.11"/><rect class="cls-4" x="18.92" y="15.88" width="23.14" height="22.11"/><rect class="cls-7" x="28.67" y="15.88" width="7.68" height="22.11"/><rect class="cls-8" x="42.06" y="15.88" width="1.64" height="22.11"/><polygon class="cls-5" points="36.35 15.88 28.67 15.88 18.93 15.88 4.79 15.88 3.36 15.88 3.36 38 4.79 38 18.93 38 28.67 38 36.35 38 42.06 38 43.7 38 43.7 15.88 42.06 15.88 36.35 15.88"/><path class="cls-6" d="M19.69,28.3a2.37,2.37,0,0,1-2.51,2A3.22,3.22,0,0,1,14.84,29l-2.55,1.85a6.37,6.37,0,0,0,4.89,2.57c3.54,0,5.76-2.22,5.76-5.12a4.37,4.37,0,0,0-4.38-4.63,4.18,4.18,0,0,0-2.49.74l.29-1.83H22V19.72H13.77L12.7,27l1.42.8a4.5,4.5,0,0,1,3.33-1.44C18.75,26.4,19.69,27.1,19.69,28.3Z"/><path class="cls-6" d="M24.61,26.49c0,3.86,1.16,6.91,5.13,6.91s5-3,5-6.91-1.11-7-5-7S24.61,22.58,24.61,26.49Zm3.3,0c0-2.08.49-3.79,1.83-3.79s1.75,1.71,1.75,3.79-.46,3.74-1.75,3.74S27.91,28.54,27.91,26.49Z"/><rect class="cls-1" y="13.47" width="47.07" height="26.94"/><polygon class="cls-5" points="36.35 15.88 28.67 15.88 18.93 15.88 4.79 15.88 3.36 15.88 3.36 38 4.79 38 18.93 38 28.67 38 36.35 38 42.06 38 43.7 38 43.7 15.88 42.06 15.88 36.35 15.88"/><rect class="cls-2" x="26.89" y="-11.06" width="40.34" height="22.11"/><rect class="cls-3" x="26.89" y="-11.06" width="1.43" height="22.11"/><rect class="cls-4" x="42.46" y="-11.06" width="23.14" height="22.11"/><polygon class="cls-5" points="59.88 -11.06 52.2 -11.06 42.46 -11.06 28.33 -11.06 26.89 -11.06 26.89 11.06 28.33 11.06 42.46 11.06 52.2 11.06 59.88 11.06 65.59 11.06 67.24 11.06 67.24 -11.06 65.59 -11.06 59.88 -11.06"/><path class="cls-6" d="M43.23,1.36a2.38,2.38,0,0,1-2.51,2,3.24,3.24,0,0,1-2.35-1.31L35.82,3.91a6.38,6.38,0,0,0,4.9,2.57c3.54,0,5.76-2.22,5.76-5.12A4.37,4.37,0,0,0,42.1-3.27a4.14,4.14,0,0,0-2.49.74l.28-1.83h5.6V-7.22H37.3L36.23.1l1.42.8A4.52,4.52,0,0,1,41-.54C42.28-.54,43.23.16,43.23,1.36Z"/><rect class="cls-1" x="23.53" y="-13.47" width="47.07" height="26.94"/><polygon class="cls-5" points="59.88 -11.06 52.2 -11.06 42.46 -11.06 28.33 -11.06 26.89 -11.06 26.89 11.06 28.33 11.06 42.46 11.06 52.2 11.06 59.88 11.06 65.59 11.06 67.24 11.06 67.24 -11.06 65.59 -11.06 59.88 -11.06"/><rect class="cls-2" x="-20.17" y="-11.06" width="40.34" height="22.11"/><rect class="cls-4" x="-4.61" y="-11.06" width="23.14" height="22.11"/><rect class="cls-7" x="5.13" y="-11.06" width="7.68" height="22.11"/><rect class="cls-8" x="18.53" y="-11.06" width="1.64" height="22.11"/><polygon class="cls-5" points="12.82 -11.06 5.13 -11.06 -4.61 -11.06 -18.74 -11.06 -20.17 -11.06 -20.17 11.06 -18.74 11.06 -4.61 11.06 5.13 11.06 12.82 11.06 18.53 11.06 20.17 11.06 20.17 -11.06 18.53 -11.06 12.82 -11.06"/><path class="cls-6" d="M1.08-.45c0,3.86,1.15,6.91,5.12,6.91s5-3,5-6.91-1.11-7-5-7S1.08-4.36,1.08-.45Zm3.29,0c0-2.08.5-3.79,1.83-3.79S8-2.53,8-.45,7.5,3.29,6.2,3.29,4.37,1.6,4.37-.45Z"/><rect class="cls-1" x="-23.53" y="-13.47" width="47.07" height="26.94"/><polygon class="cls-5" points="12.82 -11.06 5.13 -11.06 -4.61 -11.06 -18.74 -11.06 -20.17 -11.06 -20.17 11.06 -18.74 11.06 -4.61 11.06 5.13 11.06 12.82 11.06 18.53 11.06 20.17 11.06 20.17 -11.06 18.53 -11.06 12.82 -11.06"/></pattern><pattern id="New_Pattern_2-5" data-name="New Pattern 2" width="47.07" height="53.88" patternTransform="translate(222.86 -21.86) scale(1.15 1.16)" patternUnits="userSpaceOnUse" viewBox="0 0 47.07 53.88"><rect class="cls-1" width="47.07" height="53.88"/><rect class="cls-2" x="26.89" y="42.82" width="40.34" height="22.11"/><rect class="cls-3" x="26.89" y="42.82" width="1.43" height="22.11"/><rect class="cls-4" x="42.46" y="42.82" width="23.14" height="22.11"/><polygon class="cls-5" points="59.88 42.82 52.2 42.82 42.46 42.82 28.33 42.82 26.89 42.82 26.89 64.94 28.33 64.94 42.46 64.94 52.2 64.94 59.88 64.94 65.59 64.94 67.24 64.94 67.24 42.82 65.59 42.82 59.88 42.82"/><path class="cls-6" d="M43.23,55.24a2.38,2.38,0,0,1-2.51,2,3.22,3.22,0,0,1-2.35-1.32l-2.55,1.86a6.38,6.38,0,0,0,4.9,2.57c3.54,0,5.76-2.22,5.76-5.12a4.37,4.37,0,0,0-4.38-4.63,4.14,4.14,0,0,0-2.49.74l.28-1.83h5.6V46.66H37.3L36.23,54l1.42.8A4.52,4.52,0,0,1,41,53.34C42.28,53.34,43.23,54,43.23,55.24Z"/><rect class="cls-1" x="23.53" y="40.41" width="47.07" height="26.94"/><polygon class="cls-5" points="59.88 42.82 52.2 42.82 42.46 42.82 28.33 42.82 26.89 42.82 26.89 64.94 28.33 64.94 42.46 64.94 52.2 64.94 59.88 64.94 65.59 64.94 67.24 64.94 67.24 42.82 65.59 42.82 59.88 42.82"/><rect class="cls-2" x="-20.17" y="42.82" width="40.34" height="22.11"/><rect class="cls-4" x="-4.61" y="42.82" width="23.14" height="22.11"/><rect class="cls-7" x="5.13" y="42.82" width="7.68" height="22.11"/><rect class="cls-8" x="18.53" y="42.82" width="1.64" height="22.11"/><polygon class="cls-5" points="12.82 42.82 5.13 42.82 -4.61 42.82 -18.74 42.82 -20.17 42.82 -20.17 64.94 -18.74 64.94 -4.61 64.94 5.13 64.94 12.82 64.94 18.53 64.94 20.17 64.94 20.17 42.82 18.53 42.82 12.82 42.82"/><path class="cls-6" d="M1.08,53.43c0,3.86,1.15,6.91,5.12,6.91s5-3.05,5-6.91-1.11-7-5-7S1.08,49.52,1.08,53.43Zm3.29,0c0-2.08.5-3.79,1.83-3.79S8,51.35,8,53.43,7.5,57.17,6.2,57.17,4.37,55.48,4.37,53.43Z"/><rect class="cls-1" x="-23.53" y="40.41" width="47.07" height="26.94"/><polygon class="cls-5" points="12.82 42.82 5.13 42.82 -4.61 42.82 -18.74 42.82 -20.17 42.82 -20.17 64.94 -18.74 64.94 -4.61 64.94 5.13 64.94 12.82 64.94 18.53 64.94 20.17 64.94 20.17 42.82 18.53 42.82 12.82 42.82"/><rect class="cls-2" x="3.36" y="15.88" width="40.34" height="22.11"/><rect class="cls-3" x="3.36" y="15.88" width="1.43" height="22.11"/><rect class="cls-4" x="18.92" y="15.88" width="23.14" height="22.11"/><rect class="cls-7" x="28.67" y="15.88" width="7.68" height="22.11"/><rect class="cls-8" x="42.06" y="15.88" width="1.64" height="22.11"/><polygon class="cls-5" points="36.35 15.88 28.67 15.88 18.93 15.88 4.79 15.88 3.36 15.88 3.36 38 4.79 38 18.93 38 28.67 38 36.35 38 42.06 38 43.7 38 43.7 15.88 42.06 15.88 36.35 15.88"/><path class="cls-6" d="M19.69,28.3a2.37,2.37,0,0,1-2.51,2A3.22,3.22,0,0,1,14.84,29l-2.55,1.85a6.37,6.37,0,0,0,4.89,2.57c3.54,0,5.76-2.22,5.76-5.12a4.37,4.37,0,0,0-4.38-4.63,4.18,4.18,0,0,0-2.49.74l.29-1.83H22V19.72H13.77L12.7,27l1.42.8a4.5,4.5,0,0,1,3.33-1.44C18.75,26.4,19.69,27.1,19.69,28.3Z"/><path class="cls-6" d="M24.61,26.49c0,3.86,1.16,6.91,5.13,6.91s5-3,5-6.91-1.11-7-5-7S24.61,22.58,24.61,26.49Zm3.3,0c0-2.08.49-3.79,1.83-3.79s1.75,1.71,1.75,3.79-.46,3.74-1.75,3.74S27.91,28.54,27.91,26.49Z"/><rect class="cls-1" y="13.47" width="47.07" height="26.94"/><polygon class="cls-5" points="36.35 15.88 28.67 15.88 18.93 15.88 4.79 15.88 3.36 15.88 3.36 38 4.79 38 18.93 38 28.67 38 36.35 38 42.06 38 43.7 38 43.7 15.88 42.06 15.88 36.35 15.88"/><rect class="cls-2" x="26.89" y="-11.06" width="40.34" height="22.11"/><rect class="cls-3" x="26.89" y="-11.06" width="1.43" height="22.11"/><rect class="cls-4" x="42.46" y="-11.06" width="23.14" height="22.11"/><polygon class="cls-5" points="59.88 -11.06 52.2 -11.06 42.46 -11.06 28.33 -11.06 26.89 -11.06 26.89 11.06 28.33 11.06 42.46 11.06 52.2 11.06 59.88 11.06 65.59 11.06 67.24 11.06 67.24 -11.06 65.59 -11.06 59.88 -11.06"/><path class="cls-6" d="M43.23,1.36a2.38,2.38,0,0,1-2.51,2,3.24,3.24,0,0,1-2.35-1.31L35.82,3.91a6.38,6.38,0,0,0,4.9,2.57c3.54,0,5.76-2.22,5.76-5.12A4.37,4.37,0,0,0,42.1-3.27a4.14,4.14,0,0,0-2.49.74l.28-1.83h5.6V-7.22H37.3L36.23.1l1.42.8A4.52,4.52,0,0,1,41-.54C42.28-.54,43.23.16,43.23,1.36Z"/><rect class="cls-1" x="23.53" y="-13.47" width="47.07" height="26.94"/><polygon class="cls-5" points="59.88 -11.06 52.2 -11.06 42.46 -11.06 28.33 -11.06 26.89 -11.06 26.89 11.06 28.33 11.06 42.46 11.06 52.2 11.06 59.88 11.06 65.59 11.06 67.24 11.06 67.24 -11.06 65.59 -11.06 59.88 -11.06"/><rect class="cls-2" x="-20.17" y="-11.06" width="40.34" height="22.11"/><rect class="cls-4" x="-4.61" y="-11.06" width="23.14" height="22.11"/><rect class="cls-7" x="5.13" y="-11.06" width="7.68" height="22.11"/><rect class="cls-8" x="18.53" y="-11.06" width="1.64" height="22.11"/><polygon class="cls-5" points="12.82 -11.06 5.13 -11.06 -4.61 -11.06 -18.74 -11.06 -20.17 -11.06 -20.17 11.06 -18.74 11.06 -4.61 11.06 5.13 11.06 12.82 11.06 18.53 11.06 20.17 11.06 20.17 -11.06 18.53 -11.06 12.82 -11.06"/><path class="cls-6" d="M1.08-.45c0,3.86,1.15,6.91,5.12,6.91s5-3,5-6.91-1.11-7-5-7S1.08-4.36,1.08-.45Zm3.29,0c0-2.08.5-3.79,1.83-3.79S8-2.53,8-.45,7.5,3.29,6.2,3.29,4.37,1.6,4.37-.45Z"/><rect class="cls-1" x="-23.53" y="-13.47" width="47.07" height="26.94"/><polygon class="cls-5" points="12.82 -11.06 5.13 -11.06 -4.61 -11.06 -18.74 -11.06 -20.17 -11.06 -20.17 11.06 -18.74 11.06 -4.61 11.06 5.13 11.06 12.82 11.06 18.53 11.06 20.17 11.06 20.17 -11.06 18.53 -11.06 12.82 -11.06"/></pattern></defs><title>plane</title><g id="Layer_2" data-name="Layer 2"><g id="Layer_2-2" data-name="Layer 2"><g class="cls-9"><rect class="cls-10" width="708.73" height="517.67"/><rect class="cls-11" x="705.09" width="708.73" height="517.67"/><rect class="cls-12" x="1409.91" width="708.73" height="517.67"/></g><path class="cls-13" d="M1711.74,264.59c-18.87-5.88-37.06-13.86-54.72-22.67-15.47-7.71-30.76-16.08-45-25.87-1.16-.8-2.25,1.08-1.1,1.87,14.7,10.09,30.46,18.68,46.42,26.57,17.39,8.61,35.3,16.42,53.84,22.19,1.34.42,1.91-1.68.58-2.09Z"/><path class="cls-13" d="M1612.19,324.55c16.14-10.62,32.24-21.35,49-30.94s34.45-18.25,51.84-27c1.25-.63.15-2.51-1.1-1.88-17.39,8.77-34.92,17.35-51.83,27s-32.88,20.32-49,30.93c-1.16.77-.08,2.65,1.09,1.88Z"/><path class="cls-13" d="M1613.61,216a3.13,3.13,0,1,1-3.13-3.13A3.13,3.13,0,0,1,1613.61,216Z"/><path class="cls-13" d="M1613.61,322.86a3.13,3.13,0,1,1-3.13-3.12A3.13,3.13,0,0,1,1613.61,322.86Z"/><polygon class="cls-14" points="1763.59 317.1 1766.51 337.35 1769.48 336.92 1766.66 317.35 1763.59 317.1"/><polygon class="cls-14" points="1798.13 325.25 1776.88 342.24 1778.75 344.58 1802.34 325.73 1798.13 325.25"/><path class="cls-13" d="M1781.23,354.23a11.2,11.2,0,1,1-6.26-14.55A11.21,11.21,0,0,1,1781.23,354.23Z"/><path class="cls-15" d="M1768.28,356.48a6.88,6.88,0,1,1,8.93-3.85A6.9,6.9,0,0,1,1768.28,356.48Zm4.3-10.82a4.76,4.76,0,1,0,2.67,6.19A4.77,4.77,0,0,0,1772.58,345.66Z"/><path class="cls-14" d="M1761.18,342.3a21.42,21.42,0,0,1,12.69,1.25,21.88,21.88,0,0,1,9.77,7.32,4.37,4.37,0,0,0,3-2.35c1.34-3.38-3.46-8.45-10.72-11.34s-14.23-2.5-15.58.88A4.65,4.65,0,0,0,1761.18,342.3Z"/><path class="cls-16" d="M1916.2,245.82a54.36,54.36,0,0,0-7.7-13.07v45.33l11.79-9.4A54.86,54.86,0,0,0,1916.2,245.82Z"/><circle class="cls-17" cx="1881.3" cy="248.04" r="15.41" transform="translate(375.63 1402.93) rotate(-45)"/><path class="cls-13" d="M1893.28,236.28a17,17,0,1,0-13.55,27.17c.35,0,.69,0,1-.05C1874.23,253.59,1878.31,236.85,1893.28,236.28Z"/><path class="cls-13" d="M1897.36,248c0,2.43-2.39,4.4-5.35,4.4s-5.36-2-5.36-4.4,2.4-4.39,5.36-4.39S1897.36,245.62,1897.36,248Z"/><rect class="cls-13" x="1876.54" y="244.97" width="13.3" height="3.37" rx="0.62" ry="0.62"/><rect class="cls-13" x="1873.67" y="262.33" width="11.2" height="11.2" rx="2.05" ry="2.05"/><rect class="cls-13" x="1862.76" y="267.24" width="42.04" height="20.1" rx="3.68" ry="3.68" transform="matrix(0.98, 0.22, -0.22, 0.98, 103.99, -399.38)"/><polygon class="cls-14" points="1981.91 367.87 1988.5 397.03 1992.77 396.06 1986.4 367.87 1981.91 367.87"/><polygon class="cls-14" points="2034.15 367.87 2006.04 395.98 2009.14 399.08 2040.35 367.87 2034.15 367.87"/><path class="cls-18" d="M1761.6,198.76h-12.8a12,12,0,0,0-12,12v76.57h24.81c16.38,0,55.43-10.4,55.43-23.11,0,0-20.31-31-25.65-42.36C1785.76,209.93,1778,198.76,1761.6,198.76Z"/><path class="cls-14" d="M2098.18,331.33c0,.16,0,.32,0,.48,6.8-5.76,11.34-16,11.34-27.69h-11.31Z"/><path class="cls-19" d="M2098.15,276.43c0,.16,0,.32,0,.48v27.21h11.31C2109.49,292.42,2105,282.19,2098.15,276.43Z"/><path class="cls-18" d="M2098.15,276.43a13.61,13.61,0,0,0-13.45-13.15H1915.51c-6.22,9.84-17.47,16.73-29.13,16.73a34,34,0,0,1-29.44-16.73H1724.59c-4.41,0-14.46-1.13-14.46,4.87,0,3.44,7.62,12.55,9.46,14.56h0c5.43,5.65,13,13.16,22.36,21.42h356.28V276.91C2098.18,276.75,2098.16,276.59,2098.15,276.43Z"/><path class="cls-20" d="M2061.51,304.12H1741.9c4.63,4.07,9.69,8.32,15.19,12.63,54.52,42.76,109.28,58.59,152.11,63.43,37.68,4.26,66.12,0,77-1.87a288.75,288.75,0,0,0,78.81-26.1q6.78-3.34,13.82-7.24h5.66a13.62,13.62,0,0,0,13.61-13.16c0-.16,0-.32,0-.48V304.12Z"/><path class="cls-13" d="M2110.38,225.45a1.88,1.88,0,0,0-1.35.77v75.45a1.86,1.86,0,0,0,1.35.76c3.75,0,6.78-17.23,6.78-38.49S2114.13,225.45,2110.38,225.45Z"/><path class="cls-13" d="M2110.38,305.81a1.86,1.86,0,0,0-1.35.76V382a1.86,1.86,0,0,0,1.35.76c3.75,0,6.78-17.23,6.78-38.48S2114.13,305.81,2110.38,305.81Z"/><path class="cls-13" d="M2106.61,288.75v30.73c8.21-1.62,14.33-7.88,14.33-15.36S2114.82,290.38,2106.61,288.75Z"/><rect class="cls-19" x="1943.32" y="223.12" width="4.92" height="143.31"/><rect class="cls-19" x="2054.75" y="223.12" width="4.92" height="143.31" transform="translate(4114.42 589.56) rotate(180)"/><polygon class="cls-19" points="2058.38 357.58 2057.63 353.19 1945.55 233.48 1946.54 238.11 2058.38 357.58"/><polygon class="cls-19" points="1946.96 354.66 1946.83 351.16 2057.41 232.95 2057.14 236.86 1946.96 354.66"/><ellipse class="cls-21" cx="2001.5" cy="224.92" rx="79.61" ry="9.93"/><ellipse class="cls-21" cx="2001.5" cy="368.24" rx="79.61" ry="9.93"/><circle class="cls-13" cx="1999.27" cy="411.9" r="16.37" transform="translate(-41.82 438.27) rotate(-12.38)"/><path class="cls-15" d="M1999.27,422a10.05,10.05,0,1,1,10-10.05A10.06,10.06,0,0,1,1999.27,422Zm0-17a7,7,0,1,0,7,7A7,7,0,0,0,1999.27,404.94Z"/><path class="cls-14" d="M1982,406.54a31.33,31.33,0,0,1,17.9-5.16,32,32,0,0,1,17.22,4.66c1.77-1.42,2.8-3.05,2.8-4.81,0-5.31-9.26-9.61-20.69-9.61s-20.68,4.3-20.68,9.61C1978.52,403.2,1979.8,405,1982,406.54Z"/><path class="cls-20" d="M2090.88,272.86h-7.07c-3,0-5.42,1.93-5.42,4.29s2.44,4.29,5.42,4.29h7.07c3,0,5.42-1.93,5.42-4.29S2093.86,272.86,2090.88,272.86Z"/><path class="cls-20" d="M2090.88,288.49h-7.07a5.42,5.42,0,1,0,0,10.83h7.07a5.42,5.42,0,1,0,0-10.83Z"/><path class="cls-21" d="M2090.88,335.38h-7.07c-3,0-5.42-1.93-5.42-4.29s2.44-4.29,5.42-4.29h7.07c3,0,5.42,1.93,5.42,4.29S2093.86,335.38,2090.88,335.38Z"/><path class="cls-21" d="M2090.88,319.75h-7.07a5.42,5.42,0,1,1,0-10.83h7.07a5.42,5.42,0,1,1,0,10.83Z"/><ellipse class="cls-21" cx="1779.4" cy="278.9" rx="54.72" ry="5.99"/><path class="cls-20" d="M1741.86,198.76h11.38a0,0,0,0,1,0,0v56.66a0,0,0,0,1,0,0h-16.45a0,0,0,0,1,0,0V203.83A5.07,5.07,0,0,1,1741.86,198.76Z"/></g></g></svg>