<svg xmlns="http://www.w3.org/2000/svg" viewBox="0 0 19 15.44"><defs><style>.cls-1{fill:#333;fill-rule:evenodd;}</style></defs><title>share-icon-tw-0</title><g id="Layer_2" data-name="Layer 2"><g id="Layer_1-2" data-name="Layer 1"><path class="cls-1" d="M17.06,3.85A11,11,0,0,1,6,15.44a11,11,0,0,1-6-1.75,7.87,7.87,0,0,0,5.77-1.61A3.91,3.91,0,0,1,2.13,9.37,3.85,3.85,0,0,0,3.89,9.3,3.9,3.9,0,0,1,.76,5.43a3.94,3.94,0,0,0,1.77.49A3.91,3.91,0,0,1,1.32.71a11.12,11.12,0,0,0,8,4.08A3.9,3.9,0,0,1,16,1.23,7.91,7.91,0,0,0,18.48.29a4,4,0,0,1-1.72,2.15A7.66,7.66,0,0,0,19,1.83,7.93,7.93,0,0,1,17.06,3.85Z"/></g></g></svg>