<?xml version="1.0" encoding="utf-8"?>
<!-- Generator: Adobe Illustrator 22.1.0, SVG Export Plug-In . SVG Version: 6.00 Build 0)  -->
<svg version="1.1" xmlns="http://www.w3.org/2000/svg" xmlns:xlink="http://www.w3.org/1999/xlink" x="0px" y="0px"
	 viewBox="0 0 35.2 32.8" style="enable-background:new 0 0 35.2 32.8;" xml:space="preserve">
<style type="text/css">
	.st0{fill:#FFFFFF;}
</style>
<g id="Layer_1">
	<path class="st0" d="M27.6,19.6c0,5.5-4.5,10-10,10s-10-4.5-10-10s4.5-10,10-10S27.6,14.1,27.6,19.6z M29.6,19.6
		c0-6.6-5.4-12-12-12s-12,5.4-12,12s5.4,12,12,12S29.6,26.2,29.6,19.6z M17.6,21.6l-4.5-4.5l-1.5,1.5l6,6l6-6l-1.5-1.5L17.6,21.6z"
		/>
</g>
<g id="Layer_2">
</g>
<g id="Layer_3">
	<g>
		<path class="st0" d="M6.5,10C6.4,9.9,6.2,9.8,6.1,9.9S5.8,10,5.6,10.1c-0.2,0.1-0.4,0.3-0.6,0.3c-0.4,0.2-0.8,0.2-1.1-0.1
			c-0.2-0.1-0.3-0.3-0.3-0.4c-0.1-0.2,0-0.4,0-0.6C3.7,9.2,3.9,9,4,8.8c0.2-0.2,0.3-0.3,0.5-0.4c0.2-0.1,0.4-0.1,0.6-0.1
			c0.2,0,0.4,0.1,0.6,0.2L5.2,9C5.1,8.9,5,8.8,4.8,8.9C4.7,8.9,4.6,9,4.5,9.1C4.4,9.3,4.3,9.4,4.3,9.5c0,0.1,0,0.2,0.1,0.3
			c0.1,0.1,0.2,0.1,0.3,0c0.1,0,0.3-0.1,0.5-0.3c0.4-0.3,0.7-0.4,0.9-0.4c0.3,0,0.5,0,0.7,0.2c0.2,0.2,0.4,0.4,0.4,0.7
			c0,0.3-0.1,0.6-0.4,0.9c-0.2,0.2-0.4,0.4-0.6,0.5c-0.2,0.1-0.4,0.2-0.6,0.2c-0.2,0-0.4-0.1-0.6-0.2l0.5-0.6
			c0.3,0.2,0.6,0.2,0.9-0.2c0.1-0.1,0.2-0.3,0.2-0.4C6.6,10.1,6.6,10,6.5,10z"/>
		<path class="st0" d="M10.1,7.9L9.6,8.3l-1-1.2L7.5,8.1l1,1.2L7.9,9.7L5.7,6.9l0.6-0.5l0.9,1.1l1.1-0.9L7.3,5.6l0.6-0.5L10.1,7.9z"
			/>
		<path class="st0" d="M12.1,6.1l-1.2,0.5L11,7.4l-0.7,0.3L10,4l0.6-0.3l2.7,2.7l-0.7,0.3L12.1,6.1z M10.8,6l0.8-0.4l-1-1L10.8,6z"
			/>
		<path class="st0" d="M14.5,4.8l-0.6,0.1l0.3,1.3l-0.7,0.2l-0.8-3.5L14,2.6c0.4-0.1,0.7-0.1,1,0.1c0.3,0.1,0.4,0.4,0.5,0.7
			c0.1,0.2,0,0.4,0,0.6c-0.1,0.2-0.2,0.3-0.4,0.5l1.1,1.3l0,0l-0.8,0.2L14.5,4.8z M13.8,4.3l0.6-0.1c0.2,0,0.3-0.1,0.4-0.2
			c0.1-0.1,0.1-0.2,0.1-0.4c0-0.2-0.1-0.3-0.2-0.4s-0.3-0.1-0.5,0l-0.6,0.1L13.8,4.3z"/>
		<path class="st0" d="M18.6,4.2l-1.4,0l0,1l1.6,0l0,0.6l-2.4,0l0-3.6l2.4,0l0,0.6l-1.6,0l0,0.8l1.4,0L18.6,4.2z"/>
		<path class="st0" d="M23.5,3.8l-1-0.3l-0.8,2.9L21,6.2l0.8-2.9l-1-0.3l0.2-0.6l2.8,0.8L23.5,3.8z"/>
		<path class="st0" d="M25.5,8.1l-0.6-0.4l0.7-1.3l-1.3-0.7l-0.7,1.3l-0.6-0.4l1.7-3.1L25.3,4l-0.7,1.3l1.3,0.7l0.7-1.3L27.2,5
			L25.5,8.1z"/>
		<path class="st0" d="M26.5,9l-0.6-0.5l2.2-2.8l0.6,0.5L26.5,9z"/>
		<path class="st0" d="M28.9,10C29,9.9,29,9.8,29,9.7c0-0.1-0.1-0.3-0.2-0.5c-0.1-0.2-0.2-0.4-0.2-0.6c-0.1-0.4,0-0.8,0.2-1
			c0.1-0.1,0.3-0.2,0.5-0.2c0.2,0,0.4,0,0.6,0.1c0.2,0.1,0.4,0.2,0.6,0.4c0.2,0.2,0.3,0.4,0.4,0.6c0.1,0.2,0.1,0.4,0,0.6
			c0,0.2-0.2,0.4-0.3,0.5L30,9c0.1-0.1,0.2-0.2,0.2-0.4S30.1,8.3,30,8.2C29.9,8.1,29.8,8,29.6,8c-0.1,0-0.2,0-0.3,0.1
			c-0.1,0.1-0.1,0.2-0.1,0.3c0,0.1,0.1,0.3,0.2,0.5c0.2,0.4,0.3,0.7,0.3,1c0,0.3-0.1,0.5-0.3,0.7c-0.2,0.2-0.5,0.3-0.8,0.2
			c-0.3-0.1-0.6-0.2-0.8-0.5c-0.2-0.2-0.3-0.4-0.4-0.7c-0.1-0.2-0.1-0.5,0-0.7c0-0.2,0.2-0.4,0.3-0.5L28.1,9c-0.3,0.3-0.3,0.6,0,0.9
			c0.1,0.1,0.2,0.2,0.4,0.2C28.7,10.1,28.8,10.1,28.9,10z"/>
	</g>
</g>
</svg>
