<?xml version="1.0" encoding="utf-8"?>
<!-- Generator: Adobe Illustrator 22.1.0, SVG Export Plug-In . SVG Version: 6.00 Build 0)  -->
<svg version="1.1" xmlns="http://www.w3.org/2000/svg" xmlns:xlink="http://www.w3.org/1999/xlink" x="0px" y="0px"
	 viewBox="0 0 35.2 32.8" style="enable-background:new 0 0 35.2 32.8;" xml:space="preserve">
<style type="text/css">
	.st0{fill:#FFFFFF;}
</style>
<g id="Layer_1">
	<path class="st0" d="M27.6,19.6c0,5.5-4.5,10-10,10s-10-4.5-10-10s4.5-10,10-10S27.6,14.1,27.6,19.6z M29.6,19.6
		c0-6.6-5.4-12-12-12s-12,5.4-12,12s5.4,12,12,12S29.6,26.2,29.6,19.6z M17.6,21.6l-4.5-4.5l-1.5,1.5l6,6l6-6l-1.5-1.5L17.6,21.6z"
		/>
</g>
<g id="Layer_2">
</g>
<g id="Layer_3">
	<g>
		<path class="st0" d="M9.2,7.5C9.1,7.4,9,7.3,8.9,7.3c-0.1,0-0.3,0-0.6,0.1C8.1,7.5,7.9,7.6,7.7,7.6c-0.5,0.1-0.8,0-1-0.3
			C6.6,7.1,6.5,7,6.5,6.8c0-0.2,0-0.4,0.2-0.6C6.7,6,6.9,5.9,7.1,5.7c0.2-0.2,0.4-0.3,0.6-0.3c0.2,0,0.4,0,0.6,0
			c0.2,0.1,0.3,0.2,0.5,0.4L8.2,6.2C8.1,6.1,8,6,7.9,6c-0.1,0-0.3,0-0.4,0.2C7.3,6.3,7.2,6.4,7.2,6.5c0,0.1,0,0.2,0.1,0.3
			C7.3,6.9,7.4,7,7.6,7s0.3-0.1,0.5-0.1c0.4-0.2,0.7-0.2,1-0.2c0.3,0,0.5,0.2,0.6,0.4C9.9,7.3,10,7.5,9.9,7.8
			C9.8,8.1,9.7,8.4,9.3,8.6C9.1,8.8,8.9,8.9,8.7,8.9C8.4,9,8.2,9,8,8.9C7.8,8.8,7.6,8.7,7.5,8.5l0.6-0.4c0.2,0.3,0.5,0.3,0.9,0
			C9.1,8,9.2,7.9,9.2,7.8C9.3,7.7,9.3,7.6,9.2,7.5z"/>
		<path class="st0" d="M12.6,4.8c0.1,0.3,0.2,0.6,0.2,0.9c0,0.3-0.1,0.5-0.2,0.8c-0.1,0.2-0.4,0.4-0.6,0.5c-0.3,0.1-0.5,0.2-0.8,0.1
			c-0.3,0-0.5-0.1-0.7-0.3C10.2,6.7,10,6.4,9.8,6.1L9.8,5.9C9.6,5.6,9.5,5.3,9.5,5c0-0.3,0.1-0.6,0.2-0.8c0.2-0.2,0.4-0.4,0.6-0.5
			s0.5-0.2,0.8-0.1c0.3,0,0.5,0.1,0.7,0.3c0.2,0.2,0.4,0.4,0.6,0.8L12.6,4.8z M11.8,5c-0.2-0.3-0.3-0.6-0.5-0.7s-0.4-0.1-0.6,0
			c-0.2,0.1-0.4,0.3-0.4,0.5c0,0.2,0,0.5,0.2,0.8l0.1,0.2c0.2,0.3,0.3,0.6,0.5,0.7c0.2,0.1,0.4,0.1,0.6,0C11.9,6.4,12,6.2,12.1,6
			c0-0.2,0-0.5-0.2-0.8L11.8,5z"/>
		<path class="st0" d="M15.5,2.3L16,4.6c0.1,0.4,0,0.7-0.2,1c-0.2,0.3-0.5,0.4-0.9,0.5c-0.4,0.1-0.8,0-1-0.1
			c-0.3-0.2-0.5-0.4-0.5-0.8l-0.5-2.3l0.7-0.1L14.1,5c0,0.2,0.1,0.4,0.3,0.5c0.1,0.1,0.3,0.1,0.5,0.1c0.4-0.1,0.6-0.3,0.5-0.8
			l-0.5-2.3L15.5,2.3z"/>
		<path class="st0" d="M18,4.5l-0.6,0l0,1.3l-0.7,0l0.1-3.6l1.3,0c0.4,0,0.7,0.1,1,0.3c0.2,0.2,0.3,0.5,0.3,0.8
			c0,0.2-0.1,0.4-0.2,0.6c-0.1,0.2-0.3,0.3-0.5,0.4l0.7,1.5l0,0l-0.8,0L18,4.5z M17.5,3.8l0.6,0c0.2,0,0.3,0,0.4-0.1
			c0.1-0.1,0.2-0.2,0.2-0.4c0-0.2,0-0.3-0.1-0.4c-0.1-0.1-0.2-0.1-0.4-0.2l-0.6,0L17.5,3.8z"/>
		<path class="st0" d="M22.7,5.4c-0.1,0.4-0.3,0.6-0.6,0.8c-0.3,0.2-0.7,0.2-1.1,0.1c-0.4-0.1-0.8-0.3-0.9-0.7S19.9,4.7,20,4.2
			L20.1,4c0.1-0.3,0.2-0.6,0.4-0.8c0.2-0.2,0.4-0.4,0.6-0.5c0.3-0.1,0.5-0.1,0.8,0c0.4,0.1,0.7,0.3,0.9,0.6C23,3.5,23,3.9,23,4.2
			l-0.7-0.2c0-0.2,0-0.4-0.1-0.5c-0.1-0.1-0.2-0.2-0.4-0.3c-0.2-0.1-0.4,0-0.6,0.1s-0.3,0.4-0.4,0.7l-0.1,0.3
			c-0.1,0.4-0.1,0.7,0,0.9c0.1,0.2,0.2,0.3,0.5,0.4c0.2,0.1,0.4,0,0.5,0c0.1-0.1,0.2-0.2,0.3-0.4L22.7,5.4z"/>
		<path class="st0" d="M25.3,6.2L24,5.6l-0.4,0.9l1.5,0.7l-0.3,0.5l-2.1-1l1.6-3.2l2.1,1l-0.3,0.5l-1.5-0.7l-0.4,0.8l1.3,0.6
			L25.3,6.2z"/>
		<path class="st0" d="M27.1,8.3c0.1-0.1,0.1-0.2,0.1-0.3c0-0.1-0.1-0.3-0.3-0.5c-0.2-0.2-0.3-0.4-0.3-0.6c-0.2-0.4-0.2-0.8,0.1-1.1
			c0.1-0.2,0.3-0.3,0.4-0.3s0.4-0.1,0.6,0c0.2,0.1,0.4,0.2,0.6,0.3c0.2,0.2,0.4,0.3,0.5,0.5c0.1,0.2,0.1,0.4,0.1,0.6
			c0,0.2-0.1,0.4-0.2,0.6L28,7c0.1-0.1,0.1-0.3,0.1-0.4c0-0.1-0.1-0.3-0.3-0.4c-0.1-0.1-0.3-0.2-0.4-0.2c-0.1,0-0.2,0-0.3,0.1
			c-0.1,0.1-0.1,0.2,0,0.3c0,0.1,0.1,0.3,0.3,0.5c0.3,0.4,0.4,0.7,0.4,0.9c0,0.3,0,0.5-0.2,0.7c-0.2,0.2-0.4,0.4-0.7,0.4
			c-0.3,0-0.6-0.1-0.9-0.4c-0.2-0.2-0.4-0.4-0.5-0.6c-0.1-0.2-0.2-0.4-0.2-0.6s0.1-0.4,0.2-0.6l0.6,0.4C26,7.7,26,8,26.4,8.2
			c0.1,0.1,0.3,0.2,0.4,0.2S27,8.4,27.1,8.3z"/>
	</g>
</g>
</svg>
