<?xml version="1.0" encoding="utf-8"?>
<!-- Generator: Adobe Illustrator 22.1.0, SVG Export Plug-In . SVG Version: 6.00 Build 0)  -->
<svg version="1.1" xmlns="http://www.w3.org/2000/svg" xmlns:xlink="http://www.w3.org/1999/xlink" x="0px" y="0px"
	 viewBox="0 0 35.2 32.8" style="enable-background:new 0 0 35.2 32.8;" xml:space="preserve">
<style type="text/css">
	.st0{fill:#FFFFFF;}
</style>
<g id="Layer_1">
	<path class="st0" d="M27.6,19.6c0,5.5-4.5,10-10,10s-10-4.5-10-10s4.5-10,10-10S27.6,14.1,27.6,19.6z M29.6,19.6
		c0-6.6-5.4-12-12-12s-12,5.4-12,12s5.4,12,12,12S29.6,26.2,29.6,19.6z M17.6,21.6l-4.5-4.5l-1.5,1.5l6,6l6-6l-1.5-1.5L17.6,21.6z"
		/>
</g>
<g id="Layer_2">
</g>
<g id="Layer_3">
	<g>
		<path class="st0" d="M6.6,9.8C6.5,9.8,6.3,9.7,6.2,9.8c-0.1,0-0.3,0.1-0.5,0.3c-0.2,0.1-0.4,0.3-0.6,0.3c-0.4,0.2-0.8,0.2-1.1-0.1
			C3.9,10.1,3.8,10,3.8,9.8c0-0.2,0-0.4,0-0.6C3.9,9,4,8.8,4.1,8.6c0.2-0.2,0.3-0.3,0.5-0.4C4.8,8.1,5,8,5.2,8.1
			c0.2,0,0.4,0.1,0.5,0.2L5.3,8.9C5.2,8.8,5.1,8.7,4.9,8.7S4.7,8.8,4.6,9C4.5,9.1,4.4,9.3,4.4,9.4c0,0.1,0,0.2,0.1,0.3
			c0.1,0.1,0.2,0.1,0.3,0c0.1,0,0.3-0.1,0.5-0.3C5.7,9.2,6,9.1,6.3,9c0.3,0,0.5,0,0.7,0.2C7.3,9.5,7.4,9.7,7.4,10
			c0,0.3-0.1,0.6-0.4,0.9c-0.2,0.2-0.4,0.4-0.6,0.5c-0.2,0.1-0.4,0.2-0.6,0.1c-0.2,0-0.4-0.1-0.6-0.2l0.5-0.6
			c0.3,0.2,0.6,0.2,0.9-0.2c0.1-0.1,0.2-0.3,0.2-0.4C6.7,10,6.7,9.9,6.6,9.8z"/>
		<path class="st0" d="M8.2,5.6L7.4,6.3l1.9,2.3L8.7,9.1L6.8,6.8L6,7.4L5.6,7l2.2-1.8L8.2,5.6z"/>
		<path class="st0" d="M11.5,6.4L10.4,7l0.1,0.8L9.8,8.1L9.3,4.3L9.9,4l2.8,2.5L12,6.9L11.5,6.4z M10.3,6.3L11,5.9l-1-1L10.3,6.3z"
			/>
		<path class="st0" d="M13.9,4.9l-0.6,0.1l0.3,1.3l-0.7,0.2L12,3.1l1.3-0.3c0.4-0.1,0.7-0.1,1,0c0.3,0.1,0.4,0.3,0.5,0.7
			c0.1,0.2,0.1,0.4,0,0.6s-0.2,0.3-0.4,0.5l1.1,1.2l0,0L14.8,6L13.9,4.9z M13.1,4.5l0.6-0.1c0.2,0,0.3-0.1,0.4-0.2
			c0.1-0.1,0.1-0.3,0-0.4c0-0.2-0.1-0.3-0.2-0.3s-0.3-0.1-0.5,0l-0.6,0.1L13.1,4.5z"/>
		<path class="st0" d="M18.3,2.7l-1.1,0.1l0.1,3l-0.7,0l-0.1-3l-1.1,0l0-0.6l2.9-0.1L18.3,2.7z"/>
		<path class="st0" d="M22.5,6.6l-0.7-0.2l0.4-1.5l-1.4-0.4L20.4,6l-0.7-0.2l0.9-3.4l0.7,0.2L20.9,4l1.4,0.4l0.4-1.4l0.7,0.2
			L22.5,6.6z"/>
		<path class="st0" d="M25.5,6.4l-1.3-0.6l-0.4,0.8l1.5,0.8L25,7.8l-2.1-1.1l1.6-3.2l2.1,1.1l-0.3,0.5l-1.5-0.8l-0.4,0.8l1.3,0.6
			L25.5,6.4z"/>
		<path class="st0" d="M27.1,7.8l-0.5-0.4l-0.8,1L25.3,8l2.2-2.8l1,0.8c0.3,0.3,0.5,0.5,0.6,0.8c0.1,0.3,0,0.6-0.2,0.8
			c-0.2,0.2-0.3,0.3-0.5,0.4c-0.2,0.1-0.4,0.1-0.6,0l-0.3,1.6l0,0l-0.6-0.5L27.1,7.8z M27,7l0.5,0.4c0.1,0.1,0.3,0.2,0.4,0.2
			c0.1,0,0.3-0.1,0.4-0.2c0.1-0.1,0.2-0.3,0.1-0.4c0-0.1-0.1-0.3-0.2-0.4l-0.5-0.4L27,7z"/>
		<path class="st0" d="M30.1,10.6l-0.9-1.1l-0.7,0.6l1,1.3l-0.5,0.4L27.6,10l2.8-2.2l1.5,1.8l-0.5,0.4l-1-1.3l-0.7,0.5l0.9,1.1
			L30.1,10.6z"/>
	</g>
</g>
</svg>
