<?xml version="1.0" encoding="utf-8"?>
<!-- Generator: Adobe Illustrator 22.1.0, SVG Export Plug-In . SVG Version: 6.00 Build 0)  -->
<svg version="1.1" id="Layer_1" xmlns="http://www.w3.org/2000/svg" xmlns:xlink="http://www.w3.org/1999/xlink" x="0px" y="0px"
	 viewBox="0 0 35.2 32.8" style="enable-background:new 0 0 35.2 32.8;" xml:space="preserve">
<style type="text/css">
	.st0{fill:#FFFFFF;}
</style>
<path class="st0" d="M27.6,19.6c0,5.5-4.5,10-10,10s-10-4.5-10-10s4.5-10,10-10S27.6,14.1,27.6,19.6z M29.6,19.6c0-6.6-5.4-12-12-12
	s-12,5.4-12,12s5.4,12,12,12S29.6,26.2,29.6,19.6z M17.6,18.9l4.5,4.5l1.5-1.5l-6-6l-6,6l1.5,1.5L17.6,18.9z"/>
<g id="Layer_2_1_">
</g>
<g id="Layer_3">
	<g>
		<path class="st0" d="M6.4,10.1C6.2,10,6.1,10,6,10s-0.3,0.1-0.5,0.3s-0.4,0.3-0.6,0.3c-0.4,0.2-0.8,0.2-1.1-0.1
			c-0.2-0.1-0.3-0.3-0.3-0.4c-0.1-0.2-0.1-0.4,0-0.6c0.1-0.2,0.2-0.4,0.3-0.6C4,8.7,4.2,8.6,4.4,8.5C4.6,8.4,4.8,8.3,5,8.3
			s0.4,0.1,0.6,0.2L5.1,9.1C5,9,4.8,9,4.7,9C4.6,9,4.5,9.1,4.3,9.3C4.2,9.4,4.2,9.6,4.2,9.7s0,0.2,0.1,0.3s0.2,0.1,0.3,0
			C4.8,10,5,9.9,5.1,9.7C5.5,9.4,5.8,9.3,6,9.3c0.3,0,0.5,0,0.7,0.2C7,9.7,7.2,9.9,7.2,10.2s-0.1,0.6-0.4,0.9
			c-0.2,0.2-0.4,0.4-0.6,0.5s-0.4,0.2-0.6,0.2S5.2,11.7,5,11.6L5.4,11c0.3,0.2,0.6,0.2,0.9-0.2c0.1-0.1,0.2-0.3,0.2-0.4
			C6.5,10.3,6.5,10.2,6.4,10.1z"/>
		<path class="st0" d="M7.9,5.8L7.1,6.5L9,8.8L8.4,9.3L6.5,7L5.7,7.7L5.3,7.3l2.2-1.9L7.9,5.8z"/>
		<path class="st0" d="M11.2,6.5l-1.1,0.6l0.1,0.8L9.5,8.3L9,4.5l0.6-0.3l2.9,2.5L11.8,7L11.2,6.5z M10,6.5l0.8-0.4l-1-0.9L10,6.5z"
			/>
		<path class="st0" d="M13.5,5L13,5.2l0.4,1.3l-0.7,0.2l-1-3.4L13,2.9c0.4-0.1,0.7-0.1,1,0s0.5,0.3,0.5,0.7c0.1,0.2,0.1,0.4,0,0.6
			c-0.1,0.2-0.2,0.4-0.4,0.5l1.1,1.2l0,0l-0.8,0.2L13.5,5z M12.8,4.6l0.6-0.2c0.2-0.1,0.3-0.1,0.4-0.3c0.1-0.1,0.1-0.3,0-0.4
			c0-0.2-0.1-0.3-0.2-0.3c-0.1-0.1-0.3-0.1-0.5,0l-0.6,0.2L12.8,4.6z"/>
		<path class="st0" d="M17.9,2.7l-1.1,0.1l0.2,3l-0.7,0.1l-0.2-3H15V2.3l2.9-0.2V2.7z"/>
		<path class="st0" d="M22.6,4.8c-0.1,0.3-0.2,0.6-0.4,0.9C22,5.9,21.8,6,21.6,6.1s-0.5,0.1-0.8,0c-0.3,0-0.6-0.1-0.8-0.3
			s-0.3-0.4-0.4-0.7c-0.1-0.3-0.1-0.6,0-0.9V4c0.1-0.3,0.2-0.6,0.4-0.9c0.2-0.2,0.4-0.4,0.7-0.5c0.3-0.1,0.5-0.1,0.8,0
			S22,2.8,22.2,3s0.3,0.4,0.4,0.7s0.1,0.6,0,0.9V4.8z M21.9,4.5c0.1-0.4,0.1-0.7,0-0.9s-0.2-0.4-0.5-0.4c-0.2-0.1-0.4,0-0.6,0.2
			s-0.3,0.4-0.4,0.8v0.2c-0.1,0.4-0.1,0.6,0,0.9s0.2,0.4,0.5,0.4c0.2,0.1,0.4,0,0.6-0.2s0.3-0.4,0.4-0.8V4.5z"/>
		<path class="st0" d="M24.1,6.4l1.9-2l0.7,0.4L24,7.3L23.4,7l0.5-3.7l0.7,0.4L24.1,6.4z"/>
		<path class="st0" d="M27.9,8.1l-1.1-0.9L26.2,8l1.3,1l-0.4,0.5L25.3,8l2.2-2.8l1.9,1.5L29,7.2l-1.3-1l-0.5,0.7l1.1,0.9L27.9,8.1z"
			/>
		<path class="st0" d="M29.2,9.9l-0.4-0.4l-1,0.8l-0.5-0.6L30,7.4l0.8,1c0.3,0.3,0.4,0.6,0.4,0.9c0,0.3-0.1,0.6-0.4,0.8
			c-0.2,0.2-0.4,0.2-0.6,0.3c-0.2,0-0.4,0-0.6-0.1L29,11.8l0,0l-0.5-0.6L29.2,9.9z M29.3,9l0.4,0.5c0.1,0.1,0.2,0.2,0.4,0.2
			s0.3,0,0.4-0.1s0.2-0.2,0.2-0.4c0-0.1,0-0.3-0.2-0.4l-0.4-0.5L29.3,9z"/>
	</g>
</g>
</svg>
