<?xml version="1.0" encoding="utf-8"?>
<!-- Generator: Adobe Illustrator 22.1.0, SVG Export Plug-In . SVG Version: 6.00 Build 0)  -->
<svg version="1.0" id="Layer_1" xmlns="http://www.w3.org/2000/svg" xmlns:xlink="http://www.w3.org/1999/xlink" x="0px" y="0px"
	 viewBox="0 0 266.8 236.5" style="enable-background:new 0 0 266.8 236.5;" xml:space="preserve">
<style type="text/css">
	.st0{fill:#39B16D;}
	.st1{opacity:6.000000e-02;fill:#FFFFFF;enable-background:new    ;}
	.st2{fill:#A85238;}
	.st3{opacity:0.1;fill:#FFFFFF;enable-background:new    ;}
	.st4{opacity:0.15;fill:#020202;enable-background:new    ;}
	.st5{fill:#F4D27A;}
	.st6{fill:#F7CD49;}
	.st7{fill:#F29E23;}
	.st8{fill:#E47E26;}
	.st9{fill:#FFFFFF;}
	.st10{opacity:0.1;fill:#231F20;enable-background:new    ;}
	.st11{opacity:0.25;fill:#FFFFFF;enable-background:new    ;}
	.st12{opacity:0.1;fill:#020202;enable-background:new    ;}
	.st13{fill:#A7D8BC;}
	.st14{fill:#2A6A86;}
</style>
<g id="Layer_6">
	<g>
		<g id="Layer_2_2_">
			<ellipse class="st0" cx="133.8" cy="84.6" rx="81.8" ry="79.5"/>
		</g>
		<g id="Layer_1_4_">
			<g>
				<path class="st0" d="M148,107c-1.1,1.1-2.3,2.1-3.6,2.8l1.2,1.3C146.2,109.7,147,108.3,148,107z"/>
				<path class="st0" d="M149.6,105.2L149.6,105.2c-0.1,0.1-0.3,0.3-0.4,0.4C149.4,105.5,149.5,105.4,149.6,105.2z"/>
				<path class="st0" d="M142.8,79.8c-1.5-3.9-4.3-11.9-5.3-18.9c-0.2,4-0.4,10-0.6,17.5C138.9,78.4,140.9,78.9,142.8,79.8z"/>
				<path class="st0" d="M158,28.2c-1.6,1.7-20.1,17.5-18.4,27c-1.8,9.5,16.8,25.3,18.4,26.9c0.1,0.1,0.3,0.3,0.4,0.4
					c12.4,11.5,25.9,23,33,38.7c2.5,5.5,3.9,11.6,4.4,17.8c12.4-14.1,19.9-32.5,19.9-52.8c0-31.1-17.8-58.1-43.8-71.3
					c-4.5,4.4-9.1,8.6-13.6,12.8C158.3,27.9,158.1,28.1,158,28.2z"/>
				<path class="st0" d="M134.7,78.3c-0.2-6.9-0.4-12.6-0.6-16.5c-1.1,6.8-3.8,14.2-5.2,17.9c1.1-0.5,2.2-0.9,3.4-1.1
					C133.1,78.5,133.9,78.4,134.7,78.3z"/>
				<path class="st0" d="M113.3,82.4c0.1-0.1,0.3-0.3,0.4-0.4c1.6-1.7,20.1-17.5,18.4-26.9c1.8-9.5-16.8-25.3-18.4-26.9
					c-0.1-0.1-0.3-0.3-0.4-0.4c-4.5-4.2-9.1-8.3-13.5-12.7c-26,13.1-43.9,40-43.9,71.2c0,20.2,7.5,38.7,19.9,52.7
					c0.5-6.2,1.9-12.3,4.4-17.8C87.4,105.5,101,94,113.3,82.4z"/>
				<path class="st0" d="M137.2,55.2C137.2,55.1,137.2,55.1,137.2,55.2l-2.6-0.1v0.1h1.3H137.2z"/>
				<path class="st0" d="M122.1,105c-0.2,0.9-0.3,1.8-0.5,2.8c1.8,0.3,3.5,0.8,5.1,1.6C124.9,108.3,123.3,106.8,122.1,105z"/>
				<path class="st0" d="M95.5,121.1c5-15.7,15.9-27.3,24.5-38.7c0.1-0.1,0.2-0.3,0.3-0.4c1.2-1.7,14.2-17.5,13-26.9
					c0.1-0.7,0.1-1.5,0-2.3c-0.3-1.2-0.8-2.4-1.4-3.7c0.8,2.1,1.2,4.2,0.9,6c1.5,9.5-14.6,25.3-16,26.9c-0.2,0.1-0.3,0.3-0.4,0.4
					c-10.7,11.5-22.4,23-28.6,38.7c-1.4,3.5-2.4,7.3-3.1,11.1c2.6-1.6,5.6-2.6,8.8-2.7C94,126.7,94.7,123.9,95.5,121.1z"/>
				<path class="st0" d="M138.3,55.2c-1.3,9.5,11.8,25.3,13,26.9c0.1,0.1,0.2,0.3,0.3,0.4c4.5,6,9.6,12,14.2,18.6
					c7.2,2,12.5,8.5,12.5,16.3c0,2.4-0.5,4.6-1.4,6.7c0.5,1.8,0.9,3.6,1.2,5.5c0.1,0,0.1,0,0.2,0c3.1,0,6.1,0.9,8.6,2.4
					c-0.7-3.7-1.6-7.3-3-10.7c-6.2-15.7-17.9-27.3-28.6-38.7c-0.2-0.1-0.3-0.3-0.4-0.4c-1.3-1.7-17.5-17.5-16-26.9
					c-0.4-2.4,0.4-5.2,1.7-8.1c-1,1.7-1.8,3.4-2.3,5C138.2,53.2,138.2,54.2,138.3,55.2z"/>
				<path class="st1" d="M78.8,171.4c-0.2,0-0.4,0.1-0.5,0.1h1C79.1,171.5,79,171.4,78.8,171.4z"/>
				<path class="st2" d="M152.4,163.4h-6.1c-0.3,0-0.6,0-0.8,0h11.3c0.1,0,0.1,0,0.2,0H152.4z"/>
				<path class="st2" d="M136,163.4h-14.7l0,0h22.3c-0.3,0-0.6,0-0.8,0H136z"/>
				<path class="st2" d="M144.5,163.5c-0.3,0-0.6,0-0.9,0h-22.3v1.4c4.7,0.9,9.6,1.4,14.6,1.4c7.2,0,14.2-1,20.8-2.8h-11.3
					C145.1,163.4,144.8,163.5,144.5,163.5z"/>
				<path class="st1" d="M144.5,163.5c-0.3,0-0.6,0-0.9,0h-22.3v1.4c4.7,0.9,9.6,1.4,14.6,1.4c7.2,0,14.2-1,20.8-2.8h-11.3
					C145.1,163.4,144.8,163.5,144.5,163.5z"/>
				<path class="st2" d="M121.3,163.4h-6.4c0.1,0,0.1,0,0.2,0H121.3L121.3,163.4z"/>
				<path class="st3" d="M121.3,163.4h-6.4c0.1,0,0.1,0,0.2,0H121.3L121.3,163.4z"/>
				<path class="st2" d="M115,163.4c2.1,0.6,4.1,1,6.3,1.4v-1.4H115z"/>
				<path class="st1" d="M115,163.4c2.1,0.6,4.1,1,6.3,1.4v-1.4H115z"/>
				<path class="st3" d="M115,163.4c2.1,0.6,4.1,1,6.3,1.4v-1.4H115z"/>
				<path class="st4" d="M78.5,171.2c0.1,0.1,0.2,0.1,0.3,0.1h0.1C78.8,171.3,78.6,171.3,78.5,171.2z"/>
				<path class="st5" d="M127.5,146.5c0-3.5,1.1-6.7,2.8-9.4c-3,2.7-7,4.4-11.4,4.4c-0.4,0-0.8,0-1.2-0.1c0,3.5,0,7,0.2,10.3
					c0,0.7,0.2,4.9,0.6,8h15.3C130,156.7,127.5,151.9,127.5,146.5z"/>
				<path class="st5" d="M128.3,110.3c4.6,3,7.7,8.3,7.7,14.2c0,3.5-1.1,6.7-2.8,9.4c3-2.7,7-4.4,11.4-4.4c2.2,0,4.3,0.4,6.2,1.2
					c-3.9-3.1-6.4-7.9-6.4-13.2c0-2.2,0.4-4.4,1.2-6.3l-1.2-1.3c-1.5,0.9-3.1,1.5-4.9,1.9C135.5,112.6,131.6,112,128.3,110.3z"/>
				<path class="st5" d="M152.5,163.3h-5.9c-0.1,0-0.2,0-0.3,0H152.5C152.4,163.4,152.4,163.4,152.5,163.3z"/>
				<path class="st5" d="M142.7,163.4c-0.1,0-0.2,0-0.3,0h-6.6h-14.5l0,0H136H142.7z"/>
				<path class="st5" d="M121.3,163.3h-6.6c0.1,0,0.1,0,0.2,0H121.3L121.3,163.3z"/>
				<path class="st6" d="M136.9,78.3c0.2-7.5,0.4-13.5,0.6-17.5c-0.3-2-0.4-4-0.3-5.7h-1.3h-1.3c0.1,2-0.1,4.3-0.5,6.6
					c0.2,4,0.4,9.6,0.6,16.5C135.4,78.3,136.1,78.3,136.9,78.3z"/>
				<path class="st6" d="M84.1,137.1c0.1-0.1,0.1-0.1,0.2-0.2c0.1-0.1,0.2-0.2,0.3-0.3c1.8-1.7,4.1-2.9,6.7-3.4
					c0.5-0.1,1.1-0.2,1.6-0.2c0.2-1.1,0.3-2.3,0.5-3.4c-3.2,0.1-6.2,1-8.8,2.7C84.4,133.9,84.2,135.5,84.1,137.1L84.1,137.1z"/>
				<path class="st7" d="M84.3,136.8c0.1-0.1,0.2-0.2,0.3-0.3C84.5,136.7,84.4,136.8,84.3,136.8z"/>
				<path class="st7" d="M90,139.8c-0.5,0.8-0.7,1.9-0.4,3.1c0.1,0.7,0.3,1.2,0.7,1.6c0.4,0.4,0.7,0.7,1.1,0.9
					c0.3,0.1,0.7,0.3,1,0.4c0-1.8-0.1-3.6,0-5.4l-0.4-2C91.1,138.5,90.5,139,90,139.8z"/>
				<path class="st7" d="M90.8,150.9c0.1,0,0.2,0,0.3,0.1s0.2,0.2,0.2,0.3c0.2,0.7,0.4,1.3,0.6,1.7c0.2,0.1,0.4,0.3,0.6,0.4
					c-0.1-0.4-0.1-0.7-0.1-0.8c-0.1-0.8-0.1-1.7,0.1-2.5c-0.1-1.1-0.2-2.3-0.2-3.5c-0.5-0.1-0.9-0.3-1.4-0.6s-0.9-0.7-1.3-1.2
					c-0.4-0.4-0.7-1.2-0.8-1.9c-0.3-1.3-0.1-2.5,0.4-3.6c0.7-1.1,1.5-1.7,2.6-2l-0.2-0.9c-0.1-0.3,0.1-0.6,0.4-0.7
					c0.2,0,0.5,0.1,0.6,0.2c0.1-0.7,0.2-1.4,0.2-2.1c-0.3,0-0.5,0.1-0.8,0.1c-3.4,0.6-6.2,2.4-8.2,4.9c-0.2,2.7-0.2,5.3-0.1,8
					c2.1,1.8,4.4,3.6,6.7,5.2c-0.1-0.2-0.1-0.4-0.2-0.7C90.4,151.2,90.5,151,90.8,150.9z"/>
				<path class="st7" d="M84.1,137.1L84.1,137.1L84.1,137.1L84.1,137.1z"/>
				<path class="st7" d="M92.7,151.8c-0.1-0.5-0.1-1.1-0.1-1.6c-0.1,0.8-0.2,1.7-0.1,2.5c0,0.1,0,0.4,0.1,0.8
					c0.1,0.1,0.2,0.1,0.3,0.2C92.8,152.7,92.7,152,92.7,151.8z"/>
				<path class="st8" d="M84.1,137.1c0.1-0.1,0.1-0.1,0.2-0.2C84.3,136.9,84.2,137,84.1,137.1z"/>
				<path class="st8" d="M93,133c-0.5,0-1.1,0.1-1.6,0.2c-2.6,0.5-4.9,1.7-6.7,3.4C86.9,134.5,89.9,133.2,93,133L93,133z"/>
				<path class="st8" d="M83.9,139c2-2.5,4.8-4.3,8.2-4.9c0.3,0,0.5-0.1,0.8-0.1c0-0.3,0.1-0.6,0.1-0.9c-3.1,0.2-6.1,1.4-8.3,3.5
					c-0.1,0.1-0.2,0.2-0.3,0.3s-0.1,0.1-0.2,0.2c0,0,0,0-0.1,0.1C84,137.7,84,138.4,83.9,139z"/>
				<path class="st9" d="M91.3,145.4c-0.4-0.2-0.7-0.5-1.1-0.9s-0.5-0.9-0.7-1.6c-0.2-1.2-0.1-2.2,0.4-3.1c0.4-0.7,1.1-1.3,1.9-1.5
					l0.4,2c0.1-1.4,0.1-2.9,0.3-4.3c-0.1-0.2-0.3-0.2-0.6-0.2c-0.3,0.1-0.5,0.3-0.4,0.7l0.2,0.9c-1.2,0.3-2,0.9-2.6,2
					c-0.5,1.1-0.7,2.2-0.4,3.6c0.1,0.7,0.4,1.5,0.8,1.9c0.4,0.5,0.8,0.8,1.3,1.2c0.5,0.3,0.9,0.5,1.4,0.6c0-0.3,0-0.6,0-0.9
					C92,145.7,91.7,145.5,91.3,145.4z"/>
				<path class="st9" d="M91.4,151.3c0-0.1-0.1-0.2-0.2-0.3s-0.2-0.1-0.3-0.1c-0.3,0.1-0.4,0.2-0.4,0.5c0.1,0.3,0.1,0.5,0.2,0.7
					c0.5,0.3,0.9,0.6,1.4,0.9C91.8,152.6,91.6,152,91.4,151.3z"/>
				<path class="st6" d="M178.1,129.7c0.2,1.1,0.4,2.1,0.5,3.2c3.4,0.1,6.6,1.4,8.9,3.6c-0.2-1.5-0.4-3-0.6-4.5
					c-2.5-1.5-5.5-2.4-8.6-2.4C178.2,129.7,178.2,129.7,178.1,129.7z"/>
				<path class="st7" d="M179.2,149.7c0.2,1,0.3,2,0.2,2.9c0,0.1,0,0.2,0,0.3v0.3c0.9-0.6,1.7-1.2,2.6-1.8c0-0.2,0-0.4,0-0.6
					c0-0.7-0.1-1.3-0.4-1.7c-0.2-0.4-0.5-0.7-0.9-1.1c-0.4-0.3-0.7-0.6-1.2-0.7c-0.1,0-0.1,0-0.2-0.1c0,0.4,0,0.9-0.1,1.3
					L179.2,149.7z"/>
				<path class="st7" d="M178.7,134c0.1,1.2,0.3,2.4,0.4,3.6c0.9,0.1,1.6,0.5,2.1,1c0.7,0.7,1.2,2,1.3,3.6c0,0.1,0,0.2-0.1,0.3
					c-0.1,0-0.2,0.1-0.3,0.1s-0.2,0-0.3-0.1c0-0.1-0.1-0.2-0.1-0.3c-0.1-1.4-0.4-2.4-1.1-3.1c-0.3-0.4-0.8-0.6-1.4-0.8
					c0.2,2.7,0.2,5.5,0.1,8.2c0.2,0.1,0.4,0.2,0.6,0.2c0.4,0.1,0.9,0.4,1.3,0.7c0.4,0.3,0.8,0.8,1,1.4c0.3,0.5,0.5,1.1,0.5,1.9
					c1.7-1.3,3.4-2.6,5.1-4c0.2-3.3,0.1-6.6-0.2-9.9C185.2,135.1,182.1,133.9,178.7,134z"/>
				<path class="st7" d="M179.4,152.6c0.1-1,0.1-2-0.2-2.9l0.1,3.3C179.4,152.8,179.4,152.7,179.4,152.6z"/>
				<path class="st8" d="M187.6,136.8c0-0.1,0-0.2,0-0.3c-2.4-2.2-5.5-3.5-8.9-3.6c0,0.1,0,0.1,0,0.2
					C182.1,133.2,185.2,134.5,187.6,136.8z"/>
				<path class="st8" d="M187.6,137c0-0.1,0-0.2,0-0.3c-2.3-2.2-5.5-3.6-8.9-3.7c0,0.3,0.1,0.6,0.1,0.9
					C182.1,133.9,185.2,135.1,187.6,137z"/>
				<path class="st9" d="M179.2,148.8c0,0.2,0,0.4,0,0.6c0,0.1,0.1,0.2,0.1,0.3L179.2,148.8z"/>
				<path class="st9" d="M180.6,139.1c0.7,0.7,0.9,1.7,1.1,3.1c0,0.1,0.1,0.2,0.1,0.3c0.1,0.1,0.2,0.1,0.3,0.1s0.2-0.1,0.3-0.1
					c0.1-0.1,0.1-0.2,0.1-0.3c-0.1-1.6-0.5-2.8-1.3-3.6c-0.5-0.5-1.2-0.9-2.1-1c0,0.3,0,0.5,0.1,0.8
					C179.7,138.5,180.2,138.7,180.6,139.1z"/>
				<path class="st9" d="M179.3,153.3L179.3,153.3v-0.4C179.3,153.1,179.3,153.2,179.3,153.3z"/>
				<path class="st9" d="M181.2,147.6c-0.4-0.3-0.9-0.7-1.3-0.7c-0.2-0.1-0.4-0.2-0.6-0.2c0,0.3,0,0.6,0,0.9c0.1,0,0.1,0.1,0.2,0.1
					c0.4,0.1,0.7,0.3,1.2,0.7c0.4,0.3,0.7,0.7,0.9,1.1c0.3,0.4,0.4,0.9,0.4,1.7c0,0.2,0,0.4,0,0.6c0.3-0.2,0.5-0.4,0.8-0.6
					c0-0.8-0.2-1.4-0.5-1.9C182.1,148.4,181.7,147.9,181.2,147.6z"/>
				<path class="st9" d="M179.2,149.7c0-0.1-0.1-0.2-0.1-0.3c-0.1,0.8-0.1,1.7-0.2,2.5c0,0.2-0.1,0.9-0.2,1.8
					c0.2-0.1,0.4-0.3,0.6-0.4c0-0.1,0-0.3,0-0.4L179.2,149.7z"/>
				<path class="st6" d="M124.6,112.1c0.2,0.1,0.4,0.2,0.6,0.3l2.3-2.5c-0.3-0.2-0.6-0.3-0.8-0.5c-1.6-0.8-3.3-1.3-5.1-1.6
					c-0.2,1.1-0.4,2.2-0.6,3.3C122.3,111.3,123.4,111.6,124.6,112.1z"/>
				<path class="st6" d="M126,112.9c0.2,0.1,0.5,0.3,0.7,0.4c5.3,3.7,7.5,10.7,4.6,16.8c-2.4,5.3-7.9,8.4-13.4,7.9
					c0,1.1-0.1,2.3-0.1,3.4c0.4,0,0.8,0.1,1.2,0.1c4.4,0,8.3-1.7,11.4-4.4c0.8-1.2,1.7-2.2,2.8-3.2c1.8-2.7,2.8-5.9,2.8-9.4
					c0-6-3.1-11.2-7.7-14.2c-0.3-0.1-0.5-0.3-0.8-0.4l-2.3,2.5c0.2,0.1,0.3,0.2,0.5,0.3C125.8,112.8,125.9,112.8,126,112.9z"/>
				<path class="st7" d="M120.1,116.8c-0.1,0.5-0.2,1-0.3,1.6l1.5-1.6C120.9,116.6,120.5,116.6,120.1,116.8z"/>
				<path class="st7" d="M122.1,115.8l2.4-2.7c-1.2-0.5-2.4-0.9-3.7-1c-0.2,1.2-0.4,2.3-0.6,3.5
					C120.9,115.6,121.5,115.7,122.1,115.8z"/>
				<path class="st7" d="M119.4,121.1c-0.1,0.7-0.2,1.5-0.3,2.2l3-6.5c-0.2-0.1-0.5-0.2-0.7-0.2l-1.5,1.6
					C119.7,119.3,119.6,120.2,119.4,121.1z"/>
				<path class="st7" d="M118.3,132.2c0.8-0.3,1.5-1.1,2-2.2c0.2-0.6,0.3-1.2,0.3-1.7c-0.1-0.5-0.2-0.9-0.4-1.3
					c-0.2-0.4-0.4-0.7-0.7-1.1c0-0.1-0.1-0.2-0.2-0.3l-0.6,1.3C118.5,128.6,118.3,130.4,118.3,132.2
					C118.2,132.2,118.3,132.2,118.3,132.2z"/>
				<path class="st7" d="M131.4,130.1c2.8-6.1,0.7-13.1-4.6-16.8c3.5,2.4,5.6,6.4,5.8,10.4c-0.7-4.5-3.4-8.5-7.8-10.5
					c-0.1,0-0.1,0-0.2-0.1l-2.4,2.7c0.1,0,0.2,0.1,0.4,0.1l0.4-0.8c0.1-0.2,0.4-0.3,0.7-0.2c0.3,0.2,0.4,0.5,0.3,0.7l-0.4,0.8
					c1,0.6,1.6,1.3,1.9,2.2c0.3,1.1,0.1,2.3-0.5,3.8c0,0.1-0.1,0.2-0.2,0.2c-0.2,0.1-0.3,0.1-0.4,0c-0.2-0.1-0.3-0.2-0.3-0.3
					s0-0.2,0-0.3c0.6-1.3,0.7-2.3,0.5-3.2c-0.2-0.7-0.6-1.2-1.3-1.6l-3.5,7.5c0.2,0.1,0.4,0.3,0.7,0.7c0.3,0.3,0.6,0.7,0.8,1.3
					c0.2,0.4,0.4,1.1,0.6,1.7c0,0.7-0.1,1.3-0.4,2s-0.7,1.2-1.1,1.6c-0.4,0.6-0.8,0.8-1.3,1.1c-0.2,0.1-0.5,0.2-0.7,0.2
					c-0.1,1.6-0.2,3.1-0.2,4.7C123.5,138.5,129,135.5,131.4,130.1z"/>
				<path class="st7" d="M125.7,112.7c0.1,0.1,0.2,0.1,0.3,0.2C125.9,112.8,125.8,112.8,125.7,112.7z"/>
				<path class="st8" d="M125.2,112.4c-0.2-0.1-0.4-0.2-0.6-0.3C124.8,112.2,125,112.3,125.2,112.4L125.2,112.4z"/>
				<path class="st8" d="M126,112.9c0.2,0.1,0.5,0.3,0.7,0.4C126.5,113.2,126.3,113,126,112.9z"/>
				<path class="st8" d="M125.7,112.7c-0.2-0.1-0.3-0.2-0.5-0.3l0,0C125.4,112.5,125.5,112.6,125.7,112.7z"/>
				<path class="st8" d="M124.5,113.2l0.7-0.7c-0.2-0.1-0.4-0.2-0.6-0.3c-1.2-0.5-2.4-0.9-3.6-1.1c-0.1,0.4-0.1,0.7-0.2,1.1
					C122.1,112.3,123.3,112.7,124.5,113.2z"/>
				<path class="st8" d="M132.5,123.8c-0.2-4.1-2.3-8-5.8-10.4c-0.2-0.2-0.4-0.3-0.7-0.4c-0.1-0.1-0.2-0.1-0.3-0.2
					c-0.2-0.1-0.3-0.2-0.5-0.3l-0.7,0.7c0.1,0,0.1,0,0.2,0.1C129.1,115.2,131.9,119.3,132.5,123.8z"/>
				<path class="st9" d="M121.4,116.7l0.8-0.8c-0.6-0.2-1.2-0.2-1.8-0.1c-0.1,0.3-0.1,0.7-0.2,1.1
					C120.5,116.6,120.9,116.6,121.4,116.7z"/>
				<path class="st9" d="M120.2,132c0.4-0.4,0.7-0.9,1.1-1.6c0.3-0.7,0.4-1.3,0.4-2c-0.1-0.7-0.3-1.3-0.6-1.7
					c-0.2-0.5-0.5-0.9-0.8-1.3c-0.2-0.3-0.4-0.5-0.7-0.7l3.5-7.5c0.7,0.4,1.2,0.9,1.3,1.6c0.2,0.8,0.1,1.9-0.5,3.2
					c0,0.1,0,0.2,0,0.3s0.1,0.2,0.3,0.3c0.1,0.1,0.2,0.1,0.4,0c0.1,0,0.2-0.1,0.2-0.2c0.7-1.5,0.8-2.7,0.5-3.8
					c-0.3-0.9-0.9-1.7-1.9-2.2l0.4-0.8c0.1-0.2,0-0.5-0.3-0.7c-0.3-0.1-0.7,0-0.7,0.2l-0.4,0.8c-0.1,0-0.2-0.1-0.4-0.1l-0.8,0.8
					c0.2,0,0.5,0.1,0.7,0.2l-3,6.5c-0.2,1.1-0.3,2.3-0.4,3.5l0.6-1.3c0.1,0.1,0.2,0.2,0.2,0.3c0.3,0.3,0.5,0.7,0.7,1.1
					s0.3,0.8,0.4,1.3c0,0.5-0.1,1.1-0.3,1.7c-0.6,1.2-1.2,1.9-2,2.2H118c0,0.4,0,0.7-0.1,1.1c0.2-0.1,0.5-0.1,0.7-0.2
					C119.4,132.9,119.8,132.6,120.2,132z"/>
				<path class="st6" d="M149.2,105.6c-0.4,0.5-0.8,1-1.2,1.4c-1,1.3-1.8,2.7-2.4,4.2l2.6,2.9c0.4-1.7,1.2-3.3,2.2-4.6
					c-0.2-1.4-0.5-2.8-0.7-4.2C149.5,105.4,149.4,105.5,149.2,105.6z"/>
				<path class="st6" d="M174.6,114c-0.2-0.6-0.5-1.1-0.7-1.6c0.6,1.6,1,3.3,1,5.1c0,0.1,0,0.2,0,0.4c0.4,1.1,0.9,2.3,1.2,3.5
					c0.3,1,0.6,1.9,0.8,2.9c0.9-2,1.4-4.3,1.4-6.7c0-7.8-5.3-14.4-12.5-16.3c1.1,1.6,2.2,3.2,3.2,4.9
					C171.8,107.9,173.8,110.8,174.6,114z"/>
				<path class="st6" d="M150.7,130.8c1,0.4,1.9,0.9,2.8,1.4c-0.1-1.3-0.2-2.6-0.3-3.8c-3.3-2.5-5.4-6.4-5.4-10.8
					c0-1.2,0.2-2.3,0.4-3.4l-2.6-2.9c-0.8,1.9-1.2,4.1-1.2,6.3C144.4,122.9,146.8,127.6,150.7,130.8z"/>
				<path class="st7" d="M170,107.7c1.9,3.2,3.5,6.6,4.9,10.1c0-0.1,0-0.2,0-0.4c0-1.8-0.4-3.5-1-5.1
					C172.9,110.6,171.6,109,170,107.7z"/>
				<path class="st7" d="M151.8,118.1c-0.4-2.5-0.8-5-1.2-7.3c-0.8,1.2-1.5,2.5-1.9,3.9L151.8,118.1z"/>
				<path class="st7" d="M148.3,114.2c0.4-1.7,1.2-3.3,2.1-4.7c0,0,0,0,0-0.1C149.4,110.8,148.6,112.4,148.3,114.2L148.3,114.2z"/>
				<path class="st7" d="M153.2,128.3c-0.2-2.5-0.5-4.9-0.9-7.2c-0.2-1-0.3-2.1-0.5-3.1l-3.1-3.4c-0.1,0.3-0.2,0.5-0.2,0.8
					c-0.5,2.2-0.4,4.4,0.1,6.5c-0.8-2.3-1.1-4.9-0.4-7.6c0-0.1,0-0.1,0.1-0.2l-0.1-0.1c-0.3,1.1-0.4,2.2-0.4,3.4
					C147.8,121.9,149.9,125.8,153.2,128.3z"/>
				<path class="st8" d="M173.9,112.4c0.3,0.5,0.5,1.1,0.7,1.6c-0.9-3.2-2.8-6-5.6-7.9c0.1,0.1,0.1,0.2,0.2,0.4
					C171.3,108,172.9,110,173.9,112.4z"/>
				<path class="st8" d="M169.2,106.5c0.2,0.4,0.5,0.8,0.7,1.2c1.6,1.3,3,2.9,3.9,4.7C172.9,110,171.3,108,169.2,106.5z"/>
				<path class="st8" d="M150.6,110.8c-0.1-0.4-0.1-0.8-0.2-1.2c-1,1.4-1.7,2.9-2.1,4.7l0.4,0.5
					C149.1,113.3,149.8,111.9,150.6,110.8z"/>
				<path class="st8" d="M148.6,122c-0.6-2.1-0.7-4.3-0.1-6.5c0.1-0.3,0.1-0.5,0.2-0.8l-0.4-0.5c0,0.1,0,0.1-0.1,0.2
					C147.6,117.1,147.8,119.7,148.6,122z"/>
				<path class="st6" d="M136.8,81.7c0.1,0,0.2,0,0.4,0c0.1,0,0.2,0,0.2,0c0.3,0,0.5,0.1,0.8,0.1c2.3,0.4,4.5,1.3,6.3,2.8
					c-0.3-0.8-0.5-1.5-0.8-2.3c0-0.1-0.1-0.3-0.1-0.4c-0.1-0.3-0.4-1.1-0.8-2.2c-1.8-0.8-3.8-1.3-5.9-1.4
					C136.8,79.4,136.8,80.6,136.8,81.7z"/>
				<path class="st6" d="M128.1,82.4c-0.3,0.8-0.6,1.7-0.9,2.6c1.7-1.4,3.7-2.5,6-3c0.5-0.1,1.1-0.2,1.6-0.2c0-1.2,0-2.3-0.1-3.4
					c-0.8,0.1-1.5,0.1-2.3,0.3c-1.2,0.2-2.3,0.6-3.4,1.1c-0.4,1.1-0.7,1.9-0.8,2.2C128.1,82.1,128.1,82.3,128.1,82.4z"/>
				<path class="st6" d="M126.7,109.4c0.3,0.1,0.6,0.3,0.9,0.5l2.3-2.5c-3-1.5-5.5-4.2-6.6-7.7c-0.4,1.7-0.7,3.5-1,5.3
					C123.3,106.8,124.9,108.3,126.7,109.4z"/>
				<path class="st6" d="M142.1,107.4l2.3,2.5c1.4-0.8,2.6-1.7,3.6-2.8c0.4-0.5,0.8-1,1.2-1.4c0.1-0.2,0.3-0.4,0.4-0.5
					c-0.3-1.7-0.6-3.4-1-5C147.4,103.2,145.1,105.8,142.1,107.4z"/>
				<path class="st6" d="M139.4,111.8c1.8-0.4,3.4-1.1,4.9-1.9l-2.3-2.5c-1,0.5-2.1,0.9-3.2,1.2c-3.2,0.7-6.4,0.2-9-1.2l-2.3,2.5
					c0.2,0.1,0.5,0.3,0.7,0.4C131.6,112,135.5,112.6,139.4,111.8z"/>
				<path class="st6" d="M136.8,81.7c0-1.2,0-2.3,0.1-3.4c-0.7,0-1.4,0-2.2,0c0,1.1,0.1,2.2,0.1,3.4
					C135.4,81.7,136.1,81.7,136.8,81.7z"/>
				<path class="st6" d="M126.7,109.4c0.3,0.2,0.6,0.3,0.8,0.5l0,0C127.3,109.7,127,109.6,126.7,109.4z"/>
				<path class="st6" d="M127.5,109.9L127.5,109.9c0.2,0.2,0.5,0.3,0.7,0.4C128,110.2,127.8,110,127.5,109.9z"/>
				<path class="st6" d="M149.2,105.6c-0.4,0.4-0.8,0.9-1.2,1.4C148.4,106.6,148.8,106.1,149.2,105.6z"/>
				<path class="st7" d="M144.5,84.7c-1.8-1.5-4-2.4-6.3-2.8C140.5,82.3,142.7,83.3,144.5,84.7L144.5,84.7z"/>
				<path class="st7" d="M134.7,103.6c-0.1-0.1-0.2-0.1-0.2-0.2c-0.9-0.6-1.5-1.7-1.8-3.3c0-0.3,0.1-0.4,0.4-0.5
					c0.1,0,0.2,0,0.3,0.1s0.2,0.2,0.2,0.3c0.1,0.8,0.4,1.6,0.7,2c0.3,0.6,0.7,0.8,1.1,1.1c0.3,0.2,0.7,0.3,1.2,0.3
					c0.2,0,0.5,0,0.7,0l-0.8-3.8h-0.7H135c0-1.4,0-2.7,0-4c-0.1,0-0.3-0.1-0.4-0.1c-0.6-0.2-1-0.3-1.5-0.7c-0.5-0.3-0.9-0.7-1.3-1.2
					c-0.4-0.6-0.6-1.2-0.8-1.9c-0.3-1.3-0.2-2.5,0.3-3.6c0.5-0.9,1.3-1.7,2.5-2l-0.2-0.9c-0.1-0.3,0.1-0.6,0.4-0.7
					c0.3,0,0.6,0.1,0.7,0.4l0.2,0.9h0.1c0-1.2,0-2.3-0.1-3.4c-0.3,0-0.6,0.1-0.9,0.2c-3.1,0.7-5.6,2.3-7.5,4.6
					c-1.1,3.6-2.1,7.3-2.9,11.2c0,0.1,0,0.2,0.1,0.4c0.4,2.2,1.3,4.1,2.9,5.9c-1.3-1.5-2.5-3.2-3.2-5.2v0.1c1.2,3.4,3.6,6.1,6.6,7.7
					l1.7-1.8C132.4,104.5,133.5,103.9,134.7,103.6z"/>
				<path class="st7" d="M140,101.8c0.4-0.7,0.5-1.8,0.4-3c-0.1-0.7-0.4-1.2-0.7-1.6c-0.4-0.3-0.7-0.6-1.2-0.8
					c-0.4-0.2-0.8-0.3-1.3-0.4c-0.1-0.1-0.3-0.1-0.4-0.1l1.6,7.2C139.2,102.8,139.7,102.4,140,101.8z"/>
				<path class="st7" d="M134.8,86.9L134.8,86.9L134.8,86.9z"/>
				<path class="st7" d="M131.9,88.5c-0.4,0.8-0.6,1.9-0.3,3.1c0.2,0.7,0.4,1.2,0.7,1.6c0.4,0.4,0.7,0.7,1.2,0.9
					c0.4,0.3,0.8,0.4,1.3,0.5c0.1,0,0.1,0.1,0.2,0.1c0-0.7,0-1.4,0-2.1l-1.2-5.6C132.8,87.3,132.3,87.8,131.9,88.5z"/>
				<path class="st7" d="M136.8,82.5c0,1.2,0,2.5-0.1,3.8c0.3,0.1,0.6,0.2,0.9,0.4c0.9,0.7,1.5,1.8,1.8,3.3c0,0.1,0,0.2-0.1,0.3
					s-0.2,0.2-0.3,0.2c-0.2,0-0.3,0-0.4-0.1c-0.1-0.1-0.2-0.2-0.2-0.3c-0.3-1.2-0.8-2.2-1.6-2.7l-0.1-0.1c0,2.5-0.1,5-0.1,7.7
					c0.3,0.1,0.5,0.1,0.8,0.2c0.6,0.1,1,0.3,1.5,0.5c0.5,0.3,0.9,0.6,1.6,0.9c0.4,0.6,0.6,1.2,0.8,1.9c0.1,0.7,0.2,1.3,0.1,1.9
					c-0.1,0.5-0.3,1.1-0.5,1.6c-0.5,1-1.3,1.6-2.3,1.9l0.1,0.3c0.6,0.3,1.2,0.8,1.8,1.4l1.6,1.8c3-1.6,5.4-4.2,6.6-7.3
					c-1.1-5.3-2.4-10.2-4-15C142.4,83.4,139.6,82.5,136.8,82.5z"/>
				<path class="st7" d="M137.1,81.8c0.1,0,0.2,0,0.2,0S137.2,81.8,137.1,81.8z"/>
				<path class="st7" d="M138.8,108.6c1.2-0.3,2.2-0.7,3.2-1.2l-1.6-1.8c-0.5-0.6-1.2-1.1-1.8-1.4l0.2,0.8c0.1,0.3-0.1,0.6-0.4,0.7
					c-0.3,0-0.6-0.1-0.7-0.4l-0.2-1.1c-1.1,0.2-2,0-2.8-0.5c-1.2,0.3-2.3,0.9-3.3,2l-1.7,1.8C132.5,108.8,135.6,109.2,138.8,108.6z"
					/>
				<path class="st7" d="M135.3,94.6l-0.4-2c0,0.7,0,1.4,0,2.1C135.1,94.7,135.3,94.7,135.3,94.6z"/>
				<path class="st7" d="M134.9,95.7c0,1.3,0,2.6,0,4h0.8h0.7l-0.8-3.9C135.4,95.8,135.2,95.8,134.9,95.7z"/>
				<path class="st7" d="M134.8,86.9L134.8,86.9l1.7,8.1h0.1c0-2.7,0-5.2,0.1-7.7C136.2,86.9,135.6,86.8,134.8,86.9z"/>
				<path class="st7" d="M136.7,86.3c0-1.3,0-2.6,0.1-3.8c-0.7,0-1.3,0-2,0.2c0,1.1,0,2.3,0.1,3.4C135.5,86,136.2,86.1,136.7,86.3z"
					/>
				<path class="st8" d="M133.1,82c0.5-0.1,1.1-0.2,1.6-0.2l0,0C134.2,81.8,133.7,81.9,133.1,82c-2.3,0.4-4.3,1.5-6,2.9l0,0
					C128.8,83.6,130.8,82.5,133.1,82z"/>
				<path class="st8" d="M137.1,81.8c-0.1,0-0.2,0-0.4,0l0,0C136.9,81.8,137,81.8,137.1,81.8z"/>
				<path class="st8" d="M137.4,81.8c0.3,0,0.5,0.1,0.8,0.1C137.9,81.9,137.6,81.8,137.4,81.8z"/>
				<path class="st8" d="M136.8,81.8C136.8,81.7,136.8,81.7,136.8,81.8c-0.7-0.1-1.3-0.1-2,0l0,0C135.4,81.7,136.1,81.7,136.8,81.8z
					"/>
				<path class="st8" d="M136.8,82.5c2.9,0,5.6,0.9,7.9,2.6c0-0.1-0.1-0.2-0.1-0.3c-1.8-1.5-4-2.5-6.4-2.9c-0.3,0-0.5-0.1-0.8-0.1
					c-0.1,0-0.2,0-0.2,0c-0.1,0-0.2,0-0.4,0C136.8,82,136.8,82.2,136.8,82.5z"/>
				<path class="st8" d="M133.1,82c-2.3,0.5-4.3,1.5-6,2.9c-0.3,0.8-0.5,1.6-0.8,2.4c1.9-2.2,4.5-3.9,7.5-4.6
					c0.3-0.1,0.6-0.1,0.9-0.2c0-0.3,0-0.6,0-0.9C134.2,81.8,133.7,81.9,133.1,82z"/>
				<path class="st8" d="M126.3,104.8c-1.5-1.8-2.5-3.7-2.9-5.9c0-0.1,0-0.2-0.1-0.4c-0.1,0.3-0.2,0.7-0.2,1
					C123.8,101.6,125,103.4,126.3,104.8z"/>
				<path class="st8" d="M136.8,82.5c0-0.2,0-0.5,0-0.7c-0.7,0-1.3,0-2,0c0,0.3,0,0.6,0,0.9C135.4,82.5,136.1,82.5,136.8,82.5z"/>
				<path class="st9" d="M140.9,102c0.2-0.5,0.4-1.1,0.5-1.6c0.1-0.7,0-1.3-0.1-1.9c-0.2-0.7-0.4-1.3-0.8-1.9
					c-0.7-0.3-1.1-0.6-1.6-0.9c-0.5-0.2-0.9-0.4-1.5-0.5c-0.3-0.1-0.6-0.1-0.8-0.2c0,1.5,0,3.1,0,4.7h-0.1l0.8,3.8
					c-0.2,0-0.5,0-0.7,0c-0.4,0-0.8-0.1-1.2-0.3s-0.7-0.5-1.1-1.1c-0.3-0.4-0.7-1.2-0.7-2c0-0.1-0.1-0.2-0.2-0.3
					c-0.1-0.1-0.2-0.1-0.3-0.1c-0.3,0.1-0.4,0.2-0.4,0.5c0.3,1.6,0.9,2.6,1.8,3.3c0.1,0.1,0.2,0.1,0.2,0.2c1.3-0.3,2.7-0.1,4,0.6
					l-0.1-0.4C139.7,103.5,140.4,102.9,140.9,102z M136.8,95.9c0.1,0,0.2,0,0.4,0.1c0.4,0.1,0.8,0.2,1.3,0.4
					c0.4,0.2,0.7,0.5,1.2,0.8c0.3,0.4,0.7,0.9,0.7,1.6c0.1,1.2,0,2.2-0.4,3c-0.3,0.7-0.8,1.1-1.6,1.3L136.8,95.9z"/>
				<path class="st9" d="M136.8,87.4c0.7,0.5,1.3,1.5,1.5,2.8c0,0.1,0.1,0.2,0.2,0.3c0.1,0.1,0.2,0.1,0.4,0.1c0.1,0,0.2-0.1,0.3-0.2
					s0.1-0.2,0.1-0.3c-0.3-1.6-0.9-2.6-1.8-3.3c-0.3-0.2-0.6-0.3-0.9-0.4c0,0.3,0,0.7,0,1C136.7,87.3,136.8,87.3,136.8,87.4z"/>
				<path class="st9" d="M134.7,94.6c-0.4-0.1-0.8-0.2-1.3-0.5c-0.4-0.2-0.7-0.5-1.2-0.9c-0.3-0.4-0.5-0.9-0.7-1.6
					c-0.2-1.2-0.1-2.2,0.3-3.1c0.4-0.7,0.9-1.3,1.8-1.6l1.2,5.6c0-2,0-3.9-0.1-5.7l0,0l0,0c0-0.3,0-0.5,0-0.8h-0.1l-0.2-0.9
					c-0.1-0.3-0.3-0.4-0.7-0.4c-0.3,0.1-0.5,0.3-0.4,0.7l0.2,0.9c-1.2,0.3-2,1.1-2.5,2c-0.5,1.1-0.7,2.2-0.3,3.6
					c0.2,0.7,0.4,1.3,0.8,1.9c0.4,0.4,0.8,0.8,1.3,1.2c0.5,0.3,0.9,0.4,1.5,0.7c0.2,0,0.3,0.1,0.4,0.1c0-0.3,0-0.7,0-1
					C134.8,94.7,134.8,94.7,134.7,94.6z"/>
				<path class="st9" d="M134.7,103.6c0.8,0.5,1.7,0.7,2.8,0.5l0.2,1.1c0.1,0.3,0.3,0.4,0.7,0.4c0.3-0.1,0.5-0.3,0.4-0.7l-0.2-0.8
					C137.4,103.5,136,103.3,134.7,103.6z"/>
				<path class="st9" d="M136.6,95h-0.1l-1.7-8.1c0,1.8,0,3.7,0.1,5.7l0.4,2c-0.1,0.1-0.2,0.1-0.4,0.1c0,0.3,0,0.7,0,1
					c0.3,0.1,0.5,0.1,0.8,0.1l0.8,3.9h0.1C136.6,98.1,136.6,96.5,136.6,95z"/>
				<path class="st9" d="M136.7,87.3c0-0.3,0-0.7,0-1c-0.5-0.2-1.2-0.3-1.9-0.2c0,0.3,0,0.5,0,0.8C135.6,86.8,136.2,86.9,136.7,87.3
					z"/>
				<path class="st6" d="M143.6,163.4h1.8c0.3,0,0.6,0,0.8,0h-3.5C143,163.4,143.3,163.4,143.6,163.4z"/>
				<path class="st6" d="M144.5,163.5c0.3,0,0.6,0,0.9,0h-1.8C143.9,163.4,144.2,163.5,144.5,163.5z"/>
				<path class="st6" d="M153.1,159.8c0.1-0.9,0.2-1.9,0.3-2.9c-1.6,1.4-3.5,2.4-5.6,2.9H153.1z"/>
				<path class="st6" d="M133.9,159.8h7.2c-7.4-1.9-11.7-9.3-9.9-16.5c1.9-7.4,9.3-11.7,16.5-9.9c0.1,0,0.2,0.1,0.3,0.1
					c2.2,0.6,4.1,1.7,5.7,3.1c-0.1-1.3-0.1-2.6-0.2-3.9c-1-0.5-1.9-1.1-2.8-1.8c-1.9-0.8-4-1.2-6.2-1.2c-4.4,0-8.3,1.7-11.4,4.4
					c-0.8,1.2-1.7,2.2-2.8,3.2c-1.8,2.7-2.8,5.9-2.8,9.4C127.5,151.9,130,156.7,133.9,159.8z"/>
				<path class="st6" d="M142.4,163.3c0.1,0,0.2,0,0.3,0h3.5c0.1,0,0.2,0,0.3,0H142.4z"/>
				<path class="st6" d="M133.1,133.9c-1,0.9-2,2-2.8,3.2C131.4,136.2,132.4,135.1,133.1,133.9z"/>
				<path class="st6" d="M153.5,132.6c0-0.1,0-0.3,0-0.4c-0.9-0.5-1.8-1-2.8-1.4C151.6,131.4,152.5,132.1,153.5,132.6z"/>
				<path class="st7" d="M143.2,154.8c0.7,0,1.3-0.1,2-0.5c0.8-0.6,1.3-1.4,1.7-2.6c0.1-0.6,0.1-1.2,0-1.7c-0.1-0.4-0.3-0.9-0.7-1.3
					c-0.3-0.4-0.6-0.7-0.9-0.9c-0.1-0.1-0.2-0.1-0.3-0.2L143.2,154.8z"/>
				<path class="st7" d="M153.7,137.3c-1.6-1.3-3.4-2.4-5.5-2.9c-7.3-1.8-14.7,2.6-16.5,9.9c-0.7,2.2-0.7,4.5,0,6.6
					c-0.8-2.3-1-4.9-0.3-7.6c1.9-7.4,9.3-11.7,16.5-9.9h0.1c-0.1,0-0.2-0.1-0.3-0.1c-7.2-1.8-14.6,2.5-16.5,9.9
					c-1.8,7.2,2.5,14.6,9.9,16.5h6.6c2.1-0.5,4-1.5,5.6-2.9c0.2-2.4,0.3-4.6,0.3-5.1C153.9,147.1,153.9,142.1,153.7,137.3z
					 M149.9,143.5c0,0.1-0.1,0.1-0.2,0.2c-0.1,0-0.3,0-0.4,0c-0.1,0-0.2-0.1-0.3-0.2c-0.1-0.1-0.1-0.2-0.1-0.3
					c0.3-1.3,0.3-2.4-0.1-3.3c-0.3-0.6-0.8-1-1.6-1.3l-2,8c0.2,0.1,0.4,0.3,0.7,0.5c0.3,0.3,0.7,0.7,1.1,1.2c0.3,0.5,0.6,1,0.9,1.9
					c0.2,0.6,0.2,1.3,0,2.1c-0.2,0.6-0.4,1.2-0.7,1.7s-0.7,0.9-1.2,1.3c-0.8,0.6-1.9,0.7-2.9,0.7l-0.3,1.1c0,0.2-0.3,0.4-0.7,0.3
					c-0.3-0.1-0.5-0.3-0.4-0.7l0.2-1.1c-1.3-0.4-2.1-1.1-2.5-1.9c-0.6-1-0.7-2.2-0.2-3.8c0.1-0.3,0.3-0.4,0.7-0.3
					c0.1,0,0.2,0.1,0.3,0.2c0.1,0.1,0.1,0.2,0.1,0.3c-0.2,0.8-0.3,1.6-0.2,2.1s0.3,1,0.5,1.3c0.2,0.4,0.5,0.6,0.9,0.8
					c0.2,0.1,0.4,0.2,0.7,0.3l1.9-7.7c-0.2-0.2-0.5-0.4-0.9-0.7s-0.7-0.7-1.1-1.2c-0.4-0.5-0.5-1-0.7-1.6s-0.2-1.3,0-2.1
					c0.3-1.4,1-2.3,1.9-3.1s2-1,3.2-0.7l0.2-0.9c0-0.2,0.3-0.4,0.7-0.3c0.3,0.1,0.5,0.3,0.4,0.7l-0.2,0.9c1.2,0.3,1.9,1,2.3,1.8
					C150.3,140.7,150.4,142,149.9,143.5z"/>
				<path class="st7" d="M143.7,138.9c-0.7,0.7-1.3,1.5-1.6,2.6c-0.1,0.6-0.1,1.2,0,1.7c0.2,0.5,0.3,0.9,0.7,1.3
					c0.3,0.3,0.6,0.6,0.9,0.9c0.2,0.2,0.3,0.3,0.4,0.5l1.9-7.6C145.1,138.1,144.3,138.3,143.7,138.9z"/>
				<path class="st8" d="M153.7,136.6C153.7,136.6,153.7,136.5,153.7,136.6c-1.6-1.5-3.5-2.6-5.7-3.2
					C150.2,134,152.2,135.1,153.7,136.6z"/>
				<path class="st8" d="M131.4,143.3c-0.7,2.6-0.5,5.2,0.3,7.6c-0.7-2.1-0.7-4.3,0-6.6c1.8-7.2,9.2-11.7,16.5-9.9
					c2.1,0.5,4,1.5,5.5,2.9c0-0.2,0-0.5,0-0.7c-1.6-1.5-3.5-2.6-5.7-3.2h-0.1C140.6,131.6,133.3,135.9,131.4,143.3z"/>
				<path class="st9" d="M147.4,137.9l0.2-0.9c0.1-0.3-0.1-0.5-0.4-0.7c-0.3-0.1-0.7,0.1-0.7,0.3l-0.2,0.9c-1.2-0.2-2.2,0-3.2,0.7
					s-1.6,1.7-1.9,3.1c-0.2,0.7-0.2,1.5,0,2.1s0.4,1.2,0.7,1.6s0.7,0.8,1.1,1.2c0.4,0.3,0.7,0.5,0.9,0.7l-1.9,7.7
					c-0.2-0.1-0.4-0.2-0.7-0.3c-0.4-0.2-0.7-0.4-0.9-0.8c-0.2-0.3-0.4-0.8-0.5-1.3s0-1.3,0.2-2.1c0-0.1,0-0.2-0.1-0.3
					s-0.2-0.2-0.3-0.2c-0.3-0.1-0.5,0-0.7,0.3c-0.4,1.6-0.3,2.8,0.2,3.8c0.4,0.8,1.3,1.5,2.5,1.9l-0.2,1.1c-0.1,0.3,0.1,0.5,0.4,0.7
					c0.3,0.1,0.7-0.1,0.7-0.3l0.3-1.1c1.1,0.1,2.1-0.1,2.9-0.7c0.4-0.3,0.8-0.7,1.2-1.3c0.3-0.5,0.5-1.1,0.7-1.7
					c0.2-0.7,0.2-1.5,0-2.1c-0.3-0.9-0.6-1.4-0.9-1.9c-0.3-0.4-0.7-0.8-1.1-1.2c-0.3-0.2-0.5-0.4-0.7-0.5l2-8
					c0.7,0.3,1.3,0.7,1.6,1.3c0.4,0.8,0.4,1.9,0.1,3.3c0,0.1,0,0.2,0.1,0.3s0.2,0.2,0.3,0.2s0.3,0,0.4,0c0.1-0.1,0.2-0.1,0.2-0.2
					c0.4-1.6,0.3-2.8-0.2-3.8C149.3,138.9,148.5,138.2,147.4,137.9z M145.3,147.9c0.3,0.2,0.7,0.5,0.9,0.9c0.3,0.3,0.5,0.8,0.7,1.3
					c0.1,0.5,0.1,1.1,0,1.7c-0.4,1.2-0.9,2-1.7,2.6c-0.7,0.4-1.3,0.5-2,0.5l1.8-7.2C145.1,147.8,145.2,147.8,145.3,147.9z
					 M144.1,145.9c-0.1-0.1-0.2-0.2-0.4-0.5c-0.3-0.3-0.7-0.7-0.9-0.9c-0.3-0.4-0.4-0.8-0.7-1.3c-0.1-0.5-0.1-1.1,0-1.7
					c0.3-1.2,0.8-2,1.6-2.6c0.7-0.5,1.5-0.7,2.3-0.5L144.1,145.9z"/>
				<path class="st6" d="M137.2,55c-0.7-9.5,5.9-25.3,6.4-26.9c0-0.1,0,0,0-0.1c2.4-6.5,4.3-13.1,5.9-20.5
					c-4.4-0.8-8.9-1.2-13.6-1.2c-4.6,0-9.2,0.4-13.6,1.2c1.6,7.4,3.4,14.1,5.9,20.6l0,0l0,0c0.5,1.7,7.1,17.5,6.4,26.9l0,0H137.2
					C137.2,55.1,137.2,55.1,137.2,55z"/>
				<path class="st6" d="M120.4,28.1c-0.1-0.1-0.2-0.3-0.3-0.4c-3.9-5.2-8.3-10.5-12.4-16.2c-1.5,0.6-2.9,1.2-4.4,1.8
					c4.3,5,8.8,9.7,13.1,14.3c0.2,0.1,0.3,0.3,0.4,0.4c1.1,1.4,11.8,11.9,15.1,20.9c0.6,1.3,1.1,2.5,1.4,3.7
					C132.5,43.2,121.4,29.6,120.4,28.1z"/>
				<path class="st6" d="M155.3,27.8c4.4-4.7,9-9.4,13.2-14.5c-1.5-0.7-2.9-1.3-4.5-1.8c-4.1,5.7-8.6,11-12.5,16.3
					c-0.1,0.1-0.2,0.3-0.3,0.4c-1,1.5-11.6,14.4-12.9,23.9c0.5-1.6,1.3-3.3,2.3-5c4-8.5,13.3-17.6,14.3-18.9
					C155.1,28.1,155.2,27.9,155.3,27.8z"/>
				<path class="st0" d="M84.7,132.3c0.7-3.9,1.7-7.6,3.1-11.1c6.2-15.7,17.9-27.3,28.6-38.7c0.1-0.1,0.2-0.3,0.4-0.4
					c1.3-1.7,17.5-17.5,16-26.9c0.3-1.8-0.1-3.9-0.9-6c-4.5-9-16.1-19.5-17.3-20.9c-0.1-0.1-0.3-0.3-0.4-0.4
					c-4.4-4.3-9.1-8.7-13.5-13.2c-0.3,0.2-0.6,0.3-0.9,0.5c4.4,4.4,9.1,8.5,13.5,12.7c0.1,0.1,0.3,0.3,0.4,0.4
					c1.6,1.7,20.2,17.5,18.4,26.9c1.7,9.5-16.8,25.3-18.4,26.9c-0.1,0.1-0.3,0.3-0.4,0.4c-12.3,11.6-25.9,23.1-33,38.8
					c-2.5,5.5-4,11.6-4.4,17.8c0.6,0.7,1.3,1.4,1.9,2.1C79,137.4,81.5,134.3,84.7,132.3z"/>
				<path class="st10" d="M84.7,132.3c0.7-3.9,1.7-7.6,3.1-11.1c6.2-15.7,17.9-27.3,28.6-38.7c0.1-0.1,0.2-0.3,0.4-0.4
					c1.3-1.7,17.5-17.5,16-26.9c0.3-1.8-0.1-3.9-0.9-6c-4.5-9-16.1-19.5-17.3-20.9c-0.1-0.1-0.3-0.3-0.4-0.4
					c-4.4-4.3-9.1-8.7-13.5-13.2c-0.3,0.2-0.6,0.3-0.9,0.5c4.4,4.4,9.1,8.5,13.5,12.7c0.1,0.1,0.3,0.3,0.4,0.4
					c1.6,1.7,20.2,17.5,18.4,26.9c1.7,9.5-16.8,25.3-18.4,26.9c-0.1,0.1-0.3,0.3-0.4,0.4c-12.3,11.6-25.9,23.1-33,38.8
					c-2.5,5.5-4,11.6-4.4,17.8c0.6,0.7,1.3,1.4,1.9,2.1C79,137.4,81.5,134.3,84.7,132.3z"/>
				<path class="st6" d="M80.5,143.9c0.1-0.5,0.2-0.9,0.4-1.4c0.7-2.1,1.8-3.9,3.2-5.4c0.2-1.6,0.4-3.2,0.6-4.8
					c-3.2,2.1-5.7,5.2-6.9,8.8C78.6,142.1,79.6,143,80.5,143.9z"/>
				<path class="st10" d="M80.5,143.9c0.1-0.5,0.2-0.9,0.4-1.4c0.7-2.1,1.8-3.9,3.2-5.4c0.2-1.6,0.4-3.2,0.6-4.8
					c-3.2,2.1-5.7,5.2-6.9,8.8C78.6,142.1,79.6,143,80.5,143.9z"/>
				<path class="st7" d="M84.1,137.1L84.1,137.1c-1.4,1.5-2.6,3.3-3.2,5.4c-0.1,0.5-0.3,0.9-0.4,1.4c0,0,0,0,0.1,0.1
					C81,141.3,82.3,139,84.1,137.1z"/>
				<path class="st10" d="M84.1,137.1L84.1,137.1c-1.4,1.5-2.6,3.3-3.2,5.4c-0.1,0.5-0.3,0.9-0.4,1.4c0,0,0,0,0.1,0.1
					C81,141.3,82.3,139,84.1,137.1z"/>
				<path class="st7" d="M83.9,139c-1.3,1.6-2.2,3.6-2.6,5.7c0.8,0.8,1.7,1.5,2.6,2.3C83.7,144.3,83.8,141.7,83.9,139z"/>
				<path class="st10" d="M83.9,139c-1.3,1.6-2.2,3.6-2.6,5.7c0.8,0.8,1.7,1.5,2.6,2.3C83.7,144.3,83.8,141.7,83.9,139z"/>
				<path class="st8" d="M84.1,137.1c-1.8,1.9-3,4.2-3.5,6.8c0.3,0.2,0.5,0.5,0.8,0.7c0.4-2.1,1.3-4,2.6-5.7
					C84,138.4,84,137.7,84.1,137.1z"/>
				<path class="st10" d="M84.1,137.1c-1.8,1.9-3,4.2-3.5,6.8c0.3,0.2,0.5,0.5,0.8,0.7c0.4-2.1,1.3-4,2.6-5.7
					C84,138.4,84,137.7,84.1,137.1z"/>
				<path class="st6" d="M116.4,27.7c-4.4-4.7-8.9-9.4-13.1-14.3c-0.9,0.4-1.7,0.8-2.6,1.2c4.4,4.5,9,8.9,13.5,13.2
					c0.1,0.1,0.3,0.3,0.4,0.4c1.2,1.3,12.8,11.9,17.3,20.9c-3.3-9-14-19.6-15.1-20.9C116.7,28,116.6,27.8,116.4,27.7z"/>
				<path class="st10" d="M116.4,27.7c-4.4-4.7-8.9-9.4-13.1-14.3c-0.9,0.4-1.7,0.8-2.6,1.2c4.4,4.5,9,8.9,13.5,13.2
					c0.1,0.1,0.3,0.3,0.4,0.4c1.2,1.3,12.8,11.9,17.3,20.9c-3.3-9-14-19.6-15.1-20.9C116.7,28,116.6,27.8,116.4,27.7z"/>
				<path class="st0" d="M157.4,27.7c-0.1,0.1-0.3,0.3-0.4,0.4c-1.1,1.3-11.2,10.4-16.3,19c-1.3,2.9-2.1,5.7-1.7,8.1
					c-1.5,9.5,14.6,25.3,16,26.9c0.1,0.1,0.2,0.3,0.4,0.4c10.7,11.5,22.4,23,28.6,38.7c1.3,3.4,2.3,7,3,10.7c3.4,2,6,5.1,7.3,8.8
					c0.5-0.6,1.1-1.2,1.6-1.8c-0.5-6.2-1.9-12.3-4.4-17.8c-7.2-15.7-20.6-27.3-33-38.7c-0.1-0.1-0.3-0.3-0.4-0.4
					c-1.6-1.7-20.2-17.5-18.4-26.9c-1.7-9.5,16.8-25.3,18.4-26.9c0.1-0.1,0.3-0.3,0.4-0.4c4.5-4.2,9.2-8.4,13.6-12.8
					c-0.4-0.2-0.7-0.4-1.1-0.5C166.5,19,161.9,23.4,157.4,27.7z"/>
				<path class="st11" d="M157.4,27.7c-0.1,0.1-0.3,0.3-0.4,0.4c-1.1,1.3-11.2,10.4-16.3,19c-1.3,2.9-2.1,5.7-1.7,8.1
					c-1.5,9.5,14.6,25.3,16,26.9c0.1,0.1,0.2,0.3,0.4,0.4c10.7,11.5,22.4,23,28.6,38.7c1.3,3.4,2.3,7,3,10.7c3.4,2,6,5.1,7.3,8.8
					c0.5-0.6,1.1-1.2,1.6-1.8c-0.5-6.2-1.9-12.3-4.4-17.8c-7.2-15.7-20.6-27.3-33-38.7c-0.1-0.1-0.3-0.3-0.4-0.4
					c-1.6-1.7-20.2-17.5-18.4-26.9c-1.7-9.5,16.8-25.3,18.4-26.9c0.1-0.1,0.3-0.3,0.4-0.4c4.5-4.2,9.2-8.4,13.6-12.8
					c-0.4-0.2-0.7-0.4-1.1-0.5C166.5,19,161.9,23.4,157.4,27.7z"/>
				<path class="st6" d="M190.1,139.6c-0.4-0.5-0.8-0.9-1.2-1.4c1.2,1.6,2.1,3.4,2.5,5.4c0.9-0.9,1.9-1.8,2.7-2.8
					c-1.4-3.7-4-6.8-7.3-8.8c0.3,1.5,0.5,3,0.6,4.5C188.6,137.4,189.4,138.5,190.1,139.6z"/>
				<path class="st11" d="M190.1,139.6c-0.4-0.5-0.8-0.9-1.2-1.4c1.2,1.6,2.1,3.4,2.5,5.4c0.9-0.9,1.9-1.8,2.7-2.8
					c-1.4-3.7-4-6.8-7.3-8.8c0.3,1.5,0.5,3,0.6,4.5C188.6,137.4,189.4,138.5,190.1,139.6z"/>
				<path class="st7" d="M187.6,137c0.3,3.3,0.4,6.6,0.2,9.9c1.3-1.1,2.5-2.2,3.7-3.3c-0.4-2-1.3-3.8-2.5-5.4
					C188.5,137.8,188.1,137.4,187.6,137z"/>
				<path class="st11" d="M187.6,137c0.3,3.3,0.4,6.6,0.2,9.9c1.3-1.1,2.5-2.2,3.7-3.3c-0.4-2-1.3-3.8-2.5-5.4
					C188.5,137.8,188.1,137.4,187.6,137z"/>
				<path class="st8" d="M189,138.3c0.4,0.4,0.8,0.9,1.2,1.4c-0.7-1.2-1.6-2.2-2.6-3.1c0,0.1,0,0.2,0,0.3
					C188.1,137.2,188.5,137.7,189,138.3z"/>
				<path class="st11" d="M189,138.3c0.4,0.4,0.8,0.9,1.2,1.4c-0.7-1.2-1.6-2.2-2.6-3.1c0,0.1,0,0.2,0,0.3
					C188.1,137.2,188.5,137.7,189,138.3z"/>
				<path class="st8" d="M187.6,136.8c0,0.1,0,0.2,0,0.3c0.5,0.4,0.9,0.8,1.3,1.2C188.5,137.7,188.1,137.2,187.6,136.8z"/>
				<path class="st11" d="M187.6,136.8c0,0.1,0,0.2,0,0.3c0.5,0.4,0.9,0.8,1.3,1.2C188.5,137.7,188.1,137.2,187.6,136.8z"/>
				<path class="st6" d="M155.3,27.8c-0.1,0.1-0.2,0.3-0.4,0.4c-1,1.3-10.3,10.4-14.3,18.9c5.1-8.6,15.2-17.7,16.3-19
					c0.1-0.1,0.3-0.3,0.4-0.4c4.5-4.3,9.1-8.7,13.6-13.3c-0.8-0.4-1.6-0.7-2.4-1.1C164.3,18.4,159.7,23.1,155.3,27.8z"/>
				<path class="st11" d="M155.3,27.8c-0.1,0.1-0.2,0.3-0.4,0.4c-1,1.3-10.3,10.4-14.3,18.9c5.1-8.6,15.2-17.7,16.3-19
					c0.1-0.1,0.3-0.3,0.4-0.4c4.5-4.3,9.1-8.7,13.6-13.3c-0.8-0.4-1.6-0.7-2.4-1.1C164.3,18.4,159.7,23.1,155.3,27.8z"/>
				<path class="st0" d="M104.7,133.6c-1.7-2.6-2.6-5.7-2.6-9c0-9.4,7.6-17,17-17c0.9,0,1.7,0.1,2.6,0.2c0.2-0.9,0.3-1.9,0.5-2.8
					c-1.3-1.8-2.3-3.9-2.8-6.3c-1.7-8,2.5-15.8,9.6-19c1.4-3.7,4.1-11.2,5.2-17.9c-0.2-4.3-0.3-6.6-0.3-6.6h0.7v-0.1h-0.8
					c0-0.8-0.1-1.6-0.4-2.4c0.1,0.8,0.1,1.6,0,2.3c1.3,9.5-11.8,25.3-13,26.9c-0.1,0.1-0.2,0.3-0.3,0.4c-8.6,11.5-19.6,23-24.5,38.7
					c-0.8,2.7-1.5,5.6-2,8.5c0.1,0,0.2,0,0.3,0C98,129.6,101.8,131.1,104.7,133.6z"/>
				<path class="st11" d="M104.7,133.6c-1.7-2.6-2.6-5.7-2.6-9c0-9.4,7.6-17,17-17c0.9,0,1.7,0.1,2.6,0.2c0.2-0.9,0.3-1.9,0.5-2.8
					c-1.3-1.8-2.3-3.9-2.8-6.3c-1.7-8,2.5-15.8,9.6-19c1.4-3.7,4.1-11.2,5.2-17.9c-0.2-4.3-0.3-6.6-0.3-6.6h0.7v-0.1h-0.8
					c0-0.8-0.1-1.6-0.4-2.4c0.1,0.8,0.1,1.6,0,2.3c1.3,9.5-11.8,25.3-13,26.9c-0.1,0.1-0.2,0.3-0.3,0.4c-8.6,11.5-19.6,23-24.5,38.7
					c-0.8,2.7-1.5,5.6-2,8.5c0.1,0,0.2,0,0.3,0C98,129.6,101.8,131.1,104.7,133.6z"/>
				<path class="st5" d="M118.1,151.8c-0.2-3.4-0.2-6.8-0.2-10.3c-3.7-0.3-7.1-1.7-9.7-3.9c1.7,2.6,2.6,5.7,2.6,9
					c0,5.3-2.5,10.1-6.3,13.2h14.1C118.3,156.6,118.1,152.4,118.1,151.8z"/>
				<path class="st11" d="M118.1,151.8c-0.2-3.4-0.2-6.8-0.2-10.3c-3.7-0.3-7.1-1.7-9.7-3.9c1.7,2.6,2.6,5.7,2.6,9
					c0,5.3-2.5,10.1-6.3,13.2h14.1C118.3,156.6,118.1,152.4,118.1,151.8z"/>
				<path class="st6" d="M134.6,55.2h-0.8c0,0,0.2,2.4,0.3,6.6C134.5,59.4,134.7,57.2,134.6,55.2z"/>
				<path class="st11" d="M134.6,55.2h-0.8c0,0,0.2,2.4,0.3,6.6C134.5,59.4,134.7,57.2,134.6,55.2z"/>
				<path class="st6" d="M103.2,136.7l2.1-2.3c-0.2-0.3-0.4-0.5-0.6-0.8c-2.9-2.5-6.7-4-10.9-4c-0.1,0-0.2,0-0.3,0
					c-0.2,1.1-0.4,2.3-0.5,3.4C96.8,132.8,100.5,134.1,103.2,136.7z"/>
				<path class="st11" d="M103.2,136.7l2.1-2.3c-0.2-0.3-0.4-0.5-0.6-0.8c-2.9-2.5-6.7-4-10.9-4c-0.1,0-0.2,0-0.3,0
					c-0.2,1.1-0.4,2.3-0.5,3.4C96.8,132.8,100.5,134.1,103.2,136.7z"/>
				<path class="st6" d="M104.5,138.2c-0.2-0.2-0.5-0.5-0.7-0.7c3.2,3.5,4.4,8.5,2.9,13.3c-1,3.2-3.2,5.8-5.8,7.4
					c1.2,0.6,2.3,1.1,3.5,1.6l0,0c3.8-3.1,6.3-7.9,6.3-13.2c0-3.3-1-6.4-2.6-9c-1.1-0.9-2.1-2-2.9-3.1l-2.1,2.3
					C103.6,137.1,104.1,137.6,104.5,138.2z"/>
				<path class="st11" d="M104.5,138.2c-0.2-0.2-0.5-0.5-0.7-0.7c3.2,3.5,4.4,8.5,2.9,13.3c-1,3.2-3.2,5.8-5.8,7.4
					c1.2,0.6,2.3,1.1,3.5,1.6l0,0c3.8-3.1,6.3-7.9,6.3-13.2c0-3.3-1-6.4-2.6-9c-1.1-0.9-2.1-2-2.9-3.1l-2.1,2.3
					C103.6,137.1,104.1,137.6,104.5,138.2z"/>
				<path class="st7" d="M92.7,136.2l0.2,0.9c1.2-0.1,2.1,0.2,2.8,0.7c1,0.6,1.5,1.8,1.8,3.3c0,0.1,0,0.2-0.1,0.3s-0.2,0.2-0.3,0.2
					c-0.2,0-0.3,0-0.4-0.1s-0.2-0.2-0.2-0.3c-0.3-1.3-0.7-2.3-1.5-2.8c-0.5-0.4-1.2-0.5-2-0.5l1.5,8.1c0,0,0,0,0.1,0l8.5-9.3
					c-2.8-2.2-6.4-3.3-10.2-2.9c-0.1,0.7-0.2,1.4-0.2,2.1C92.7,136.1,92.7,136.2,92.7,136.2z"/>
				<path class="st11" d="M92.7,136.2l0.2,0.9c1.2-0.1,2.1,0.2,2.8,0.7c1,0.6,1.5,1.8,1.8,3.3c0,0.1,0,0.2-0.1,0.3s-0.2,0.2-0.3,0.2
					c-0.2,0-0.3,0-0.4-0.1s-0.2-0.2-0.2-0.3c-0.3-1.3-0.7-2.3-1.5-2.8c-0.5-0.4-1.2-0.5-2-0.5l1.5,8.1c0,0,0,0,0.1,0l8.5-9.3
					c-2.8-2.2-6.4-3.3-10.2-2.9c-0.1,0.7-0.2,1.4-0.2,2.1C92.7,136.1,92.7,136.2,92.7,136.2z"/>
				<path class="st7" d="M92.3,145.8c0.1,0,0.2,0.1,0.3,0.1c0.2,0.1,0.6,0.1,0.8,0.1l-1.1-5.6C92.3,142.1,92.3,144,92.3,145.8z"/>
				<path class="st11" d="M92.3,145.8c0.1,0,0.2,0.1,0.3,0.1c0.2,0.1,0.6,0.1,0.8,0.1l-1.1-5.6C92.3,142.1,92.3,144,92.3,145.8z"/>
				<path class="st7" d="M93.6,146.9c-0.3,0-0.7-0.1-1.2-0.2h-0.1c0,1.2,0.1,2.3,0.2,3.5c0.2-1,0.6-2,1.1-2.9V146.9z"/>
				<path class="st11" d="M93.6,146.9c-0.3,0-0.7-0.1-1.2-0.2h-0.1c0,1.2,0.1,2.3,0.2,3.5c0.2-1,0.6-2,1.1-2.9V146.9z"/>
				<path class="st7" d="M92.9,153.7c0.6,0.4,1.1,0.7,1.7,1.1c0.2,0,0.3,0,0.5,0l-1.4-7.5c-0.5,0.8-0.9,1.8-1.1,2.9
					c0,0.5,0.1,1.1,0.1,1.6C92.7,152,92.8,152.7,92.9,153.7z"/>
				<path class="st11" d="M92.9,153.7c0.6,0.4,1.1,0.7,1.7,1.1c0.2,0,0.3,0,0.5,0l-1.4-7.5c-0.5,0.8-0.9,1.8-1.1,2.9
					c0,0.5,0.1,1.1,0.1,1.6C92.7,152,92.8,152.7,92.9,153.7z"/>
				<path class="st7" d="M97.7,153.3c0.5-0.8,0.7-1.8,0.4-3c-0.1-0.7-0.3-1.2-0.7-1.6c-0.4-0.4-0.7-0.7-1.1-0.9s-0.8-0.3-1.3-0.4
					c-0.2,0-0.3-0.1-0.4-0.1l1.3,7.2C96.7,154.3,97.3,153.9,97.7,153.3z"/>
				<path class="st11" d="M97.7,153.3c0.5-0.8,0.7-1.8,0.4-3c-0.1-0.7-0.3-1.2-0.7-1.6c-0.4-0.4-0.7-0.7-1.1-0.9s-0.8-0.3-1.3-0.4
					c-0.2,0-0.3-0.1-0.4-0.1l1.3,7.2C96.7,154.3,97.3,153.9,97.7,153.3z"/>
				<path class="st7" d="M106.7,150.7c1.5-4.8,0.2-9.8-2.9-13.3c-0.2-0.2-0.5-0.4-0.7-0.6l-8.5,9.3c0.2,0.1,0.5,0.1,0.8,0.2
					c0.6,0.2,1,0.3,1.5,0.7c0.5,0.3,0.9,0.7,1.5,1.1c0.4,0.6,0.7,1.2,0.8,1.9s0.1,1.3,0,1.9c-0.1,0.5-0.2,1.1-0.5,1.6
					c-0.4,0.9-1.3,1.5-2.3,1.8l0.1,0.5c1.4,0.8,2.9,1.6,4.4,2.3C103.6,156.5,105.7,153.9,106.7,150.7z"/>
				<path class="st11" d="M106.7,150.7c1.5-4.8,0.2-9.8-2.9-13.3c-0.2-0.2-0.5-0.4-0.7-0.6l-8.5,9.3c0.2,0.1,0.5,0.1,0.8,0.2
					c0.6,0.2,1,0.3,1.5,0.7c0.5,0.3,0.9,0.7,1.5,1.1c0.4,0.6,0.7,1.2,0.8,1.9s0.1,1.3,0,1.9c-0.1,0.5-0.2,1.1-0.5,1.6
					c-0.4,0.9-1.3,1.5-2.3,1.8l0.1,0.5c1.4,0.8,2.9,1.6,4.4,2.3C103.6,156.5,105.7,153.9,106.7,150.7z"/>
				<path class="st8" d="M97.9,133.7c2,0.6,3.8,1.7,5.2,3.1l0.1-0.1c-2.7-2.6-6.3-3.9-10.2-3.7l0,0C94.6,133,96.3,133.1,97.9,133.7z
					"/>
				<path class="st11" d="M97.9,133.7c2,0.6,3.8,1.7,5.2,3.1l0.1-0.1c-2.7-2.6-6.3-3.9-10.2-3.7l0,0C94.6,133,96.3,133.1,97.9,133.7
					z"/>
				<path class="st8" d="M103.8,137.5c0.2,0.2,0.5,0.5,0.7,0.7c-0.4-0.5-0.9-1-1.3-1.5l-0.1,0.1C103.3,137,103.6,137.2,103.8,137.5z
					"/>
				<path class="st11" d="M103.8,137.5c0.2,0.2,0.5,0.5,0.7,0.7c-0.4-0.5-0.9-1-1.3-1.5l-0.1,0.1C103.3,137,103.6,137.2,103.8,137.5
					z"/>
				<path class="st8" d="M103.1,136.8L103.1,136.8c-1.4-1.4-3.1-2.5-5.2-3.2c-1.6-0.5-3.3-0.7-4.9-0.6c0,0.3-0.1,0.6-0.1,0.9
					C96.6,133.5,100.3,134.6,103.1,136.8z"/>
				<path class="st11" d="M103.1,136.8L103.1,136.8c-1.4-1.4-3.1-2.5-5.2-3.2c-1.6-0.5-3.3-0.7-4.9-0.6c0,0.3-0.1,0.6-0.1,0.9
					C96.6,133.5,100.3,134.6,103.1,136.8z"/>
				<path class="st8" d="M103.8,137.5c-0.2-0.2-0.4-0.5-0.7-0.7l-0.1,0.1C103.3,137,103.5,137.2,103.8,137.5z"/>
				<path class="st11" d="M103.8,137.5c-0.2-0.2-0.4-0.5-0.7-0.7l-0.1,0.1C103.3,137,103.5,137.2,103.8,137.5z"/>
				<path class="st9" d="M93.6,146.9l0.1,0.3c0.2-0.3,0.5-0.7,0.7-0.9l0.1-0.2c0,0,0,0-0.1,0l-1.5-8.1c0.8,0,1.5,0.1,2,0.5
					c0.7,0.5,1.2,1.5,1.5,2.8c0,0.1,0.1,0.2,0.2,0.3s0.2,0.1,0.4,0.1c0.1,0,0.2-0.1,0.3-0.2c0.1-0.1,0.1-0.2,0.1-0.3
					c-0.3-1.6-0.8-2.7-1.8-3.3c-0.7-0.5-1.7-0.8-2.8-0.7l-0.2-0.9c0-0.1,0-0.2-0.1-0.2c-0.1,1.4-0.2,2.9-0.3,4.3l1.1,5.6
					c-0.3,0-0.6,0-0.8-0.1c-0.1,0-0.2-0.1-0.3-0.1c0,0.3,0,0.6,0,0.9h0.1C92.9,146.8,93.3,146.9,93.6,146.9z"/>
				<path class="st11" d="M93.6,146.9l0.1,0.3c0.2-0.3,0.5-0.7,0.7-0.9l0.1-0.2c0,0,0,0-0.1,0l-1.5-8.1c0.8,0,1.5,0.1,2,0.5
					c0.7,0.5,1.2,1.5,1.5,2.8c0,0.1,0.1,0.2,0.2,0.3s0.2,0.1,0.4,0.1c0.1,0,0.2-0.1,0.3-0.2c0.1-0.1,0.1-0.2,0.1-0.3
					c-0.3-1.6-0.8-2.7-1.8-3.3c-0.7-0.5-1.7-0.8-2.8-0.7l-0.2-0.9c0-0.1,0-0.2-0.1-0.2c-0.1,1.4-0.2,2.9-0.3,4.3l1.1,5.6
					c-0.3,0-0.6,0-0.8-0.1c-0.1,0-0.2-0.1-0.3-0.1c0,0.3,0,0.6,0,0.9h0.1C92.9,146.8,93.3,146.9,93.6,146.9z"/>
				<path class="st9" d="M98.7,153.5c0.3-0.5,0.4-1.1,0.5-1.6c0.1-0.7,0.1-1.3,0-1.9c-0.1-0.7-0.4-1.3-0.8-1.9
					c-0.6-0.4-1-0.7-1.5-1.1c-0.5-0.3-0.9-0.4-1.5-0.7c-0.3-0.1-0.6-0.1-0.8-0.2l-0.1,0.2c-0.3,0.3-0.5,0.6-0.7,0.9l1.4,7.5
					c-0.2,0-0.3,0-0.5,0c0.6,0.4,1.2,0.7,1.9,1.1l-0.1-0.5C97.4,155,98.3,154.4,98.7,153.5z M94.6,147.3c0.1,0,0.2,0.1,0.4,0.1
					c0.4,0.1,0.8,0.2,1.3,0.4c0.4,0.2,0.7,0.5,1.1,0.9s0.5,0.9,0.7,1.6c0.3,1.2,0.1,2.1-0.4,3c-0.3,0.7-0.9,1.1-1.7,1.3L94.6,147.3z
					"/>
				<path class="st11" d="M98.7,153.5c0.3-0.5,0.4-1.1,0.5-1.6c0.1-0.7,0.1-1.3,0-1.9c-0.1-0.7-0.4-1.3-0.8-1.9
					c-0.6-0.4-1-0.7-1.5-1.1c-0.5-0.3-0.9-0.4-1.5-0.7c-0.3-0.1-0.6-0.1-0.8-0.2l-0.1,0.2c-0.3,0.3-0.5,0.6-0.7,0.9l1.4,7.5
					c-0.2,0-0.3,0-0.5,0c0.6,0.4,1.2,0.7,1.9,1.1l-0.1-0.5C97.4,155,98.3,154.4,98.7,153.5z M94.6,147.3c0.1,0,0.2,0.1,0.4,0.1
					c0.4,0.1,0.8,0.2,1.3,0.4c0.4,0.2,0.7,0.5,1.1,0.9s0.5,0.9,0.7,1.6c0.3,1.2,0.1,2.1-0.4,3c-0.3,0.7-0.9,1.1-1.7,1.3L94.6,147.3z
					"/>
				<path class="st6" d="M107.6,131.8c-1.4-2.1-2.1-4.6-2.2-7.1c0-0.2,0-0.3,0-0.5c0-0.1,0-0.2,0-0.3c0-1.7,0.4-3.5,1.2-5.1
					c0.6-1.3,1.4-2.4,2.2-3.4c0.6-0.7,1.2-1.3,1.9-1.8s1.4-1,2.2-1.4c2.3-1.1,5-1.6,7.6-1.3c0.1,0,0.2,0,0.4,0.1
					c0.2-1.1,0.4-2.2,0.6-3.3c-0.8-0.1-1.7-0.2-2.6-0.2c-9.4,0-17,7.6-17,17c0,3.3,1,6.4,2.6,9c0.2,0.2,0.5,0.4,0.7,0.6L107.6,131.8
					z"/>
				<path class="st11" d="M107.6,131.8c-1.4-2.1-2.1-4.6-2.2-7.1c0-0.2,0-0.3,0-0.5c0-0.1,0-0.2,0-0.3c0-1.7,0.4-3.5,1.2-5.1
					c0.6-1.3,1.4-2.4,2.2-3.4c0.6-0.7,1.2-1.3,1.9-1.8s1.4-1,2.2-1.4c2.3-1.1,5-1.6,7.6-1.3c0.1,0,0.2,0,0.4,0.1
					c0.2-1.1,0.4-2.2,0.6-3.3c-0.8-0.1-1.7-0.2-2.6-0.2c-9.4,0-17,7.6-17,17c0,3.3,1,6.4,2.6,9c0.2,0.2,0.5,0.4,0.7,0.6L107.6,131.8
					z"/>
				<path class="st6" d="M117.9,138c-1.5-0.1-3.1-0.5-4.6-1.2c-2.5-1.1-4.4-2.9-5.8-5l-2.2,2.4c1,1,2,2.1,2.7,3.3
					c2.7,2.2,6,3.7,9.7,3.9C117.9,140.3,117.9,139.2,117.9,138z"/>
				<path class="st11" d="M117.9,138c-1.5-0.1-3.1-0.5-4.6-1.2c-2.5-1.1-4.4-2.9-5.8-5l-2.2,2.4c1,1,2,2.1,2.7,3.3
					c2.7,2.2,6,3.7,9.7,3.9C117.9,140.3,117.9,139.2,117.9,138z"/>
				<path class="st6" d="M104.7,133.6c0.2,0.3,0.4,0.6,0.6,0.8l0.2-0.2C105.2,134,105,133.8,104.7,133.6z"/>
				<path class="st11" d="M104.7,133.6c0.2,0.3,0.4,0.6,0.6,0.8l0.2-0.2C105.2,134,105,133.8,104.7,133.6z"/>
				<path class="st6" d="M108.1,137.5c-0.8-1.2-1.7-2.3-2.7-3.3l-0.2,0.2C106.1,135.6,107.1,136.6,108.1,137.5z"/>
				<path class="st11" d="M108.1,137.5c-0.8-1.2-1.7-2.3-2.7-3.3l-0.2,0.2C106.1,135.6,107.1,136.6,108.1,137.5z"/>
				<path class="st7" d="M116.4,120.7c-0.1-0.7,0.1-1.3,0.4-2c0.6-1.3,1.3-2.1,2.4-2.6c0.3-0.2,0.7-0.3,1.1-0.3
					c0.2-1.2,0.4-2.4,0.6-3.5c-5.8-0.8-11.6,2.2-14.1,7.8c-1,2-1.3,4.2-1.2,6.4c-0.1-0.5-0.1-1.1-0.2-1.6c0.1,2.5,0.8,5,2.2,7.1
					l9-10C116.5,121.5,116.4,121.1,116.4,120.7z"/>
				<path class="st11" d="M116.4,120.7c-0.1-0.7,0.1-1.3,0.4-2c0.6-1.3,1.3-2.1,2.4-2.6c0.3-0.2,0.7-0.3,1.1-0.3
					c0.2-1.2,0.4-2.4,0.6-3.5c-5.8-0.8-11.6,2.2-14.1,7.8c-1,2-1.3,4.2-1.2,6.4c-0.1-0.5-0.1-1.1-0.2-1.6c0.1,2.5,0.8,5,2.2,7.1
					l9-10C116.5,121.5,116.4,121.1,116.4,120.7z"/>
				<path class="st7" d="M110.8,113.6c-0.7,0.5-1.4,1.1-1.9,1.8C109.5,114.8,110.1,114.2,110.8,113.6z"/>
				<path class="st11" d="M110.8,113.6c-0.7,0.5-1.4,1.1-1.9,1.8C109.5,114.8,110.1,114.2,110.8,113.6z"/>
				<path class="st7" d="M105.4,124.3c0-0.1,0-0.2,0-0.3C105.4,124.1,105.4,124.2,105.4,124.3z"/>
				<path class="st11" d="M105.4,124.3c0-0.1,0-0.2,0-0.3C105.4,124.1,105.4,124.2,105.4,124.3z"/>
				<path class="st7" d="M120.7,111c-2.6-0.3-5.3,0.1-7.6,1.3C115.4,111.1,118,110.7,120.7,111z"/>
				<path class="st11" d="M120.7,111c-2.6-0.3-5.3,0.1-7.6,1.3C115.4,111.1,118,110.7,120.7,111z"/>
				<path class="st7" d="M110.8,113.6c0.7-0.5,1.4-1,2.2-1.4C112.3,112.7,111.5,113.1,110.8,113.6z"/>
				<path class="st11" d="M110.8,113.6c0.7-0.5,1.4-1,2.2-1.4C112.3,112.7,111.5,113.1,110.8,113.6z"/>
				<path class="st7" d="M120.1,116.8c-0.2,0.1-0.3,0.1-0.5,0.2c-0.8,0.4-1.5,1.2-2,2.2c-0.2,0.6-0.3,1.2-0.3,1.7c0,0.1,0,0.2,0,0.2
					l2.5-2.8C119.9,117.8,120,117.3,120.1,116.8z"/>
				<path class="st11" d="M120.1,116.8c-0.2,0.1-0.3,0.1-0.5,0.2c-0.8,0.4-1.5,1.2-2,2.2c-0.2,0.6-0.3,1.2-0.3,1.7
					c0,0.1,0,0.2,0,0.2l2.5-2.8C119.9,117.8,120,117.3,120.1,116.8z"/>
				<path class="st7" d="M113.4,136.9c1.5,0.7,3,1.1,4.6,1.2c0-1.6,0.1-3.2,0.2-4.7c-0.7,0.2-1.4,0.1-2.2-0.1l-0.4,0.9
					c-0.1,0.2-0.4,0.3-0.7,0.2c-0.3-0.2-0.4-0.5-0.3-0.7l0.4-0.9c-1.2-0.7-1.8-1.4-2.1-2.3c-0.3-1.1-0.1-2.3,0.5-3.8
					c0.1-0.3,0.3-0.3,0.7-0.2c0.1,0,0.2,0.1,0.2,0.2c0.1,0.1,0.1,0.2,0,0.3c-0.4,0.8-0.7,1.6-0.7,2.1c-0.1,0.7,0,1.1,0.2,1.5
					s0.5,0.7,0.8,0.9c0.2,0.2,0.4,0.3,0.7,0.4l3.3-7.2c-0.2-0.3-0.5-0.5-0.8-0.9s-0.6-0.8-0.8-1.3c-0.1-0.2-0.1-0.3-0.2-0.5l-9,10
					C109,133.9,110.9,135.7,113.4,136.9z"/>
				<path class="st11" d="M113.4,136.9c1.5,0.7,3,1.1,4.6,1.2c0-1.6,0.1-3.2,0.2-4.7c-0.7,0.2-1.4,0.1-2.2-0.1l-0.4,0.9
					c-0.1,0.2-0.4,0.3-0.7,0.2c-0.3-0.2-0.4-0.5-0.3-0.7l0.4-0.9c-1.2-0.7-1.8-1.4-2.1-2.3c-0.3-1.1-0.1-2.3,0.5-3.8
					c0.1-0.3,0.3-0.3,0.7-0.2c0.1,0,0.2,0.1,0.2,0.2c0.1,0.1,0.1,0.2,0,0.3c-0.4,0.8-0.7,1.6-0.7,2.1c-0.1,0.7,0,1.1,0.2,1.5
					s0.5,0.7,0.8,0.9c0.2,0.2,0.4,0.3,0.7,0.4l3.3-7.2c-0.2-0.3-0.5-0.5-0.8-0.9s-0.6-0.8-0.8-1.3c-0.1-0.2-0.1-0.3-0.2-0.5l-9,10
					C109,133.9,110.9,135.7,113.4,136.9z"/>
				<path class="st7" d="M119.9,118.3l-2.5,2.8c0,0.4,0.1,0.8,0.3,1.1c0.2,0.4,0.4,0.8,0.7,1.2c0.1,0.1,0.3,0.3,0.4,0.7l0.3-0.7
					c0.1-0.7,0.2-1.5,0.3-2.2C119.6,120.2,119.7,119.3,119.9,118.3z"/>
				<path class="st11" d="M119.9,118.3l-2.5,2.8c0,0.4,0.1,0.8,0.3,1.1c0.2,0.4,0.4,0.8,0.7,1.2c0.1,0.1,0.3,0.3,0.4,0.7l0.3-0.7
					c0.1-0.7,0.2-1.5,0.3-2.2C119.6,120.2,119.7,119.3,119.9,118.3z"/>
				<path class="st7" d="M118.2,132.2c0.1-1.8,0.3-3.6,0.5-5.4l-2.5,5.5C116.9,132.5,117.6,132.5,118.2,132.2z"/>
				<path class="st11" d="M118.2,132.2c0.1-1.8,0.3-3.6,0.5-5.4l-2.5,5.5C116.9,132.5,117.6,132.5,118.2,132.2z"/>
				<path class="st8" d="M105.4,124c0.1-1.7,0.5-3.4,1.2-5.1C105.8,120.5,105.4,122.3,105.4,124z"/>
				<path class="st11" d="M105.4,124c0.1-1.7,0.5-3.4,1.2-5.1C105.8,120.5,105.4,122.3,105.4,124z"/>
				<path class="st8" d="M105.4,124.8c0-0.2,0-0.3,0-0.5C105.4,124.5,105.4,124.6,105.4,124.8z"/>
				<path class="st11" d="M105.4,124.8c0-0.2,0-0.3,0-0.5C105.4,124.5,105.4,124.6,105.4,124.8z"/>
				<path class="st8" d="M106.7,120c2.6-5.6,8.4-8.6,14.1-7.8c0.1-0.4,0.1-0.7,0.2-1.1c-0.1,0-0.2,0-0.4-0.1
					c-2.6-0.3-5.3,0.1-7.6,1.3c-0.8,0.4-1.5,0.8-2.2,1.4s-1.4,1.1-1.9,1.8c-0.9,1-1.7,2.1-2.2,3.4c-0.8,1.7-1.2,3.4-1.2,5.1
					c0,0.1,0,0.2,0,0.3c0,0.2,0,0.3,0,0.5c0,0.5,0.1,1.1,0.2,1.6C105.5,124.2,105.8,122,106.7,120z"/>
				<path class="st11" d="M106.7,120c2.6-5.6,8.4-8.6,14.1-7.8c0.1-0.4,0.1-0.7,0.2-1.1c-0.1,0-0.2,0-0.4-0.1
					c-2.6-0.3-5.3,0.1-7.6,1.3c-0.8,0.4-1.5,0.8-2.2,1.4s-1.4,1.1-1.9,1.8c-0.9,1-1.7,2.1-2.2,3.4c-0.8,1.7-1.2,3.4-1.2,5.1
					c0,0.1,0,0.2,0,0.3c0,0.2,0,0.3,0,0.5c0,0.5,0.1,1.1,0.2,1.6C105.5,124.2,105.8,122,106.7,120z"/>
				<path class="st9" d="M117.3,120.9c0-0.5,0.1-1.1,0.3-1.7c0.5-1.1,1.2-1.8,2-2.2c0.2-0.1,0.3-0.1,0.5-0.2
					c0.1-0.4,0.1-0.7,0.2-1.1c-0.4,0.1-0.7,0.2-1.1,0.3c-1.1,0.5-1.8,1.3-2.4,2.6c-0.3,0.7-0.5,1.3-0.4,2c0,0.5,0.1,0.8,0.2,1.2
					l0.7-0.8C117.3,121,117.3,121,117.3,120.9z"/>
				<path class="st11" d="M117.3,120.9c0-0.5,0.1-1.1,0.3-1.7c0.5-1.1,1.2-1.8,2-2.2c0.2-0.1,0.3-0.1,0.5-0.2
					c0.1-0.4,0.1-0.7,0.2-1.1c-0.4,0.1-0.7,0.2-1.1,0.3c-1.1,0.5-1.8,1.3-2.4,2.6c-0.3,0.7-0.5,1.3-0.4,2c0,0.5,0.1,0.8,0.2,1.2
					l0.7-0.8C117.3,121,117.3,121,117.3,120.9z"/>
				<path class="st9" d="M116.2,132.3l2.5-5.5c0.1-1.2,0.3-2.3,0.4-3.5l-0.3,0.7c-0.1-0.4-0.3-0.6-0.4-0.7c-0.3-0.3-0.5-0.7-0.7-1.2
					c-0.2-0.4-0.3-0.7-0.3-1.1l-0.8,0.9c0.1,0.2,0.1,0.3,0.2,0.5c0.2,0.5,0.5,0.9,0.8,1.3s0.7,0.7,0.8,0.9l-3.3,7.2
					c-0.2-0.1-0.4-0.2-0.7-0.4s-0.7-0.5-0.8-0.9c-0.2-0.4-0.3-0.8-0.2-1.5c0-0.5,0.2-1.3,0.7-2.1c0.1-0.1,0.1-0.2,0-0.3
					c0-0.1-0.1-0.2-0.2-0.2c-0.3-0.1-0.5-0.1-0.7,0.2c-0.7,1.5-0.8,2.7-0.5,3.8c0.3,0.9,0.9,1.7,2.1,2.3l-0.4,0.9
					c-0.1,0.2,0,0.5,0.3,0.7c0.3,0.1,0.7,0,0.7-0.2l0.4-0.9c0.8,0.2,1.5,0.3,2.2,0.1c0-0.4,0-0.7,0.1-1.1
					C117.6,132.5,116.9,132.5,116.2,132.3z"/>
				<path class="st11" d="M116.2,132.3l2.5-5.5c0.1-1.2,0.3-2.3,0.4-3.5l-0.3,0.7c-0.1-0.4-0.3-0.6-0.4-0.7
					c-0.3-0.3-0.5-0.7-0.7-1.2c-0.2-0.4-0.3-0.7-0.3-1.1l-0.8,0.9c0.1,0.2,0.1,0.3,0.2,0.5c0.2,0.5,0.5,0.9,0.8,1.3s0.7,0.7,0.8,0.9
					l-3.3,7.2c-0.2-0.1-0.4-0.2-0.7-0.4s-0.7-0.5-0.8-0.9c-0.2-0.4-0.3-0.8-0.2-1.5c0-0.5,0.2-1.3,0.7-2.1c0.1-0.1,0.1-0.2,0-0.3
					c0-0.1-0.1-0.2-0.2-0.2c-0.3-0.1-0.5-0.1-0.7,0.2c-0.7,1.5-0.8,2.7-0.5,3.8c0.3,0.9,0.9,1.7,2.1,2.3l-0.4,0.9
					c-0.1,0.2,0,0.5,0.3,0.7c0.3,0.1,0.7,0,0.7-0.2l0.4-0.9c0.8,0.2,1.5,0.3,2.2,0.1c0-0.4,0-0.7,0.1-1.1
					C117.6,132.5,116.9,132.5,116.2,132.3z"/>
				<path class="st6" d="M122.7,98.2c-1-4.6,0.5-9.2,3.5-12.3c0.3-0.3,0.6-0.6,0.9-0.9c0.3-0.9,0.6-1.7,0.9-2.6
					c0-0.1,0.1-0.3,0.1-0.4c0.1-0.3,0.4-1.1,0.8-2.2c-7.1,3.2-11.3,11.1-9.6,19c0.5,2.3,1.5,4.5,2.8,6.3c0.3-1.8,0.7-3.6,1-5.3
					C123,99.2,122.8,98.7,122.7,98.2z"/>
				<path class="st11" d="M122.7,98.2c-1-4.6,0.5-9.2,3.5-12.3c0.3-0.3,0.6-0.6,0.9-0.9c0.3-0.9,0.6-1.7,0.9-2.6
					c0-0.1,0.1-0.3,0.1-0.4c0.1-0.3,0.4-1.1,0.8-2.2c-7.1,3.2-11.3,11.1-9.6,19c0.5,2.3,1.5,4.5,2.8,6.3c0.3-1.8,0.7-3.6,1-5.3
					C123,99.2,122.8,98.7,122.7,98.2z"/>
				<path class="st7" d="M123.4,98.6c0.8-3.9,1.8-7.6,2.9-11.2C123.8,90.4,122.6,94.4,123.4,98.6z"/>
				<path class="st11" d="M123.4,98.6c0.8-3.9,1.8-7.6,2.9-11.2C123.8,90.4,122.6,94.4,123.4,98.6z"/>
				<path class="st7" d="M122.8,98.1c-1-4.6,0.4-9.1,3.4-12.3C123.2,89,121.7,93.5,122.8,98.1c0.1,0.6,0.2,1.1,0.4,1.6v-0.1
					C123,99.1,122.9,98.6,122.8,98.1z"/>
				<path class="st11" d="M122.8,98.1c-1-4.6,0.4-9.1,3.4-12.3C123.2,89,121.7,93.5,122.8,98.1c0.1,0.6,0.2,1.1,0.4,1.6v-0.1
					C123,99.1,122.9,98.6,122.8,98.1z"/>
				<path class="st8" d="M127.1,85c-0.3,0.3-0.6,0.6-0.9,0.9C126.5,85.5,126.8,85.2,127.1,85L127.1,85z"/>
				<path class="st11" d="M127.1,85c-0.3,0.3-0.6,0.6-0.9,0.9C126.5,85.5,126.8,85.2,127.1,85L127.1,85z"/>
				<path class="st8" d="M122.8,98.1c0.1,0.5,0.2,1,0.4,1.5c0.1-0.4,0.1-0.7,0.2-1c-0.8-4.2,0.4-8.2,2.9-11.2
					c0.3-0.8,0.5-1.6,0.8-2.4c-0.3,0.3-0.6,0.6-0.9,0.9C123.2,89,121.8,93.5,122.8,98.1z"/>
				<path class="st11" d="M122.8,98.1c0.1,0.5,0.2,1,0.4,1.5c0.1-0.4,0.1-0.7,0.2-1c-0.8-4.2,0.4-8.2,2.9-11.2
					c0.3-0.8,0.5-1.6,0.8-2.4c-0.3,0.3-0.6,0.6-0.9,0.9C123.2,89,121.8,93.5,122.8,98.1z"/>
				<path class="st6" d="M134.6,55.1L134.6,55.1c0.6-9.5-5.9-25.3-6.4-27l0,0l0,0c-2.4-6.5-4.3-13.2-5.9-20.6
					c-5.1,0.9-10,2.2-14.7,4c4.1,5.7,8.5,10.9,12.4,16.2c0.1,0.1,0.2,0.3,0.3,0.4c1,1.5,12.1,15.1,13,24.6c0.2,0.8,0.4,1.6,0.4,2.4
					C133.7,55.1,134.6,55.1,134.6,55.1z"/>
				<path class="st11" d="M134.6,55.1L134.6,55.1c0.6-9.5-5.9-25.3-6.4-27l0,0l0,0c-2.4-6.5-4.3-13.2-5.9-20.6
					c-5.1,0.9-10,2.2-14.7,4c4.1,5.7,8.5,10.9,12.4,16.2c0.1,0.1,0.2,0.3,0.3,0.4c1,1.5,12.1,15.1,13,24.6c0.2,0.8,0.4,1.6,0.4,2.4
					C133.7,55.1,134.6,55.1,134.6,55.1z"/>
				<path class="st0" d="M137.2,55.1L137.2,55.1l0.6,0.1c0,0-0.1,2-0.3,5.7c1,7,3.9,15,5.3,18.9c4.8,2.1,8.5,6.4,9.7,11.9
					c1,4.9-0.2,9.7-2.9,13.4v0.1c3-2.9,7.1-4.7,11.7-4.7c1.6,0,3,0.2,4.5,0.6c-4.6-6.6-9.7-12.6-14.2-18.6c-0.1-0.1-0.2-0.3-0.3-0.4
					c-1.2-1.7-14.2-17.5-13-26.9c-0.1-1-0.1-2,0.1-3.1c-0.3,1-0.5,2-0.5,3C137.9,55.1,137.2,55.1,137.2,55.1z"/>
				<path class="st10" d="M137.2,55.1L137.2,55.1l0.6,0.1c0,0-0.1,2-0.3,5.7c1,7,3.9,15,5.3,18.9c4.8,2.1,8.5,6.4,9.7,11.9
					c1,4.9-0.2,9.7-2.9,13.4v0.1c3-2.9,7.1-4.7,11.7-4.7c1.6,0,3,0.2,4.5,0.6c-4.6-6.6-9.7-12.6-14.2-18.6c-0.1-0.1-0.2-0.3-0.3-0.4
					c-1.2-1.7-14.2-17.5-13-26.9c-0.1-1-0.1-2,0.1-3.1c-0.3,1-0.5,2-0.5,3C137.9,55.1,137.2,55.1,137.2,55.1z"/>
				<path class="st0" d="M171.4,131.1c2.1-0.9,4.3-1.4,6.7-1.5c-0.3-1.9-0.7-3.7-1.2-5.5C175.7,127,173.8,129.4,171.4,131.1z"/>
				<path class="st10" d="M171.4,131.1c2.1-0.9,4.3-1.4,6.7-1.5c-0.3-1.9-0.7-3.7-1.2-5.5C175.7,127,173.8,129.4,171.4,131.1z"/>
				<path class="st0" d="M168.2,133c-0.7,0.3-1.4,0.6-2.2,0.8l0.5,0.6C167.1,133.9,167.7,133.4,168.2,133z"/>
				<path class="st10" d="M168.2,133c-0.7,0.3-1.4,0.6-2.2,0.8l0.5,0.6C167.1,133.9,167.7,133.4,168.2,133z"/>
				<path class="st5" d="M167.6,159.8l-0.1-0.1c-0.1,0-0.1,0.1-0.2,0.1H167.6z"/>
				<path class="st10" d="M167.6,159.8l-0.1-0.1c-0.1,0-0.1,0.1-0.2,0.1H167.6z"/>
				<path class="st5" d="M155.1,133.3c3.7,2.9,6.1,7.4,6.3,12.4c0.3-4.4,2.2-8.4,5.2-11.3l-0.5-0.6c-1.5,0.4-3.1,0.7-4.8,0.7
					C159.1,134.5,157,134.1,155.1,133.3z"/>
				<path class="st10" d="M155.1,133.3c3.7,2.9,6.1,7.4,6.3,12.4c0.3-4.4,2.2-8.4,5.2-11.3l-0.5-0.6c-1.5,0.4-3.1,0.7-4.8,0.7
					C159.1,134.5,157,134.1,155.1,133.3z"/>
				<path class="st5" d="M155.1,159.8h12.2c0.1,0,0.1-0.1,0.2-0.1c-3.5-2.9-5.8-7.3-6.1-12.2C161.1,152.4,158.7,156.8,155.1,159.8z"
					/>
				<path class="st10" d="M155.1,159.8h12.2c0.1,0,0.1-0.1,0.2-0.1c-3.5-2.9-5.8-7.3-6.1-12.2C161.1,152.4,158.7,156.8,155.1,159.8z
					"/>
				<path class="st5" d="M152.4,163.4h4.5c0.1,0,0.1,0,0.2,0H152.4L152.4,163.4z"/>
				<path class="st10" d="M152.4,163.4h4.5c0.1,0,0.1,0,0.2,0H152.4L152.4,163.4z"/>
				<path class="st6" d="M137.5,60.9c0.2-3.7,0.3-5.7,0.3-5.7h-0.6C137,56.9,137.2,58.8,137.5,60.9z"/>
				<path class="st10" d="M137.5,60.9c0.2-3.7,0.3-5.7,0.3-5.7h-0.6C137,56.9,137.2,58.8,137.5,60.9z"/>
				<path class="st6" d="M168.2,133c-0.6,0.4-1.1,0.9-1.6,1.4l2.2,2.5c2.3-2.3,5.4-3.8,8.9-3.9c0.3,0,0.6,0,0.9,0
					c-0.1-1.1-0.3-2.2-0.5-3.2c-2.4,0-4.7,0.6-6.7,1.5C170.4,131.9,169.4,132.5,168.2,133z"/>
				<path class="st10" d="M168.2,133c-0.6,0.4-1.1,0.9-1.6,1.4l2.2,2.5c2.3-2.3,5.4-3.8,8.9-3.9c0.3,0,0.6,0,0.9,0
					c-0.1-1.1-0.3-2.2-0.5-3.2c-2.4,0-4.7,0.6-6.7,1.5C170.4,131.9,169.4,132.5,168.2,133z"/>
				<path class="st6" d="M161.4,145.6c0,0.3,0,0.6,0,0.9c0,0.3,0,0.6,0,1c0.3,4.9,2.6,9.2,6.1,12.2c1.2-0.5,2.4-1,3.5-1.6
					c-3.8-2.4-6.3-6.6-6.3-11.4c0-2.1,0.5-4.1,1.4-5.9c0-0.1,0.1-0.2,0.1-0.2c0.1-0.2,0.2-0.5,0.4-0.7c0.1-0.2,0.3-0.5,0.4-0.7
					l0.1-0.1c0.5-0.8,1.1-1.5,1.8-2.1l-2.2-2.5C163.6,137.2,161.7,141.2,161.4,145.6z"/>
				<path class="st10" d="M161.4,145.6c0,0.3,0,0.6,0,0.9c0,0.3,0,0.6,0,1c0.3,4.9,2.6,9.2,6.1,12.2c1.2-0.5,2.4-1,3.5-1.6
					c-3.8-2.4-6.3-6.6-6.3-11.4c0-2.1,0.5-4.1,1.4-5.9c0-0.1,0.1-0.2,0.1-0.2c0.1-0.2,0.2-0.5,0.4-0.7c0.1-0.2,0.3-0.5,0.4-0.7
					l0.1-0.1c0.5-0.8,1.1-1.5,1.8-2.1l-2.2-2.5C163.6,137.2,161.7,141.2,161.4,145.6z"/>
				<path class="st7" d="M179.2,148.8c0-0.4,0.1-0.9,0.1-1.3h-0.1V148.8z"/>
				<path class="st10" d="M179.2,148.8c0-0.4,0.1-0.9,0.1-1.3h-0.1V148.8z"/>
				<path class="st7" d="M177.2,145.9c0.2,0.1,0.5,0.1,0.7,0.2l-0.4-7.8c-0.8,0.2-1.5,0.6-2,1.3s-0.8,1.8-0.7,2.9
					c0,0.3,0,0.6,0.1,0.9l2.1,2.4C177,145.8,177.1,145.8,177.2,145.9z"/>
				<path class="st10" d="M177.2,145.9c0.2,0.1,0.5,0.1,0.7,0.2l-0.4-7.8c-0.8,0.2-1.5,0.6-2,1.3s-0.8,1.8-0.7,2.9
					c0,0.3,0,0.6,0.1,0.9l2.1,2.4C177,145.8,177.1,145.8,177.2,145.9z"/>
				<path class="st7" d="M179.1,146.5c0.1,0,0.1,0.1,0.2,0.1c0.1-2.7,0.1-5.5-0.1-8.2c-0.2,0-0.3-0.1-0.5-0.1L179.1,146.5z"/>
				<path class="st10" d="M179.1,146.5c0.1,0,0.1,0.1,0.2,0.1c0.1-2.7,0.1-5.5-0.1-8.2c-0.2,0-0.3-0.1-0.5-0.1L179.1,146.5z"/>
				<path class="st7" d="M174.5,139.1c0.7-0.9,1.6-1.5,2.8-1.6v-0.9c0-0.3,0.2-0.5,0.5-0.5s0.7,0.2,0.7,0.5v0.9c0.2,0,0.4,0,0.6,0.1
					c-0.1-1.2-0.2-2.4-0.4-3.6c-0.1,0-0.3,0-0.4,0c-3.4,0.1-6.4,1.5-8.7,3.7l4,4.4C173.6,140.9,173.9,139.9,174.5,139.1z"/>
				<path class="st10" d="M174.5,139.1c0.7-0.9,1.6-1.5,2.8-1.6v-0.9c0-0.3,0.2-0.5,0.5-0.5s0.7,0.2,0.7,0.5v0.9
					c0.2,0,0.4,0,0.6,0.1c-0.1-1.2-0.2-2.4-0.4-3.6c-0.1,0-0.3,0-0.4,0c-3.4,0.1-6.4,1.5-8.7,3.7l4,4.4
					C173.6,140.9,173.9,139.9,174.5,139.1z"/>
				<path class="st7" d="M166.2,140.5c0.1-0.2,0.2-0.4,0.4-0.7C166.4,140,166.3,140.2,166.2,140.5z"/>
				<path class="st10" d="M166.2,140.5c0.1-0.2,0.2-0.4,0.4-0.7C166.4,140,166.3,140.2,166.2,140.5z"/>
				<path class="st7" d="M175.3,154.8c-0.7-0.8-1.2-2-1.3-3.6c-0.1-0.2,0.1-0.4,0.4-0.4c0.1,0,0.2,0,0.3,0.1c0,0.1,0.1,0.2,0.1,0.3
					c0,0.8,0.2,1.6,0.4,2.1c0.3,0.5,0.6,0.8,0.9,1.2c0.2,0.2,0.4,0.3,0.6,0.4c0.4-0.2,0.8-0.5,1.2-0.7l-0.4-6.9
					c-0.3-0.1-0.7-0.2-1.2-0.4s-0.9-0.5-1.3-0.8c-0.4-0.4-0.8-0.8-1.2-1.3c-0.3-0.5-0.5-1.2-0.5-2c0-0.2,0-0.4,0-0.6l-4-4.4
					c-2.8,2.6-4.4,6.4-4.3,10.5c0.1,2.3,0.7,4.4,1.9,6.1c-1.4-2-2.4-4.5-2.5-7.2c-0.1-2.3,0.4-4.5,1.3-6.4c-0.9,1.8-1.4,3.8-1.4,5.9
					c0,4.8,2.5,9,6.3,11.4c1.7-0.8,3.4-1.7,5-2.7C175.8,155.2,175.5,155,175.3,154.8z"/>
				<path class="st10" d="M175.3,154.8c-0.7-0.8-1.2-2-1.3-3.6c-0.1-0.2,0.1-0.4,0.4-0.4c0.1,0,0.2,0,0.3,0.1c0,0.1,0.1,0.2,0.1,0.3
					c0,0.8,0.2,1.6,0.4,2.1c0.3,0.5,0.6,0.8,0.9,1.2c0.2,0.2,0.4,0.3,0.6,0.4c0.4-0.2,0.8-0.5,1.2-0.7l-0.4-6.9
					c-0.3-0.1-0.7-0.2-1.2-0.4s-0.9-0.5-1.3-0.8c-0.4-0.4-0.8-0.8-1.2-1.3c-0.3-0.5-0.5-1.2-0.5-2c0-0.2,0-0.4,0-0.6l-4-4.4
					c-2.8,2.6-4.4,6.4-4.3,10.5c0.1,2.3,0.7,4.4,1.9,6.1c-1.4-2-2.4-4.5-2.5-7.2c-0.1-2.3,0.4-4.5,1.3-6.4c-0.9,1.8-1.4,3.8-1.4,5.9
					c0,4.8,2.5,9,6.3,11.4c1.7-0.8,3.4-1.7,5-2.7C175.8,155.2,175.5,155,175.3,154.8z"/>
				<path class="st7" d="M176,145.2c0.3,0.2,0.6,0.3,0.9,0.5l-2.1-2.4c0.1,0.3,0.2,0.6,0.3,0.8C175.3,144.6,175.6,144.9,176,145.2z"
					/>
				<path class="st10" d="M176,145.2c0.3,0.2,0.6,0.3,0.9,0.5l-2.1-2.4c0.1,0.3,0.2,0.6,0.3,0.8C175.3,144.6,175.6,144.9,176,145.2z
					"/>
				<path class="st7" d="M167,139.1l0.1-0.1C167,139,167,139,167,139.1z"/>
				<path class="st10" d="M167,139.1l0.1-0.1C167,139,167,139,167,139.1z"/>
				<path class="st8" d="M168.8,136.8L168.8,136.8c2.5-2.3,5.8-3.8,9.4-3.8c0.1,0,0.2,0,0.4,0c0-0.1,0-0.1,0-0.2c-0.3,0-0.6,0-0.9,0
					C174.2,133.1,171.1,134.5,168.8,136.8z"/>
				<path class="st10" d="M168.8,136.8L168.8,136.8c2.5-2.3,5.8-3.8,9.4-3.8c0.1,0,0.2,0,0.4,0c0-0.1,0-0.1,0-0.2
					c-0.3,0-0.6,0-0.9,0C174.2,133.1,171.1,134.5,168.8,136.8z"/>
				<path class="st8" d="M168.9,136.8L168.9,136.8c-0.7,0.6-1.3,1.3-1.8,2.1C167.6,138.2,168.2,137.5,168.9,136.8z"/>
				<path class="st10" d="M168.9,136.8L168.9,136.8c-0.7,0.6-1.3,1.3-1.8,2.1C167.6,138.2,168.2,137.5,168.9,136.8z"/>
				<path class="st8" d="M166.6,139.8c0.1-0.2,0.3-0.5,0.4-0.7C166.8,139.3,166.7,139.6,166.6,139.8z"/>
				<path class="st10" d="M166.6,139.8c0.1-0.2,0.3-0.5,0.4-0.7C166.8,139.3,166.7,139.6,166.6,139.8z"/>
				<path class="st8" d="M166.1,140.7c0-0.1,0.1-0.2,0.1-0.2S166.1,140.6,166.1,140.7z"/>
				<path class="st10" d="M166.1,140.7c0-0.1,0.1-0.2,0.1-0.2S166.1,140.6,166.1,140.7z"/>
				<path class="st8" d="M178.3,134c0.1,0,0.3,0,0.4,0c0-0.3-0.1-0.6-0.1-0.9c-0.1,0-0.2,0-0.4,0c-3.7,0-7,1.5-9.4,3.8l0.7,0.8
					C171.9,135.5,174.9,134.1,178.3,134z"/>
				<path class="st10" d="M178.3,134c0.1,0,0.3,0,0.4,0c0-0.3-0.1-0.6-0.1-0.9c-0.1,0-0.2,0-0.4,0c-3.7,0-7,1.5-9.4,3.8l0.7,0.8
					C171.9,135.5,174.9,134.1,178.3,134z"/>
				<path class="st8" d="M167.1,139l-0.1,0.1c-0.2,0.2-0.3,0.5-0.4,0.7s-0.3,0.4-0.4,0.7c0,0.1-0.1,0.2-0.1,0.2
					c-0.9,1.9-1.4,4.1-1.3,6.4c0.1,2.6,1.1,5.2,2.5,7.2c-1.2-1.7-1.8-3.8-1.9-6.1c-0.2-4.1,1.5-7.9,4.3-10.5l-0.7-0.8
					C168.2,137.5,167.6,138.2,167.1,139z"/>
				<path class="st10" d="M167.1,139l-0.1,0.1c-0.2,0.2-0.3,0.5-0.4,0.7s-0.3,0.4-0.4,0.7c0,0.1-0.1,0.2-0.1,0.2
					c-0.9,1.9-1.4,4.1-1.3,6.4c0.1,2.6,1.1,5.2,2.5,7.2c-1.2-1.7-1.8-3.8-1.9-6.1c-0.2-4.1,1.5-7.9,4.3-10.5l-0.7-0.8
					C168.2,137.5,167.6,138.2,167.1,139z"/>
				<path class="st9" d="M178.5,136.6c0-0.3-0.3-0.5-0.7-0.5s-0.5,0.2-0.5,0.5v0.9c-1.3,0.1-2.1,0.7-2.8,1.6
					c-0.6,0.8-0.8,1.8-0.9,2.9l1.2,1.3c-0.1-0.3-0.1-0.5-0.1-0.9c-0.1-1.2,0.2-2.2,0.7-2.9s1.2-1.1,2-1.3l0.4,7.8
					c-0.2-0.1-0.4-0.1-0.7-0.2c-0.1-0.1-0.2-0.1-0.3-0.2l0.6,0.6c0.7,0.8,1.3,1.9,1.6,3c0-0.2,0-0.4,0-0.6l-0.1-1.4h0.1
					c0-0.3,0-0.6,0-0.9c-0.1,0-0.2-0.1-0.2-0.1l-0.4-8.2c0.2,0,0.3,0,0.5,0.1c0-0.3,0-0.5-0.1-0.8c-0.2,0-0.4-0.1-0.6-0.1v-0.6
					L178.5,136.6L178.5,136.6z"/>
				<path class="st10" d="M178.5,136.6c0-0.3-0.3-0.5-0.7-0.5s-0.5,0.2-0.5,0.5v0.9c-1.3,0.1-2.1,0.7-2.8,1.6
					c-0.6,0.8-0.8,1.8-0.9,2.9l1.2,1.3c-0.1-0.3-0.1-0.5-0.1-0.9c-0.1-1.2,0.2-2.2,0.7-2.9s1.2-1.1,2-1.3l0.4,7.8
					c-0.2-0.1-0.4-0.1-0.7-0.2c-0.1-0.1-0.2-0.1-0.3-0.2l0.6,0.6c0.7,0.8,1.3,1.9,1.6,3c0-0.2,0-0.4,0-0.6l-0.1-1.4h0.1
					c0-0.3,0-0.6,0-0.9c-0.1,0-0.2-0.1-0.2-0.1l-0.4-8.2c0.2,0,0.3,0,0.5,0.1c0-0.3,0-0.5-0.1-0.8c-0.2,0-0.4-0.1-0.6-0.1v-0.6
					L178.5,136.6L178.5,136.6z"/>
				<path class="st9" d="M179.1,149.4c-0.3-1.2-0.9-2.2-1.6-3l-0.6-0.6c-0.3-0.2-0.6-0.3-0.9-0.5c-0.4-0.3-0.7-0.7-0.9-1.1
					c-0.2-0.2-0.3-0.5-0.3-0.8l-1.2-1.3c0,0.2,0,0.4,0,0.6c0,0.8,0.2,1.5,0.5,2s0.7,0.9,1.2,1.3c0.4,0.3,0.8,0.7,1.3,0.8
					c0.4,0.2,0.8,0.3,1.2,0.4l0.4,6.9c0.2-0.1,0.4-0.3,0.6-0.4c0.1-0.9,0.2-1.6,0.2-1.8C179,151.1,179.1,150.2,179.1,149.4z"/>
				<path class="st10" d="M179.1,149.4c-0.3-1.2-0.9-2.2-1.6-3l-0.6-0.6c-0.3-0.2-0.6-0.3-0.9-0.5c-0.4-0.3-0.7-0.7-0.9-1.1
					c-0.2-0.2-0.3-0.5-0.3-0.8l-1.2-1.3c0,0.2,0,0.4,0,0.6c0,0.8,0.2,1.5,0.5,2s0.7,0.9,1.2,1.3c0.4,0.3,0.8,0.7,1.3,0.8
					c0.4,0.2,0.8,0.3,1.2,0.4l0.4,6.9c0.2-0.1,0.4-0.3,0.6-0.4c0.1-0.9,0.2-1.6,0.2-1.8C179,151.1,179.1,150.2,179.1,149.4z"/>
				<path class="st9" d="M176.2,154.5c-0.3-0.3-0.7-0.7-0.9-1.2s-0.4-1.3-0.4-2.1c0-0.1-0.1-0.2-0.1-0.3c-0.1-0.1-0.2-0.1-0.3-0.1
					c-0.3,0-0.5,0.2-0.4,0.4c0.1,1.6,0.5,2.7,1.3,3.6c0.2,0.2,0.5,0.4,0.7,0.5c0.3-0.2,0.6-0.3,0.9-0.5
					C176.6,154.8,176.4,154.7,176.2,154.5z"/>
				<path class="st10" d="M176.2,154.5c-0.3-0.3-0.7-0.7-0.9-1.2s-0.4-1.3-0.4-2.1c0-0.1-0.1-0.2-0.1-0.3c-0.1-0.1-0.2-0.1-0.3-0.1
					c-0.3,0-0.5,0.2-0.4,0.4c0.1,1.6,0.5,2.7,1.3,3.6c0.2,0.2,0.5,0.4,0.7,0.5c0.3-0.2,0.6-0.3,0.9-0.5
					C176.6,154.8,176.4,154.7,176.2,154.5z"/>
				<path class="st6" d="M174.9,117.8c-0.2,6.6-5.1,12-11.4,13l2.7,2.9c0.7-0.2,1.5-0.5,2.2-0.8c1-0.7,2-1.3,3.2-1.9
					c2.4-1.8,4.3-4.2,5.5-6.9c-0.3-1-0.5-2-0.8-2.9C175.7,120.1,175.3,119,174.9,117.8z"/>
				<path class="st10" d="M174.9,117.8c-0.2,6.6-5.1,12-11.4,13l2.7,2.9c0.7-0.2,1.5-0.5,2.2-0.8c1-0.7,2-1.3,3.2-1.9
					c2.4-1.8,4.3-4.2,5.5-6.9c-0.3-1-0.5-2-0.8-2.9C175.7,120.1,175.3,119,174.9,117.8z"/>
				<path class="st6" d="M149.6,105.2c0.3,1.4,0.5,2.8,0.7,4.2c1.3-1.7,3-3.2,4.9-4.1c0.1,0,0.2-0.1,0.3-0.1
					c0.2-0.1,0.5-0.2,0.7-0.3c0.3-0.1,0.6-0.2,0.9-0.3h0.1c2.3-0.7,4.7-0.9,7.2-0.3c1.7,0.4,3.2,1,4.5,1.9c-1-1.7-2.1-3.3-3.2-4.9
					c-1.4-0.4-2.9-0.6-4.5-0.6C156.8,100.6,152.7,102.4,149.6,105.2z"/>
				<path class="st10" d="M149.6,105.2c0.3,1.4,0.5,2.8,0.7,4.2c1.3-1.7,3-3.2,4.9-4.1c0.1,0,0.2-0.1,0.3-0.1
					c0.2-0.1,0.5-0.2,0.7-0.3c0.3-0.1,0.6-0.2,0.9-0.3h0.1c2.3-0.7,4.7-0.9,7.2-0.3c1.7,0.4,3.2,1,4.5,1.9c-1-1.7-2.1-3.3-3.2-4.9
					c-1.4-0.4-2.9-0.6-4.5-0.6C156.8,100.6,152.7,102.4,149.6,105.2z"/>
				<path class="st6" d="M153.2,128.3c0.1,1.3,0.2,2.5,0.3,3.8c0.6,0.3,1.1,0.7,1.6,1.1c1.9,0.8,4,1.2,6.2,1.2
					c1.7,0,3.3-0.2,4.8-0.7l-2.7-2.9c-0.7,0.1-1.4,0.2-2.1,0.2C158.3,131,155.4,130,153.2,128.3z"/>
				<path class="st10" d="M153.2,128.3c0.1,1.3,0.2,2.5,0.3,3.8c0.6,0.3,1.1,0.7,1.6,1.1c1.9,0.8,4,1.2,6.2,1.2
					c1.7,0,3.3-0.2,4.8-0.7l-2.7-2.9c-0.7,0.1-1.4,0.2-2.1,0.2C158.3,131,155.4,130,153.2,128.3z"/>
				<path class="st6" d="M168.2,133c1.1-0.5,2.2-1.1,3.2-1.9C170.3,131.6,169.2,132.3,168.2,133z"/>
				<path class="st10" d="M168.2,133c1.1-0.5,2.2-1.1,3.2-1.9C170.3,131.6,169.2,132.3,168.2,133z"/>
				<path class="st7" d="M162.3,125.1c0.7-0.5,1.2-1.3,1.6-2.6c0.1-0.6,0.1-1.2,0-1.7s-0.3-0.9-0.7-1.3c-0.3-0.4-0.6-0.7-0.9-0.9
					c-0.1-0.1-0.2-0.1-0.3-0.2l-1.7,7.2C161,125.8,161.8,125.6,162.3,125.1z"/>
				<path class="st10" d="M162.3,125.1c0.7-0.5,1.2-1.3,1.6-2.6c0.1-0.6,0.1-1.2,0-1.7s-0.3-0.9-0.7-1.3c-0.3-0.4-0.6-0.7-0.9-0.9
					c-0.1-0.1-0.2-0.1-0.3-0.2l-1.7,7.2C161,125.8,161.8,125.6,162.3,125.1z"/>
				<path class="st7" d="M160.5,109.9c-0.8,0.7-1.3,1.5-1.6,2.6c-0.1,0.6-0.1,1.2,0,1.7c0.1,0.4,0.3,0.8,0.7,1.3
					c0.3,0.3,0.6,0.6,0.9,0.9c0.2,0.2,0.4,0.3,0.5,0.4l1.8-7.6C162,109.2,161.1,109.4,160.5,109.9z"/>
				<path class="st10" d="M160.5,109.9c-0.8,0.7-1.3,1.5-1.6,2.6c-0.1,0.6-0.1,1.2,0,1.7c0.1,0.4,0.3,0.8,0.7,1.3
					c0.3,0.3,0.6,0.6,0.9,0.9c0.2,0.2,0.4,0.3,0.5,0.4l1.8-7.6C162,109.2,161.1,109.4,160.5,109.9z"/>
				<path class="st7" d="M157.2,104.5C157.3,104.5,157.3,104.5,157.2,104.5C157.3,104.5,157.3,104.5,157.2,104.5z"/>
				<path class="st10" d="M157.2,104.5C157.3,104.5,157.3,104.5,157.2,104.5C157.3,104.5,157.3,104.5,157.2,104.5z"/>
				<path class="st7" d="M155.3,105.3c-2,1-3.6,2.4-4.9,4.1c0,0,0,0,0,0.1C151.7,107.7,153.4,106.3,155.3,105.3z"/>
				<path class="st10" d="M155.3,105.3c-2,1-3.6,2.4-4.9,4.1c0,0,0,0,0,0.1C151.7,107.7,153.4,106.3,155.3,105.3z"/>
				<path class="st7" d="M164.8,105.3c-5.5-1.3-11.1,1.1-14.2,5.5c0.4,2.3,0.8,4.8,1.2,7.3l4.3,4.8c0-0.6,0-1.4,0.2-2.2
					c0-0.3,0.2-0.4,0.5-0.3c0.1,0,0.2,0.1,0.3,0.2s0.1,0.2,0.1,0.3c-0.1,0.8-0.2,1.6-0.1,2.1s0.2,1,0.5,1.3c0.2,0.3,0.5,0.5,0.9,0.7
					c0.2,0,0.4,0.1,0.7,0.2l1.8-7.7c-0.2-0.2-0.5-0.4-0.9-0.7s-0.7-0.7-1.1-1.2c-0.4-0.5-0.5-1-0.7-1.6s-0.2-1.3,0-2.1
					c0.3-1.4,0.9-2.3,1.8-3.1c0.9-0.7,2-1,3.2-0.7l0.2-0.9c0-0.2,0.3-0.4,0.7-0.3c0.3,0.1,0.5,0.3,0.4,0.7l-0.2,0.9
					c1.1,0.5,1.9,1,2.3,1.8c0.6,1,0.6,2.2,0.2,3.8c0,0.1-0.1,0.1-0.2,0.2c-0.1,0.1-0.3,0.1-0.4,0.1c-0.1,0-0.2-0.1-0.3-0.2
					s-0.1-0.2-0.1-0.3c0.3-1.3,0.2-2.3-0.2-3.2c-0.3-0.5-0.8-0.9-1.6-1.3l-1.9,8c0.2,0.1,0.4,0.3,0.7,0.5c0.3,0.3,0.7,0.7,1.1,1.2
					c0.4,0.5,0.5,1,0.9,1.6c0.2,0.6,0.2,1.3,0,2.1s-0.4,1.3-0.7,1.8s-0.7,0.9-1.2,1.3c-0.7,0.7-1.8,0.8-2.8,0.7l-0.1,0.4l3.4,3.7
					c6.4-1,11.3-6.4,11.4-13c-1.4-3.6-3-6.9-4.9-10.1C168.5,106.6,166.8,105.7,164.8,105.3z"/>
				<path class="st10" d="M164.8,105.3c-5.5-1.3-11.1,1.1-14.2,5.5c0.4,2.3,0.8,4.8,1.2,7.3l4.3,4.8c0-0.6,0-1.4,0.2-2.2
					c0-0.3,0.2-0.4,0.5-0.3c0.1,0,0.2,0.1,0.3,0.2s0.1,0.2,0.1,0.3c-0.1,0.8-0.2,1.6-0.1,2.1s0.2,1,0.5,1.3c0.2,0.3,0.5,0.5,0.9,0.7
					c0.2,0,0.4,0.1,0.7,0.2l1.8-7.7c-0.2-0.2-0.5-0.4-0.9-0.7s-0.7-0.7-1.1-1.2c-0.4-0.5-0.5-1-0.7-1.6s-0.2-1.3,0-2.1
					c0.3-1.4,0.9-2.3,1.8-3.1c0.9-0.7,2-1,3.2-0.7l0.2-0.9c0-0.2,0.3-0.4,0.7-0.3c0.3,0.1,0.5,0.3,0.4,0.7l-0.2,0.9
					c1.1,0.5,1.9,1,2.3,1.8c0.6,1,0.6,2.2,0.2,3.8c0,0.1-0.1,0.1-0.2,0.2c-0.1,0.1-0.3,0.1-0.4,0.1c-0.1,0-0.2-0.1-0.3-0.2
					s-0.1-0.2-0.1-0.3c0.3-1.3,0.2-2.3-0.2-3.2c-0.3-0.5-0.8-0.9-1.6-1.3l-1.9,8c0.2,0.1,0.4,0.3,0.7,0.5c0.3,0.3,0.7,0.7,1.1,1.2
					c0.4,0.5,0.5,1,0.9,1.6c0.2,0.6,0.2,1.3,0,2.1s-0.4,1.3-0.7,1.8s-0.7,0.9-1.2,1.3c-0.7,0.7-1.8,0.8-2.8,0.7l-0.1,0.4l3.4,3.7
					c6.4-1,11.3-6.4,11.4-13c-1.4-3.6-3-6.9-4.9-10.1C168.5,106.6,166.8,105.7,164.8,105.3z"/>
				<path class="st7" d="M155.6,105.2c0.2-0.1,0.5-0.2,0.7-0.3C156.1,105,155.8,105.1,155.6,105.2z"/>
				<path class="st10" d="M155.6,105.2c0.2-0.1,0.5-0.2,0.7-0.3C156.1,105,155.8,105.1,155.6,105.2z"/>
				<path class="st7" d="M159.9,127.8c0,0.2-0.3,0.4-0.7,0.3c-0.3-0.1-0.5-0.3-0.4-0.7l0.2-1.1c-1.3-0.4-2.1-1.1-2.5-1.9
					c-0.3-0.5-0.4-1-0.4-1.7l-4.3-4.8c0.2,1,0.3,2,0.5,3.1c0.4,2.3,0.6,4.7,0.9,7.2c2.3,1.7,5.1,2.7,8.1,2.7c0.7,0,1.4-0.1,2.1-0.2
					L160,127L159.9,127.8z"/>
				<path class="st10" d="M159.9,127.8c0,0.2-0.3,0.4-0.7,0.3c-0.3-0.1-0.5-0.3-0.4-0.7l0.2-1.1c-1.3-0.4-2.1-1.1-2.5-1.9
					c-0.3-0.5-0.4-1-0.4-1.7l-4.3-4.8c0.2,1,0.3,2,0.5,3.1c0.4,2.3,0.6,4.7,0.9,7.2c2.3,1.7,5.1,2.7,8.1,2.7c0.7,0,1.4-0.1,2.1-0.2
					L160,127L159.9,127.8z"/>
				<path class="st8" d="M169.2,106.5c-0.1-0.1-0.1-0.2-0.2-0.4c-1.3-0.9-2.8-1.5-4.5-1.9c-2.5-0.6-4.9-0.4-7.2,0.3
					c1.3-0.4,2.6-0.6,4-0.6C164.3,103.9,167,104.9,169.2,106.5z"/>
				<path class="st10" d="M169.2,106.5c-0.1-0.1-0.1-0.2-0.2-0.4c-1.3-0.9-2.8-1.5-4.5-1.9c-2.5-0.6-4.9-0.4-7.2,0.3
					c1.3-0.4,2.6-0.6,4-0.6C164.3,103.9,167,104.9,169.2,106.5z"/>
				<path class="st8" d="M156.3,104.9c0.3-0.1,0.6-0.2,0.9-0.3C156.9,104.6,156.6,104.8,156.3,104.9z"/>
				<path class="st10" d="M156.3,104.9c0.3-0.1,0.6-0.2,0.9-0.3C156.9,104.6,156.6,104.8,156.3,104.9z"/>
				<path class="st8" d="M155.3,105.3c0.1,0,0.2-0.1,0.3-0.1C155.5,105.2,155.4,105.3,155.3,105.3z"/>
				<path class="st10" d="M155.3,105.3c0.1,0,0.2-0.1,0.3-0.1C155.5,105.2,155.4,105.3,155.3,105.3z"/>
				<path class="st8" d="M150.4,109.5c0.1,0.4,0.1,0.8,0.2,1.2c3.1-4.4,8.7-6.8,14.2-5.5c2,0.4,3.7,1.3,5.2,2.4
					c-0.2-0.4-0.5-0.8-0.7-1.2c-2.2-1.6-5-2.6-7.9-2.6c-1.4,0-2.7,0.2-4,0.6h-0.1c-0.3,0.1-0.6,0.2-0.9,0.3
					c-0.2,0.1-0.5,0.2-0.7,0.3c-0.1,0-0.2,0.1-0.3,0.1C153.4,106.3,151.7,107.7,150.4,109.5z"/>
				<path class="st10" d="M150.4,109.5c0.1,0.4,0.1,0.8,0.2,1.2c3.1-4.4,8.7-6.8,14.2-5.5c2,0.4,3.7,1.3,5.2,2.4
					c-0.2-0.4-0.5-0.8-0.7-1.2c-2.2-1.6-5-2.6-7.9-2.6c-1.4,0-2.7,0.2-4,0.6h-0.1c-0.3,0.1-0.6,0.2-0.9,0.3
					c-0.2,0.1-0.5,0.2-0.7,0.3c-0.1,0-0.2,0.1-0.3,0.1C153.4,106.3,151.7,107.7,150.4,109.5z"/>
				<path class="st9" d="M160.2,126.7c1.1,0.1,2.1-0.1,2.8-0.7c0.4-0.3,0.8-0.7,1.2-1.3s0.5-1.1,0.7-1.8s0.2-1.5,0-2.1
					c-0.4-0.6-0.6-1.2-0.9-1.6s-0.7-0.8-1.1-1.2c-0.3-0.2-0.5-0.4-0.7-0.5l1.9-8c0.7,0.3,1.3,0.7,1.6,1.3c0.4,0.8,0.5,1.9,0.2,3.2
					c0,0.1,0,0.2,0.1,0.3s0.2,0.2,0.3,0.2s0.3,0,0.4-0.1c0.1-0.1,0.2-0.1,0.2-0.2c0.3-1.6,0.3-2.8-0.2-3.8c-0.4-0.8-1.3-1.3-2.3-1.8
					l0.2-0.9c0.1-0.3-0.1-0.5-0.4-0.7c-0.3-0.1-0.7,0.1-0.7,0.3l-0.2,0.9c-1.2-0.2-2.2,0.1-3.2,0.7c-0.9,0.7-1.5,1.7-1.8,3.1
					c-0.2,0.7-0.2,1.5,0,2.1s0.4,1.2,0.7,1.6s0.7,0.8,1.1,1.2c0.4,0.3,0.7,0.5,0.9,0.7l-1.8,7.7c-0.2-0.1-0.4-0.2-0.7-0.2
					c-0.4-0.2-0.7-0.4-0.9-0.7c-0.3-0.3-0.4-0.8-0.5-1.3s0-1.3,0.1-2.1c0-0.1,0-0.2-0.1-0.3s-0.2-0.2-0.3-0.2
					c-0.3-0.1-0.5,0-0.5,0.3c-0.2,0.8-0.2,1.5-0.2,2.2l3.9,4.3L160.2,126.7z M161,116.8c-0.1-0.1-0.3-0.2-0.5-0.4
					c-0.3-0.3-0.7-0.7-0.9-0.9c-0.3-0.4-0.5-0.8-0.7-1.3c-0.1-0.5-0.1-1.1,0-1.7c0.3-1.2,0.7-2,1.6-2.6c0.7-0.5,1.5-0.7,2.3-0.7
					L161,116.8z M162,118.5c0.1,0.1,0.2,0.1,0.3,0.2c0.3,0.2,0.7,0.5,0.9,0.9c0.3,0.3,0.5,0.7,0.7,1.3c0.1,0.5,0.1,1.1,0,1.7
					c-0.4,1.2-0.8,2-1.6,2.6c-0.5,0.4-1.3,0.7-2,0.5L162,118.5z"/>
				<path class="st10" d="M160.2,126.7c1.1,0.1,2.1-0.1,2.8-0.7c0.4-0.3,0.8-0.7,1.2-1.3s0.5-1.1,0.7-1.8s0.2-1.5,0-2.1
					c-0.4-0.6-0.6-1.2-0.9-1.6s-0.7-0.8-1.1-1.2c-0.3-0.2-0.5-0.4-0.7-0.5l1.9-8c0.7,0.3,1.3,0.7,1.6,1.3c0.4,0.8,0.5,1.9,0.2,3.2
					c0,0.1,0,0.2,0.1,0.3s0.2,0.2,0.3,0.2s0.3,0,0.4-0.1c0.1-0.1,0.2-0.1,0.2-0.2c0.3-1.6,0.3-2.8-0.2-3.8c-0.4-0.8-1.3-1.3-2.3-1.8
					l0.2-0.9c0.1-0.3-0.1-0.5-0.4-0.7c-0.3-0.1-0.7,0.1-0.7,0.3l-0.2,0.9c-1.2-0.2-2.2,0.1-3.2,0.7c-0.9,0.7-1.5,1.7-1.8,3.1
					c-0.2,0.7-0.2,1.5,0,2.1s0.4,1.2,0.7,1.6s0.7,0.8,1.1,1.2c0.4,0.3,0.7,0.5,0.9,0.7l-1.8,7.7c-0.2-0.1-0.4-0.2-0.7-0.2
					c-0.4-0.2-0.7-0.4-0.9-0.7c-0.3-0.3-0.4-0.8-0.5-1.3s0-1.3,0.1-2.1c0-0.1,0-0.2-0.1-0.3s-0.2-0.2-0.3-0.2
					c-0.3-0.1-0.5,0-0.5,0.3c-0.2,0.8-0.2,1.5-0.2,2.2l3.9,4.3L160.2,126.7z M161,116.8c-0.1-0.1-0.3-0.2-0.5-0.4
					c-0.3-0.3-0.7-0.7-0.9-0.9c-0.3-0.4-0.5-0.8-0.7-1.3c-0.1-0.5-0.1-1.1,0-1.7c0.3-1.2,0.7-2,1.6-2.6c0.7-0.5,1.5-0.7,2.3-0.7
					L161,116.8z M162,118.5c0.1,0.1,0.2,0.1,0.3,0.2c0.3,0.2,0.7,0.5,0.9,0.9c0.3,0.3,0.5,0.7,0.7,1.3c0.1,0.5,0.1,1.1,0,1.7
					c-0.4,1.2-0.8,2-1.6,2.6c-0.5,0.4-1.3,0.7-2,0.5L162,118.5z"/>
				<path class="st9" d="M159.1,126.4l-0.2,1.1c-0.1,0.3,0.1,0.5,0.4,0.7c0.3,0.1,0.7-0.1,0.7-0.3l0.1-0.6l-3.9-4.3
					c0,0.6,0.2,1.2,0.4,1.7C157,125.3,157.8,126,159.1,126.4z"/>
				<path class="st10" d="M159.1,126.4l-0.2,1.1c-0.1,0.3,0.1,0.5,0.4,0.7c0.3,0.1,0.7-0.1,0.7-0.3l0.1-0.6l-3.9-4.3
					c0,0.6,0.2,1.2,0.4,1.7C157,125.3,157.8,126,159.1,126.4z"/>
				<path class="st6" d="M143.7,82.4c0.3,0.8,0.6,1.5,0.8,2.3c2.3,1.9,4.1,4.5,4.7,7.7c0.6,2.6,0.3,5.3-0.6,7.6c0.3,1.6,0.7,3.3,1,5
					c2.7-3.7,3.9-8.5,2.9-13.4c-1.2-5.5-4.9-9.8-9.7-11.9c0.4,1.1,0.7,1.9,0.8,2.2C143.6,82.1,143.7,82.3,143.7,82.4z"/>
				<path class="st10" d="M143.7,82.4c0.3,0.8,0.6,1.5,0.8,2.3c2.3,1.9,4.1,4.5,4.7,7.7c0.6,2.6,0.3,5.3-0.6,7.6
					c0.3,1.6,0.7,3.3,1,5c2.7-3.7,3.9-8.5,2.9-13.4c-1.2-5.5-4.9-9.8-9.7-11.9c0.4,1.1,0.7,1.9,0.8,2.2
					C143.6,82.1,143.7,82.3,143.7,82.4z"/>
				<path class="st7" d="M146.4,86.6c-0.6-0.6-1.2-1.1-1.8-1.6c1.7,4.8,2.9,9.7,4,15c0.9-2.4,1.2-5,0.6-7.6
					c-0.7-3.2-2.4-5.9-4.7-7.7c0,0,0,0,0,0.1C145.2,85.3,145.8,85.9,146.4,86.6z"/>
				<path class="st10" d="M146.4,86.6c-0.6-0.6-1.2-1.1-1.8-1.6c1.7,4.8,2.9,9.7,4,15c0.9-2.4,1.2-5,0.6-7.6
					c-0.7-3.2-2.4-5.9-4.7-7.7c0,0,0,0,0,0.1C145.2,85.3,145.8,85.9,146.4,86.6z"/>
				<path class="st8" d="M144.5,84.8c0,0.1,0.1,0.2,0.1,0.3c0.6,0.5,1.2,1,1.8,1.6C145.8,85.9,145.2,85.3,144.5,84.8z"/>
				<path class="st10" d="M144.5,84.8c0,0.1,0.1,0.2,0.1,0.3c0.6,0.5,1.2,1,1.8,1.6C145.8,85.9,145.2,85.3,144.5,84.8z"/>
				<path class="st6" d="M153.7,136.5c2,1.8,3.4,4.2,4.1,6.9c-0.1-0.4-0.3-0.8-0.5-1.2c0.8,2.4,1,5.1,0.3,7.7
					c-0.7,2.8-2.2,5.2-4.3,7c-0.1,1-0.2,2-0.3,2.9h2c3.6-2.9,6-7.3,6.3-12.3c0-0.3,0-0.6,0-0.9c0-0.3,0-0.6,0-1
					c-0.3-5-2.7-9.4-6.3-12.4c-0.5-0.2-1.1-0.5-1.6-0.7C153.6,133.9,153.7,135.2,153.7,136.5z"/>
				<path class="st10" d="M153.7,136.5c2,1.8,3.4,4.2,4.1,6.9c-0.1-0.4-0.3-0.8-0.5-1.2c0.8,2.4,1,5.1,0.3,7.7
					c-0.7,2.8-2.2,5.2-4.3,7c-0.1,1-0.2,2-0.3,2.9h2c3.6-2.9,6-7.3,6.3-12.3c0-0.3,0-0.6,0-0.9c0-0.3,0-0.6,0-1
					c-0.3-5-2.7-9.4-6.3-12.4c-0.5-0.2-1.1-0.5-1.6-0.7C153.6,133.9,153.7,135.2,153.7,136.5z"/>
				<path class="st6" d="M161.4,147.5c0-0.3,0-0.6,0-1c0-0.3,0-0.6,0-0.9c0,0.3,0,0.6,0,1C161.4,146.9,161.4,147.2,161.4,147.5z"/>
				<path class="st10" d="M161.4,147.5c0-0.3,0-0.6,0-1c0-0.3,0-0.6,0-0.9c0,0.3,0,0.6,0,1C161.4,146.9,161.4,147.2,161.4,147.5z"/>
				<path class="st6" d="M155.1,133.3c-0.5-0.4-1.1-0.8-1.6-1.1c0,0.1,0,0.3,0,0.4C154,132.8,154.6,133.1,155.1,133.3z"/>
				<path class="st10" d="M155.1,133.3c-0.5-0.4-1.1-0.8-1.6-1.1c0,0.1,0,0.3,0,0.4C154,132.8,154.6,133.1,155.1,133.3z"/>
				<path class="st7" d="M153.7,137.3c0.2,4.9,0.1,9.8-0.1,14.5c0,0.5-0.1,2.7-0.3,5.1c2.1-1.8,3.6-4.2,4.3-7
					c0.7-2.6,0.5-5.3-0.3-7.7C156.5,140.3,155.3,138.6,153.7,137.3z"/>
				<path class="st10" d="M153.7,137.3c0.2,4.9,0.1,9.8-0.1,14.5c0,0.5-0.1,2.7-0.3,5.1c2.1-1.8,3.6-4.2,4.3-7
					c0.7-2.6,0.5-5.3-0.3-7.7C156.5,140.3,155.3,138.6,153.7,137.3z"/>
				<path class="st8" d="M157.3,142.2c0.2,0.4,0.3,0.8,0.5,1.2c-0.6-2.6-2.1-5-4.1-6.9v0.1C155.4,138.1,156.6,140,157.3,142.2z"/>
				<path class="st10" d="M157.3,142.2c0.2,0.4,0.3,0.8,0.5,1.2c-0.6-2.6-2.1-5-4.1-6.9v0.1C155.4,138.1,156.6,140,157.3,142.2z"/>
				<path class="st8" d="M153.7,137.3c1.6,1.3,2.8,3,3.6,4.9c-0.7-2.1-2-4-3.6-5.6C153.7,136.8,153.7,137,153.7,137.3z"/>
				<path class="st10" d="M153.7,137.3c1.6,1.3,2.8,3,3.6,4.9c-0.7-2.1-2-4-3.6-5.6C153.7,136.8,153.7,137,153.7,137.3z"/>
				<path class="st6" d="M143.6,28C143.6,28.1,143.6,28,143.6,28c-0.5,1.8-7.1,17.6-6.4,27l0,0h0.7c0-0.9,0.2-1.9,0.5-3
					c1.3-9.5,11.9-22.4,12.9-23.9c0.1-0.1,0.2-0.3,0.3-0.4c4-5.3,8.4-10.6,12.5-16.3c-4.7-1.8-9.6-3.1-14.7-4
					C147.9,14.9,146,21.5,143.6,28z"/>
				<path class="st10" d="M143.6,28C143.6,28.1,143.6,28,143.6,28c-0.5,1.8-7.1,17.6-6.4,27l0,0h0.7c0-0.9,0.2-1.9,0.5-3
					c1.3-9.5,11.9-22.4,12.9-23.9c0.1-0.1,0.2-0.3,0.3-0.4c4-5.3,8.4-10.6,12.5-16.3c-4.7-1.8-9.6-3.1-14.7-4
					C147.9,14.9,146,21.5,143.6,28z"/>
				<path class="st5" d="M118.6,159.8c0.2,2,0.4,3.5,0.6,3.5h22.6c-3-0.5-5.7-1.7-7.9-3.5H118.6z"/>
				<path class="st12" d="M118.6,159.8c0.2,2,0.4,3.5,0.6,3.5h22.6c-3-0.5-5.7-1.7-7.9-3.5H118.6z"/>
				<path class="st5" d="M147.2,163.2h5.3c0.1-0.3,0.3-1,0.4-2C151.2,162.2,149.2,162.9,147.2,163.2z"/>
				<path class="st12" d="M147.2,163.2h5.3c0.1-0.3,0.3-1,0.4-2C151.2,162.2,149.2,162.9,147.2,163.2z"/>
				<path class="st5" d="M146.6,163.3h5.9c0,0,0-0.1,0.1-0.1h-5.3C147,163.3,146.8,163.3,146.6,163.3z"/>
				<path class="st12" d="M146.6,163.3h5.9c0,0,0-0.1,0.1-0.1h-5.3C147,163.3,146.8,163.3,146.6,163.3z"/>
				<path class="st5" d="M142.4,163.3c-0.2,0-0.4-0.1-0.6-0.1h-22.6h-4.9c0.1,0,0.2,0.1,0.3,0.1h6.6h14.5H142.4z"/>
				<path class="st12" d="M142.4,163.3c-0.2,0-0.4-0.1-0.6-0.1h-22.6h-4.9c0.1,0,0.2,0.1,0.3,0.1h6.6h14.5H142.4z"/>
				<path class="st6" d="M152.9,161.2c0.1-0.4,0.1-0.9,0.2-1.5h-5.4c-2.1,0.5-4.4,0.6-6.6,0h-7.2c2.2,1.8,4.9,3,7.9,3.5h5.4
					C149.2,162.9,151.2,162.2,152.9,161.2z"/>
				<path class="st12" d="M152.9,161.2c0.1-0.4,0.1-0.9,0.2-1.5h-5.4c-2.1,0.5-4.4,0.6-6.6,0h-7.2c2.2,1.8,4.9,3,7.9,3.5h5.4
					C149.2,162.9,151.2,162.2,152.9,161.2z"/>
				<path class="st6" d="M141.8,163.2c0.2,0,0.4,0.1,0.6,0.1h4.2c0.2,0,0.4-0.1,0.6-0.1H141.8z"/>
				<path class="st12" d="M141.8,163.2c0.2,0,0.4,0.1,0.6,0.1h4.2c0.2,0,0.4-0.1,0.6-0.1H141.8z"/>
				<path class="st7" d="M147.7,159.8h-6.6C143.3,160.3,145.6,160.3,147.7,159.8z"/>
				<path class="st12" d="M147.7,159.8h-6.6C143.3,160.3,145.6,160.3,147.7,159.8z"/>
				<path class="st5" d="M118.6,159.8h-14.1l0,0c3.2,1.4,6.5,2.5,9.9,3.5h4.9C119,163.3,118.8,161.7,118.6,159.8z"/>
				<path class="st11" d="M118.6,159.8h-14.1l0,0c3.2,1.4,6.5,2.5,9.9,3.5h4.9C119,163.3,118.8,161.7,118.6,159.8z"/>
				<path class="st12" d="M118.6,159.8h-14.1l0,0c3.2,1.4,6.5,2.5,9.9,3.5h4.9C119,163.3,118.8,161.7,118.6,159.8z"/>
				<path class="st6" d="M104.4,159.8L104.4,159.8L104.4,159.8L104.4,159.8z"/>
				<path class="st11" d="M104.4,159.8L104.4,159.8L104.4,159.8L104.4,159.8z"/>
				<path class="st12" d="M104.4,159.8L104.4,159.8L104.4,159.8L104.4,159.8z"/>
				<path class="st5" d="M155.1,159.8c-0.7,0.5-1.4,1-2.2,1.5c-0.1,1-0.3,1.7-0.4,2h4.8c3.4-1,6.7-2.1,9.9-3.5H155.1z"/>
				<path class="st10" d="M155.1,159.8c-0.7,0.5-1.4,1-2.2,1.5c-0.1,1-0.3,1.7-0.4,2h4.8c3.4-1,6.7-2.1,9.9-3.5H155.1z"/>
				<path class="st12" d="M155.1,159.8c-0.7,0.5-1.4,1-2.2,1.5c-0.1,1-0.3,1.7-0.4,2h4.8c3.4-1,6.7-2.1,9.9-3.5H155.1z"/>
				<path class="st5" d="M152.5,163.2C152.5,163.3,152.5,163.3,152.5,163.2l4.5,0.1c0.1,0,0.2-0.1,0.3-0.1H152.5z"/>
				<path class="st10" d="M152.5,163.2C152.5,163.3,152.5,163.3,152.5,163.2l4.5,0.1c0.1,0,0.2-0.1,0.3-0.1H152.5z"/>
				<path class="st12" d="M152.5,163.2C152.5,163.3,152.5,163.3,152.5,163.2l4.5,0.1c0.1,0,0.2-0.1,0.3-0.1H152.5z"/>
				<path class="st6" d="M155.1,159.8h-2c-0.1,0.5-0.1,1-0.2,1.5C153.7,160.8,154.4,160.3,155.1,159.8z"/>
				<path class="st10" d="M155.1,159.8h-2c-0.1,0.5-0.1,1-0.2,1.5C153.7,160.8,154.4,160.3,155.1,159.8z"/>
				<path class="st12" d="M155.1,159.8h-2c-0.1,0.5-0.1,1-0.2,1.5C153.7,160.8,154.4,160.3,155.1,159.8z"/>
			</g>
			<path class="st13" d="M134.8,169.2c-46.4,0-84.2-37.7-84.2-84.1S88.4,0.9,134.8,0.9S219,38.7,219,85.1S181.2,169.2,134.8,169.2z
				 M134.8,9.4C93,9.4,59.1,43.3,59.1,85.1s33.9,75.7,75.7,75.7s75.7-33.9,75.7-75.7S176.5,9.4,134.8,9.4z"/>
			<g>
				<path class="st14" d="M17.1,193.9H11v16.7H6v-16.7H0v-3.8h17.1V193.9z"/>
				<path class="st14" d="M36.4,210.6h-4.9V202h-7.3v8.6h-4.9v-20.5h4.9v8.1h7.3v-8.1h4.9V210.6z"/>
				<path class="st14" d="M52.2,201.9h-7.8v4.9h9.2v3.8H39.5v-20.5h14.2v3.8h-9.2v4.3h7.8L52.2,201.9L52.2,201.9z"/>
				<path class="st14" d="M70.8,205l4.1-14.9h5.5l-6.9,20.5h-5.4l-6.8-20.5h5.5L70.8,205z"/>
				<path class="st14" d="M92.5,206.8h-6.8l-1.2,3.8h-5.3l7.5-20.5h4.7l7.6,20.5h-5.3L92.5,206.8z M86.9,202.9h4.4l-2.2-7.1
					L86.9,202.9z"/>
				<path class="st14" d="M105.5,206.8h8.6v3.8h-13.6v-20.5h4.9L105.5,206.8L105.5,206.8z"/>
				<path class="st14" d="M131.9,190.1v13.4c0,1.5-0.3,2.8-1,4s-1.6,2-2.8,2.5c-1.2,0.6-2.6,0.9-4.3,0.9c-2.5,0-4.5-0.6-5.9-1.9
					s-2.2-3.1-2.2-5.3v-13.5h5v13.6c0.1,2.2,1.1,3.4,3.1,3.4c1,0,1.8-0.3,2.3-0.8s0.8-1.5,0.8-2.7v-13.4h5V190.1L131.9,190.1z"/>
				<path class="st14" d="M147.7,201.9h-7.8v4.9h9.2v3.8H135v-20.5h14.2v3.8H140v4.3h7.8v3.7H147.7L147.7,201.9z"/>
				<path class="st14" d="M175.7,200.8c0,2-0.4,3.8-1.1,5.3c-0.7,1.5-1.8,2.7-3.2,3.6c-1.4,0.8-2.9,1.2-4.7,1.2s-3.3-0.4-4.7-1.2
					s-2.4-2-3.2-3.4c-0.8-1.5-1.2-3.2-1.2-5.1v-1.3c0-2,0.4-3.8,1.1-5.3s1.8-2.7,3.2-3.6c1.4-0.8,2.9-1.3,4.7-1.3
					c1.7,0,3.3,0.4,4.7,1.2s2.4,2,3.2,3.5s1.1,3.3,1.1,5.2L175.7,200.8L175.7,200.8z M170.7,199.9c0-2-0.3-3.6-1-4.6
					c-0.7-1.1-1.7-1.6-2.9-1.6c-2.5,0-3.8,1.9-3.9,5.6v1.5c0,2,0.3,3.6,1,4.6c0.7,1.1,1.7,1.6,3,1.6c1.2,0,2.2-0.5,2.9-1.6
					s1-2.6,1-4.6v-0.9H170.7z"/>
				<path class="st14" d="M191.2,202.4h-8v8.2h-4.9v-20.5H192v3.8h-8.8v4.7h8V202.4z"/>
				<path class="st14" d="M216.5,193.9h-6.2v16.7h-4.9v-16.7h-6v-3.8h17.1L216.5,193.9L216.5,193.9z"/>
				<path class="st14" d="M223.8,210.6h-4.9v-20.5h4.9V210.6z"/>
				<path class="st14" d="M233.8,190.1l4.6,14.3l4.6-14.3h6.5v20.5h-5v-4.8l0.5-9.8l-5,14.6h-3.3l-5-14.6l0.5,9.8v4.8h-4.9v-20.5
					H233.8z"/>
				<path class="st14" d="M265.3,201.9h-7.8v4.9h9.2v3.8h-14.1v-20.5h14.2v3.8h-9.2v4.3h7.8v3.7H265.3L265.3,201.9z"/>
			</g>
		</g>
	</g>
</g>
</svg>
