<?xml version="1.0" encoding="UTF-8"?>
<svg preserveAspectRatio="none slice" width="1002px" height="1005px" viewBox="0 0 1002 1005" version="1.1" xmlns="http://www.w3.org/2000/svg" xmlns:xlink="http://www.w3.org/1999/xlink">
    <!-- Generator: Sketch 49.2 (51160) - http://www.bohemiancoding.com/sketch -->
    <title>Page 1</title>
    <desc>Created with Sketch.</desc>
    <defs>
        <polygon id="path-1" points="0 0.691815739 1001.68977 0.691815739 1001.68977 1002.45488 0 1002.45488"></polygon>
    </defs>
    <g id="Worldwide" stroke="none" stroke-width="1" fill="none" fill-rule="evenodd" opacity="0.336730072">
        <g id="Worldwide_1" transform="translate(-524.000000, 121.000000)">
            <g id="Page-1" transform="translate(524.000000, -121.000000)">
                <g id="Group-3">
                    <mask id="mask-2" fill="white">
                        <use xlink:href="#path-1"></use>
                    </mask>
                    <g id="Clip-2"></g>
                    <path d="M0,501.572577 C0,778.20252 224.236038,1002.45488 500.843919,1002.45488 C777.453727,1002.45488 1001.68977,778.20252 1001.68977,501.572577 C1001.68977,224.942635 777.453727,0.690274088 500.843919,0.690274088 C224.236038,0.690274088 0,224.942635 0,501.572577" id="Fill-1" fill="#036F73" mask="url(#mask-2)"></path>
                </g>
                <path d="M261.351828,848.896227 C261.351828,848.896227 240.96177,773.191348 320.257294,746.609075 C399.552817,720.028731 360.280581,849.017775 430.892805,848.078192 C501.503104,847.136681 575.674152,834.690589 578.237353,887.44226 C580.798628,940.19586 544.549851,974.242701 612.517992,958.35276 C680.484208,942.466678 666.890195,975.269103 666.890195,975.269103 C666.890195,975.269103 548.380208,1023.87658 419.592384,996.788822 C290.804561,969.702994 261.351828,848.896227 261.351828,848.896227" id="Fill-4" fill="#0A8C8C"></path>
                <path d="M651.530648,344.789519 C651.530648,344.789519 673.682533,337.405157 681.065853,380.659446 C688.449172,423.911808 642.038084,440.792 597.734313,423.911808 C553.432469,407.033542 554.488055,395.428169 534.445415,395.428169 C514.4047,395.428169 528.11768,426.023277 459.554707,417.583181 C390.989806,409.143085 329.812078,490.374916 363.565773,554.728482 C397.319467,619.082047 460.259714,577.939228 517.922034,611.697686 C575.584355,645.454217 508.07504,668.664963 566.089864,772.051806 C624.104688,875.436722 680.010267,848.008818 691.614003,801.589253 C703.217738,755.17354 722.202867,696.094794 766.506637,604.311397 C810.808481,512.529927 754.902902,513.583735 754.902902,513.583735 C754.902902,513.583735 778.108446,512.529927 798.151086,473.49665 C798.707773,472.412018 799.279869,471.36399 799.86545,470.354492 C815.485418,443.431336 852.563821,438.707503 875.570962,459.671923 C901.802646,483.574291 949.255837,527.104072 955.317748,534.683012 C963.756653,545.234578 998.565933,500.924554 998.565933,500.924554 C998.565933,500.924554 1014.07803,434.239896 966.782793,317.835539 C934.444894,238.245105 894.55609,189.382709 873.386593,167.106326 C867.939156,161.374921 859.588858,159.407941 852.255621,162.365154 C846.513467,164.680834 836.256181,166.501398 818.1918,166.501398 C768.615882,166.501398 741.189921,182.325856 722.202867,198.150314 C703.217738,213.974772 554.488055,157.005568 529.17134,201.313664 C503.856551,245.621761 497.52689,244.567953 450.060216,317.361615 C402.593542,390.15335 452.169461,407.033542 499.636135,358.504434 C547.102809,309.977253 537.610245,359.560169 572.419524,369.054073 C607.228804,378.547977 651.530648,344.789519 651.530648,344.789519" id="Fill-6" fill="#8AB146"></path>
                <path d="M158.496629,868 C158.496629,868 180.042972,857.757212 183.833139,837.528092 C187.623307,817.298972 215.420439,790.747167 244.479676,764.195363 C273.54084,737.643558 264.694546,707.298914 264.694546,707.298914 C264.694546,707.298914 296.281846,694.655473 287.437479,660.516061 C278.593112,626.378577 209.102209,575.880014 181.305076,577.1083 C153.509871,578.33273 157.300039,566.954211 137.083242,559.366604 C116.868372,551.780925 90.3352708,560.633455 81.4909039,569.484056 C72.646537,578.33273 66.3302331,592.241093 66.3302331,592.241093 L39.7952054,577.1083 C39.7952054,577.1083 42.3232685,555.575693 39.7952054,545.460168 C37.2690693,535.344644 24.6345346,522.701203 24.6345346,522.701203 L24.6345346,505 L12,518.908364 L12,569.484056 C12,569.484056 56.2218346,599.8287 56.2218346,626.378577 C56.2218346,652.93231 49.9036039,663.045906 68.8563693,682.012032 C87.8091346,700.976229 110.552068,733.850718 108.024005,757.874606 C105.497868,781.896566 103.422622,807.160309 103.422622,807.160309 C103.422622,807.160309 139.763528,854.567911 158.496629,868" id="Fill-8" fill="#8AB146"></path>
                <path d="M2,454.152482 C2,454.152482 22.4373883,449.55163 31.2746574,454.609482 C40.1119266,459.667334 43.8990526,477.36885 60.3105738,479.89874 C76.722095,482.426702 42.6360355,436.909894 99.4467764,423.001284 C156.257517,409.092674 187.819468,374.954586 202.969897,358.516086 C218.118402,342.079514 186.556451,325.641014 174.353703,321.427745 C162.14903,317.212547 146.578879,319.742437 140.267644,321.427745 C133.954483,323.113053 131.008727,335.336355 114.175558,342.079514 C97.3423897,348.822674 84.2982724,335.758646 76.722095,329.015486 C69.1478429,322.270399 65.7804391,319.121534 65.7804391,319.121534 C65.7804391,319.121534 88.0853984,291.925217 93.9769112,287.711948 C99.8684239,283.49675 121.330088,290.6622 141.950383,280.968788 C162.570678,271.273448 162.570678,259.894728 162.570678,259.894728 L148.683265,248.093717 C148.683265,248.093717 139.426274,258.631711 125.117214,256.522184 C110.81008,254.416513 99.4467764,254.836876 99.4467764,254.836876 L71.2560804,244 C71.2560804,244 2.98769479,353.406171 2,454.152482" id="Fill-10" fill="#8AB146"></path>
                <path d="M237.015203,239.58214 C237.015203,239.58214 246.717568,220.588365 261.061705,219.323529 C275.403912,218.056763 293.542529,216.369028 306.620552,199.906856 C319.698576,183.446614 398.162858,194.84172 398.162858,194.84172 C398.162858,194.84172 413.350427,207.038211 415.880724,215.291504 C418.41102,223.542866 380.022311,255.198514 363.570559,269.550052 C347.118807,283.89966 309.996211,277.567758 309.996211,277.567758 C309.996211,277.567758 291.012232,297.828299 285.106277,302.891503 C279.200322,307.956638 273.294367,294.450898 267.811093,286.854161 C262.325888,279.257423 267.811093,266.174583 256.419933,256.042381 C245.030704,245.91211 236.592522,245.491142 237.015203,239.58214" id="Fill-12" fill="#8AB146"></path>
                <path d="M372.788103,58.1335741 C372.788103,58.1335741 352.509763,101.554622 448.531571,130.108398 C544.551451,158.658328 541.566676,108.693066 597.033732,115.83151 C652.500787,122.969954 713.384012,134.837233 699.343233,98.5661676 C685.302453,62.2970255 718,49.9701325 718,49.9701325 C718,49.9701325 655.91361,17.4355967 585.917954,8.0413889 C515.924226,-1.35089583 480.702733,1.36448215 480.702733,1.36448215 C480.702733,1.36448215 421.095942,17.0894437 478.350391,39.0990053 C535.60484,61.1066438 490.279848,81.9258237 445.548725,61.7008731 C400.81953,41.4778456 374.401964,51.3624368 372.788103,58.1335741" id="Fill-14" fill="#0A8C8C"></path>
                <path d="M267.021459,91.0272769 C267.021459,91.0272769 272.827786,73.1368245 299.624294,66.8744914 C326.420803,60.6121582 323.294319,89.6853484 294.264608,99.9734672 C265.234896,110.259658 267.021459,91.0272769 267.021459,91.0272769" id="Fill-16" fill="#0A8C8C"></path>
                <path d="M997,572 C997,572 957.843982,576.893288 930.985486,612.121098 C904.12506,647.346979 914.86923,671.826929 936.355642,665.258149 C957.843982,658.691299 960.827188,671.826929 917.854365,713.02513 C874.879613,754.221401 915.052545,784 915.052545,784 C915.052545,784 984.22972,695.476855 997,572" id="Fill-18" fill="#0A8C8C"></path>
            </g>
        </g>
    </g>
</svg>