<?xml version="1.0" encoding="utf-8"?>
<!-- Generator: Adobe Illustrator 22.1.0, SVG Export Plug-In . SVG Version: 6.00 Build 0)  -->
<svg version="1.1" xmlns="http://www.w3.org/2000/svg" xmlns:xlink="http://www.w3.org/1999/xlink" x="0px" y="0px"
	 viewBox="0 0 35.2 32.8" style="enable-background:new 0 0 35.2 32.8;" xml:space="preserve">
<style type="text/css">
	.st0{fill:#FFFFFF;}
</style>
<g id="Layer_1">
	<path class="st0" d="M27.6,19.6c0,5.5-4.5,10-10,10s-10-4.5-10-10s4.5-10,10-10S27.6,14.1,27.6,19.6z M29.6,19.6
		c0-6.6-5.4-12-12-12s-12,5.4-12,12s5.4,12,12,12S29.6,26.2,29.6,19.6z M17.6,21.6l-4.5-4.5l-1.5,1.5l6,6l6-6l-1.5-1.5L17.6,21.6z"
		/>
</g>
<g id="Layer_2">
</g>
<g id="Layer_3">
	<g>
		<path class="st0" d="M4.4,13.3l-2.1-1.9l0.3-0.7l2.7,2.6L5,14l-3.7-0.4l0.3-0.7L4.4,13.3z"/>
		<path class="st0" d="M6.5,10.2l-0.8,1l0.4,0.6l-0.5,0.6l-2-3.2l0.4-0.5l3.6,1.1l-0.5,0.6L6.5,10.2z M5.4,10.7L6,10L4.6,9.5
			L5.4,10.7z"/>
		<path class="st0" d="M8.1,8.8l1.2-1l0.4,0.4L7.9,9.7L5.6,7l0.6-0.5L8.1,8.8z"/>
		<path class="st0" d="M10.5,3.7l1.1,2c0.2,0.3,0.2,0.7,0.1,1C11.6,7,11.4,7.3,11,7.5c-0.4,0.2-0.7,0.3-1,0.2
			C9.7,7.6,9.4,7.4,9.2,7.1L8.1,5l0.6-0.4l1.1,2.1C10,6.9,10.1,7,10.2,7.1c0.1,0,0.3,0,0.5-0.1c0.4-0.2,0.4-0.5,0.2-0.9L9.8,4
			L10.5,3.7z"/>
		<path class="st0" d="M14.2,4.6L12.9,5l0.3,0.9l1.6-0.5L14.9,6l-2.3,0.7l-1-3.4l2.3-0.7L14,3.1l-1.6,0.5l0.2,0.8L14,4L14.2,4.6z"/>
		<path class="st0" d="M19.2,4.1c0,0.3-0.1,0.7-0.2,0.9c-0.1,0.3-0.3,0.5-0.5,0.6c-0.2,0.1-0.5,0.2-0.8,0.2c-0.3,0-0.6-0.1-0.8-0.2
			c-0.2-0.1-0.4-0.3-0.5-0.6c-0.1-0.3-0.2-0.6-0.2-0.9l0-0.2c0-0.4,0.1-0.7,0.2-0.9c0.1-0.3,0.3-0.5,0.5-0.6
			c0.2-0.1,0.5-0.2,0.8-0.2c0.3,0,0.6,0.1,0.8,0.2C18.7,2.5,18.9,2.7,19,3s0.2,0.6,0.2,0.9L19.2,4.1z M18.5,3.9
			c0-0.4-0.1-0.7-0.2-0.9S18,2.8,17.7,2.8c-0.2,0-0.4,0.1-0.6,0.3c-0.1,0.2-0.2,0.5-0.2,0.8l0,0.2c0,0.4,0.1,0.6,0.2,0.8
			c0.1,0.2,0.3,0.3,0.6,0.3c0.2,0,0.4-0.1,0.6-0.3c0.1-0.2,0.2-0.5,0.2-0.8L18.5,3.9z"/>
		<path class="st0" d="M22,4.9l-1.4-0.3L20.3,6l-0.7-0.2l0.8-3.5l2.3,0.5l-0.1,0.6l-1.5-0.3L20.7,4l1.4,0.3L22,4.9z"/>
		<path class="st0" d="M26.8,5.5l-1-0.5l-1.4,2.6l-0.6-0.3l1.4-2.6l-0.9-0.5l0.3-0.5L27.1,5L26.8,5.5z"/>
		<path class="st0" d="M26.3,8.8l-0.6-0.4l2.2-2.8L28.4,6L26.3,8.8z"/>
		<path class="st0" d="M30.1,7.4l-1.3,2.4l2.5-1l0.6,0.7l-2.7,2.3l-0.5-0.6l0.7-0.6l1.3-1l-2.6,1l-0.3-0.4l1.4-2.5L28,9l-0.7,0.6
			l-0.5-0.6l2.7-2.3L30.1,7.4z"/>
		<path class="st0" d="M31.7,13.5l-0.6-1.3l-0.9,0.4l0.7,1.5l-0.5,0.3l-1.1-2.1l3.2-1.6l1.1,2.1l-0.5,0.3l-0.7-1.5L31.6,12l0.6,1.3
			L31.7,13.5z"/>
	</g>
</g>
</svg>
